<svg xmlns="http://www.w3.org/2000/svg" viewBox="0 0 800 300" width="800" height="300">
<rect width="800" height="300" fill="#0f172a"/>
<line x1="0" y1="60" x2="800" y2="60" stroke="#1e293b" stroke-width="1"/>
<line x1="0" y1="120" x2="800" y2="120" stroke="#1e293b" stroke-width="1"/>
<line x1="0" y1="180" x2="800" y2="180" stroke="#1e293b" stroke-width="1"/>
<line x1="0" y1="240" x2="800" y2="240" stroke="#1e293b" stroke-width="1"/>
<line x1="80" y1="0" x2="80" y2="300" stroke="#1e293b" stroke-width="1"/>
<line x1="160" y1="0" x2="160" y2="300" stroke="#1e293b" stroke-width="1"/>
<line x1="240" y1="0" x2="240" y2="300" stroke="#1e293b" stroke-width="1"/>
<line x1="320" y1="0" x2="320" y2="300" stroke="#1e293b" stroke-width="1"/>
<line x1="400" y1="0" x2="400" y2="300" stroke="#1e293b" stroke-width="1"/>
<line x1="480" y1="0" x2="480" y2="300" stroke="#1e293b" stroke-width="1"/>
<line x1="560" y1="0" x2="560" y2="300" stroke="#1e293b" stroke-width="1"/>
<line x1="640" y1="0" x2="640" y2="300" stroke="#1e293b" stroke-width="1"/>
<line x1="720" y1="0" x2="720" y2="300" stroke="#1e293b" stroke-width="1"/>
<text x="60" y="28" font-family="monospace" font-size="11" fill="#FF6600" font-weight="bold">DATABASE STATE: CORRUPTED</text>
<rect x="80" y="45" width="140" height="30" fill="#1e293b" stroke="#FF6600" stroke-width="1" rx="4" opacity="0.70"/>
<rect x="80" y="73" width="140" height="120" fill="#1e293b" stroke="#334155" stroke-width="1" opacity="0.70"/>
<line x1="120" y1="45" x2="105" y2="193" stroke="#FF6600" stroke-width="1.5" opacity="0.90"/>
<line x1="160" y1="50" x2="175" y2="193" stroke="#FF6600" stroke-width="1.0" opacity="0.70"/>
<line x1="140" y1="45" x2="155" y2="130" stroke="#FF6600" stroke-width="1.0" opacity="0.50"/>
<rect x="92" y="210" width="25" height="18" fill="#2d1a0a" stroke="#FF6600" stroke-width="1" rx="2" opacity="0.80"/>
<rect x="125" y="220" width="30" height="15" fill="#2d1a0a" stroke="#FF6600" stroke-width="1" rx="2" opacity="0.60"/>
<rect x="165" y="215" width="20" height="20" fill="#2d1a0a" stroke="#FF6600" stroke-width="1" rx="2" opacity="0.70"/>
<rect x="192" y="228" width="22" height="12" fill="#2d1a0a" stroke="#FF6600" stroke-width="1" rx="2" opacity="0.50"/>
<line x1="88" y1="88" x2="212" y2="88" stroke="#334155" stroke-width="1.0"/>
<line x1="88" y1="100" x2="212" y2="100" stroke="#334155" stroke-width="1.0"/>
<line x1="88" y1="112" x2="212" y2="112" stroke="#334155" stroke-width="1.0"/>
<line x1="88" y1="124" x2="212" y2="124" stroke="#334155" stroke-width="1.0"/>
<line x1="88" y1="136" x2="212" y2="136" stroke="#334155" stroke-width="1.0"/>
<line x1="88" y1="148" x2="212" y2="148" stroke="#334155" stroke-width="1.0"/>
<text x="93" y="97" font-family="monospace" font-size="9" fill="#FF6600">X</text>
<text x="120" y="110" font-family="monospace" font-size="9" fill="#FF6600">X</text>
<text x="148" y="122" font-family="monospace" font-size="9" fill="#FF6600">??</text>
<text x="170" y="135" font-family="monospace" font-size="9" fill="#FF6600">X</text>
<text x="100" y="148" font-family="monospace" font-size="9" fill="#FF6600">ERR</text>
<text x="160" y="110" font-family="monospace" font-size="9" fill="#FF6600">NULL</text>
<text x="80" y="245" font-family="monospace" font-size="10" fill="#FF6600">ERR: DATA CORRUPTED</text>
<text x="80" y="257" font-family="monospace" font-size="9" fill="#94a3b8">CHECKSUM FAIL</text>
<line x1="270" y1="150" x2="310" y2="150" stroke="#FF6600" stroke-width="2.5"/>
<path d="M 310 142 L 326 150 L 310 158" stroke="#FF6600" stroke-width="2.0" fill="#FF6600" opacity="0.80"/>
<text x="270" y="170" font-family="monospace" font-size="9" fill="#94a3b8">RESTORE</text>
<text x="345" y="28" font-family="monospace" font-size="11" fill="#e2e8f0">RESTORE IN PROGRESS: 67%</text>
<rect x="360" y="45" width="140" height="30" fill="#1e293b" stroke="#94a3b8" stroke-width="1.5" rx="4"/>
<rect x="360" y="73" width="140" height="140" fill="#1e293b" stroke="#94a3b8" stroke-width="1" opacity="0.90"/>
<rect x="362" y="103" width="136" height="108" fill="#0a2010" opacity="1.00"/>
<rect x="362" y="103" width="136" height="72" fill="#0d3d1a" opacity="1.00"/>
<line x1="362" y1="103" x2="498" y2="103" stroke="#22c55e" stroke-width="1.5"/>
<line x1="368" y1="88" x2="492" y2="88" stroke="#94a3b8" stroke-width="1.0" opacity="0.50"/>
<line x1="368" y1="110" x2="492" y2="110" stroke="#22c55e" stroke-width="1.0" opacity="0.80"/>
<line x1="368" y1="122" x2="492" y2="122" stroke="#22c55e" stroke-width="1.0" opacity="0.80"/>
<line x1="368" y1="134" x2="492" y2="134" stroke="#22c55e" stroke-width="1.0" opacity="0.80"/>
<line x1="368" y1="146" x2="492" y2="146" stroke="#22c55e" stroke-width="1.0" opacity="0.80"/>
<line x1="368" y1="158" x2="492" y2="158" stroke="#22c55e" stroke-width="1.0" opacity="0.60"/>
<line x1="368" y1="170" x2="492" y2="170" stroke="#334155" stroke-width="1.0" opacity="0.50"/>
<line x1="368" y1="182" x2="492" y2="182" stroke="#334155" stroke-width="1.0" opacity="0.30"/>
<text x="375" y="97" font-family="monospace" font-size="8" fill="#22c55e">[RECOVERING]</text>
<text x="375" y="119" font-family="monospace" font-size="8" fill="#22c55e">ROW 1..4821  OK</text>
<text x="375" y="131" font-family="monospace" font-size="8" fill="#22c55e">ROW 4822..9100  OK</text>
<text x="375" y="143" font-family="monospace" font-size="8" fill="#22c55e">ROW 9101..12048  OK</text>
<text x="375" y="155" font-family="monospace" font-size="8" fill="#94a3b8">ROW 12049..  ...</text>
<rect x="360" y="220" width="140" height="14" fill="#0f172a" stroke="#94a3b8" stroke-width="1" rx="2"/>
<rect x="361" y="221" width="93" height="12" fill="#22c55e" rx="2" opacity="0.85"/>
<text x="360" y="248" font-family="monospace" font-size="9" fill="#22c55e">67% - ETA 4m 12s</text>
<text x="360" y="260" font-family="monospace" font-size="9" fill="#94a3b8">INTEGRITY CHECK: PASS</text>
<rect x="560" y="45" width="210" height="225" fill="#1e293b" stroke="#334155" stroke-width="1" rx="2"/>
<text x="572" y="63" font-family="monospace" font-size="11" fill="#e2e8f0">RESTORE LOG</text>
<line x1="572" y1="68" x2="758" y2="68" stroke="#334155" stroke-width="1.0" opacity="0.40"/>
<text x="572" y="82" font-family="monospace" font-size="9" fill="#22c55e">[OK] Snapshot loaded</text>
<text x="572" y="96" font-family="monospace" font-size="9" fill="#22c55e">[OK] Schema rebuilt</text>
<text x="572" y="110" font-family="monospace" font-size="9" fill="#22c55e">[OK] Index repaired</text>
<text x="572" y="124" font-family="monospace" font-size="9" fill="#94a3b8">[  ] Row data 67%...</text>
<text x="572" y="138" font-family="monospace" font-size="9" fill="#94a3b8">[  ] Verify checksum</text>
<text x="572" y="152" font-family="monospace" font-size="9" fill="#94a3b8">[  ] Reconnect svcs</text>
<line x1="572" y1="162" x2="758" y2="162" stroke="#334155" stroke-width="1.0" opacity="0.40"/>
<text x="572" y="178" font-family="monospace" font-size="9" fill="#94a3b8">BACKUP TIMESTAMP</text>
<text x="572" y="192" font-family="monospace" font-size="9" fill="#e2e8f0">2024-08-09 18:32 SGT</text>
<text x="572" y="210" font-family="monospace" font-size="9" fill="#94a3b8">SOURCE: NAS-03</text>
<text x="572" y="224" font-family="monospace" font-size="9" fill="#94a3b8">REPLICA: SG-DR-01</text>
<text x="572" y="242" font-family="monospace" font-size="10" fill="#FF6600" font-weight="bold">DATA LOSS: ~2 min</text>
<text x="572" y="258" font-family="monospace" font-size="9" fill="#22c55e">RPO TARGET: 5 min</text>
<rect x="10" y="266" width="244" height="22" fill="#0f172a" opacity="0.85"/>
<text x="16" y="281" font-family="monospace" font-size="12" fill="#e2e8f0">ARC 1 CH 3 - DATABASE RESTORE</text>
</svg>