<svg xmlns="http://www.w3.org/2000/svg" viewBox="0 0 800 300" width="800" height="300">
<rect width="800" height="300" fill="#0f172a"/>
<line x1="80" y1="0" x2="80" y2="300" stroke="#1e293b" stroke-width="1"/>
<line x1="160" y1="0" x2="160" y2="300" stroke="#1e293b" stroke-width="1"/>
<line x1="240" y1="0" x2="240" y2="300" stroke="#1e293b" stroke-width="1"/>
<line x1="320" y1="0" x2="320" y2="300" stroke="#1e293b" stroke-width="1"/>
<line x1="400" y1="0" x2="400" y2="300" stroke="#1e293b" stroke-width="1"/>
<line x1="480" y1="0" x2="480" y2="300" stroke="#1e293b" stroke-width="1"/>
<line x1="560" y1="0" x2="560" y2="300" stroke="#1e293b" stroke-width="1"/>
<line x1="640" y1="0" x2="640" y2="300" stroke="#1e293b" stroke-width="1"/>
<line x1="720" y1="0" x2="720" y2="300" stroke="#1e293b" stroke-width="1"/>
<line x1="0" y1="60" x2="800" y2="60" stroke="#1e293b" stroke-width="1"/>
<line x1="0" y1="120" x2="800" y2="120" stroke="#1e293b" stroke-width="1"/>
<line x1="0" y1="180" x2="800" y2="180" stroke="#1e293b" stroke-width="1"/>
<line x1="0" y1="240" x2="800" y2="240" stroke="#1e293b" stroke-width="1"/>
<rect x="0" y="240" width="800" height="60" fill="#0f172a"/>
<line x1="0" y1="240" x2="800" y2="240" stroke="#334155" stroke-width="2.0"/>
<rect x="0" y="233" width="800" height="7" fill="#FF6600" opacity="0.1"/>
<rect x="80" y="40" width="50" height="100" fill="#1e293b" stroke="#334155" stroke-width="1"/>
<rect x="88" y="52" width="6" height="6" fill="#FF6600" opacity="0.6"/>
<rect x="102" y="52" width="6" height="6" fill="#FF6600" opacity="0.8"/>
<rect x="88" y="70" width="6" height="6" fill="#FF6600" opacity="0.7"/>
<rect x="102" y="70" width="6" height="6" fill="#FF6600" opacity="0.5"/>
<rect x="88" y="88" width="6" height="6" fill="#FF6600" opacity="0.8"/>
<rect x="102" y="88" width="6" height="6" fill="#FF6600" opacity="0.7"/>
<rect x="88" y="106" width="6" height="6" fill="#FF6600" opacity="0.6"/>
<rect x="102" y="106" width="6" height="6" fill="#FF6600" opacity="0.8"/>
<rect x="88" y="124" width="6" height="6" fill="#FF6600" opacity="0.5"/>
<rect x="102" y="124" width="6" height="6" fill="#FF6600" opacity="0.7"/>
<rect x="200" y="50" width="45" height="80" fill="#1e293b" stroke="#334155" stroke-width="1"/>
<rect x="207" y="62" width="6" height="6" fill="#FF6600" opacity="0.8"/>
<rect x="219" y="62" width="6" height="6" fill="#FF6600" opacity="0.6"/>
<rect x="231" y="62" width="6" height="6" fill="#FF6600" opacity="0.7"/>
<rect x="207" y="78" width="6" height="6" fill="#FF6600" opacity="0.7"/>
<rect x="219" y="78" width="6" height="6" fill="#FF6600" opacity="0.8"/>
<rect x="231" y="78" width="6" height="6" fill="#FF6600" opacity="0.5"/>
<rect x="207" y="94" width="6" height="6" fill="#FF6600" opacity="0.6"/>
<rect x="219" y="94" width="6" height="6" fill="#FF6600" opacity="0.7"/>
<rect x="231" y="94" width="6" height="6" fill="#FF6600" opacity="0.8"/>
<rect x="120" y="160" width="90" height="55" fill="#1e293b" stroke="#334155" stroke-width="1"/>
<rect x="128" y="172" width="6" height="6" fill="#FF6600" opacity="0.7"/>
<rect x="142" y="172" width="6" height="6" fill="#FF6600" opacity="0.8"/>
<rect x="156" y="172" width="6" height="6" fill="#FF6600" opacity="0.5"/>
<rect x="170" y="172" width="6" height="6" fill="#FF6600" opacity="0.6"/>
<rect x="184" y="172" width="6" height="6" fill="#FF6600" opacity="0.8"/>
<rect x="128" y="192" width="6" height="6" fill="#FF6600" opacity="0.5"/>
<rect x="142" y="192" width="6" height="6" fill="#FF6600" opacity="0.7"/>
<rect x="156" y="192" width="6" height="6" fill="#FF6600" opacity="0.8"/>
<rect x="170" y="192" width="6" height="6" fill="#FF6600" opacity="0.5"/>
<rect x="184" y="192" width="6" height="6" fill="#FF6600" opacity="0.6"/>
<circle cx="380" cy="75" r="7" fill="#FF6600"/>
<line x1="380" y1="75" x2="350" y2="45" stroke="#FF6600" stroke-width="2" opacity="0.8"/>
<circle cx="350" cy="45" r="3" fill="#FF6600" opacity="0.8"/>
<line x1="380" y1="75" x2="410" y2="45" stroke="#FF6600" stroke-width="2" opacity="0.8"/>
<circle cx="410" cy="45" r="3" fill="#FF6600" opacity="0.8"/>
<line x1="380" y1="75" x2="380" y2="30" stroke="#FF6600" stroke-width="2" opacity="0.9"/>
<circle cx="380" cy="30" r="3" fill="#FF6600" opacity="0.9"/>
<line x1="380" y1="75" x2="430" y2="75" stroke="#FF6600" stroke-width="2" opacity="0.8"/>
<circle cx="430" cy="75" r="3" fill="#FF6600" opacity="0.8"/>
<line x1="380" y1="75" x2="330" y2="75" stroke="#FF6600" stroke-width="2" opacity="0.8"/>
<circle cx="330" cy="75" r="3" fill="#FF6600" opacity="0.8"/>
<rect x="360" y="130" width="40" height="80" fill="#1e293b" stroke="#334155" stroke-width="1"/>
<rect x="368" y="142" width="6" height="6" fill="#FF6600" opacity="0.7"/>
<rect x="380" y="142" width="6" height="6" fill="#FF6600" opacity="0.8"/>
<rect x="368" y="160" width="6" height="6" fill="#FF6600" opacity="0.6"/>
<rect x="380" y="160" width="6" height="6" fill="#FF6600" opacity="0.7"/>
<rect x="368" y="178" width="6" height="6" fill="#FF6600" opacity="0.8"/>
<rect x="380" y="178" width="6" height="6" fill="#FF6600" opacity="0.5"/>
<rect x="368" y="196" width="6" height="6" fill="#FF6600" opacity="0.6"/>
<rect x="380" y="196" width="6" height="6" fill="#FF6600" opacity="0.8"/>
<rect x="560" y="45" width="55" height="95" fill="#1e293b" stroke="#334155" stroke-width="1"/>
<rect x="568" y="57" width="6" height="6" fill="#FF6600" opacity="0.8"/>
<rect x="582" y="57" width="6" height="6" fill="#FF6600" opacity="0.6"/>
<rect x="596" y="57" width="6" height="6" fill="#FF6600" opacity="0.7"/>
<rect x="568" y="75" width="6" height="6" fill="#FF6600" opacity="0.5"/>
<rect x="582" y="75" width="6" height="6" fill="#FF6600" opacity="0.8"/>
<rect x="596" y="75" width="6" height="6" fill="#FF6600" opacity="0.7"/>
<rect x="568" y="93" width="6" height="6" fill="#FF6600" opacity="0.7"/>
<rect x="582" y="93" width="6" height="6" fill="#FF6600" opacity="0.5"/>
<rect x="596" y="93" width="6" height="6" fill="#FF6600" opacity="0.8"/>
<rect x="568" y="111" width="6" height="6" fill="#FF6600" opacity="0.6"/>
<rect x="582" y="111" width="6" height="6" fill="#FF6600" opacity="0.7"/>
<rect x="596" y="111" width="6" height="6" fill="#FF6600" opacity="0.5"/>
<rect x="540" y="160" width="60" height="65" fill="#1e293b" stroke="#334155" stroke-width="1"/>
<rect x="548" y="172" width="6" height="6" fill="#FF6600" opacity="0.7"/>
<rect x="562" y="172" width="6" height="6" fill="#FF6600" opacity="0.8"/>
<rect x="576" y="172" width="6" height="6" fill="#FF6600" opacity="0.5"/>
<rect x="590" y="172" width="6" height="6" fill="#FF6600" opacity="0.6"/>
<rect x="548" y="190" width="6" height="6" fill="#FF6600" opacity="0.8"/>
<rect x="562" y="190" width="6" height="6" fill="#FF6600" opacity="0.6"/>
<rect x="576" y="190" width="6" height="6" fill="#FF6600" opacity="0.7"/>
<rect x="590" y="190" width="6" height="6" fill="#FF6600" opacity="0.8"/>
<rect x="548" y="208" width="6" height="6" fill="#FF6600" opacity="0.5"/>
<rect x="562" y="208" width="6" height="6" fill="#FF6600" opacity="0.7"/>
<rect x="576" y="208" width="6" height="6" fill="#FF6600" opacity="0.8"/>
<rect x="590" y="208" width="6" height="6" fill="#FF6600" opacity="0.6"/>
<rect x="10" y="266" width="204" height="22" fill="#0f172a" opacity="0.85"/>
<text x="16" y="281" font-family="monospace" font-size="12" fill="#e2e8f0">ARC 1 GROUP - ONE SHOT</text>
</svg>
