<svg xmlns="http://www.w3.org/2000/svg" viewBox="0 0 800 300" width="800" height="300">
<rect width="800" height="300" fill="#0f172a"/>
<line x1="80" y1="0" x2="80" y2="300" stroke="#1e293b" stroke-width="1"/>
<line x1="160" y1="0" x2="160" y2="300" stroke="#1e293b" stroke-width="1"/>
<line x1="240" y1="0" x2="240" y2="300" stroke="#1e293b" stroke-width="1"/>
<line x1="320" y1="0" x2="320" y2="300" stroke="#1e293b" stroke-width="1"/>
<line x1="400" y1="0" x2="400" y2="300" stroke="#1e293b" stroke-width="1"/>
<line x1="480" y1="0" x2="480" y2="300" stroke="#1e293b" stroke-width="1"/>
<line x1="560" y1="0" x2="560" y2="300" stroke="#1e293b" stroke-width="1"/>
<line x1="640" y1="0" x2="640" y2="300" stroke="#1e293b" stroke-width="1"/>
<line x1="720" y1="0" x2="720" y2="300" stroke="#1e293b" stroke-width="1"/>
<line x1="0" y1="60" x2="800" y2="60" stroke="#1e293b" stroke-width="1"/>
<line x1="0" y1="120" x2="800" y2="120" stroke="#1e293b" stroke-width="1"/>
<line x1="0" y1="180" x2="800" y2="180" stroke="#1e293b" stroke-width="1"/>
<line x1="0" y1="240" x2="800" y2="240" stroke="#1e293b" stroke-width="1"/>
<rect x="0" y="240" width="800" height="60" fill="#0f172a"/>
<line x1="0" y1="240" x2="800" y2="240" stroke="#334155" stroke-width="2.0"/>
<rect x="0" y="233" width="800" height="7" fill="#FF6600" opacity="0.1"/>
<circle cx="150" cy="80" r="6" fill="#FF6600"/>
<line x1="150" y1="80" x2="150" y2="30" stroke="#FF6600" stroke-width="2" opacity="0.8"/>
<circle cx="150" cy="30" r="3" fill="#FF6600" opacity="0.8"/>
<line x1="150" y1="80" x2="190" y2="50" stroke="#FF6600" stroke-width="2" opacity="0.8"/>
<circle cx="190" cy="50" r="3" fill="#FF6600" opacity="0.8"/>
<line x1="150" y1="80" x2="110" y2="50" stroke="#FF6600" stroke-width="2" opacity="0.8"/>
<circle cx="110" cy="50" r="3" fill="#FF6600" opacity="0.8"/>
<rect x="100" y="130" width="50" height="60" fill="#1e293b" stroke="#334155" stroke-width="1"/>
<rect x="108" y="142" width="6" height="6" fill="#FF6600" opacity="0.7"/>
<rect x="122" y="142" width="6" height="6" fill="#FF6600" opacity="0.5"/>
<rect x="136" y="142" width="6" height="6" fill="#FF6600" opacity="0.6"/>
<rect x="108" y="158" width="6" height="6" fill="#FF6600" opacity="0.5"/>
<rect x="122" y="158" width="6" height="6" fill="#FF6600" opacity="0.8"/>
<rect x="136" y="158" width="6" height="6" fill="#FF6600" opacity="0.7"/>
<rect x="108" y="174" width="6" height="6" fill="#FF6600" opacity="0.6"/>
<rect x="122" y="174" width="6" height="6" fill="#FF6600" opacity="0.5"/>
<rect x="136" y="174" width="6" height="6" fill="#FF6600" opacity="0.8"/>
<circle cx="350" cy="85" r="5" fill="#FF6600"/>
<line x1="350" y1="85" x2="320" y2="45" stroke="#FF6600" stroke-width="1.5" opacity="0.7"/>
<circle cx="320" cy="45" r="2" fill="#FF6600" opacity="0.7"/>
<line x1="350" y1="85" x2="380" y2="45" stroke="#FF6600" stroke-width="1.5" opacity="0.7"/>
<circle cx="380" cy="45" r="2" fill="#FF6600" opacity="0.7"/>
<line x1="350" y1="85" x2="350" y2="40" stroke="#FF6600" stroke-width="1.5" opacity="0.8"/>
<circle cx="350" cy="40" r="2" fill="#FF6600" opacity="0.8"/>
<rect x="330" y="130" width="40" height="70" fill="#1e293b" stroke="#334155" stroke-width="1"/>
<rect x="338" y="142" width="6" height="6" fill="#FF6600" opacity="0.8"/>
<rect x="350" y="142" width="6" height="6" fill="#FF6600" opacity="0.6"/>
<rect x="338" y="160" width="6" height="6" fill="#FF6600" opacity="0.5"/>
<rect x="350" y="160" width="6" height="6" fill="#FF6600" opacity="0.8"/>
<rect x="338" y="178" width="6" height="6" fill="#FF6600" opacity="0.7"/>
<rect x="350" y="178" width="6" height="6" fill="#FF6600" opacity="0.5"/>
<rect x="338" y="196" width="6" height="6" fill="#FF6600" opacity="0.6"/>
<rect x="350" y="196" width="6" height="6" fill="#FF6600" opacity="0.8"/>
<circle cx="550" cy="90" r="6" fill="#FF6600"/>
<line x1="550" y1="90" x2="550" y2="35" stroke="#FF6600" stroke-width="2" opacity="0.8"/>
<circle cx="550" cy="35" r="3" fill="#FF6600" opacity="0.8"/>
<line x1="550" y1="90" x2="600" y2="60" stroke="#FF6600" stroke-width="2" opacity="0.8"/>
<circle cx="600" cy="60" r="3" fill="#FF6600" opacity="0.8"/>
<line x1="550" y1="90" x2="500" y2="60" stroke="#FF6600" stroke-width="2" opacity="0.8"/>
<circle cx="500" cy="60" r="3" fill="#FF6600" opacity="0.8"/>
<line x1="550" y1="90" x2="550" y2="115" stroke="#FF6600" stroke-width="1.5" opacity="0.6"/>
<circle cx="550" cy="115" r="2" fill="#FF6600" opacity="0.6"/>
<rect x="530" y="130" width="40" height="75" fill="#1e293b" stroke="#334155" stroke-width="1"/>
<rect x="538" y="140" width="6" height="6" fill="#FF6600" opacity="0.7"/>
<rect x="550" y="140" width="6" height="6" fill="#FF6600" opacity="0.8"/>
<rect x="538" y="158" width="6" height="6" fill="#FF6600" opacity="0.6"/>
<rect x="550" y="158" width="6" height="6" fill="#FF6600" opacity="0.7"/>
<rect x="538" y="176" width="6" height="6" fill="#FF6600" opacity="0.8"/>
<rect x="550" y="176" width="6" height="6" fill="#FF6600" opacity="0.5"/>
<rect x="538" y="194" width="6" height="6" fill="#FF6600" opacity="0.5"/>
<rect x="550" y="194" width="6" height="6" fill="#FF6600" opacity="0.8"/>
<rect x="10" y="266" width="204" height="22" fill="#0f172a" opacity="0.85"/>
<text x="16" y="281" font-family="monospace" font-size="12" fill="#e2e8f0">ARC 1 GROUP - THE DEBRIEF</text>
</svg>
