<svg xmlns="http://www.w3.org/2000/svg" viewBox="0 0 800 300" width="800" height="300">
<!-- Background -->
<rect width="800" height="300" fill="#0f172a"/>
<!-- Grid -->
<line x1="80" y1="0" x2="80" y2="300" stroke="#1e293b" stroke-width="1"/>
<line x1="160" y1="0" x2="160" y2="300" stroke="#1e293b" stroke-width="1"/>
<line x1="240" y1="0" x2="240" y2="300" stroke="#1e293b" stroke-width="1"/>
<line x1="320" y1="0" x2="320" y2="300" stroke="#1e293b" stroke-width="1"/>
<line x1="400" y1="0" x2="400" y2="300" stroke="#1e293b" stroke-width="1"/>
<line x1="480" y1="0" x2="480" y2="300" stroke="#1e293b" stroke-width="1"/>
<line x1="560" y1="0" x2="560" y2="300" stroke="#1e293b" stroke-width="1"/>
<line x1="640" y1="0" x2="640" y2="300" stroke="#1e293b" stroke-width="1"/>
<line x1="720" y1="0" x2="720" y2="300" stroke="#1e293b" stroke-width="1"/>
<line x1="0" y1="60" x2="800" y2="60" stroke="#1e293b" stroke-width="1"/>
<line x1="0" y1="120" x2="800" y2="120" stroke="#1e293b" stroke-width="1"/>
<line x1="0" y1="180" x2="800" y2="180" stroke="#1e293b" stroke-width="1"/>
<line x1="0" y1="240" x2="800" y2="240" stroke="#1e293b" stroke-width="1"/>

<!-- Room walls - perspective -->
<polygon points="0,0 120,40 120,220 0,240" fill="#151e2e" stroke="#1e293b" stroke-width="1"/>
<polygon points="800,0 680,40 680,220 800,240" fill="#151e2e" stroke="#1e293b" stroke-width="1"/>
<rect x="120" y="40" width="560" height="180" fill="#131b2a" stroke="#1e293b" stroke-width="1"/>

<!-- Large screen on back wall -->
<rect x="200" y="50" width="400" height="120" rx="3" fill="#0c1322" stroke="#334155" stroke-width="2"/>
<!-- Screen content - NDP 2026 timeline -->
<rect x="210" y="58" width="380" height="104" fill="#0f172a"/>
<text x="220" y="74" font-family="monospace" font-size="9" fill="#0ea5e9" opacity="0.9">NDP 2026 — INCIDENT TIMELINE</text>
<line x1="220" y1="80" x2="580" y2="80" stroke="#334155" stroke-width="1"/>
<!-- Timeline bar -->
<rect x="220" y="85" width="360" height="6" rx="2" fill="#1e293b"/>
<rect x="220" y="85" width="120" height="6" rx="2" fill="#22c55e" opacity="0.6"/>
<rect x="340" y="85" width="80" height="6" rx="2" fill="#FF6600" opacity="0.7"/>
<rect x="420" y="85" width="60" height="6" rx="2" fill="#ef4444" opacity="0.6"/>
<rect x="480" y="85" width="100" height="6" rx="2" fill="#0ea5e9" opacity="0.5"/>
<!-- Timeline markers -->
<circle cx="340" cy="88" r="4" fill="#FF6600" stroke="#0f172a" stroke-width="1"/>
<circle cx="420" cy="88" r="4" fill="#ef4444" stroke="#0f172a" stroke-width="1"/>
<text x="330" y="103" font-family="monospace" font-size="7" fill="#FF6600">ALERT</text>
<text x="408" y="103" font-family="monospace" font-size="7" fill="#ef4444">CRISIS</text>
<!-- Bar chart -->
<rect x="220" y="145" width="20" height="12" fill="#0ea5e9" opacity="0.6"/>
<rect x="245" y="140" width="20" height="17" fill="#0ea5e9" opacity="0.7"/>
<rect x="270" y="130" width="20" height="27" fill="#FF6600" opacity="0.7"/>
<rect x="295" y="135" width="20" height="22" fill="#FF6600" opacity="0.6"/>
<rect x="320" y="148" width="20" height="9" fill="#0ea5e9" opacity="0.5"/>
<!-- Data lines -->
<polyline points="380,150 410,140 440,145 470,130 500,135 530,148 560,142" fill="none" stroke="#0ea5e9" stroke-width="1.5" opacity="0.7"/>
<polyline points="380,145 410,148 440,135 470,140 500,130 530,138 560,132" fill="none" stroke="#FF6600" stroke-width="1.5" opacity="0.6"/>
<!-- Screen glow -->
<rect x="200" y="50" width="400" height="120" rx="3" fill="none" stroke="#0ea5e9" stroke-width="1" opacity="0.3"/>

<!-- Overhead lights -->
<rect x="280" y="38" width="60" height="4" rx="1" fill="#334155"/>
<polygon points="285,42 295,55 325,55 335,42" fill="#FF6600" opacity="0.04"/>
<rect x="460" y="38" width="60" height="4" rx="1" fill="#334155"/>
<polygon points="465,42 475,55 505,55 515,42" fill="#FF6600" opacity="0.04"/>

<!-- Conference table - oval -->
<ellipse cx="400" cy="195" rx="220" ry="35" fill="#1e293b" stroke="#334155" stroke-width="1.5"/>
<ellipse cx="400" cy="195" rx="200" ry="28" fill="#192336"/>

<!-- Documents on table -->
<rect x="310" y="185" width="18" height="14" rx="1" fill="#253048" stroke="#334155" stroke-width="0.5" transform="rotate(-5 319 192)"/>
<rect x="335" y="188" width="18" height="14" rx="1" fill="#253048" stroke="#334155" stroke-width="0.5"/>
<rect x="440" y="186" width="18" height="14" rx="1" fill="#253048" stroke="#FF6600" stroke-width="0.5" opacity="0.7" transform="rotate(8 449 193)"/>
<text x="443" y="196" font-family="monospace" font-size="4" fill="#FF6600" opacity="0.6">CLASSIFIED</text>
<rect x="470" y="189" width="14" height="10" rx="1" fill="#253048" stroke="#334155" stroke-width="0.5"/>
<!-- Laptop -->
<rect x="360" y="183" width="20" height="13" rx="1" fill="#0c1322" stroke="#0ea5e9" stroke-width="0.5"/>
<rect x="362" y="185" width="16" height="9" fill="#0ea5e9" opacity="0.15"/>

<!-- Standing chair figure (at head of table) -->
<circle cx="400" cy="140" r="8" fill="#94a3b8"/>
<rect x="393" y="148" width="14" height="22" rx="2" fill="#94a3b8"/>
<!-- Gesturing arm -->
<line x1="407" y1="152" x2="425" y2="145" stroke="#94a3b8" stroke-width="3" stroke-linecap="round"/>
<line x1="393" y1="155" x2="380" y2="148" stroke="#94a3b8" stroke-width="3" stroke-linecap="round"/>
<!-- Authority badge -->
<rect x="396" y="150" width="8" height="3" rx="1" fill="#FF6600"/>

<!-- Seated figures - back row (facing us) -->
<g opacity="0.7">
  <!-- Person 1 -->
  <circle cx="260" cy="175" r="6" fill="#64748b"/>
  <rect x="254" y="181" width="12" height="14" rx="2" fill="#64748b"/>
  <!-- Person 2 -->
  <circle cx="320" cy="172" r="6" fill="#64748b"/>
  <rect x="314" y="178" width="12" height="14" rx="2" fill="#64748b"/>
  <!-- Person 3 -->
  <circle cx="480" cy="172" r="6" fill="#64748b"/>
  <rect x="474" y="178" width="12" height="14" rx="2" fill="#64748b"/>
  <!-- Person 4 -->
  <circle cx="540" cy="175" r="6" fill="#64748b"/>
  <rect x="534" y="181" width="12" height="14" rx="2" fill="#64748b"/>
</g>

<!-- Seated figures - front row (backs to us) -->
<g opacity="0.55">
  <!-- Person 5 -->
  <circle cx="280" cy="212" r="6" fill="#475569"/>
  <rect x="274" y="204" width="12" height="14" rx="2" fill="#475569"/>
  <!-- Person 6 -->
  <circle cx="350" cy="216" r="6" fill="#475569"/>
  <rect x="344" y="208" width="12" height="14" rx="2" fill="#475569"/>
  <!-- Person 7 -->
  <circle cx="450" cy="216" r="6" fill="#475569"/>
  <rect x="444" y="208" width="12" height="14" rx="2" fill="#475569"/>
  <!-- Person 8 -->
  <circle cx="520" cy="212" r="6" fill="#475569"/>
  <rect x="514" y="204" width="12" height="14" rx="2" fill="#475569"/>
</g>

<!-- Singapore flag on left wall -->
<rect x="30" y="60" width="40" height="28" rx="1" fill="#1e293b" stroke="#334155" stroke-width="1"/>
<rect x="31" y="61" width="38" height="14" fill="#ef4444" opacity="0.4"/>
<rect x="31" y="75" width="38" height="12" fill="#e2e8f0" opacity="0.15"/>
<circle cx="42" cy="68" r="4" fill="none" stroke="#e2e8f0" stroke-width="0.5" opacity="0.4"/>

<!-- Clock on right wall -->
<circle cx="740" cy="75" r="12" fill="#1e293b" stroke="#334155" stroke-width="1"/>
<line x1="740" y1="75" x2="740" y2="67" stroke="#e2e8f0" stroke-width="1" opacity="0.6"/>
<line x1="740" y1="75" x2="747" y2="78" stroke="#FF6600" stroke-width="0.8" opacity="0.7"/>

<!-- Bottom bar -->
<rect x="0" y="240" width="800" height="60" fill="#0f172a"/>
<line x1="0" y1="240" x2="800" y2="240" stroke="#334155" stroke-width="2"/>
<rect x="0" y="233" width="800" height="7" fill="#FF6600" opacity="0.08"/>
<rect x="10" y="266" width="230" height="22" fill="#0f172a" opacity="0.85"/>
<text x="16" y="281" font-family="monospace" font-size="12" fill="#e2e8f0">ARC 1 GROUP - THE DEBRIEF</text>
</svg>