<svg xmlns="http://www.w3.org/2000/svg" viewBox="0 0 800 300" width="800" height="300">
<!-- Background -->
<rect width="800" height="300" fill="#0f172a"/>
<!-- Grid -->
<line x1="80" y1="0" x2="80" y2="300" stroke="#1e293b" stroke-width="1"/>
<line x1="160" y1="0" x2="160" y2="300" stroke="#1e293b" stroke-width="1"/>
<line x1="240" y1="0" x2="240" y2="300" stroke="#1e293b" stroke-width="1"/>
<line x1="320" y1="0" x2="320" y2="300" stroke="#1e293b" stroke-width="1"/>
<line x1="400" y1="0" x2="400" y2="300" stroke="#1e293b" stroke-width="1"/>
<line x1="480" y1="0" x2="480" y2="300" stroke="#1e293b" stroke-width="1"/>
<line x1="560" y1="0" x2="560" y2="300" stroke="#1e293b" stroke-width="1"/>
<line x1="640" y1="0" x2="640" y2="300" stroke="#1e293b" stroke-width="1"/>
<line x1="720" y1="0" x2="720" y2="300" stroke="#1e293b" stroke-width="1"/>
<line x1="0" y1="60" x2="800" y2="60" stroke="#1e293b" stroke-width="1"/>
<line x1="0" y1="120" x2="800" y2="120" stroke="#1e293b" stroke-width="1"/>
<line x1="0" y1="180" x2="800" y2="180" stroke="#1e293b" stroke-width="1"/>
<line x1="0" y1="240" x2="800" y2="240" stroke="#1e293b" stroke-width="1"/>

<!-- Government room - pillars -->
<rect x="40" y="20" width="18" height="220" fill="#1e293b" stroke="#334155" stroke-width="1"/>
<rect x="42" y="20" width="14" height="4" fill="#334155"/>
<rect x="42" y="236" width="14" height="4" fill="#334155"/>
<rect x="742" y="20" width="18" height="220" fill="#1e293b" stroke="#334155" stroke-width="1"/>
<rect x="744" y="20" width="14" height="4" fill="#334155"/>
<rect x="744" y="236" width="14" height="4" fill="#334155"/>

<!-- Crest/emblem on wall -->
<circle cx="400" cy="28" r="16" fill="#1e293b" stroke="#FF6600" stroke-width="1.5" opacity="0.6"/>
<polygon points="400,16 404,24 412,24 406,29 408,37 400,33 392,37 394,29 388,24 396,24" fill="#FF6600" opacity="0.4"/>

<!-- Minister figure at podium (left side) -->
<!-- Podium -->
<rect x="80" y="130" width="60" height="80" rx="3" fill="#1e293b" stroke="#334155" stroke-width="1.5"/>
<rect x="85" y="135" width="50" height="10" rx="1" fill="#253048"/>
<rect x="95" y="150" width="30" height="3" rx="1" fill="#FF6600" opacity="0.5"/>
<!-- Microphone -->
<line x1="115" y1="128" x2="115" y2="115" stroke="#94a3b8" stroke-width="1.5"/>
<circle cx="115" cy="112" r="3" fill="#94a3b8"/>
<!-- Minister figure -->
<circle cx="110" cy="90" r="10" fill="#94a3b8"/>
<rect x="100" y="100" width="20" height="30" rx="3" fill="#94a3b8"/>
<line x1="120" y1="108" x2="140" y2="100" stroke="#94a3b8" stroke-width="3" stroke-linecap="round"/>
<!-- Authority sash -->
<line x1="104" y1="102" x2="116" y2="120" stroke="#FF6600" stroke-width="2" opacity="0.7"/>

<!-- Large holographic display showing 4 investment options -->
<rect x="240" y="45" width="480" height="150" rx="4" fill="#0c1322" stroke="#0ea5e9" stroke-width="1" opacity="0.6"/>
<!-- Holographic glow -->
<rect x="240" y="45" width="480" height="150" rx="4" fill="#0ea5e9" opacity="0.03"/>
<text x="380" y="62" font-family="monospace" font-size="9" fill="#0ea5e9" opacity="0.8">STRATEGIC INVESTMENT OPTIONS</text>
<line x1="250" y1="67" x2="710" y2="67" stroke="#334155" stroke-width="1"/>

<!-- Option 1: Digital Command Centre -->
<rect x="255" y="75" width="105" height="105" rx="3" fill="#151e2e" stroke="#334155" stroke-width="1"/>
<!-- Building/HQ icon -->
<rect x="282" y="95" width="50" height="40" rx="2" fill="#1e293b" stroke="#0ea5e9" stroke-width="1"/>
<rect x="290" y="100" width="8" height="8" fill="#0ea5e9" opacity="0.6"/>
<rect x="302" y="100" width="8" height="8" fill="#0ea5e9" opacity="0.4"/>
<rect x="314" y="100" width="8" height="8" fill="#0ea5e9" opacity="0.7"/>
<rect x="290" y="112" width="8" height="8" fill="#0ea5e9" opacity="0.5"/>
<rect x="302" y="112" width="8" height="8" fill="#0ea5e9" opacity="0.8"/>
<rect x="314" y="112" width="8" height="8" fill="#0ea5e9" opacity="0.4"/>
<!-- Antenna -->
<line x1="307" y1="95" x2="307" y2="85" stroke="#0ea5e9" stroke-width="1.5"/>
<circle cx="307" cy="83" r="2" fill="#0ea5e9"/>
<text x="262" y="155" font-family="monospace" font-size="6" fill="#94a3b8">COMMAND CENTRE</text>
<text x="275" y="168" font-family="monospace" font-size="6" fill="#334155">PERMANENT</text>

<!-- Option 2: Predictive AI System -->
<rect x="370" y="75" width="105" height="105" rx="3" fill="#151e2e" stroke="#334155" stroke-width="1"/>
<!-- Brain/AI icon -->
<circle cx="422" cy="110" r="18" fill="none" stroke="#a855f7" stroke-width="1.5" opacity="0.7"/>
<path d="M410,105 Q416,95 422,105 Q428,95 434,105" fill="none" stroke="#a855f7" stroke-width="1" opacity="0.6"/>
<path d="M410,115 Q416,125 422,115 Q428,125 434,115" fill="none" stroke="#a855f7" stroke-width="1" opacity="0.6"/>
<circle cx="415" cy="108" r="2" fill="#a855f7" opacity="0.8"/>
<circle cx="429" cy="108" r="2" fill="#a855f7" opacity="0.8"/>
<circle cx="422" cy="118" r="2" fill="#a855f7" opacity="0.6"/>
<!-- Neural connections -->
<line x1="415" y1="108" x2="429" y2="108" stroke="#a855f7" stroke-width="0.5" opacity="0.5"/>
<line x1="422" y1="118" x2="415" y2="108" stroke="#a855f7" stroke-width="0.5" opacity="0.5"/>
<line x1="422" y1="118" x2="429" y2="108" stroke="#a855f7" stroke-width="0.5" opacity="0.5"/>
<text x="380" y="155" font-family="monospace" font-size="6" fill="#94a3b8">PREDICTIVE AI</text>
<text x="395" y="168" font-family="monospace" font-size="6" fill="#334155">SYSTEM</text>

<!-- Option 3: Distributed Platform -->
<rect x="485" y="75" width="105" height="105" rx="3" fill="#151e2e" stroke="#334155" stroke-width="1"/>
<!-- Network mesh icon -->
<circle cx="515" cy="105" r="4" fill="#22c55e" opacity="0.7"/>
<circle cx="540" cy="95" r="4" fill="#22c55e" opacity="0.7"/>
<circle cx="555" cy="115" r="4" fill="#22c55e" opacity="0.7"/>
<circle cx="530" cy="125" r="4" fill="#22c55e" opacity="0.7"/>
<circle cx="510" cy="120" r="4" fill="#22c55e" opacity="0.7"/>
<line x1="515" y1="105" x2="540" y2="95" stroke="#22c55e" stroke-width="1" opacity="0.5"/>
<line x1="540" y1="95" x2="555" y2="115" stroke="#22c55e" stroke-width="1" opacity="0.5"/>
<line x1="555" y1="115" x2="530" y2="125" stroke="#22c55e" stroke-width="1" opacity="0.5"/>
<line x1="530" y1="125" x2="510" y2="120" stroke="#22c55e" stroke-width="1" opacity="0.5"/>
<line x1="510" y1="120" x2="515" y2="105" stroke="#22c55e" stroke-width="1" opacity="0.5"/>
<line x1="515" y1="105" x2="555" y2="115" stroke="#22c55e" stroke-width="0.5" opacity="0.3"/>
<line x1="540" y1="95" x2="530" y2="125" stroke="#22c55e" stroke-width="0.5" opacity="0.3"/>
<text x="490" y="155" font-family="monospace" font-size="6" fill="#94a3b8">DISTRIBUTED</text>
<text x="497" y="168" font-family="monospace" font-size="6" fill="#334155">PLATFORM</text>

<!-- Option 4: Train 200 Officers -->
<rect x="600" y="75" width="105" height="105" rx="3" fill="#151e2e" stroke="#334155" stroke-width="1"/>
<!-- People rows -->
<g fill="#FF6600" opacity="0.6">
  <circle cx="625" cy="98" r="3"/><circle cx="637" cy="98" r="3"/><circle cx="649" cy="98" r="3"/><circle cx="661" cy="98" r="3"/><circle cx="673" cy="98" r="3"/>
  <circle cx="625" cy="110" r="3"/><circle cx="637" cy="110" r="3"/><circle cx="649" cy="110" r="3"/><circle cx="661" cy="110" r="3"/><circle cx="673" cy="110" r="3"/>
  <circle cx="625" cy="122" r="3"/><circle cx="637" cy="122" r="3"/><circle cx="649" cy="122" r="3"/><circle cx="661" cy="122" r="3"/><circle cx="673" cy="122" r="3"/>
</g>
<!-- Graduation cap -->
<polygon points="649,85 639,90 649,95 659,90" fill="#FF6600" opacity="0.7"/>
<line x1="649" y1="90" x2="649" y2="82" stroke="#FF6600" stroke-width="1" opacity="0.6"/>
<text x="615" y="155" font-family="monospace" font-size="6" fill="#94a3b8">200 OFFICERS</text>
<text x="622" y="168" font-family="monospace" font-size="6" fill="#334155">TRAINING</text>

<!-- 5-year timeline arrow at bottom of display -->
<line x1="260" y1="190" x2="700" y2="190" stroke="#FF6600" stroke-width="1.5" opacity="0.4"/>
<polygon points="700,186 710,190 700,194" fill="#FF6600" opacity="0.5"/>
<text x="260" y="188" font-family="monospace" font-size="7" fill="#FF6600" opacity="0.6">YR1</text>
<text x="370" y="188" font-family="monospace" font-size="7" fill="#FF6600" opacity="0.5">YR2</text>
<text x="470" y="188" font-family="monospace" font-size="7" fill="#FF6600" opacity="0.4">YR3</text>
<text x="570" y="188" font-family="monospace" font-size="7" fill="#FF6600" opacity="0.4">YR4</text>
<text x="670" y="188" font-family="monospace" font-size="7" fill="#FF6600" opacity="0.5">YR5</text>

<!-- Team figures facing the display -->
<g opacity="0.6">
  <circle cx="180" cy="195" r="7" fill="#64748b"/>
  <rect x="174" y="202" width="12" height="18" rx="2" fill="#64748b"/>
  <circle cx="210" cy="200" r="7" fill="#64748b"/>
  <rect x="204" y="207" width="12" height="18" rx="2" fill="#64748b"/>
  <circle cx="155" cy="205" r="7" fill="#64748b"/>
  <rect x="149" y="212" width="12" height="18" rx="2" fill="#64748b"/>
</g>

<!-- "ONE SHOT" emphasis -->
<text x="110" y="220" font-family="monospace" font-size="8" fill="#FF6600" opacity="0.3">CHOOSE WISELY</text>

<!-- Bottom bar -->
<rect x="0" y="240" width="800" height="60" fill="#0f172a"/>
<line x1="0" y1="240" x2="800" y2="240" stroke="#334155" stroke-width="2"/>
<rect x="0" y="233" width="800" height="7" fill="#FF6600" opacity="0.08"/>
<rect x="10" y="266" width="220" height="22" fill="#0f172a" opacity="0.85"/>
<text x="16" y="281" font-family="monospace" font-size="12" fill="#e2e8f0">ARC 1 GROUP - ONE SHOT</text>
</svg>