<svg xmlns="http://www.w3.org/2000/svg" viewBox="0 0 800 300" width="800" height="300">
<rect width="800" height="300" fill="#0f172a"/>
<line x1="0" y1="0" x2="0" y2="300" stroke="#1e293b" stroke-width="1.0" opacity="0.50"/>
<line x1="40" y1="0" x2="40" y2="300" stroke="#1e293b" stroke-width="1.0" opacity="0.50"/>
<line x1="80" y1="0" x2="80" y2="300" stroke="#1e293b" stroke-width="1.0" opacity="0.50"/>
<line x1="120" y1="0" x2="120" y2="300" stroke="#1e293b" stroke-width="1.0" opacity="0.50"/>
<line x1="160" y1="0" x2="160" y2="300" stroke="#1e293b" stroke-width="1.0" opacity="0.50"/>
<line x1="200" y1="0" x2="200" y2="300" stroke="#1e293b" stroke-width="1.0" opacity="0.50"/>
<line x1="240" y1="0" x2="240" y2="300" stroke="#1e293b" stroke-width="1.0" opacity="0.50"/>
<line x1="280" y1="0" x2="280" y2="300" stroke="#1e293b" stroke-width="1.0" opacity="0.50"/>
<line x1="320" y1="0" x2="320" y2="300" stroke="#1e293b" stroke-width="1.0" opacity="0.50"/>
<line x1="360" y1="0" x2="360" y2="300" stroke="#1e293b" stroke-width="1.0" opacity="0.50"/>
<line x1="400" y1="0" x2="400" y2="300" stroke="#1e293b" stroke-width="1.0" opacity="0.50"/>
<line x1="440" y1="0" x2="440" y2="300" stroke="#1e293b" stroke-width="1.0" opacity="0.50"/>
<line x1="480" y1="0" x2="480" y2="300" stroke="#1e293b" stroke-width="1.0" opacity="0.50"/>
<line x1="520" y1="0" x2="520" y2="300" stroke="#1e293b" stroke-width="1.0" opacity="0.50"/>
<line x1="560" y1="0" x2="560" y2="300" stroke="#1e293b" stroke-width="1.0" opacity="0.50"/>
<line x1="600" y1="0" x2="600" y2="300" stroke="#1e293b" stroke-width="1.0" opacity="0.50"/>
<line x1="640" y1="0" x2="640" y2="300" stroke="#1e293b" stroke-width="1.0" opacity="0.50"/>
<line x1="680" y1="0" x2="680" y2="300" stroke="#1e293b" stroke-width="1.0" opacity="0.50"/>
<line x1="720" y1="0" x2="720" y2="300" stroke="#1e293b" stroke-width="1.0" opacity="0.50"/>
<line x1="760" y1="0" x2="760" y2="300" stroke="#1e293b" stroke-width="1.0" opacity="0.50"/>
<line x1="0" y1="0" x2="800" y2="0" stroke="#1e293b" stroke-width="1.0" opacity="0.50"/>
<line x1="0" y1="40" x2="800" y2="40" stroke="#1e293b" stroke-width="1.0" opacity="0.50"/>
<line x1="0" y1="80" x2="800" y2="80" stroke="#1e293b" stroke-width="1.0" opacity="0.50"/>
<line x1="0" y1="120" x2="800" y2="120" stroke="#1e293b" stroke-width="1.0" opacity="0.50"/>
<line x1="0" y1="160" x2="800" y2="160" stroke="#1e293b" stroke-width="1.0" opacity="0.50"/>
<line x1="0" y1="200" x2="800" y2="200" stroke="#1e293b" stroke-width="1.0" opacity="0.50"/>
<line x1="0" y1="240" x2="800" y2="240" stroke="#1e293b" stroke-width="1.0" opacity="0.50"/>
<line x1="0" y1="280" x2="800" y2="280" stroke="#1e293b" stroke-width="1.0" opacity="0.50"/>
<line x1="120" y1="0" x2="120" y2="300" stroke="#334155" stroke-width="1.0"/>
<line x1="240" y1="0" x2="240" y2="300" stroke="#334155" stroke-width="1.0"/>
<line x1="360" y1="0" x2="360" y2="300" stroke="#334155" stroke-width="1.0"/>
<line x1="480" y1="0" x2="480" y2="300" stroke="#334155" stroke-width="1.0"/>
<line x1="600" y1="0" x2="600" y2="300" stroke="#334155" stroke-width="1.0"/>
<line x1="720" y1="0" x2="720" y2="300" stroke="#334155" stroke-width="1.0"/>
<line x1="0" y1="120" x2="800" y2="120" stroke="#334155" stroke-width="1.0"/>
<line x1="0" y1="240" x2="800" y2="240" stroke="#334155" stroke-width="1.0"/>
<rect x="0" y="0" width="800" height="300" fill="none" stroke="#334155" stroke-width="2"/>
<rect x="0" y="0" width="800" height="300" fill="#0c1829" opacity="1.00"/>
<rect x="200" y="80" width="180" height="140" fill="#0a1f12" opacity="0.80"/>
<rect x="480" y="160" width="200" height="100" fill="#1a150a" opacity="0.60"/>
<rect x="40" y="180" width="120" height="80" fill="#0f1520" opacity="0.60"/>
<line x1="0" y1="0" x2="0" y2="300" stroke="#1e293b" stroke-width="1.0" opacity="0.30"/>
<line x1="40" y1="0" x2="40" y2="300" stroke="#1e293b" stroke-width="1.0" opacity="0.30"/>
<line x1="80" y1="0" x2="80" y2="300" stroke="#1e293b" stroke-width="1.0" opacity="0.30"/>
<line x1="120" y1="0" x2="120" y2="300" stroke="#1e293b" stroke-width="1.0" opacity="0.30"/>
<line x1="160" y1="0" x2="160" y2="300" stroke="#1e293b" stroke-width="1.0" opacity="0.30"/>
<line x1="200" y1="0" x2="200" y2="300" stroke="#1e293b" stroke-width="1.0" opacity="0.30"/>
<line x1="240" y1="0" x2="240" y2="300" stroke="#1e293b" stroke-width="1.0" opacity="0.30"/>
<line x1="280" y1="0" x2="280" y2="300" stroke="#1e293b" stroke-width="1.0" opacity="0.30"/>
<line x1="320" y1="0" x2="320" y2="300" stroke="#1e293b" stroke-width="1.0" opacity="0.30"/>
<line x1="360" y1="0" x2="360" y2="300" stroke="#1e293b" stroke-width="1.0" opacity="0.30"/>
<line x1="400" y1="0" x2="400" y2="300" stroke="#1e293b" stroke-width="1.0" opacity="0.30"/>
<line x1="440" y1="0" x2="440" y2="300" stroke="#1e293b" stroke-width="1.0" opacity="0.30"/>
<line x1="480" y1="0" x2="480" y2="300" stroke="#1e293b" stroke-width="1.0" opacity="0.30"/>
<line x1="520" y1="0" x2="520" y2="300" stroke="#1e293b" stroke-width="1.0" opacity="0.30"/>
<line x1="560" y1="0" x2="560" y2="300" stroke="#1e293b" stroke-width="1.0" opacity="0.30"/>
<line x1="600" y1="0" x2="600" y2="300" stroke="#1e293b" stroke-width="1.0" opacity="0.30"/>
<line x1="640" y1="0" x2="640" y2="300" stroke="#1e293b" stroke-width="1.0" opacity="0.30"/>
<line x1="680" y1="0" x2="680" y2="300" stroke="#1e293b" stroke-width="1.0" opacity="0.30"/>
<line x1="720" y1="0" x2="720" y2="300" stroke="#1e293b" stroke-width="1.0" opacity="0.30"/>
<line x1="760" y1="0" x2="760" y2="300" stroke="#1e293b" stroke-width="1.0" opacity="0.30"/>
<line x1="0" y1="0" x2="800" y2="0" stroke="#1e293b" stroke-width="1.0" opacity="0.30"/>
<line x1="0" y1="40" x2="800" y2="40" stroke="#1e293b" stroke-width="1.0" opacity="0.30"/>
<line x1="0" y1="80" x2="800" y2="80" stroke="#1e293b" stroke-width="1.0" opacity="0.30"/>
<line x1="0" y1="120" x2="800" y2="120" stroke="#1e293b" stroke-width="1.0" opacity="0.30"/>
<line x1="0" y1="160" x2="800" y2="160" stroke="#1e293b" stroke-width="1.0" opacity="0.30"/>
<line x1="0" y1="200" x2="800" y2="200" stroke="#1e293b" stroke-width="1.0" opacity="0.30"/>
<line x1="0" y1="240" x2="800" y2="240" stroke="#1e293b" stroke-width="1.0" opacity="0.30"/>
<line x1="0" y1="280" x2="800" y2="280" stroke="#1e293b" stroke-width="1.0" opacity="0.30"/>
<line x1="120" y1="0" x2="120" y2="300" stroke="#334155" stroke-width="0.5" opacity="0.70"/>
<line x1="240" y1="0" x2="240" y2="300" stroke="#334155" stroke-width="0.5" opacity="0.70"/>
<line x1="360" y1="0" x2="360" y2="300" stroke="#334155" stroke-width="0.5" opacity="0.70"/>
<line x1="480" y1="0" x2="480" y2="300" stroke="#334155" stroke-width="0.5" opacity="0.70"/>
<line x1="600" y1="0" x2="600" y2="300" stroke="#334155" stroke-width="0.5" opacity="0.70"/>
<line x1="720" y1="0" x2="720" y2="300" stroke="#334155" stroke-width="0.5" opacity="0.70"/>
<text x="2" y="10" font-family="monospace" font-size="7" fill="#334155">GRID-00</text>
<text x="122" y="10" font-family="monospace" font-size="7" fill="#334155">GRID-01</text>
<text x="242" y="10" font-family="monospace" font-size="7" fill="#334155">GRID-02</text>
<text x="362" y="10" font-family="monospace" font-size="7" fill="#334155">GRID-03</text>
<text x="482" y="10" font-family="monospace" font-size="7" fill="#334155">GRID-04</text>
<text x="602" y="10" font-family="monospace" font-size="7" fill="#334155">GRID-05</text>
<text x="722" y="10" font-family="monospace" font-size="7" fill="#334155">GRID-06</text>
<text x="780" y="10" font-family="monospace" font-size="7" fill="#334155">00</text>
<text x="780" y="130" font-family="monospace" font-size="7" fill="#334155">01</text>
<text x="780" y="250" font-family="monospace" font-size="7" fill="#334155">02</text>
<rect x="120" y="90" width="20" height="20" fill="#0f172a" stroke="#3b82f6" stroke-width="2"/>
<text x="126" y="104" font-family="monospace" font-size="10" fill="#3b82f6" font-weight="bold">I</text>
<text x="115" y="120" font-family="monospace" font-size="8" fill="#3b82f6">INF-1</text>
<rect x="270" y="150" width="20" height="20" fill="#0f172a" stroke="#3b82f6" stroke-width="2"/>
<text x="276" y="164" font-family="monospace" font-size="10" fill="#3b82f6" font-weight="bold">A</text>
<text x="265" y="180" font-family="monospace" font-size="8" fill="#3b82f6">ARM-2</text>
<rect x="340" y="80" width="20" height="20" fill="#0f172a" stroke="#3b82f6" stroke-width="2"/>
<text x="346" y="94" font-family="monospace" font-size="10" fill="#3b82f6" font-weight="bold">C</text>
<text x="332" y="110" font-family="monospace" font-size="8" fill="#3b82f6">CMD-HQ</text>
<rect x="200" y="210" width="20" height="20" fill="#0f172a" stroke="#3b82f6" stroke-width="2"/>
<text x="206" y="224" font-family="monospace" font-size="10" fill="#3b82f6" font-weight="bold">E</text>
<text x="195" y="240" font-family="monospace" font-size="8" fill="#3b82f6">ENG-1</text>
<path d="M 450 68 L 460 80 L 450 92 L 440 80 Z" stroke="#FF6600" stroke-width="2.0" fill="#0f172a"/>
<text x="447" y="84" font-family="monospace" font-size="9" fill="#FF6600" font-weight="bold">A</text>
<text x="432" y="100" font-family="monospace" font-size="8" fill="#FF6600">ARTY-1</text>
<circle cx="550" cy="140" r="10.0" fill="#0f172a" opacity="1.00"/>
<circle cx="550" cy="140" r="10" fill="none" stroke="#94a3b8" stroke-width="2"/>
<text x="547" y="144" font-family="monospace" font-size="9" fill="#94a3b8" font-weight="bold">L</text>
<text x="535" y="160" font-family="monospace" font-size="8" fill="#94a3b8">LOG-2</text>
<path d="M 160 38 L 170 50 L 160 62 L 150 50 Z" stroke="#FF6600" stroke-width="2.0" fill="#0f172a"/>
<text x="157" y="54" font-family="monospace" font-size="9" fill="#FF6600" font-weight="bold">R</text>
<text x="139" y="70" font-family="monospace" font-size="8" fill="#FF6600">RECCE-1</text>
<circle cx="490" cy="200" r="8.0" fill="none" opacity="1.00"/>
<circle cx="490" cy="200" r="8" fill="none" stroke="#FF6600" stroke-width="2" stroke-dasharray="4,2" opacity="0.8"/>
<circle cx="490" cy="200" r="3.0" fill="#FF6600"/>
<text x="502" y="204" font-family="monospace" font-size="8" fill="#FF6600">OBJ-A</text>
<circle cx="620" cy="90" r="8.0" fill="none" opacity="1.00"/>
<circle cx="620" cy="90" r="8" fill="none" stroke="#FF6600" stroke-width="2" stroke-dasharray="4,2" opacity="0.8"/>
<circle cx="620" cy="90" r="3.0" fill="#FF6600"/>
<text x="632" y="94" font-family="monospace" font-size="8" fill="#FF6600">OBJ-B</text>
<circle cx="100" cy="240" r="8.0" fill="none" opacity="1.00"/>
<circle cx="100" cy="240" r="8" fill="none" stroke="#FF6600" stroke-width="2" stroke-dasharray="4,2" opacity="0.8"/>
<circle cx="100" cy="240" r="3.0" fill="#FF6600"/>
<text x="112" y="244" font-family="monospace" font-size="8" fill="#FF6600">OBJ-C</text>
<path d="M 280 148 L 420 108" stroke="#3b82f6" stroke-width="1.5" fill="none" opacity="0.70"/>
<path d="M 420 108 L 408 100 L 416 112 Z" stroke="#3b82f6" stroke-width="1.0" fill="#3b82f6" opacity="0.70"/>
<path d="M 130 88 L 250 60" stroke="#3b82f6" stroke-width="1.0" fill="none" opacity="0.60"/>
<line x1="350" y1="90" x2="450" y2="80" stroke="#FF6600" stroke-width="1" stroke-dasharray="6,3" opacity="0.5"/>
<line x1="350" y1="90" x2="130" y2="100" stroke="#FF6600" stroke-width="1" stroke-dasharray="6,3" opacity="0.4"/>
<line x1="350" y1="90" x2="280" y2="160" stroke="#FF6600" stroke-width="1" stroke-dasharray="6,3" opacity="0.4"/>
<rect x="595" y="20" width="190" height="105" fill="#0f172a" stroke="#334155" stroke-width="1" rx="2" opacity="0.90"/>
<text x="605" y="36" font-family="monospace" font-size="10" fill="#94a3b8">LEGEND</text>
<line x1="605" y1="40" x2="775" y2="40" stroke="#334155" stroke-width="1.0" opacity="0.40"/>
<rect x="607" y="47" width="12" height="12" fill="#0f172a" stroke="#3b82f6" stroke-width="1.5"/>
<text x="624" y="58" font-family="monospace" font-size="8" fill="#3b82f6">FRIENDLY UNIT</text>
<path d="M 620 70 L 628 78 L 620 86 L 612 78 Z" stroke="#FF6600" stroke-width="1.5" fill="#0f172a"/>
<text x="634" y="82" font-family="monospace" font-size="8" fill="#FF6600">FIRE SUPPORT</text>
<circle cx="620" cy="100" r="6" fill="none" stroke="#FF6600" stroke-width="1.5" stroke-dasharray="3,2"/>
<circle cx="620" cy="100" r="2.0" fill="#FF6600"/>
<text x="634" y="104" font-family="monospace" font-size="8" fill="#FF6600">OBJECTIVE</text>
<line x1="606" y1="113" x2="640" y2="113" stroke="#3b82f6" stroke-width="1.5" opacity="0.70"/>
<text x="644" y="117" font-family="monospace" font-size="8" fill="#3b82f6">MOVEMENT</text>
<line x1="606" y1="121" x2="640" y2="121" stroke="#FF6600" stroke-width="1" stroke-dasharray="4,2" opacity="0.5"/>
<text x="644" y="125" font-family="monospace" font-size="8" fill="#FF6600">COMMS LINK</text>
<rect x="0" y="280" width="800" height="20" fill="#1e293b" opacity="0.90"/>
<text x="8" y="293" font-family="monospace" font-size="9" fill="#94a3b8">EX LION HEART  |  PHASE 2 OF 4  |  D+3 H+6  |  COORD: GR 472-316</text>
<text x="680" y="293" font-family="monospace" font-size="9" fill="#FF6600">CLASSIF: EX ONLY</text>
<rect x="10" y="266" width="212" height="22" fill="#0f172a" opacity="0.85"/>
<text x="16" y="281" font-family="monospace" font-size="12" fill="#e2e8f0">ARC 2 CH 1 - TACTICAL MAP</text>
</svg>