<svg xmlns="http://www.w3.org/2000/svg" viewBox="0 0 800 300" width="800" height="300">
<!-- Background -->
<rect width="800" height="300" fill="#0f172a"/>
<!-- Grid -->
<line x1="80" y1="0" x2="80" y2="300" stroke="#1e293b" stroke-width="1"/>
<line x1="160" y1="0" x2="160" y2="300" stroke="#1e293b" stroke-width="1"/>
<line x1="240" y1="0" x2="240" y2="300" stroke="#1e293b" stroke-width="1"/>
<line x1="320" y1="0" x2="320" y2="300" stroke="#1e293b" stroke-width="1"/>
<line x1="400" y1="0" x2="400" y2="300" stroke="#1e293b" stroke-width="1"/>
<line x1="480" y1="0" x2="480" y2="300" stroke="#1e293b" stroke-width="1"/>
<line x1="560" y1="0" x2="560" y2="300" stroke="#1e293b" stroke-width="1"/>
<line x1="640" y1="0" x2="640" y2="300" stroke="#1e293b" stroke-width="1"/>
<line x1="720" y1="0" x2="720" y2="300" stroke="#1e293b" stroke-width="1"/>
<line x1="0" y1="60" x2="800" y2="60" stroke="#1e293b" stroke-width="1"/>
<line x1="0" y1="120" x2="800" y2="120" stroke="#1e293b" stroke-width="1"/>
<line x1="0" y1="180" x2="800" y2="180" stroke="#1e293b" stroke-width="1"/>
<line x1="0" y1="240" x2="800" y2="240" stroke="#1e293b" stroke-width="1"/>

<!-- War room / Command center back wall -->
<rect x="0" y="15" width="800" height="225" fill="#111827" opacity="0.5"/>

<!-- Tactical display - large rear screen -->
<rect x="180" y="20" width="440" height="130" rx="3" fill="#0c1322" stroke="#334155" stroke-width="2"/>
<rect x="185" y="25" width="430" height="120" fill="#0f172a"/>
<!-- Battle map -->
<text x="195" y="40" font-family="monospace" font-size="8" fill="#22c55e" opacity="0.8">EX NORTHSTAR — AAR ANALYSIS</text>
<line x1="195" y1="44" x2="605" y2="44" stroke="#334155" stroke-width="0.5"/>
<!-- Terrain/map grid -->
<rect x="195" y="50" width="180" height="88" fill="#111827" stroke="#334155" stroke-width="0.5"/>
<!-- Map features -->
<polygon points="220,70 250,55 280,68 295,80 260,95 225,90" fill="#22c55e" opacity="0.12" stroke="#22c55e" stroke-width="0.5"/>
<polygon points="300,60 340,52 360,70 330,85" fill="#22c55e" opacity="0.08" stroke="#22c55e" stroke-width="0.5"/>
<!-- Unit markers -->
<rect x="235" y="72" width="8" height="8" fill="none" stroke="#0ea5e9" stroke-width="1"/>
<text x="237" y="79" font-family="monospace" font-size="5" fill="#0ea5e9">A</text>
<rect x="280" y="62" width="8" height="8" fill="none" stroke="#0ea5e9" stroke-width="1"/>
<text x="282" y="69" font-family="monospace" font-size="5" fill="#0ea5e9">B</text>
<rect x="310" y="75" width="8" height="8" fill="none" stroke="#FF6600" stroke-width="1"/>
<text x="312" y="82" font-family="monospace" font-size="5" fill="#FF6600">X</text>
<!-- Disconnected link -->
<line x1="243" y1="76" x2="284" y2="66" stroke="#ef4444" stroke-width="1" stroke-dasharray="3,2"/>
<text x="255" y="65" font-family="monospace" font-size="5" fill="#ef4444">LINK DOWN</text>
<!-- Network arrows -->
<line x1="243" y1="80" x2="260" y2="100" stroke="#0ea5e9" stroke-width="0.5" opacity="0.5"/>
<line x1="288" y1="66" x2="310" y2="79" stroke="#0ea5e9" stroke-width="0.5" opacity="0.5"/>

<!-- Right panel: 3 diagnostic categories -->
<rect x="385" y="50" width="220" height="88" fill="#111827"/>
<!-- Technology -->
<rect x="390" y="55" width="65" height="75" rx="2" fill="#151e2e" stroke="#0ea5e9" stroke-width="1" opacity="0.7"/>
<text x="395" y="67" font-family="monospace" font-size="6" fill="#0ea5e9">TECHNOLOGY</text>
<!-- Server rack icon -->
<rect x="408" y="74" width="22" height="30" rx="1" fill="#1e293b" stroke="#0ea5e9" stroke-width="0.5"/>
<rect x="412" y="78" width="14" height="4" fill="#0ea5e9" opacity="0.4"/>
<rect x="412" y="85" width="14" height="4" fill="#0ea5e9" opacity="0.3"/>
<rect x="412" y="92" width="14" height="4" fill="#ef4444" opacity="0.5"/>
<circle cx="428" cy="80" r="1.5" fill="#22c55e"/>
<circle cx="428" cy="87" r="1.5" fill="#22c55e"/>
<circle cx="428" cy="94" r="1.5" fill="#ef4444"/>
<text x="405" y="118" font-family="monospace" font-size="5" fill="#94a3b8">NETWORK?</text>

<!-- Design -->
<rect x="462" y="55" width="65" height="75" rx="2" fill="#151e2e" stroke="#FF6600" stroke-width="1" opacity="0.7"/>
<text x="477" y="67" font-family="monospace" font-size="6" fill="#FF6600">DESIGN</text>
<!-- Blueprint icon -->
<rect x="478" y="74" width="26" height="30" rx="1" fill="none" stroke="#FF6600" stroke-width="0.5" opacity="0.5"/>
<line x1="478" y1="82" x2="504" y2="82" stroke="#FF6600" stroke-width="0.5" opacity="0.4"/>
<line x1="478" y1="90" x2="504" y2="90" stroke="#FF6600" stroke-width="0.5" opacity="0.4"/>
<line x1="491" y1="74" x2="491" y2="104" stroke="#FF6600" stroke-width="0.5" opacity="0.4"/>
<circle cx="485" cy="79" r="2" fill="#FF6600" opacity="0.5"/>
<circle cx="497" cy="86" r="2" fill="#FF6600" opacity="0.5"/>
<text x="475" y="118" font-family="monospace" font-size="5" fill="#94a3b8">ARCHITECTURE?</text>

<!-- People -->
<rect x="534" y="55" width="65" height="75" rx="2" fill="#151e2e" stroke="#a855f7" stroke-width="1" opacity="0.7"/>
<text x="546" y="67" font-family="monospace" font-size="6" fill="#a855f7">PEOPLE</text>
<!-- Soldiers in formation -->
<g fill="#a855f7" opacity="0.6">
  <circle cx="550" cy="80" r="3"/><circle cx="562" cy="80" r="3"/><circle cx="574" cy="80" r="3"/>
  <circle cx="550" cy="92" r="3"/><circle cx="562" cy="92" r="3"/><circle cx="574" cy="92" r="3"/>
</g>
<!-- Question mark overlay -->
<text x="555" y="106" font-family="monospace" font-size="10" fill="#a855f7" opacity="0.4">?</text>
<text x="541" y="118" font-family="monospace" font-size="5" fill="#94a3b8">DOCTRINE?</text>

<!-- Side consoles -->
<rect x="20" y="100" width="40" height="120" rx="2" fill="#1e293b" stroke="#334155" stroke-width="1"/>
<rect x="25" y="108" width="12" height="8" fill="#22c55e" opacity="0.3"/>
<rect x="25" y="120" width="12" height="8" fill="#22c55e" opacity="0.5"/>
<rect x="25" y="132" width="12" height="8" fill="#FF6600" opacity="0.4"/>
<rect x="25" y="144" width="12" height="8" fill="#22c55e" opacity="0.3"/>
<circle cx="52" cy="112" r="3" fill="#22c55e" opacity="0.6"/>
<circle cx="52" cy="126" r="3" fill="#22c55e" opacity="0.4"/>
<circle cx="52" cy="140" r="3" fill="#ef4444" opacity="0.5"/>

<rect x="740" y="100" width="40" height="120" rx="2" fill="#1e293b" stroke="#334155" stroke-width="1"/>
<rect x="748" y="108" width="12" height="8" fill="#0ea5e9" opacity="0.3"/>
<rect x="748" y="120" width="12" height="8" fill="#0ea5e9" opacity="0.5"/>
<rect x="748" y="132" width="12" height="8" fill="#0ea5e9" opacity="0.4"/>
<circle cx="770" cy="112" r="3" fill="#22c55e" opacity="0.5"/>
<circle cx="770" cy="126" r="3" fill="#FF6600" opacity="0.5"/>

<!-- The General - prominent standing figure (center-left) -->
<circle cx="130" cy="120" r="12" fill="#94a3b8"/>
<!-- Officer cap -->
<rect x="118" y="110" width="24" height="5" rx="1" fill="#64748b"/>
<rect x="122" y="107" width="16" height="5" rx="1" fill="#64748b"/>
<!-- Cap badge -->
<circle cx="130" cy="112" r="2" fill="#FF6600" opacity="0.8"/>
<!-- Body -->
<rect x="118" y="132" width="24" height="35" rx="3" fill="#94a3b8"/>
<!-- Epaulettes -->
<rect x="114" y="132" width="8" height="4" rx="1" fill="#FF6600" opacity="0.6"/>
<rect x="138" y="132" width="8" height="4" rx="1" fill="#FF6600" opacity="0.6"/>
<!-- Stars on shoulders -->
<circle cx="118" cy="134" r="1.5" fill="#FF6600"/>
<circle cx="142" cy="134" r="1.5" fill="#FF6600"/>
<!-- Medals -->
<rect x="123" y="142" width="4" height="6" rx="0.5" fill="#FF6600" opacity="0.5"/>
<rect x="129" y="142" width="4" height="6" rx="0.5" fill="#0ea5e9" opacity="0.5"/>
<rect x="135" y="142" width="4" height="6" rx="0.5" fill="#22c55e" opacity="0.5"/>
<!-- Pointing arm -->
<line x1="142" y1="140" x2="175" y2="120" stroke="#94a3b8" stroke-width="3.5" stroke-linecap="round"/>
<!-- Hand pointing at screen -->
<circle cx="177" cy="119" r="2.5" fill="#94a3b8"/>

<!-- Soldiers/team seated in front -->
<g opacity="0.5">
  <circle cx="250" cy="200" r="7" fill="#475569"/>
  <rect x="244" y="207" width="12" height="16" rx="2" fill="#475569"/>
  <circle cx="350" cy="205" r="7" fill="#475569"/>
  <rect x="344" y="212" width="12" height="16" rx="2" fill="#475569"/>
  <circle cx="450" cy="205" r="7" fill="#475569"/>
  <rect x="444" y="212" width="12" height="16" rx="2" fill="#475569"/>
  <circle cx="550" cy="200" r="7" fill="#475569"/>
  <rect x="544" y="207" width="12" height="16" rx="2" fill="#475569"/>
</g>

<!-- Exercise badge -->
<text x="660" y="35" font-family="monospace" font-size="7" fill="#22c55e" opacity="0.5">EX NORTHSTAR</text>
<rect x="655" y="38" width="80" height="1" fill="#22c55e" opacity="0.3"/>

<!-- Bottom bar -->
<rect x="0" y="240" width="800" height="60" fill="#0f172a"/>
<line x1="0" y1="240" x2="800" y2="240" stroke="#334155" stroke-width="2"/>
<rect x="0" y="233" width="800" height="7" fill="#FF6600" opacity="0.08"/>
<rect x="10" y="266" width="290" height="22" fill="#0f172a" opacity="0.85"/>
<text x="16" y="281" font-family="monospace" font-size="12" fill="#e2e8f0">ARC 2 GROUP - THE GENERAL'S QUESTION</text>
</svg>