<svg xmlns="http://www.w3.org/2000/svg" viewBox="0 0 800 300" width="800" height="300">
<rect width="800" height="300" fill="#0f172a"/>
<line x1="0" y1="60" x2="800" y2="60" stroke="#1e293b" stroke-width="1"/>
<line x1="0" y1="120" x2="800" y2="120" stroke="#1e293b" stroke-width="1"/>
<line x1="0" y1="180" x2="800" y2="180" stroke="#1e293b" stroke-width="1"/>
<line x1="0" y1="240" x2="800" y2="240" stroke="#1e293b" stroke-width="1"/>
<line x1="80" y1="0" x2="80" y2="300" stroke="#1e293b" stroke-width="1"/>
<line x1="160" y1="0" x2="160" y2="300" stroke="#1e293b" stroke-width="1"/>
<line x1="240" y1="0" x2="240" y2="300" stroke="#1e293b" stroke-width="1"/>
<line x1="320" y1="0" x2="320" y2="300" stroke="#1e293b" stroke-width="1"/>
<line x1="400" y1="0" x2="400" y2="300" stroke="#1e293b" stroke-width="1"/>
<line x1="480" y1="0" x2="480" y2="300" stroke="#1e293b" stroke-width="1"/>
<line x1="560" y1="0" x2="560" y2="300" stroke="#1e293b" stroke-width="1"/>
<line x1="640" y1="0" x2="640" y2="300" stroke="#1e293b" stroke-width="1"/>
<line x1="720" y1="0" x2="720" y2="300" stroke="#1e293b" stroke-width="1"/>
<rect x="0" y="0" width="800" height="22" fill="#1e293b" opacity="0.90"/>
<text x="10" y="15" font-family="monospace" font-size="11" fill="#FF6600">NETWORK STRESS TEST - EX LION HEART - PHASE 2</text>
<text x="670" y="15" font-family="monospace" font-size="11" fill="#ef4444" font-weight="bold">LIVE</text>
<line x1="120" y1="90" x2="220" y2="60" stroke="#FF6600" stroke-width="2.0" opacity="0.90"/>
<line x1="120" y1="90" x2="220" y2="130" stroke="#94a3b8" stroke-width="1.0" opacity="0.40"/>
<line x1="120" y1="90" x2="80" y2="160" stroke="#94a3b8" stroke-width="1.0" opacity="0.40"/>
<line x1="220" y1="60" x2="320" y2="45" stroke="#94a3b8" stroke-width="1.0" opacity="0.40"/>
<line x1="220" y1="60" x2="320" y2="90" stroke="#94a3b8" stroke-width="1.0" opacity="0.40"/>
<line x1="220" y1="130" x2="320" y2="135" stroke="#94a3b8" stroke-width="1.0" opacity="0.40"/>
<line x1="220" y1="130" x2="320" y2="175" stroke="#94a3b8" stroke-width="1.0" opacity="0.40"/>
<rect x="102" y="76" width="36" height="28" fill="#1e293b" stroke="#FF6600" stroke-width="2" rx="3"/>
<text x="107" y="94" font-family="monospace" font-size="8" fill="#FF6600" font-weight="bold">GW-01</text>
<circle cx="134" cy="80" r="4.0" fill="#FF6600"/>
<rect x="202" y="46" width="36" height="28" fill="#1e293b" stroke="#94a3b8" stroke-width="1" rx="3"/>
<text x="207" y="64" font-family="monospace" font-size="8" fill="#94a3b8">SW-01</text>
<rect x="202" y="116" width="36" height="28" fill="#1e293b" stroke="#94a3b8" stroke-width="1" rx="3"/>
<text x="207" y="134" font-family="monospace" font-size="8" fill="#94a3b8">SW-02</text>
<rect x="302" y="31" width="36" height="28" fill="#1e293b" stroke="#FF6600" stroke-width="2" rx="3"/>
<text x="307" y="49" font-family="monospace" font-size="8" fill="#FF6600" font-weight="bold">SRV-A</text>
<circle cx="334" cy="35" r="4.0" fill="#FF6600"/>
<rect x="302" y="76" width="36" height="28" fill="#1e293b" stroke="#FF6600" stroke-width="2" rx="3"/>
<text x="307" y="94" font-family="monospace" font-size="8" fill="#FF6600" font-weight="bold">SRV-B</text>
<circle cx="334" cy="80" r="4.0" fill="#FF6600"/>
<rect x="302" y="121" width="36" height="28" fill="#1e293b" stroke="#94a3b8" stroke-width="1" rx="3"/>
<text x="307" y="139" font-family="monospace" font-size="8" fill="#94a3b8">SRV-C</text>
<rect x="302" y="161" width="36" height="28" fill="#1e293b" stroke="#94a3b8" stroke-width="1" rx="3"/>
<text x="307" y="179" font-family="monospace" font-size="8" fill="#94a3b8">SRV-D</text>
<rect x="62" y="146" width="36" height="28" fill="#1e293b" stroke="#FF6600" stroke-width="2" rx="3"/>
<text x="67" y="164" font-family="monospace" font-size="8" fill="#FF6600" font-weight="bold">FW-01</text>
<circle cx="94" cy="150" r="4.0" fill="#FF6600"/>
<rect x="400" y="30" width="370" height="240" fill="#1e293b" stroke="#334155" stroke-width="1" rx="2"/>
<text x="412" y="48" font-family="monospace" font-size="12" fill="#e2e8f0" font-weight="bold">NODE UTILISATION</text>
<line x1="412" y1="52" x2="758" y2="52" stroke="#334155" stroke-width="1.0" opacity="0.40"/>
<text x="412" y="70" font-family="monospace" font-size="9" fill="#FF6600">GW-01</text>
<text x="472" y="70" font-family="monospace" font-size="8" fill="#94a3b8">GATEWAY</text>
<rect x="530" y="60" width="170" height="14" fill="#0f172a" rx="1"/>
<rect x="530" y="60" width="163" height="14" fill="#ef4444" rx="1" opacity="0.85"/>
<text x="706" y="70" font-family="monospace" font-size="9" fill="#ef4444" font-weight="bold">96%</text>
<text x="724" y="70" font-family="monospace" font-size="9" fill="#ef4444" font-weight="bold">!!</text>
<text x="412" y="92" font-family="monospace" font-size="9" fill="#94a3b8">SW-01</text>
<text x="472" y="92" font-family="monospace" font-size="8" fill="#94a3b8">SWITCH</text>
<rect x="530" y="82" width="170" height="14" fill="#0f172a" rx="1"/>
<rect x="530" y="82" width="132" height="14" fill="#94a3b8" rx="1" opacity="0.85"/>
<text x="706" y="92" font-family="monospace" font-size="9" fill="#94a3b8">78%</text>
<text x="412" y="114" font-family="monospace" font-size="9" fill="#FF6600">SW-02</text>
<text x="472" y="114" font-family="monospace" font-size="8" fill="#94a3b8">SWITCH</text>
<rect x="530" y="104" width="170" height="14" fill="#0f172a" rx="1"/>
<rect x="530" y="104" width="139" height="14" fill="#FF6600" rx="1" opacity="0.85"/>
<text x="706" y="114" font-family="monospace" font-size="9" fill="#FF6600">82%</text>
<text x="412" y="136" font-family="monospace" font-size="9" fill="#FF6600">SRV-A</text>
<text x="472" y="136" font-family="monospace" font-size="8" fill="#94a3b8">SERVER</text>
<rect x="530" y="126" width="170" height="14" fill="#0f172a" rx="1"/>
<rect x="530" y="126" width="168" height="14" fill="#ef4444" rx="1" opacity="0.85"/>
<text x="706" y="136" font-family="monospace" font-size="9" fill="#ef4444" font-weight="bold">99%</text>
<text x="724" y="136" font-family="monospace" font-size="9" fill="#ef4444" font-weight="bold">!!</text>
<text x="412" y="158" font-family="monospace" font-size="9" fill="#FF6600">SRV-B</text>
<text x="472" y="158" font-family="monospace" font-size="8" fill="#94a3b8">SERVER</text>
<rect x="530" y="148" width="170" height="14" fill="#0f172a" rx="1"/>
<rect x="530" y="148" width="149" height="14" fill="#FF6600" rx="1" opacity="0.85"/>
<text x="706" y="158" font-family="monospace" font-size="9" fill="#FF6600">88%</text>
<text x="412" y="180" font-family="monospace" font-size="9" fill="#94a3b8">SRV-C</text>
<text x="472" y="180" font-family="monospace" font-size="8" fill="#94a3b8">SERVER</text>
<rect x="530" y="170" width="170" height="14" fill="#0f172a" rx="1"/>
<rect x="530" y="170" width="76" height="14" fill="#94a3b8" rx="1" opacity="0.85"/>
<text x="706" y="180" font-family="monospace" font-size="9" fill="#94a3b8">45%</text>
<text x="412" y="202" font-family="monospace" font-size="9" fill="#94a3b8">SRV-D</text>
<text x="472" y="202" font-family="monospace" font-size="8" fill="#94a3b8">SERVER</text>
<rect x="530" y="192" width="170" height="14" fill="#0f172a" rx="1"/>
<rect x="530" y="192" width="88" height="14" fill="#94a3b8" rx="1" opacity="0.85"/>
<text x="706" y="202" font-family="monospace" font-size="9" fill="#94a3b8">52%</text>
<text x="412" y="224" font-family="monospace" font-size="9" fill="#FF6600">FW-01</text>
<text x="472" y="224" font-family="monospace" font-size="8" fill="#94a3b8">FIREWALL</text>
<rect x="530" y="214" width="170" height="14" fill="#0f172a" rx="1"/>
<rect x="530" y="214" width="154" height="14" fill="#ef4444" rx="1" opacity="0.85"/>
<text x="706" y="224" font-family="monospace" font-size="9" fill="#ef4444" font-weight="bold">91%</text>
<text x="724" y="224" font-family="monospace" font-size="9" fill="#ef4444" font-weight="bold">!!</text>
<rect x="400" y="256" width="370" height="20" fill="#2d1a0a" stroke="#FF6600" stroke-width="1" rx="1"/>
<text x="412" y="270" font-family="monospace" font-size="8" fill="#FF6600">PACKET LOSS: 3.2%  |  JITTER: 48ms  |  RETRANSMIT: HIGH</text>
<circle cx="120" cy="90" r="28" fill="none" stroke="#FF6600" stroke-width="1" opacity="0.25"/>
<circle cx="120" cy="90" r="38" fill="none" stroke="#FF6600" stroke-width="0.5" opacity="0.12"/>
<circle cx="320" cy="45" r="28" fill="none" stroke="#FF6600" stroke-width="1" opacity="0.25"/>
<circle cx="320" cy="45" r="38" fill="none" stroke="#FF6600" stroke-width="0.5" opacity="0.12"/>
<circle cx="320" cy="90" r="28" fill="none" stroke="#FF6600" stroke-width="1" opacity="0.25"/>
<circle cx="320" cy="90" r="38" fill="none" stroke="#FF6600" stroke-width="0.5" opacity="0.12"/>
<circle cx="80" cy="160" r="28" fill="none" stroke="#FF6600" stroke-width="1" opacity="0.25"/>
<circle cx="80" cy="160" r="38" fill="none" stroke="#FF6600" stroke-width="0.5" opacity="0.12"/>
<rect x="10" y="266" width="228" height="22" fill="#0f172a" opacity="0.85"/>
<text x="16" y="281" font-family="monospace" font-size="12" fill="#e2e8f0">ARC 2 CH 2 - NETWORK STRESS</text>
</svg>