<svg xmlns="http://www.w3.org/2000/svg" viewBox="0 0 800 300" width="800" height="300">
<rect width="800" height="300" fill="#0f172a"/>
<line x1="80" y1="0" x2="80" y2="300" stroke="#1e293b" stroke-width="1"/>
<line x1="160" y1="0" x2="160" y2="300" stroke="#1e293b" stroke-width="1"/>
<line x1="240" y1="0" x2="240" y2="300" stroke="#1e293b" stroke-width="1"/>
<line x1="320" y1="0" x2="320" y2="300" stroke="#1e293b" stroke-width="1"/>
<line x1="400" y1="0" x2="400" y2="300" stroke="#1e293b" stroke-width="1"/>
<line x1="480" y1="0" x2="480" y2="300" stroke="#1e293b" stroke-width="1"/>
<line x1="560" y1="0" x2="560" y2="300" stroke="#1e293b" stroke-width="1"/>
<line x1="640" y1="0" x2="640" y2="300" stroke="#1e293b" stroke-width="1"/>
<line x1="720" y1="0" x2="720" y2="300" stroke="#1e293b" stroke-width="1"/>
<line x1="0" y1="60" x2="800" y2="60" stroke="#1e293b" stroke-width="1"/>
<line x1="0" y1="120" x2="800" y2="120" stroke="#1e293b" stroke-width="1"/>
<line x1="0" y1="180" x2="800" y2="180" stroke="#1e293b" stroke-width="1"/>
<line x1="0" y1="240" x2="800" y2="240" stroke="#1e293b" stroke-width="1"/>
<rect x="0" y="240" width="800" height="60" fill="#0f172a"/>
<line x1="0" y1="240" x2="800" y2="240" stroke="#334155" stroke-width="2.0"/>
<rect x="0" y="233" width="800" height="7" fill="#FF6600" opacity="0.1"/>
<rect x="80" y="45" width="65" height="115" fill="#1e293b" stroke="#334155" stroke-width="1.5"/>
<rect x="88" y="57" width="6" height="6" fill="#FF6600" opacity="0.8"/>
<rect x="102" y="57" width="6" height="6" fill="#FF6600" opacity="0.6"/>
<rect x="116" y="57" width="6" height="6" fill="#FF6600" opacity="0.7"/>
<rect x="130" y="57" width="6" height="6" fill="#FF6600" opacity="0.8"/>
<rect x="88" y="75" width="6" height="6" fill="#FF6600" opacity="0.5"/>
<rect x="102" y="75" width="6" height="6" fill="#FF6600" opacity="0.8"/>
<rect x="116" y="75" width="6" height="6" fill="#FF6600" opacity="0.7"/>
<rect x="130" y="75" width="6" height="6" fill="#FF6600" opacity="0.6"/>
<rect x="88" y="93" width="6" height="6" fill="#FF6600" opacity="0.7"/>
<rect x="102" y="93" width="6" height="6" fill="#FF6600" opacity="0.5"/>
<rect x="116" y="93" width="6" height="6" fill="#FF6600" opacity="0.8"/>
<rect x="130" y="93" width="6" height="6" fill="#FF6600" opacity="0.7"/>
<rect x="88" y="111" width="6" height="6" fill="#FF6600" opacity="0.8"/>
<rect x="102" y="111" width="6" height="6" fill="#FF6600" opacity="0.6"/>
<rect x="116" y="111" width="6" height="6" fill="#FF6600" opacity="0.7"/>
<rect x="130" y="111" width="6" height="6" fill="#FF6600" opacity="0.8"/>
<circle cx="250" cy="65" r="6" fill="#FF6600"/>
<line x1="250" y1="65" x2="250" y2="20" stroke="#FF6600" stroke-width="2.5" opacity="0.9"/>
<circle cx="250" cy="20" r="3" fill="#FF6600" opacity="0.9"/>
<line x1="250" y1="65" x2="295" y2="35" stroke="#FF6600" stroke-width="2" opacity="0.8"/>
<circle cx="295" cy="35" r="3" fill="#FF6600" opacity="0.8"/>
<line x1="250" y1="65" x2="205" y2="35" stroke="#FF6600" stroke-width="2" opacity="0.8"/>
<circle cx="205" cy="35" r="3" fill="#FF6600" opacity="0.8"/>
<rect x="230" y="130" width="40" height="95" fill="#1e293b" stroke="#334155" stroke-width="1"/>
<rect x="238" y="142" width="6" height="6" fill="#FF6600" opacity="0.7"/>
<rect x="250" y="142" width="6" height="6" fill="#FF6600" opacity="0.8"/>
<rect x="238" y="162" width="6" height="6" fill="#FF6600" opacity="0.6"/>
<rect x="250" y="162" width="6" height="6" fill="#FF6600" opacity="0.7"/>
<rect x="238" y="182" width="6" height="6" fill="#FF6600" opacity="0.8"/>
<rect x="250" y="182" width="6" height="6" fill="#FF6600" opacity="0.5"/>
<rect x="238" y="202" width="6" height="6" fill="#FF6600" opacity="0.6"/>
<rect x="250" y="202" width="6" height="6" fill="#FF6600" opacity="0.8"/>
<rect x="238" y="222" width="6" height="6" fill="#FF6600" opacity="0.7"/>
<rect x="250" y="222" width="6" height="6" fill="#FF6600" opacity="0.5"/>
<polygon points="380,35 420,160 340,160" fill="#1e293b" stroke="#334155" stroke-width="1.5"/>
<circle cx="380" cy="70" r="3" fill="#FF6600" opacity="0.8"/>
<circle cx="360" cy="120" r="3" fill="#FF6600" opacity="0.7"/>
<circle cx="400" cy="120" r="3" fill="#FF6600" opacity="0.8"/>
<circle cx="380" cy="140" r="3" fill="#FF6600" opacity="0.6"/>
<circle cx="380" cy="25" r="5" fill="#FF6600"/>
<line x1="380" y1="25" x2="380" y2="0" stroke="#FF6600" stroke-width="2" opacity="0.9"/>
<circle cx="380" cy="0" r="2" fill="#FF6600" opacity="0.9"/>
<line x1="380" y1="25" x2="420" y2="10" stroke="#FF6600" stroke-width="1.5" opacity="0.7"/>
<circle cx="420" cy="10" r="2" fill="#FF6600" opacity="0.7"/>
<line x1="380" y1="25" x2="340" y2="10" stroke="#FF6600" stroke-width="1.5" opacity="0.7"/>
<circle cx="340" cy="10" r="2" fill="#FF6600" opacity="0.7"/>
<rect x="540" y="60" width="60" height="85" fill="#1e293b" stroke="#334155" stroke-width="1"/>
<rect x="548" y="72" width="6" height="6" fill="#FF6600" opacity="0.8"/>
<rect x="562" y="72" width="6" height="6" fill="#FF6600" opacity="0.6"/>
<rect x="576" y="72" width="6" height="6" fill="#FF6600" opacity="0.7"/>
<rect x="590" y="72" width="6" height="6" fill="#FF6600" opacity="0.8"/>
<rect x="548" y="90" width="6" height="6" fill="#FF6600" opacity="0.5"/>
<rect x="562" y="90" width="6" height="6" fill="#FF6600" opacity="0.8"/>
<rect x="576" y="90" width="6" height="6" fill="#FF6600" opacity="0.7"/>
<rect x="590" y="90" width="6" height="6" fill="#FF6600" opacity="0.6"/>
<rect x="548" y="108" width="6" height="6" fill="#FF6600" opacity="0.7"/>
<rect x="562" y="108" width="6" height="6" fill="#FF6600" opacity="0.5"/>
<rect x="576" y="108" width="6" height="6" fill="#FF6600" opacity="0.8"/>
<rect x="590" y="108" width="6" height="6" fill="#FF6600" opacity="0.7"/>
<rect x="520" y="160" width="65" height="75" fill="#1e293b" stroke="#334155" stroke-width="1"/>
<rect x="528" y="172" width="6" height="6" fill="#FF6600" opacity="0.7"/>
<rect x="542" y="172" width="6" height="6" fill="#FF6600" opacity="0.8"/>
<rect x="556" y="172" width="6" height="6" fill="#FF6600" opacity="0.5"/>
<rect x="570" y="172" width="6" height="6" fill="#FF6600" opacity="0.6"/>
<rect x="584" y="172" width="6" height="6" fill="#FF6600" opacity="0.8"/>
<rect x="528" y="190" width="6" height="6" fill="#FF6600" opacity="0.6"/>
<rect x="542" y="190" width="6" height="6" fill="#FF6600" opacity="0.7"/>
<rect x="556" y="190" width="6" height="6" fill="#FF6600" opacity="0.8"/>
<rect x="570" y="190" width="6" height="6" fill="#FF6600" opacity="0.5"/>
<rect x="584" y="190" width="6" height="6" fill="#FF6600" opacity="0.7"/>
<rect x="680" y="50" width="50" height="115" fill="#1e293b" stroke="#334155" stroke-width="1"/>
<rect x="688" y="62" width="6" height="6" fill="#FF6600" opacity="0.7"/>
<rect x="702" y="62" width="6" height="6" fill="#FF6600" opacity="0.8"/>
<rect x="716" y="62" width="6" height="6" fill="#FF6600" opacity="0.5"/>
<rect x="688" y="80" width="6" height="6" fill="#FF6600" opacity="0.8"/>
<rect x="702" y="80" width="6" height="6" fill="#FF6600" opacity="0.6"/>
<rect x="716" y="80" width="6" height="6" fill="#FF6600" opacity="0.7"/>
<rect x="688" y="98" width="6" height="6" fill="#FF6600" opacity="0.6"/>
<rect x="702" y="98" width="6" height="6" fill="#FF6600" opacity="0.8"/>
<rect x="716" y="98" width="6" height="6" fill="#FF6600" opacity="0.7"/>
<rect x="688" y="116" width="6" height="6" fill="#FF6600" opacity="0.7"/>
<rect x="702" y="116" width="6" height="6" fill="#FF6600" opacity="0.5"/>
<rect x="716" y="116" width="6" height="6" fill="#FF6600" opacity="0.8"/>
<rect x="688" y="134" width="6" height="6" fill="#FF6600" opacity="0.8"/>
<rect x="702" y="134" width="6" height="6" fill="#FF6600" opacity="0.6"/>
<rect x="716" y="134" width="6" height="6" fill="#FF6600" opacity="0.7"/>
<rect x="10" y="266" width="204" height="22" fill="#0f172a" opacity="0.85"/>
<text x="16" y="281" font-family="monospace" font-size="12" fill="#e2e8f0">ARC 3 GROUP - WHAT DO WE BUILD</text>
</svg>
