<svg xmlns="http://www.w3.org/2000/svg" viewBox="0 0 800 300" width="800" height="300">
<rect width="800" height="300" fill="#0f172a"/>
<line x1="80" y1="0" x2="80" y2="300" stroke="#1e293b" stroke-width="1"/>
<line x1="160" y1="0" x2="160" y2="300" stroke="#1e293b" stroke-width="1"/>
<line x1="240" y1="0" x2="240" y2="300" stroke="#1e293b" stroke-width="1"/>
<line x1="320" y1="0" x2="320" y2="300" stroke="#1e293b" stroke-width="1"/>
<line x1="400" y1="0" x2="400" y2="300" stroke="#1e293b" stroke-width="1"/>
<line x1="480" y1="0" x2="480" y2="300" stroke="#1e293b" stroke-width="1"/>
<line x1="560" y1="0" x2="560" y2="300" stroke="#1e293b" stroke-width="1"/>
<line x1="640" y1="0" x2="640" y2="300" stroke="#1e293b" stroke-width="1"/>
<line x1="720" y1="0" x2="720" y2="300" stroke="#1e293b" stroke-width="1"/>
<line x1="0" y1="60" x2="800" y2="60" stroke="#1e293b" stroke-width="1"/>
<line x1="0" y1="120" x2="800" y2="120" stroke="#1e293b" stroke-width="1"/>
<line x1="0" y1="180" x2="800" y2="180" stroke="#1e293b" stroke-width="1"/>
<line x1="0" y1="240" x2="800" y2="240" stroke="#1e293b" stroke-width="1"/>
<rect x="0" y="240" width="800" height="60" fill="#0f172a"/>
<line x1="0" y1="240" x2="800" y2="240" stroke="#334155" stroke-width="2.0"/>
<rect x="0" y="233" width="800" height="7" fill="#FF6600" opacity="0.1"/>
<circle cx="140" cy="80" r="6" fill="#FF6600"/>
<line x1="140" y1="80" x2="140" y2="30" stroke="#FF6600" stroke-width="2" opacity="0.9"/>
<circle cx="140" cy="30" r="3" fill="#FF6600" opacity="0.9"/>
<line x1="140" y1="80" x2="180" y2="50" stroke="#FF6600" stroke-width="2" opacity="0.8"/>
<circle cx="180" cy="50" r="3" fill="#FF6600" opacity="0.8"/>
<line x1="140" y1="80" x2="100" y2="50" stroke="#FF6600" stroke-width="2" opacity="0.8"/>
<circle cx="100" cy="50" r="3" fill="#FF6600" opacity="0.8"/>
<line x1="140" y1="80" x2="140" y2="120" stroke="#FF6600" stroke-width="1.5" opacity="0.6"/>
<circle cx="140" cy="120" r="2" fill="#FF6600" opacity="0.6"/>
<rect x="120" y="135" width="40" height="90" fill="#1e293b" stroke="#334155" stroke-width="1"/>
<rect x="128" y="147" width="6" height="6" fill="#FF6600" opacity="0.8"/>
<rect x="140" y="147" width="6" height="6" fill="#FF6600" opacity="0.6"/>
<rect x="128" y="165" width="6" height="6" fill="#FF6600" opacity="0.7"/>
<rect x="140" y="165" width="6" height="6" fill="#FF6600" opacity="0.8"/>
<rect x="128" y="183" width="6" height="6" fill="#FF6600" opacity="0.5"/>
<rect x="140" y="183" width="6" height="6" fill="#FF6600" opacity="0.7"/>
<rect x="128" y="201" width="6" height="6" fill="#FF6600" opacity="0.8"/>
<rect x="140" y="201" width="6" height="6" fill="#FF6600" opacity="0.6"/>
<rect x="128" y="219" width="6" height="6" fill="#FF6600" opacity="0.6"/>
<rect x="140" y="219" width="6" height="6" fill="#FF6600" opacity="0.8"/>
<circle cx="320" cy="75" r="5" fill="#FF6600"/>
<line x1="320" y1="75" x2="320" y2="28" stroke="#FF6600" stroke-width="2" opacity="0.9"/>
<circle cx="320" cy="28" r="2" fill="#FF6600" opacity="0.9"/>
<line x1="320" y1="75" x2="360" y2="45" stroke="#FF6600" stroke-width="2" opacity="0.8"/>
<circle cx="360" cy="45" r="2" fill="#FF6600" opacity="0.8"/>
<line x1="320" y1="75" x2="280" y2="45" stroke="#FF6600" stroke-width="2" opacity="0.8"/>
<circle cx="280" cy="45" r="2" fill="#FF6600" opacity="0.8"/>
<rect x="300" y="130" width="40" height="95" fill="#1e293b" stroke="#334155" stroke-width="1"/>
<rect x="308" y="142" width="6" height="6" fill="#FF6600" opacity="0.7"/>
<rect x="320" y="142" width="6" height="6" fill="#FF6600" opacity="0.8"/>
<rect x="308" y="162" width="6" height="6" fill="#FF6600" opacity="0.6"/>
<rect x="320" y="162" width="6" height="6" fill="#FF6600" opacity="0.7"/>
<rect x="308" y="182" width="6" height="6" fill="#FF6600" opacity="0.8"/>
<rect x="320" y="182" width="6" height="6" fill="#FF6600" opacity="0.5"/>
<rect x="308" y="202" width="6" height="6" fill="#FF6600" opacity="0.6"/>
<rect x="320" y="202" width="6" height="6" fill="#FF6600" opacity="0.8"/>
<rect x="308" y="222" width="6" height="6" fill="#FF6600" opacity="0.7"/>
<rect x="320" y="222" width="6" height="6" fill="#FF6600" opacity="0.5"/>
<rect x="480" y="50" width="55" height="100" fill="#1e293b" stroke="#334155" stroke-width="1"/>
<rect x="488" y="62" width="6" height="6" fill="#FF6600" opacity="0.8"/>
<rect x="502" y="62" width="6" height="6" fill="#FF6600" opacity="0.6"/>
<rect x="516" y="62" width="6" height="6" fill="#FF6600" opacity="0.7"/>
<rect x="530" y="62" width="6" height="6" fill="#FF6600" opacity="0.8"/>
<rect x="488" y="80" width="6" height="6" fill="#FF6600" opacity="0.5"/>
<rect x="502" y="80" width="6" height="6" fill="#FF6600" opacity="0.8"/>
<rect x="516" y="80" width="6" height="6" fill="#FF6600" opacity="0.7"/>
<rect x="530" y="80" width="6" height="6" fill="#FF6600" opacity="0.6"/>
<rect x="488" y="98" width="6" height="6" fill="#FF6600" opacity="0.7"/>
<rect x="502" y="98" width="6" height="6" fill="#FF6600" opacity="0.5"/>
<rect x="516" y="98" width="6" height="6" fill="#FF6600" opacity="0.8"/>
<rect x="530" y="98" width="6" height="6" fill="#FF6600" opacity="0.7"/>
<rect x="460" y="140" width="60" height="75" fill="#1e293b" stroke="#334155" stroke-width="1"/>
<rect x="468" y="152" width="6" height="6" fill="#FF6600" opacity="0.7"/>
<rect x="482" y="152" width="6" height="6" fill="#FF6600" opacity="0.8"/>
<rect x="496" y="152" width="6" height="6" fill="#FF6600" opacity="0.5"/>
<rect x="510" y="152" width="6" height="6" fill="#FF6600" opacity="0.6"/>
<rect x="468" y="170" width="6" height="6" fill="#FF6600" opacity="0.8"/>
<rect x="482" y="170" width="6" height="6" fill="#FF6600" opacity="0.6"/>
<rect x="496" y="170" width="6" height="6" fill="#FF6600" opacity="0.7"/>
<rect x="510" y="170" width="6" height="6" fill="#FF6600" opacity="0.8"/>
<rect x="468" y="188" width="6" height="6" fill="#FF6600" opacity="0.5"/>
<rect x="482" y="188" width="6" height="6" fill="#FF6600" opacity="0.7"/>
<rect x="496" y="188" width="6" height="6" fill="#FF6600" opacity="0.8"/>
<rect x="510" y="188" width="6" height="6" fill="#FF6600" opacity="0.6"/>
<rect x="650" y="55" width="50" height="110" fill="#1e293b" stroke="#334155" stroke-width="1"/>
<rect x="658" y="67" width="6" height="6" fill="#FF6600" opacity="0.7"/>
<rect x="672" y="67" width="6" height="6" fill="#FF6600" opacity="0.8"/>
<rect x="686" y="67" width="6" height="6" fill="#FF6600" opacity="0.5"/>
<rect x="658" y="85" width="6" height="6" fill="#FF6600" opacity="0.8"/>
<rect x="672" y="85" width="6" height="6" fill="#FF6600" opacity="0.6"/>
<rect x="686" y="85" width="6" height="6" fill="#FF6600" opacity="0.7"/>
<rect x="658" y="103" width="6" height="6" fill="#FF6600" opacity="0.6"/>
<rect x="672" y="103" width="6" height="6" fill="#FF6600" opacity="0.8"/>
<rect x="686" y="103" width="6" height="6" fill="#FF6600" opacity="0.7"/>
<rect x="658" y="121" width="6" height="6" fill="#FF6600" opacity="0.7"/>
<rect x="672" y="121" width="6" height="6" fill="#FF6600" opacity="0.5"/>
<rect x="686" y="121" width="6" height="6" fill="#FF6600" opacity="0.8"/>
<rect x="658" y="139" width="6" height="6" fill="#FF6600" opacity="0.8"/>
<rect x="672" y="139" width="6" height="6" fill="#FF6600" opacity="0.6"/>
<rect x="686" y="139" width="6" height="6" fill="#FF6600" opacity="0.7"/>
<rect x="10" y="266" width="204" height="22" fill="#0f172a" opacity="0.85"/>
<text x="16" y="281" font-family="monospace" font-size="12" fill="#e2e8f0">ARC 3 GROUP - WHAT DOES PM SAY</text>
</svg>
