<svg xmlns="http://www.w3.org/2000/svg" viewBox="0 0 800 300" width="800" height="300">
<!-- Background -->
<rect width="800" height="300" fill="#0f172a"/>
<!-- Grid -->
<line x1="80" y1="0" x2="80" y2="300" stroke="#1e293b" stroke-width="1"/>
<line x1="160" y1="0" x2="160" y2="300" stroke="#1e293b" stroke-width="1"/>
<line x1="240" y1="0" x2="240" y2="300" stroke="#1e293b" stroke-width="1"/>
<line x1="320" y1="0" x2="320" y2="300" stroke="#1e293b" stroke-width="1"/>
<line x1="400" y1="0" x2="400" y2="300" stroke="#1e293b" stroke-width="1"/>
<line x1="480" y1="0" x2="480" y2="300" stroke="#1e293b" stroke-width="1"/>
<line x1="560" y1="0" x2="560" y2="300" stroke="#1e293b" stroke-width="1"/>
<line x1="640" y1="0" x2="640" y2="300" stroke="#1e293b" stroke-width="1"/>
<line x1="720" y1="0" x2="720" y2="300" stroke="#1e293b" stroke-width="1"/>
<line x1="0" y1="60" x2="800" y2="60" stroke="#1e293b" stroke-width="1"/>
<line x1="0" y1="120" x2="800" y2="120" stroke="#1e293b" stroke-width="1"/>
<line x1="0" y1="180" x2="800" y2="180" stroke="#1e293b" stroke-width="1"/>
<line x1="0" y1="240" x2="800" y2="240" stroke="#1e293b" stroke-width="1"/>

<!-- Parliament building silhouette -->
<rect x="200" y="15" width="400" height="10" rx="2" fill="#1e293b"/>
<!-- Dome -->
<path d="M350,15 Q400,-10 450,15" fill="#1e293b" stroke="#334155" stroke-width="1"/>
<!-- Pillars -->
<rect x="220" y="25" width="12" height="60" fill="#1e293b" stroke="#334155" stroke-width="0.5"/>
<rect x="248" y="25" width="12" height="60" fill="#1e293b" stroke="#334155" stroke-width="0.5"/>
<rect x="276" y="25" width="12" height="60" fill="#1e293b" stroke="#334155" stroke-width="0.5"/>
<rect x="512" y="25" width="12" height="60" fill="#1e293b" stroke="#334155" stroke-width="0.5"/>
<rect x="540" y="25" width="12" height="60" fill="#1e293b" stroke="#334155" stroke-width="0.5"/>
<rect x="568" y="25" width="12" height="60" fill="#1e293b" stroke="#334155" stroke-width="0.5"/>
<!-- Parliament base -->
<rect x="200" y="85" width="400" height="8" fill="#1e293b" stroke="#334155" stroke-width="0.5"/>
<!-- Steps -->
<rect x="210" y="93" width="380" height="3" fill="#192336"/>
<rect x="215" y="96" width="370" height="3" fill="#151e2e"/>

<!-- $500M Budget Display (center of parliament) -->
<rect x="300" y="30" width="200" height="55" rx="3" fill="#0c1322" stroke="#22c55e" stroke-width="1.5" opacity="0.7"/>
<text x="340" y="50" font-family="monospace" font-size="14" fill="#22c55e" opacity="0.9" font-weight="bold">$500M</text>
<text x="318" y="65" font-family="monospace" font-size="7" fill="#22c55e" opacity="0.6">CYBERSECURITY BUDGET</text>
<line x1="310" y1="70" x2="490" y2="70" stroke="#22c55e" stroke-width="0.5" opacity="0.3"/>
<text x="330" y="80" font-family="monospace" font-size="6" fill="#94a3b8" opacity="0.5">APPROVED BY PARLIAMENT</text>

<!-- 4 Strategic options displayed as quadrants -->

<!-- Option 1: Fortress Singapore (top-left) -->
<rect x="40" y="105" width="170" height="105" rx="4" fill="#0c1322" stroke="#0ea5e9" stroke-width="1" opacity="0.5"/>
<text x="60" y="120" font-family="monospace" font-size="7" fill="#0ea5e9">FORTRESS SINGAPORE</text>
<line x1="50" y1="124" x2="200" y2="124" stroke="#0ea5e9" stroke-width="0.5" opacity="0.3"/>
<!-- Shield/fortress icon -->
<path d="M110,135 L130,130 L150,135 L150,165 Q130,180 110,165 Z" fill="#1e293b" stroke="#0ea5e9" stroke-width="1.5" opacity="0.7"/>
<!-- Lock inside shield -->
<rect x="122" y="145" width="16" height="14" rx="2" fill="none" stroke="#0ea5e9" stroke-width="1" opacity="0.6"/>
<circle cx="130" cy="150" r="3" fill="none" stroke="#0ea5e9" stroke-width="1" opacity="0.6"/>
<line x1="130" y1="153" x2="130" y2="156" stroke="#0ea5e9" stroke-width="1" opacity="0.6"/>
<!-- Hardening lines around shield -->
<path d="M95,145 L100,145" stroke="#0ea5e9" stroke-width="1" opacity="0.3"/>
<path d="M95,155 L100,155" stroke="#0ea5e9" stroke-width="1" opacity="0.3"/>
<path d="M160,145 L165,145" stroke="#0ea5e9" stroke-width="1" opacity="0.3"/>
<path d="M160,155 L165,155" stroke="#0ea5e9" stroke-width="1" opacity="0.3"/>
<text x="70" y="200" font-family="monospace" font-size="5" fill="#94a3b8" opacity="0.5">HARDEN EVERYTHING</text>

<!-- Option 2: Adaptive Resilience (top-right) -->
<rect x="225" y="105" width="170" height="105" rx="4" fill="#0c1322" stroke="#22c55e" stroke-width="1" opacity="0.5"/>
<text x="237" y="120" font-family="monospace" font-size="7" fill="#22c55e">ADAPTIVE RESILIENCE</text>
<line x1="235" y1="124" x2="385" y2="124" stroke="#22c55e" stroke-width="0.5" opacity="0.3"/>
<!-- Self-healing mesh network -->
<circle cx="280" cy="150" r="5" fill="#22c55e" opacity="0.6"/>
<circle cx="310" cy="138" r="5" fill="#22c55e" opacity="0.6"/>
<circle cx="340" cy="150" r="5" fill="#22c55e" opacity="0.6"/>
<circle cx="280" cy="175" r="5" fill="#22c55e" opacity="0.6"/>
<circle cx="310" cy="185" r="5" fill="#22c55e" opacity="0.6"/>
<circle cx="340" cy="175" r="5" fill="#22c55e" opacity="0.6"/>
<!-- Connections -->
<line x1="280" y1="150" x2="310" y2="138" stroke="#22c55e" stroke-width="1" opacity="0.4"/>
<line x1="310" y1="138" x2="340" y2="150" stroke="#22c55e" stroke-width="1" opacity="0.4"/>
<line x1="280" y1="150" x2="280" y2="175" stroke="#22c55e" stroke-width="1" opacity="0.4"/>
<line x1="340" y1="150" x2="340" y2="175" stroke="#22c55e" stroke-width="1" opacity="0.4"/>
<line x1="280" y1="175" x2="310" y2="185" stroke="#22c55e" stroke-width="1" opacity="0.4"/>
<line x1="310" y1="185" x2="340" y2="175" stroke="#22c55e" stroke-width="1" opacity="0.4"/>
<!-- Cross connections (mesh) -->
<line x1="280" y1="150" x2="340" y2="175" stroke="#22c55e" stroke-width="0.5" opacity="0.2"/>
<line x1="340" y1="150" x2="280" y2="175" stroke="#22c55e" stroke-width="0.5" opacity="0.2"/>
<!-- Self-healing pulse -->
<circle cx="310" cy="162" r="12" fill="none" stroke="#22c55e" stroke-width="0.5" opacity="0.2"/>
<circle cx="310" cy="162" r="20" fill="none" stroke="#22c55e" stroke-width="0.5" opacity="0.1"/>
<text x="253" y="200" font-family="monospace" font-size="5" fill="#94a3b8" opacity="0.5">SELF-HEALING SYSTEMS</text>

<!-- Option 3: Regional Alliance (bottom-left) -->
<rect x="410" y="105" width="170" height="105" rx="4" fill="#0c1322" stroke="#FF6600" stroke-width="1" opacity="0.5"/>
<text x="430" y="120" font-family="monospace" font-size="7" fill="#FF6600">REGIONAL ALLIANCE</text>
<line x1="420" y1="124" x2="570" y2="124" stroke="#FF6600" stroke-width="0.5" opacity="0.3"/>
<!-- Map with connected countries -->
<!-- Simplified SE Asia map suggestion -->
<polygon points="455,145 465,140 480,142 490,148 485,158 470,160 455,155" fill="#1e293b" stroke="#FF6600" stroke-width="0.5" opacity="0.4"/>
<polygon points="500,135 520,130 530,140 525,150 505,148" fill="#1e293b" stroke="#FF6600" stroke-width="0.5" opacity="0.4"/>
<polygon points="535,145 550,140 560,148 555,158 538,155" fill="#1e293b" stroke="#FF6600" stroke-width="0.5" opacity="0.4"/>
<polygon points="480,168 500,162 510,170 505,180 485,178" fill="#1e293b" stroke="#FF6600" stroke-width="0.5" opacity="0.4"/>
<!-- Singapore dot (highlighted) -->
<circle cx="488" cy="170" r="4" fill="#FF6600" opacity="0.8"/>
<circle cx="488" cy="170" r="7" fill="#FF6600" opacity="0.15"/>
<!-- Alliance connection lines -->
<line x1="488" y1="170" x2="470" y2="150" stroke="#FF6600" stroke-width="1" opacity="0.5"/>
<line x1="488" y1="170" x2="515" y2="142" stroke="#FF6600" stroke-width="1" opacity="0.5"/>
<line x1="488" y1="170" x2="548" y2="150" stroke="#FF6600" stroke-width="1" opacity="0.5"/>
<!-- Alliance nodes -->
<circle cx="470" cy="150" r="3" fill="#FF6600" opacity="0.5"/>
<circle cx="515" cy="142" r="3" fill="#FF6600" opacity="0.5"/>
<circle cx="548" cy="150" r="3" fill="#FF6600" opacity="0.5"/>
<text x="435" y="200" font-family="monospace" font-size="5" fill="#94a3b8" opacity="0.5">REGIONAL PARTNERSHIP</text>

<!-- Option 4: Citizen Resilience (bottom-right) -->
<rect x="595" y="105" width="170" height="105" rx="4" fill="#0c1322" stroke="#a855f7" stroke-width="1" opacity="0.5"/>
<text x="610" y="120" font-family="monospace" font-size="7" fill="#a855f7">CITIZEN RESILIENCE</text>
<line x1="605" y1="124" x2="755" y2="124" stroke="#a855f7" stroke-width="0.5" opacity="0.3"/>
<!-- People with shields -->
<g>
  <!-- Person 1 with shield -->
  <circle cx="640" cy="145" r="6" fill="#475569"/>
  <rect x="634" y="152" width="12" height="15" rx="2" fill="#475569"/>
  <path d="M636,150 L632,148 L632,158 Q636,162 640,158" fill="none" stroke="#a855f7" stroke-width="1" opacity="0.6"/>
  <!-- Person 2 with shield -->
  <circle cx="680" cy="145" r="6" fill="#475569"/>
  <rect x="674" y="152" width="12" height="15" rx="2" fill="#475569"/>
  <path d="M676,150 L672,148 L672,158 Q676,162 680,158" fill="none" stroke="#a855f7" stroke-width="1" opacity="0.6"/>
  <!-- Person 3 with shield -->
  <circle cx="720" cy="145" r="6" fill="#475569"/>
  <rect x="714" y="152" width="12" height="15" rx="2" fill="#475569"/>
  <path d="M716,150 L712,148 L712,158 Q716,162 720,158" fill="none" stroke="#a855f7" stroke-width="1" opacity="0.6"/>
</g>
<!-- Row 2 -->
<g opacity="0.6">
  <circle cx="655" cy="178" r="5" fill="#475569"/>
  <rect x="650" y="184" width="10" height="12" rx="2" fill="#475569"/>
  <circle cx="700" cy="178" r="5" fill="#475569"/>
  <rect x="695" y="184" width="10" height="12" rx="2" fill="#475569"/>
</g>
<!-- Digital shield umbrella over all -->
<path d="M625,135 Q680,125 740,135" fill="none" stroke="#a855f7" stroke-width="1.5" opacity="0.4"/>
<path d="M630,138 Q680,130 735,138" fill="none" stroke="#a855f7" stroke-width="0.5" opacity="0.2"/>
<text x="618" y="200" font-family="monospace" font-size="5" fill="#94a3b8" opacity="0.5">EMPOWER THE PEOPLE</text>

<!-- Deliberating figures in front of parliament -->
<g opacity="0.5">
  <!-- Standing figure (gesturing) -->
  <circle cx="190" cy="38" r="7" fill="#64748b"/>
  <rect x="184" y="45" width="12" height="18" rx="2" fill="#64748b"/>
  <line x1="196" y1="50" x2="210" y2="42" stroke="#64748b" stroke-width="2" stroke-linecap="round"/>

  <!-- Seated figures -->
  <circle cx="140" cy="55" r="6" fill="#64748b"/>
  <rect x="135" y="61" width="10" height="14" rx="2" fill="#64748b"/>
  <circle cx="170" cy="60" r="6" fill="#64748b"/>
  <rect x="165" y="66" width="10" height="14" rx="2" fill="#64748b"/>
</g>

<!-- Construction crane (building metaphor, far right) -->
<g opacity="0.4">
  <rect x="760" y="30" width="4" height="160" fill="#334155"/>
  <rect x="730" y="30" width="60" height="4" fill="#334155"/>
  <line x1="764" y1="34" x2="730" y2="34" stroke="#FF6600" stroke-width="0.5"/>
  <line x1="740" y1="34" x2="740" y2="55" stroke="#334155" stroke-width="0.5"/>
  <!-- Crane hook -->
  <line x1="740" y1="55" x2="740" y2="70" stroke="#94a3b8" stroke-width="0.5"/>
  <path d="M736,70 Q740,75 744,70" fill="none" stroke="#94a3b8" stroke-width="1"/>
</g>

<!-- Blueprint/schematic lines -->
<g opacity="0.1">
  <rect x="30" y="110" width="5" height="100" fill="#0ea5e9"/>
  <rect x="30" y="210" width="100" height="3" fill="#0ea5e9"/>
  <line x1="30" y1="110" x2="40" y2="105" stroke="#0ea5e9" stroke-width="0.5"/>
</g>

<!-- Bottom bar -->
<rect x="0" y="240" width="800" height="60" fill="#0f172a"/>
<line x1="0" y1="240" x2="800" y2="240" stroke="#334155" stroke-width="2"/>
<rect x="0" y="233" width="800" height="7" fill="#22c55e" opacity="0.06"/>
<rect x="10" y="266" width="260" height="22" fill="#0f172a" opacity="0.85"/>
<text x="16" y="281" font-family="monospace" font-size="12" fill="#e2e8f0">ARC 3 GROUP - WHAT DO WE BUILD</text>
</svg>