<svg xmlns="http://www.w3.org/2000/svg" viewBox="0 0 800 300" width="800" height="300">
<rect width="800" height="300" fill="#0f172a"/>
<line x1="0" y1="60" x2="800" y2="60" stroke="#1e293b" stroke-width="1"/>
<line x1="0" y1="120" x2="800" y2="120" stroke="#1e293b" stroke-width="1"/>
<line x1="0" y1="180" x2="800" y2="180" stroke="#1e293b" stroke-width="1"/>
<line x1="0" y1="240" x2="800" y2="240" stroke="#1e293b" stroke-width="1"/>
<line x1="80" y1="0" x2="80" y2="300" stroke="#1e293b" stroke-width="1"/>
<line x1="160" y1="0" x2="160" y2="300" stroke="#1e293b" stroke-width="1"/>
<line x1="240" y1="0" x2="240" y2="300" stroke="#1e293b" stroke-width="1"/>
<line x1="320" y1="0" x2="320" y2="300" stroke="#1e293b" stroke-width="1"/>
<line x1="400" y1="0" x2="400" y2="300" stroke="#1e293b" stroke-width="1"/>
<line x1="480" y1="0" x2="480" y2="300" stroke="#1e293b" stroke-width="1"/>
<line x1="560" y1="0" x2="560" y2="300" stroke="#1e293b" stroke-width="1"/>
<line x1="640" y1="0" x2="640" y2="300" stroke="#1e293b" stroke-width="1"/>
<line x1="720" y1="0" x2="720" y2="300" stroke="#1e293b" stroke-width="1"/>
<line x1="30" y1="80" x2="770" y2="80" stroke="#334155" stroke-width="3.0" opacity="0.50"/>
<line x1="30" y1="160" x2="770" y2="160" stroke="#334155" stroke-width="3.0" opacity="0.50"/>
<line x1="30" y1="240" x2="770" y2="240" stroke="#334155" stroke-width="3.0" opacity="0.50"/>
<line x1="80" y1="80" x2="80" y2="240" stroke="#334155" stroke-width="2.0" opacity="0.40"/>
<line x1="200" y1="80" x2="200" y2="240" stroke="#334155" stroke-width="2.0" opacity="0.40"/>
<line x1="320" y1="80" x2="320" y2="240" stroke="#334155" stroke-width="2.0" opacity="0.40"/>
<line x1="440" y1="80" x2="440" y2="240" stroke="#334155" stroke-width="2.0" opacity="0.40"/>
<line x1="560" y1="80" x2="560" y2="240" stroke="#334155" stroke-width="2.0" opacity="0.40"/>
<line x1="680" y1="80" x2="680" y2="240" stroke="#334155" stroke-width="2.0" opacity="0.40"/>
<rect x="62" y="62" width="36" height="36" fill="#2d0f0f" stroke="#ef4444" stroke-width="2" rx="3"/>
<text x="68" y="85" font-family="monospace" font-size="8" fill="#ef4444" font-weight="bold">SS-01</text>
<circle cx="94" cy="66" r="5.0" fill="#ef4444"/>
<circle cx="80" cy="80" r="28" fill="none" stroke="#ef4444" stroke-width="1" opacity="0.3"/>
<circle cx="80" cy="80" r="40" fill="none" stroke="#ef4444" stroke-width="0.5" opacity="0.15"/>
<rect x="182" y="62" width="36" height="36" fill="#0f172a" stroke="#94a3b8" stroke-width="1" rx="3"/>
<text x="188" y="85" font-family="monospace" font-size="8" fill="#94a3b8">SS-02</text>
<rect x="302" y="62" width="36" height="36" fill="#0f172a" stroke="#94a3b8" stroke-width="1" rx="3"/>
<text x="308" y="85" font-family="monospace" font-size="8" fill="#94a3b8">SS-03</text>
<rect x="422" y="62" width="36" height="36" fill="#2d1a0a" stroke="#FF6600" stroke-width="2" rx="3"/>
<text x="428" y="85" font-family="monospace" font-size="8" fill="#FF6600" font-weight="bold">SS-04</text>
<circle cx="454" cy="66" r="5.0" fill="#FF6600"/>
<circle cx="440" cy="80" r="28" fill="none" stroke="#FF6600" stroke-width="1" opacity="0.3"/>
<circle cx="440" cy="80" r="40" fill="none" stroke="#FF6600" stroke-width="0.5" opacity="0.15"/>
<rect x="542" y="62" width="36" height="36" fill="#0f172a" stroke="#94a3b8" stroke-width="1" rx="3"/>
<text x="548" y="85" font-family="monospace" font-size="8" fill="#94a3b8">SS-05</text>
<rect x="662" y="62" width="36" height="36" fill="#0f172a" stroke="#94a3b8" stroke-width="1" rx="3"/>
<text x="668" y="85" font-family="monospace" font-size="8" fill="#94a3b8">SS-06</text>
<rect x="62" y="222" width="36" height="36" fill="#0f172a" stroke="#22c55e" stroke-width="1.5" rx="3"/>
<text x="67" y="238" font-family="monospace" font-size="7" fill="#22c55e">HOSP</text>
<text x="70" y="250" font-family="monospace" font-size="8" fill="#22c55e" font-weight="bold">96%</text>
<rect x="90" y="227" width="5" height="21" fill="#22c55e" opacity="0.50"/>
<rect x="182" y="222" width="36" height="36" fill="#0f172a" stroke="#22c55e" stroke-width="1.5" rx="3"/>
<text x="187" y="238" font-family="monospace" font-size="7" fill="#22c55e">MRT</text>
<text x="190" y="250" font-family="monospace" font-size="8" fill="#22c55e" font-weight="bold">78%</text>
<rect x="210" y="231" width="5" height="17" fill="#22c55e" opacity="0.50"/>
<rect x="302" y="222" width="36" height="36" fill="#0f172a" stroke="#FF6600" stroke-width="1.5" rx="3"/>
<text x="307" y="238" font-family="monospace" font-size="7" fill="#FF6600">TELE</text>
<text x="310" y="250" font-family="monospace" font-size="8" fill="#FF6600" font-weight="bold">45%</text>
<rect x="330" y="239" width="5" height="9" fill="#FF6600" opacity="0.50"/>
<rect x="422" y="222" width="36" height="36" fill="#0f172a" stroke="#ef4444" stroke-width="1.5" rx="3"/>
<text x="427" y="238" font-family="monospace" font-size="7" fill="#ef4444">COMM</text>
<text x="430" y="250" font-family="monospace" font-size="8" fill="#ef4444" font-weight="bold">0%</text>
<rect x="450" y="248" width="5" height="0" fill="#ef4444" opacity="0.50"/>
<rect x="542" y="222" width="36" height="36" fill="#0f172a" stroke="#22c55e" stroke-width="1.5" rx="3"/>
<text x="547" y="238" font-family="monospace" font-size="7" fill="#22c55e">RESI</text>
<text x="550" y="250" font-family="monospace" font-size="8" fill="#22c55e" font-weight="bold">82%</text>
<rect x="570" y="230" width="5" height="18" fill="#22c55e" opacity="0.50"/>
<rect x="662" y="222" width="36" height="36" fill="#0f172a" stroke="#22c55e" stroke-width="1.5" rx="3"/>
<text x="667" y="238" font-family="monospace" font-size="7" fill="#22c55e">CTRL</text>
<text x="670" y="250" font-family="monospace" font-size="8" fill="#22c55e" font-weight="bold">91%</text>
<rect x="690" y="228" width="5" height="20" fill="#22c55e" opacity="0.50"/>
<rect x="74" y="152" width="12" height="16" fill="#0f172a" stroke="#22c55e" stroke-width="1.5"/>
<line x1="76" y1="154" x2="76" y2="164" stroke="#22c55e" stroke-width="1.5"/>
<rect x="194" y="152" width="12" height="16" fill="#0f172a" stroke="#22c55e" stroke-width="1.5"/>
<line x1="196" y1="154" x2="196" y2="164" stroke="#22c55e" stroke-width="1.5"/>
<rect x="314" y="152" width="12" height="16" fill="#0f172a" stroke="#ef4444" stroke-width="1.5"/>
<line x1="316" y1="160" x2="324" y2="153" stroke="#ef4444" stroke-width="1.5"/>
<rect x="434" y="152" width="12" height="16" fill="#0f172a" stroke="#ef4444" stroke-width="1.5"/>
<line x1="436" y1="160" x2="444" y2="153" stroke="#ef4444" stroke-width="1.5"/>
<rect x="554" y="152" width="12" height="16" fill="#0f172a" stroke="#22c55e" stroke-width="1.5"/>
<line x1="556" y1="154" x2="556" y2="164" stroke="#22c55e" stroke-width="1.5"/>
<rect x="674" y="152" width="12" height="16" fill="#0f172a" stroke="#22c55e" stroke-width="1.5"/>
<line x1="676" y1="154" x2="676" y2="164" stroke="#22c55e" stroke-width="1.5"/>
<rect x="0" y="0" width="800" height="22" fill="#2d0f0f" opacity="0.90"/>
<text x="10" y="15" font-family="monospace" font-size="10" fill="#ef4444" font-weight="bold">!! GRID ANOMALY DETECTED - SS-01 FAULT | SS-04 VOLTAGE SPIKE | COMM SECTOR BLACKOUT</text>
<rect x="560" y="100" width="220" height="130" fill="#1e293b" stroke="#ef4444" stroke-width="1.5" rx="2"/>
<text x="570" y="117" font-family="monospace" font-size="11" fill="#ef4444">FAULT LOG</text>
<line x1="570" y1="121" x2="770" y2="121" stroke="#ef4444" stroke-width="1.0" opacity="0.40"/>
<text x="570" y="136" font-family="monospace" font-size="9" fill="#e2e8f0">SS-01: OVERCURRENT</text>
<text x="570" y="150" font-family="monospace" font-size="9" fill="#e2e8f0">SS-04: +18% OVERVOLT</text>
<text x="570" y="164" font-family="monospace" font-size="9" fill="#ef4444">COMM LOAD NODE: 0%</text>
<text x="570" y="178" font-family="monospace" font-size="9" fill="#FF6600">SWITCHES: 2 OPEN</text>
<text x="570" y="194" font-family="monospace" font-size="9" fill="#22c55e">REROUTING VIA SS-05</text>
<text x="570" y="208" font-family="monospace" font-size="9" fill="#22c55e">ETA RESTORE: 8 min</text>
<text x="570" y="222" font-family="monospace" font-size="9" fill="#22c55e">CRITICAL INFRA: OK</text>
<rect x="78" y="100" width="4" height="6" fill="#22c55e" opacity="0.30"/>
<rect x="78" y="120" width="4" height="6" fill="#22c55e" opacity="0.30"/>
<rect x="78" y="140" width="4" height="6" fill="#22c55e" opacity="0.30"/>
<rect x="198" y="100" width="4" height="6" fill="#22c55e" opacity="0.30"/>
<rect x="198" y="120" width="4" height="6" fill="#22c55e" opacity="0.30"/>
<rect x="198" y="140" width="4" height="6" fill="#22c55e" opacity="0.30"/>
<rect x="558" y="100" width="4" height="6" fill="#22c55e" opacity="0.30"/>
<rect x="558" y="120" width="4" height="6" fill="#22c55e" opacity="0.30"/>
<rect x="558" y="140" width="4" height="6" fill="#22c55e" opacity="0.30"/>
<rect x="678" y="100" width="4" height="6" fill="#22c55e" opacity="0.30"/>
<rect x="678" y="120" width="4" height="6" fill="#22c55e" opacity="0.30"/>
<rect x="678" y="140" width="4" height="6" fill="#22c55e" opacity="0.30"/>
<rect x="10" y="266" width="260" height="22" fill="#0f172a" opacity="0.85"/>
<text x="16" y="281" font-family="monospace" font-size="12" fill="#e2e8f0">ARC 3 CH 1 - POWER GRID ANOMALY</text>
</svg>