<svg xmlns="http://www.w3.org/2000/svg" viewBox="0 0 800 300" width="800" height="300">
<rect width="800" height="300" fill="#0f172a"/>
<line x1="0" y1="60" x2="800" y2="60" stroke="#1e293b" stroke-width="1"/>
<line x1="0" y1="120" x2="800" y2="120" stroke="#1e293b" stroke-width="1"/>
<line x1="0" y1="180" x2="800" y2="180" stroke="#1e293b" stroke-width="1"/>
<line x1="0" y1="240" x2="800" y2="240" stroke="#1e293b" stroke-width="1"/>
<line x1="80" y1="0" x2="80" y2="300" stroke="#1e293b" stroke-width="1"/>
<line x1="160" y1="0" x2="160" y2="300" stroke="#1e293b" stroke-width="1"/>
<line x1="240" y1="0" x2="240" y2="300" stroke="#1e293b" stroke-width="1"/>
<line x1="320" y1="0" x2="320" y2="300" stroke="#1e293b" stroke-width="1"/>
<line x1="400" y1="0" x2="400" y2="300" stroke="#1e293b" stroke-width="1"/>
<line x1="480" y1="0" x2="480" y2="300" stroke="#1e293b" stroke-width="1"/>
<line x1="560" y1="0" x2="560" y2="300" stroke="#1e293b" stroke-width="1"/>
<line x1="640" y1="0" x2="640" y2="300" stroke="#1e293b" stroke-width="1"/>
<line x1="720" y1="0" x2="720" y2="300" stroke="#1e293b" stroke-width="1"/>
<rect x="2" y="2" width="56" height="56" fill="none" stroke="#1e293b" stroke-width="1" rx="4"/>
<circle cx="30" cy="30" r="2.0" fill="#334155" opacity="0.50"/>
<line x1="30" y1="30" x2="90" y2="30" stroke="#1e293b" stroke-width="1.0" opacity="0.40"/>
<line x1="30" y1="30" x2="30" y2="90" stroke="#1e293b" stroke-width="1.0" opacity="0.40"/>
<rect x="2" y="62" width="56" height="56" fill="none" stroke="#1e293b" stroke-width="1" rx="4"/>
<circle cx="30" cy="90" r="2.0" fill="#334155" opacity="0.50"/>
<line x1="30" y1="90" x2="90" y2="90" stroke="#1e293b" stroke-width="1.0" opacity="0.40"/>
<rect x="2" y="122" width="56" height="56" fill="none" stroke="#1e293b" stroke-width="1" rx="4"/>
<circle cx="30" cy="150" r="2.0" fill="#334155" opacity="0.50"/>
<line x1="30" y1="150" x2="90" y2="150" stroke="#1e293b" stroke-width="1.0" opacity="0.40"/>
<line x1="30" y1="150" x2="30" y2="210" stroke="#1e293b" stroke-width="1.0" opacity="0.40"/>
<rect x="2" y="182" width="56" height="56" fill="none" stroke="#1e293b" stroke-width="1" rx="4"/>
<circle cx="30" cy="210" r="2.0" fill="#334155" opacity="0.50"/>
<line x1="30" y1="210" x2="90" y2="210" stroke="#1e293b" stroke-width="1.0" opacity="0.40"/>
<rect x="2" y="242" width="56" height="56" fill="none" stroke="#1e293b" stroke-width="1" rx="4"/>
<circle cx="30" cy="270" r="2.0" fill="#334155" opacity="0.50"/>
<line x1="30" y1="270" x2="90" y2="270" stroke="#1e293b" stroke-width="1.0" opacity="0.40"/>
<line x1="30" y1="270" x2="30" y2="330" stroke="#1e293b" stroke-width="1.0" opacity="0.40"/>
<rect x="62" y="2" width="56" height="56" fill="none" stroke="#1e293b" stroke-width="1" rx="4"/>
<circle cx="90" cy="30" r="2.0" fill="#334155" opacity="0.50"/>
<line x1="90" y1="30" x2="90" y2="90" stroke="#1e293b" stroke-width="1.0" opacity="0.40"/>
<rect x="62" y="62" width="56" height="56" fill="none" stroke="#1e293b" stroke-width="1" rx="4"/>
<circle cx="90" cy="90" r="2.0" fill="#334155" opacity="0.50"/>
<rect x="62" y="122" width="56" height="56" fill="none" stroke="#1e293b" stroke-width="1" rx="4"/>
<circle cx="90" cy="150" r="2.0" fill="#334155" opacity="0.50"/>
<line x1="90" y1="150" x2="90" y2="210" stroke="#1e293b" stroke-width="1.0" opacity="0.40"/>
<rect x="62" y="182" width="56" height="56" fill="none" stroke="#1e293b" stroke-width="1" rx="4"/>
<circle cx="90" cy="210" r="2.0" fill="#334155" opacity="0.50"/>
<rect x="62" y="242" width="56" height="56" fill="none" stroke="#1e293b" stroke-width="1" rx="4"/>
<circle cx="90" cy="270" r="2.0" fill="#334155" opacity="0.50"/>
<line x1="90" y1="270" x2="90" y2="330" stroke="#1e293b" stroke-width="1.0" opacity="0.40"/>
<rect x="122" y="2" width="56" height="56" fill="none" stroke="#1e293b" stroke-width="1" rx="4"/>
<circle cx="150" cy="30" r="2.0" fill="#334155" opacity="0.50"/>
<line x1="150" y1="30" x2="210" y2="30" stroke="#1e293b" stroke-width="1.0" opacity="0.40"/>
<line x1="150" y1="30" x2="150" y2="90" stroke="#1e293b" stroke-width="1.0" opacity="0.40"/>
<rect x="122" y="62" width="56" height="56" fill="none" stroke="#1e293b" stroke-width="1" rx="4"/>
<circle cx="150" cy="90" r="2.0" fill="#334155" opacity="0.50"/>
<line x1="150" y1="90" x2="210" y2="90" stroke="#1e293b" stroke-width="1.0" opacity="0.40"/>
<rect x="122" y="122" width="56" height="56" fill="none" stroke="#1e293b" stroke-width="1" rx="4"/>
<circle cx="150" cy="150" r="2.0" fill="#334155" opacity="0.50"/>
<line x1="150" y1="150" x2="210" y2="150" stroke="#1e293b" stroke-width="1.0" opacity="0.40"/>
<line x1="150" y1="150" x2="150" y2="210" stroke="#1e293b" stroke-width="1.0" opacity="0.40"/>
<rect x="122" y="182" width="56" height="56" fill="none" stroke="#1e293b" stroke-width="1" rx="4"/>
<circle cx="150" cy="210" r="2.0" fill="#334155" opacity="0.50"/>
<line x1="150" y1="210" x2="210" y2="210" stroke="#1e293b" stroke-width="1.0" opacity="0.40"/>
<rect x="122" y="242" width="56" height="56" fill="none" stroke="#1e293b" stroke-width="1" rx="4"/>
<circle cx="150" cy="270" r="2.0" fill="#334155" opacity="0.50"/>
<line x1="150" y1="270" x2="210" y2="270" stroke="#1e293b" stroke-width="1.0" opacity="0.40"/>
<line x1="150" y1="270" x2="150" y2="330" stroke="#1e293b" stroke-width="1.0" opacity="0.40"/>
<rect x="182" y="2" width="56" height="56" fill="none" stroke="#1e293b" stroke-width="1" rx="4"/>
<circle cx="210" cy="30" r="2.0" fill="#334155" opacity="0.50"/>
<line x1="210" y1="30" x2="210" y2="90" stroke="#1e293b" stroke-width="1.0" opacity="0.40"/>
<rect x="182" y="62" width="56" height="56" fill="none" stroke="#1e293b" stroke-width="1" rx="4"/>
<circle cx="210" cy="90" r="2.0" fill="#334155" opacity="0.50"/>
<rect x="182" y="122" width="56" height="56" fill="none" stroke="#1e293b" stroke-width="1" rx="4"/>
<circle cx="210" cy="150" r="2.0" fill="#334155" opacity="0.50"/>
<line x1="210" y1="150" x2="210" y2="210" stroke="#1e293b" stroke-width="1.0" opacity="0.40"/>
<rect x="182" y="182" width="56" height="56" fill="none" stroke="#1e293b" stroke-width="1" rx="4"/>
<circle cx="210" cy="210" r="2.0" fill="#334155" opacity="0.50"/>
<rect x="182" y="242" width="56" height="56" fill="none" stroke="#1e293b" stroke-width="1" rx="4"/>
<circle cx="210" cy="270" r="2.0" fill="#334155" opacity="0.50"/>
<line x1="210" y1="270" x2="210" y2="330" stroke="#1e293b" stroke-width="1.0" opacity="0.40"/>
<rect x="242" y="2" width="56" height="56" fill="none" stroke="#1e293b" stroke-width="1" rx="4"/>
<circle cx="270" cy="30" r="2.0" fill="#334155" opacity="0.50"/>
<line x1="270" y1="30" x2="330" y2="30" stroke="#1e293b" stroke-width="1.0" opacity="0.40"/>
<line x1="270" y1="30" x2="270" y2="90" stroke="#1e293b" stroke-width="1.0" opacity="0.40"/>
<rect x="242" y="62" width="56" height="56" fill="none" stroke="#1e293b" stroke-width="1" rx="4"/>
<circle cx="270" cy="90" r="2.0" fill="#334155" opacity="0.50"/>
<line x1="270" y1="90" x2="330" y2="90" stroke="#1e293b" stroke-width="1.0" opacity="0.40"/>
<rect x="242" y="122" width="56" height="56" fill="none" stroke="#1e293b" stroke-width="1" rx="4"/>
<circle cx="270" cy="150" r="2.0" fill="#334155" opacity="0.50"/>
<line x1="270" y1="150" x2="330" y2="150" stroke="#1e293b" stroke-width="1.0" opacity="0.40"/>
<line x1="270" y1="150" x2="270" y2="210" stroke="#1e293b" stroke-width="1.0" opacity="0.40"/>
<rect x="242" y="182" width="56" height="56" fill="none" stroke="#1e293b" stroke-width="1" rx="4"/>
<circle cx="270" cy="210" r="2.0" fill="#334155" opacity="0.50"/>
<line x1="270" y1="210" x2="330" y2="210" stroke="#1e293b" stroke-width="1.0" opacity="0.40"/>
<rect x="242" y="242" width="56" height="56" fill="none" stroke="#1e293b" stroke-width="1" rx="4"/>
<circle cx="270" cy="270" r="2.0" fill="#334155" opacity="0.50"/>
<line x1="270" y1="270" x2="330" y2="270" stroke="#1e293b" stroke-width="1.0" opacity="0.40"/>
<line x1="270" y1="270" x2="270" y2="330" stroke="#1e293b" stroke-width="1.0" opacity="0.40"/>
<rect x="302" y="2" width="56" height="56" fill="none" stroke="#1e293b" stroke-width="1" rx="4"/>
<circle cx="330" cy="30" r="2.0" fill="#334155" opacity="0.50"/>
<line x1="330" y1="30" x2="330" y2="90" stroke="#1e293b" stroke-width="1.0" opacity="0.40"/>
<rect x="302" y="62" width="56" height="56" fill="none" stroke="#1e293b" stroke-width="1" rx="4"/>
<circle cx="330" cy="90" r="2.0" fill="#334155" opacity="0.50"/>
<rect x="302" y="122" width="56" height="56" fill="none" stroke="#1e293b" stroke-width="1" rx="4"/>
<circle cx="330" cy="150" r="2.0" fill="#334155" opacity="0.50"/>
<line x1="330" y1="150" x2="330" y2="210" stroke="#1e293b" stroke-width="1.0" opacity="0.40"/>
<rect x="302" y="182" width="56" height="56" fill="none" stroke="#1e293b" stroke-width="1" rx="4"/>
<circle cx="330" cy="210" r="2.0" fill="#334155" opacity="0.50"/>
<rect x="302" y="242" width="56" height="56" fill="none" stroke="#1e293b" stroke-width="1" rx="4"/>
<circle cx="330" cy="270" r="2.0" fill="#334155" opacity="0.50"/>
<line x1="330" y1="270" x2="330" y2="330" stroke="#1e293b" stroke-width="1.0" opacity="0.40"/>
<rect x="362" y="2" width="56" height="56" fill="none" stroke="#1e293b" stroke-width="1" rx="4"/>
<circle cx="390" cy="30" r="2.0" fill="#334155" opacity="0.50"/>
<line x1="390" y1="30" x2="450" y2="30" stroke="#1e293b" stroke-width="1.0" opacity="0.40"/>
<line x1="390" y1="30" x2="390" y2="90" stroke="#1e293b" stroke-width="1.0" opacity="0.40"/>
<rect x="362" y="62" width="56" height="56" fill="none" stroke="#1e293b" stroke-width="1" rx="4"/>
<circle cx="390" cy="90" r="2.0" fill="#334155" opacity="0.50"/>
<line x1="390" y1="90" x2="450" y2="90" stroke="#1e293b" stroke-width="1.0" opacity="0.40"/>
<rect x="362" y="122" width="56" height="56" fill="none" stroke="#1e293b" stroke-width="1" rx="4"/>
<circle cx="390" cy="150" r="2.0" fill="#334155" opacity="0.50"/>
<line x1="390" y1="150" x2="450" y2="150" stroke="#1e293b" stroke-width="1.0" opacity="0.40"/>
<line x1="390" y1="150" x2="390" y2="210" stroke="#1e293b" stroke-width="1.0" opacity="0.40"/>
<rect x="362" y="182" width="56" height="56" fill="none" stroke="#1e293b" stroke-width="1" rx="4"/>
<circle cx="390" cy="210" r="2.0" fill="#334155" opacity="0.50"/>
<line x1="390" y1="210" x2="450" y2="210" stroke="#1e293b" stroke-width="1.0" opacity="0.40"/>
<rect x="362" y="242" width="56" height="56" fill="none" stroke="#1e293b" stroke-width="1" rx="4"/>
<circle cx="390" cy="270" r="2.0" fill="#334155" opacity="0.50"/>
<line x1="390" y1="270" x2="450" y2="270" stroke="#1e293b" stroke-width="1.0" opacity="0.40"/>
<line x1="390" y1="270" x2="390" y2="330" stroke="#1e293b" stroke-width="1.0" opacity="0.40"/>
<rect x="422" y="2" width="56" height="56" fill="none" stroke="#1e293b" stroke-width="1" rx="4"/>
<circle cx="450" cy="30" r="2.0" fill="#334155" opacity="0.50"/>
<line x1="450" y1="30" x2="450" y2="90" stroke="#1e293b" stroke-width="1.0" opacity="0.40"/>
<rect x="422" y="62" width="56" height="56" fill="none" stroke="#1e293b" stroke-width="1" rx="4"/>
<circle cx="450" cy="90" r="2.0" fill="#334155" opacity="0.50"/>
<rect x="422" y="122" width="56" height="56" fill="none" stroke="#1e293b" stroke-width="1" rx="4"/>
<circle cx="450" cy="150" r="2.0" fill="#334155" opacity="0.50"/>
<line x1="450" y1="150" x2="450" y2="210" stroke="#1e293b" stroke-width="1.0" opacity="0.40"/>
<rect x="422" y="182" width="56" height="56" fill="none" stroke="#1e293b" stroke-width="1" rx="4"/>
<circle cx="450" cy="210" r="2.0" fill="#334155" opacity="0.50"/>
<rect x="422" y="242" width="56" height="56" fill="none" stroke="#1e293b" stroke-width="1" rx="4"/>
<circle cx="450" cy="270" r="2.0" fill="#334155" opacity="0.50"/>
<line x1="450" y1="270" x2="450" y2="330" stroke="#1e293b" stroke-width="1.0" opacity="0.40"/>
<rect x="482" y="2" width="56" height="56" fill="none" stroke="#1e293b" stroke-width="1" rx="4"/>
<circle cx="510" cy="30" r="2.0" fill="#334155" opacity="0.50"/>
<line x1="510" y1="30" x2="570" y2="30" stroke="#1e293b" stroke-width="1.0" opacity="0.40"/>
<line x1="510" y1="30" x2="510" y2="90" stroke="#1e293b" stroke-width="1.0" opacity="0.40"/>
<rect x="482" y="62" width="56" height="56" fill="none" stroke="#1e293b" stroke-width="1" rx="4"/>
<circle cx="510" cy="90" r="2.0" fill="#334155" opacity="0.50"/>
<line x1="510" y1="90" x2="570" y2="90" stroke="#1e293b" stroke-width="1.0" opacity="0.40"/>
<rect x="482" y="122" width="56" height="56" fill="none" stroke="#1e293b" stroke-width="1" rx="4"/>
<circle cx="510" cy="150" r="2.0" fill="#334155" opacity="0.50"/>
<line x1="510" y1="150" x2="570" y2="150" stroke="#1e293b" stroke-width="1.0" opacity="0.40"/>
<line x1="510" y1="150" x2="510" y2="210" stroke="#1e293b" stroke-width="1.0" opacity="0.40"/>
<rect x="482" y="182" width="56" height="56" fill="none" stroke="#1e293b" stroke-width="1" rx="4"/>
<circle cx="510" cy="210" r="2.0" fill="#334155" opacity="0.50"/>
<line x1="510" y1="210" x2="570" y2="210" stroke="#1e293b" stroke-width="1.0" opacity="0.40"/>
<rect x="482" y="242" width="56" height="56" fill="none" stroke="#1e293b" stroke-width="1" rx="4"/>
<circle cx="510" cy="270" r="2.0" fill="#334155" opacity="0.50"/>
<line x1="510" y1="270" x2="570" y2="270" stroke="#1e293b" stroke-width="1.0" opacity="0.40"/>
<line x1="510" y1="270" x2="510" y2="330" stroke="#1e293b" stroke-width="1.0" opacity="0.40"/>
<rect x="542" y="2" width="56" height="56" fill="none" stroke="#1e293b" stroke-width="1" rx="4"/>
<circle cx="570" cy="30" r="2.0" fill="#334155" opacity="0.50"/>
<line x1="570" y1="30" x2="570" y2="90" stroke="#1e293b" stroke-width="1.0" opacity="0.40"/>
<rect x="542" y="62" width="56" height="56" fill="none" stroke="#1e293b" stroke-width="1" rx="4"/>
<circle cx="570" cy="90" r="2.0" fill="#334155" opacity="0.50"/>
<rect x="542" y="122" width="56" height="56" fill="none" stroke="#1e293b" stroke-width="1" rx="4"/>
<circle cx="570" cy="150" r="2.0" fill="#334155" opacity="0.50"/>
<line x1="570" y1="150" x2="570" y2="210" stroke="#1e293b" stroke-width="1.0" opacity="0.40"/>
<rect x="542" y="182" width="56" height="56" fill="none" stroke="#1e293b" stroke-width="1" rx="4"/>
<circle cx="570" cy="210" r="2.0" fill="#334155" opacity="0.50"/>
<rect x="542" y="242" width="56" height="56" fill="none" stroke="#1e293b" stroke-width="1" rx="4"/>
<circle cx="570" cy="270" r="2.0" fill="#334155" opacity="0.50"/>
<line x1="570" y1="270" x2="570" y2="330" stroke="#1e293b" stroke-width="1.0" opacity="0.40"/>
<rect x="602" y="2" width="56" height="56" fill="none" stroke="#1e293b" stroke-width="1" rx="4"/>
<circle cx="630" cy="30" r="2.0" fill="#334155" opacity="0.50"/>
<line x1="630" y1="30" x2="690" y2="30" stroke="#1e293b" stroke-width="1.0" opacity="0.40"/>
<line x1="630" y1="30" x2="630" y2="90" stroke="#1e293b" stroke-width="1.0" opacity="0.40"/>
<rect x="602" y="62" width="56" height="56" fill="none" stroke="#1e293b" stroke-width="1" rx="4"/>
<circle cx="630" cy="90" r="2.0" fill="#334155" opacity="0.50"/>
<line x1="630" y1="90" x2="690" y2="90" stroke="#1e293b" stroke-width="1.0" opacity="0.40"/>
<rect x="602" y="122" width="56" height="56" fill="none" stroke="#1e293b" stroke-width="1" rx="4"/>
<circle cx="630" cy="150" r="2.0" fill="#334155" opacity="0.50"/>
<line x1="630" y1="150" x2="690" y2="150" stroke="#1e293b" stroke-width="1.0" opacity="0.40"/>
<line x1="630" y1="150" x2="630" y2="210" stroke="#1e293b" stroke-width="1.0" opacity="0.40"/>
<rect x="602" y="182" width="56" height="56" fill="none" stroke="#1e293b" stroke-width="1" rx="4"/>
<circle cx="630" cy="210" r="2.0" fill="#334155" opacity="0.50"/>
<line x1="630" y1="210" x2="690" y2="210" stroke="#1e293b" stroke-width="1.0" opacity="0.40"/>
<rect x="602" y="242" width="56" height="56" fill="none" stroke="#1e293b" stroke-width="1" rx="4"/>
<circle cx="630" cy="270" r="2.0" fill="#334155" opacity="0.50"/>
<line x1="630" y1="270" x2="690" y2="270" stroke="#1e293b" stroke-width="1.0" opacity="0.40"/>
<line x1="630" y1="270" x2="630" y2="330" stroke="#1e293b" stroke-width="1.0" opacity="0.40"/>
<rect x="662" y="2" width="56" height="56" fill="none" stroke="#1e293b" stroke-width="1" rx="4"/>
<circle cx="690" cy="30" r="2.0" fill="#334155" opacity="0.50"/>
<line x1="690" y1="30" x2="690" y2="90" stroke="#1e293b" stroke-width="1.0" opacity="0.40"/>
<rect x="662" y="62" width="56" height="56" fill="none" stroke="#1e293b" stroke-width="1" rx="4"/>
<circle cx="690" cy="90" r="2.0" fill="#334155" opacity="0.50"/>
<rect x="662" y="122" width="56" height="56" fill="none" stroke="#1e293b" stroke-width="1" rx="4"/>
<circle cx="690" cy="150" r="2.0" fill="#334155" opacity="0.50"/>
<line x1="690" y1="150" x2="690" y2="210" stroke="#1e293b" stroke-width="1.0" opacity="0.40"/>
<rect x="662" y="182" width="56" height="56" fill="none" stroke="#1e293b" stroke-width="1" rx="4"/>
<circle cx="690" cy="210" r="2.0" fill="#334155" opacity="0.50"/>
<rect x="662" y="242" width="56" height="56" fill="none" stroke="#1e293b" stroke-width="1" rx="4"/>
<circle cx="690" cy="270" r="2.0" fill="#334155" opacity="0.50"/>
<line x1="690" y1="270" x2="690" y2="330" stroke="#1e293b" stroke-width="1.0" opacity="0.40"/>
<rect x="722" y="2" width="56" height="56" fill="none" stroke="#1e293b" stroke-width="1" rx="4"/>
<circle cx="750" cy="30" r="2.0" fill="#334155" opacity="0.50"/>
<line x1="750" y1="30" x2="810" y2="30" stroke="#1e293b" stroke-width="1.0" opacity="0.40"/>
<line x1="750" y1="30" x2="750" y2="90" stroke="#1e293b" stroke-width="1.0" opacity="0.40"/>
<rect x="722" y="62" width="56" height="56" fill="none" stroke="#1e293b" stroke-width="1" rx="4"/>
<circle cx="750" cy="90" r="2.0" fill="#334155" opacity="0.50"/>
<line x1="750" y1="90" x2="810" y2="90" stroke="#1e293b" stroke-width="1.0" opacity="0.40"/>
<rect x="722" y="122" width="56" height="56" fill="none" stroke="#1e293b" stroke-width="1" rx="4"/>
<circle cx="750" cy="150" r="2.0" fill="#334155" opacity="0.50"/>
<line x1="750" y1="150" x2="810" y2="150" stroke="#1e293b" stroke-width="1.0" opacity="0.40"/>
<line x1="750" y1="150" x2="750" y2="210" stroke="#1e293b" stroke-width="1.0" opacity="0.40"/>
<rect x="722" y="182" width="56" height="56" fill="none" stroke="#1e293b" stroke-width="1" rx="4"/>
<circle cx="750" cy="210" r="2.0" fill="#334155" opacity="0.50"/>
<line x1="750" y1="210" x2="810" y2="210" stroke="#1e293b" stroke-width="1.0" opacity="0.40"/>
<rect x="722" y="242" width="56" height="56" fill="none" stroke="#1e293b" stroke-width="1" rx="4"/>
<circle cx="750" cy="270" r="2.0" fill="#334155" opacity="0.50"/>
<line x1="750" y1="270" x2="810" y2="270" stroke="#1e293b" stroke-width="1.0" opacity="0.40"/>
<line x1="750" y1="270" x2="750" y2="330" stroke="#1e293b" stroke-width="1.0" opacity="0.40"/>
<rect x="782" y="2" width="56" height="56" fill="none" stroke="#1e293b" stroke-width="1" rx="4"/>
<circle cx="810" cy="30" r="2.0" fill="#334155" opacity="0.50"/>
<line x1="810" y1="30" x2="810" y2="90" stroke="#1e293b" stroke-width="1.0" opacity="0.40"/>
<rect x="782" y="62" width="56" height="56" fill="none" stroke="#1e293b" stroke-width="1" rx="4"/>
<circle cx="810" cy="90" r="2.0" fill="#334155" opacity="0.50"/>
<rect x="782" y="122" width="56" height="56" fill="none" stroke="#1e293b" stroke-width="1" rx="4"/>
<circle cx="810" cy="150" r="2.0" fill="#334155" opacity="0.50"/>
<line x1="810" y1="150" x2="810" y2="210" stroke="#1e293b" stroke-width="1.0" opacity="0.40"/>
<rect x="782" y="182" width="56" height="56" fill="none" stroke="#1e293b" stroke-width="1" rx="4"/>
<circle cx="810" cy="210" r="2.0" fill="#334155" opacity="0.50"/>
<rect x="782" y="242" width="56" height="56" fill="none" stroke="#1e293b" stroke-width="1" rx="4"/>
<circle cx="810" cy="270" r="2.0" fill="#334155" opacity="0.50"/>
<line x1="810" y1="270" x2="810" y2="330" stroke="#1e293b" stroke-width="1.0" opacity="0.40"/>
<circle cx="400" cy="148" r="95" fill="none" stroke="#FF6600" stroke-width="1" opacity="0.15"/>
<circle cx="400" cy="148" r="110" fill="none" stroke="#FF6600" stroke-width="0.5" opacity="0.08"/>
<polygon points="400,68 470,108 470,188 400,228 330,188 330,108" fill="#1e293b" stroke="#FF6600" stroke-width="2.5" opacity="0.9"/>
<polygon points="400,90 450,119 450,177 400,206 350,177 350,119" fill="none" stroke="#FF6600" stroke-width="1" opacity="0.5"/>
<rect x="386" y="142" width="28" height="24" fill="#0f172a" stroke="#FF6600" stroke-width="2" rx="3"/>
<path d="M 390 142 Q 390 126 400 126" stroke="#FF6600" stroke-width="2.0" fill="none"/>
<path d="M 410 142 Q 410 126 400 126" stroke="#FF6600" stroke-width="2.0" fill="none"/>
<circle cx="400" cy="154" r="4.0" fill="#FF6600"/>
<line x1="400" y1="158" x2="400" y2="164" stroke="#FF6600" stroke-width="2.0"/>
<text x="378" y="203" font-family="monospace" font-size="9" fill="#FF6600" font-weight="bold">ZERO-TRUST</text>
<circle cx="400" cy="148" r="155" fill="none" stroke="#FF6600" stroke-width="1" stroke-dasharray="8,4" opacity="0.4"/>
<text x="559" y="152" font-family="monospace" font-size="7" fill="#FF6600">IDENTITY PERIMETER</text>
<circle cx="400" cy="148" r="215" fill="none" stroke="#94a3b8" stroke-width="1" stroke-dasharray="8,4" opacity="0.4"/>
<text x="619" y="152" font-family="monospace" font-size="7" fill="#94a3b8">NETWORK SEGMENT</text>
<circle cx="400" cy="148" r="270" fill="none" stroke="#3b82f6" stroke-width="1" stroke-dasharray="8,4" opacity="0.4"/>
<text x="674" y="152" font-family="monospace" font-size="7" fill="#3b82f6">DATA LAYER</text>
<rect x="170" y="44" width="60" height="28" fill="#0f172a" stroke="#22c55e" stroke-width="1.5" rx="3"/>
<text x="176" y="58" font-family="monospace" font-size="8" fill="#22c55e">USER-01</text>
<text x="176" y="69" font-family="monospace" font-size="7" fill="#22c55e">VERIFIED</text>
<line x1="200" y1="72" x2="400" y2="68" stroke="#22c55e" stroke-width="1.0" opacity="0.30"/>
<rect x="530" y="34" width="60" height="28" fill="#0f172a" stroke="#22c55e" stroke-width="1.5" rx="3"/>
<text x="536" y="48" font-family="monospace" font-size="8" fill="#22c55e">USER-02</text>
<text x="536" y="59" font-family="monospace" font-size="7" fill="#22c55e">VERIFIED</text>
<line x1="560" y1="62" x2="400" y2="68" stroke="#22c55e" stroke-width="1.0" opacity="0.30"/>
<rect x="150" y="194" width="60" height="28" fill="#0f172a" stroke="#22c55e" stroke-width="1.5" rx="3"/>
<text x="156" y="208" font-family="monospace" font-size="8" fill="#22c55e">SVC-API</text>
<text x="156" y="219" font-family="monospace" font-size="7" fill="#22c55e">VERIFIED</text>
<line x1="180" y1="222" x2="400" y2="68" stroke="#22c55e" stroke-width="1.0" opacity="0.30"/>
<rect x="550" y="214" width="60" height="28" fill="#0f172a" stroke="#22c55e" stroke-width="1.5" rx="3"/>
<text x="556" y="228" font-family="monospace" font-size="8" fill="#22c55e">DB-RO</text>
<text x="556" y="239" font-family="monospace" font-size="7" fill="#22c55e">VERIFIED</text>
<line x1="580" y1="242" x2="400" y2="68" stroke="#22c55e" stroke-width="1.0" opacity="0.30"/>
<rect x="370" y="-46" width="60" height="28" fill="#0f172a" stroke="#22c55e" stroke-width="1.5" rx="3"/>
<text x="376" y="-32" font-family="monospace" font-size="8" fill="#22c55e">ADMIN-01</text>
<text x="376" y="-21" font-family="monospace" font-size="7" fill="#22c55e">VERIFIED</text>
<line x1="400" y1="-18" x2="400" y2="68" stroke="#22c55e" stroke-width="1.0" opacity="0.30"/>
<rect x="50" y="134" width="60" height="28" fill="#2d1a0a" stroke="#FF6600" stroke-width="1.5" rx="3"/>
<text x="56" y="148" font-family="monospace" font-size="8" fill="#FF6600">BOT-NET</text>
<text x="56" y="159" font-family="monospace" font-size="7" fill="#FF6600">DENIED</text>
<line x1="80" y1="148" x2="240" y2="148" stroke="#FF6600" stroke-width="1.0" opacity="0.30"/>
<line x1="235" y1="143" x2="245" y2="153" stroke="#FF6600" stroke-width="1.5" opacity="0.70"/>
<line x1="235" y1="153" x2="245" y2="143" stroke="#FF6600" stroke-width="1.5" opacity="0.70"/>
<rect x="650" y="94" width="60" height="28" fill="#2d1a0a" stroke="#FF6600" stroke-width="1.5" rx="3"/>
<text x="656" y="108" font-family="monospace" font-size="8" fill="#FF6600">CRAWLER</text>
<text x="656" y="119" font-family="monospace" font-size="7" fill="#FF6600">DENIED</text>
<line x1="680" y1="108" x2="540" y2="128" stroke="#FF6600" stroke-width="1.0" opacity="0.30"/>
<line x1="535" y1="123" x2="545" y2="133" stroke="#FF6600" stroke-width="1.5" opacity="0.70"/>
<line x1="535" y1="133" x2="545" y2="123" stroke="#FF6600" stroke-width="1.5" opacity="0.70"/>
<rect x="370" y="334" width="60" height="28" fill="#2d1a0a" stroke="#FF6600" stroke-width="1.5" rx="3"/>
<text x="376" y="348" font-family="monospace" font-size="8" fill="#FF6600">INT-SVC</text>
<text x="376" y="359" font-family="monospace" font-size="7" fill="#FF6600">UNVERIFIED</text>
<line x1="400" y1="348" x2="400" y2="248" stroke="#FF6600" stroke-width="1.0" opacity="0.30"/>
<line x1="395" y1="243" x2="405" y2="253" stroke="#FF6600" stroke-width="1.5" opacity="0.70"/>
<line x1="395" y1="253" x2="405" y2="243" stroke="#FF6600" stroke-width="1.5" opacity="0.70"/>
<rect x="10" y="10" width="180" height="90" fill="#0f172a" stroke="#334155" stroke-width="1" rx="2" opacity="0.90"/>
<text x="18" y="27" font-family="monospace" font-size="9" fill="#e2e8f0" font-weight="bold">ZERO-TRUST PRINCIPLES</text>
<line x1="18" y1="31" x2="182" y2="31" stroke="#334155" stroke-width="1.0" opacity="0.40"/>
<text x="18" y="44" font-family="monospace" font-size="8" fill="#22c55e">[1] Verify every identity</text>
<text x="18" y="57" font-family="monospace" font-size="8" fill="#22c55e">[2] Least-privilege access</text>
<text x="18" y="70" font-family="monospace" font-size="8" fill="#FF6600">[3] Assume breach always</text>
<text x="18" y="83" font-family="monospace" font-size="8" fill="#22c55e">[4] Inspect all traffic</text>
<text x="18" y="96" font-family="monospace" font-size="8" fill="#22c55e">[5] Micro-segmentation</text>
<rect x="608" y="10" width="180" height="90" fill="#0f172a" stroke="#334155" stroke-width="1" rx="2" opacity="0.90"/>
<text x="616" y="27" font-family="monospace" font-size="9" fill="#e2e8f0" font-weight="bold">POSTURE SCORE</text>
<line x1="616" y1="31" x2="780" y2="31" stroke="#334155" stroke-width="1.0" opacity="0.40"/>
<text x="616" y="47" font-family="monospace" font-size="8" fill="#22c55e">IDENTITY:  98%</text>
<text x="616" y="60" font-family="monospace" font-size="8" fill="#22c55e">DEVICE:    87%</text>
<text x="616" y="73" font-family="monospace" font-size="8" fill="#FF6600">NETWORK:   74%</text>
<text x="616" y="86" font-family="monospace" font-size="8" fill="#22c55e">APP:       91%</text>
<text x="616" y="97" font-family="monospace" font-size="8" fill="#22c55e" font-weight="bold">OVERALL:   88%</text>
<rect x="10" y="266" width="252" height="22" fill="#0f172a" opacity="0.85"/>
<text x="16" y="281" font-family="monospace" font-size="12" fill="#e2e8f0">ARC 3 CH 4 - ZERO-TRUST SHIELD</text>
</svg>