<svg xmlns="http://www.w3.org/2000/svg" viewBox="0 0 800 300" width="800" height="300">
<rect width="800" height="300" fill="#0f172a"/>
<line x1="0" y1="60" x2="800" y2="60" stroke="#1e293b" stroke-width="1"/>
<line x1="0" y1="120" x2="800" y2="120" stroke="#1e293b" stroke-width="1"/>
<line x1="0" y1="180" x2="800" y2="180" stroke="#1e293b" stroke-width="1"/>
<line x1="0" y1="240" x2="800" y2="240" stroke="#1e293b" stroke-width="1"/>
<line x1="80" y1="0" x2="80" y2="300" stroke="#1e293b" stroke-width="1"/>
<line x1="160" y1="0" x2="160" y2="300" stroke="#1e293b" stroke-width="1"/>
<line x1="240" y1="0" x2="240" y2="300" stroke="#1e293b" stroke-width="1"/>
<line x1="320" y1="0" x2="320" y2="300" stroke="#1e293b" stroke-width="1"/>
<line x1="400" y1="0" x2="400" y2="300" stroke="#1e293b" stroke-width="1"/>
<line x1="480" y1="0" x2="480" y2="300" stroke="#1e293b" stroke-width="1"/>
<line x1="560" y1="0" x2="560" y2="300" stroke="#1e293b" stroke-width="1"/>
<line x1="640" y1="0" x2="640" y2="300" stroke="#1e293b" stroke-width="1"/>
<line x1="720" y1="0" x2="720" y2="300" stroke="#1e293b" stroke-width="1"/>
<rect x="0" y="0" width="800" height="300" fill="none" stroke="#ef4444" stroke-width="3" opacity="0.50"/>
<rect x="3" y="3" width="794" height="294" fill="none" stroke="#ef4444" stroke-width="1" opacity="0.20"/>
<rect x="0" y="0" width="800" height="26" fill="#3d0f0f" opacity="0.97"/>
<text x="10" y="17" font-family="monospace" font-size="10" fill="#ef4444" font-weight="bold">!! CRITICAL - FIREWALL BREACH - ACTIVE INTRUSION IN PROGRESS</text>
<circle cx="778" cy="13" r="5.0" fill="#ef4444"/>
<circle cx="764" cy="13" r="5.0" fill="#ef4444" opacity="0.60"/>
<circle cx="750" cy="13" r="5.0" fill="#ef4444" opacity="0.30"/>
<rect x="15" y="35" width="130" height="220" fill="#200a0a" stroke="#ef4444" stroke-width="1.5" rx="3"/>
<text x="25" y="52" font-family="monospace" font-size="10" fill="#ef4444" font-weight="bold">INTERNET</text>
<text x="25" y="65" font-family="monospace" font-size="9" fill="#ef4444">[HOSTILE]</text>
<rect x="30" y="80" width="100" height="35" fill="#3d0f0f" stroke="#ef4444" stroke-width="1.5" rx="2"/>
<text x="38" y="95" font-family="monospace" font-size="8" fill="#ef4444">45.92.11.33</text>
<text x="38" y="107" font-family="monospace" font-size="8" fill="#ef4444" font-weight="bold">ATTACKER</text>
<circle cx="120" cy="95" r="4.0" fill="#ef4444"/>
<rect x="30" y="126" width="100" height="28" fill="#2d0a0a" stroke="#ef4444" stroke-width="1" rx="2"/>
<text x="38" y="143" font-family="monospace" font-size="8" fill="#ef4444">88.198.2.14</text>
<rect x="30" y="166" width="100" height="28" fill="#2d0a0a" stroke="#ef4444" stroke-width="1" rx="2"/>
<text x="38" y="183" font-family="monospace" font-size="8" fill="#ef4444">103.45.67.2</text>
<rect x="158" y="35" width="82" height="220" fill="#1e293b" stroke="#FF6600" stroke-width="2" rx="2"/>
<text x="166" y="52" font-family="monospace" font-size="9" fill="#FF6600" font-weight="bold">FW-CORE</text>
<rect x="163" y="65" width="70" height="22" fill="#0a2010" stroke="#22c55e" stroke-width="1" rx="1"/>
<text x="167" y="79" font-family="monospace" font-size="8" fill="#22c55e">BLOCK</text>
<rect x="163" y="91" width="70" height="22" fill="#0a2010" stroke="#22c55e" stroke-width="1" rx="1"/>
<text x="167" y="105" font-family="monospace" font-size="8" fill="#22c55e">BLOCK</text>
<rect x="163" y="117" width="70" height="22" fill="#2d0f0f" stroke="#ef4444" stroke-width="1" rx="1"/>
<text x="167" y="131" font-family="monospace" font-size="8" fill="#ef4444" font-weight="bold">PASS</text>
<rect x="163" y="143" width="70" height="22" fill="#0a2010" stroke="#22c55e" stroke-width="1" rx="1"/>
<text x="167" y="157" font-family="monospace" font-size="8" fill="#22c55e">BLOCK</text>
<rect x="163" y="169" width="70" height="22" fill="#0a2010" stroke="#22c55e" stroke-width="1" rx="1"/>
<text x="167" y="183" font-family="monospace" font-size="8" fill="#22c55e">BLOCK</text>
<rect x="163" y="195" width="70" height="22" fill="#2d0f0f" stroke="#ef4444" stroke-width="1" rx="1"/>
<text x="167" y="209" font-family="monospace" font-size="8" fill="#ef4444" font-weight="bold">PASS</text>
<rect x="163" y="221" width="70" height="22" fill="#0a2010" stroke="#22c55e" stroke-width="1" rx="1"/>
<text x="167" y="235" font-family="monospace" font-size="8" fill="#22c55e">BLOCK</text>
<line x1="145" y1="95" x2="158" y2="95" stroke="#ef4444" stroke-width="3.0" opacity="0.90"/>
<path d="M 152 89 L 158 95 L 152 101 Z" stroke="#ef4444" stroke-width="1.5" fill="#ef4444" opacity="0.90"/>
<text x="120" y="85" font-family="monospace" font-size="7" fill="#ef4444" font-weight="bold">BREACH</text>
<text x="120" y="95" font-family="monospace" font-size="7" fill="#ef4444">RULE-3</text>
<rect x="250" y="35" width="140" height="220" fill="#1a110a" stroke="#FF6600" stroke-width="1.5" rx="3"/>
<text x="260" y="52" font-family="monospace" font-size="10" fill="#FF6600" font-weight="bold">DMZ</text>
<text x="260" y="65" font-family="monospace" font-size="9" fill="#FF6600">COMPROMISED</text>
<rect x="260" y="78" width="116" height="40" fill="#2d0f0f" stroke="#ef4444" stroke-width="1.5" rx="2"/>
<text x="266" y="93" font-family="monospace" font-size="9" fill="#ef4444" font-weight="bold">WEB-SRV</text>
<text x="266" y="107" font-family="monospace" font-size="8" fill="#ef4444">INFECTED</text>
<circle cx="366" cy="88" r="4.0" fill="#ef4444"/>
<rect x="260" y="130" width="116" height="40" fill="#2d1a0a" stroke="#FF6600" stroke-width="1.5" rx="2"/>
<text x="266" y="145" font-family="monospace" font-size="9" fill="#FF6600" font-weight="bold">PROXY-01</text>
<text x="266" y="159" font-family="monospace" font-size="8" fill="#FF6600">AT RISK</text>
<circle cx="366" cy="140" r="4.0" fill="#FF6600"/>
<rect x="260" y="182" width="116" height="40" fill="#0f172a" stroke="#94a3b8" stroke-width="1" rx="2"/>
<text x="266" y="197" font-family="monospace" font-size="9" fill="#94a3b8">DNS-01</text>
<text x="266" y="211" font-family="monospace" font-size="8" fill="#94a3b8">NOMINAL</text>
<line x1="390" y1="93" x2="400" y2="93" stroke="#ef4444" stroke-width="2.0" opacity="0.90"/>
<path d="M 394 88 L 400 93 L 394 98 Z" stroke="#ef4444" stroke-width="1.0" fill="#ef4444" opacity="0.90"/>
<text x="368" y="84" font-family="monospace" font-size="7" fill="#ef4444" font-weight="bold">LATERAL</text>
<rect x="400" y="35" width="180" height="220" fill="#1e293b" stroke="#334155" stroke-width="1" rx="3"/>
<text x="410" y="52" font-family="monospace" font-size="10" fill="#e2e8f0" font-weight="bold">INTERNAL NET</text>
<text x="410" y="65" font-family="monospace" font-size="9" fill="#FF6600">UNDER THREAT</text>
<rect x="410" y="78" width="162" height="38" fill="#2d1a0a" stroke="#FF6600" stroke-width="1.5" rx="2"/>
<text x="418" y="93" font-family="monospace" font-size="9" fill="#FF6600" font-weight="bold">DB-CLUSTER</text>
<text x="418" y="107" font-family="monospace" font-size="8" fill="#FF6600">ALERT</text>
<rect x="410" y="126" width="162" height="38" fill="#2d1a0a" stroke="#FF6600" stroke-width="1.5" rx="2"/>
<text x="418" y="141" font-family="monospace" font-size="9" fill="#FF6600" font-weight="bold">APP-SRV-01</text>
<text x="418" y="155" font-family="monospace" font-size="8" fill="#FF6600">ALERT</text>
<rect x="410" y="174" width="162" height="38" fill="#0f172a" stroke="#94a3b8" stroke-width="1" rx="2"/>
<text x="418" y="189" font-family="monospace" font-size="9" fill="#94a3b8">C2-SERVER</text>
<text x="418" y="203" font-family="monospace" font-size="8" fill="#22c55e">ISOLATED</text>
<rect x="410" y="222" width="162" height="28" fill="#0f172a" stroke="#94a3b8" stroke-width="1" rx="2"/>
<text x="418" y="239" font-family="monospace" font-size="9" fill="#94a3b8">BACKUP-SRV</text>
<text x="418" y="249" font-family="monospace" font-size="8" fill="#22c55e">SECURED</text>
<rect x="592" y="35" width="195" height="220" fill="#1e293b" stroke="#ef4444" stroke-width="1.5" rx="2"/>
<text x="602" y="52" font-family="monospace" font-size="11" fill="#ef4444" font-weight="bold">INCIDENT LOG</text>
<line x1="602" y1="56" x2="778" y2="56" stroke="#ef4444" stroke-width="1.0" opacity="0.40"/>
<text x="602" y="70" font-family="monospace" font-size="8" fill="#ef4444">[CRIT] FW rule 3 bypass</text>
<text x="602" y="84" font-family="monospace" font-size="8" fill="#ef4444">[CRIT] WEB-SRV backdoor</text>
<text x="602" y="98" font-family="monospace" font-size="8" fill="#FF6600">[HIGH] Port scan DB tier</text>
<text x="602" y="112" font-family="monospace" font-size="8" fill="#FF6600">[HIGH] Cred dump attempt</text>
<text x="602" y="126" font-family="monospace" font-size="8" fill="#FF6600">[MED]  DNS exfil pattern</text>
<text x="602" y="140" font-family="monospace" font-size="8" fill="#FF6600">[MED]  Lateral C2 traffic</text>
<text x="602" y="154" font-family="monospace" font-size="8" fill="#94a3b8">[INFO] SIEM alert x482</text>
<line x1="602" y1="162" x2="778" y2="162" stroke="#ef4444" stroke-width="1.0" opacity="0.40"/>
<text x="602" y="177" font-family="monospace" font-size="9" fill="#94a3b8">ATTACK VECTOR</text>
<text x="602" y="191" font-family="monospace" font-size="10" fill="#ef4444" font-weight="bold">CVE-2024-4879</text>
<text x="602" y="207" font-family="monospace" font-size="9" fill="#ef4444">APACHE EXPLOIT</text>
<line x1="602" y1="215" x2="778" y2="215" stroke="#ef4444" stroke-width="1.0" opacity="0.40"/>
<text x="602" y="230" font-family="monospace" font-size="10" fill="#ef4444" font-weight="bold">RESP: ISOLATE NOW</text>
<text x="602" y="244" font-family="monospace" font-size="9" fill="#FF6600">CERT NOTIFIED</text>
<text x="602" y="250" font-family="monospace" font-size="9" fill="#FF6600">IOC EXTRACTED</text>
<rect x="10" y="266" width="236" height="22" fill="#0f172a" opacity="0.85"/>
<text x="16" y="281" font-family="monospace" font-size="12" fill="#e2e8f0">ARC 3 CH 2 - FIREWALL BREACH</text>
</svg>