<?xml version="1.0" encoding="UTF-8"?>
<svg id="Layer_2" data-name="Layer 2" xmlns="http://www.w3.org/2000/svg" viewBox="0 0 772.84 681.4">
  <defs>
    <style>
      .cls-1 {
        fill: #5b626f;
      }

      .cls-2 {
        opacity: .3;
      }

      .cls-2, .cls-3 {
        fill: #f60;
      }

      .cls-4 {
        fill: #b7b7b7;
      }

      .cls-5 {
        fill: #fff;
      }

      .cls-6 {
        opacity: .6;
      }
    </style>
  </defs>
  <g id="Layer_3" data-name="Layer 3">
    <g>
      <path class="cls-4" d="M204.95,681.4h-10.33v-39.62h-13.03v-8.57h36.38v8.57h-13.03v39.62Z"/>
      <path class="cls-4" d="M222.63,642.11h23.69v7.56h-13.97v7.56h13.03v7.56h-13.03v8.98h13.97v7.63h-23.69v-39.29Z"/>
      <path class="cls-4" d="M249.43,681.4l13.84-39.49h12.28l13.97,39.49h-10.39l-2.63-8.44h-13.97l-2.63,8.44h-10.46ZM271.97,657.23c-.23-.67-.5-1.56-.81-2.67-.32-1.1-.63-2.24-.95-3.41-.32-1.17-.58-2.16-.81-2.97-.13.81-.36,1.8-.67,2.97-.32,1.17-.63,2.32-.94,3.44-.32,1.12-.56,2-.74,2.63l-2.43,7.9h9.72l-2.36-7.9Z"/>
      <path class="cls-4" d="M338.87,642.11v39.29h-8.91v-18.02c0-1.21.02-2.61.07-4.18.04-1.58.1-3.05.17-4.42.07-1.37.12-2.4.17-3.07h-.2l-9.45,29.7h-9.04l-9.11-29.77h-.27c.09.68.18,1.71.27,3.11.09,1.39.17,2.89.24,4.49.07,1.6.1,3.07.1,4.42v17.75h-8.64v-39.29h13.03l9.11,29.09h.2l9.38-29.09h12.89Z"/>
      <path class="cls-4" d="M382.13,633.2c6.21,0,10.8,1.29,13.77,3.88,2.97,2.59,4.46,6.24,4.46,10.97,0,2.12-.31,4.14-.94,6.08-.63,1.94-1.68,3.68-3.14,5.23-1.46,1.55-3.39,2.77-5.77,3.65-2.39.88-5.31,1.32-8.78,1.32h-4.39v17.08h-10.33v-48.2h15.12ZM381.79,641.64h-4.45v14.18h3.44c1.89,0,3.52-.24,4.89-.71,1.37-.47,2.43-1.26,3.17-2.36.74-1.1,1.11-2.55,1.11-4.35,0-2.16-.66-3.82-1.99-4.99-1.33-1.17-3.39-1.76-6.18-1.76Z"/>
      <path class="cls-4" d="M417.7,641.98v31.25h15.66v8.17h-25.79v-39.42h10.12Z"/>
      <path class="cls-4" d="M435.39,681.4l13.84-39.49h12.29l13.97,39.49h-10.39l-2.63-8.44h-13.97l-2.63,8.44h-10.46ZM457.93,657.23c-.22-.67-.5-1.56-.81-2.67-.32-1.1-.63-2.24-.95-3.41-.32-1.17-.59-2.16-.81-2.97-.13.81-.36,1.8-.68,2.97-.31,1.17-.63,2.32-.94,3.44-.32,1.12-.56,2-.74,2.63l-2.43,7.9h9.72l-2.36-7.9Z"/>
      <path class="cls-4" d="M509.23,641.98l-13.1,24.03v15.39h-10.26v-15.05l-13.09-24.37h11l7.29,15.25,7.22-15.25h10.94Z"/>
      <path class="cls-4" d="M513.96,642.11h23.69v7.56h-13.97v7.56h13.03v7.56h-13.03v8.98h13.97v7.63h-23.69v-39.29Z"/>
      <path class="cls-4" d="M557.97,642.11c5.49,0,9.59.98,12.29,2.94s4.05,4.87,4.05,8.74c0,2.56-.69,4.69-2.06,6.38s-3.09,3.05-5.16,4.08l11.88,17.14h-10.8l-9.25-14.71h-3.71v14.71h-9.72v-39.29h12.49ZM557.56,659.33c2.34,0,4.09-.42,5.26-1.25,1.17-.83,1.76-2.15,1.76-3.95,0-1.58-.56-2.74-1.69-3.51s-2.9-1.15-5.33-1.15h-2.36v9.86h2.36Z"/>
    </g>
    <g>
      <path class="cls-4" d="M242.64,48.4h-10.33V8.77h-13.03V.2h36.38v8.57h-13.03v39.62Z"/>
      <path class="cls-4" d="M294.28,9.11v39.29h-9.72v-16.54h-14.51v16.54h-9.72V9.11h9.72v14.99h14.51v-14.99h9.72Z"/>
      <path class="cls-4" d="M303.8,9.11h23.69v7.56h-13.97v7.56h13.03v7.56h-13.03v8.98h13.97v7.63h-23.69V9.11Z"/>
      <path class="cls-4" d="M383.72,48.4l-3.71-11.34h-17.01l-3.71,11.34h-11.14L365.09,0h12.69l17.08,48.4h-11.14ZM374.27,17.96c-.18-.67-.46-1.69-.84-3.04-.38-1.35-.75-2.73-1.11-4.15-.36-1.42-.65-2.58-.88-3.48-.18,1.04-.44,2.23-.78,3.58-.34,1.35-.66,2.66-.98,3.91-.32,1.26-.58,2.32-.81,3.17l-3.44,10.46h12.22l-3.38-10.46Z"/>
      <path class="cls-4" d="M432.25,46.58c-2.02.67-4.34,1.24-6.95,1.69-2.61.45-5.36.67-8.24.67-3.87,0-7.25-.74-10.12-2.23s-5.13-3.72-6.75-6.72c-1.62-2.99-2.43-6.76-2.43-11.31,0-4.14.8-7.71,2.4-10.7,1.6-2.99,3.95-5.32,7.05-6.99,3.1-1.66,6.93-2.5,11.47-2.5,2.43,0,4.75.24,6.95.71,2.2.47,4.14,1.07,5.8,1.79l-3.24,7.76c-1.44-.72-2.94-1.26-4.49-1.62-1.55-.36-3.23-.54-5.03-.54-2.47,0-4.49.55-6.04,1.65-1.55,1.1-2.69,2.58-3.41,4.42-.72,1.85-1.08,3.89-1.08,6.14,0,3.87.85,6.84,2.56,8.91,1.71,2.07,4.12,3.1,7.22,3.1.72,0,1.56-.05,2.53-.17.97-.11,1.72-.24,2.26-.37v-6.95h-7.49v-7.7h17.01v20.93Z"/>
      <path class="cls-4" d="M438.12,48.4v-5.67l4.86-1.82v-24.44l-4.86-1.75v-5.74h19.91v5.74l-4.86,1.75v24.44l4.86,1.82v5.67h-19.91Z"/>
      <path class="cls-4" d="M474.5,8.98v31.25h15.66v8.17h-25.79V8.98h10.12Z"/>
      <path class="cls-4" d="M496.91,9.11h23.69v7.56h-13.97v7.56h13.03v7.56h-13.03v8.98h13.97v7.63h-23.69V9.11Z"/>
    </g>
    <g id="Decentralized_application" data-name="Decentralized application">
      <g>
        <g>
          <path class="cls-5" d="M65.14,390.93c1.7-15.19,2.47-33.9,5.02-49.26,21.15,1.46,42.29,3.29,63.44,4.39,1.09,2.93,1.46,6.22,2.19,9.14,3.28,10.97,5.57,25.66,8.41,36.51l37.69,183.73,20.73,17.23c.92.53,1.45,1.56,1.36,2.62-.13,1.41-1.3,2.49-2.72,2.49l-57.05.06c-4.81.02-8.94-3.41-9.8-8.14l-23.55-131.08-9.22,120.63,1.77,5.65c1.99,6.36-2.74,12.91-9.4,12.95h-36.1c-6.69.04-11.5-6.29-9.53-12.69l2.17-7.07,14.61-187.18Z"/>
          <path class="cls-1" d="M57.83,598.49c-3.39,0-6.48-1.54-8.49-4.24-1.99-2.67-2.56-6.05-1.57-9.26l2.15-7,14.6-187.11s0-.01,0-.02c.63-5.65,1.13-11.69,1.65-18.08.87-10.6,1.77-21.56,3.37-31.22.05-.32.34-.54.66-.52,7.05.49,14.22,1.02,21.15,1.54,13.86,1.04,28.19,2.11,42.28,2.84.25.01.46.17.55.4.73,1.94,1.14,4.03,1.53,6.04.22,1.11.42,2.15.68,3.17,1.86,6.22,3.41,13.67,4.91,20.88,1.17,5.62,2.27,10.93,3.5,15.62l37.65,183.55,20.52,17.06c1.1.66,1.73,1.91,1.62,3.19-.16,1.73-1.59,3.05-3.33,3.06l-57.06.06s-.04,0-.05,0c-5.1,0-9.45-3.63-10.36-8.65l-22.69-126.29-8.84,115.66,1.73,5.54c1.01,3.24.44,6.68-1.57,9.43-1.99,2.73-5.06,4.31-8.42,4.33h-36.1s-.05,0-.07,0ZM65.76,390.99l-14.6,187.17s-.01.09-.03.13l-2.17,7.07c-.87,2.83-.37,5.8,1.38,8.15,1.77,2.38,4.49,3.73,7.49,3.73.02,0,.04,0,.06,0h36.1c2.95-.02,5.66-1.41,7.42-3.82,1.78-2.43,2.28-5.47,1.39-8.33l-1.77-5.65c-.02-.08-.03-.15-.03-.23l9.22-120.63c.02-.31.28-.56.59-.57.31-.01.59.2.64.51l23.55,131.08c.8,4.43,4.64,7.63,9.14,7.63.02,0,.03,0,.05,0l57.06-.06c1.1,0,2-.83,2.1-1.93.08-.82-.34-1.62-1.05-2.03-.03-.02-.06-.04-.09-.06l-20.73-17.23c-.11-.09-.18-.21-.21-.35l-37.69-183.73c-1.23-4.68-2.33-10.01-3.51-15.65-1.49-7.18-3.04-14.61-4.89-20.8-.27-1.08-.49-2.19-.7-3.26-.36-1.83-.73-3.72-1.34-5.46-13.97-.73-28.17-1.8-41.9-2.82-6.74-.51-13.71-1.03-20.58-1.5-1.54,9.48-2.42,20.19-3.27,30.56-.52,6.39-1.02,12.44-1.65,18.1ZM50.54,578.11h0,0Z"/>
          <path class="cls-1" d="M111.03,456.13s0,0-.01,0c-.34,0-.61-.29-.61-.63.24-11.95,1.47-71.66,2.12-73.29.72-1.79,3.97-3.23,4.34-3.39.32-.14.68.01.81.33.14.32-.01.68-.33.82-1.21.52-3.28,1.72-3.68,2.71-.45,1.76-1.46,44.54-2.03,72.86,0,.34-.28.61-.62.61Z"/>
          <path class="cls-1" d="M139.47,581.84c-.34,0-.67,0-1.01,0-.34,0-.62-.28-.62-.63,0-.34.28-.62.62-.62h0c22.18.18,43.04-5.69,43.25-5.75.33-.09.67.1.77.43.09.33-.1.67-.43.77-.21.06-20.63,5.8-42.59,5.8Z"/>
          <path class="cls-1" d="M80.09,581.82c-17.76,0-29.56-3.06-29.71-3.11-.33-.09-.53-.43-.44-.76.09-.33.43-.53.76-.44.2.05,20.56,5.33,48.1,1.91.34-.04.65.2.69.54.04.34-.2.65-.54.69-6.78.84-13.13,1.16-18.86,1.16Z"/>
        </g>
        <g>
          <path class="cls-3" d="M141.07,326.09s22.38,11.04,29.82,12.79c3.99.94,21.81,4.05,25.35-2.4,3.47-6.33-.37-18.21-15.41-25.72-3.7-6.5-13.16-12.58-22.28-21.23-12.01-11.4-27.6-20.44-46.72-20.04h-15.66c-2.84.48-18.8,2.06-24.58,5.91-3.81,2.53-17.5,12.25-22.69,26.85-9.56,26.85,12.39,62.34,28.39,62.73,8.04.2,21.05-8.31,21.05-8.31,12.71,1.7,37.1,1.2,39.15-1.99,1.37-2.13,2.88-23.03,3.07-25.05l.53-3.52Z"/>
          <g>
            <polygon class="cls-1" points="141.21 343.55 175.36 343.55 196.18 291.91 162.03 291.91 141.21 343.55"/>
            <g>
              <path class="cls-5" d="M179.36,333.46l-1.53,4.57s4.61-.03,7.19-5.74c1.72-3.79,4.83-11.48,6.73-16.22,1.01-2.51.39-5.39-1.58-7.25-2.68-2.54-6.47-5.72-8.99-6.12-4.27-.68-.9,4.3,1.51,6.91,0,0-4.87-4.25-6.6-1.84-2.59,3.61,6.63,6.08,7.08,11.72,0,0-8.35-9.21-9.75-5.84-1.35,3.27,4.96,6.59,6.36,10.8,0,0-4.96-6.62-7.56-4.13-2.42,2.32,6.38,9.12,7.13,13.12Z"/>
              <path class="cls-1" d="M179.36,334.09c-.29,0-.55-.21-.61-.51-.3-1.58-2.08-3.77-3.8-5.9-2.54-3.12-4.93-6.07-3.15-7.79.57-.55,1.26-.79,2.06-.72.62.05,1.25.29,1.88.64-1.97-2.15-3.79-4.18-2.88-6.38.32-.77.89-1.02,1.32-1.1,1.94-.34,5.26,2.52,7.46,4.68-.86-1.32-2.17-2.46-3.38-3.51-2.13-1.85-4.33-3.76-2.67-6.08.4-.56.98-.9,1.68-.98.81-.09,1.73.17,2.59.57-.95-1.46-1.69-3.1-1.14-4.13.39-.73,1.25-.99,2.57-.78,2.14.34,5.28,2.46,9.32,6.28,2.16,2.05,2.84,5.16,1.73,7.93l-.63,1.57c-.13.32-.49.47-.81.34-.32-.13-.47-.49-.34-.81l.63-1.57c.92-2.3.36-4.88-1.43-6.57-3.75-3.55-6.83-5.66-8.66-5.96-.82-.13-1.2-.01-1.28.14-.34.63.95,3.14,3.34,5.74.22.24.22.62-.01.85-.23.24-.61.25-.85.04-.84-.73-3.36-2.59-4.88-2.41-.35.04-.61.19-.81.47-.91,1.26.06,2.31,2.47,4.41,2.1,1.83,4.49,3.9,4.73,6.9.02.26-.13.51-.37.62-.24.11-.53.04-.71-.15-2.54-2.8-6.82-6.63-8.33-6.37-.13.02-.27.08-.38.35-.62,1.5.93,3.19,2.72,5.14,1.48,1.62,3.01,3.29,3.65,5.23.1.29-.03.6-.3.75-.27.14-.6.07-.78-.18-.88-1.18-3.6-4.28-5.53-4.43-.43-.04-.79.09-1.1.38-.96.92,1.28,3.68,3.25,6.11,1.82,2.24,3.7,4.56,4.06,6.45.06.34-.16.66-.5.72-.04,0-.08.01-.12.01Z"/>
              <path class="cls-1" d="M187.52,314.52c-.15,0-.29-.05-.41-.16l-4.82-4.27c-.26-.23-.28-.62-.05-.88.23-.26.62-.28.88-.05l4.82,4.27c.26.23.28.62.05.88-.12.14-.29.21-.46.21Z"/>
            </g>
          </g>
          <g>
            <path class="cls-1" d="M75.74,334.65c-.2,0-.4-.1-.52-.28-.19-.29-.1-.67.19-.86,6.9-4.44,13.78-9.14,20.44-13.97.28-.2.67-.14.87.14.2.28.14.67-.14.87-6.68,4.84-13.57,9.55-20.5,14.01-.1.07-.22.1-.34.1Z"/>
            <path class="cls-1" d="M99.56,356.46c-.19,0-.38-.09-.5-.25-.2-.28-.14-.66.13-.87,5.31-3.92,9.23-8.15,11.83-10.96.53-.58,1.02-1.1,1.46-1.56.24-.25.63-.26.88-.02.25.24.26.63.02.88-.43.45-.91.97-1.44,1.54-2.63,2.84-6.59,7.13-12,11.11-.11.08-.24.12-.37.12Z"/>
            <g>
              <path class="cls-5" d="M114.13,341.72s12.22-13.56,15.16-18.82c0,0,10.93-3.6,14.18-5.17,0,0,4.29,1.85,5.24-.96.95-2.81-.94-3.74-.94-3.74,0,0,2.44-3.83-1.67-5.23,0,0,3.29-3.21-1.26-4.18,0,0,1.77-1.67,4.63-2.8,3.43-1.36,8.09-2.35,8.38-4.13.19-1.14-.89-2.24-4.6-2.26-5.76-.02-15.16,2.26-19.79,4.06-5.36,2.09-35.12,20.25-35.12,20.25,0,0-.28,13.77,15.78,22.97Z"/>
              <path class="cls-1" d="M128.59,323.65c-1.44,0-2.86-.42-4.06-1.22-.29-.19-.36-.57-.18-.86.19-.29.57-.36.86-.18,1.12.74,2.48,1.09,3.82,1,.35-.03.64.23.66.57.02.34-.23.64-.57.66-.18.01-.35.02-.53.02Z"/>
              <path class="cls-1" d="M142.72,318.59c-.23,0-.45-.13-.56-.35-.15-.31-.02-.68.29-.83l2.54-1.22c.31-.15.68-.02.83.29.15.31.02.68-.29.83l-2.54,1.22c-.09.04-.18.06-.27.06Z"/>
              <path class="cls-1" d="M147.83,313.71c-.09,0-.19-.02-.27-.06-.77-.38-1.69-.47-2.52-.24-.33.09-.67-.1-.76-.43-.09-.33.1-.67.43-.76,1.12-.31,2.36-.19,3.4.32.31.15.43.52.28.83-.11.22-.33.35-.56.35Z"/>
              <path class="cls-1" d="M143.42,308.71c-.29,0-.55-.2-.61-.49-.07-.34.15-.66.48-.73,1.03-.21,2.08-.25,3.13-.12.34.04.58.35.54.7-.04.34-.34.58-.7.54-.91-.12-1.82-.08-2.72.1-.04,0-.08.01-.13.01Z"/>
              <path class="cls-1" d="M142.15,304.36c-.34,0-.62-.28-.62-.62s.28-.62.62-.62h3.23c.34,0,.62.28.62.62,0,.34-.28.62-.62.62h-3.23Z"/>
            </g>
          </g>
          <g class="cls-6">
            <path class="cls-1" d="M187.52,314.52c-.15,0-.29-.05-.41-.16l-4.82-4.27c-.26-.23-.28-.62-.05-.88.23-.26.62-.28.88-.05l4.82,4.27c.26.23.28.62.05.88-.12.14-.29.21-.46.21Z"/>
          </g>
          <path class="cls-1" d="M86.42,327.37c-.21,0-.42-.11-.54-.31-.07-.11-6.69-11.49-9.14-18.1-.12-.32.04-.68.37-.8.32-.12.68.04.8.37,2.42,6.51,8.98,17.79,9.05,17.91.17.3.07.68-.22.85-.1.06-.21.08-.31.08Z"/>
        </g>
        <g>
          <path class="cls-1" d="M119.02,226c-.4-1.84-1.2-3.59-2.37-5.07-1.3-1.65-3.18-3.03-5.04-3.99-3.82-1.97-8.68-1.96-12.73-.74-3.89,1.17-7.37,3.57-9.9,6.74-1.25,1.57-2.38,3.32-3.02,5.23-.34,1.02-.43,2.06-.39,3.13.03.85.18,1.91-.35,2.65-.52.74-1.48,1.07-2.07,1.75-.62.72-.93,1.61-1.05,2.55-.24,1.81.11,3.75.57,5.5.9,3.47,3.26,9.33,6.01,11.67,1.49,1.27,3.18,2.19,5.05,2.77,1.11.34,2.25.58,3.39.82,1.02.21,2.05.41,3.1.43.65.01,1.28-.06,1.9-.22,2.24.05,2.12-5.32,3.09-6.79,1.14-1.74,2.87-3.08,4.3-4.57,2.99-3.09,5.87-6.5,7.78-10.39,1.75-3.56,2.58-7.55,1.72-11.47Z"/>
          <path class="cls-5" d="M96.2,253.24v16.19l16.18,16.83-.83-25.41s-11.28-8.68-15.35-7.61Z"/>
          <path class="cls-1" d="M111.8,269.32c-.33,0-.61-.26-.62-.6l-.25-7.55c-3.1-2.35-10.81-7.59-14.11-7.4v14.42c0,.34-.28.62-.62.62s-.62-.28-.62-.62v-14.95c0-.28.19-.53.46-.6,4.24-1.12,14.7,6.81,15.88,7.72.15.11.24.29.24.47l.26,7.85c.01.34-.26.63-.6.64,0,0-.01,0-.02,0Z"/>
          <g>
            <path class="cls-5" d="M97.85,243.17c-.2-1.75-1.08-3.34-1.94-4.88,7.4-1.8,9.5-5.49,14.49-7.79,2.75-1.27,6.03.27,6.72,3.23.45,1.94,1.1,3.84,1.78,5.71,1.35,3.73,2.84,7.51,3.02,11.47.18,3.97-1.2,8.26-4.5,10.47-1.9,1.27-4.25,1.74-6.54,1.77-4.41.06-9.03-1.55-11.72-5.04-.57-.74-3.07-3.11-3.07-3.11,0,0-2.5.49-5.82-1.91-2.07-1.5-2.85-3.69-1.62-5.88.52-.93,1.42-1.62,2.45-1.88,2.14-.54,2.98,1.1,4.77,1.55,1.81.45,2.12-2.42,1.98-3.69Z"/>
            <path class="cls-1" d="M110.6,263.77c-4.94,0-9.39-1.97-11.95-5.29-.4-.52-2-2.07-2.8-2.84-.84.06-3.14-.01-5.96-2.06-2.43-1.76-3.12-4.33-1.79-6.69.6-1.08,1.64-1.87,2.84-2.18,1.59-.4,2.62.23,3.52.79.5.31.98.61,1.55.75.31.08.47-.01.58-.11.56-.5.73-2.03.64-2.91-.19-1.65-1.08-3.24-1.86-4.65-.1-.17-.11-.37-.03-.55.08-.18.23-.31.42-.36,4.48-1.09,6.99-2.91,9.41-4.66,1.49-1.08,3.03-2.19,4.97-3.09,1.51-.69,3.22-.67,4.72.06,1.46.72,2.5,2.02,2.86,3.59.45,1.93,1.11,3.85,1.76,5.64l.32.87c1.26,3.46,2.57,7.03,2.74,10.79.17,3.67-1,8.48-4.78,11.01-1.8,1.2-4.11,1.83-6.88,1.87-.09,0-.18,0-.27,0ZM96.08,254.37c.16,0,.31.06.43.17.26.25,2.56,2.43,3.14,3.18,2.37,3.07,6.59,4.87,11.22,4.8,2.52-.04,4.61-.6,6.21-1.66,3.35-2.24,4.38-6.59,4.23-9.92-.16-3.56-1.44-7.05-2.67-10.42l-.32-.87c-.66-1.82-1.34-3.78-1.8-5.78-.28-1.2-1.08-2.21-2.2-2.76-1.15-.57-2.48-.58-3.65-.05-1.83.84-3.25,1.87-4.76,2.96-2.38,1.72-4.83,3.5-9.06,4.66.73,1.33,1.44,2.8,1.62,4.41.09.77.07,3-1.05,3.98-.47.41-1.05.54-1.7.38-.77-.19-1.37-.57-1.91-.9-.83-.51-1.47-.92-2.56-.65-.87.22-1.63.8-2.07,1.58-1.02,1.82-.5,3.67,1.44,5.08,3.06,2.22,5.31,1.81,5.33,1.81.04,0,.08-.01.12-.01Z"/>
          </g>
          <path class="cls-1" d="M95.88,253.56c-.27,0-.51-.17-.59-.44-.39-1.3-1.85-2.18-3.18-1.94-.34.06-.66-.16-.72-.5-.06-.34.16-.66.5-.72,1.96-.36,4.02.89,4.6,2.8.1.33-.09.67-.41.77-.06.02-.12.03-.18.03Z"/>
          <path class="cls-1" d="M106.82,250.78c-.95,0-1.91-.3-2.79-.88-1.25-.82-2.19-2.13-2.65-3.67-.46-1.54-.39-3.15.21-4.53.61-1.41,1.7-2.41,3.06-2.82,1.36-.4,2.81-.16,4.1.69,1.25.82,2.19,2.13,2.65,3.67.46,1.54.39,3.15-.21,4.53-.61,1.41-1.7,2.41-3.06,2.82-.43.13-.87.19-1.31.19ZM105.94,239.94c-.32,0-.64.05-.95.14-1,.3-1.81,1.05-2.27,2.12-.48,1.11-.54,2.41-.16,3.68.38,1.26,1.14,2.33,2.15,2.99.97.64,2.06.83,3.06.53,1-.3,1.81-1.05,2.27-2.12.48-1.11.54-2.41.16-3.68h0c-.38-1.26-1.14-2.33-2.15-2.99-.67-.44-1.4-.67-2.11-.67Z"/>
          <g>
            <path class="cls-5" d="M122.01,238.72c.86,2.9-.41,5.85-2.85,6.57-2.44.73-5.12-1.04-5.98-3.94-.87-2.9.41-5.85,2.85-6.57,2.44-.73,5.12,1.04,5.98,3.94Z"/>
            <path class="cls-1" d="M118.04,246.08c-2.36,0-4.65-1.82-5.46-4.55-.96-3.23.51-6.52,3.27-7.35,2.76-.82,5.79,1.13,6.75,4.36.46,1.54.39,3.15-.21,4.53-.61,1.41-1.7,2.41-3.06,2.82-.43.13-.86.19-1.29.19ZM117.15,235.24c-.32,0-.63.04-.95.14-2.11.63-3.2,3.23-2.43,5.8.77,2.57,3.1,4.15,5.21,3.52,1-.3,1.81-1.05,2.27-2.12.48-1.11.54-2.41.16-3.68-.65-2.19-2.45-3.66-4.26-3.66Z"/>
          </g>
          <path class="cls-1" d="M110.97,243.9c-.06,0-.12,0-.17-.03-.33-.1-.52-.44-.42-.77.38-1.3,1.82-2.17,3.15-1.9.34.07.55.4.49.73-.07.34-.39.55-.73.49-.7-.14-1.51.35-1.71,1.03-.08.27-.33.45-.6.45Z"/>
          <path class="cls-1" d="M96.19,247.41c-.29,0-.54-.2-.61-.49-.07-.33.14-.67.47-.74l5.5-1.2c.33-.07.67.14.74.47.07.33-.14.67-.47.74l-5.5,1.2s-.09.01-.13.01Z"/>
        </g>
      </g>
      <g>
        <g>
          <g>
            <path class="cls-5" d="M699.06,451.62c-.77.15,7.94-51.08-18.19-85.63l-52.1-10.6-64.23,224.34-7.54,9.14c-2.96,3.59-.41,9,4.24,9h49.18c6.46,0,12.02-4.53,13.33-10.85l22.66-109.36-7.52,101.95-7.94,9.17c-3.08,3.56-.55,9.1,4.16,9.1h46.32c7.36,0,13.39-5.85,13.61-13.21l4.02-133.04Z"/>
            <path class="cls-1" d="M681.43,598.49h-46.32c-2.43,0-4.56-1.37-5.57-3.58-1.01-2.21-.65-4.72.94-6.55l7.8-9.01,6.81-92.29-20.74,100.08c-1.36,6.58-7.23,11.35-13.94,11.35h-49.18c-2.39,0-4.52-1.35-5.54-3.51-1.02-2.17-.71-4.66.82-6.51l7.46-9.04,64.2-224.21c.09-.31.4-.5.72-.44l52.1,10.6c.15.03.28.11.37.23,15.02,19.86,21.22,47.89,18.42,83.31-.09,1.13-.17,2.12-.16,2.45.04.08.05.17.05.26l-4.02,133.04c-.23,7.74-6.49,13.81-14.23,13.81ZM646.41,477.03s.06,0,.09,0c.32.05.56.33.53.66l-7.52,101.95c0,.13-.06.26-.15.36l-7.94,9.17c-1.27,1.46-1.55,3.46-.75,5.22.8,1.76,2.5,2.85,4.44,2.85h46.32c7.07,0,12.78-5.54,12.99-12.6l4.01-132.85c-.09-.31-.04-.96.12-2.97,2.76-35-3.31-62.68-18.04-82.28l-51.31-10.44-64.07,223.79c-.02.08-.06.16-.12.22l-7.55,9.14c-1.22,1.47-1.46,3.46-.65,5.19.81,1.73,2.5,2.8,4.41,2.8h49.18c6.13,0,11.48-4.36,12.73-10.36l22.66-109.36c.06-.29.32-.49.61-.49Z"/>
          </g>
          <path class="cls-1" d="M691.29,584.19c-.06,0-.11,0-.17-.02-.24-.07-24.09-6.64-48.07-4.76-.34.03-.64-.23-.67-.57-.03-.34.23-.64.57-.67,24.21-1.9,48.26,4.73,48.5,4.8.33.09.52.44.43.77-.08.27-.33.45-.6.45Z"/>
          <path class="cls-1" d="M619.1,588.5c-.06,0-.13-.01-.2-.03-.26-.09-25.99-8.56-49.5-7.62-.35,0-.63-.25-.65-.6-.01-.34.25-.63.6-.65,23.75-.95,49.68,7.59,49.94,7.68.32.11.5.46.39.79-.09.26-.33.42-.59.42Z"/>
          <path class="cls-1" d="M646.35,478.54s-.02,0-.04,0c-.34-.02-.6-.31-.58-.66l4.02-68.02c.24-3.89-1.88-7.51-5.27-9l-5.56-2.45c-.31-.14-.46-.5-.32-.82.14-.31.5-.46.82-.32l5.56,2.45c3.86,1.7,6.28,5.81,6.01,10.21l-4.02,68.02c-.02.33-.29.58-.62.58Z"/>
        </g>
        <path class="cls-1" d="M732.78,296.24c-1.58-5.07-5.77-8.93-10.09-11.77-4.56-3-9.82-5-15.22-5.78-.85-.12-1.7-.21-2.55-.28.65-3.67-.53-7.51-2.79-10.46-2.74-3.58-6.98-5.68-11.33-6.6-5-1.05-10.11-.63-15.13-.07-1.18.13-2.39.36-3.58.36-.26,0-.73.02-.88-.25-.19-.31.09-.87.2-1.17.4-1.04.89-2.05,1.24-3.11.37-1.14.64-2.3.83-3.48.73-4.69.15-9.48-1.8-13.81-1.76-3.93-4.82-7.46-8.96-8.93-2.07-.74-4.38-.89-6.53-.39-1.04.24-2.05.67-2.95,1.24-.68.43-1.64,1.36-2.52,1.15-.86-.2-1.52-1.12-2.18-1.64-.8-.64-1.7-1.13-2.71-1.36-2.03-.47-4.22-.06-6.01.99-3.8,2.25-5.22,7.04-5.15,11.22.08,4.35,1.7,8.59,4.45,11.95.66.81,1.39,1.55,2.18,2.23.49.42,1.07.38,1.51.11,1.14,7.29,5.79,13.89,12.21,17.53,1.74.99,3.62,1.74,5.56,2.24-.82,9.35,1.28,18.85,5.62,27.15,4.53,8.65,11.74,16.4,20.59,20.72,4.92,2.4,10.3,3.07,15.7,2.3,5.27-.76,10.32-2.84,14.88-5.54,8.11-4.82,18.74-13.83,15.41-24.54Z"/>
        <g>
          <g>
            <path class="cls-5" d="M663.23,261.06l11.59,23.46,4.75.38s-18.21,20.32-29.3,19.61c-11.1-.72-9.03-13.28-.76-17.18l5.93-.91-7.54-20.3,15.35-5.07Z"/>
            <path class="cls-1" d="M655.88,288.75c-.25,0-.49-.16-.58-.41l-7.99-21.99c-.06-.16-.05-.33.02-.48.07-.15.2-.27.36-.32l15.35-5.07c.29-.1.61.04.75.31l11.16,22.59c.15.31.03.68-.28.83-.31.15-.68.03-.83-.28l-10.92-22.1-14.23,4.7,7.77,21.39c.12.32-.05.68-.37.8-.07.03-.14.04-.21.04Z"/>
            <path class="cls-1" d="M650.59,287.79c-.3,0-.57-.22-.61-.53-.05-.34.18-.66.52-.71l4.4-.67c.33-.05.66.18.71.52.05.34-.18.66-.52.71l-4.4.67s-.06,0-.09,0Z"/>
          </g>
          <g>
            <g>
              <path class="cls-5" d="M640.13,252.72c-.56,3.05-.57,6.26.46,9.18,1.03,2.92,3.2,5.53,6.09,6.63,2.51.96,5.38.73,7.86-.31,2.48-1.04,4.59-2.82,6.31-4.89,2.65.94,5.87-.16,7.4-2.52.88-1.36,1.19-3.17.47-4.62-.72-1.45-2.61-2.32-4.07-1.63-.84.39-1.43,1.2-2.28,1.56-.95.4-2.08.16-2.93-.41-.85-.57-1.47-1.44-1.96-2.35-1.54-2.85-2-6.27-1.27-9.43-.07.3-1.66.75-1.94.84-.71.24-1.44.42-2.18.53-1.46.23-2.96.21-4.42-.04-.74-.13-1.47-.32-2.18-.57-.56-.2-1.29-.73-1.89-.74-1.25-.01-1.62,2.27-1.93,3.15-.63,1.83-1.18,3.7-1.53,5.6Z"/>
              <path class="cls-1" d="M650.09,269.76c-1.27,0-2.5-.21-3.63-.65-2.89-1.1-5.3-3.72-6.46-7.01-.97-2.75-1.13-5.95-.48-9.5.31-1.68.8-3.49,1.56-5.69.05-.14.1-.33.16-.53.32-1.14.85-3.04,2.34-3.04h.02c.53,0,1.06.27,1.53.51.21.11.41.21.57.26.67.24,1.36.42,2.08.54,1.4.24,2.82.26,4.22.04.71-.11,1.41-.28,2.08-.51l.2-.06c.92-.29,1.28-.44,1.41-.53.14-.21.4-.33.66-.27.33.08.54.41.46.75-.7,3-.26,6.28,1.21,9,.55,1.02,1.11,1.69,1.76,2.13.76.51,1.66.64,2.35.35.36-.15.69-.42,1.03-.71.37-.3.75-.62,1.22-.84,1.7-.81,3.99.09,4.9,1.92.77,1.56.58,3.56-.51,5.24-1.61,2.5-4.86,3.69-7.71,2.9-1.91,2.21-4.02,3.8-6.28,4.74-1.53.64-3.13.96-4.69.96ZM643.58,244.59c-.56,0-.96,1.44-1.15,2.13-.06.23-.12.44-.18.6-.73,2.14-1.21,3.89-1.51,5.51-.61,3.33-.47,6.31.43,8.86,1.04,2.94,3.18,5.28,5.73,6.26,2.22.85,4.91.74,7.4-.3,2.18-.91,4.22-2.5,6.07-4.71.17-.2.44-.27.68-.19,2.37.84,5.3-.15,6.67-2.27.83-1.29,1-2.86.44-4.01-.6-1.22-2.16-1.86-3.25-1.34-.33.16-.64.41-.96.68-.4.33-.81.67-1.34.89-1.07.45-2.42.27-3.52-.47-.82-.55-1.51-1.37-2.16-2.57-1.4-2.6-1.95-5.66-1.56-8.59-.21.07-.45.15-.73.24l-.17.06c-.74.25-1.51.44-2.29.56-1.53.24-3.09.22-4.62-.04-.78-.14-1.55-.34-2.28-.6-.23-.08-.48-.21-.71-.33-.34-.17-.73-.37-.98-.38h0ZM640.13,252.72h0,0ZM655.6,243.8h0s0,0,0,0Z"/>
            </g>
            <path class="cls-1" d="M661.73,261.18c-.09,0-.18-.02-.26-.06-.31-.15-.44-.52-.3-.83.73-1.56,2.44-2.6,4.18-2.51.34.02.61.31.59.65-.02.34-.32.6-.65.59-1.23-.06-2.47.69-2.99,1.8-.11.23-.33.36-.56.36Z"/>
          </g>
        </g>
        <g>
          <path class="cls-3" d="M702.41,378.58c11.83,2,14.94-4.35,17.54-9.89,6.11-13.03-10.92-38.19-10.96-52.58-.02-7.13-.91-14.64-5.08-20.43-4.51-6.26-12.23-9.52-19.87-10.67-3.08-.46-6.34-.61-9.18.67-3.68,1.66-5.93,5.36-8.71,8.3-3.23,3.42-7.39,5.94-11.92,7.22-2.89.82-6.38,1.02-8.26-1.75-.84-1.24-1.11-2.78-.91-4.26.42-3.12,2.46-5.53,4.44-7.83-3.8-.62-7.71.9-10.72,3.32-3,2.41-5.22,5.65-7.25,8.92-6.18,10.02-10.94,20.87-14.74,32.01-1.35,3.94-2.59,8.06-2.16,12.2.49,4.69,1.35,9.16,4.81,12.36,1.12,1.03,4.77,5.26,5.7,6.04,1.77,1.48,4.06,1.7,6.36,1.79,19,.75,51.82,8.19,54.39,10.28,3.11,2.52,6.15,3.11,7.05-.89,2.77,2.69,6.8,4.77,9.45,5.22Z"/>
          <path class="cls-1" d="M676.08,333.89c-.06,0-.13,0-.19-.03-.33-.1-.51-.45-.4-.78l6.01-18.85c.1-.33.45-.51.78-.4.33.1.51.45.4.78l-6,18.85c-.08.26-.33.43-.59.43Z"/>
          <path class="cls-1" d="M634.66,337.12c-.18,0-.36-.08-.48-.23-4.56-5.51-2.89-9.83-.58-15.8,1.15-2.98,2.46-6.37,3.29-10.6.07-.34.39-.56.73-.49.34.07.56.39.49.73-.85,4.35-2.18,7.78-3.35,10.81-2.24,5.79-3.72,9.61.38,14.56.22.26.18.66-.08.87-.12.1-.26.14-.4.14Z"/>
          <g>
            <path class="cls-5" d="M689.28,363.23c-.21.69-.51,1.47-1.2,1.69-.54.18-1.2.06-1.64-.3-9.46-7.72-17-12.68-28.19-17.5-1.42-.61.83,5.6-7.27.05-1.28-.88-.21-3.49,1.32-3.74-1.26-.18-2.34-1.27-2.5-2.54s.61-2.59,1.79-3.08c-1.22.23-2.36-.99-2.42-2.23-.06-1.24.68-2.4,1.56-3.27-3.39,1.64-8.14,6.44-10.82,3.21-.72-3.27,1.57-5.02,4.11-7.2,2.54-2.19,5.85-3.27,9.14-3.89,7.32-1.38,14.95-.69,22.11,1.38,6.3,1.82,12.29,4.69,17.86,8.15,1.37.85,1.82,1.03,1.84,2.61.02,1.69-.47,3.55-.74,5.22-.55,3.47-1.21,6.93-1.99,10.36-.85,3.73-1.83,7.44-2.95,11.1Z"/>
            <path class="cls-1" d="M658.06,347.61c-.06,0-.13,0-.19-.03l-3.24-1.03c-.33-.1-.51-.45-.4-.78.1-.33.45-.51.78-.4l3.24,1.03c.33.1.51.45.4.78-.08.26-.33.43-.59.43Z"/>
            <path class="cls-1" d="M706.56,342.71c-.14,0-.28-.05-.39-.14-3.19-2.62-6.7-4.84-10.44-6.59-.31-.15-.44-.52-.3-.83.15-.31.52-.44.83-.3,3.83,1.8,7.43,4.07,10.7,6.76.26.22.3.61.09.87-.12.15-.3.23-.48.23Z"/>
            <path class="cls-1" d="M692.38,373.33c-.15,0-.31-.06-.43-.17-3.43-3.26-5.34-5.94-5.42-6.05-.2-.28-.13-.67.15-.87.28-.2.67-.13.87.15.02.03,1.93,2.7,5.27,5.87.25.24.26.63.02.88-.12.13-.29.19-.45.19Z"/>
          </g>
          <g>
            <path class="cls-5" d="M632.8,353.36c-.05,2.14-.66,4.43-2.35,5.74-2.17,1.69-5.28,1.21-7.92.45-12.54-3.61-23.85-10.56-30.35-21.87-.27-.47-2.65-6.19-1.68-7.48.92-1.21,3.2,1.09,4.69,1.4,6.46,1.36,12.83,3.12,19.06,5.27,3.21,1.11,6.38,2.31,9.5,3.62,2.39,1,4.43,1.27,6.02,3.44,1.99,2.7,3.09,6.07,3.01,9.42Z"/>
            <path class="cls-1" d="M622.53,360.17c-.06,0-.11,0-.17-.02-14.09-4.05-24.71-11.71-30.71-22.16-.03-.06-2.97-6.4-1.63-8.16.21-.27.59-.33.87-.12.27.21.33.6.12.87-.63.83,1.2,5.87,1.72,6.79,5.84,10.16,16.21,17.62,29.98,21.58.33.09.52.44.43.77-.08.27-.33.45-.6.45Z"/>
            <path class="cls-1" d="M557.91,302.42h49.97c.74,0,1.43.34,1.89.92l22.53,35.17,15.24.31c1.24,1.58.12,3.89-1.89,3.89h-62.09c-.72,0-1.4-.32-1.86-.88l-24.95-36.5c-.83-1.09-.87-2.9,1.16-2.9Z"/>
            <path class="cls-5" d="M592.08,323.87c.75-1.09,2.82-.63,2.54.92-.7,3.77-.58,5.82.3,8.56-.04-2.86.21-6,2.07-8.19.46-.54,1.18-.95,2.05-.46.37.21.6.81.58,1.23-.16,3.59-1.6,7.31-.33,10.68.23-2.14.73-4.25,1.51-6.26.32-.82.71-1.67,1.43-2.18.72-.51,1.85-.54,2.39.16.57.74.22,1.8-.1,2.68-.91,2.56-1.3,5.3-1.13,8.01.35-2.12.78-4.4,2.36-5.85.46-.43,1.03-.77,1.66-.82.63-.05,1.31.24,1.58.81.3.62.05,1.36-.15,2.02-.77,2.55,3.03,7.27,10.22,11.71,1.7,1.05-7.26.67-9.8,2.17-.87.51-1.95.55-2.95.41-2.83-.41-5.29-2.11-7.5-3.92-2.26-1.85-4.4-3.88-6.05-6.29-1.65-2.41-2.78-5.23-2.87-8.15-.08-2.92,1.1-5.63,2.2-7.23Z"/>
          </g>
        </g>
      </g>
      <g>
        <g>
          <g>
            <rect class="cls-5" x="543.58" y="83.89" width="72.07" height="72.07" rx="7.45" ry="7.45"/>
            <path class="cls-1" d="M608.19,156.57h-57.16c-4.45,0-8.07-3.62-8.07-8.07v-57.16c0-4.45,3.62-8.07,8.07-8.07h57.16c4.45,0,8.07,3.62,8.07,8.07v57.16c0,4.45-3.62,8.07-8.07,8.07ZM551.03,84.51c-3.77,0-6.83,3.06-6.83,6.83v57.16c0,3.77,3.06,6.83,6.83,6.83h57.16c3.77,0,6.83-3.06,6.83-6.83v-57.16c0-3.77-3.06-6.83-6.83-6.83h-57.16Z"/>
          </g>
          <rect class="cls-2" x="555.99" y="96.3" width="47.23" height="47.23"/>
        </g>
        <g>
          <g>
            <rect class="cls-5" x="447.17" y="472.28" width="84.14" height="84.14" rx="8.7" ry="8.7"/>
            <path class="cls-1" d="M522.61,557.04h-66.74c-5.14,0-9.32-4.18-9.32-9.32v-66.74c0-5.14,4.18-9.32,9.32-9.32h66.74c5.14,0,9.32,4.18,9.32,9.32v66.74c0,5.14-4.18,9.32-9.32,9.32ZM455.87,472.9c-4.45,0-8.08,3.62-8.08,8.08v66.74c0,4.45,3.62,8.08,8.08,8.08h66.74c4.45,0,8.08-3.62,8.08-8.08v-66.74c0-4.45-3.62-8.08-8.08-8.08h-66.74Z"/>
          </g>
          <rect class="cls-2" x="461.67" y="486.78" width="55.14" height="55.14"/>
        </g>
        <g>
          <g>
            <rect class="cls-5" x="383" y="98.47" width="43.97" height="43.97" rx="4.55" ry="4.55"/>
            <path class="cls-1" d="M422.42,143.05h-34.88c-2.85,0-5.17-2.32-5.17-5.17v-34.88c0-2.85,2.32-5.17,5.17-5.17h34.88c2.85,0,5.17,2.32,5.17,5.17v34.88c0,2.85-2.32,5.17-5.17,5.17ZM387.55,99.09c-2.16,0-3.92,1.76-3.92,3.92v34.88c0,2.16,1.76,3.92,3.92,3.92h34.88c2.16,0,3.92-1.76,3.92-3.92v-34.88c0-2.16-1.76-3.92-3.92-3.92h-34.88Z"/>
          </g>
          <rect class="cls-2" x="390.58" y="106.04" width="28.81" height="28.81"/>
        </g>
        <g>
          <g>
            <rect class="cls-5" x=".62" y="365.65" width="39.08" height="39.08" rx="4.04" ry="4.04"/>
            <path class="cls-1" d="M35.66,405.35H4.66c-2.57,0-4.66-2.09-4.66-4.66v-31c0-2.57,2.09-4.66,4.66-4.66h31c2.57,0,4.66,2.09,4.66,4.66v31c0,2.57-2.09,4.66-4.66,4.66ZM4.66,366.27c-1.89,0-3.42,1.53-3.42,3.42v31c0,1.89,1.53,3.42,3.42,3.42h31c1.89,0,3.42-1.53,3.42-3.42v-31c0-1.89-1.53-3.42-3.42-3.42H4.66Z"/>
          </g>
          <rect class="cls-2" x="7.35" y="372.38" width="25.61" height="25.61"/>
        </g>
        <g>
          <g>
            <rect class="cls-5" x=".62" y="102.34" width="89.81" height="89.81" rx="9.29" ry="9.29"/>
            <path class="cls-1" d="M81.15,192.77H9.91C4.44,192.77,0,188.32,0,182.86v-71.24c0-5.46,4.44-9.91,9.91-9.91h71.24c5.46,0,9.91,4.44,9.91,9.91v71.24c0,5.46-4.44,9.91-9.91,9.91ZM9.91,102.96c-4.78,0-8.66,3.89-8.66,8.66v71.24c0,4.78,3.89,8.66,8.66,8.66h71.24c4.78,0,8.66-3.89,8.66-8.66v-71.24c0-4.78-3.89-8.66-8.66-8.66H9.91Z"/>
          </g>
          <rect class="cls-2" x="16.1" y="117.81" width="58.86" height="58.86"/>
        </g>
        <g>
          <g>
            <rect class="cls-5" x="721.25" y="430.44" width="44.19" height="44.19" rx="4.57" ry="4.57"/>
            <path class="cls-1" d="M760.87,475.25h-35.05c-2.86,0-5.19-2.33-5.19-5.19v-35.05c0-2.86,2.33-5.19,5.19-5.19h35.05c2.86,0,5.19,2.33,5.19,5.19v35.05c0,2.86-2.33,5.19-5.19,5.19ZM725.82,431.06c-2.18,0-3.95,1.77-3.95,3.95v35.05c0,2.18,1.77,3.95,3.95,3.95h35.05c2.18,0,3.95-1.77,3.95-3.95v-35.05c0-2.18-1.77-3.95-3.95-3.95h-35.05Z"/>
          </g>
          <rect class="cls-2" x="728.87" y="438.05" width="28.96" height="28.96"/>
        </g>
        <g>
          <g>
            <rect class="cls-5" x="221.28" y="487.03" width="64.82" height="64.82" rx="6.7" ry="6.7"/>
            <path class="cls-1" d="M279.4,552.47h-51.42c-4.04,0-7.32-3.28-7.32-7.32v-51.42c0-4.04,3.29-7.32,7.32-7.32h51.42c4.04,0,7.32,3.28,7.32,7.32v51.42c0,4.04-3.29,7.32-7.32,7.32ZM227.98,487.65c-3.35,0-6.08,2.73-6.08,6.08v51.42c0,3.35,2.73,6.08,6.08,6.08h51.42c3.35,0,6.08-2.73,6.08-6.08v-51.42c0-3.35-2.73-6.08-6.08-6.08h-51.42Z"/>
          </g>
          <rect class="cls-2" x="232.45" y="498.2" width="42.48" height="42.48"/>
        </g>
        <g>
          <g>
            <rect class="cls-5" x="183.46" y="143.17" width="66.09" height="66.09" rx="6.83" ry="6.83"/>
            <path class="cls-1" d="M242.72,209.88h-52.43c-4.11,0-7.45-3.34-7.45-7.45v-52.43c0-4.11,3.34-7.45,7.45-7.45h52.43c4.11,0,7.45,3.34,7.45,7.45v52.43c0,4.11-3.34,7.45-7.45,7.45ZM190.29,143.79c-3.43,0-6.21,2.79-6.21,6.21v52.43c0,3.43,2.79,6.21,6.21,6.21h52.43c3.43,0,6.21-2.79,6.21-6.21v-52.43c0-3.43-2.79-6.21-6.21-6.21h-52.43Z"/>
          </g>
          <rect class="cls-2" x="194.84" y="154.56" width="43.32" height="43.32"/>
        </g>
        <g>
          <g>
            <rect class="cls-5" x="711.69" y="213.15" width="60.53" height="60.53" rx="6.26" ry="6.26"/>
            <path class="cls-1" d="M765.96,274.3h-48.01c-3.79,0-6.88-3.09-6.88-6.88v-48.01c0-3.79,3.09-6.88,6.88-6.88h48.01c3.79,0,6.88,3.09,6.88,6.88v48.01c0,3.79-3.09,6.88-6.88,6.88ZM717.94,213.77c-3.11,0-5.64,2.53-5.64,5.64v48.01c0,3.11,2.53,5.64,5.64,5.64h48.01c3.11,0,5.64-2.53,5.64-5.64v-48.01c0-3.11-2.53-5.64-5.64-5.64h-48.01Z"/>
          </g>
          <rect class="cls-2" x="722.12" y="223.58" width="39.67" height="39.67"/>
        </g>
      </g>
      <g>
        <g>
          <path class="cls-3" d="M23.4,203.21c-.34,0-.62-.28-.62-.62v-3.73c0-.34.28-.62.62-.62s.62.28.62.62v3.73c0,.34-.28.62-.62.62Z"/>
          <path class="cls-3" d="M23.4,350.09c-.34,0-.62-.28-.62-.62v-7.34c0-.34.28-.62.62-.62s.62.28.62.62v7.34c0,.34-.28.62-.62.62ZM23.4,335.4c-.34,0-.62-.28-.62-.62v-7.34c0-.34.28-.62.62-.62s.62.28.62.62v7.34c0,.34-.28.62-.62.62ZM23.4,320.71c-.34,0-.62-.28-.62-.62v-7.34c0-.34.28-.62.62-.62s.62.28.62.62v7.34c0,.34-.28.62-.62.62ZM23.4,306.03c-.34,0-.62-.28-.62-.62v-7.34c0-.34.28-.62.62-.62s.62.28.62.62v7.34c0,.34-.28.62-.62.62ZM23.4,291.34c-.34,0-.62-.28-.62-.62v-7.34c0-.34.28-.62.62-.62s.62.28.62.62v7.34c0,.34-.28.62-.62.62ZM23.4,276.65c-.34,0-.62-.28-.62-.62v-7.34c0-.34.28-.62.62-.62s.62.28.62.62v7.34c0,.34-.28.62-.62.62ZM23.4,261.96c-.34,0-.62-.28-.62-.62v-7.34c0-.34.28-.62.62-.62s.62.28.62.62v7.34c0,.34-.28.62-.62.62ZM23.4,247.27c-.34,0-.62-.28-.62-.62v-7.34c0-.34.28-.62.62-.62s.62.28.62.62v7.34c0,.34-.28.62-.62.62ZM23.4,232.59c-.34,0-.62-.28-.62-.62v-7.34c0-.34.28-.62.62-.62s.62.28.62.62v7.34c0,.34-.28.62-.62.62ZM23.4,217.9c-.34,0-.62-.28-.62-.62v-7.34c0-.34.28-.62.62-.62s.62.28.62.62v7.34c0,.34-.28.62-.62.62Z"/>
          <path class="cls-3" d="M23.4,361.16c-.34,0-.62-.28-.62-.62v-3.73c0-.34.28-.62.62-.62s.62.28.62.62v3.73c0,.34-.28.62-.62.62Z"/>
        </g>
        <g>
          <path class="cls-3" d="M102.72,112.03h-3.73c-.34,0-.62-.28-.62-.62s.28-.62.62-.62h3.73c.34,0,.62.28.62.62s-.28.62-.62.62Z"/>
          <path class="cls-3" d="M365.15,112.03h-7.29c-.34,0-.62-.28-.62-.62s.28-.62.62-.62h7.29c.34,0,.62.28.62.62s-.28.62-.62.62ZM350.57,112.03h-7.29c-.34,0-.62-.28-.62-.62s.28-.62.62-.62h7.29c.34,0,.62.28.62.62s-.28.62-.62.62ZM335.99,112.03h-7.29c-.34,0-.62-.28-.62-.62s.28-.62.62-.62h7.29c.34,0,.62.28.62.62s-.28.62-.62.62ZM321.41,112.03h-7.29c-.34,0-.62-.28-.62-.62s.28-.62.62-.62h7.29c.34,0,.62.28.62.62s-.28.62-.62.62ZM306.83,112.03h-7.29c-.34,0-.62-.28-.62-.62s.28-.62.62-.62h7.29c.34,0,.62.28.62.62s-.28.62-.62.62ZM292.25,112.03h-7.29c-.34,0-.62-.28-.62-.62s.28-.62.62-.62h7.29c.34,0,.62.28.62.62s-.28.62-.62.62ZM277.67,112.03h-7.29c-.34,0-.62-.28-.62-.62s.28-.62.62-.62h7.29c.34,0,.62.28.62.62s-.28.62-.62.62ZM263.09,112.03h-7.29c-.34,0-.62-.28-.62-.62s.28-.62.62-.62h7.29c.34,0,.62.28.62.62s-.28.62-.62.62ZM248.51,112.03h-7.29c-.34,0-.62-.28-.62-.62s.28-.62.62-.62h7.29c.34,0,.62.28.62.62s-.28.62-.62.62ZM233.93,112.03h-7.29c-.34,0-.62-.28-.62-.62s.28-.62.62-.62h7.29c.34,0,.62.28.62.62s-.28.62-.62.62ZM219.35,112.03h-7.29c-.34,0-.62-.28-.62-.62s.28-.62.62-.62h7.29c.34,0,.62.28.62.62s-.28.62-.62.62ZM204.77,112.03h-7.29c-.34,0-.62-.28-.62-.62s.28-.62.62-.62h7.29c.34,0,.62.28.62.62s-.28.62-.62.62ZM190.19,112.03h-7.29c-.34,0-.62-.28-.62-.62s.28-.62.62-.62h7.29c.34,0,.62.28.62.62s-.28.62-.62.62ZM175.61,112.03h-7.29c-.34,0-.62-.28-.62-.62s.28-.62.62-.62h7.29c.34,0,.62.28.62.62s-.28.62-.62.62ZM161.03,112.03h-7.29c-.34,0-.62-.28-.62-.62s.28-.62.62-.62h7.29c.34,0,.62.28.62.62s-.28.62-.62.62ZM146.45,112.03h-7.29c-.34,0-.62-.28-.62-.62s.28-.62.62-.62h7.29c.34,0,.62.28.62.62s-.28.62-.62.62ZM131.87,112.03h-7.29c-.34,0-.62-.28-.62-.62s.28-.62.62-.62h7.29c.34,0,.62.28.62.62s-.28.62-.62.62ZM117.29,112.03h-7.29c-.34,0-.62-.28-.62-.62s.28-.62.62-.62h7.29c.34,0,.62.28.62.62s-.28.62-.62.62Z"/>
          <path class="cls-3" d="M376.16,112.03h-3.73c-.34,0-.62-.28-.62-.62s.28-.62.62-.62h3.73c.34,0,.62.28.62.62s-.28.62-.62.62Z"/>
        </g>
        <g>
          <path class="cls-3" d="M436.21,120.93h-3.73c-.34,0-.62-.28-.62-.62s.28-.62.62-.62h3.73c.34,0,.62.28.62.62s-.28.62-.62.62Z"/>
          <path class="cls-3" d="M525.58,120.93h-7.45c-.34,0-.62-.28-.62-.62s.28-.62.62-.62h7.45c.34,0,.62.28.62.62s-.28.62-.62.62ZM510.69,120.93h-7.45c-.34,0-.62-.28-.62-.62s.28-.62.62-.62h7.45c.34,0,.62.28.62.62s-.28.62-.62.62ZM495.79,120.93h-7.45c-.34,0-.62-.28-.62-.62s.28-.62.62-.62h7.45c.34,0,.62.28.62.62s-.28.62-.62.62ZM480.9,120.93h-7.45c-.34,0-.62-.28-.62-.62s.28-.62.62-.62h7.45c.34,0,.62.28.62.62s-.28.62-.62.62ZM466,120.93h-7.45c-.34,0-.62-.28-.62-.62s.28-.62.62-.62h7.45c.34,0,.62.28.62.62s-.28.62-.62.62ZM451.11,120.93h-7.45c-.34,0-.62-.28-.62-.62s.28-.62.62-.62h7.45c.34,0,.62.28.62.62s-.28.62-.62.62Z"/>
          <path class="cls-3" d="M536.75,120.93h-3.73c-.34,0-.62-.28-.62-.62s.28-.62.62-.62h3.73c.34,0,.62.28.62.62s-.28.62-.62.62Z"/>
        </g>
        <g>
          <path class="cls-3" d="M625.07,118.11h-3.73c-.34,0-.62-.28-.62-.62s.28-.62.62-.62h3.73c.34,0,.62.28.62.62s-.28.62-.62.62Z"/>
          <path class="cls-3" d="M730.56,118.11h-7.54c-.34,0-.62-.28-.62-.62s.28-.62.62-.62h7.54c.34,0,.62.28.62.62s-.28.62-.62.62ZM715.49,118.11h-7.54c-.34,0-.62-.28-.62-.62s.28-.62.62-.62h7.54c.34,0,.62.28.62.62s-.28.62-.62.62ZM700.42,118.11h-7.53c-.34,0-.62-.28-.62-.62s.28-.62.62-.62h7.53c.34,0,.62.28.62.62s-.28.62-.62.62ZM685.35,118.11h-7.53c-.34,0-.62-.28-.62-.62s.28-.62.62-.62h7.53c.34,0,.62.28.62.62s-.28.62-.62.62ZM670.28,118.11h-7.53c-.34,0-.62-.28-.62-.62s.28-.62.62-.62h7.53c.34,0,.62.28.62.62s-.28.62-.62.62ZM655.21,118.11h-7.53c-.34,0-.62-.28-.62-.62s.28-.62.62-.62h7.53c.34,0,.62.28.62.62s-.28.62-.62.62ZM640.14,118.11h-7.53c-.34,0-.62-.28-.62-.62s.28-.62.62-.62h7.53c.34,0,.62.28.62.62s-.28.62-.62.62Z"/>
          <path class="cls-3" d="M741.82,121.84c-.34,0-.62-.28-.62-.62v-3.1h-3.1c-.34,0-.62-.28-.62-.62s.28-.62.62-.62h3.73c.34,0,.62.28.62.62v3.73c0,.34-.28.62-.62.62Z"/>
          <path class="cls-3" d="M741.82,194.61c-.34,0-.62-.28-.62-.62v-7.28c0-.34.28-.62.62-.62s.62.28.62.62v7.28c0,.34-.28.62-.62.62ZM741.82,180.06c-.34,0-.62-.28-.62-.62v-7.28c0-.34.28-.62.62-.62s.62.28.62.62v7.28c0,.34-.28.62-.62.62ZM741.82,165.5c-.34,0-.62-.28-.62-.62v-7.28c0-.34.28-.62.62-.62s.62.28.62.62v7.28c0,.34-.28.62-.62.62ZM741.82,150.95c-.34,0-.62-.28-.62-.62v-7.28c0-.34.28-.62.62-.62s.62.28.62.62v7.28c0,.34-.28.62-.62.62ZM741.82,136.39c-.34,0-.62-.28-.62-.62v-7.28c0-.34.28-.62.62-.62s.62.28.62.62v7.28c0,.34-.28.62-.62.62Z"/>
          <path class="cls-3" d="M741.82,205.61c-.34,0-.62-.28-.62-.62v-3.73c0-.34.28-.62.62-.62s.62.28.62.62v3.73c0,.34-.28.62-.62.62Z"/>
        </g>
        <g>
          <path class="cls-3" d="M743.09,282.26c-.34,0-.62-.28-.62-.62v-3.73c0-.34.28-.62.62-.62s.62.28.62.62v3.73c0,.34-.28.62-.62.62Z"/>
          <path class="cls-3" d="M743.09,413.36c-.34,0-.62-.28-.62-.62v-7.28c0-.34.28-.62.62-.62s.62.28.62.62v7.28c0,.34-.28.62-.62.62ZM743.09,398.8c-.34,0-.62-.28-.62-.62v-7.28c0-.34.28-.62.62-.62s.62.28.62.62v7.28c0,.34-.28.62-.62.62ZM743.09,384.23c-.34,0-.62-.28-.62-.62v-7.28c0-.34.28-.62.62-.62s.62.28.62.62v7.28c0,.34-.28.62-.62.62ZM743.09,369.66c-.34,0-.62-.28-.62-.62v-7.28c0-.34.28-.62.62-.62s.62.28.62.62v7.28c0,.34-.28.62-.62.62ZM743.09,355.1c-.34,0-.62-.28-.62-.62v-7.28c0-.34.28-.62.62-.62s.62.28.62.62v7.28c0,.34-.28.62-.62.62ZM743.09,340.53c-.34,0-.62-.28-.62-.62v-7.28c0-.34.28-.62.62-.62s.62.28.62.62v7.28c0,.34-.28.62-.62.62ZM743.09,325.96c-.34,0-.62-.28-.62-.62v-7.28c0-.34.28-.62.62-.62s.62.28.62.62v7.28c0,.34-.28.62-.62.62ZM743.09,311.39c-.34,0-.62-.28-.62-.62v-7.28c0-.34.28-.62.62-.62s.62.28.62.62v7.28c0,.34-.28.62-.62.62ZM743.09,296.83c-.34,0-.62-.28-.62-.62v-7.28c0-.34.28-.62.62-.62s.62.28.62.62v7.28c0,.34-.28.62-.62.62Z"/>
          <path class="cls-3" d="M743.09,424.37c-.34,0-.62-.28-.62-.62v-3.73c0-.34.28-.62.62-.62s.62.28.62.62v3.73c0,.34-.28.62-.62.62Z"/>
        </g>
        <g>
          <path class="cls-3" d="M575.09,525.19h-3.73c-.34,0-.62-.28-.62-.62s.28-.62.62-.62h3.73c.34,0,.62.28.62.62s-.28.62-.62.62Z"/>
          <path class="cls-3" d="M565.5,525.19h-5.87c-.34,0-.62-.28-.62-.62s.28-.62.62-.62h5.87c.34,0,.62.28.62.62s-.28.62-.62.62ZM553.75,525.19h-5.87c-.34,0-.62-.28-.62-.62s.28-.62.62-.62h5.87c.34,0,.62.28.62.62s-.28.62-.62.62Z"/>
          <path class="cls-3" d="M542.01,525.19h-3.73c-.34,0-.62-.28-.62-.62s.28-.62.62-.62h3.73c.34,0,.62.28.62.62s-.28.62-.62.62Z"/>
        </g>
        <g>
          <path class="cls-3" d="M740.55,483.9c-.34,0-.62-.28-.62-.62v-3.73c0-.34.28-.62.62-.62s.62.28.62.62v3.73c0,.34-.28.62-.62.62Z"/>
          <path class="cls-3" d="M740.55,513.95c-.34,0-.62-.28-.62-.62v-7.51c0-.34.28-.62.62-.62s.62.28.62.62v7.51c0,.34-.28.62-.62.62ZM740.55,498.93c-.34,0-.62-.28-.62-.62v-7.51c0-.34.28-.62.62-.62s.62.28.62.62v7.51c0,.34-.28.62-.62.62Z"/>
          <path class="cls-3" d="M740.55,525.19h-3.73c-.34,0-.62-.28-.62-.62s.28-.62.62-.62h3.1v-3.1c0-.34.28-.62.62-.62s.62.28.62.62v3.73c0,.34-.28.62-.62.62Z"/>
          <path class="cls-3" d="M730.4,525.19h-6.43c-.34,0-.62-.28-.62-.62s.28-.62.62-.62h6.43c.34,0,.62.28.62.62s-.28.62-.62.62ZM717.53,525.19h-6.43c-.34,0-.62-.28-.62-.62s.28-.62.62-.62h6.43c.34,0,.62.28.62.62s-.28.62-.62.62Z"/>
          <path class="cls-3" d="M704.67,525.19h-3.73c-.34,0-.62-.28-.62-.62s.28-.62.62-.62h3.73c.34,0,.62.28.62.62s-.28.62-.62.62Z"/>
        </g>
        <g>
          <path class="cls-3" d="M182.16,525.19h-3.73c-.34,0-.62-.28-.62-.62s.28-.62.62-.62h3.73c.34,0,.62.28.62.62s-.28.62-.62.62Z"/>
          <path class="cls-3" d="M200.42,525.19h-9.13c-.34,0-.62-.28-.62-.62s.28-.62.62-.62h9.13c.34,0,.62.28.62.62s-.28.62-.62.62Z"/>
          <path class="cls-3" d="M213.28,525.19h-3.73c-.34,0-.62-.28-.62-.62s.28-.62.62-.62h3.73c.34,0,.62.28.62.62s-.28.62-.62.62Z"/>
        </g>
        <g>
          <path class="cls-3" d="M25.17,413.16c-.34,0-.62-.28-.62-.62v-3.73c0-.34.28-.62.62-.62s.62.28.62.62v3.73c0,.34-.28.62-.62.62Z"/>
          <path class="cls-3" d="M25.17,514.25c-.34,0-.62-.28-.62-.62v-7.22c0-.34.28-.62.62-.62s.62.28.62.62v7.22c0,.34-.28.62-.62.62ZM25.17,499.81c-.34,0-.62-.28-.62-.62v-7.22c0-.34.28-.62.62-.62s.62.28.62.62v7.22c0,.34-.28.62-.62.62ZM25.17,485.37c-.34,0-.62-.28-.62-.62v-7.22c0-.34.28-.62.62-.62s.62.28.62.62v7.22c0,.34-.28.62-.62.62ZM25.17,470.93c-.34,0-.62-.28-.62-.62v-7.22c0-.34.28-.62.62-.62s.62.28.62.62v7.22c0,.34-.28.62-.62.62ZM25.17,456.49c-.34,0-.62-.28-.62-.62v-7.22c0-.34.28-.62.62-.62s.62.28.62.62v7.22c0,.34-.28.62-.62.62ZM25.17,442.05c-.34,0-.62-.28-.62-.62v-7.22c0-.34.28-.62.62-.62s.62.28.62.62v7.22c0,.34-.28.62-.62.62ZM25.17,427.6c-.34,0-.62-.28-.62-.62v-7.22c0-.34.28-.62.62-.62s.62.28.62.62v7.22c0,.34-.28.62-.62.62Z"/>
          <path class="cls-3" d="M28.9,525.19h-3.73c-.34,0-.62-.28-.62-.62v-3.73c0-.34.28-.62.62-.62s.62.28.62.62v3.1h3.1c.34,0,.62.28.62.62s-.28.62-.62.62Z"/>
          <path class="cls-3" d="M37.34,525.19h-4.22c-.34,0-.62-.28-.62-.62s.28-.62.62-.62h4.22c.34,0,.62.28.62.62s-.28.62-.62.62Z"/>
          <path class="cls-3" d="M45.28,525.19h-3.73c-.34,0-.62-.28-.62-.62s.28-.62.62-.62h3.73c.34,0,.62.28.62.62s-.28.62-.62.62Z"/>
        </g>
        <g>
          <path class="cls-3" d="M295.63,525.19h-3.73c-.34,0-.62-.28-.62-.62s.28-.62.62-.62h3.73c.34,0,.62.28.62.62s-.28.62-.62.62Z"/>
          <path class="cls-3" d="M430.04,525.19h-7.47c-.34,0-.62-.28-.62-.62s.28-.62.62-.62h7.47c.34,0,.62.28.62.62s-.28.62-.62.62ZM415.11,525.19h-7.47c-.34,0-.62-.28-.62-.62s.28-.62.62-.62h7.47c.34,0,.62.28.62.62s-.28.62-.62.62ZM400.17,525.19h-7.47c-.34,0-.62-.28-.62-.62s.28-.62.62-.62h7.47c.34,0,.62.28.62.62s-.28.62-.62.62ZM385.24,525.19h-7.47c-.34,0-.62-.28-.62-.62s.28-.62.62-.62h7.47c.34,0,.62.28.62.62s-.28.62-.62.62ZM370.3,525.19h-7.47c-.34,0-.62-.28-.62-.62s.28-.62.62-.62h7.47c.34,0,.62.28.62.62s-.28.62-.62.62ZM355.37,525.19h-7.47c-.34,0-.62-.28-.62-.62s.28-.62.62-.62h7.47c.34,0,.62.28.62.62s-.28.62-.62.62ZM340.43,525.19h-7.47c-.34,0-.62-.28-.62-.62s.28-.62.62-.62h7.47c.34,0,.62.28.62.62s-.28.62-.62.62ZM325.5,525.19h-7.47c-.34,0-.62-.28-.62-.62s.28-.62.62-.62h7.47c.34,0,.62.28.62.62s-.28.62-.62.62ZM310.57,525.19h-7.47c-.34,0-.62-.28-.62-.62s.28-.62.62-.62h7.47c.34,0,.62.28.62.62s-.28.62-.62.62Z"/>
          <path class="cls-3" d="M441.23,525.19h-3.73c-.34,0-.62-.28-.62-.62s.28-.62.62-.62h3.73c.34,0,.62.28.62.62s-.28.62-.62.62Z"/>
        </g>
        <g>
          <path class="cls-3" d="M168.08,471.62c-.12,0-.25-.04-.35-.11l-3.06-2.13c-.28-.2-.35-.58-.15-.86.19-.28.58-.35.86-.15l3.06,2.13c.28.2.35.58.16.86-.12.17-.31.27-.51.27Z"/>
          <path class="cls-3" d="M204.5,496.96c-.12,0-.25-.04-.35-.11l-6.07-4.22c-.28-.2-.35-.58-.16-.86.2-.28.58-.35.86-.15l6.07,4.22c.28.2.35.58.15.86-.12.17-.31.27-.51.27ZM192.36,488.52c-.12,0-.25-.04-.35-.11l-6.07-4.22c-.28-.2-.35-.58-.16-.86.2-.28.58-.35.86-.15l6.07,4.22c.28.2.35.58.16.86-.12.17-.31.27-.51.27ZM180.22,480.07c-.12,0-.25-.04-.35-.11l-6.07-4.22c-.28-.2-.35-.58-.15-.86.19-.28.58-.35.86-.15l6.07,4.22c.28.2.35.58.16.86-.12.17-.31.27-.51.27Z"/>
          <path class="cls-3" d="M213.63,503.32c-.12,0-.25-.04-.35-.11l-3.06-2.13c-.28-.2-.35-.58-.16-.86.2-.28.58-.35.86-.15l3.06,2.13c.28.2.35.58.15.86-.12.17-.31.27-.51.27Z"/>
        </g>
        <g>
          <path class="cls-3" d="M45.9,386.99c-.12,0-.24-.03-.34-.1l-3.1-2.07c-.28-.19-.36-.58-.17-.86.19-.29.58-.36.86-.17l3.1,2.07c.28.19.36.58.17.86-.12.18-.32.28-.52.28Z"/>
          <path class="cls-3" d="M53.73,392.23c-.12,0-.24-.03-.34-.1l-3.91-2.62c-.28-.19-.36-.58-.17-.86.19-.29.58-.36.86-.17l3.91,2.62c.28.19.36.58.17.86-.12.18-.32.28-.52.28Z"/>
          <path class="cls-3" d="M60.74,396.92c-.12,0-.24-.03-.34-.1l-3.1-2.07c-.28-.19-.36-.58-.17-.86.19-.29.58-.36.86-.17l3.1,2.07c.28.19.36.58.17.86-.12.18-.32.28-.52.28Z"/>
        </g>
        <g>
          <path class="cls-3" d="M248.82,480.49c-.31,0-.58-.24-.62-.55l-.4-3.7c-.04-.34.21-.65.55-.68.34-.04.65.21.68.55l.4,3.7c.04.34-.21.65-.55.68-.02,0-.05,0-.07,0Z"/>
          <path class="cls-3" d="M247.63,469.52c-.31,0-.58-.24-.62-.55l-.79-7.26c-.04-.34.21-.65.55-.68.34-.04.65.21.68.55l.79,7.26c.04.34-.21.65-.55.68-.02,0-.05,0-.07,0ZM246.04,455c-.31,0-.58-.24-.62-.55l-.79-7.26c-.04-.34.21-.65.55-.68.34-.04.65.21.68.55l.79,7.26c.04.34-.21.65-.55.68-.02,0-.05,0-.07,0ZM244.46,440.48c-.31,0-.58-.24-.62-.55l-.79-7.26c-.04-.34.21-.65.55-.68.34-.04.65.21.68.55l.79,7.26c.04.34-.21.65-.55.68-.02,0-.05,0-.07,0ZM242.87,425.96c-.31,0-.58-.24-.62-.55l-.79-7.26c-.04-.34.21-.65.55-.68.35-.04.65.21.68.55l.79,7.26c.04.34-.21.65-.55.68-.02,0-.05,0-.07,0ZM241.29,411.43c-.31,0-.58-.24-.62-.55l-.79-7.26c-.04-.34.21-.65.55-.68.34-.04.65.21.68.55l.79,7.26c.04.34-.21.65-.55.68-.02,0-.05,0-.07,0ZM239.7,396.91c-.31,0-.58-.24-.62-.55l-.79-7.26c-.04-.34.21-.65.55-.68.34-.04.65.21.68.55l.79,7.26c.04.34-.21.65-.55.68-.02,0-.05,0-.07,0ZM238.12,382.39c-.31,0-.58-.24-.62-.55l-.79-7.26c-.04-.34.21-.65.55-.68.34-.04.65.21.68.55l.79,7.26c.04.34-.21.65-.55.68-.02,0-.05,0-.07,0ZM236.54,367.86c-.31,0-.58-.24-.62-.55l-.79-7.26c-.04-.34.21-.65.55-.68.34-.04.65.21.68.55l.79,7.26c.04.34-.21.65-.55.68-.02,0-.05,0-.07,0ZM234.95,353.34c-.31,0-.58-.24-.62-.55l-.79-7.26c-.04-.34.21-.65.55-.68.35-.04.65.21.68.55l.79,7.26c.04.34-.21.65-.55.68-.02,0-.05,0-.07,0ZM233.37,338.82c-.31,0-.58-.24-.62-.55l-.79-7.26c-.04-.34.21-.65.55-.68.35-.04.65.21.68.55l.79,7.26c.04.34-.21.65-.55.68-.02,0-.05,0-.07,0ZM231.78,324.29c-.31,0-.58-.24-.62-.55l-.79-7.26c-.04-.34.21-.65.55-.68.34-.04.65.21.68.55l.79,7.26c.04.34-.21.65-.55.68-.02,0-.05,0-.07,0ZM230.2,309.77c-.31,0-.58-.24-.62-.55l-.79-7.26c-.04-.34.21-.65.55-.68.34-.04.65.21.68.55l.79,7.26c.04.34-.21.65-.55.68-.02,0-.05,0-.07,0ZM228.61,295.25c-.31,0-.58-.24-.62-.55l-.79-7.26c-.04-.34.21-.65.55-.68.34-.04.65.21.68.55l.79,7.26c.04.34-.21.65-.55.68-.02,0-.05,0-.07,0ZM227.03,280.73c-.31,0-.58-.24-.62-.55l-.79-7.26c-.04-.34.21-.65.55-.68.34-.04.65.21.68.55l.79,7.26c.04.34-.21.65-.55.68-.02,0-.05,0-.07,0ZM225.45,266.2c-.31,0-.58-.24-.62-.55l-.79-7.26c-.04-.34.21-.65.55-.68.35-.04.65.21.68.55l.79,7.26c.04.34-.21.65-.55.68-.02,0-.05,0-.07,0ZM223.86,251.68c-.31,0-.58-.24-.62-.55l-.79-7.26c-.04-.34.21-.65.55-.68.35-.04.65.21.68.55l.79,7.26c.04.34-.21.65-.55.68-.02,0-.05,0-.07,0ZM222.28,237.16c-.31,0-.58-.24-.62-.55l-.79-7.26c-.04-.34.21-.65.55-.68.34-.04.65.21.68.55l.79,7.26c.04.34-.21.65-.55.68-.02,0-.05,0-.07,0Z"/>
          <path class="cls-3" d="M220.69,222.63c-.31,0-.58-.24-.62-.55l-.4-3.7c-.04-.34.21-.65.55-.68.34-.04.65.21.68.55l.4,3.7c.04.34-.21.65-.55.68-.02,0-.05,0-.07,0Z"/>
        </g>
        <g>
          <path class="cls-3" d="M99.31,157.03s-.1,0-.15-.02l-3.62-.87c-.33-.08-.54-.42-.46-.75.08-.33.42-.54.75-.46l3.62.87c.33.08.54.42.46.75-.07.28-.32.48-.6.48Z"/>
          <path class="cls-3" d="M163.05,172.39s-.1,0-.15-.02l-7.97-1.92c-.33-.08-.54-.42-.46-.75.08-.33.42-.54.75-.46l7.97,1.92c.33.08.54.42.46.75-.07.28-.32.48-.6.48ZM147.11,168.55s-.1,0-.15-.02l-7.97-1.92c-.33-.08-.54-.42-.46-.75.08-.33.42-.54.75-.46l7.97,1.92c.33.08.54.42.46.75-.07.28-.32.48-.6.48ZM131.18,164.71s-.1,0-.15-.02l-7.97-1.92c-.33-.08-.54-.42-.46-.75.08-.33.42-.54.75-.46l7.97,1.92c.33.08.54.42.46.75-.07.28-.32.48-.6.48ZM115.25,160.87s-.1,0-.15-.02l-7.97-1.92c-.33-.08-.54-.42-.46-.75.08-.33.42-.54.75-.46l7.97,1.92c.33.08.54.42.46.75-.07.28-.32.48-.6.48Z"/>
          <path class="cls-3" d="M174.64,175.18s-.1,0-.15-.02l-3.62-.87c-.33-.08-.54-.42-.46-.75.08-.33.42-.54.75-.46l3.62.87c.33.08.54.42.46.75-.07.28-.32.48-.6.48Z"/>
        </g>
        <g>
          <path class="cls-3" d="M255.48,175.18c-.25,0-.49-.15-.58-.4-.12-.32.04-.68.36-.8l3.48-1.34c.32-.12.68.04.8.36.12.32-.04.68-.36.8l-3.48,1.34c-.07.03-.15.04-.22.04Z"/>
          <path class="cls-3" d="M265.54,171.31c-.25,0-.49-.15-.58-.4-.12-.32.04-.68.36-.8l6.58-2.53c.32-.12.68.04.8.36.12.32-.04.68-.36.8l-6.58,2.53c-.07.03-.15.04-.22.04ZM278.71,166.26c-.25,0-.49-.15-.58-.4-.12-.32.04-.68.36-.8l6.58-2.53c.32-.12.68.04.8.36.12.32-.04.68-.36.8l-6.58,2.53c-.07.03-.15.04-.22.04ZM291.88,161.2c-.25,0-.49-.15-.58-.4-.12-.32.04-.68.36-.8l6.58-2.53c.32-.12.68.04.8.36.12.32-.04.68-.36.8l-6.58,2.53c-.07.03-.15.04-.22.04ZM305.05,156.14c-.25,0-.49-.15-.58-.4-.12-.32.04-.68.36-.8l6.58-2.53c.32-.12.68.04.8.36.12.32-.04.68-.36.8l-6.58,2.53c-.07.03-.15.04-.22.04ZM318.22,151.09c-.25,0-.49-.15-.58-.4-.12-.32.04-.68.36-.8l6.58-2.53c.32-.12.68.04.8.36.12.32-.04.68-.36.8l-6.58,2.53c-.07.03-.15.04-.22.04ZM331.39,146.03c-.25,0-.49-.15-.58-.4-.12-.32.04-.68.36-.8l6.58-2.53c.32-.12.68.04.8.36.12.32-.04.68-.36.8l-6.58,2.53c-.07.03-.15.04-.22.04ZM344.56,140.97c-.25,0-.49-.15-.58-.4-.12-.32.04-.68.36-.8l6.58-2.53c.32-.12.68.04.8.36.12.32-.04.68-.36.8l-6.58,2.53c-.07.03-.15.04-.22.04ZM357.72,135.92c-.25,0-.49-.15-.58-.4-.12-.32.04-.68.36-.8l6.58-2.53c.32-.12.68.04.8.36.12.32-.04.68-.36.8l-6.58,2.53c-.07.03-.15.04-.22.04Z"/>
          <path class="cls-3" d="M370.89,130.86c-.25,0-.49-.15-.58-.4-.12-.32.04-.68.36-.8l3.48-1.34c.32-.12.68.04.8.36.12.32-.04.68-.36.8l-3.48,1.34c-.07.03-.15.04-.22.04Z"/>
        </g>
        <g>
          <path class="cls-3" d="M270.17,466.06c-.08,0-.15-.01-.23-.04-.32-.13-.47-.49-.35-.81l2.85-7.16c.13-.32.49-.47.81-.35.32.13.47.49.35.81l-2.85,7.16c-.1.24-.33.39-.58.39ZM275.86,451.75c-.08,0-.15-.01-.23-.04-.32-.13-.47-.49-.35-.81l2.85-7.16c.13-.32.49-.47.81-.35.32.13.47.49.35.81l-2.85,7.16c-.1.24-.33.39-.58.39ZM281.55,437.43c-.08,0-.15-.01-.23-.04-.32-.13-.47-.49-.35-.81l2.85-7.16c.13-.32.49-.47.81-.35.32.13.47.49.35.81l-2.85,7.16c-.1.24-.33.39-.58.39Z"/>
          <path class="cls-3" d="M265.94,476.69c-.08,0-.15-.01-.23-.04-.32-.13-.47-.49-.35-.81l1.38-3.46c.13-.32.49-.47.81-.35.32.13.47.49.35.81l-1.38,3.46c-.1.24-.33.39-.58.39Z"/>
        </g>
        <g>
          <path class="cls-3" d="M395.82,150.11c-.08,0-.15-.01-.23-.04-.32-.13-.47-.49-.35-.81l1.38-3.46c.13-.32.49-.47.81-.35.32.13.47.49.35.81l-1.38,3.46c-.1.24-.33.39-.58.39Z"/>
          <path class="cls-3" d="M374.57,203.55c-.08,0-.15-.01-.23-.04-.32-.13-.47-.49-.35-.81l2.66-6.68c.13-.32.49-.47.81-.35.32.13.47.49.35.81l-2.66,6.68c-.1.24-.33.39-.58.39ZM379.88,190.19c-.08,0-.15-.01-.23-.04-.32-.13-.47-.49-.35-.81l2.66-6.68c.13-.32.49-.47.81-.35.32.13.47.49.35.81l-2.66,6.68c-.1.24-.33.39-.58.39ZM385.2,176.83c-.08,0-.15-.01-.23-.04-.32-.13-.47-.49-.35-.81l2.66-6.68c.13-.32.49-.47.81-.35.32.13.47.49.35.81l-2.66,6.68c-.1.24-.33.39-.58.39ZM390.51,163.47c-.08,0-.15-.01-.23-.04-.32-.13-.47-.49-.35-.81l2.66-6.68c.13-.32.49-.47.81-.35.32.13.47.49.35.81l-2.66,6.68c-.1.24-.33.39-.58.39Z"/>
          <path class="cls-3" d="M370.54,213.69c-.08,0-.15-.01-.23-.04-.32-.13-.47-.49-.35-.81l1.38-3.46c.13-.32.49-.47.81-.35.32.13.47.49.35.81l-1.38,3.46c-.1.24-.33.39-.58.39Z"/>
        </g>
        <g>
          <path class="cls-3" d="M296.56,261.54c-.16,0-.33-.07-.45-.19l-2.56-2.71c-.24-.25-.22-.64.02-.88.25-.24.64-.23.88.02l2.56,2.71c.24.25.22.64-.02.88-.12.11-.27.17-.43.17Z"/>
          <path class="cls-3" d="M288.45,252.97c-.16,0-.33-.07-.45-.19l-5.54-5.86c-.24-.25-.22-.64.02-.88.25-.24.64-.23.88.02l5.54,5.86c.24.25.22.64-.02.88-.12.11-.27.17-.43.17ZM277.36,241.26c-.16,0-.33-.07-.45-.19l-5.54-5.86c-.24-.25-.22-.64.02-.88.25-.24.64-.23.88.02l5.54,5.86c.24.25.22.64-.02.88-.12.11-.27.17-.43.17ZM266.28,229.55c-.16,0-.33-.07-.45-.19l-5.54-5.86c-.24-.25-.22-.64.02-.88.25-.24.64-.23.88.02l5.54,5.86c.24.25.22.64-.02.88-.12.11-.27.17-.43.17Z"/>
          <path class="cls-3" d="M255.19,217.83c-.16,0-.33-.07-.45-.19l-2.56-2.71c-.24-.25-.22-.64.02-.88.25-.24.64-.23.88.02l2.56,2.71c.24.25.22.64-.02.88-.12.11-.27.17-.43.17Z"/>
        </g>
        <g>
          <path class="cls-3" d="M488.51,464.32c-.16,0-.33-.07-.45-.19l-2.56-2.71c-.24-.25-.22-.64.02-.88.25-.24.64-.23.88.02l2.56,2.71c.24.25.22.64-.02.88-.12.11-.27.17-.43.17Z"/>
          <path class="cls-3" d="M481.59,457.01c-.16,0-.33-.07-.45-.19l-4.36-4.6c-.24-.25-.22-.64.02-.88.25-.24.64-.23.88.02l4.36,4.6c.24.25.23.64-.02.88-.12.11-.27.17-.43.17ZM472.88,447.81c-.16,0-.33-.07-.45-.19l-4.36-4.6c-.24-.25-.22-.64.02-.88.25-.24.64-.23.88.02l4.36,4.6c.24.25.22.64-.02.88-.12.11-.27.17-.43.17ZM464.17,438.61c-.16,0-.33-.07-.45-.19l-4.36-4.6c-.24-.25-.22-.64.02-.88.25-.24.64-.23.88.02l4.36,4.6c.24.25.22.64-.02.88-.12.11-.27.17-.43.17Z"/>
          <path class="cls-3" d="M455.46,429.4c-.16,0-.33-.07-.45-.19l-2.56-2.71c-.24-.25-.22-.64.02-.88.25-.24.64-.23.88.02l2.56,2.71c.24.25.22.64-.02.88-.12.11-.27.17-.43.17Z"/>
        </g>
        <g>
          <path class="cls-3" d="M501.82,462.42s-.09,0-.14-.02c-.33-.08-.55-.41-.47-.74l.81-3.64c.07-.33.41-.55.74-.47.33.08.55.41.47.74l-.81,3.64c-.06.29-.32.49-.61.49Z"/>
          <path class="cls-3" d="M504.28,451.46s-.09,0-.14-.02c-.33-.08-.55-.41-.47-.74l1.64-7.32c.08-.33.4-.55.74-.47.33.07.55.41.47.74l-1.64,7.32c-.06.29-.32.49-.61.49ZM507.56,436.81s-.09,0-.14-.02c-.33-.08-.55-.41-.47-.74l1.64-7.32c.07-.33.4-.55.74-.47.33.07.55.41.47.74l-1.64,7.32c-.06.29-.32.49-.61.49ZM510.84,422.16s-.09,0-.14-.02c-.33-.08-.55-.41-.47-.74l1.64-7.32c.08-.33.41-.55.74-.47.33.07.55.41.47.74l-1.64,7.32c-.06.29-.32.49-.61.49ZM514.12,407.51s-.09,0-.14-.02c-.33-.07-.55-.41-.47-.74l1.64-7.33c.08-.33.4-.55.74-.47.33.07.55.41.47.74l-1.64,7.33c-.06.29-.32.49-.61.49ZM517.41,392.86s-.09,0-.14-.02c-.33-.07-.55-.41-.47-.74l1.64-7.33c.07-.33.4-.55.74-.47.33.08.55.41.47.74l-1.64,7.33c-.06.29-.32.49-.61.49ZM520.69,378.21s-.09,0-.14-.02c-.33-.08-.55-.41-.47-.74l1.64-7.32c.08-.33.41-.55.74-.47.33.07.55.41.47.74l-1.64,7.32c-.06.29-.32.49-.61.49ZM523.97,363.56s-.09,0-.14-.02c-.33-.08-.55-.41-.47-.74l1.64-7.32c.08-.33.41-.55.74-.47.33.07.55.41.47.74l-1.64,7.32c-.06.29-.32.49-.61.49ZM527.25,348.91s-.09,0-.14-.02c-.33-.08-.55-.41-.47-.74l1.64-7.32c.08-.33.4-.55.74-.47.33.07.55.41.47.74l-1.64,7.32c-.06.29-.32.49-.61.49ZM530.53,334.26s-.09,0-.14-.02c-.33-.08-.55-.41-.47-.74l1.64-7.32c.07-.33.41-.55.74-.47.33.07.55.41.47.74l-1.64,7.32c-.06.29-.32.49-.61.49ZM533.82,319.61s-.09,0-.14-.02c-.33-.07-.55-.41-.47-.74l1.64-7.33c.07-.33.41-.55.74-.47.33.07.55.41.47.74l-1.64,7.33c-.06.29-.32.49-.61.49ZM537.1,304.96s-.09,0-.14-.02c-.33-.07-.55-.41-.47-.74l1.64-7.32c.08-.33.4-.54.74-.47.33.07.55.41.47.74l-1.64,7.32c-.06.29-.32.49-.61.49ZM540.38,290.31s-.09,0-.14-.02c-.33-.08-.55-.41-.47-.74l1.64-7.32c.07-.33.41-.55.74-.47.33.07.55.41.47.74l-1.64,7.32c-.06.29-.32.49-.61.49ZM543.66,275.66s-.09,0-.14-.02c-.33-.07-.55-.41-.47-.74l1.64-7.33c.07-.33.41-.55.74-.47.33.07.55.41.47.74l-1.64,7.33c-.06.29-.32.49-.61.49ZM546.94,261.01s-.09,0-.14-.02c-.33-.08-.55-.41-.47-.74l1.64-7.32c.08-.33.4-.54.74-.47.33.08.55.41.47.74l-1.64,7.32c-.06.29-.32.49-.61.49ZM550.23,246.36s-.09,0-.14-.02c-.33-.08-.55-.41-.47-.74l1.64-7.32c.08-.33.41-.54.74-.47.33.08.55.41.47.74l-1.64,7.32c-.06.29-.32.49-.61.49ZM553.51,231.71s-.09,0-.14-.02c-.33-.08-.55-.41-.47-.74l1.64-7.32c.08-.33.41-.54.74-.47.33.08.55.41.47.74l-1.64,7.32c-.06.29-.32.49-.61.49ZM556.79,217.06s-.09,0-.14-.02c-.33-.08-.55-.41-.47-.74l1.64-7.33c.08-.33.4-.54.74-.47.33.08.55.41.47.74l-1.64,7.33c-.06.29-.32.49-.61.49ZM560.07,202.41s-.09,0-.14-.02c-.33-.08-.55-.41-.47-.74l1.64-7.32c.08-.33.41-.54.74-.47.33.08.55.41.47.74l-1.64,7.33c-.06.29-.32.49-.61.49ZM563.35,187.76s-.09,0-.14-.02c-.33-.08-.55-.41-.47-.74l1.64-7.32c.08-.33.41-.54.74-.47.33.08.55.41.47.74l-1.64,7.32c-.06.29-.32.49-.61.49Z"/>
          <path class="cls-3" d="M566.64,173.11s-.09,0-.14-.02c-.33-.07-.55-.41-.47-.74l.81-3.64c.07-.33.41-.54.74-.47.33.07.55.41.47.74l-.81,3.64c-.06.29-.32.49-.61.49Z"/>
        </g>
        <g>
          <path class="cls-3" d="M572.19,300.27c-.16,0-.32-.06-.45-.19l-2.6-2.67c-.24-.25-.23-.64.01-.88.24-.24.64-.23.88.01l2.6,2.67c.24.25.23.64-.01.88-.12.12-.28.18-.43.18Z"/>
          <path class="cls-3" d="M564.36,292.21c-.16,0-.32-.06-.45-.19l-5.23-5.39c-.24-.25-.23-.64.01-.88.24-.24.64-.23.88.01l5.23,5.39c.24.25.23.64-.01.88-.12.12-.28.18-.43.18ZM553.9,281.44c-.16,0-.32-.06-.45-.19l-5.23-5.39c-.24-.25-.23-.64.01-.88.25-.24.64-.23.88.01l5.23,5.39c.24.25.23.64-.01.88-.12.12-.28.18-.43.18ZM543.43,270.66c-.16,0-.32-.06-.45-.19l-5.23-5.39c-.24-.25-.23-.64.01-.88.25-.24.64-.23.88.01l5.23,5.39c.24.25.23.64-.01.88-.12.12-.28.18-.43.18ZM532.97,259.89c-.16,0-.32-.06-.45-.19l-5.23-5.39c-.24-.25-.23-.64.01-.88.24-.24.64-.23.88.01l5.23,5.39c.24.25.23.64-.01.88-.12.12-.28.18-.43.18ZM522.51,249.12c-.16,0-.32-.06-.45-.19l-5.23-5.39c-.24-.25-.23-.64.01-.88.25-.24.64-.23.88.01l5.23,5.39c.24.25.23.64-.01.88-.12.12-.28.18-.43.18ZM512.04,238.35c-.16,0-.32-.06-.45-.19l-5.23-5.39c-.24-.25-.23-.64.01-.88.25-.24.64-.23.88.01l5.23,5.39c.24.25.23.64-.01.88-.12.12-.28.18-.43.18ZM501.58,227.57c-.16,0-.32-.06-.45-.19l-5.23-5.39c-.24-.25-.23-.64.01-.88.24-.24.64-.23.88.01l5.23,5.39c.24.25.23.64-.01.88-.12.12-.28.18-.43.18ZM491.11,216.8c-.16,0-.32-.06-.45-.19l-5.23-5.39c-.24-.25-.23-.64.01-.88.25-.24.64-.23.88.01l5.23,5.39c.24.25.23.64-.01.88-.12.12-.28.18-.43.18ZM480.65,206.03c-.16,0-.32-.06-.45-.19l-5.23-5.39c-.24-.25-.23-.64.01-.88.25-.24.64-.23.88.01l5.23,5.39c.24.25.23.64-.01.88-.12.12-.28.18-.43.18ZM470.18,195.26c-.16,0-.32-.06-.45-.19l-5.23-5.39c-.24-.25-.23-.64.01-.88.24-.24.64-.23.88.01l5.23,5.39c.24.25.23.64-.01.88-.12.12-.28.18-.43.18ZM459.72,184.49c-.16,0-.32-.06-.45-.19l-5.23-5.39c-.24-.25-.23-.64.01-.88.25-.24.64-.23.88.01l5.23,5.39c.24.25.23.64-.01.88-.12.12-.28.18-.43.18ZM449.26,173.71c-.16,0-.32-.06-.45-.19l-5.23-5.39c-.24-.25-.23-.64.01-.88.25-.24.64-.23.88.01l5.23,5.39c.24.25.23.64-.01.88-.12.12-.28.18-.43.18ZM438.79,162.94c-.16,0-.32-.06-.45-.19l-5.23-5.39c-.24-.25-.23-.64.01-.88.24-.24.64-.23.88.01l5.23,5.39c.24.25.23.64-.01.88-.12.12-.28.18-.43.18Z"/>
          <path class="cls-3" d="M428.33,152.17c-.16,0-.32-.06-.45-.19l-2.6-2.67c-.24-.25-.23-.64.01-.88.25-.24.64-.23.88.01l2.6,2.67c.24.25.23.64-.01.88-.12.12-.28.18-.43.18Z"/>
        </g>
        <g>
          <path class="cls-3" d="M716.78,449.1c-.16,0-.32-.06-.45-.19l-2.6-2.67c-.24-.25-.23-.64.01-.88.25-.24.64-.23.88.01l2.6,2.67c.24.25.23.64-.01.88-.12.12-.28.18-.43.18Z"/>
          <path class="cls-3" d="M711.37,443.54c-.16,0-.32-.06-.45-.19l-2.81-2.89c-.24-.25-.23-.64.01-.88.25-.24.64-.23.88.01l2.81,2.89c.24.25.23.64-.01.88-.12.12-.28.18-.43.18Z"/>
          <path class="cls-3" d="M705.76,437.76c-.16,0-.32-.06-.45-.19l-2.6-2.67c-.24-.25-.23-.64.01-.88.25-.24.64-.23.88.01l2.6,2.67c.24.25.23.64-.01.88-.12.12-.28.18-.43.18Z"/>
        </g>
      </g>
    </g>
    <path class="cls-5" d="M422.65,256.99c-.63.26-1.22.56-1.79.89-4.04-5.47-8.83-10.22-14.17-14.15.32-.57.63-1.17.89-1.79,3.48-8.39-.51-18.01-8.91-21.48-8.4-3.48-18.02.5-21.5,8.89-.26.62-.46,1.26-.64,1.89-6.56-.99-13.3-1.02-20.03,0-.18-.64-.38-1.27-.64-1.89-3.48-8.39-13.11-12.38-21.51-8.9-8.4,3.47-12.38,13.09-8.9,21.48.26.63.56,1.22.89,1.79-5.47,4.04-10.23,8.82-14.16,14.15-.58-.32-1.17-.63-1.79-.89-8.4-3.48-18.02.5-21.5,8.89-3.48,8.39.51,18.01,8.91,21.48.63.26,1.26.46,1.9.64-.99,6.55-1.01,13.29,0,20.01-.64.18-1.27.38-1.9.64-8.4,3.47-12.38,13.09-8.9,21.48,3.48,8.39,13.11,12.38,21.51,8.9.63-.26,1.22-.56,1.79-.89,4.04,5.47,8.83,10.22,14.17,14.15-.32.57-.63,1.17-.89,1.79-3.48,8.39.51,18.01,8.91,21.48,8.4,3.48,18.02-.5,21.5-8.89.26-.62.46-1.26.64-1.89,6.56.99,13.3,1.02,20.03,0,.18.64.38,1.27.64,1.89,3.48,8.39,13.11,12.38,21.51,8.9,8.4-3.47,12.38-13.09,8.9-21.48-.26-.63-.56-1.22-.89-1.79,5.47-4.04,10.23-8.82,14.16-14.15.58.32,1.17.63,1.79.89,8.4,3.48,18.02-.5,21.5-8.89,3.48-8.39-.51-18.01-8.91-21.48-.63-.26-1.26-.46-1.9-.64.99-6.55,1.01-13.29,0-20.01.64-.18,1.27-.38,1.9-.64,8.4-3.47,12.38-13.09,8.9-21.48-3.48-8.39-13.11-12.38-21.51-8.9ZM378.23,326.21c-15.59,6.45-33.47-.95-39.94-16.53-6.46-15.58.94-33.44,16.53-39.89,15.59-6.45,33.47.95,39.94,16.53,6.46,15.58-.94,33.44-16.53,39.89Z"/>
    <path class="cls-5" d="M487.73,381.41c-.34.13-.66.29-.97.46-2.13-2.97-4.66-5.56-7.5-7.71.18-.31.35-.62.49-.96,1.93-4.48-.13-9.67-4.62-11.61-4.48-1.93-9.68.13-11.61,4.61-.14.33-.26.67-.36,1.01-3.51-.58-7.13-.65-10.76-.16-.09-.34-.2-.68-.33-1.02-1.8-4.53-6.94-6.75-11.48-4.95-4.54,1.8-6.75,6.93-4.95,11.46.13.34.29.66.46.97-2.97,2.12-5.56,4.65-7.72,7.48-.31-.18-.62-.35-.96-.49-4.48-1.93-9.68.13-11.61,4.61-1.93,4.48.13,9.67,4.62,11.61.33.14.67.26,1.01.36-.58,3.51-.65,7.13-.15,10.75-.34.09-.68.19-1.02.33-4.54,1.8-6.75,6.93-4.95,11.46,1.8,4.53,6.94,6.75,11.48,4.95.34-.13.66-.29.97-.46,2.13,2.97,4.66,5.56,7.5,7.71-.18.31-.35.62-.49.96-1.93,4.48.13,9.67,4.62,11.61,4.48,1.93,9.68-.13,11.61-4.61.14-.33.26-.67.36-1.01,3.51.58,7.13.65,10.76.16.09.34.2.68.33,1.02,1.8,4.53,6.94,6.75,11.48,4.95,4.54-1.8,6.75-6.93,4.95-11.46-.13-.34-.29-.66-.46-.97,2.97-2.12,5.56-4.65,7.72-7.48.31.18.62.35.96.49,4.48,1.93,9.68-.13,11.61-4.61,1.93-4.48-.13-9.67-4.62-11.61-.33-.14-.67-.26-1.01-.36.58-3.51.65-7.13.15-10.74.34-.09.68-.19,1.02-.33,4.54-1.8,6.75-6.93,4.95-11.46-1.8-4.53-6.94-6.75-11.48-4.95ZM463.33,418.22c-8.42,3.34-17.97-.78-21.31-9.19-3.35-8.42.77-17.95,9.19-21.29,8.42-3.34,17.97.78,21.31,9.19s-.77,17.95-9.19,21.29Z"/>
    <path class="cls-5" d="M310.81,387.62c-.24.1-.47.21-.7.33-1.53-2.13-3.35-3.99-5.38-5.54.13-.22.25-.45.35-.69,1.39-3.22-.1-6.95-3.32-8.34-3.22-1.39-6.95.09-8.34,3.31-.1.24-.19.48-.26.73-2.52-.42-5.12-.47-7.73-.12-.06-.25-.14-.49-.24-.73-1.3-3.26-4.99-4.85-8.24-3.56-3.26,1.29-4.85,4.98-3.55,8.23.1.24.21.47.33.7-2.13,1.53-3.99,3.34-5.54,5.38-.22-.13-.45-.25-.69-.35-3.22-1.39-6.95.09-8.34,3.31-1.39,3.22.1,6.95,3.32,8.34.24.1.48.19.73.26-.42,2.52-.46,5.12-.11,7.72-.25.06-.49.14-.73.24-3.26,1.29-4.85,4.98-3.55,8.23,1.3,3.26,4.99,4.85,8.24,3.56.24-.1.47-.21.7-.33,1.53,2.13,3.35,3.99,5.38,5.54-.13.22-.25.45-.35.69-1.39,3.22.1,6.95,3.32,8.34s6.95-.09,8.34-3.31c.1-.24.19-.48.26-.73,2.52.42,5.12.47,7.73.12.06.25.14.49.24.73,1.3,3.26,4.99,4.85,8.24,3.56,3.26-1.29,4.85-4.98,3.55-8.23-.1-.24-.21-.47-.33-.7,2.13-1.53,3.99-3.34,5.54-5.38.22.13.45.25.69.35,3.22,1.39,6.95-.09,8.34-3.31,1.39-3.22-.1-6.95-3.32-8.34-.24-.1-.48-.19-.73-.26.42-2.52.46-5.12.11-7.72.25-.06.49-.14.73-.24,3.26-1.29,4.85-4.98,3.55-8.23-1.3-3.26-4.99-4.85-8.24-3.56ZM293.29,414.06c-6.05,2.4-12.91-.56-15.31-6.6-2.4-6.05.55-12.89,6.6-15.29,6.05-2.4,12.91.56,15.31,6.6,2.41,6.05-.55,12.89-6.6,15.29Z"/>
  </g>
</svg>