<?xml version="1.0" encoding="UTF-8"?>
<svg id="Layer_2" data-name="Layer 2" xmlns="http://www.w3.org/2000/svg" viewBox="0 0 772.84 603.88">
  <defs>
    <style>
      .cls-1 {
        fill: #5b626f;
      }

      .cls-2 {
        opacity: .3;
      }

      .cls-2, .cls-3 {
        fill: #f60;
      }

      .cls-4 {
        fill: #b7b7b7;
      }

      .cls-5 {
        fill: #fff;
      }
    </style>
  </defs>
  <g id="Layer_3" data-name="Layer 3">
    <g>
      <path class="cls-4" d="M446.69,590.21h-18.5v-4.9l4.95-2.28v-26.3l-4.95-2.28v-4.9h18.5v4.9l-4.95,2.28v26.3l4.95,2.28v4.9Z"/>
      <path class="cls-4" d="M470.43,558.56c3.42,0,6.11.9,8.08,2.7,1.97,1.8,2.96,4.72,2.96,8.74v20.21h-8.54v-18.1c0-2.24-.41-3.92-1.22-5.04-.82-1.12-2.08-1.68-3.79-1.68-2.58,0-4.34.88-5.26,2.65-.93,1.76-1.4,4.3-1.4,7.6v14.57h-8.6v-31.08h6.6l1.2,4.16h.34c.68-1.02,1.51-1.89,2.48-2.59s2.05-1.23,3.24-1.59,2.5-.54,3.9-.54Z"/>
      <path class="cls-4" d="M503.05,584.01c.95,0,1.86-.09,2.73-.28.87-.19,1.75-.42,2.62-.68v6.32c-.91.38-2.04.71-3.39,1-1.35.28-2.82.43-4.41.43-1.86,0-3.52-.3-4.98-.91-1.46-.61-2.62-1.66-3.47-3.16-.85-1.5-1.28-3.58-1.28-6.23v-14.97h-4.04v-3.59l4.67-2.85,2.45-6.55h5.41v6.6h8.71v6.38h-8.71v14.97c0,1.18.34,2.06,1.02,2.65.68.59,1.57.88,2.68.88Z"/>
      <path class="cls-4" d="M527.64,558.56c2.88,0,5.37.54,7.46,1.62,2.09,1.08,3.69,2.68,4.81,4.78,1.12,2.11,1.68,4.68,1.68,7.71v4.16h-19.98c.08,2.35.8,4.2,2.16,5.55,1.37,1.35,3.32,2.02,5.86,2.02,1.94,0,3.7-.19,5.29-.57,1.59-.38,3.22-.95,4.9-1.71v6.43c-1.52.76-3.12,1.32-4.81,1.68-1.69.36-3.79.54-6.29.54-3.07,0-5.8-.57-8.17-1.71-2.37-1.14-4.24-2.89-5.61-5.27-1.37-2.37-2.05-5.34-2.05-8.91s.62-6.67,1.85-9.08c1.23-2.41,2.96-4.22,5.18-5.44,2.22-1.21,4.79-1.82,7.71-1.82ZM527.87,564.66c-1.71,0-3.09.54-4.16,1.62-1.06,1.08-1.69,2.69-1.88,4.81h11.73c0-1.25-.21-2.35-.63-3.3-.42-.95-1.05-1.71-1.91-2.28-.85-.57-1.91-.85-3.16-.85Z"/>
      <path class="cls-4" d="M558.72,558.56c2.16,0,3.97.41,5.41,1.22,1.44.82,2.64,1.91,3.59,3.27h.23l.8-3.93h7.29v31.31c0,2.92-.57,5.38-1.71,7.37-1.14,1.99-2.86,3.5-5.15,4.53-2.3,1.02-5.21,1.54-8.74,1.54-2.39,0-4.54-.14-6.43-.43-1.9-.29-3.68-.77-5.35-1.45v-7.29c1.71.76,3.46,1.35,5.27,1.76,1.8.42,3.88.63,6.23.63s4.2-.55,5.44-1.65c1.23-1.1,1.85-2.62,1.85-4.55v-.85c0-.46.03-1.06.08-1.82.06-.76.12-1.42.2-1.99h-.28c-.87,1.37-2.02,2.47-3.44,3.3-1.42.83-3.2,1.25-5.32,1.25-3.57,0-6.42-1.38-8.57-4.16-2.14-2.77-3.22-6.74-3.22-11.9s1.08-9.15,3.24-11.96c2.16-2.81,5.03-4.21,8.6-4.21ZM561.51,565.34c-1.25,0-2.33.36-3.22,1.08-.89.72-1.56,1.78-1.99,3.19-.44,1.41-.65,3.15-.65,5.24,0,3.11.5,5.43,1.51,6.95,1.01,1.52,2.51,2.28,4.53,2.28,1.14,0,2.11-.17,2.9-.51.8-.34,1.44-.84,1.94-1.51.49-.66.86-1.51,1.11-2.53.25-1.02.37-2.24.37-3.64v-1.25c0-2.09-.21-3.81-.63-5.18-.42-1.37-1.1-2.39-2.05-3.07-.95-.68-2.22-1.02-3.81-1.02Z"/>
      <path class="cls-4" d="M601.53,558.56c.57,0,1.19.03,1.85.08.66.06,1.19.14,1.57.26l-.85,8.03c-.42-.08-.91-.15-1.48-.23s-1.25-.11-2.05-.11c-.87,0-1.75.13-2.65.4-.89.27-1.72.7-2.48,1.31-.76.61-1.37,1.4-1.82,2.39-.46.99-.68,2.24-.68,3.76v15.77h-8.6v-31.08h6.55l1.25,5.24h.4c.61-1.1,1.37-2.09,2.28-2.96.91-.87,1.94-1.57,3.07-2.08,1.14-.51,2.35-.77,3.64-.77Z"/>
      <path class="cls-4" d="M622.53,558.56c3.91,0,6.89.92,8.94,2.76,2.05,1.84,3.07,4.56,3.07,8.17v20.72h-5.98l-1.65-4.21h-.23c-.87,1.1-1.77,2.01-2.7,2.73-.93.72-2,1.24-3.22,1.57-1.21.32-2.69.48-4.44.48s-3.45-.35-4.9-1.05c-1.44-.7-2.58-1.77-3.42-3.22-.83-1.44-1.25-3.26-1.25-5.46,0-3.26,1.18-5.71,3.53-7.34,2.35-1.63,5.86-2.54,10.53-2.73l5.18-.17v-.97c0-1.86-.42-3.16-1.25-3.9-.83-.74-2.01-1.11-3.53-1.11-1.4,0-2.85.23-4.33.68-1.48.46-2.94,1.01-4.38,1.65l-2.5-5.86c1.63-.83,3.5-1.5,5.61-1.99s4.41-.74,6.92-.74ZM622.76,575.98c-2.7.08-4.57.51-5.64,1.31-1.06.8-1.59,1.92-1.59,3.36,0,1.33.37,2.31,1.11,2.93s1.74.94,2.99.94c1.78,0,3.29-.53,4.53-1.59,1.23-1.06,1.85-2.58,1.85-4.55v-2.56l-3.24.17Z"/>
      <path class="cls-4" d="M656.12,584.01c.95,0,1.86-.09,2.73-.28.87-.19,1.75-.42,2.62-.68v6.32c-.91.38-2.04.71-3.39,1-1.35.28-2.82.43-4.41.43-1.86,0-3.52-.3-4.98-.91-1.46-.61-2.62-1.66-3.47-3.16-.85-1.5-1.28-3.58-1.28-6.23v-14.97h-4.04v-3.59l4.67-2.85,2.45-6.55h5.41v6.6h8.71v6.38h-8.71v14.97c0,1.18.34,2.06,1.02,2.65.68.59,1.57.88,2.68.88Z"/>
      <path class="cls-4" d="M696.14,574.62c0,2.58-.35,4.88-1.05,6.89-.7,2.01-1.71,3.7-3.02,5.07-1.31,1.37-2.89,2.41-4.75,3.13-1.86.72-3.97,1.08-6.32,1.08-2.2,0-4.21-.36-6.03-1.08-1.82-.72-3.4-1.76-4.72-3.13-1.33-1.37-2.37-3.05-3.13-5.07-.76-2.01-1.14-4.31-1.14-6.89,0-3.45.61-6.38,1.82-8.77,1.21-2.39,2.96-4.2,5.24-5.44,2.28-1.23,4.99-1.85,8.14-1.85,2.92,0,5.5.62,7.74,1.85,2.24,1.23,4,3.05,5.29,5.44s1.94,5.31,1.94,8.77ZM674.74,574.62c0,2.01.22,3.74.65,5.18.44,1.44,1.12,2.54,2.05,3.3.93.76,2.15,1.14,3.67,1.14s2.68-.38,3.62-1.14c.93-.76,1.6-1.86,2.02-3.3.42-1.44.63-3.17.63-5.18s-.22-3.78-.65-5.18c-.44-1.4-1.11-2.48-2.02-3.22-.91-.74-2.13-1.11-3.64-1.11-2.2,0-3.8.82-4.81,2.45s-1.51,3.98-1.51,7.06Z"/>
      <path class="cls-4" d="M720.22,558.56c.57,0,1.19.03,1.85.08.66.06,1.19.14,1.57.26l-.85,8.03c-.42-.08-.91-.15-1.48-.23s-1.25-.11-2.05-.11c-.87,0-1.75.13-2.65.4-.89.27-1.72.7-2.48,1.31-.76.61-1.37,1.4-1.82,2.39-.46.99-.68,2.24-.68,3.76v15.77h-8.6v-31.08h6.55l1.25,5.24h.4c.61-1.1,1.37-2.09,2.28-2.96.91-.87,1.94-1.57,3.07-2.08,1.14-.51,2.35-.77,3.64-.77Z"/>
    </g>
    <g id="Architectural_and_engineering" data-name="Architectural and engineering">
      <g>
        <rect class="cls-5" x="252.17" y="71.92" width="389.34" height="266.96" transform="translate(893.67 410.8) rotate(180)"/>
        <path class="cls-1" d="M506.51,339.5h-254.34c-.34,0-.62-.28-.62-.62V71.92c0-.34.28-.62.62-.62h389.34c.34,0,.62.28.62.62v124.39c0,.34-.28.62-.62.62s-.62-.28-.62-.62v-123.77H252.79v265.72h253.72c.34,0,.62.28.62.62s-.28.62-.62.62Z"/>
        <path class="cls-1" d="M506.51,329.8h-244.64c-.34,0-.62-.28-.62-.62V81.62c0-.34.28-.62.62-.62h369.94c.34,0,.62.28.62.62v114.69c0,.34-.28.62-.62.62s-.62-.28-.62-.62v-114.07h-368.7v246.32h244.02c.34,0,.62.28.62.62s-.28.62-.62.62Z"/>
        <g>
          <path class="cls-1" d="M601.29,306.64h-222.4c-.34,0-.62-.28-.62-.62V109.95c0-.34.28-.62.62-.62h222.4c.34,0,.62.28.62.62v196.07c0,.34-.28.62-.62.62ZM379.51,305.4h221.16V110.57h-221.16v194.83Z"/>
          <path class="cls-1" d="M517,306.64c-.34,0-.62-.28-.62-.62v-132.48c0-.34.28-.62.62-.62s.62.28.62.62v132.48c0,.34-.28.62-.62.62Z"/>
          <path class="cls-1" d="M466.29,173.78h-87.4c-.34,0-.62-.28-.62-.62s.28-.62.62-.62h87.4c.34,0,.62.28.62.62s-.28.62-.62.62Z"/>
          <path class="cls-1" d="M506.51,173.78c-.11,0-.22-.03-.32-.09l-36.99-22.1c-.29-.18-.39-.56-.21-.85.18-.29.56-.39.85-.21l36.99,22.1c.29.18.39.56.21.85-.12.19-.32.3-.53.3Z"/>
          <path class="cls-1" d="M580.1,173.78c-.11,0-.22-.03-.32-.09l-36.99-22.1c-.29-.18-.39-.56-.21-.85.18-.29.56-.39.85-.21l36.99,22.1c.29.18.39.56.21.85-.12.19-.32.3-.53.3Z"/>
          <path class="cls-1" d="M543.12,173.78h-36.61c-.34,0-.62-.28-.62-.62s.28-.62.62-.62h36.61c.34,0,.62.28.62.62s-.28.62-.62.62Z"/>
          <path class="cls-1" d="M601.29,173.78h-21.19c-.34,0-.62-.28-.62-.62s.28-.62.62-.62h21.19c.34,0,.62.28.62.62s-.28.62-.62.62Z"/>
          <path class="cls-1" d="M508.38,115.74c-.34,0-.62-.28-.62-.62v-10.34c0-.34.28-.62.62-.62s.62.28.62.62v10.34c0,.34-.28.62-.62.62Z"/>
          <path class="cls-1" d="M569.25,115.74c-.34,0-.62-.28-.62-.62v-10.34c0-.34.28-.62.62-.62s.62.28.62.62v10.34c0,.34-.28.62-.62.62Z"/>
        </g>
        <rect class="cls-2" x="286.14" y="109.95" width="73.95" height="38.18" transform="translate(646.24 258.08) rotate(180)"/>
      </g>
      <g>
        <g>
          <g>
            <g>
              <path class="cls-3" d="M99.37,555s65.44-76.99,75.31-126.39c9.87-49.4-18.1-123.62-27-134.63-8.89-11.01-75.58-2.51-75.58-2.51l-44.52,285.64c-.06.37-.08.73-.09,1.09l70.15-8.8,1.73-14.38ZM117.16,397.74c.16-.54,4.53,11.21,4.06,13.17-.44,1.82-5.22,9.03-6.53,10.35-.24.25,1.53-20.32,2.47-23.53Z"/>
              <path class="cls-5" d="M35.83,586.74h64.61c3.34,0,5.4-3.64,3.69-6.51l-6.49-10.84-70.15,8.8c-.12,4.61,3.59,8.55,8.34,8.55Z"/>
              <path class="cls-1" d="M100.44,587.36H35.83c-2.44,0-4.71-.96-6.41-2.7-1.71-1.75-2.61-4.05-2.55-6.48,0-.34.29-.6.64-.6.34,0,.61.29.6.64-.05,2.09.73,4.08,2.2,5.58,1.46,1.5,3.42,2.33,5.52,2.33h64.61c1.34,0,2.54-.7,3.2-1.86.66-1.17.65-2.55-.04-3.7l-6.49-10.84c-.18-.29-.08-.67.21-.85.29-.17.67-.08.85.21l6.49,10.84c.92,1.54.94,3.39.06,4.95-.88,1.56-2.48,2.49-4.28,2.49Z"/>
            </g>
            <path class="cls-5" d="M99.92,550.57s-.04,0-.07,0c-.34-.04-.59-.34-.55-.68l23.03-212.24c.3-2.77,1.57-5.37,3.57-7.31l6.91-6.69c.25-.24.64-.23.88.01.24.25.23.64-.01.88l-6.91,6.69c-1.79,1.74-2.93,4.06-3.2,6.55l-23.03,212.23c-.03.32-.3.55-.62.55Z"/>
            <path class="cls-5" d="M123.34,416.8c-.26,0-.51-.17-.59-.43l-6.36-19.89c-.1-.33.08-.68.4-.78.33-.1.68.08.78.4l6.36,19.89c.1.33-.08.68-.4.78-.06.02-.13.03-.19.03Z"/>
          </g>
          <g>
            <g>
              <g>
                <path class="cls-5" d="M207.59,268.71c-8.1-1.4-15.02-6.59-18.66-13.96-5.5-11.16-11.75-21.99-16.48-29.81-4.58-7.58-12.5-12.54-21.32-13.31-21.6-1.9-44.04-2.2-58.46-2.14-10.05.04-19.28,5.6-23.98,14.49-8.47,16.01-15.21,33.96-19.97,48.47-4.58,13.96,5.78,28.62,20.47,28.68,22.5.09,72.08,0,72.08,0l11.26-37.23,17.46,25.21c5.21,7.53,10.82,12,10.82,12,0,0,17.37-.01,20.23-.02,3.43-11.02,8.7-21.47,15.52-30.78-3.21-.59-6.24-1.12-8.96-1.59Z"/>
                <path class="cls-1" d="M97.81,301.78c-10.68,0-21.18-.01-28.63-.04-7.13-.03-13.65-3.41-17.87-9.27-4.29-5.95-5.45-13.32-3.18-20.23,6.16-18.76,12.89-35.1,20.01-48.57,4.81-9.1,14.21-14.78,24.52-14.82,14.86-.06,37.09.26,58.52,2.15,8.98.79,17.13,5.88,21.8,13.61,4.41,7.3,10.85,18.4,16.5,29.86,3.54,7.17,10.34,12.27,18.21,13.62,2.73.47,5.75,1.01,8.97,1.59.21.04.39.18.47.38.08.2.05.42-.08.6-6.82,9.3-12.01,19.6-15.43,30.6-.08.26-.32.44-.59.44-2.85,0-20.23.02-20.23.02-.14,0-.28-.05-.39-.14-.06-.05-5.74-4.61-10.94-12.13l-16.72-24.16-10.89,36c-.08.26-.32.44-.59.44-.33,0-22.26.04-43.46.04ZM95.94,210.09c-1.13,0-2.22,0-3.28,0-9.86.04-18.83,5.47-23.43,14.16-7.09,13.41-13.79,29.68-19.93,48.37-2.14,6.53-1.05,13.49,3.01,19.12,3.99,5.54,10.14,8.73,16.87,8.75,21.09.09,66.54,0,71.62,0l11.13-36.79c.07-.23.26-.4.5-.43.23-.04.47.06.61.26l17.46,25.22c4.61,6.66,9.57,10.93,10.53,11.73,1.93,0,15.94-.01,19.55-.02,3.36-10.65,8.37-20.65,14.89-29.73-2.85-.52-5.54-.99-7.99-1.41-8.25-1.43-15.4-6.77-19.11-14.3-5.63-11.42-12.05-22.49-16.45-29.77-4.47-7.4-12.26-12.26-20.85-13.02-19.86-1.75-40.41-2.15-55.13-2.15Z"/>
              </g>
              <path class="cls-1" d="M153.53,262.94c-.06,0-.13,0-.19-.03-.33-.11-.5-.45-.4-.78l9.06-28.02c.11-.33.45-.5.78-.4.33.11.5.45.4.78l-9.06,28.02c-.08.26-.33.43-.59.43Z"/>
              <path class="cls-1" d="M111.35,271.41s-.01,0-.02,0l-30.58-.95c-.34-.01-.61-.3-.6-.64.01-.34.29-.6.62-.6,0,0,.01,0,.02,0l30.58.95c.34.01.61.3.6.64-.01.34-.29.6-.62.6Z"/>
              <path class="cls-1" d="M88.08,270.51c-.07,0-.13-.01-.2-.03-.32-.11-.5-.46-.39-.79,2.08-6.1,4.52-12.14,7.28-17.96.15-.31.51-.44.83-.3.31.15.44.52.3.83-2.73,5.78-5.16,11.78-7.22,17.83-.09.26-.33.42-.59.42Z"/>
              <g>
                <g>
                  <path class="cls-5" d="M114.96,270.99s28.66,5.1,40.62,6.88c20.48,3.04,24.16,14.49,25.16,19.23.43,2.06-1.16,3.99-3.26,3.99h-80.23s4.85-24.03,17.72-30.09Z"/>
                  <path class="cls-1" d="M177.47,301.7h-80.23c-.19,0-.36-.08-.48-.23-.12-.14-.17-.33-.13-.52.2-.99,5.06-24.4,18.07-30.53.12-.06.25-.07.37-.05.29.05,28.79,5.12,40.6,6.88,14.54,2.16,23.41,8.98,25.67,19.71.24,1.16-.05,2.35-.79,3.27-.76.93-1.88,1.47-3.08,1.47ZM98.01,300.46h79.46c.82,0,1.59-.37,2.11-1.01.51-.63.71-1.44.54-2.23-2.14-10.18-10.66-16.67-24.64-18.74-11.31-1.68-37.88-6.39-40.44-6.85-11.06,5.39-16.09,24.78-17.04,28.83Z"/>
                </g>
                <path class="cls-1" d="M158.69,301.7c-.31,0-.58-.24-.62-.56-.03-.34.21-.65.55-.68.97-.1,1.63-1.22,1.62-2.2,0-1.19-.7-2.35-1.31-3.23-3.35-4.82-8.58-8.19-14.36-9.25-.34-.06-.56-.38-.5-.72.06-.34.39-.56.72-.5,6.1,1.11,11.62,4.67,15.15,9.76.71,1.02,1.53,2.39,1.53,3.93,0,1.52-1.04,3.27-2.74,3.44-.02,0-.04,0-.06,0Z"/>
                <path class="cls-1" d="M166.59,301.7c-.23,0-.44-.12-.55-.34-.16-.3-.04-.68.27-.83,1.02-.52,1.75-1.76,1.87-3.14.1-1.15-.17-2.43-.83-4.02-2.04-4.93-6.01-9-10.9-11.16-.31-.14-.45-.5-.32-.82.14-.31.5-.45.82-.32,5.17,2.29,9.38,6.59,11.54,11.82.46,1.12,1.07,2.82.92,4.6-.15,1.83-1.12,3.41-2.54,4.14-.09.05-.19.07-.28.07Z"/>
                <path class="cls-1" d="M174.19,301.7c-.2,0-.39-.09-.51-.27-.19-.28-.12-.67.16-.86.86-.6,1.45-1.71,1.58-2.98.1-1.05-.07-2.19-.55-3.7-1.69-5.28-6.24-10.81-11.05-13.46-.3-.17-.41-.54-.24-.84.16-.3.54-.41.84-.24,5.06,2.79,9.84,8.61,11.63,14.17.33,1.04.76,2.6.6,4.2-.16,1.65-.93,3.06-2.11,3.88-.11.07-.23.11-.35.11Z"/>
              </g>
              <g>
                <path class="cls-5" d="M201.03,301.08h67.83s4.24-11.54-13.95-20.72c-10.77-5.44-38.36-10.06-38.36-10.06,0,0-12.25,13.35-15.52,30.78Z"/>
                <path class="cls-1" d="M268.86,301.7h-67.83c-.18,0-.36-.08-.48-.22-.12-.14-.17-.33-.13-.51,3.26-17.4,15.55-30.95,15.67-31.09.14-.16.35-.23.56-.19,1.13.19,27.8,4.7,38.54,10.12,18.47,9.33,14.3,21.37,14.25,21.49-.09.24-.32.41-.58.41ZM201.79,300.46h66.61c.54-2.09,1.98-11.59-13.77-19.55-9.93-5.01-34.66-9.39-37.84-9.94-1.64,1.88-11.87,14.08-15,29.49Z"/>
              </g>
              <path class="cls-1" d="M243.12,301.34c-.16,0-.33-.06-.45-.19-.24-.25-.23-.64.02-.88,1.01-.97.98-2.6.43-3.71-.7-1.43-2.14-2.32-3.22-2.81-1.2-.55-2.56-.9-3.87-1.25-2.32-.61-4.71-1.24-6.52-2.94-1.87-1.76-2.75-4.52-2.25-7.04.07-.34.39-.56.73-.49.34.07.55.39.49.73-.42,2.11.32,4.42,1.88,5.89,1.58,1.49,3.72,2.05,5.98,2.65,1.36.36,2.76.73,4.06,1.32,1.82.82,3.14,1.99,3.82,3.39.87,1.77.58,3.94-.69,5.16-.12.12-.27.17-.43.17Z"/>
              <path class="cls-1" d="M260.72,300.65c-.08,0-.17-.02-.25-.05-.31-.14-.45-.5-.32-.82,1.15-2.6-1.15-5.6-2.19-6.77-4.46-5.02-10.83-8.27-16.45-11.14-.3-.16-.43-.53-.27-.83.16-.3.53-.42.83-.27,5.72,2.92,12.2,6.23,16.81,11.42,2.54,2.85,3.41,5.8,2.39,8.1-.1.23-.33.37-.57.37Z"/>
            </g>
            <g>
              <path class="cls-1" d="M152.19,182.35c.88-4.11-.4-8.51-2.94-11.87-2.54-3.35-6.22-5.71-10.17-7.17s-8.15-2.05-12.34-2.36c-3.95-.28-8.06-.29-11.69,1.31-1.99.88-3.83,2.29-4.77,4.26-1.38,2.88-.38,6.7,2.24,8.53-3.38-1.36-7.51-.19-9.97,2.5-2.47,2.69-3.31,6.65-2.53,10.22.77,3.56,3.03,6.71,5.92,8.93,2.89,2.22,6.38,3.57,9.95,4.32,7.17,1.5,14.81.6,21.43-2.53,1.56-.73,3.08-1.61,4.27-2.85,1.18-1.24,1.18-2.96,2.13-4.16.74-.93,2.38-1.14,3.38-1.77,2.59-1.63,4.45-4.38,5.09-7.36Z"/>
              <g>
                <path class="cls-5" d="M124.15,198.22l-7.37,9.75c-.92,1.22-1.36,2.74-1.21,4.27.35,3.39,1.74,9.12,7.11,10.4,7.74,1.85,13.99-9.54,13.99-9.54l-12.52-14.88Z"/>
                <path class="cls-1" d="M124.42,223.47c-.62,0-1.24-.07-1.88-.22-5.76-1.38-7.22-7.45-7.58-10.94-.17-1.67.3-3.34,1.33-4.7l7.37-9.75c.11-.15.29-.24.48-.25.19,0,.37.08.49.22l12.52,14.88c.17.2.19.47.07.7-.24.44-5.62,10.07-12.8,10.07ZM124.17,199.22l-6.9,9.13c-.84,1.11-1.22,2.47-1.08,3.83.33,3.17,1.62,8.66,6.63,9.86.53.13,1.05.19,1.57.19,5.75,0,10.49-7.32,11.53-9.06l-11.74-13.95Z"/>
              </g>
              <g>
                <path class="cls-5" d="M123.11,203.14s4.3,12.78,16.7,11.22c12.39-1.56,8.36-25.85,6.14-34.46,0,0-16.28,1.89-17.08,7.41-.81,5.51,3.22,7.06-.27,9.89-3.21,2.61-5.49-2.43-5.49-2.43,0,0-4.01-5.11-8.48-.58-4.53,4.6,2.39,10.98,8.48,8.95Z"/>
                <path class="cls-1" d="M137.76,215.11c-9.72,0-14.05-8.88-15.02-11.21-3.84.98-7.7-.99-9.32-3.6-1.38-2.21-1.09-4.66.77-6.55,1.43-1.45,2.98-2.14,4.61-2.05,2.79.16,4.72,2.58,4.8,2.68.03.04.06.08.08.13.3.66,1.37,2.46,2.67,2.76.61.14,1.21-.04,1.86-.56,1.62-1.32,1.35-2.09.76-3.8-.48-1.4-1.09-3.13-.71-5.7.85-5.82,15.91-7.73,17.63-7.93.3-.04.59.16.67.46,2.13,8.26,4.43,24.17-.46,31.38-1.51,2.22-3.59,3.52-6.2,3.84-.74.09-1.45.14-2.13.14ZM123.11,202.52c.26,0,.5.16.59.42.17.5,4.29,12.28,16.03,10.8,2.27-.29,4.01-1.37,5.33-3.31,4.55-6.7,2.46-21.66.42-29.85-4.73.62-15.42,2.84-16,6.81-.33,2.27.19,3.78.66,5.11.59,1.7,1.15,3.31-1.15,5.17-.95.77-1.93,1.04-2.93.81-1.99-.47-3.25-2.9-3.48-3.38-.27-.32-1.83-2.05-3.86-2.16-1.26-.07-2.48.5-3.65,1.68-1.99,2.02-1.23,4.01-.6,5.02,1.42,2.28,5.05,4.04,8.45,2.91.06-.02.13-.03.2-.03Z"/>
              </g>
              <path class="cls-1" d="M122.84,201.42c-.25,0-.48-.15-.58-.4-.53-1.36-1.91-2.36-3.37-2.43-.34-.02-.61-.31-.59-.65.02-.34.32-.6.65-.59,1.93.09,3.77,1.42,4.46,3.22.12.32-.04.68-.35.8-.07.03-.15.04-.22.04Z"/>
            </g>
          </g>
        </g>
        <g>
          <g>
            <g>
              <path class="cls-5" d="M225.4,295.1s-30.54,227.92-30.89,282.91c-.03,4.81,3.85,8.72,8.66,8.72h58.01c2.55,0,3.93-2.97,2.29-4.92l-9.5-11.32,10.73-154.01,17.95,161.18c.58,5.16,4.94,9.07,10.14,9.07h72.31c2.64,0,3.72-3.39,1.57-4.92l-11.83-8.42s-45.94-217.08-51.08-278.29h-78.37Z"/>
              <path class="cls-1" d="M365.11,587.36h-72.31c-5.52,0-10.14-4.14-10.75-9.62l-17.19-154.36-10.24,146.92,9.34,11.13c.91,1.09,1.11,2.56.51,3.85-.6,1.29-1.86,2.09-3.28,2.09h-58.01c-2.49,0-4.82-.97-6.58-2.74-1.76-1.77-2.72-4.12-2.7-6.61.35-54.41,30.59-280.71,30.9-282.99.04-.31.3-.54.61-.54h78.37c.32,0,.59.25.62.57,5,59.58,49.27,269.69,51.02,277.98l11.63,8.28c1.2.86,1.69,2.32,1.24,3.73-.45,1.41-1.7,2.32-3.17,2.32ZM264.71,415.87c.32,0,.58.24.62.55l17.95,161.18c.54,4.86,4.63,8.52,9.52,8.52h72.31c1.13,0,1.77-.75,1.99-1.45.22-.7.14-1.69-.78-2.34l-11.83-8.42c-.13-.09-.22-.22-.25-.38-.46-2.16-45.72-216.48-51.04-277.8h-77.26c-1.66,12.41-30.48,229.26-30.82,282.3-.01,2.16.82,4.2,2.34,5.73,1.52,1.53,3.54,2.37,5.7,2.37h58.01c.95,0,1.75-.51,2.15-1.37.4-.86.28-1.81-.33-2.53l-9.5-11.32c-.1-.12-.16-.28-.14-.44l10.73-154.01c.02-.32.29-.57.61-.58h.01Z"/>
            </g>
            <path class="cls-1" d="M264.71,417.11s-.03,0-.04,0c-.34-.02-.6-.32-.58-.66l4.97-74.3c.34-5.07,3.46-9.42,8.15-11.37.32-.13.7.01.83.33.13.32,0,.67-.32.8l-.04.02c-4.25,1.76-7.08,5.71-7.39,10.3l-4.97,74.3c-.02.33-.29.58-.62.58Z"/>
            <path class="cls-1" d="M253.97,571.12h-54.33c-.34,0-.62-.28-.62-.62s.28-.62.62-.62h54.33c.34,0,.62.28.62.62s-.28.62-.62.62Z"/>
            <path class="cls-1" d="M354.85,574.02h-67.34c-.34,0-.62-.28-.62-.62s.28-.62.62-.62h67.34c.34,0,.62.28.62.62s-.28.62-.62.62Z"/>
          </g>
          <g>
            <path class="cls-1" d="M325.67,175.74c-.46-6.93-6-12.91-12.7-15.77-6.7-2.86-14.35-3.03-21.64-2.2-18.95,2.14-36.63,10.63-51.59,21.82-5.79,4.34-11.44,9.39-13.81,16-2.37,6.61-.36,15.09,6.2,18.31-3.68,2.51-5.2,7.26-4.33,11.47.87,4.21,3.84,7.84,7.5,10.38,9.43,6.53,22.87,5.91,33.32.95,10.45-4.95,18.42-13.54,25.36-22.43,5.61-7.18,10.9-17.52,18.79-22.66,6.37-4.14,13.48-7.06,12.9-15.87Z"/>
            <g>
              <path class="cls-3" d="M313.22,300.72c-4.04-13.69-.73-37.41,2.62-54.36,2.62-13.3-4.64-26.64-17.32-31.46-15.26-5.8-36.36-9.39-56.18,2.24-34.23,20.09-30.84,76.89-30.21,84.72,0,0,101.27-.51,101.09-1.13Z"/>
              <g>
                <g>
                  <path class="cls-5" d="M334.85,245.69c-.29.15-5.93,18.26-1.51,27.83,0,0,20.33-4.6,29.16-7.3,0,0-.69,4.23,2.79,3.72,3.48-.51,7.14-4.77,6.13-10.34,0,0,4.04-1.22.17-8.06,0,0,3.93-4.98-.3-8.41,0,0,17.09-6.73,16.24-10.95-.85-4.23-44.42,9.31-52.69,13.51Z"/>
                  <path class="cls-1" d="M333.34,274.15c-.24,0-.46-.14-.56-.36-4.23-9.15.67-28.08,1.79-28.65,7.93-4.03,47.59-16.54,52.77-14.03.56.27.75.67.81.95.84,4.15-11.47,9.56-15.72,11.29,2.55,2.78,1.22,6.37-.1,8.24,1.5,2.77,1.92,5,1.26,6.65-.38.94-1.03,1.46-1.48,1.72.37,2.66-.24,5.23-1.73,7.3-1.31,1.82-3.13,3.02-5,3.29-1.12.16-2-.08-2.63-.72-.76-.77-.92-1.94-.92-2.77-9.15,2.7-28.15,7.01-28.35,7.05-.05.01-.09.02-.14.02ZM335.31,246.16c-.72,1.8-5.36,17.66-1.61,26.65,3.18-.73,20.68-4.75,28.62-7.17.2-.06.43-.01.59.13.16.14.24.35.21.57-.08.51-.14,1.97.52,2.65.34.35.85.46,1.57.36,1.52-.22,3.08-1.27,4.18-2.79,1.38-1.92,1.89-4.34,1.44-6.83-.06-.31.13-.61.43-.7.03,0,.83-.28,1.2-1.26.36-.93.41-2.71-1.4-5.91-.12-.22-.1-.49.05-.69.14-.18,3.49-4.54-.2-7.54-.17-.14-.26-.36-.22-.58.03-.22.18-.4.39-.48,6.9-2.71,16.38-7.69,15.86-10.25-.43-.7-5.87-.72-23.39,4.24-11.44,3.24-23.99,7.52-28.23,9.61ZM334.85,245.7h0,0Z"/>
                </g>
                <path class="cls-1" d="M371.32,260.83c-.32,0-.59-.25-.62-.58-.08-1.19-.68-2.37-1.58-3.15-.26-.22-.29-.62-.06-.88.22-.26.62-.29.88-.06,1.17,1.01,1.9,2.47,2.01,4,.02.34-.23.64-.57.66-.02,0-.03,0-.04,0Z"/>
                <path class="cls-1" d="M371.4,252.12c-.2,0-.4-.1-.52-.28-.67-1.02-1.61-1.83-2.71-2.36-.31-.15-.44-.52-.29-.83.15-.31.52-.44.83-.29,1.3.63,2.41,1.59,3.2,2.8.19.29.11.67-.18.86-.11.07-.22.1-.34.1Z"/>
              </g>
              <path class="cls-3" d="M343.58,273.53l-1.35-33-72.95,28.51,11.88,30.99c16.57-5.22,36.63-13.41,62.42-26.5Z"/>
              <path class="cls-1" d="M289.17,260.31c-.24,0-.46-.14-.56-.36l-13.62-29.9c-3.7-8.13-11.87-13.39-20.81-13.39-.34,0-.62-.28-.62-.62s.28-.62.62-.62c9.42,0,18.03,5.54,21.93,14.11l13.38,29.38,25.33-8.88c.32-.12.68.06.79.38.11.32-.06.68-.38.79l-25.87,9.07c-.07.02-.14.04-.21.04Z"/>
              <path class="cls-1" d="M285.02,298.33c-12.27,0-24.17-6.4-30.65-17.66-.17-.3-.07-.68.23-.85.3-.17.68-.07.85.23,8.91,15.49,28.46,21.45,44.5,13.57l11.23-5.52c.31-.15.68-.02.83.28.15.31.02.68-.28.83l-11.23,5.52c-4.96,2.44-10.25,3.6-15.47,3.6Z"/>
            </g>
            <path class="cls-5" d="M300.3,205.32l-4.01,5.83s8.02,16.01-5.81,18.9c-9.99,2.09-14.79-10.37-16.61-17.35-.54-2.06.92-4.1,3.04-4.25l1.77-.13,10.49-16.65,11.13,13.65Z"/>
            <path class="cls-1" d="M292.92,216.66c-.12,0-.24-.04-.35-.11-.28-.19-.35-.58-.16-.86l7.12-10.34-10.84-13.29c-.22-.27-.18-.66.09-.87.27-.22.66-.18.87.09l11.13,13.65c.17.21.19.52.03.74l-7.38,10.72c-.12.17-.31.27-.51.27Z"/>
            <g>
              <path class="cls-5" d="M287.62,191.67s-2.04-6.78-6.28-5.95c-4.24.84-5.37,11.6,6.62,12.01,0,0,5.04,11.68,17.51,9.87,13.54-1.96,5.24-32.25,5.24-32.25,0,0-10.42-1.29-14.48,2.83-5.75,5.85-.06,15.59-8.61,13.49Z"/>
              <path class="cls-1" d="M302.92,208.41c-9.73,0-14.43-8.24-15.36-10.08-6.79-.36-9.5-4.04-9.78-7.4-.23-2.84,1.28-5.4,3.44-5.82,4.19-.82,6.38,4.57,6.88,6.03,1.44.32,2.44.26,3.06-.18.95-.67,1.12-2.36,1.33-4.33.29-2.76.65-6.2,3.3-8.89,4.22-4.29,14.56-3.06,14.99-3.01.25.03.46.21.52.45.23.84,5.61,20.79.02,29.32-1.38,2.11-3.32,3.35-5.77,3.71-.92.13-1.8.19-2.64.19ZM282.04,186.27c-.19,0-.38.02-.58.06-1.52.3-2.61,2.32-2.44,4.51.23,2.89,2.71,6.06,8.96,6.28.24,0,.45.15.55.37.2.46,5.01,11.21,16.85,9.51,2.11-.31,3.72-1.34,4.91-3.16,4.86-7.42.67-25-.07-27.9-1.95-.18-10.19-.72-13.54,2.69-2.34,2.38-2.66,5.45-2.95,8.15-.24,2.27-.44,4.22-1.85,5.21-.99.69-2.39.79-4.4.29-.21-.05-.38-.21-.45-.42-.02-.06-1.73-5.57-4.99-5.57Z"/>
            </g>
            <path class="cls-1" d="M287.27,194.99c-.19,0-.38-.09-.5-.25-.94-1.28-2.36-2.2-3.91-2.53-.33-.07-.55-.4-.48-.74.07-.33.4-.55.74-.48,1.84.39,3.54,1.49,4.66,3.01.2.28.14.66-.13.87-.11.08-.24.12-.37.12Z"/>
          </g>
          <g>
            <path class="cls-1" d="M249.95,303.06h-90.27c-2.24,0-4.06-1.82-4.06-4.06s1.82-4.06,4.06-4.06h97.23l-6.97,8.12Z"/>
            <path class="cls-1" d="M249.95,303.05l-66.14-1.2,23.64-55c.87-2.01,2.85-3.3,5.03-3.3h61.1c3.1,0,5.19,3.16,3.98,6.01l-20.96,49.33c-1.12,2.65-3.78,4.31-6.65,4.16Z"/>
            <path class="cls-3" d="M245.64,261.76c0,1.14-.93,2.07-2.07,2.07s-2.07-.93-2.07-2.07.93-2.07,2.07-2.07,2.07.93,2.07,2.07Z"/>
          </g>
        </g>
        <g>
          <g>
            <g>
              <path class="cls-1" d="M382.78,581.15c-.3,0-.56-.21-.61-.52l-46.33-269.97c-.06-.34.17-.66.51-.72.34-.06.66.17.72.51l46.33,269.97c.06.34-.17.66-.51.72-.04,0-.07,0-.11,0Z"/>
              <circle class="cls-1" cx="382.78" cy="580.94" r="5.8" transform="translate(-220.82 926.88) rotate(-86.44)"/>
            </g>
            <g>
              <path class="cls-1" d="M5.8,581.15s-.07,0-.11,0c-.34-.06-.56-.38-.51-.72l46.33-269.97c.06-.34.38-.56.72-.51.34.06.56.38.51.72L6.41,580.63c-.05.3-.31.52-.61.52Z"/>
              <circle class="cls-1" cx="5.8" cy="580.94" r="5.8" transform="translate(-133.32 16.87) rotate(-13.28)"/>
            </g>
          </g>
          <g>
            <rect class="cls-5" x="26.28" y="300.69" width="336.02" height="11.2"/>
            <path class="cls-1" d="M362.3,312.51H26.28c-.34,0-.62-.28-.62-.62v-11.2c0-.34.28-.62.62-.62h336.02c.34,0,.62.28.62.62v11.2c0,.34-.28.62-.62.62ZM26.9,311.27h334.78v-9.96H26.9v9.96Z"/>
          </g>
        </g>
      </g>
      <g>
        <g>
          <g>
            <g>
              <polygon class="cls-5" points="634.32 304.48 611.31 266.08 583.88 263.83 580.68 278.31 598.49 315.89 634.32 304.48"/>
              <path class="cls-1" d="M598.49,316.51c-.23,0-.46-.13-.56-.35l-17.81-37.59c-.06-.12-.08-.27-.05-.4l3.2-14.48c.07-.3.35-.51.66-.48l27.42,2.26c.2.02.38.13.48.3l23.01,38.4c.1.16.12.36.05.54-.07.18-.21.31-.39.37l-35.82,11.41c-.06.02-.13.03-.19.03ZM581.33,278.23l17.49,36.9,34.56-11-22.44-37.46-26.57-2.19-3.04,13.74Z"/>
            </g>
            <g>
              <path class="cls-5" d="M563.03,226.45l-6.76,51.85s33.23,12.13,35.65,1.49c2.43-10.64,8.39-37.74,8.39-37.74l-37.28-15.61Z"/>
              <path class="cls-1" d="M582.9,284.78c-10.54,0-26.02-5.6-26.84-5.89-.27-.1-.44-.37-.4-.66l6.76-51.85c.02-.19.14-.36.31-.46.17-.1.37-.11.55-.04l37.28,15.6c.28.12.43.41.37.71-.06.27-5.99,27.22-8.39,37.74-.35,1.53-1.28,2.72-2.78,3.54-1.73.94-4.12,1.31-6.85,1.31ZM556.95,277.89c3.45,1.21,24.91,8.46,32.21,4.49,1.18-.64,1.89-1.53,2.16-2.72,2.22-9.72,7.44-33.46,8.27-37.23l-36.05-15.09-6.59,50.55Z"/>
            </g>
            <path class="cls-1" d="M629.78,249.44c.02-5.45-4.75-10.47-10.19-10.73,4.01-10-.25-22.12-8.55-28.99-8.3-6.87-19.81-8.98-30.49-7.6-5.93.77-11.82,2.58-16.68,6.06-4.86,3.48-8.6,8.76-9.41,14.68-.82,5.92,1.63,12.38,6.64,15.64.69-1.9,1.39-3.8,2.08-5.7,2.23,5.64,7.34,9.74,12.92,12.1,5.58,2.36,11.67,3.21,17.67,4.03-1.17,3.63-1.22,7.5-1.75,11.28-.53,3.77-1.68,7.69-4.49,10.26-3.92,3.57-9.97,3.55-15.07,2.11-5.1-1.44-9.85-4.06-15.06-5.07-1.79,4.2-3.61,8.47-4.2,13-.6,4.53.16,9.43,3.05,12.97,4.37,5.35,12.1,6.18,19,6.61,5.47.34,11.25.62,16.13-1.88,6.09-3.12,9.4-9.93,10.91-16.61,1.51-6.67,1.64-13.63,3.51-20.21,3.11-.12,6.22-.24,9.33-.36,2.84-.11,4.59-.29,6.97-1.39,4.2-1.94,7.7-5.21,7.71-10.21Z"/>
            <g>
              <g>
                <path class="cls-5" d="M604.83,258.91s6.19-15.21,15.66-4.4c9.47,10.81-6.61,27.13-17.15,15.34l1.49-10.93Z"/>
                <path class="cls-1" d="M611.64,274.58c-2.93,0-6.02-1.25-8.76-4.32-.12-.14-.18-.32-.15-.5l1.49-10.93c0-.05.02-.1.04-.15.13-.31,3.18-7.69,8.48-8.58,2.73-.46,5.5.89,8.23,4.01,5.14,5.87,3.08,13.31-1.48,17.34-2.15,1.91-4.92,3.14-7.84,3.14ZM604,269.64c4.87,5.25,10.85,4.24,14.66.87,4.21-3.72,6.03-10.27,1.37-15.59-2.43-2.77-4.81-3.98-7.08-3.6-4.36.73-7.19,7.03-7.51,7.76l-1.44,10.57Z"/>
              </g>
              <path class="cls-1" d="M609.06,268.17c-.07,0-.15-.01-.22-.04-.32-.12-.48-.48-.36-.8,1.24-3.31,4.14-5.89,7.56-6.74.33-.08.67.12.75.45.08.33-.12.67-.45.75-3.04.76-5.6,3.05-6.7,5.98-.09.25-.33.4-.58.4Z"/>
            </g>
            <g>
              <path class="cls-1" d="M578.27,266.86c-.52,0-1.05-.06-1.57-.18-2.12-.49-3.87-1.93-4.95-4.05-1.05-2.09-1.32-4.59-.75-7.05.57-2.46,1.91-4.6,3.77-6.01,1.9-1.44,4.11-1.96,6.22-1.47,4.33,1,6.88,5.98,5.7,11.11-.57,2.46-1.91,4.6-3.77,6.01-1.43,1.09-3.04,1.65-4.66,1.65ZM579.44,249.16c-1.35,0-2.7.48-3.91,1.4-1.63,1.24-2.81,3.12-3.31,5.3-.5,2.18-.27,4.39.65,6.21.9,1.79,2.37,3,4.12,3.4,1.75.41,3.6-.04,5.2-1.25,1.63-1.24,2.81-3.12,3.31-5.3,1.03-4.46-1.11-8.77-4.77-9.62-.42-.1-.85-.15-1.28-.15Z"/>
              <g>
                <path class="cls-5" d="M551.85,251.14c-1.11,4.8,1.23,9.44,5.23,10.36,4,.93,8.14-2.21,9.25-7.01,1.11-4.8-1.23-9.44-5.23-10.36-4-.93-8.14,2.21-9.25,7.01Z"/>
                <path class="cls-1" d="M558.49,262.28c-.51,0-1.03-.06-1.55-.18-4.33-1-6.88-5.98-5.7-11.11,1.19-5.12,5.67-8.48,10-7.48,2.12.49,3.87,1.93,4.95,4.05,1.05,2.09,1.32,4.59.75,7.05-1.04,4.51-4.65,7.65-8.45,7.65ZM552.46,251.28c-1.03,4.46,1.11,8.77,4.77,9.62,3.66.84,7.48-2.09,8.51-6.55.5-2.18.27-4.39-.65-6.21-.9-1.79-2.37-3-4.12-3.4-3.66-.85-7.48,2.09-8.51,6.55Z"/>
              </g>
              <path class="cls-1" d="M571.61,256.33c-.18,0-.35-.08-.48-.22-.09-.1-2.11-2.48-4.48-1.08-.3.17-.68.08-.85-.22-.17-.29-.08-.68.22-.85,2.63-1.55,5.12.21,6.07,1.36.22.26.18.65-.08.87-.12.1-.26.14-.39.14Z"/>
              <path class="cls-1" d="M586.1,259.68c-.33,0-.6-.25-.62-.58-.02-.34.24-.64.58-.66l18.73-1.16c.34-.02.64.24.66.58.02.34-.24.64-.58.66l-18.73,1.16s-.03,0-.04,0Z"/>
            </g>
          </g>
          <g>
            <g>
              <g>
                <path class="cls-3" d="M479.24,415.35l-3.93-20.02c12.78-19.16,25.33-36.5,36.39-51.77,11.89-16.4,26.41-30.62,46.6-32.24,36.21-2.89,86.53-3.84,123.34-4.12,31.73-.24,59.82,20.79,68.25,51.38,11,39.93,11.46,78.65,11.67,107.07.25,33.85-48.45,31.39-48.45,31.39h-145.84l-14.02-56.95-25.22,34.75c-12,16.54-33.76,19.39-52.15,10.48-4.17-2.02-8.22-4.62-12.11-7.67,13.33-32.21,15.47-62.31,15.47-62.31Z"/>
                <path class="cls-5" d="M415.78,399.72l44.23,19.33c5.08-8.19,10.21-16.1,15.3-23.72l3.93,20.02s32.04,52.17-15.47,62.31c-25.91-20.23-45.15-60.02-47.99-77.94Z"/>
                <path class="cls-1" d="M463.77,478.28c-.13,0-.27-.04-.38-.13-11.58-9.04-23.23-23.25-32.8-40.02-7.98-13.97-13.88-28.66-15.41-38.32-.05-.34.18-.66.52-.71.34-.06.66.18.71.52,2.61,16.49,20.8,56.5,47.75,77.55.27.21.32.6.11.87-.12.16-.3.24-.49.24Z"/>
              </g>
              <path class="cls-1" d="M722.35,442.83c-.13,0-.25-.04-.36-.12-13.16-9.52-28.28-17.25-42.9-24.73-3.23-1.65-6.44-3.29-9.6-4.94-.3-.16-.42-.53-.26-.84.16-.3.53-.42.84-.26,3.17,1.65,6.37,3.29,9.6,4.94,14.66,7.5,29.83,15.25,43.07,24.83.28.2.34.59.14.87-.12.17-.31.26-.5.26Z"/>
              <path class="cls-1" d="M696.11,424.65c-.3,0-.57-.22-.61-.53l-6.01-42.58c-.05-.34.19-.65.53-.7.34-.05.65.19.7.53l6.01,42.58c.05.34-.19.65-.53.7-.03,0-.06,0-.09,0Z"/>
              <path class="cls-1" d="M553.25,440.71c-.28,0-.54-.2-.61-.49-2.03-9.23-6.09-24.16-10.02-38.6-1.96-7.2-3.8-13.99-5.38-20.01-.09-.33.11-.67.44-.76.33-.09.67.11.76.44,1.58,6.02,3.43,12.81,5.38,20,3.93,14.45,7.99,29.4,10.03,38.66.07.33-.14.67-.47.74-.04,0-.09.01-.13.01Z"/>
              <path class="cls-1" d="M716.44,497.63c-21.71,0-39.99-9-51.79-16.84-13.65-9.07-21.83-18.59-21.91-18.68-.22-.26-.19-.65.07-.87.26-.22.65-.19.87.07.08.09,8.17,9.51,21.68,18.48,12.45,8.26,32.17,17.83,55.48,16.49.33-.02.64.24.65.58.02.34-.24.64-.58.65-1.51.09-3.01.13-4.48.13Z"/>
              <path class="cls-1" d="M452,463.11c-.29,0-.55-.2-.61-.49-.07-.34.15-.66.48-.73,10.72-2.22,19.72-11.27,21.91-21.99.07-.34.4-.55.73-.48.34.07.55.4.48.73-2.28,11.2-11.68,20.64-22.87,22.96-.04,0-.08.01-.13.01Z"/>
              <path class="cls-1" d="M465.89,470.52c-1.83,0-3.32-1.49-3.32-3.32s1.49-3.32,3.32-3.32,3.32,1.49,3.32,3.32-1.49,3.32-3.32,3.32ZM465.89,465.12c-1.15,0-2.08.93-2.08,2.08s.93,2.08,2.08,2.08,2.08-.93,2.08-2.08-.93-2.08-2.08-2.08Z"/>
            </g>
            <g>
              <path class="cls-2" d="M597.48,309.06l9.56,18.07-8.71,16.33s13.3,53.44,12.83,53.08c-.47-.36-25.07,0-25.07,0l7.54-53.08-5.37-16.33,9.22-18.07Z"/>
              <polygon class="cls-5" points="632.42 289.86 598.34 305.91 590.64 300.12 578.85 315.18 588.26 335.87 598.49 315.89 607.5 338.34 646.07 308.46 632.42 289.86"/>
              <path class="cls-1" d="M583.65,309.68c-.13,0-.27-.04-.38-.13-.27-.21-.32-.6-.11-.87l6.99-8.93c.21-.27.59-.32.86-.11l7.4,5.56,33.74-15.89c.27-.13.59-.05.76.19l13.66,18.6c.2.28.14.66-.13.87-.28.2-.67.14-.87-.13l-13.35-18.19-33.62,15.83c-.21.1-.45.07-.64-.06l-7.21-5.42-6.61,8.46c-.12.16-.31.24-.49.24Z"/>
            </g>
            <g>
              <path class="cls-5" d="M667.87,412.19s-14.12,34.52-24.66,49.51c0,0-39.13-23.27-55.07-43.31,0,0-9.29,17.63-14.25,11.51,0,0-6.96,5.27-11.09-2.16,0,0-6.11-1.52-7.78-8.17-1.68-6.66,2.03-13.3,2.03-13.3,0,0-9.42,12.58-13.37,10.05-3.95-2.53,4.05-17.65,10.75-24.08,6.7-6.44,17.41-17.72,44.2-11.39,24.48,5.78,69.24,31.35,69.24,31.35Z"/>
              <path class="cls-1" d="M573.13,429.75h-.02c-.34,0-.61-.29-.61-.64.25-9.85,3.12-19.49,8.31-27.87.18-.29.56-.38.85-.2s.38.56.2.85c-5.07,8.19-7.88,17.62-8.12,27.25,0,.34-.28.61-.62.61Z"/>
              <path class="cls-1" d="M562.55,426.92c-.32,0-.59-.24-.62-.56-.99-10.67,2.03-21.78,8.29-30.48.2-.28.59-.34.87-.14.28.2.34.59.14.87-6.09,8.46-9.03,19.26-8.06,29.64.03.34-.22.64-.56.68-.02,0-.04,0-.06,0Z"/>
              <path class="cls-1" d="M557.42,406.66s-.09,0-.14-.02c-.33-.08-.54-.41-.46-.75,1.12-4.78,3.43-9.25,6.69-12.92.23-.26.62-.28.88-.05.26.23.28.62.05.88-3.12,3.52-5.34,7.8-6.41,12.38-.07.29-.32.48-.6.48Z"/>
              <path class="cls-1" d="M589.19,417.29c-.12,0-.23-.03-.34-.1-.29-.19-.37-.57-.18-.86l4.93-7.53c.19-.29.57-.37.86-.18.29.19.37.57.18.86l-4.93,7.53c-.12.18-.32.28-.52.28Z"/>
              <path class="cls-1" d="M622.66,446.07c-.11,0-.23-.03-.33-.1-.29-.18-.37-.57-.19-.86,9.01-14.08,15.76-29.4,20.07-45.55.09-.33.43-.53.76-.44.33.09.53.43.44.76-4.34,16.27-11.15,31.71-20.23,45.9-.12.18-.32.29-.52.29Z"/>
              <path class="cls-1" d="M635.25,451.79c-.44,0-.88-.08-1.3-.24-1.87-.73-2.9-3.02-2.2-4.91.7-1.89,2.98-2.95,4.88-2.27.04.01.07.03.1.05.04,0,.07.02.11.03,1.85.78,2.81,3.11,2.06,4.97-.59,1.45-2.11,2.37-3.64,2.37ZM635.42,445.4c-1.06,0-2.14.67-2.51,1.67-.47,1.25.24,2.83,1.49,3.32,1.24.49,2.84-.2,3.34-1.44.5-1.24-.16-2.84-1.39-3.36-.02,0-.05-.02-.07-.03-.02,0-.05-.01-.07-.02-.25-.09-.52-.13-.79-.13Z"/>
            </g>
            <g>
              <path class="cls-1" d="M397.4,366.19h63.45c1.35,0,2.63.62,3.47,1.68l51.15,65.08c2.27,2.89.21,7.13-3.47,7.13h-61.26c-1.32,0-2.57-.59-3.41-1.61l-53.35-65.08c-2.36-2.88-.31-7.2,3.41-7.2Z"/>
              <path class="cls-5" d="M425.46,374.56c.75-.7,1.81-1.39,2.7-.9.78.43.92,1.48.97,2.38.49,8.81.99,17.62,1.48,26.44-.1-7.88,1.9-16.03,6.89-22.04,1.23-1.48,3.4-2.87,4.85-1.62.87.75.94,2.08.89,3.25-.43,9.89-4.3,20.12-.9,29.39.61-5.89,1.98-11.7,4.06-17.23.85-2.27,1.91-4.59,3.85-6,1.93-1.41,4.98-1.49,6.42.43,1.54,2.04.59,4.96-.26,7.39-2.45,7.04-3.48,14.59-3.03,22.05.94-5.83,2.11-12.11,6.36-16.11,1.24-1.17,2.78-2.11,4.47-2.26,1.69-.14,3.51.67,4.24,2.23.8,1.72.14,3.73-.4,5.56-2.07,7.03-2.02,14.66-.01,21.7,1.51,5.27,7.97,12.38,1.13,16.5-2.35,1.41-5.24,1.52-7.94,1.13-7.61-1.12-14.23-5.82-20.18-10.8-6.08-5.09-11.85-10.68-16.28-17.31-4.43-6.63-8.65-14.4-8.87-22.43s3.76-16.31,9.55-21.74Z"/>
            </g>
          </g>
        </g>
        <path class="cls-1" d="M567.27,497.63h-160.36c-.34,0-.62-.28-.62-.62v-67.89c0-.34.28-.62.62-.62s.62.28.62.62v67.27h159.74c.34,0,.62.28.62.62s-.28.62-.62.62Z"/>
        <path class="cls-1" d="M772.22,497.63h-51.34c-.34,0-.62-.28-.62-.62s.28-.62.62-.62h50.72v-252.23h-101.84c-.34,0-.62-.28-.62-.62s.28-.62.62-.62h102.46c.34,0,.62.28.62.62v253.47c0,.34-.28.62-.62.62Z"/>
      </g>
      <g>
        <path class="cls-1" d="M143.02,110.1h-62.78c-.34,0-.62-.28-.62-.62s.28-.62.62-.62h62.78c.34,0,.62.28.62.62s-.28.62-.62.62Z"/>
        <path class="cls-1" d="M67.26,110.1h-32.67c-.34,0-.62-.28-.62-.62s.28-.62.62-.62h32.67c.34,0,.62.28.62.62s-.28.62-.62.62Z"/>
        <path class="cls-1" d="M143.02,127.33h-22.23c-.34,0-.62-.28-.62-.62s.28-.62.62-.62h22.23c.34,0,.62.28.62.62s-.28.62-.62.62Z"/>
        <path class="cls-1" d="M94.98,127.33h-60.39c-.34,0-.62-.28-.62-.62s.28-.62.62-.62h60.39c.34,0,.62.28.62.62s-.28.62-.62.62Z"/>
        <path class="cls-1" d="M143.02,144.56h-45.91c-.34,0-.62-.28-.62-.62s.28-.62.62-.62h45.91c.34,0,.62.28.62.62s-.28.62-.62.62Z"/>
        <path class="cls-1" d="M77.21,144.56h-42.62c-.34,0-.62-.28-.62-.62s.28-.62.62-.62h42.62c.34,0,.62.28.62.62s-.28.62-.62.62Z"/>
      </g>
      <path class="cls-1" d="M156.35,144.56c-.34,0-.62-.28-.62-.62v-34.46c0-.34.28-.62.62-.62h122.29c.34,0,.62.28.62.62s-.28.62-.62.62h-121.67v33.84c0,.34-.28.62-.62.62Z"/>
    </g>
    <g>
      <path class="cls-4" d="M47.72,43.26h-8.71V9.85h-10.99V2.62h30.68v7.23h-10.99v33.42Z"/>
      <path class="cls-4" d="M72.54,8.71c0,1.67-.05,3.14-.14,4.41-.1,1.27-.18,2.29-.26,3.04h.46c.68-1.1,1.48-1.97,2.39-2.62s1.93-1.13,3.05-1.45c1.12-.32,2.3-.48,3.56-.48,2.24,0,4.19.4,5.86,1.2,1.67.8,2.97,2.02,3.9,3.67.93,1.65,1.39,3.82,1.39,6.52v20.27h-8.6v-18.1c0-2.24-.4-3.92-1.2-5.04-.8-1.12-2.05-1.68-3.76-1.68s-2.99.4-3.96,1.2-1.66,1.96-2.08,3.47c-.42,1.52-.63,3.38-.63,5.58v14.57h-8.6V0h8.6v8.71Z"/>
      <path class="cls-4" d="M114.21,11.61c2.88,0,5.37.54,7.46,1.62,2.09,1.08,3.69,2.68,4.81,4.78,1.12,2.11,1.68,4.68,1.68,7.71v4.16h-19.98c.08,2.35.8,4.2,2.16,5.55,1.37,1.35,3.32,2.02,5.86,2.02,1.94,0,3.7-.19,5.29-.57,1.59-.38,3.22-.95,4.9-1.71v6.43c-1.52.76-3.12,1.32-4.81,1.68-1.69.36-3.79.54-6.29.54-3.07,0-5.8-.57-8.17-1.71-2.37-1.14-4.24-2.89-5.61-5.27-1.37-2.37-2.05-5.34-2.05-8.91s.62-6.67,1.85-9.08c1.23-2.41,2.96-4.22,5.18-5.44,2.22-1.21,4.79-1.82,7.71-1.82ZM114.43,17.7c-1.71,0-3.09.54-4.16,1.62-1.06,1.08-1.69,2.69-1.88,4.81h11.73c0-1.25-.21-2.35-.63-3.3-.42-.95-1.05-1.71-1.91-2.28-.85-.57-1.91-.85-3.16-.85Z"/>
      <path class="cls-4" d="M163.56,2.62c5.58,0,9.64.83,12.18,2.48,2.54,1.65,3.81,4.2,3.81,7.66,0,1.71-.31,3.18-.94,4.41-.63,1.23-1.46,2.23-2.5,2.99-1.04.76-2.19,1.27-3.44,1.54v.29c1.33.27,2.6.74,3.81,1.42,1.21.68,2.2,1.67,2.96,2.96.76,1.29,1.14,3,1.14,5.12,0,2.47-.61,4.58-1.82,6.35-1.21,1.76-2.93,3.11-5.15,4.04-2.22.93-4.89,1.39-8,1.39h-15.2V2.62h13.15ZM164.02,18.9c2.5,0,4.23-.46,5.18-1.37.95-.91,1.42-2.11,1.42-3.59,0-1.56-.56-2.7-1.68-3.44-1.12-.74-2.89-1.11-5.32-1.11h-4.5v9.51h4.9ZM159.12,25.45v10.93h5.52c2.58,0,4.37-.52,5.38-1.57s1.51-2.38,1.51-4.01c0-1.02-.22-1.94-.65-2.73-.44-.8-1.18-1.43-2.22-1.91-1.04-.47-2.48-.71-4.3-.71h-5.24Z"/>
      <path class="cls-4" d="M201.47,11.61c3.91,0,6.89.92,8.94,2.76,2.05,1.84,3.07,4.56,3.07,8.17v20.72h-5.98l-1.65-4.21h-.23c-.87,1.1-1.77,2.01-2.7,2.73-.93.72-2,1.24-3.22,1.57-1.21.32-2.69.48-4.44.48s-3.45-.35-4.9-1.05c-1.44-.7-2.58-1.77-3.42-3.22-.83-1.44-1.25-3.26-1.25-5.46,0-3.26,1.18-5.71,3.53-7.34,2.35-1.63,5.86-2.54,10.53-2.73l5.18-.17v-.97c0-1.86-.42-3.16-1.25-3.9-.83-.74-2.01-1.11-3.53-1.11-1.4,0-2.85.23-4.33.68-1.48.46-2.94,1.01-4.38,1.65l-2.5-5.86c1.63-.83,3.5-1.5,5.61-1.99s4.41-.74,6.92-.74ZM201.7,29.03c-2.7.08-4.57.51-5.64,1.31-1.06.8-1.59,1.92-1.59,3.36,0,1.33.37,2.31,1.11,2.93s1.74.94,2.99.94c1.78,0,3.29-.53,4.53-1.59,1.23-1.06,1.85-2.58,1.85-4.55v-2.56l-3.24.17Z"/>
      <path class="cls-4" d="M230.28,43.26h-8.6V0h8.6v43.26Z"/>
      <path class="cls-4" d="M252.53,11.61c3.91,0,6.89.92,8.94,2.76,2.05,1.84,3.07,4.56,3.07,8.17v20.72h-5.98l-1.65-4.21h-.23c-.87,1.1-1.77,2.01-2.7,2.73-.93.72-2,1.24-3.22,1.57-1.21.32-2.69.48-4.44.48s-3.45-.35-4.9-1.05c-1.44-.7-2.58-1.77-3.42-3.22-.83-1.44-1.25-3.26-1.25-5.46,0-3.26,1.18-5.71,3.53-7.34,2.35-1.63,5.86-2.54,10.53-2.73l5.18-.17v-.97c0-1.86-.42-3.16-1.25-3.9-.83-.74-2.01-1.11-3.53-1.11-1.4,0-2.85.23-4.33.68-1.48.46-2.94,1.01-4.38,1.65l-2.5-5.86c1.63-.83,3.5-1.5,5.61-1.99s4.41-.74,6.92-.74ZM252.76,29.03c-2.7.08-4.57.51-5.64,1.31-1.06.8-1.59,1.92-1.59,3.36,0,1.33.37,2.31,1.11,2.93s1.74.94,2.99.94c1.78,0,3.29-.53,4.53-1.59,1.23-1.06,1.85-2.58,1.85-4.55v-2.56l-3.24.17Z"/>
      <path class="cls-4" d="M290.5,11.61c3.42,0,6.11.9,8.08,2.7,1.97,1.8,2.96,4.72,2.96,8.74v20.21h-8.54v-18.1c0-2.24-.41-3.92-1.22-5.04-.82-1.12-2.08-1.68-3.79-1.68-2.58,0-4.34.88-5.26,2.65-.93,1.76-1.4,4.3-1.4,7.6v14.57h-8.6V12.18h6.6l1.2,4.16h.34c.68-1.02,1.51-1.89,2.48-2.59s2.05-1.23,3.24-1.59,2.5-.54,3.9-.54Z"/>
      <path class="cls-4" d="M323.29,43.83c-3,0-5.63-.56-7.88-1.68-2.26-1.12-4.01-2.86-5.27-5.24-1.25-2.37-1.88-5.38-1.88-9.02,0-3.83.68-6.94,2.05-9.34,1.37-2.39,3.23-4.15,5.58-5.27,2.35-1.12,5.03-1.68,8.03-1.68,1.82,0,3.54.19,5.15.57,1.61.38,3.05.89,4.3,1.54l-2.56,6.49c-1.14-.49-2.29-.9-3.44-1.22-1.16-.32-2.31-.48-3.44-.48-1.48,0-2.73.34-3.76,1.02-1.03.68-1.8,1.72-2.33,3.1-.53,1.39-.8,3.12-.8,5.21s.26,3.74.8,5.07c.53,1.33,1.31,2.33,2.33,2.99,1.02.67,2.24,1,3.64,1,1.63,0,3.17-.22,4.61-.65,1.44-.44,2.81-1.01,4.1-1.74v7c-1.18.72-2.5,1.29-3.98,1.71-1.48.42-3.23.63-5.24.63Z"/>
      <path class="cls-4" d="M352.38,11.61c2.88,0,5.37.54,7.46,1.62,2.09,1.08,3.69,2.68,4.81,4.78,1.12,2.11,1.68,4.68,1.68,7.71v4.16h-19.98c.08,2.35.8,4.2,2.16,5.55,1.37,1.35,3.32,2.02,5.86,2.02,1.94,0,3.7-.19,5.29-.57,1.59-.38,3.22-.95,4.9-1.71v6.43c-1.52.76-3.12,1.32-4.81,1.68-1.69.36-3.79.54-6.29.54-3.07,0-5.8-.57-8.17-1.71-2.37-1.14-4.24-2.89-5.61-5.27-1.37-2.37-2.05-5.34-2.05-8.91s.62-6.67,1.85-9.08c1.23-2.41,2.96-4.22,5.18-5.44,2.22-1.21,4.79-1.82,7.71-1.82ZM352.61,17.7c-1.71,0-3.09.54-4.16,1.62-1.06,1.08-1.69,2.69-1.88,4.81h11.73c0-1.25-.21-2.35-.63-3.3-.42-.95-1.05-1.71-1.91-2.28-.85-.57-1.91-.85-3.16-.85Z"/>
      <path class="cls-4" d="M383.29,43.83c-3.42,0-6.21-1.36-8.4-4.07-2.18-2.71-3.27-6.71-3.27-11.98s1.1-9.38,3.3-12.1c2.2-2.71,5.08-4.07,8.65-4.07,1.48,0,2.76.2,3.84.6,1.08.4,2.02.94,2.82,1.62.8.68,1.48,1.46,2.05,2.33h.28c-.11-.68-.22-1.64-.31-2.88-.09-1.23-.14-2.36-.14-3.39V0h8.65v43.26h-6.6l-1.71-4.04h-.34c-.53.87-1.2,1.65-1.99,2.33-.8.68-1.76,1.23-2.88,1.65-1.12.42-2.44.63-3.96.63ZM386.31,36.95c2.35,0,4-.67,4.95-2.02.95-1.35,1.42-3.41,1.42-6.18v-.91c0-3-.46-5.29-1.37-6.89-.91-1.59-2.6-2.39-5.07-2.39-1.86,0-3.31.8-4.36,2.39-1.04,1.59-1.57,3.91-1.57,6.94s.52,5.3,1.57,6.8c1.04,1.5,2.51,2.25,4.41,2.25Z"/>
    </g>
  </g>
</svg>