<?xml version="1.0" encoding="UTF-8"?>
<svg id="Layer_2" data-name="Layer 2" xmlns="http://www.w3.org/2000/svg" viewBox="0 0 778.47 740.72">
  <defs>
    <style>
      .cls-1 {
        fill: #5b626f;
      }

      .cls-2 {
        opacity: .3;
      }

      .cls-2, .cls-3 {
        fill: #f60;
      }

      .cls-4 {
        fill: #b7b7b7;
      }

      .cls-5 {
        fill: #fff;
      }
    </style>
  </defs>
  <g id="Layer_3" data-name="Layer 3">
    <g>
      <path class="cls-4" d="M338.77,699.75c-1.94,0-3.68.37-5.23,1.11s-2.87,1.82-3.95,3.24c-1.08,1.42-1.9,3.13-2.46,5.13-.56,2-.84,4.29-.84,6.85,0,3.38.47,6.27,1.42,8.67.95,2.41,2.37,4.24,4.29,5.5,1.91,1.26,4.31,1.89,7.19,1.89,2.12,0,4.15-.25,6.11-.74,1.96-.49,3.93-1.12,5.91-1.89v8.77c-2.03.86-4.08,1.47-6.18,1.86-2.09.38-4.42.57-6.99.57-5.13,0-9.35-1.02-12.66-3.07-3.31-2.05-5.76-4.94-7.36-8.67-1.6-3.73-2.4-8.05-2.4-12.96,0-3.65.51-6.99,1.52-10.02s2.51-5.66,4.49-7.86c1.98-2.2,4.41-3.91,7.29-5.13s6.21-1.82,9.99-1.82c2.38,0,4.8.26,7.26.78,2.45.52,4.78,1.32,6.99,2.4l-3.38,8.23c-1.62-.76-3.34-1.43-5.16-1.99-1.82-.56-3.77-.84-5.84-.84Z"/>
      <path class="cls-4" d="M395.95,720.33c0,4.05-.68,7.59-2.03,10.63-1.35,3.04-3.45,5.4-6.31,7.09s-6.56,2.53-11.1,2.53-8.12-.84-11-2.53c-2.88-1.69-5.01-4.06-6.38-7.12-1.37-3.06-2.06-6.62-2.06-10.67s.7-7.59,2.09-10.63c1.39-3.04,3.53-5.39,6.41-7.05,2.88-1.66,6.55-2.5,11-2.5s8.18.84,11.04,2.53,4.96,4.04,6.31,7.05c1.35,3.02,2.03,6.57,2.03,10.67ZM367.12,720.33c0,2.57.33,4.78.98,6.65.65,1.87,1.66,3.3,3.04,4.29,1.37.99,3.16,1.49,5.37,1.49s4.06-.5,5.43-1.49c1.37-.99,2.36-2.42,2.97-4.29.61-1.87.91-4.08.91-6.65,0-3.87-.71-6.92-2.13-9.15-1.42-2.23-3.79-3.34-7.12-3.34-2.21,0-4.01.51-5.4,1.52-1.4,1.01-2.42,2.44-3.07,4.29-.65,1.85-.98,4.07-.98,6.68Z"/>
      <path class="cls-4" d="M413.63,700.62v31.25h15.66v8.17h-25.79v-39.42h10.12Z"/>
      <path class="cls-4" d="M445.83,700.62v31.25h15.66v8.17h-25.79v-39.42h10.12Z"/>
      <path class="cls-4" d="M463.51,740.04l13.84-39.49h12.28l13.97,39.49h-10.39l-2.63-8.44h-13.97l-2.63,8.44h-10.46ZM486.06,715.88c-.23-.67-.5-1.56-.81-2.67-.32-1.1-.63-2.24-.95-3.41-.32-1.17-.58-2.16-.81-2.97-.13.81-.36,1.8-.67,2.97-.32,1.17-.63,2.32-.94,3.44-.32,1.12-.56,2-.74,2.63l-2.43,7.9h9.72l-2.36-7.9Z"/>
      <path class="cls-4" d="M522.1,700.62c3.92,0,7.03.4,9.35,1.21,2.32.81,3.99,1.97,5.03,3.48s1.55,3.32,1.55,5.43c0,1.67-.32,3.08-.95,4.25-.63,1.17-1.45,2.1-2.46,2.8-1.01.7-2.08,1.2-3.21,1.52v.2c1.26.27,2.44.74,3.54,1.42,1.1.67,2.01,1.6,2.73,2.77.72,1.17,1.08,2.7,1.08,4.59,0,3.56-1.29,6.4-3.88,8.54-2.59,2.14-6.31,3.21-11.17,3.21h-15.73v-39.42h14.11ZM522.44,716.49c1.93,0,3.31-.38,4.12-1.15.81-.76,1.21-1.8,1.21-3.11,0-1.21-.46-2.18-1.38-2.9-.92-.72-2.31-1.08-4.15-1.08h-4.25v8.24h4.45ZM523.05,732.42c1.93,0,3.33-.42,4.18-1.25.85-.83,1.28-1.95,1.28-3.34,0-1.26-.44-2.33-1.32-3.21-.88-.88-2.35-1.32-4.42-1.32h-4.79v9.11h5.06Z"/>
      <path class="cls-4" d="M583.46,720.33c0,4.05-.68,7.59-2.03,10.63-1.35,3.04-3.45,5.4-6.31,7.09s-6.56,2.53-11.1,2.53-8.12-.84-11-2.53c-2.88-1.69-5.01-4.06-6.38-7.12-1.37-3.06-2.06-6.62-2.06-10.67s.7-7.59,2.09-10.63c1.39-3.04,3.53-5.39,6.41-7.05,2.88-1.66,6.55-2.5,11-2.5s8.18.84,11.04,2.53,4.96,4.04,6.31,7.05c1.35,3.02,2.03,6.57,2.03,10.67ZM554.64,720.33c0,2.57.33,4.78.98,6.65.65,1.87,1.66,3.3,3.04,4.29,1.37.99,3.16,1.49,5.37,1.49s4.06-.5,5.43-1.49c1.37-.99,2.36-2.42,2.97-4.29.61-1.87.91-4.08.91-6.65,0-3.87-.71-6.92-2.13-9.15-1.42-2.23-3.79-3.34-7.12-3.34-2.21,0-4.01.51-5.4,1.52-1.4,1.01-2.42,2.44-3.07,4.29-.65,1.85-.98,4.07-.98,6.68Z"/>
      <path class="cls-4" d="M603.85,700.76c5.49,0,9.58.98,12.28,2.94,2.7,1.96,4.05,4.87,4.05,8.74,0,2.56-.69,4.69-2.06,6.38-1.37,1.69-3.09,3.05-5.16,4.08l11.88,17.14h-10.8l-9.25-14.71h-3.71v14.71h-9.72v-39.29h12.49ZM603.44,717.97c2.34,0,4.09-.42,5.26-1.25,1.17-.83,1.75-2.15,1.75-3.95,0-1.58-.56-2.74-1.69-3.51s-2.9-1.15-5.33-1.15h-2.36v9.86h2.36Z"/>
      <path class="cls-4" d="M624.57,740.04l13.84-39.49h12.28l13.97,39.49h-10.39l-2.63-8.44h-13.97l-2.63,8.44h-10.46ZM647.11,715.88c-.23-.67-.5-1.56-.81-2.67-.32-1.1-.63-2.24-.95-3.41-.32-1.17-.58-2.16-.81-2.97-.13.81-.36,1.8-.67,2.97-.32,1.17-.63,2.32-.94,3.44-.32,1.12-.56,2-.74,2.63l-2.43,7.9h9.72l-2.36-7.9Z"/>
      <path class="cls-4" d="M694.43,700.62v8.3h-10.06v31.12h-10.06v-31.12h-9.99v-8.3h30.11Z"/>
      <path class="cls-4" d="M737.09,720.33c0,4.05-.68,7.59-2.03,10.63-1.35,3.04-3.45,5.4-6.31,7.09s-6.56,2.53-11.1,2.53-8.12-.84-11-2.53c-2.88-1.69-5.01-4.06-6.38-7.12-1.37-3.06-2.06-6.62-2.06-10.67s.7-7.59,2.09-10.63c1.39-3.04,3.53-5.39,6.41-7.05,2.88-1.66,6.55-2.5,11-2.5s8.18.84,11.04,2.53,4.96,4.04,6.31,7.05c1.35,3.02,2.03,6.57,2.03,10.67ZM708.27,720.33c0,2.57.33,4.78.98,6.65.65,1.87,1.66,3.3,3.04,4.29,1.37.99,3.16,1.49,5.37,1.49s4.06-.5,5.43-1.49c1.37-.99,2.36-2.42,2.97-4.29.61-1.87.91-4.08.91-6.65,0-3.87-.71-6.92-2.13-9.15-1.42-2.23-3.79-3.34-7.12-3.34-2.21,0-4.01.51-5.4,1.52-1.4,1.01-2.42,2.44-3.07,4.29-.65,1.85-.98,4.07-.98,6.68Z"/>
      <path class="cls-4" d="M757.47,700.76c5.49,0,9.58.98,12.28,2.94,2.7,1.96,4.05,4.87,4.05,8.74,0,2.56-.69,4.69-2.06,6.38-1.37,1.69-3.09,3.05-5.16,4.08l11.88,17.14h-10.8l-9.25-14.71h-3.71v14.71h-9.72v-39.29h12.49ZM757.07,717.97c2.34,0,4.09-.42,5.26-1.25,1.17-.83,1.75-2.15,1.75-3.95,0-1.58-.56-2.74-1.69-3.51s-2.9-1.15-5.33-1.15h-2.36v9.86h2.36Z"/>
    </g>
    <g id="Creative_project" data-name="Creative project">
      <g>
        <path class="cls-2" d="M65.45,499.17c-.23.34-.44.69-.62,1.05-3.87-1.45-7.89-2.29-11.91-2.52-.03-.4-.07-.8-.14-1.21-1.01-5.43-6.23-9.01-11.66-8-5.43,1.01-9.02,6.23-8.02,11.66.07.4.18.8.3,1.18-3.67,1.67-7.12,3.89-10.22,6.64-.3-.27-.62-.52-.95-.75-4.55-3.13-10.78-1.97-13.92,2.59-3.13,4.55-1.98,10.78,2.58,13.91.34.23.69.43,1.05.62-1.45,3.87-2.29,7.89-2.53,11.91-.4.03-.8.07-1.21.14-5.43,1.01-9.02,6.23-8.02,11.66,1.01,5.43,6.23,9.01,11.66,8,.4-.08.8-.18,1.18-.3,1.67,3.67,3.89,7.11,6.63,10.21-.27.3-.52.62-.75.95-3.13,4.55-1.98,10.78,2.58,13.91,4.55,3.13,10.78,1.97,13.92-2.59.23-.34.44-.69.62-1.05,3.87,1.45,7.89,2.29,11.91,2.52.02.4.07.8.14,1.21,1.01,5.43,6.23,9.01,11.66,8,5.43-1.01,9.02-6.23,8.02-11.66-.07-.4-.18-.8-.3-1.18,3.67-1.67,7.12-3.89,10.22-6.64.3.27.62.52.95.75,4.55,3.13,10.78,1.97,13.92-2.59,3.13-4.55,1.98-10.78-2.58-13.91-.34-.23-.69-.43-1.05-.62,1.45-3.87,2.29-7.89,2.53-11.91.4-.03.8-.07,1.21-.14,5.43-1.01,9.02-6.23,8.02-11.66-1.01-5.43-6.23-9.01-11.66-8-.4.08-.8.18-1.18.3-1.67-3.67-3.89-7.11-6.63-10.21.27-.3.52-.62.75-.95,3.13-4.55,1.98-10.78-2.58-13.91-4.55-3.13-10.78-1.97-13.92,2.59ZM65.73,549.2c-5.81,8.46-17.38,10.61-25.84,4.8-8.46-5.8-10.6-17.37-4.79-25.82,5.81-8.46,17.38-10.61,25.84-4.8,8.46,5.8,10.6,17.37,4.79,25.82Z"/>
        <path class="cls-2" d="M137.15,465.67c-.09.21-.16.41-.22.62-2.22-.36-4.44-.37-6.61-.07-.06-.21-.12-.42-.2-.63-1.12-2.78-4.28-4.13-7.06-3.01-2.78,1.12-4.13,4.28-3.01,7.06.08.21.18.4.29.59-1.77,1.28-3.37,2.83-4.72,4.63-.19-.11-.38-.21-.59-.3-2.76-1.18-5.95.11-7.13,2.87-1.18,2.76.1,5.95,2.86,7.12.21.09.41.16.62.22-.36,2.22-.37,4.44-.07,6.61-.21.06-.42.12-.63.21-2.78,1.12-4.13,4.28-3.01,7.06,1.12,2.78,4.28,4.13,7.06,3.01.21-.08.4-.18.6-.29,1.28,1.77,2.83,3.37,4.62,4.72-.11.19-.21.38-.3.59-1.18,2.76.1,5.95,2.86,7.12,2.76,1.18,5.95-.11,7.13-2.87.09-.21.16-.41.22-.62,2.22.36,4.44.37,6.61.07.06.21.12.42.2.63,1.12,2.78,4.28,4.13,7.06,3.01,2.78-1.12,4.13-4.28,3.01-7.06-.08-.21-.18-.4-.29-.59,1.77-1.28,3.37-2.83,4.72-4.63.19.11.38.21.59.3,2.76,1.18,5.95-.11,7.13-2.87,1.18-2.76-.1-5.95-2.86-7.12-.21-.09-.41-.16-.62-.22.36-2.22.37-4.44.07-6.61.21-.06.42-.12.63-.21,2.78-1.12,4.13-4.28,3.01-7.06-1.12-2.78-4.28-4.13-7.06-3.01-.21.08-.4.18-.59.29-1.28-1.77-2.83-3.37-4.62-4.72.11-.19.21-.38.3-.59,1.18-2.76-.1-5.95-2.86-7.12-2.76-1.18-5.95.11-7.13,2.87ZM142.66,492.26c-2.19,5.12-8.11,7.51-13.23,5.32-5.12-2.18-7.5-8.1-5.32-13.23,2.19-5.12,8.11-7.51,13.23-5.32,5.12,2.18,7.5,8.1,5.32,13.23Z"/>
      </g>
      <g>
        <rect class="cls-2" x="308.37" y="91.39" width="329.13" height="148.18"/>
        <g>
          <g>
            <path class="cls-5" d="M605.88,134.12h-154.06c-.56,0-1.01-.45-1.01-1.01s.45-1.01,1.01-1.01h154.06c.56,0,1.01.45,1.01,1.01s-.45,1.01-1.01,1.01Z"/>
            <path class="cls-5" d="M605.88,166.5h-154.06c-.56,0-1.01-.45-1.01-1.01s.45-1.01,1.01-1.01h154.06c.56,0,1.01.45,1.01,1.01s-.45,1.01-1.01,1.01Z"/>
            <path class="cls-5" d="M605.88,198.88h-154.06c-.56,0-1.01-.45-1.01-1.01s.45-1.01,1.01-1.01h154.06c.56,0,1.01.45,1.01,1.01s-.45,1.01-1.01,1.01Z"/>
          </g>
          <g>
            <path class="cls-5" d="M387.33,165.49v-47.6c-26.14,0-47.33,21.31-47.33,47.6s21.19,47.6,47.33,47.6,47.33-21.31,47.33-47.6c0-7.95-1.94-15.44-5.36-22.02l-41.97,22.02Z"/>
            <path class="cls-5" d="M429.3,143.46l-41.97-25.58c-26.14,0-47.33,21.31-47.33,47.6s21.19,47.6,47.33,47.6,47.33-21.31,47.33-47.6c0-7.95-1.94-15.44-5.36-22.02Z"/>
            <path class="cls-3" d="M429.3,143.46c-7.9-15.2-23.73-25.58-41.97-25.58v47.6l41.97-22.02Z"/>
            <ellipse class="cls-2" cx="387.33" cy="165.49" rx="22.72" ry="22.73" transform="translate(221.13 552.51) rotate(-89.89)"/>
          </g>
        </g>
      </g>
      <g>
        <g>
          <g>
            <polygon class="cls-5" points="339.05 572.37 252.72 340.06 200.28 317.05 137.47 361.4 136.23 606.33 230.06 626.47 339.05 572.37"/>
            <path class="cls-1" d="M230.06,627.14s-.09,0-.14-.01l-93.83-20.14c-.31-.07-.53-.34-.53-.66l1.24-244.94c0-.22.11-.42.29-.55l62.81-44.35c.19-.14.44-.16.66-.07l52.45,23.01c.17.07.3.21.36.38l86.33,232.31c.12.32-.02.69-.33.84l-109,54.1c-.09.05-.2.07-.3.07ZM136.91,605.79l93.06,19.97,108.24-53.72-86.02-231.48-51.84-22.74-62.21,43.93-1.23,244.04Z"/>
          </g>
          <path class="cls-1" d="M237.64,609.59c-.34,0-.63-.26-.67-.6l-19.55-181.93c-.41-3.57,1.02-7.05,3.83-9.3l5.56-4.45c.29-.23.72-.19.95.11.23.29.19.72-.11.95l-5.56,4.45c-2.45,1.96-3.7,4.99-3.34,8.1l19.55,181.94c.04.37-.23.7-.6.74-.02,0-.05,0-.07,0Z"/>
        </g>
        <g>
          <g>
            <path class="cls-3" d="M255.25,291.23s55.35,8.42,101.31-35.02c-10.97-6.28-17.71-17.52-21.29-32.46,0,0-18.73,18.23-36.62,18.24-15.52,0-49.09-16.45-83.85-18.78-.69,2.2-38.72,1.14-39.48-.38-25.12,2-41.61,7.21-54.89,23.4-17.1,20.87-31.36,60.13-27.2,84.91,4.15,24.79,15.55,32.46,30.1,37.23l-.64,13.4c-.71,14.85,13.99,25.6,27.94,20.43l116.18-43.02c5.65-2.09,8.61-8.3,6.68-14l-18.25-53.96Z"/>
            <path class="cls-1" d="M254.98,290.83c-.28,0-.55-.18-.64-.46l-3.12-9.35c-.12-.35.07-.74.43-.85.35-.12.74.07.85.43l3.12,9.35c.12.35-.07.74-.43.85-.07.02-.14.03-.21.03Z"/>
          </g>
          <g>
            <path class="cls-5" d="M336.34,223.32c15.41-14.07,29.57-29.82,47.32-40.8,1.56-.97,3.22-1.92,5.05-2.07,1.83-.15,3.88.72,4.5,2.45.63,1.75-.35,3.64-1.4,5.18-3.28,4.84-8.07,9.84-12.98,13.01,0,0,8.12,1.25,7.71,8.89,0,0,4.79.85,2.62,10.09,0,0,2.72,7.23-3.76,11.28-4.66,2.91-7.72,1.75-7.72,1.75,0,0-15.58,19.48-25.73,26.16-10.15,6.68-23.91-28.37-15.61-35.94Z"/>
            <path class="cls-1" d="M357.51,255.57c-.19,0-.37-.08-.5-.23-.25-.28-.22-.7.06-.95,9.29-8.25,19.98-21.57,20.09-21.71.18-.23.49-.31.76-.21.02,0,2.85.97,7.13-1.7,5.92-3.7,3.59-10.2,3.48-10.47-.05-.12-.06-.26-.03-.39,1.05-4.45.39-6.75-.34-7.89-.75-1.17-1.71-1.38-1.75-1.38-.33-.07-.57-.37-.55-.7.38-6.93-6.83-8.14-7.14-8.18-.28-.04-.5-.25-.56-.53-.06-.27.06-.55.29-.71,4.56-2.94,9.34-7.74,12.79-12.82.83-1.23,1.87-3.03,1.32-4.58-.53-1.47-2.36-2.13-3.81-2.01-1.67.14-3.2,1.01-4.75,1.97-13.15,8.14-25.44,19.94-37.34,31.35-3.41,3.27-6.64,6.37-9.88,9.37-.27.25-.7.24-.95-.04-.25-.27-.24-.7.04-.95,3.23-3,6.45-6.09,9.86-9.36,11.94-11.46,24.29-23.31,37.56-31.52,1.63-1.01,3.38-2.01,5.35-2.17,2-.17,4.43.77,5.19,2.89.76,2.12-.48,4.32-1.47,5.79-3.23,4.77-7.62,9.29-11.93,12.35,2.4.8,6.84,3.03,6.79,8.68.54.23,1.36.72,2.04,1.74,1.28,1.95,1.48,4.91.6,8.8.39,1.26,2.14,7.99-4.1,11.88-3.86,2.41-6.73,2.18-7.83,1.95-1.75,2.15-11.43,13.95-19.97,21.53-.13.11-.29.17-.45.17Z"/>
            <path class="cls-1" d="M373.9,227.98c-1.18,0-2.3-.33-3.18-1-1-.75-1.65-2.04-1.68-3.36-.03-1.15.4-2.19,1.2-2.86.28-.24.71-.2.95.08.24.28.2.71-.08.95-.48.41-.74,1.04-.72,1.79.03.92.47,1.81,1.14,2.32,1.43,1.07,3.51.82,4.93.09,1.55-.8,2.75-2.11,4.09-3.84,1.53-1.98,3.4-4.64,4.36-7.7.33-1.06.54-2.14.61-3.2.02-.37.35-.65.72-.63.37.02.65.35.63.72-.08,1.17-.3,2.35-.67,3.52-1.03,3.26-2.99,6.05-4.58,8.12-1.25,1.62-2.66,3.25-4.54,4.22-1.03.53-2.13.79-3.17.79Z"/>
            <path class="cls-1" d="M359.64,223.91c-1.49,0-2.98-.61-3.68-1.98-.17-.33-.04-.74.29-.91.33-.17.74-.04.91.29.66,1.28,2.58,1.53,3.97.96,1.32-.54,2.37-1.59,3.47-2.7.19-.19.38-.38.57-.56,1.27-1.24,2.99-2.69,5.11-2.81,1.19-.07,2.32.28,3.4.63,1.09.35,2.12.67,3.13.54.96-.13,1.82-.72,2.42-1.67.77-1.22,1-2.8.58-4.12-.93-2.95-3.96-4.56-5.68-5.26-3.16-1.29-6.62-1.68-9.99-1.13-.37.06-.71-.19-.77-.56-.06-.37.19-.71.56-.77,3.62-.59,7.32-.17,10.72,1.21,1.94.79,5.36,2.63,6.46,6.11.53,1.69.25,3.7-.73,5.25-.82,1.29-2.02,2.1-3.37,2.28-1.31.18-2.53-.21-3.72-.59-1.01-.32-1.97-.62-2.91-.57-1.67.1-3.15,1.35-4.25,2.43-.19.18-.37.37-.56.55-1.15,1.15-2.34,2.35-3.91,2.99-.62.25-1.31.39-2.01.39Z"/>
            <path class="cls-1" d="M376.37,231.85c-.74,0-1.45-.14-2.09-.41-1.47-.63-2.49-2.03-2.55-3.49-.01-.37.28-.69.65-.7.38-.02.69.28.7.65.03.93.75,1.88,1.73,2.3.92.39,2.07.4,3.24.02,1.17-.38,2.24-1.09,3.13-1.73,3-2.16,5.06-4.41,6.28-6.86.17-.33.57-.47.9-.3.33.17.47.57.3.9-1.32,2.65-3.51,5.06-6.7,7.35-.98.7-2.16,1.48-3.5,1.92-.71.23-1.42.34-2.1.34Z"/>
            <path class="cls-1" d="M377.48,233.43c-.17,0-.35-.07-.48-.2-.46-.46-.82-.99-1.08-1.59-.15-.34,0-.74.35-.89.34-.15.74,0,.89.35.19.43.46.84.8,1.17.26.26.26.69,0,.95-.13.13-.3.2-.48.2Z"/>
          </g>
          <path class="cls-1" d="M257.02,250.93h-58.56c-.84,0-1.57.55-1.81,1.35l-22.25,74.91c-.36,1.21.55,2.43,1.81,2.43h58.56c.84,0,1.57-.55,1.81-1.35l22.25-74.91c.36-1.21-.55-2.43-1.81-2.43Z"/>
          <g>
            <g>
              <path class="cls-5" d="M226.96,309.27c2.52-2.42,4.05-5.06,2.45-7.64-1.61-2.58-5.65-3.18-7.94-1.18,1.7-1.33,3.44-2.72,4.47-4.62,1.03-1.9,1.17-4.45-.25-6.07-1.25-1.43-3.39-1.78-5.25-1.37-.91.2-1.78.56-2.61,1,.81-1.21,1.03-2.91.34-4.23-1.16-2.25-4-3.21-6.52-2.93-2.52.28-4.81,1.56-7.01,2.8-14.77,8.31-43.97,25.2-43.97,25.2-.77,4.2,14.62,38.02,20.44,43.67,3.77-1.13,31.99-23.73,42.69-32.9,1.79-1.54,3.64-3.17,4.55-5.34.91-2.18.57-5.07-1.39-6.39Z"/>
              <path class="cls-1" d="M200.5,301.28c-.23,0-.45-.11-.57-.32-.2-.32-.1-.73.22-.93,5.4-3.32,10.8-6.79,16.06-10.32.31-.21.73-.12.94.18.21.31.12.73-.18.94-5.28,3.54-10.7,7.02-16.11,10.34-.11.07-.23.1-.35.1Z"/>
              <path class="cls-1" d="M207.35,311.41c-.21,0-.42-.1-.55-.28-.22-.3-.15-.72.16-.94l13.94-9.97c.3-.22.72-.15.94.16.22.3.15.72-.16.94l-13.94,9.97c-.12.08-.26.13-.39.13Z"/>
              <path class="cls-1" d="M213.88,319.71c-.22,0-.43-.1-.56-.3-.21-.31-.13-.73.18-.94,4.23-2.86,8.37-5.95,12.31-9.19.29-.24.71-.2.95.09.24.29.19.71-.09.95-3.97,3.26-8.15,6.38-12.41,9.26-.12.08-.25.12-.38.12Z"/>
            </g>
            <path class="cls-1" d="M136.44,370.82c-3.98,0-7.97-.32-11.93-.96-.37-.06-.62-.41-.56-.77.06-.37.4-.62.77-.56,19.46,3.16,39.73-1.72,55.61-13.4.3-.22.72-.16.94.14.22.3.16.72-.14.94-12.94,9.51-28.74,14.6-44.7,14.6Z"/>
            <path class="cls-1" d="M127.71,330.03c-.23,0-.46-.12-.58-.34-.19-.32-.08-.74.25-.92l33-19.06c.32-.19.73-.08.92.25.19.32.08.73-.25.92l-33,19.06c-.11.06-.22.09-.34.09Z"/>
            <path class="cls-1" d="M137.75,322s-.09,0-.14-.01c-.36-.07-.6-.43-.52-.8l8.43-41.12c.07-.36.43-.6.8-.53.36.07.6.43.52.8l-8.43,41.12c-.07.32-.35.54-.66.54Z"/>
          </g>
          <g>
            <path class="cls-1" d="M185.39,273.96c-.13,0-.26-.04-.37-.11-.31-.21-.39-.63-.18-.94,6.74-10.06,8.66-22.99,5.13-34.57-.11-.36.09-.73.45-.84.36-.11.73.09.84.45,3.65,11.97,1.66,25.32-5.3,35.72-.13.19-.34.3-.56.3Z"/>
            <path class="cls-1" d="M182.9,278.57c-.87,0-1.69-.47-2.23-1.27-.56-.84-.66-1.83-.28-2.65.39-.82,1.22-1.37,2.22-1.47,1-.1,1.93.27,2.47,1,.03.04.06.08.08.13.03.04.06.08.09.12.46.78.45,1.78-.02,2.66-.48.89-1.3,1.44-2.21,1.49-.04,0-.08,0-.11,0ZM182.93,274.51c-.06,0-.12,0-.18,0-.52.05-.95.32-1.14.71-.18.38-.11.89.18,1.32.29.44.74.69,1.16.67.42-.02.84-.32,1.09-.78.25-.46.27-.97.05-1.33-.01-.02-.02-.04-.04-.07-.02-.02-.03-.04-.05-.06-.22-.3-.63-.47-1.08-.47Z"/>
          </g>
          <g>
            <path class="cls-1" d="M215.12,267.15c-.06,0-.12,0-.18-.02-.36-.1-.57-.47-.47-.83,2.49-8.99,1.12-19.14-3.65-27.15-.19-.32-.09-.73.23-.92.32-.19.73-.09.92.23,4.96,8.32,6.38,18.86,3.79,28.2-.08.3-.35.49-.65.49Z"/>
            <path class="cls-1" d="M213.96,273.16c-.8,0-1.56-.42-2.07-1.15-.53-.76-.65-1.68-.31-2.45.34-.77,1.09-1.31,2.01-1.44.92-.13,1.79.17,2.33.82.05.06.09.13.11.2.06.05.11.11.14.17.42.73.4,1.65-.04,2.47-.44.82-1.21,1.33-2.05,1.38-.04,0-.08,0-.12,0ZM214,269.44c-.07,0-.15,0-.22.02-.45.06-.82.31-.96.65-.15.33-.08.77.18,1.14.26.37.64.59,1.01.57.36-.02.73-.28.94-.68.22-.4.24-.84.06-1.15-.02-.03-.03-.07-.05-.1-.03-.02-.05-.05-.08-.08-.2-.23-.52-.37-.89-.37Z"/>
          </g>
          <path class="cls-3" d="M211.06,226.18l5.96-2.49s1.94-2.58,1.42-6.23c-.52-3.66-6.51-7.1-10.21-7.1,0,0-25.64-7.62-49.75-1.45-5.47,1.4-10.04,7.57-5.34,13.13,1.44,1.7,3.32,2.68,5.39,3.24-2.77.61,12.25,6.67,9.59,7.43l42.94-6.52Z"/>
          <path class="cls-1" d="M172.48,233.37c-.1,0-.21-.02-.31-.08l-14.95-7.78c-.33-.17-.46-.58-.29-.91.17-.33.58-.46.91-.29l14.95,7.78c.33.17.46.58.29.91-.12.23-.36.36-.6.36Z"/>
        </g>
        <g>
          <g>
            <path class="cls-5" d="M187.01,190.05l-8.77,27.79,22.46,17.38,11.3-34.58s-19.17-15.44-25-10.59Z"/>
            <path class="cls-1" d="M209.51,211c-.06,0-.11,0-.17-.02-.36-.09-.58-.46-.48-.82l2.39-9.27c-5.42-4.3-19.16-13.73-23.66-10.44l-5.5,16.88c-.12.35-.49.55-.85.43-.35-.12-.55-.5-.43-.85l5.57-17.07c.04-.12.11-.23.21-.31,6.08-5.06,23.85,8.97,25.85,10.58.21.17.3.44.23.69l-2.5,9.69c-.08.3-.35.51-.65.51Z"/>
          </g>
          <path class="cls-1" d="M227.68,153.1c2.91,5.22.98,13.03-2.14,17.66-.12.17-5.01,4.72-5.21,4.76-.12.42-11.11,4.18-16.55,3.69-1.58,1.69-3.63,4.04-5.81,7.01-6.96,9.49-11.9,5.22-19.14-4.17-.96-1.25-2.35-2.85-3.07-5.5-1.43-5.26-.16-14.11,14.28-17.14,11.25-2.37,10.39-7.13,18.42-11.64,6.83-3.84,15.87-.68,19.22,5.33Z"/>
          <g>
            <path class="cls-5" d="M223.13,170.23c-.71-3.01-2.22-4.23-2.22-4.23,0,0,.13,4.6-2.38,7.86-2.26-1.76-3.93-3.58-7.4-4.53-2.9-.79-8.43-.51-8.43-.51,0,0,5.48,5.21-2.58,10.97-1.39,1-3.75,1.5-7.17,1.56,0,0-2.09-5.44-6.94-2.28-4.85,3.16-3.05,16.49,7.92,15.59,0,0,8.5,11.59,21.36,9.5,8.08-1.31,8.61-9.01,9.54-18.29,0,0,.06-8.74-1.7-15.64Z"/>
            <path class="cls-1" d="M212.22,205.08c-10.23,0-17.26-8.06-18.6-9.73-4.87.27-8.67-2.21-10.21-6.7-1.39-4.06-.43-8.43,2.23-10.16,1.61-1.04,3.13-1.35,4.52-.89,1.79.58,2.82,2.25,3.22,3.06,3.06-.09,5.14-.56,6.35-1.42,2.58-1.84,3.96-3.79,4.11-5.78.18-2.42-1.58-4.14-1.6-4.16-.19-.19-.26-.47-.16-.72.09-.25.33-.42.6-.44.23-.01,5.68-.28,8.65.53,2.96.81,4.65,2.2,6.43,3.67.22.18.43.36.65.54,1.93-2.98,1.84-6.82,1.84-6.86,0-.26.14-.51.37-.62.24-.12.52-.09.72.08.07.06,1.7,1.4,2.45,4.59,1.76,6.9,1.72,15.44,1.72,15.8l-.08.84c-.89,8.99-1.67,16.75-10.03,18.11-1.09.18-2.15.26-3.18.26ZM193.92,193.98c.21,0,.42.1.54.28.08.11,8.42,11.23,20.71,9.23,7.34-1.19,8.03-8.13,8.9-16.91l.08-.78s.04-8.68-1.68-15.4c0,0,0,0,0-.01-.26-1.11-.64-1.95-1-2.57-.2,1.72-.78,4.33-2.42,6.45-.11.14-.27.23-.45.26-.18.02-.36-.03-.5-.14-.43-.33-.83-.67-1.24-1-1.67-1.38-3.25-2.68-5.93-3.41-1.92-.52-5.11-.55-6.9-.52.59.92,1.24,2.34,1.12,4.09-.17,2.42-1.74,4.7-4.67,6.8-1.5,1.07-3.97,1.62-7.55,1.68-.31,0-.54-.17-.64-.43,0-.02-.85-2.15-2.58-2.7-.99-.32-2.12-.07-3.36.74-2.12,1.38-2.86,5.15-1.68,8.59.65,1.91,2.85,6.28,9.19,5.76.02,0,.04,0,.06,0Z"/>
          </g>
          <path class="cls-1" d="M193.17,190.21c-.28,0-.54-.18-.64-.46-.27-.8-.56-1.63-1.04-2.3-.47-.66-1.12-1.08-1.74-1.12-.37-.03-.65-.35-.63-.72.03-.37.34-.65.72-.63,1.03.07,2.03.68,2.74,1.68.59.83.92,1.79,1.22,2.65.12.35-.07.74-.42.86-.07.02-.15.04-.22.04Z"/>
          <path class="cls-1" d="M196.4,176.59s2.17,9.41,6.86,13.35c4.56,3.83,11.18-4.11,21.36-4.63.49-.02.91.35.91.85.02,3.46-.04,16.21-2.1,19.36-3.01,4.61-26.9,6.18-29.7-9.83,0,0,2.54-7.7-1.02-13.77l3.67-5.33Z"/>
        </g>
      </g>
      <g>
        <path class="cls-1" d="M482.04,616.17c-.26,0-.5-.15-.61-.39l-82.83-179.97c-.16-.34,0-.74.33-.89.34-.16.74,0,.89.33l82.83,179.97c.16.34,0,.74-.33.89-.09.04-.19.06-.28.06Z"/>
        <g>
          <rect class="cls-5" x="32.87" y="426.75" width="439.29" height="8.01"/>
          <path class="cls-1" d="M472.16,435.43H32.87c-.37,0-.67-.3-.67-.67v-8.01c0-.37.3-.67.67-.67h439.29c.37,0,.67.3.67.67v8.01c0,.37-.3.67-.67.67ZM33.55,434.08h437.94v-6.66H33.55v6.66Z"/>
        </g>
      </g>
      <g>
        <g>
          <path class="cls-1" d="M389.39,280.03c1.05,2,2.36,3.85,3.8,5.61,1.02,1.24,2.12,2.42,3.23,3.59-.11.1-.16.25-.03.4,1.5,1.67,3.03,3.32,4.58,4.94,6.34,6.6,13.13,12.81,20.32,18.56,3.61,2.89-.55,8.53,3.26,11.19,3.75,2.61-.65,7.35,3.48,9.39,3.87,1.92,23.88,26.04,28.27,26.11,3.96.06,37.74-4.79,37.18-8.69-4.3-30.36-24.31-59.01-28.07-66.06-7.97-14.96-27.37-26.56-35.6-28.55-8.12-1.97-16.74-2.38-25-.93-7.19,1.26-15.32,4.71-17.3,12.12-1.1,4.15-.1,8.58,1.87,12.34Z"/>
          <path class="cls-1" d="M440.74,262.04s14.32-28.05,29.87-9.47c15.55,18.58-17,24.62-29.87,9.47Z"/>
        </g>
        <g>
          <g>
            <g>
              <path class="cls-5" d="M273.91,352.33s-1.97-2-1.35-3.84c.62-1.84,2.49-2.1,5.49-.75,0,0-1.7-2.54,1.37-3.19,3.07-.66,7.16,3.3,13.76,4.61,6.6,1.3,8.92,1.73,8.92,1.73,0,0-1.38-2.61-5.21-4.87-3.83-2.26-3.32-5.4-1.51-6.56,1.54-.99,4.32.1,6.72,1.87,3.15,2.33,11.01,4.25,17.38,6.98,3.27,1.41,37.07,32.17,37.07,32.17,0,0,30.18-35.97,49.35-46.87,41.27-7.91-19.32,57.38-33.41,82.63-6.82,12.22-24.61,13.5-33.29,2.41-13.13-16.77-26.54-40.93-27.31-42.53,0,0-3.02-2.53-10.54-3.53-7.51-1-17.41-1.73-23.14-6.14-5.73-4.41-6.3-7.82-4.54-9.88,0,0-2.06-2.16.26-4.24Z"/>
              <path class="cls-1" d="M355,426.91c-6.43,0-12.45-2.86-16.36-7.85-12.93-16.52-25.99-39.92-27.31-42.51-.57-.42-3.63-2.45-10.09-3.3-.89-.12-1.81-.23-2.75-.35-7.27-.9-15.51-1.92-20.71-5.92-3.52-2.71-5.42-5.26-5.66-7.58-.11-1.03.13-2,.69-2.83-.31-.47-.7-1.25-.67-2.19.03-.75.32-1.45.86-2.09-.62-.8-1.62-2.42-1.08-4.02.29-.86.82-1.47,1.57-1.79.89-.39,2.02-.36,3.43.1-.04-.36-.01-.75.14-1.14.32-.78,1.06-1.31,2.21-1.55,1.81-.39,3.75.55,6.21,1.73,2.21,1.06,4.71,2.26,7.82,2.88,3.55.7,5.87,1.15,7.25,1.41-.77-.91-2.06-2.16-4.02-3.32-2.75-1.63-3.2-3.53-3.22-4.52-.03-1.3.6-2.49,1.68-3.19,2.44-1.57,6.35,1.06,7.49,1.9,1.82,1.34,5.46,2.61,9.31,3.94,2.65.92,5.39,1.87,7.93,2.96,3.15,1.36,32.31,27.8,36.74,31.82,3.85-4.53,31.31-36.38,49.07-46.48.06-.04.13-.06.21-.08,7.43-1.42,12-.61,13.96,2.5,5.46,8.65-12.69,33.33-28.7,55.11-7.34,9.99-14.28,19.42-17.95,26.01-3.29,5.9-9.41,9.74-16.37,10.28-.57.04-1.13.07-1.69.07ZM274.87,347.56c-.37,0-.65.07-.85.15-.39.17-.66.49-.83.99-.48,1.4,1.17,3.13,1.19,3.15.13.13.2.31.19.49,0,.18-.09.36-.22.48-.56.5-.86,1.04-.88,1.6-.03.92.65,1.66.66,1.67.24.25.25.64.02.91-.55.64-.79,1.4-.71,2.25.14,1.33,1.14,3.57,5.14,6.65,4.91,3.78,12.96,4.77,20.06,5.65.95.12,1.87.23,2.76.35,7.62,1.01,10.75,3.57,10.88,3.68.07.06.13.14.17.22.78,1.61,14.07,25.58,27.24,42.41,3.97,5.07,10.27,7.79,16.88,7.27,6.51-.51,12.22-4.09,15.29-9.59,3.71-6.66,10.67-16.12,18.04-26.15,14.98-20.37,33.62-45.73,28.65-53.59-1.6-2.53-5.79-3.18-12.45-1.92-18.84,10.77-48.76,46.3-49.06,46.66-.12.14-.29.23-.47.24-.18.01-.36-.05-.5-.17-9.38-8.54-34.29-30.93-36.88-32.05-2.5-1.08-5.21-2.02-7.84-2.93-4.12-1.43-7.69-2.67-9.67-4.13-2.46-1.82-4.85-2.56-5.95-1.85-.68.44-1.08,1.2-1.07,2.03.02,1.23.93,2.43,2.55,3.39,3.95,2.33,5.4,5.02,5.46,5.14.12.23.1.51-.05.71-.15.21-.41.31-.66.27-.02,0-2.4-.44-8.93-1.73-3.27-.65-5.97-1.94-8.14-2.99-2.23-1.07-3.99-1.92-5.35-1.62-.47.1-1.07.31-1.24.74-.2.49.15,1.19.3,1.42.16.25.15.58-.05.81-.19.23-.52.3-.79.18-1.33-.6-2.26-.79-2.9-.79Z"/>
            </g>
            <path class="cls-1" d="M294.28,362.36c-4.38,0-8.76-1.13-12.53-3.26-.46-.26-.9-.53-1.35-.8-.78-.47-1.51-.92-2.3-1.3-1.39-.67-2.66-.95-3.79-.85-.38.04-.7-.24-.73-.61-.03-.37.24-.7.61-.73,1.38-.13,2.89.2,4.5.98.85.41,1.64.89,2.41,1.36.44.27.87.53,1.31.78,4.16,2.35,9.11,3.42,13.92,3,.37-.03.7.24.73.61.03.37-.24.7-.61.73-.72.06-1.45.09-2.17.09Z"/>
            <path class="cls-1" d="M296.99,358.05s-.04,0-.06,0c-4.42-.36-8.67-1.49-12.66-3.34-.51-.24-1.02-.49-1.53-.74-1.08-.53-2.19-1.08-3.32-1.49-1.86-.67-3.53-.84-4.96-.52-.36.08-.72-.15-.81-.51-.08-.36.15-.72.51-.81,1.69-.38,3.62-.19,5.72.56,1.21.43,2.36,1,3.47,1.55.5.25,1,.49,1.5.73,3.84,1.79,7.94,2.87,12.2,3.22.37.03.65.36.62.73-.03.35-.32.62-.67.62Z"/>
            <path class="cls-1" d="M297.74,355.07s-.07,0-.1,0c-6.82-1.06-13.48-3.52-19.28-7.11-.32-.2-.41-.61-.22-.93.2-.32.61-.41.93-.22,5.64,3.5,12.13,5.89,18.77,6.92.37.06.62.4.56.77-.05.33-.34.57-.67.57Z"/>
          </g>
          <path class="cls-5" d="M371.29,403.97c-1.33-2.53-5.85-13.65-2.09-22.66,8.76-21.03,34.36-47.73,48.48-49.83l29.25-4.36,5.27,33.12-7.68,90.29h-82.01s8.78-46.56,8.78-46.56Z"/>
          <path class="cls-1" d="M362.51,451.2s-.08,0-.13-.01c-.37-.07-.61-.42-.54-.79l8.74-46.33c-1.87-3.69-5.6-14.4-2.01-23.03,9.09-21.82,34.73-48.11,49-50.24l29.25-4.36c.37-.06.71.2.77.56l5.27,33.12c0,.05.01.11,0,.16l-6.26,73.68c-.03.37-.36.65-.73.61-.37-.03-.65-.36-.62-.73l6.26-73.6-5.15-32.38-28.59,4.26c-13.63,2.03-39.18,28.36-47.95,49.42-3.46,8.32.32,18.77,2.07,22.09.07.13.09.29.07.44l-8.78,46.56c-.06.32-.34.55-.66.55Z"/>
        </g>
        <g>
          <g>
            <g>
              <path class="cls-5" d="M365.63,550.04l43.35,74.5c4.25,7.3-1.27,16.29-10.01,16.29h-124.21c-2.69,0-3.93-3.2-1.89-4.88l35.09-28.76-36.11-61.51,93.78,4.37Z"/>
              <path class="cls-1" d="M398.97,641.5h-124.21c-1.55,0-2.88-.91-3.38-2.33-.49-1.37-.08-2.81,1.07-3.75l34.64-28.39-35.82-61.01c-.13-.21-.12-.48,0-.69.13-.21.35-.33.61-.33l93.78,4.37c.23.01.44.14.55.33l43.35,74.5c2.05,3.53,2.07,7.74.03,11.28-2.17,3.77-6.14,6.02-10.63,6.02ZM273.06,546.41l35.48,60.43c.17.29.1.65-.15.86l-35.09,28.76c-.71.58-.95,1.42-.65,2.25.25.69.93,1.43,2.11,1.43h124.21c4,0,7.53-2,9.46-5.34,1.79-3.11,1.78-6.82-.03-9.93l-43.17-74.18-92.17-4.29Z"/>
            </g>
            <path class="cls-1" d="M366.9,614.79c-3.37,0-6.82-.09-10.39-.25-14.71-.7-29.51-2.75-43.82-4.74-.37-.05-.63-.39-.58-.76.05-.37.39-.63.76-.58,14.28,1.98,29.05,4.03,43.7,4.73,16.49.79,30.75-.25,43.6-3.17.37-.08.72.15.81.51.08.36-.14.72-.51.81-10.19,2.31-21.25,3.46-33.57,3.46Z"/>
          </g>
          <g>
            <g>
              <path class="cls-5" d="M302.83,539.73l-49.04,89.19c-4.03,7.33-11.97,11.91-20.62,11.91h-90.7c-2.54,0-3.67-3.04-1.71-4.58l38.33-29.93,28.05-54.61,95.69-11.98Z"/>
              <path class="cls-1" d="M233.16,641.5h-90.7c-1.48,0-2.73-.88-3.2-2.23-.45-1.3-.02-2.69,1.08-3.55l38.21-29.84,27.98-54.48c.1-.2.3-.33.52-.36l95.69-11.98c.25-.03.5.08.64.29.14.21.15.48.03.7l-49.04,89.19c-4.16,7.56-12.29,12.26-21.21,12.26ZM207.57,552.33l-27.89,54.29c-.04.09-.11.16-.19.22l-38.33,29.93c-.66.52-.9,1.28-.63,2.05.22.64.84,1.32,1.92,1.32h90.7c8.43,0,16.11-4.43,20.03-11.56l48.4-88.03-94.02,11.78Z"/>
            </g>
            <path class="cls-1" d="M232.51,614.22c-17.21,0-34.41-1.45-51.41-4.34-.37-.06-.61-.41-.55-.78s.41-.62.78-.55c27.01,4.59,54.54,5.52,81.82,2.78.37-.04.7.23.74.6.04.37-.23.7-.6.74-10.24,1.03-20.51,1.55-30.78,1.55Z"/>
          </g>
          <g>
            <path class="cls-3" d="M381.11,565.44s-88.96,25.4-178.61-11.38c0,0,23.24-41.63,42.57-72.53,12.04-19.24,33.76-31.01,57.2-31.01h149.75l10.05,18.76c11.22,20.94-3.1,46.13-27.58,48.49-31.21,3.02-59.43,4.8-81.72,4.13l28.34,43.53Z"/>
            <path class="cls-1" d="M287.37,571.15c-.24,0-.47-.13-.59-.35-8.37-15.52-14.99-31.95-19.65-48.83-3.32-12.03-6.35-27.55-.2-40.87,4.11-8.9,12.22-16.71,24.79-23.87.32-.18.74-.07.92.25.18.32.07.74-.25.92-12.32,7.02-20.24,14.63-24.23,23.26-5.97,12.93-2.99,28.14.28,39.94,4.64,16.78,11.21,33.12,19.54,48.55.18.33.05.74-.27.91-.1.05-.21.08-.32.08Z"/>
            <path class="cls-1" d="M352.03,522.32s-.01,0-.02,0l-18.63-.52c-.37-.01-.67-.32-.66-.69.01-.37.33-.66.69-.66l18.63.52c.37.01.67.32.66.69-.01.37-.31.66-.67.66Z"/>
          </g>
        </g>
        <g>
          <path class="cls-5" d="M446.92,327.11s14.32.25,18.07,14.83c5.65,21.96,17.41,123.71,21.8,154.87.55,3.9,4.36,7.19,8.48,7.27,9.35.17,23.07,2.21,22.64,12.73h-58.75c-5.73,0-10.37-4.44-10.37-9.93l-15.68-112.03c-1.22-8.69-.59-17.52,1.83-25.97l11.99-41.76Z"/>
          <path class="cls-1" d="M517.91,517.48h-58.75c-3.76,0-7.23-1.81-9.28-4.84-.21-.31-.13-.73.18-.94.31-.21.73-.13.94.18,1.8,2.66,4.85,4.25,8.16,4.25h58.08c-.04-2.25-.82-4.19-2.31-5.77-4.15-4.41-12.99-5.48-19.67-5.6-4.44-.08-8.53-3.6-9.13-7.85-1.24-8.78-3.06-23.15-5.16-39.78-5.31-41.9-12.58-99.28-16.62-115.01-3.22-12.53-14.35-14.1-16.92-14.29l-11.84,41.25c-2.41,8.41-3.02,17.05-1.81,25.69l7.8,55.68c.05.37-.21.71-.57.76-.37.05-.71-.21-.76-.57l-7.8-55.68c-1.24-8.83-.61-17.66,1.85-26.25l11.99-41.76c.08-.29.35-.5.66-.49.15,0,14.88.43,18.71,15.33,4.07,15.81,11.34,73.24,16.65,115.18,2.11,16.63,3.93,30.99,5.16,39.76.51,3.62,4.02,6.62,7.82,6.69,6.94.13,16.15,1.28,20.63,6.03,1.89,2.01,2.79,4.5,2.67,7.4-.01.36-.31.65-.67.65Z"/>
          <path class="cls-1" d="M494.11,517.27c-.1,0-.2-.02-.29-.07-.34-.16-.48-.56-.32-.9.53-1.11-.19-2.49-1.15-3.23-1.15-.89-2.75-1.25-4.15-1.57l-8-1.83c-2.8-.64-5.53-1.56-6.54-3.95-.15-.34.02-.74.36-.88.34-.14.74.02.88.36.77,1.83,3.15,2.6,5.6,3.16l8,1.83c1.54.35,3.28.75,4.67,1.81,1.41,1.08,2.4,3.11,1.54,4.88-.12.24-.36.38-.61.38Z"/>
        </g>
        <g>
          <g>
            <path class="cls-5" d="M437.14,329.83l-13.07-28.23c-.62-1.35-2.72-7.55-4.08-6.41l-10.03,15.08c-1.16.97-1.68,2.6-1.21,3.8l5.68,19.54c1.05,2.69,23.7-1.65,22.71-3.79Z"/>
            <path class="cls-1" d="M417.77,335.14c-.66,0-1.25-.03-1.73-.09-.8-.11-1.9-.34-2.23-1.18l-5.69-19.6c-.55-1.39.01-3.27,1.35-4.44l9.98-15.01c.04-.05.08-.1.13-.14.31-.26.7-.36,1.09-.26,1.17.29,2.17,2.28,3.59,5.83.18.46.33.84.44,1.07l13.07,28.23s0,0,0,0c.16.35.11.75-.14,1.1-1.5,2.04-13.85,4.49-19.84,4.49ZM415.06,333.37c.08.08.74.56,4.05.4,6.9-.32,16.2-2.7,17.34-3.83l-12.99-28.06c-.11-.25-.27-.64-.47-1.13-1.2-2.98-2.06-4.66-2.57-4.98l-9.89,14.88c-.04.05-.08.1-.13.14-.93.78-1.37,2.11-1.01,3.04l5.68,19.54Z"/>
          </g>
          <g>
            <g>
              <path class="cls-5" d="M399.6,275.74s5.45,10.37,21.8,7.71c-.8,6.31.82,10.58,6.38,11.52,0,0,2.04-2.51,4.99-1.31,2.9,1.19,4.27,4.79,3.32,7.67-.96,2.88-4.05,4.9-7.2,4.93-1.78.02-3.44-.14-5.02-1.43-2.74,2.79-9.73,14.72-22.45,10.38-11.87-4.05-4.59-33.65-1.81-39.47Z"/>
              <path class="cls-1" d="M406.77,316.82c-1.73,0-3.59-.29-5.58-.97-2.41-.82-4.23-2.66-5.41-5.47-4.14-9.85.77-29.81,3.22-34.93.11-.23.34-.38.6-.38.26-.01.49.13.61.36.22.41,5.45,9.9,21.1,7.36.21-.03.42.03.58.18.15.15.23.36.2.57-.8,6.37.93,9.78,5.46,10.7.98-.98,3.05-2.19,5.49-1.2,3.12,1.27,4.81,5.17,3.7,8.51-1.03,3.09-4.32,5.36-7.84,5.39-1.52.01-3.26-.07-4.94-1.2-.3.34-.64.76-1.02,1.23-2.78,3.41-8.05,9.86-16.16,9.86ZM399.73,277.14c-2.47,6.28-6.45,23.83-2.71,32.71,1.02,2.43,2.57,4.02,4.6,4.71,10.44,3.56,16.83-4.26,20.26-8.47.58-.71,1.08-1.32,1.5-1.75.24-.25.64-.27.91-.05,1.34,1.09,2.74,1.3,4.59,1.28,2.95-.03,5.72-1.91,6.57-4.47.88-2.64-.49-5.84-2.93-6.83-2.46-1-4.19,1.09-4.21,1.11-.15.19-.4.28-.64.24-5.28-.9-7.64-4.73-7.03-11.39-12.8,1.77-18.94-4.49-20.91-7.1Z"/>
            </g>
            <path class="cls-1" d="M426.38,302.07c-.18,0-.35-.07-.48-.2-.26-.27-.25-.69.01-.95,1.44-1.4,3.44-2.28,5.49-2.41.38-.03.69.26.71.63.02.37-.26.69-.63.71-1.73.11-3.42.84-4.63,2.03-.13.13-.3.19-.47.19Z"/>
          </g>
          <path class="cls-1" d="M399.82,276.8c-.2,0-.39-.08-.52-.25-1.38-1.69-2.3-3.71-2.65-5.84-.06-.37.19-.71.56-.78.37-.06.71.19.78.56.31,1.89,1.13,3.69,2.37,5.2.24.29.19.71-.1.95-.13.1-.28.15-.43.15Z"/>
        </g>
      </g>
      <g>
        <g>
          <g>
            <g>
              <g>
                <path class="cls-5" d="M468.02,649.62h101.5c13.59,0,22.93-13.05,18.03-25.18l-57.05-141.09h-105.23l56.89,140.7-17.6,17.92c-2.85,2.9-.7,7.65,3.46,7.65Z"/>
                <path class="cls-1" d="M569.52,650.3h-101.5c-2.26,0-4.18-1.25-5.03-3.27-.8-1.91-.38-4.03,1.09-5.53l17.29-17.6-56.72-140.29c-.08-.21-.06-.44.07-.63.13-.19.33-.3.56-.3h105.23c.27,0,.52.17.63.42l57.05,141.09c2.34,5.8,1.67,12.11-1.85,17.33-3.7,5.49-9.99,8.77-16.81,8.77ZM426.28,484.04l56.51,139.77c.1.25.04.53-.14.73l-17.6,17.92c-1.1,1.12-1.4,2.64-.81,4.06.63,1.5,2.08,2.44,3.78,2.44h101.5c6.37,0,12.24-3.06,15.69-8.18,3.26-4.84,3.89-10.7,1.72-16.07l-56.87-140.67h-103.78Z"/>
              </g>
              <path class="cls-1" d="M571.21,624.58h-88.85c-.37,0-.67-.3-.67-.67s.3-.67.67-.67h88.85c.37,0,.67.3.67.67s-.3.67-.67.67Z"/>
            </g>
            <g>
              <path class="cls-5" d="M671.43,436.92l10.29,28.59c7.7,21.38-8.9,43.65-32.54,43.65h-147.04l-65.4,128.17c-3.84,7.52-11.81,12.29-20.56,12.29h-106.61c-3.02,0-4.27-3.69-1.83-5.39l28.5-19.86,62.32-139.8c12.89-28.91,42.56-47.66,75.4-47.66h197.46Z"/>
              <path class="cls-1" d="M370.52,548.04c-.09,0-.19-.02-.27-.06-.34-.15-.49-.55-.34-.89l10.99-24.65c.15-.34.55-.49.89-.34.34.15.49.55.34.89l-10.99,24.65c-.11.25-.36.4-.62.4Z"/>
              <path class="cls-1" d="M416.19,650.3h-106.61c-1.71,0-3.13-1.02-3.63-2.6-.48-1.51.08-3.09,1.41-4.02l28.34-19.75,23.96-53.74c.15-.34.55-.49.89-.34.34.15.49.55.34.89l-24.03,53.91c-.05.11-.13.21-.23.28l-28.5,19.85c-1.02.71-1.13,1.76-.89,2.51.24.76,1,1.65,2.34,1.65h106.61c8.43,0,16.26-4.68,19.96-11.92l65.4-128.17c.12-.23.35-.37.6-.37h147.04c11.26,0,21.73-5.34,28.01-14.28,5.94-8.46,7.36-18.83,3.89-28.47l-10.13-28.15h-196.99c-15.95,0-31.42,4.44-44.73,12.83-.31.2-.73.1-.93-.21-.2-.32-.1-.73.21-.93,13.53-8.53,29.25-13.04,45.45-13.04h197.46c.28,0,.54.18.63.45l10.29,28.59c3.62,10.06,2.14,20.89-4.05,29.71-6.54,9.3-17.42,14.85-29.12,14.85h-146.62l-65.22,127.81c-3.92,7.69-12.23,12.65-21.16,12.65Z"/>
              <path class="cls-1" d="M425.28,625.05h-89.03c-.37,0-.67-.3-.67-.67s.3-.67.67-.67h89.03c.37,0,.67.3.67.67s-.3.67-.67.67Z"/>
            </g>
          </g>
          <g>
            <path class="cls-3" d="M530.22,320.89c6.06-7.84,15.33-12.82,25.48-13.71,5.78-.51,13.03-1.05,21.11-1.45.45,1.39,1.07,2.74,1.87,4.01,2.34,3.69,6.01,6.53,10.1,8.29,4.09,1.76,8.67,2.56,13.14,2.05,4.38-.51,8.54-2.29,11.57-5.41,2.47-2.54,5.43-5.62,6.18-8.95,7.33.4,13.11.98,20,2.01,13.14,1.97,24.67,9.45,31.62,20.29,12.74,19.88,34.79,55.22,35.97,83.66,1.9,45.83-75.88,26.39-75.88,26.39l-87.36-7.68-50.61-37.47s15.75-44.83,36.81-72.03Z"/>
            <g>
              <g>
                <g>
                  <path class="cls-1" d="M561.89,240.66c-2.45-3.68-4.46-8.22-3.06-12.41,1.48-4.42,8.03-6.33,12.33-4.52-.86-1.5-.34-8.78,10.16-8.77,22.3,0,36.25,22.68,37.18,34.41.39,4.88-.47,10.03-3.38,13.97-3.05,4.13-8.01,6.48-13,7.72-6.5,1.62-13.66,1.57-19.58-1.55-4-2.11-7.26-5.8-8.67-10.11-.36-1.1-.6-2.23-.69-3.38-.07-.83.36-2.36.04-3.09-.38-.87-2-1.73-2.71-2.36-1.02-.9-1.99-1.84-2.94-2.82-2.1-2.18-4.01-4.55-5.69-7.08Z"/>
                  <path class="cls-1" d="M572.75,241.27c-.17,0-.35-.07-.48-.2-2.6-2.62-4.52-5.88-5.56-9.42-.11-.36.1-.73.46-.84.36-.1.73.1.84.46.98,3.33,2.79,6.39,5.23,8.85.26.26.26.69,0,.95-.13.13-.3.2-.47.2Z"/>
                </g>
                <path class="cls-5" d="M573.83,304.64l6.58-.72-1.74-22.46s5.47-27.37,26.53-6.93l3.86,30.5,6.19.78s-2.51,14.22-20.19,14.19c-15.02-.03-21.51-5.1-21.24-15.35Z"/>
                <path class="cls-1" d="M612.76,306.16s-.06,0-.08,0l-3.68-.46c-.31-.04-.55-.28-.59-.58l-3.83-30.26c-6.13-5.9-11.44-8.2-15.8-6.85-6.75,2.1-9.19,12.45-9.42,13.51l1.73,22.36c.03.36-.24.68-.6.72l-3.88.42c-.37.04-.7-.23-.74-.6-.04-.37.23-.7.6-.74l3.23-.35-1.69-21.81c0-.06,0-.12.01-.18.1-.5,2.52-12.18,10.36-14.62,4.89-1.52,10.72.94,17.31,7.34.11.11.18.25.2.4l3.79,29.98,3.16.4c.37.05.63.38.59.75-.04.34-.33.59-.67.59Z"/>
                <g>
                  <path class="cls-5" d="M594.9,275.06c-3.16,2.7-6.36,5.31-10.44,6.09-4.08.77-8.51.14-11.97-2.15-5.8-3.84-7.9-11.64-6.88-18.52,1.02-6.88,4.6-13.07,8.16-19.05,0,0,13.57,10.4,26.04,12.07,1.59,4.04,1.77,7.99.85,11.86,0,0,2.77-2.51,5.31-.85,2.75,1.79,3.86,5.66,2.53,8.66-1.32,3-4.76,4.84-8.03,4.52-1.84-.18-3.54-.54-5.02-2.11l-.56-.51Z"/>
                  <path class="cls-1" d="M581.12,282.14c-3.29,0-6.45-.89-9-2.58-5.54-3.68-8.36-11.2-7.17-19.18,1.08-7.27,5.05-13.93,8.25-19.29.1-.17.26-.28.45-.32.19-.04.38,0,.54.13.13.1,13.58,10.31,25.72,11.94.24.03.45.19.54.42,1.36,3.47,1.77,7.05,1.2,10.64,1.19-.61,2.97-1.09,4.7.04,3.04,1.98,4.26,6.15,2.78,9.5-1.42,3.21-5.08,5.28-8.71,4.92-1.74-.17-3.73-.51-5.45-2.31-.03-.03-.05-.06-.07-.09-3.27,2.78-6.36,5.11-10.31,5.86-1.16.22-2.32.33-3.47.33ZM573.97,242.42c-3.06,5.14-6.69,11.44-7.69,18.16-.91,6.11.77,14,6.58,17.86,3.15,2.09,7.33,2.84,11.47,2.05,3.8-.72,6.84-3.11,10.13-5.93.28-.24.71-.21.95.07.07.09.12.18.15.29.14.02.28.09.39.2,1.26,1.33,2.69,1.71,4.6,1.9,3.06.3,6.15-1.43,7.34-4.12,1.2-2.71.17-6.22-2.28-7.82-2.07-1.35-4.39.7-4.49.79-.22.2-.54.23-.8.08-.25-.15-.38-.45-.31-.74.9-3.79.68-7.43-.68-11.09-11.04-1.64-22.58-9.67-25.35-11.7Z"/>
                </g>
                <path class="cls-1" d="M598.07,272.59c-.31,0-.58-.21-.66-.52-.08-.36.14-.73.51-.81,1.51-.35,2.95-.93,4.27-1.74.32-.19.73-.09.93.23.19.32.09.73-.23.93-1.45.88-3.02,1.52-4.67,1.9-.05.01-.1.02-.15.02Z"/>
              </g>
              <path class="cls-3" d="M523.21,402.85s-32.69.2-39.77-23.38c-8.14-27.05,23.91-57.27,55.17-70.57,13.04-5.55,24.62-3.94,35.18-4.64.71,2.27,1.72,4.46,3.23,6.31,2.9,3.57,7.54,5.53,11.99,6.24,4.27.68,8.77.45,12.94-.71,3.75-1.05,7.41-2.94,10.18-5.71,1.27-1.27,2.32-2.72,3.1-4.29,25.92,2.06,42.25,5.2,55.94,21.91,14.92,18.21,27.75,49.99,28.76,74.83h-176.72Z"/>
              <g>
                <path class="cls-1" d="M532.64,394.97c-.11,0-.21-.03-.31-.08-.33-.17-.45-.58-.28-.91l25.14-47.48c.17-.33.58-.45.91-.28.33.17.45.58.28.91l-25.14,47.48c-.12.23-.35.36-.6.36Z"/>
                <g>
                  <path class="cls-5" d="M542.62,307.26c9.14-8.34,8.23-26.92,24.75-34.25,1.73,2.61,4.02,5.48,5.3,6.17,6.46-4.81,8.45-6.44,14.42-10.77,1.89-1.38,4.43-2.62,6.87-2.29,1.18.16,2.73.98,3.38,1.99,1.27,1.99-.7,4.69-1.92,6.49-3.38,4.99-5.5,5.99-8.95,9.72,0,0,8.38,1.28,7.95,9.17,0,0,4.95.88,2.71,10.41,0,0,2.8,7.47-3.88,11.64-4.81,3-7.97,1.81-7.97,1.81,0,0-16.07,20.1-26.55,27-10.47,6.89-24.67-29.27-16.11-37.09Z"/>
                  <path class="cls-1" d="M587.01,318.26c-1.2,0-1.9-.25-1.97-.28-.35-.13-.52-.52-.39-.87.13-.35.52-.52.87-.39.02,0,2.95,1.01,7.38-1.75,6.12-3.82,3.71-10.55,3.6-10.83-.05-.12-.06-.26-.03-.39,1.09-4.64.39-7.02-.38-8.2-.78-1.19-1.78-1.39-1.78-1.39-.34-.06-.57-.36-.56-.7.39-7.19-7.07-8.42-7.38-8.47-.25-.04-.45-.21-.54-.45-.08-.24-.02-.5.15-.68,1.19-1.26,2.18-2.26,3.15-3.23,2.05-2.07,3.83-3.85,6.51-7.19,1.31-1.63,1.8-3.38,1.33-4.7-.55-1.52-2.44-2.21-3.95-2.08-1.73.15-3.31,1.05-4.91,2.04-3.31,2.05-5.33,3.69-7.46,5.43-2.05,1.67-4.16,3.39-7.63,5.69-.23.15-.53.15-.76,0-2.03-1.39-4.01-3.62-5.3-5.91-9.54,4.57-13.21,13.32-16.46,21.05-2.1,5.01-4.09,9.74-7.41,12.82-.27.25-.7.24-.95-.04-.25-.27-.24-.7.04-.95,3.11-2.88,5.04-7.48,7.09-12.35,3.41-8.11,7.28-17.31,17.72-22.02.33-.15.72-.01.88.31,1.08,2.13,2.93,4.33,4.8,5.72,3.18-2.14,5.19-3.77,7.14-5.35,2.17-1.77,4.22-3.43,7.6-5.53,1.68-1.04,3.49-2.07,5.51-2.24,2.05-.18,4.55.79,5.34,2.97.91,2.54-.78,5.04-1.55,6-2.73,3.4-4.52,5.21-6.6,7.3-.73.74-1.48,1.49-2.32,2.36,2.36.71,7.41,2.95,7.35,9.07.55.23,1.41.74,2.1,1.8,1.32,2.01,1.53,5.06.61,9.07.4,1.28,2.21,8.23-4.22,12.24-2.8,1.75-5.09,2.15-6.6,2.15Z"/>
                  <path class="cls-1" d="M585.38,317.96c-.24,0-.46-.12-.59-.34-.18-.32-.07-.74.25-.92,3.03-1.71,5.37-4.83,6.06-6.5.14-.34.54-.51.88-.36.34.14.51.54.36.88-.9,2.16-3.53,5.4-6.64,7.16-.11.06-.22.09-.33.09Z"/>
                  <path class="cls-1" d="M565.68,283.25c-.28,0-.54-.17-.64-.45-.12-.35.06-.74.41-.86.05-.02,4.9-1.73,6.76-3.21.29-.23.71-.19.95.1.23.29.19.72-.1.95-2.03,1.63-6.95,3.36-7.16,3.43-.07.03-.15.04-.22.04Z"/>
                </g>
              </g>
            </g>
            <g>
              <path class="cls-1" d="M474.83,436.38h131.54c.78,0,1.56-.19,2.2-.61,1.5-.99,2.03-2.76,1.43-4.28-1.55-3.11-4.76-4.21-9.5-4.21h-134.31l1.74,4.53c1.07,2.75,3.82,4.57,6.89,4.57Z"/>
              <path class="cls-1" d="M474.09,436.38c-2.63,0-5-1.53-5.97-3.87l-23.29-55.92c-.62-1.48-.43-3.16.51-4.49.94-1.32,2.5-2.11,4.17-2.11h80.85c4.87,0,9.21,2.94,10.84,7.33l21.86,59.06h-88.97Z"/>
            </g>
            <path class="cls-1" d="M672.52,392.03s0,0-.01,0l-58.81-1.07c-.37,0-.67-.31-.66-.69,0-.37.33-.68.69-.66l58.81,1.07c.37,0,.67.31.66.69,0,.37-.31.66-.67.66Z"/>
            <path class="cls-1" d="M652.88,388.83c-.29,0-.55-.18-.64-.47-2.12-6.74-5.04-13.27-8.68-19.39-.98-1.65-1.86-2.41-2.85-2.38-.37,0-.68-.28-.7-.65-.01-.37.28-.68.65-.7,2-.07,3.26,1.7,4.05,3.04,3.7,6.21,6.66,12.83,8.81,19.67.11.36-.09.73-.44.85-.07.02-.14.03-.2.03Z"/>
            <g>
              <path class="cls-5" d="M630.39,428.81c.6,3.86-3.49,6.84-7.22,5.26-7.62-3.23-15.88-4.86-24.22-4.78l-36.06.35s-2.82-44.46,48.17-39.09c0,0,15.39,12.81,19.33,38.26Z"/>
              <path class="cls-1" d="M589.46,430.48c-.33,0-.61-.24-.67-.57-.41-2.71.24-5.71,1.84-8.44,1.31-2.23,3.23-4.32,5.87-6.4.52-.4,1.13-.86,1.83-1.16.34-.14.74.02.88.36.14.34-.02.74-.36.88-.55.23-1.05.61-1.52.97-2.51,1.97-4.32,3.93-5.54,6.02-1.44,2.46-2.04,5.14-1.67,7.55.06.37-.2.71-.57.77-.03,0-.07,0-.1,0Z"/>
              <path class="cls-1" d="M577.8,429.84s-.07,0-.1,0c-.37-.05-.62-.4-.57-.77.45-3.01,1.09-6.54,2.48-9.88,1.47-3.51,3.63-6.39,6.26-8.32.3-.22.72-.16.94.14.22.3.16.72-.14.94-2.43,1.79-4.44,4.47-5.81,7.75-1.33,3.2-1.96,6.62-2.39,9.55-.05.34-.34.58-.67.58Z"/>
              <path class="cls-1" d="M568.46,429.84c-.34,0-.63-.25-.67-.59-1.64-13.13,7.1-21.08,7.48-21.42.28-.25.7-.22.95.05.25.28.22.7-.05.95-.09.08-8.58,7.83-7.04,20.24.05.37-.22.71-.59.75-.03,0-.06,0-.08,0Z"/>
            </g>
          </g>
        </g>
        <path class="cls-1" d="M697.76,645.2c-.37,0-.67-.3-.67-.67v-80.48c0-23.33-18.99-42.32-42.34-42.32h-147.31c-.37,0-.67-.3-.67-.67s.3-.67.67-.67h147.31c24.09,0,43.69,19.59,43.69,43.67v80.48c0,.37-.3.67-.67.67Z"/>
      </g>
      <g>
        <g>
          <g>
            <path class="cls-5" d="M74.93,156.29H27.29c-14.43,0-26.24,11.81-26.24,26.24s11.81,26.24,26.24,26.24h47.65c14.43,0,26.24-11.81,26.24-26.24s-11.81-26.24-26.24-26.24Z"/>
            <path class="cls-1" d="M74.93,209.44H27.29c-14.84,0-26.92-12.07-26.92-26.92s12.07-26.92,26.92-26.92h47.65c14.84,0,26.92,12.07,26.92,26.92s-12.07,26.92-26.92,26.92ZM27.29,156.96c-14.1,0-25.57,11.47-25.57,25.57s11.47,25.57,25.57,25.57h47.65c14.1,0,25.57-11.47,25.57-25.57s-11.47-25.57-25.57-25.57H27.29Z"/>
          </g>
          <g>
            <ellipse class="cls-2" cx="69.34" cy="183.1" rx="6.25" ry="6.24"/>
            <ellipse class="cls-2" cx="51.11" cy="183.1" rx="6.25" ry="6.24"/>
            <ellipse class="cls-2" cx="32.88" cy="183.1" rx="6.25" ry="6.24"/>
          </g>
        </g>
        <g>
          <ellipse class="cls-5" cx="105.63" cy="210.22" rx="8.12" ry="8.12"/>
          <path class="cls-1" d="M105.63,219.01c-4.85,0-8.8-3.94-8.8-8.79s3.95-8.79,8.8-8.79,8.8,3.94,8.8,8.79-3.95,8.79-8.8,8.79ZM105.63,202.78c-4.11,0-7.45,3.34-7.45,7.44s3.34,7.44,7.45,7.44,7.45-3.34,7.45-7.44-3.34-7.44-7.45-7.44Z"/>
        </g>
      </g>
      <g>
        <g>
          <ellipse class="cls-5" cx="292.05" cy="322.87" rx="6.65" ry="6.01"/>
          <path class="cls-3" d="M292.05,329.56c-4.04,0-7.32-3-7.32-6.69s3.29-6.69,7.32-6.69,7.32,3,7.32,6.69-3.29,6.69-7.32,6.69ZM292.05,317.53c-3.29,0-5.97,2.4-5.97,5.34s2.68,5.34,5.97,5.34,5.98-2.4,5.98-5.34-2.68-5.34-5.98-5.34Z"/>
        </g>
        <g>
          <rect class="cls-5" x="283.39" y="312.05" width="17.31" height="10.76"/>
          <path class="cls-3" d="M300.7,323.49h-17.31c-.37,0-.67-.3-.67-.67v-10.76c0-.37.3-.67.67-.67h17.31c.37,0,.67.3.67.67v10.76c0,.37-.3.67-.67.67ZM284.07,322.14h15.96v-9.41h-15.96v9.41Z"/>
        </g>
        <g>
          <path class="cls-5" d="M316.4,282.39c0-13.44-10.9-24.34-24.35-24.34s-24.35,10.9-24.35,24.34c0,10.37,6.49,19.22,15.64,22.73v6.93h17.44v-6.93c9.14-3.51,15.64-12.36,15.64-22.73Z"/>
          <path class="cls-3" d="M300.77,312.73h-17.44c-.37,0-.67-.3-.67-.67v-6.48c-9.37-3.8-15.64-13.06-15.64-23.19,0-13.79,11.23-25.01,25.03-25.01s25.03,11.22,25.03,25.01c0,10.13-6.26,19.39-15.64,23.19v6.48c0,.37-.3.67-.67.67ZM284,311.38h16.09v-6.26c0-.28.17-.53.43-.63,9.09-3.49,15.2-12.37,15.2-22.1,0-13.05-10.62-23.67-23.68-23.67s-23.68,10.62-23.68,23.67c0,9.73,6.11,18.61,15.2,22.1.26.1.43.35.43.63v6.26Z"/>
        </g>
        <path class="cls-3" d="M300.64,317.85h-17.18c-.37,0-.67-.3-.67-.67s.3-.67.67-.67h17.18c.37,0,.67.3.67.67s-.3.67-.67.67Z"/>
        <g>
          <path class="cls-3" d="M290.66,309.67c-.31,0-.6-.22-.66-.54l-6.84-33.51c-.07-.36.16-.72.53-.8.37-.08.72.16.8.53l6.84,33.51c.07.36-.16.72-.53.8-.05,0-.09.01-.14.01Z"/>
          <path class="cls-3" d="M293.43,309.67s-.09,0-.14-.01c-.36-.07-.6-.43-.53-.8l6.84-33.51c.07-.37.43-.6.8-.53.36.07.6.43.53.8l-6.84,33.51c-.07.32-.35.54-.66.54Z"/>
        </g>
        <path class="cls-3" d="M291.27,279.06s-.05,0-.08,0c-.3-.04-.54-.26-.59-.56l-.74-4.48-1.09,2.2c-.11.23-.35.37-.6.37h-1.97c-.37,0-.67-.3-.67-.67s.3-.67.67-.67h1.55l1.84-3.7c.13-.26.42-.41.7-.37.29.04.52.27.57.56l.7,4.24,1.56-3.69c.11-.26.35-.42.64-.41.28,0,.52.19.62.45l1.03,2.92h2.27c.37,0,.67.3.67.67s-.3.67-.67.67h-2.75c-.29,0-.54-.18-.64-.45l-.61-1.73-1.79,4.24c-.11.25-.35.41-.62.41Z"/>
      </g>
      <g>
        <path class="cls-1" d="M684.68,222.88c-.37,0-.67-.3-.67-.67v-106.92h-37.88c-.37,0-.67-.3-.67-.67s.3-.67.67-.67h38.55c.37,0,.67.3.67.67v107.59c0,.37-.3.67-.67.67Z"/>
        <g>
          <ellipse class="cls-2" cx="682.95" cy="273.52" rx="6.64" ry="6.63" transform="translate(-.58 1.44) rotate(-.12)"/>
          <ellipse class="cls-2" cx="682.95" cy="254.16" rx="6.64" ry="6.63" transform="translate(-.54 1.46) rotate(-.12)"/>
          <ellipse class="cls-3" cx="682.95" cy="234.81" rx="6.64" ry="6.63" transform="translate(-.5 1.45) rotate(-.12)"/>
        </g>
      </g>
    </g>
    <g>
      <path class="cls-4" d="M24.55,48.2h-10.33V8.57H1.19V0h36.38v8.57h-13.03v39.62Z"/>
      <path class="cls-4" d="M76.18,8.91v39.29h-9.72v-16.54h-14.51v16.54h-9.72V8.91h9.72v14.99h14.51v-14.99h9.72Z"/>
      <path class="cls-4" d="M85.7,8.91h23.69v7.56h-13.97v7.56h13.03v7.56h-13.03v8.98h13.97v7.63h-23.69V8.91Z"/>
      <path class="cls-4" d="M26.77,70.9c-1.94,0-3.68.37-5.23,1.11-1.55.74-2.87,1.82-3.95,3.24-1.08,1.42-1.9,3.13-2.46,5.13-.56,2-.84,4.29-.84,6.85,0,3.38.47,6.27,1.42,8.67.94,2.41,2.37,4.24,4.29,5.5,1.91,1.26,4.31,1.89,7.19,1.89,2.11,0,4.15-.25,6.11-.74,1.96-.5,3.93-1.12,5.91-1.89v8.78c-2.03.86-4.08,1.47-6.18,1.86-2.09.38-4.42.57-6.99.57-5.13,0-9.35-1.02-12.66-3.07-3.31-2.05-5.76-4.94-7.36-8.67-1.6-3.73-2.4-8.05-2.4-12.96,0-3.64.51-6.99,1.52-10.02,1.01-3.04,2.51-5.66,4.49-7.86,1.98-2.21,4.41-3.92,7.29-5.13,2.88-1.21,6.21-1.82,9.99-1.82,2.38,0,4.8.26,7.26.78,2.45.52,4.78,1.32,6.99,2.4l-3.38,8.23c-1.62-.76-3.34-1.43-5.16-1.99-1.82-.56-3.77-.84-5.84-.84Z"/>
      <path class="cls-4" d="M60.46,71.91c5.49,0,9.58.98,12.29,2.94,2.7,1.96,4.05,4.87,4.05,8.74,0,2.57-.69,4.69-2.06,6.38-1.37,1.69-3.09,3.05-5.16,4.08l11.88,17.14h-10.8l-9.25-14.71h-3.71v14.71h-9.72v-39.29h12.49ZM60.05,89.12c2.34,0,4.09-.42,5.26-1.25,1.17-.83,1.76-2.15,1.76-3.95,0-1.58-.56-2.75-1.69-3.51-1.13-.76-2.9-1.15-5.33-1.15h-2.36v9.86h2.36Z"/>
      <path class="cls-4" d="M85.9,71.91h23.69v7.56h-13.97v7.56h13.03v7.56h-13.03v8.98h13.97v7.63h-23.69v-39.29Z"/>
      <path class="cls-4" d="M112.7,111.2l13.84-39.49h12.29l13.97,39.49h-10.4l-2.63-8.44h-13.97l-2.63,8.44h-10.46ZM135.25,87.03c-.23-.67-.5-1.56-.81-2.67-.32-1.1-.63-2.24-.94-3.41-.32-1.17-.59-2.16-.81-2.97-.14.81-.36,1.8-.67,2.97-.32,1.17-.63,2.32-.95,3.44-.32,1.13-.56,2-.74,2.63l-2.43,7.9h9.72l-2.36-7.9Z"/>
      <path class="cls-4" d="M182.56,71.78v8.3h-10.06v31.12h-10.06v-31.12h-9.99v-8.3h30.1Z"/>
      <path class="cls-4" d="M185.87,111.2v-5.67l4.86-1.82v-24.44l-4.86-1.75v-5.74h19.91v5.74l-4.86,1.75v24.44l4.86,1.82v5.67h-19.91Z"/>
      <path class="cls-4" d="M221.24,111.2l-13.5-39.29h10.26l7.02,23.49c.27.86.58,1.97.95,3.34.36,1.37.63,2.6.81,3.68.22-1.12.53-2.35.91-3.68.38-1.33.69-2.42.91-3.27l6.95-23.56h10.19l-13.57,39.29h-10.94Z"/>
      <path class="cls-4" d="M250.47,71.91h23.69v7.56h-13.97v7.56h13.03v7.56h-13.03v8.98h13.97v7.63h-23.69v-39.29Z"/>
    </g>
  </g>
</svg>