<?xml version="1.0" encoding="UTF-8"?>
<svg id="Layer_2" data-name="Layer 2" xmlns="http://www.w3.org/2000/svg" viewBox="0 0 734.45 716.32">
  <defs>
    <style>
      .cls-1 {
        fill: #5b626f;
      }

      .cls-2 {
        opacity: .3;
      }

      .cls-2, .cls-3 {
        fill: #f60;
      }

      .cls-4 {
        fill: #b7b7b7;
      }

      .cls-5 {
        fill: #fff;
      }
    </style>
  </defs>
  <g id="Layer_3" data-name="Layer 3">
    <g>
      <path class="cls-4" d="M23.15,675.35c-1.94,0-3.68.37-5.23,1.11s-2.87,1.82-3.95,3.24c-1.08,1.42-1.9,3.13-2.46,5.13-.56,2-.84,4.29-.84,6.85,0,3.38.47,6.27,1.42,8.67.95,2.41,2.37,4.24,4.29,5.5,1.91,1.26,4.31,1.89,7.19,1.89,2.12,0,4.15-.25,6.11-.74,1.96-.49,3.93-1.12,5.91-1.89v8.77c-2.03.86-4.08,1.47-6.18,1.86-2.09.38-4.42.57-6.99.57-5.13,0-9.35-1.02-12.66-3.07-3.31-2.05-5.76-4.94-7.36-8.67-1.6-3.73-2.4-8.05-2.4-12.96,0-3.65.51-6.99,1.52-10.02s2.51-5.66,4.49-7.86c1.98-2.2,4.41-3.91,7.29-5.13s6.21-1.82,9.99-1.82c2.38,0,4.8.26,7.26.78,2.45.52,4.78,1.32,6.99,2.4l-3.38,8.23c-1.62-.76-3.34-1.43-5.16-1.99-1.82-.56-3.77-.84-5.84-.84Z"/>
      <path class="cls-4" d="M78.03,701c0,2.97-.63,5.59-1.89,7.86-1.26,2.27-3.15,4.06-5.67,5.37-2.52,1.31-5.69,1.96-9.52,1.96-5.45,0-9.61-1.36-12.49-4.08-2.88-2.72-4.32-6.4-4.32-11.04v-24.71h9.72v23.56c0,3.06.62,5.23,1.86,6.51,1.24,1.28,3.03,1.92,5.37,1.92,2.61,0,4.48-.67,5.6-2.02,1.12-1.35,1.69-3.51,1.69-6.48v-23.49h9.65v24.64Z"/>
      <path class="cls-4" d="M114.01,676.23v8.3h-10.06v31.12h-10.06v-31.12h-9.99v-8.3h30.11Z"/>
      <path class="cls-4" d="M146.74,676.23v8.3h-10.06v31.12h-10.06v-31.12h-9.99v-8.3h30.11Z"/>
      <path class="cls-4" d="M150.05,715.65v-5.67l4.86-1.82v-24.44l-4.86-1.75v-5.74h19.91v5.74l-4.86,1.75v24.44l4.86,1.82v5.67h-19.91Z"/>
      <path class="cls-4" d="M213.77,676.36v39.29h-12.35l-16.4-28.82h-.27c.04.5.09,1.15.13,1.96.04.81.09,1.71.13,2.7.04.99.09,2,.13,3.04s.09,2.02.14,2.97v18.16h-8.64v-39.29h12.42l16.4,28.49h.13c0-.5-.02-1.14-.07-1.92-.05-.79-.09-1.65-.14-2.6s-.09-1.91-.13-2.9-.07-1.93-.07-2.84v-18.22h8.57Z"/>
      <path class="cls-4" d="M256.02,713.83c-2.02.67-4.34,1.24-6.95,1.69-2.61.45-5.36.67-8.24.67-3.87,0-7.25-.74-10.12-2.23s-5.13-3.72-6.75-6.72c-1.62-2.99-2.43-6.76-2.43-11.31,0-4.14.8-7.71,2.4-10.7,1.6-2.99,3.95-5.32,7.05-6.99,3.1-1.66,6.93-2.5,11.47-2.5,2.43,0,4.75.24,6.95.71,2.2.47,4.14,1.07,5.8,1.79l-3.24,7.76c-1.44-.72-2.94-1.26-4.49-1.62-1.55-.36-3.23-.54-5.03-.54-2.47,0-4.49.55-6.04,1.65-1.55,1.1-2.69,2.58-3.41,4.42-.72,1.85-1.08,3.89-1.08,6.14,0,3.87.85,6.84,2.56,8.91,1.71,2.07,4.12,3.1,7.22,3.1.72,0,1.56-.05,2.53-.17.97-.11,1.72-.24,2.26-.37v-6.95h-7.49v-7.7h17.01v20.93Z"/>
      <path class="cls-4" d="M261.76,701.74v-8.37h17.75v8.37h-17.75Z"/>
      <path class="cls-4" d="M315.29,715.65h-27.74v-48.2h27.74v8.37h-17.55v10.6h16.33v8.37h-16.33v12.42h17.55v8.44Z"/>
      <path class="cls-4" d="M357.67,695.2c0,4.55-.88,8.34-2.63,11.38-1.76,3.04-4.23,5.31-7.43,6.82-3.2,1.51-6.95,2.26-11.27,2.26h-12.69v-39.42h13.57c6.57,0,11.62,1.63,15.15,4.89,3.53,3.26,5.3,7.95,5.3,14.07ZM347.15,695.6c0-3.78-.82-6.59-2.46-8.44-1.64-1.85-4.08-2.77-7.32-2.77h-3.58v23.08h2.83c3.6,0,6.25-.98,7.96-2.94,1.71-1.96,2.57-4.94,2.57-8.94Z"/>
      <path class="cls-4" d="M397.9,713.83c-2.02.67-4.34,1.24-6.95,1.69-2.61.45-5.36.67-8.24.67-3.87,0-7.25-.74-10.12-2.23s-5.13-3.72-6.75-6.72c-1.62-2.99-2.43-6.76-2.43-11.31,0-4.14.8-7.71,2.4-10.7,1.6-2.99,3.95-5.32,7.05-6.99,3.1-1.66,6.93-2.5,11.47-2.5,2.43,0,4.75.24,6.95.71,2.2.47,4.14,1.07,5.8,1.79l-3.24,7.76c-1.44-.72-2.94-1.26-4.49-1.62-1.55-.36-3.23-.54-5.03-.54-2.47,0-4.49.55-6.04,1.65-1.55,1.1-2.69,2.58-3.41,4.42-.72,1.85-1.08,3.89-1.08,6.14,0,3.87.85,6.84,2.56,8.91,1.71,2.07,4.12,3.1,7.22,3.1.72,0,1.56-.05,2.53-.17.97-.11,1.72-.24,2.26-.37v-6.95h-7.49v-7.7h17.01v20.93Z"/>
      <path class="cls-4" d="M406.48,676.36h23.69v7.56h-13.97v7.56h13.03v7.56h-13.03v8.98h13.97v7.63h-23.69v-39.29Z"/>
      <path class="cls-4" d="M485.32,702.28c0,2.84-.7,5.31-2.09,7.43-1.4,2.12-3.41,3.75-6.04,4.89-2.63,1.15-5.84,1.72-9.62,1.72-1.67,0-3.3-.11-4.89-.34-1.6-.23-3.13-.55-4.59-.98-1.46-.43-2.85-.96-4.15-1.59v-9.52c2.29.99,4.67,1.9,7.12,2.73,2.45.83,4.89,1.25,7.32,1.25,1.66,0,3-.22,4.02-.67,1.01-.45,1.75-1.06,2.23-1.82.47-.76.71-1.64.71-2.63,0-1.21-.42-2.25-1.25-3.11-.83-.85-1.95-1.65-3.34-2.4-1.39-.74-2.99-1.54-4.79-2.4-1.13-.54-2.34-1.18-3.65-1.92-1.31-.74-2.55-1.66-3.75-2.77-1.19-1.1-2.17-2.44-2.94-4.02-.77-1.57-1.15-3.46-1.15-5.67,0-2.88.66-5.34,1.99-7.39,1.33-2.05,3.22-3.61,5.67-4.69,2.45-1.08,5.34-1.62,8.67-1.62,2.52,0,4.92.29,7.19.88,2.27.58,4.65,1.42,7.12,2.5l-3.31,7.97c-2.21-.9-4.18-1.6-5.94-2.09-1.75-.49-3.55-.74-5.4-.74-1.26,0-2.34.2-3.24.61-.9.41-1.59.97-2.06,1.69-.47.72-.71,1.58-.71,2.57,0,1.13.34,2.08,1.01,2.87.67.79,1.69,1.54,3.04,2.26,1.35.72,3.04,1.58,5.06,2.56,2.47,1.17,4.58,2.39,6.31,3.65,1.73,1.26,3.07,2.75,4.02,4.46.94,1.71,1.42,3.83,1.42,6.34Z"/>
      <path class="cls-4" d="M506.04,676.23c5.35,0,9.27,1.14,11.75,3.41,2.47,2.27,3.71,5.39,3.71,9.35,0,1.8-.3,3.51-.91,5.13s-1.53,3.04-2.77,4.25c-1.24,1.21-2.83,2.18-4.79,2.9-1.96.72-4.31,1.08-7.05,1.08h-3.44v13.3h-10.12v-39.42h13.63ZM505.36,694.45c1.75,0,3.18-.42,4.29-1.25,1.1-.83,1.65-2.13,1.65-3.88,0-1.58-.44-2.84-1.32-3.78-.88-.94-2.24-1.42-4.08-1.42h-3.38v10.33h2.83Z"/>
      <path class="cls-4" d="M540.67,676.36c5.49,0,9.58.98,12.28,2.94,2.7,1.96,4.05,4.87,4.05,8.74,0,2.56-.69,4.69-2.06,6.38-1.37,1.69-3.09,3.05-5.16,4.08l11.88,17.14h-10.8l-9.25-14.71h-3.71v14.71h-9.72v-39.29h12.49ZM540.26,693.58c2.34,0,4.09-.42,5.26-1.25,1.17-.83,1.75-2.15,1.75-3.95,0-1.58-.56-2.74-1.69-3.51s-2.9-1.15-5.33-1.15h-2.36v9.86h2.36Z"/>
      <path class="cls-4" d="M563.41,715.65v-5.67l4.86-1.82v-24.44l-4.86-1.75v-5.74h19.91v5.74l-4.86,1.75v24.44l4.86,1.82v5.67h-19.91Z"/>
      <path class="cls-4" d="M627.13,676.36v39.29h-12.35l-16.4-28.82h-.27c.04.5.09,1.15.13,1.96.04.81.09,1.71.13,2.7.04.99.09,2,.13,3.04s.09,2.02.14,2.97v18.16h-8.64v-39.29h12.42l16.4,28.49h.13c0-.5-.02-1.14-.07-1.92-.05-.79-.09-1.65-.14-2.6s-.09-1.91-.13-2.9-.07-1.93-.07-2.84v-18.22h8.57Z"/>
      <path class="cls-4" d="M663.45,676.23v8.3h-10.06v31.12h-10.06v-31.12h-9.99v-8.3h30.11Z"/>
      <path class="cls-4" d="M669.45,676.36h23.69v7.56h-13.97v7.56h13.03v7.56h-13.03v8.98h13.97v7.63h-23.69v-39.29Z"/>
      <path class="cls-4" d="M713.46,676.36c5.49,0,9.58.98,12.28,2.94,2.7,1.96,4.05,4.87,4.05,8.74,0,2.56-.69,4.69-2.06,6.38-1.37,1.69-3.09,3.05-5.16,4.08l11.88,17.14h-10.8l-9.25-14.71h-3.71v14.71h-9.72v-39.29h12.49ZM713.06,693.58c2.34,0,4.09-.42,5.26-1.25,1.17-.83,1.75-2.15,1.75-3.95,0-1.58-.56-2.74-1.69-3.51s-2.9-1.15-5.33-1.15h-2.36v9.86h2.36Z"/>
    </g>
    <g>
      <path class="cls-4" d="M563.92,75.65h-10.33v-39.62h-13.03v-8.57h36.38v8.57h-13.03v39.62Z"/>
      <path class="cls-4" d="M615.56,36.36v39.29h-9.72v-16.54h-14.51v16.54h-9.72v-39.29h9.72v14.99h14.51v-14.99h9.72Z"/>
      <path class="cls-4" d="M625.08,36.36h23.69v7.56h-13.97v7.56h13.03v7.56h-13.03v8.98h13.97v7.63h-23.69v-39.29Z"/>
    </g>
    <g>
      <g>
        <g>
          <g>
            <rect class="cls-5" x="147.85" y="192.77" width="221.93" height="335.19" rx="15.17" ry="15.17" transform="translate(517.62 720.74) rotate(180)"/>
            <path class="cls-1" d="M354.61,528.66h-191.59c-8.75,0-15.86-7.12-15.86-15.86V207.94c0-8.75,7.12-15.86,15.86-15.86h191.59c8.75,0,15.86,7.12,15.86,15.86v304.86c0,8.75-7.12,15.86-15.86,15.86ZM163.02,193.47c-7.98,0-14.47,6.49-14.47,14.47v304.86c0,7.98,6.49,14.47,14.47,14.47h191.59c7.98,0,14.47-6.49,14.47-14.47V207.94c0-7.98-6.49-14.47-14.47-14.47h-191.59Z"/>
          </g>
          <g>
            <rect class="cls-5" x="156.87" y="202.49" width="203.88" height="314.83" rx="11.49" ry="11.49" transform="translate(517.62 719.81) rotate(180)"/>
            <path class="cls-1" d="M349.26,518.02h-180.89c-6.72,0-12.19-5.47-12.19-12.19V213.98c0-6.72,5.47-12.19,12.19-12.19h180.89c6.72,0,12.19,5.47,12.19,12.19v291.85c0,6.72-5.47,12.19-12.19,12.19ZM168.37,203.19c-5.95,0-10.8,4.84-10.8,10.8v291.85c0,5.95,4.84,10.8,10.8,10.8h180.89c5.95,0,10.8-4.84,10.8-10.8V213.98c0-5.95-4.84-10.8-10.8-10.8h-180.89Z"/>
          </g>
          <path class="cls-1" d="M279.44,212.67h-36.56c-.38,0-.7-.31-.7-.7s.31-.7.7-.7h36.56c.38,0,.7.31.7.7s-.31.7-.7.7Z"/>
        </g>
        <rect class="cls-2" x="175.8" y="410.95" width="166.02" height="66.48" rx="7.85" ry="7.85"/>
        <rect class="cls-2" x="175.8" y="328.43" width="166.02" height="66.48" rx="7.85" ry="7.85"/>
        <rect class="cls-2" x="175.8" y="245.91" width="166.02" height="66.48" rx="7.85" ry="7.85"/>
      </g>
      <g id="Services">
        <g>
          <g>
            <path class="cls-5" d="M319.28,350.59h333.06c6.45,0,11.69,5.24,11.69,11.69v226.82h-356.45v-226.82c0-6.45,5.24-11.69,11.69-11.69Z"/>
            <path class="cls-1" d="M664.04,589.8h-356.45c-.38,0-.7-.31-.7-.7v-226.82c0-6.83,5.56-12.39,12.39-12.39h333.06c6.83,0,12.39,5.56,12.39,12.39v226.82c0,.38-.31.7-.7.7ZM308.29,588.41h355.05v-226.12c0-6.06-4.93-11-11-11h-333.06c-6.06,0-11,4.93-11,11v226.12Z"/>
          </g>
          <path class="cls-1" d="M653.01,568.33h-334.39c-.38,0-.7-.31-.7-.7v-195.58c0-.38.31-.7.7-.7h334.39c.38,0,.7.31.7.7v195.58c0,.38-.31.7-.7.7ZM319.31,566.94h333v-194.18h-333v194.18Z"/>
          <g>
            <path class="cls-5" d="M670.23,618.57h-368.3c-16.85,0-32.35-7.2-40.34-18.76l-3.85-5.56c-2.7-3.9.1-9.23,4.85-9.23h446.45c4.53,0,7.37,4.9,5.11,8.82l-2.11,3.66c-7.39,12.82-23.76,21.07-41.81,21.07Z"/>
            <path class="cls-1" d="M670.23,619.27h-368.3c-17.1,0-32.78-7.3-40.92-19.06l-3.85-5.56c-1.42-2.05-1.57-4.59-.42-6.79,1.16-2.21,3.34-3.53,5.84-3.53h446.45c2.38,0,4.52,1.23,5.71,3.29,1.19,2.06,1.19,4.51,0,6.57l-2.11,3.66c-7.5,13.01-24.15,21.42-42.41,21.42ZM262.59,585.72c-1.97,0-3.69,1.04-4.61,2.78-.91,1.74-.79,3.74.33,5.35l3.85,5.56c7.88,11.38,23.12,18.46,39.77,18.46h368.3c17.77,0,33.94-8.13,41.2-20.72l2.11-3.66c.93-1.62.93-3.56,0-5.18-.94-1.63-2.62-2.6-4.5-2.6h-446.45Z"/>
          </g>
        </g>
        <g>
          <rect class="cls-2" x="335.99" y="503.65" width="297.28" height="45.51" rx="5.37" ry="5.37"/>
          <rect class="cls-2" x="335.99" y="447.16" width="297.28" height="45.51" rx="5.37" ry="5.37"/>
          <rect class="cls-2" x="335.99" y="390.66" width="297.28" height="45.51" rx="5.37" ry="5.37"/>
        </g>
      </g>
      <g>
        <g>
          <rect class="cls-5" x="15.8" y="333.18" width="156.57" height="285.25" rx="12.35" ry="12.35" transform="translate(188.16 951.62) rotate(180)"/>
          <path class="cls-1" d="M160.02,619.13H28.14c-7.19,0-13.04-5.85-13.04-13.04v-260.56c0-7.19,5.85-13.04,13.04-13.04h131.88c7.19,0,13.04,5.85,13.04,13.04v260.56c0,7.19-5.85,13.04-13.04,13.04ZM28.14,333.88c-6.42,0-11.65,5.23-11.65,11.65v260.56c0,6.42,5.23,11.65,11.65,11.65h131.88c6.42,0,11.65-5.23,11.65-11.65v-260.56c0-6.42-5.23-11.65-11.65-11.65H28.14Z"/>
        </g>
        <path class="cls-1" d="M153.32,610.08H34.84c-6.65,0-12.06-5.41-12.06-12.06v-245.2c0-6.65,5.41-12.06,12.06-12.06h118.48c6.65,0,12.06,5.41,12.06,12.06v245.2c0,6.65-5.41,12.06-12.06,12.06ZM34.84,342.15c-5.88,0-10.67,4.78-10.67,10.67v245.2c0,5.88,4.78,10.67,10.67,10.67h118.48c5.88,0,10.67-4.78,10.67-10.67v-245.2c0-5.88-4.78-10.67-10.67-10.67H34.84Z"/>
        <path class="cls-1" d="M108.75,350.22h-31.12c-.38,0-.7-.31-.7-.7s.31-.7.7-.7h31.12c.38,0,.7.31.7.7s-.31.7-.7.7Z"/>
        <g>
          <rect class="cls-2" x="38" y="535.37" width="110.38" height="44.2" rx="5.22" ry="5.22"/>
          <rect class="cls-2" x="38" y="480.51" width="110.38" height="44.2" rx="5.22" ry="5.22"/>
          <rect class="cls-2" x="38" y="425.64" width="110.38" height="44.2" rx="5.22" ry="5.22"/>
          <rect class="cls-2" x="38" y="370.62" width="110.38" height="44.2" rx="5.22" ry="5.22"/>
        </g>
      </g>
      <g>
        <g>
          <g>
            <path class="cls-5" d="M542.21,262.31l13.2-49.82c3.43-12.93,14.44-22.43,27.74-23.92,17.73-1.99,43.82-4.3,69.66-4.28,21.65.01,40.42,15.03,45.3,36.12,3.66,15.84,7.25,35.16,8.33,53.44,1.12,18.99-17.86,32.72-35.53,25.66l-58.09-23.19-23.88-3.61-46.72-10.39Z"/>
            <path class="cls-1" d="M680.55,302.37c-3.37,0-6.77-.64-10.02-1.94l-57.99-23.15-23.76-3.6-46.79-10.41c-.27-.06-.5-.22-.64-.46-.14-.23-.18-.51-.11-.78l13.2-49.82c3.56-13.43,14.78-23.1,28.59-24.66,17.47-1.96,43.76-4.31,69.77-4.29,22.22.01,41.25,15.18,46.27,36.89,4.63,20.01,7.44,38.05,8.35,53.61.55,9.27-3.62,18.05-11.15,23.48-4.68,3.37-10.17,5.11-15.73,5.11ZM543.44,261.56l45.7,10.17,23.81,3.6c.08.01.15.03.22.06l58.09,23.19c7.97,3.18,16.88,2.08,23.84-2.94,6.97-5.03,10.83-13.15,10.32-21.74-.91-15.45-3.71-33.38-8.31-53.28-4.81-20.8-23.03-35.33-44.32-35.35-25.97,0-52.13,2.32-69.54,4.28-12.99,1.46-23.54,10.56-26.88,23.18l-12.93,48.82Z"/>
          </g>
          <path class="cls-1" d="M662.28,258.87c-.46,0-.88-.32-.98-.8l-8.13-38.9c-.11-.54.23-1.07.77-1.18.54-.11,1.07.23,1.18.77l8.13,38.9c.11.54-.23,1.07-.77,1.18-.07.01-.14.02-.21.02Z"/>
          <path class="cls-1" d="M591.64,264.29c-.14,0-.28-.03-.42-.09-.5-.23-.72-.83-.49-1.33,6.74-14.62,16.8-17.53,29.76-17.41,13.34.13,48.93,15.28,50.44,15.93.51.22.74.8.53,1.31-.22.51-.81.74-1.31.53-.37-.16-36.73-15.65-49.67-15.77-12.55-.12-21.61,2.56-27.93,16.25-.17.37-.53.58-.91.58Z"/>
          <path class="cls-1" d="M604.68,270.15c-.06,0-.12,0-.18-.02-.54-.1-.9-.62-.81-1.16,1-5.52,5.05-10.34,10.32-12.28.52-.19,1.09.08,1.28.59.19.52-.08,1.09-.59,1.28-4.62,1.7-8.16,5.92-9.04,10.76-.09.48-.51.82-.98.82Z"/>
          <path class="cls-1" d="M597.2,267.15c-.05,0-.11,0-.16-.01-.55-.09-.91-.6-.83-1.15.93-5.74,4.75-10.88,9.98-13.43.5-.24,1.09-.03,1.34.46.24.5.03,1.09-.46,1.34-4.65,2.26-8.06,6.84-8.88,11.95-.08.49-.5.84-.99.84Z"/>
          <path class="cls-1" d="M587.94,271.4c-.48,0-.9-.35-.98-.84l-8.16-48.94c-.09-.54.28-1.06.82-1.15.55-.09,1.06.28,1.15.82l8.16,48.94c.09.54-.28,1.06-.82,1.15-.06,0-.11.01-.17.01Z"/>
        </g>
        <g>
          <path class="cls-1" d="M622.96,154.68s9.3-15.13,6.92-25.07c-1.89-7.86-7.39-8.18-10.13-6.55-.31.18-4.17-7.7-10.97-7.7-7.53,0-7.44,5.91-7.44,5.91,0,0-5.8-5.97-16.71-5.97-10.01,0-16.89,15.62,2.59,30.81,19.48,15.19,32.35,13.22,35.74,8.57Z"/>
          <g>
            <path class="cls-5" d="M621.91,157l7.95,27.3,6.12.28s-15.86,16.07-34.15,2.12l5.41-2.41-3.8-16.77,18.47-10.52Z"/>
            <path class="cls-1" d="M617.32,193.36c-4.89,0-10.39-1.52-16.09-5.87-.28-.21-.43-.56-.39-.91.04-.35.26-.65.59-.8l4.66-2.08-3.62-15.97c-.1-.43.1-.87.48-1.09l18.47-10.52c.27-.15.59-.17.87-.06.28.11.5.35.58.65l7.75,26.61,5.41.25c.39.02.74.27.88.63.14.37.06.79-.22,1.07-.11.12-8.16,8.08-19.37,8.08ZM603.83,186.9c13.49,9.23,25.24,2.04,29.63-1.44l-3.64-.17c-.43-.02-.79-.31-.91-.72l-7.6-26.09-16.72,9.52,3.64,16.05c.11.46-.13.94-.57,1.13l-3.83,1.71Z"/>
          </g>
          <g>
            <path class="cls-5" d="M591.44,161.66c.64,2.72,1.44,5.52,3.28,7.62,2.93,3.34,8.1,4.14,12.26,2.56,4.1-1.56,7.32-5.26,8.31-9.54,3.37-.29,6.56-2.18,8.42-4.99,1.2-1.81,1.82-4.29.66-6.12-1.02-1.6-3.14-2.21-5.01-1.92-1.87.3-3.53,1.34-5.05,2.48-3.2-.58,4.06-12.29-10.32-16.1-3.35-.89-3.7,5.52-11.03.81-2.76-1.78-2.85.91-3.23,3.73-.98,7.18.07,14.47,1.73,21.47Z"/>
            <path class="cls-1" d="M602.66,173.63c-3.37,0-6.6-1.3-8.69-3.69-2.01-2.29-2.83-5.23-3.5-8.05-2.04-8.62-2.6-15.56-1.75-21.83l.09-.66c.25-1.99.47-3.7,1.79-4.32,1.19-.55,2.47.27,2.89.54,4.03,2.59,5.43,1.48,6.9.31.95-.76,2.13-1.7,3.85-1.25,10.55,2.8,10.29,9.92,10.16,13.75-.02.67-.05,1.52.01,2.01,1.37-.96,2.96-1.86,4.79-2.15,2.04-.32,4.68.28,6.01,2.37,1.48,2.33.63,5.25-.67,7.21-1.92,2.89-5.04,4.86-8.46,5.36-1.23,4.33-4.53,7.95-8.75,9.56-1.52.58-3.11.86-4.67.86ZM592.41,161.42c.61,2.57,1.35,5.24,3.06,7.19,2.48,2.84,7.17,3.8,11.15,2.29,3.77-1.43,6.78-4.9,7.69-8.83.1-.42.46-.74.89-.77,3.05-.26,5.99-2,7.68-4.55.91-1.37,1.62-3.5.65-5.03-.83-1.31-2.67-1.68-4.01-1.47-1.72.27-3.3,1.31-4.61,2.29-.22.17-.5.23-.78.18-1.87-.34-1.8-2.39-1.73-4.37.14-3.95.33-9.36-8.67-11.74-.71-.19-1.18.15-2.09.88-1.68,1.34-3.99,3.17-9.22-.19-.71-.45-.97-.41-.97-.41-.32.21-.52,1.8-.65,2.76l-.09.68c-.82,6.02-.28,12.73,1.71,21.1Z"/>
          </g>
          <path class="cls-1" d="M615.16,159.08c-.23,0-.46-.08-.65-.24-.42-.36-.46-.99-.1-1.41,1.43-1.66,3.5-2.75,5.68-3,.55-.06,1.04.33,1.11.88.06.55-.33,1.04-.88,1.11-1.68.19-3.28,1.04-4.39,2.32-.2.23-.48.35-.76.35Z"/>
        </g>
        <g>
          <g>
            <path class="cls-1" d="M490.51,270.61l123.49,4.06v-7.87c0-3.35-2.71-6.06-6.06-6.06h-117.43v9.87Z"/>
            <path class="cls-1" d="M484.06,266.14h76.23c3.26,0,5.65-3.06,4.86-6.22l-14.41-58.12c-.55-2.24-2.56-3.8-4.86-3.8h-76.23c-3.26,0-5.65,3.06-4.86,6.22l14.41,58.12c.55,2.24,2.56,3.8,4.86,3.8Z"/>
          </g>
          <polygon class="cls-5" points="508.31 226.55 514.97 226.55 513.35 219.89 506.69 219.89 508.31 226.55"/>
        </g>
        <g>
          <g>
            <path class="cls-5" d="M470.09,437.3l-73.84-20c-3.86-1.04-4.91-6.01-1.81-8.53l16.1-13.07,65.76,20.54-6.21,21.06Z"/>
            <path class="cls-1" d="M470.09,438.3c-.09,0-.17-.01-.26-.03l-73.84-20c-2.15-.58-3.77-2.29-4.23-4.47-.46-2.18.33-4.4,2.05-5.8l16.1-13.07c.26-.21.61-.28.93-.18l65.76,20.54c.52.16.81.71.66,1.24l-6.21,21.06c-.13.43-.53.72-.96.72ZM410.75,396.81l-15.69,12.73c-1.16.94-1.67,2.37-1.36,3.84.31,1.46,1.35,2.57,2.8,2.96l72.9,19.74,5.66-19.17-64.31-20.09Z"/>
          </g>
          <g>
            <path class="cls-5" d="M540.33,453.72l-3.21,17.47c-.84,4.6-4.85,7.93-9.52,7.93h-74.92c-5.09,0-7.71-6.09-4.2-9.78l21.6-22.77,70.24,7.15Z"/>
            <path class="cls-1" d="M527.6,480.11h-74.92c-2.76,0-5.15-1.58-6.24-4.11-1.09-2.54-.59-5.36,1.31-7.36l21.6-22.77c.21-.22.52-.34.83-.31l70.24,7.15c.28.03.53.17.7.39.17.22.23.51.18.78l-3.21,17.47c-.93,5.07-5.35,8.75-10.5,8.75ZM470.47,447.61l-21.27,22.41c-1.34,1.41-1.7,3.4-.93,5.19.77,1.79,2.46,2.9,4.41,2.9h74.92c4.19,0,7.78-2.99,8.54-7.11l3.01-16.4-68.68-6.99Z"/>
          </g>
          <path class="cls-3" d="M680.35,281.83s12.9,48.34-10.61,63.56c-3.97,2.57-9.77,5.69-17.02,5.69-34.73,0-96.25-.01-96.25-.01l-15.68,107.17s-34.65,5.08-76.01-6.03l5.59-32.55-59.65-23.34s24.24-59.32,43.93-104.56c12.12-27.84,41.93-43.54,71.74-37.78,24.55,4.74,58.8,12.23,104.4,23.99l49.56,3.87Z"/>
          <path class="cls-1" d="M470.09,417.5c-.05,0-.1,0-.15-.01-.55-.08-.92-.6-.83-1.14.57-3.71,14.25-91.17,29.34-112.43,5.1-7.18,12.77-11.72,22.8-13.49,12.95-2.28,26.72.87,37.79,8.65l65.54,46.03c.45.32.56.94.24,1.39-.32.45-.94.56-1.39.24l-65.54-46.03c-10.64-7.47-23.87-10.5-36.29-8.31-9.5,1.67-16.74,5.94-21.52,12.67-14.82,20.88-28.85,110.67-28.99,111.57-.08.49-.5.85-.99.85Z"/>
        </g>
        <g>
          <path class="cls-5" d="M706.42,273.85c1.12,18.99-17.86,32.72-35.53,25.66l-56.1-25.62,37.81,3.95,51.57-25.54c1.04,7.16,1.84,14.43,2.26,21.54Z"/>
          <path class="cls-1" d="M684.06,302.14c-.49,0-.92-.36-.99-.86-.08-.55.31-1.05.85-1.13,12.82-1.79,22.27-13.32,21.51-26.25-.39-6.62-1.15-13.84-2.25-21.45-.08-.55.3-1.05.85-1.13.55-.08,1.05.3,1.13.85,1.11,7.67,1.87,14.95,2.27,21.62.82,13.97-9.38,26.42-23.23,28.35-.05,0-.09,0-.14,0Z"/>
          <path class="cls-1" d="M633.14,281.23c-.23,0-.46-.08-.64-.23-.42-.36-.48-.99-.12-1.41,10.77-12.8,7.22-26.39,7.19-26.53-.15-.53.17-1.08.7-1.23.53-.15,1.08.17,1.23.7.16.6,3.86,14.75-7.59,28.34-.2.23-.48.36-.77.36Z"/>
        </g>
      </g>
      <path class="cls-3" d="M470.25,60.14c-2.03,0-4.03.15-5.98.45-9.07-11.98-23.44-19.72-39.62-19.72-22.88,0-42.13,15.47-47.89,36.52-2.46-.61-5.02-.93-7.67-.93-17.6,0-31.88,14.27-31.88,31.88s14.27,31.88,31.88,31.88h101.17c22.11,0,40.03-17.92,40.03-40.03s-17.92-40.03-40.03-40.03Z"/>
      <g>
        <path class="cls-5" d="M192.93,94.94c.33-.3.63-.63.92-.96,3.75,2.5,7.81,4.38,12.02,5.63-.07.43-.13.87-.15,1.32-.28,6.02,4.37,11.12,10.39,11.4,6.02.27,11.13-4.38,11.41-10.41.02-.45,0-.89-.03-1.33,4.31-.86,8.53-2.37,12.5-4.52.25.36.52.71.83,1.04,4.06,4.45,10.96,4.76,15.42.7,4.46-4.06,4.78-10.97.72-15.42-.3-.33-.63-.63-.96-.92,2.51-3.76,4.39-7.81,5.65-12.03.43.07.87.13,1.32.15,6.02.27,11.13-4.38,11.41-10.41s-4.37-11.12-10.39-11.4c-.45-.02-.89,0-1.33.03-.86-4.31-2.36-8.52-4.51-12.49.36-.25.71-.52,1.04-.83,4.46-4.06,4.78-10.97.72-15.42-4.06-4.45-10.96-4.76-15.42-.7-.33.3-.63.63-.92.96-3.75-2.5-7.81-4.38-12.02-5.63.07-.43.13-.87.15-1.32.28-6.02-4.37-11.12-10.39-11.4s-11.13,4.38-11.41,10.41c-.02.45,0,.89.03,1.33-4.31.86-8.52,2.37-12.5,4.52-.25-.36-.52-.71-.83-1.04-4.06-4.45-10.96-4.76-15.42-.7-4.46,4.06-4.78,10.97-.72,15.42.3.33.63.63.96.92-2.51,3.76-4.39,7.81-5.65,12.03-.43-.07-.87-.13-1.32-.15-6.02-.27-11.13,4.38-11.41,10.41s4.37,11.12,10.39,11.4c.45.02.89,0,1.33-.03.86,4.31,2.36,8.52,4.51,12.49-.36.25-.71.52-1.04.83-4.46,4.06-4.78,10.97-.72,15.42,4.06,4.45,10.96,4.76,15.42.7ZM205.07,41.71c8.27-7.55,21.09-6.96,28.63,1.3,7.54,8.26,6.94,21.08-1.33,28.63-8.27,7.55-21.09,6.96-28.63-1.3-7.54-8.26-6.94-21.08,1.33-28.63Z"/>
        <path class="cls-1" d="M216.62,113.35c-.18,0-.36,0-.55-.01-3.18-.14-6.11-1.52-8.25-3.87-2.14-2.35-3.24-5.39-3.09-8.57,0-.18.02-.37.04-.57-3.79-1.2-7.4-2.9-10.75-5.04-.14.14-.27.27-.41.4,0,0,0,0,0,0-4.86,4.43-12.41,4.09-16.83-.77-2.14-2.35-3.24-5.39-3.09-8.57.15-3.18,1.52-6.11,3.88-8.25.14-.12.28-.25.43-.37-1.83-3.54-3.18-7.29-4.03-11.17-.19,0-.38,0-.57,0-3.18-.14-6.11-1.52-8.25-3.87-2.14-2.35-3.24-5.39-3.09-8.57.31-6.56,5.9-11.66,12.45-11.36.18,0,.37.02.57.04,1.21-3.79,2.9-7.4,5.05-10.76-.14-.14-.27-.27-.39-.41-2.14-2.35-3.24-5.39-3.09-8.57.15-3.18,1.53-6.11,3.88-8.25,2.35-2.14,5.41-3.25,8.58-3.1,3.18.14,6.11,1.52,8.25,3.87.12.14.25.28.37.43,3.54-1.83,7.29-3.19,11.18-4.04,0-.2,0-.38.01-.57.31-6.56,5.9-11.65,12.45-11.36,3.18.14,6.11,1.52,8.25,3.87,2.14,2.35,3.24,5.39,3.09,8.57,0,.18-.02.37-.04.57,3.79,1.2,7.4,2.89,10.75,5.04.14-.14.27-.27.41-.4,4.86-4.43,12.41-4.09,16.83.77,4.42,4.85,4.07,12.4-.78,16.83-.14.12-.28.25-.43.37,1.83,3.54,3.18,7.29,4.03,11.17.2,0,.38,0,.57,0,3.18.14,6.11,1.52,8.25,3.87,2.14,2.35,3.24,5.39,3.09,8.57-.31,6.56-5.89,11.66-12.45,11.36-.18,0-.37-.02-.57-.04-1.21,3.79-2.9,7.4-5.05,10.76.14.14.27.27.39.41,2.14,2.35,3.24,5.39,3.09,8.57-.15,3.18-1.53,6.11-3.88,8.25-2.35,2.14-5.39,3.25-8.58,3.1-3.18-.14-6.11-1.52-8.25-3.87-.12-.14-.25-.28-.37-.43-3.54,1.83-7.29,3.19-11.18,4.04,0,.2,0,.38-.01.57-.3,6.38-5.58,11.37-11.91,11.37ZM193.85,92.99c.19,0,.38.05.55.17,3.63,2.42,7.58,4.27,11.75,5.51.48.14.79.63.7,1.12-.08.44-.12.84-.14,1.2-.12,2.64.79,5.18,2.57,7.13,1.78,1.96,4.22,3.1,6.87,3.22,5.45.25,10.11-3.99,10.37-9.45.02-.37,0-.76-.02-1.21-.04-.5.31-.96.8-1.05,4.27-.85,8.38-2.34,12.22-4.42.44-.24,1-.11,1.29.3.26.37.51.68.75.94,1.78,1.96,4.22,3.1,6.87,3.22,2.65.12,5.18-.8,7.14-2.58,1.96-1.79,3.1-4.23,3.23-6.87.12-2.64-.79-5.18-2.57-7.13-.25-.27-.52-.53-.87-.83-.38-.33-.46-.89-.18-1.31,2.42-3.63,4.28-7.58,5.52-11.76.14-.48.63-.78,1.12-.7.45.07.84.12,1.2.14,5.45.25,10.11-3.99,10.37-9.45.12-2.64-.79-5.18-2.57-7.13-1.78-1.96-4.22-3.1-6.87-3.22-.36-.02-.76,0-1.21.03-.5.03-.96-.31-1.06-.8-.85-4.27-2.33-8.38-4.41-12.21-.24-.44-.11-1,.3-1.29.37-.27.67-.51.94-.75,4.04-3.69,4.33-9.97.65-14-3.68-4.04-9.96-4.32-14.01-.64-.27.24-.54.53-.84.87-.33.38-.89.46-1.31.18-3.63-2.42-7.58-4.27-11.75-5.51-.48-.14-.79-.63-.7-1.13.08-.44.12-.84.14-1.2.12-2.64-.79-5.18-2.57-7.13-1.78-1.96-4.22-3.1-6.87-3.22-5.45-.25-10.11,3.99-10.37,9.45-.02.37,0,.76.02,1.21.04.5-.31.96-.8,1.05-4.27.85-8.38,2.34-12.22,4.42-.45.24-1,.11-1.29-.3-.26-.37-.51-.68-.75-.94-1.78-1.96-4.22-3.1-6.87-3.22-2.63-.12-5.18.8-7.14,2.58-1.96,1.79-3.1,4.23-3.23,6.87-.12,2.64.79,5.18,2.57,7.13.24.27.53.54.87.83.38.33.46.89.18,1.31-2.42,3.63-4.28,7.58-5.52,11.76-.14.48-.63.78-1.12.7-.45-.07-.84-.12-1.2-.14-5.45-.25-10.11,3.99-10.37,9.45-.12,2.64.79,5.18,2.57,7.13,1.78,1.96,4.22,3.1,6.87,3.22.36.02.76,0,1.21-.03.51-.04.96.31,1.06.8.85,4.27,2.33,8.38,4.41,12.21.24.44.11,1-.3,1.29-.37.27-.67.51-.94.75-1.96,1.79-3.1,4.23-3.23,6.87-.12,2.64.79,5.18,2.57,7.13,3.68,4.04,9.96,4.32,14,.64.27-.24.54-.53.84-.87.2-.23.48-.35.76-.35ZM192.93,94.94h0,0ZM218.7,77.93c-5.77,0-11.52-2.33-15.71-6.92-3.83-4.19-5.79-9.63-5.52-15.3.27-5.67,2.72-10.91,6.92-14.74l.67.74-.67-.74c4.2-3.83,9.64-5.8,15.31-5.54,5.67.26,10.91,2.71,14.73,6.9,3.83,4.19,5.79,9.63,5.52,15.3-.26,5.67-2.72,10.91-6.92,14.74-4.08,3.72-9.21,5.55-14.34,5.55ZM218.72,37.41c-4.82,0-9.39,1.77-12.98,5.04-3.8,3.47-6.03,8.21-6.27,13.35-.24,5.14,1.54,10.06,5,13.86,7.15,7.84,19.36,8.4,27.22,1.24,3.8-3.47,6.03-8.21,6.27-13.35.24-5.14-1.54-10.06-5-13.86-3.47-3.8-8.2-6.02-13.35-6.25-.3-.01-.6-.02-.9-.02Z"/>
      </g>
      <path class="cls-2" d="M123.98,114.15c.14-.26.26-.52.37-.79,2.86.77,5.79,1.1,8.67,1,.04.28.1.57.18.85,1.08,3.81,5.05,6.02,8.86,4.93,3.81-1.09,6.02-5.06,4.94-8.87-.08-.28-.18-.56-.29-.82,2.51-1.44,4.82-3.26,6.85-5.43.23.17.47.33.73.47,3.46,1.92,7.83.68,9.76-2.78,1.93-3.46.69-7.83-2.77-9.75-.26-.14-.52-.26-.79-.37.78-2.86,1.11-5.79,1.01-8.67.28-.05.57-.1.85-.18,3.81-1.09,6.02-5.06,4.94-8.87-1.08-3.81-5.05-6.02-8.86-4.93-.28.08-.56.18-.82.29-1.44-2.51-3.25-4.82-5.42-6.84.17-.23.33-.47.47-.73,1.93-3.46.69-7.83-2.77-9.75s-7.83-.68-9.76,2.78c-.14.26-.26.52-.37.79-2.86-.77-5.79-1.1-8.67-1-.04-.28-.1-.57-.18-.85-1.08-3.81-5.05-6.02-8.86-4.93-3.81,1.09-6.02,5.06-4.94,8.87.08.28.18.56.29.82-2.51,1.44-4.82,3.26-6.85,5.43-.23-.17-.47-.33-.73-.47-3.46-1.92-7.83-.68-9.76,2.78s-.69,7.83,2.77,9.75c.26.14.52.26.79.37-.78,2.86-1.11,5.79-1.01,8.67-.28.05-.57.1-.85.18-3.81,1.09-6.02,5.06-4.94,8.87,1.08,3.81,5.05,6.02,8.86,4.93.28-.08.56-.18.82-.29,1.44,2.51,3.25,4.82,5.42,6.84-.17.23-.33.47-.47.73-1.93,3.46-.69,7.83,2.77,9.75,3.46,1.92,7.83.68,9.76-2.78ZM121.84,79.24c3.15-5.65,10.27-7.68,15.91-4.54,5.64,3.14,7.67,10.26,4.52,15.91-3.15,5.65-10.27,7.68-15.91,4.54-5.64-3.14-7.67-10.26-4.52-15.91Z"/>
      <g>
        <g>
          <path class="cls-3" d="M389.6,154.69c-.38,0-.7-.31-.7-.7v-4.18c0-.38.31-.7.7-.7s.7.31.7.7v4.18c0,.38-.31.7-.7.7Z"/>
          <path class="cls-3" d="M389.6,161.18h-4.18c-.38,0-.7-.31-.7-.7s.31-.7.7-.7h3.48v-3.48c0-.38.31-.7.7-.7s.7.31.7.7v4.18c0,.38-.31.7-.7.7Z"/>
          <path class="cls-3" d="M377.14,161.18h-8.28c-.38,0-.7-.31-.7-.7s.31-.7.7-.7h8.28c.38,0,.7.31.7.7s-.31.7-.7.7ZM360.57,161.18h-8.28c-.38,0-.7-.31-.7-.7s.31-.7.7-.7h8.28c.38,0,.7.31.7.7s-.31.7-.7.7ZM344.01,161.18h-8.28c-.38,0-.7-.31-.7-.7s.31-.7.7-.7h8.28c.38,0,.7.31.7.7s-.31.7-.7.7ZM327.45,161.18h-8.28c-.38,0-.7-.31-.7-.7s.31-.7.7-.7h8.28c.38,0,.7.31.7.7s-.31.7-.7.7ZM310.89,161.18h-8.28c-.38,0-.7-.31-.7-.7s.31-.7.7-.7h8.28c.38,0,.7.31.7.7s-.31.7-.7.7ZM294.32,161.18h-8.28c-.38,0-.7-.31-.7-.7s.31-.7.7-.7h8.28c.38,0,.7.31.7.7s-.31.7-.7.7ZM277.76,161.18h-8.28c-.38,0-.7-.31-.7-.7s.31-.7.7-.7h8.28c.38,0,.7.31.7.7s-.31.7-.7.7ZM261.2,161.18h-8.28c-.38,0-.7-.31-.7-.7s.31-.7.7-.7h8.28c.38,0,.7.31.7.7s-.31.7-.7.7ZM244.63,161.18h-8.28c-.38,0-.7-.31-.7-.7s.31-.7.7-.7h8.28c.38,0,.7.31.7.7s-.31.7-.7.7ZM228.07,161.18h-8.28c-.38,0-.7-.31-.7-.7s.31-.7.7-.7h8.28c.38,0,.7.31.7.7s-.31.7-.7.7ZM211.51,161.18h-8.28c-.38,0-.7-.31-.7-.7s.31-.7.7-.7h8.28c.38,0,.7.31.7.7s-.31.7-.7.7ZM194.95,161.18h-8.28c-.38,0-.7-.31-.7-.7s.31-.7.7-.7h8.28c.38,0,.7.31.7.7s-.31.7-.7.7ZM178.38,161.18h-8.28c-.38,0-.7-.31-.7-.7s.31-.7.7-.7h8.28c.38,0,.7.31.7.7s-.31.7-.7.7ZM161.82,161.18h-8.28c-.38,0-.7-.31-.7-.7s.31-.7.7-.7h8.28c.38,0,.7.31.7.7s-.31.7-.7.7ZM145.26,161.18h-8.28c-.38,0-.7-.31-.7-.7s.31-.7.7-.7h8.28c.38,0,.7.31.7.7s-.31.7-.7.7ZM128.69,161.18h-8.28c-.38,0-.7-.31-.7-.7s.31-.7.7-.7h8.28c.38,0,.7.31.7.7s-.31.7-.7.7ZM112.13,161.18h-8.28c-.38,0-.7-.31-.7-.7s.31-.7.7-.7h8.28c.38,0,.7.31.7.7s-.31.7-.7.7Z"/>
          <path class="cls-3" d="M91.39,165.36c-.38,0-.7-.31-.7-.7v-4.18c0-.38.31-.7.7-.7h4.18c.38,0,.7.31.7.7s-.31.7-.7.7h-3.48v3.48c0,.38-.31.7-.7.7Z"/>
          <path class="cls-3" d="M91.39,315.66c-.38,0-.7-.31-.7-.7v-8.35c0-.38.31-.7.7-.7s.7.31.7.7v8.35c0,.38-.31.7-.7.7ZM91.39,298.96c-.38,0-.7-.31-.7-.7v-8.35c0-.38.31-.7.7-.7s.7.31.7.7v8.35c0,.38-.31.7-.7.7ZM91.39,282.26c-.38,0-.7-.31-.7-.7v-8.35c0-.38.31-.7.7-.7s.7.31.7.7v8.35c0,.38-.31.7-.7.7ZM91.39,265.56c-.38,0-.7-.31-.7-.7v-8.35c0-.38.31-.7.7-.7s.7.31.7.7v8.35c0,.38-.31.7-.7.7ZM91.39,248.86c-.38,0-.7-.31-.7-.7v-8.35c0-.38.31-.7.7-.7s.7.31.7.7v8.35c0,.38-.31.7-.7.7ZM91.39,232.16c-.38,0-.7-.31-.7-.7v-8.35c0-.38.31-.7.7-.7s.7.31.7.7v8.35c0,.38-.31.7-.7.7ZM91.39,215.46c-.38,0-.7-.31-.7-.7v-8.35c0-.38.31-.7.7-.7s.7.31.7.7v8.35c0,.38-.31.7-.7.7ZM91.39,198.76c-.38,0-.7-.31-.7-.7v-8.35c0-.38.31-.7.7-.7s.7.31.7.7v8.35c0,.38-.31.7-.7.7ZM91.39,182.06c-.38,0-.7-.31-.7-.7v-8.35c0-.38.31-.7.7-.7s.7.31.7.7v8.35c0,.38-.31.7-.7.7Z"/>
          <path class="cls-3" d="M91.39,328.19c-.38,0-.7-.31-.7-.7v-4.18c0-.38.31-.7.7-.7s.7.31.7.7v4.18c0,.38-.31.7-.7.7Z"/>
        </g>
        <path class="cls-3" d="M94.96,329.48c0,2-1.62,3.61-3.61,3.61s-3.61-1.62-3.61-3.61,1.62-3.61,3.61-3.61,3.61,1.62,3.61,3.61Z"/>
      </g>
      <g>
        <path class="cls-3" d="M430.88,267.94h-8.01c-.38,0-.7-.31-.7-.7s.31-.7.7-.7h7.4c.12-.21.35-.36.61-.36.38,0,.7.31.7.7v.36c0,.38-.31.7-.7.7ZM414.51,267.94h-8.36c-.38,0-.7-.31-.7-.7s.31-.7.7-.7h8.36c.38,0,.7.31.7.7s-.31.7-.7.7ZM397.78,267.94h-7.83c-.38,0-.7-.31-.7-.7s.31-.7.7-.7h7.83c.38,0,.7.31.7.7s-.31.7-.7.7ZM430.88,259.22c-.38,0-.7-.31-.7-.7v-8.36c0-.38.31-.7.7-.7s.7.31.7.7v8.36c0,.38-.31.7-.7.7ZM430.88,242.49c-.38,0-.7-.31-.7-.7v-8.36c0-.38.31-.7.7-.7s.7.31.7.7v8.36c0,.38-.31.7-.7.7ZM430.88,225.77c-.38,0-.7-.31-.7-.7v-8.36c0-.38.31-.7.7-.7s.7.31.7.7v8.36c0,.38-.31.7-.7.7ZM430.88,209.04c-.38,0-.7-.31-.7-.7v-8.36c0-.38.31-.7.7-.7s.7.31.7.7v8.36c0,.38-.31.7-.7.7ZM430.88,192.32c-.38,0-.7-.31-.7-.7v-8.36c0-.38.31-.7.7-.7s.7.31.7.7v8.36c0,.38-.31.7-.7.7ZM430.88,175.59c-.38,0-.7-.31-.7-.7v-8.36c0-.38.31-.7.7-.7s.7.31.7.7v8.36c0,.38-.31.7-.7.7ZM430.88,158.87c-.38,0-.7-.31-.7-.7v-8.36c0-.38.31-.7.7-.7s.7.31.7.7v8.36c0,.38-.31.7-.7.7Z"/>
        <path class="cls-3" d="M390.32,267.19c0,2-1.62,3.61-3.61,3.61s-3.61-1.62-3.61-3.61,1.62-3.61,3.61-3.61,3.61,1.62,3.61,3.61Z"/>
      </g>
      <g>
        <path class="cls-3" d="M471.45,326.12c-.38,0-.7-.31-.7-.7v-8.36c0-.38.31-.7.7-.7s.7.31.7.7v8.36c0,.38-.31.7-.7.7ZM471.45,309.4c-.38,0-.7-.31-.7-.7v-8.36c0-.38.31-.7.7-.7s.7.31.7.7v8.36c0,.38-.31.7-.7.7ZM471.45,292.67c-.38,0-.7-.31-.7-.7v-8.36c0-.38.31-.7.7-.7s.7.31.7.7v8.36c0,.38-.31.7-.7.7ZM471.45,275.94c-.38,0-.7-.31-.7-.7v-8.36c0-.38.31-.7.7-.7s.7.31.7.7v8.36c0,.38-.31.7-.7.7ZM471.45,259.22c-.38,0-.7-.31-.7-.7v-8.36c0-.38.31-.7.7-.7s.7.31.7.7v8.36c0,.38-.31.7-.7.7ZM471.45,242.49c-.38,0-.7-.31-.7-.7v-8.36c0-.38.31-.7.7-.7s.7.31.7.7v8.36c0,.38-.31.7-.7.7ZM471.45,225.77c-.38,0-.7-.31-.7-.7v-8.36c0-.38.31-.7.7-.7s.7.31.7.7v8.36c0,.38-.31.7-.7.7ZM471.45,209.04c-.38,0-.7-.31-.7-.7v-8.36c0-.38.31-.7.7-.7s.7.31.7.7v8.36c0,.38-.31.7-.7.7ZM471.45,192.32c-.38,0-.7-.31-.7-.7v-8.36c0-.38.31-.7.7-.7s.7.31.7.7v8.36c0,.38-.31.7-.7.7ZM471.45,175.59c-.38,0-.7-.31-.7-.7v-8.36c0-.38.31-.7.7-.7s.7.31.7.7v8.36c0,.38-.31.7-.7.7ZM471.45,158.87c-.38,0-.7-.31-.7-.7v-8.36c0-.38.31-.7.7-.7s.7.31.7.7v8.36c0,.38-.31.7-.7.7Z"/>
        <path class="cls-3" d="M475.02,329.78c0,2-1.62,3.61-3.61,3.61s-3.61-1.62-3.61-3.61,1.62-3.61,3.61-3.61,3.61,1.62,3.61,3.61Z"/>
      </g>
    </g>
  </g>
</svg>