<?xml version="1.0" encoding="UTF-8"?>
<svg id="Layer_2" data-name="Layer 2" xmlns="http://www.w3.org/2000/svg" viewBox="0 0 707.41 569.8">
  <defs>
    <style>
      .cls-1 {
        fill: #5b626f;
      }

      .cls-2 {
        opacity: .3;
      }

      .cls-2, .cls-3 {
        fill: #f60;
      }

      .cls-4 {
        fill: #b7b7b7;
      }

      .cls-5 {
        fill: #fff;
      }
    </style>
  </defs>
  <g id="Layer_3" data-name="Layer 3">
    <g>
      <path class="cls-4" d="M23.36,74.62h-10.33v-39.62H0v-8.57h36.38v8.57h-13.03v39.62Z"/>
      <path class="cls-4" d="M74.99,35.34v39.29h-9.72v-16.54h-14.51v16.54h-9.72v-39.29h9.72v14.99h14.51v-14.99h9.72Z"/>
      <path class="cls-4" d="M84.51,35.34h23.69v7.56h-13.97v7.56h13.03v7.56h-13.03v8.98h13.97v7.63h-23.69v-39.29Z"/>
    </g>
    <g>
      <path class="cls-4" d="M102.18,521.99c6.09,0,10.6,1.27,13.51,3.81,2.91,2.54,4.37,6.12,4.37,10.76,0,2.08-.31,4.06-.93,5.96-.62,1.9-1.65,3.61-3.08,5.13-1.44,1.52-3.32,2.71-5.66,3.58-2.34.86-5.21,1.29-8.61,1.29h-4.3v16.75h-10.13v-47.28h14.83ZM101.85,530.27h-4.37v13.91h3.38c1.85,0,3.45-.23,4.8-.7s2.38-1.24,3.11-2.32c.73-1.08,1.09-2.51,1.09-4.27,0-2.12-.65-3.75-1.95-4.9-1.3-1.15-3.32-1.72-6.06-1.72Z"/>
      <path class="cls-4" d="M139.73,530.73c5.38,0,9.4.96,12.05,2.88,2.65,1.92,3.97,4.78,3.97,8.58,0,2.52-.67,4.6-2.02,6.26-1.35,1.66-3.04,2.99-5.07,4.01l11.66,16.82h-10.6l-9.07-14.44h-3.64v14.44h-9.54v-38.54h12.25ZM139.33,547.62c2.29,0,4.02-.41,5.17-1.22,1.15-.82,1.72-2.11,1.72-3.87,0-1.54-.55-2.69-1.66-3.44-1.1-.75-2.85-1.13-5.23-1.13h-2.32v9.67h2.32Z"/>
      <path class="cls-4" d="M164.69,530.73h23.24v7.42h-13.71v7.42h12.78v7.42h-12.78v8.81h13.71v7.48h-23.24v-38.54Z"/>
      <path class="cls-4" d="M213.36,538.15c-1.99,0-3.68.48-5.07,1.42-1.39.95-2.45,2.32-3.18,4.11-.73,1.79-1.09,3.92-1.09,6.39,0,3.8.78,6.69,2.35,8.67,1.57,1.99,4.01,2.98,7.32,2.98,1.72,0,3.39-.2,5-.6,1.61-.4,3.21-.99,4.8-1.79v8.34c-1.68.75-3.41,1.29-5.2,1.62s-3.68.5-5.66.5c-4.42,0-8.01-.83-10.79-2.48-2.78-1.66-4.82-3.97-6.13-6.95-1.3-2.98-1.95-6.43-1.95-10.36s.74-7.33,2.22-10.33c1.48-3,3.67-5.35,6.59-7.05,2.91-1.7,6.49-2.55,10.73-2.55,2.07,0,4.09.22,6.06.66,1.96.44,3.92,1.08,5.86,1.92l-3.05,7.75c-1.41-.66-2.84-1.2-4.27-1.62-1.44-.42-2.95-.63-4.54-.63Z"/>
      <path class="cls-4" d="M228.39,569.27v-5.56l4.77-1.79v-23.97l-4.77-1.72v-5.63h19.54v5.63l-4.77,1.72v23.97l4.77,1.79v5.56h-19.54Z"/>
      <path class="cls-4" d="M279.45,557.68c0,2.12-.54,4.11-1.62,5.96-1.08,1.85-2.74,3.34-4.97,4.47-2.23,1.13-5.09,1.69-8.58,1.69-1.77,0-3.32-.08-4.67-.23-1.35-.16-2.59-.41-3.74-.76-1.15-.35-2.32-.79-3.51-1.32v-8.81c1.99,1.02,4.05,1.8,6.19,2.35,2.14.55,4.12.83,5.93.83,1.68,0,2.94-.31,3.77-.93.84-.62,1.26-1.41,1.26-2.38,0-.75-.25-1.39-.76-1.92-.51-.53-1.3-1.06-2.38-1.59-1.08-.53-2.48-1.17-4.21-1.92-1.94-.84-3.63-1.75-5.07-2.75s-2.54-2.21-3.31-3.64c-.77-1.43-1.16-3.26-1.16-5.46,0-2.43.62-4.47,1.85-6.12,1.24-1.66,2.95-2.91,5.13-3.77,2.19-.86,4.71-1.29,7.58-1.29,2.47,0,4.72.29,6.75.86,2.03.57,3.84,1.21,5.43,1.92l-2.98,7.55c-1.68-.75-3.33-1.35-4.97-1.79-1.63-.44-3.16-.66-4.57-.66-1.5,0-2.62.28-3.34.83-.73.55-1.09,1.25-1.09,2.09,0,.71.25,1.33.76,1.85.51.53,1.32,1.07,2.45,1.62,1.13.55,2.66,1.25,4.6,2.09,1.94.84,3.6,1.75,4.97,2.72,1.37.97,2.42,2.13,3.15,3.48s1.09,3.04,1.09,5.07Z"/>
      <path class="cls-4" d="M283.36,569.27v-5.56l4.77-1.79v-23.97l-4.77-1.72v-5.63h19.54v5.63l-4.77,1.72v23.97l4.77,1.79v5.56h-19.54Z"/>
      <path class="cls-4" d="M346.07,549.94c0,3.97-.66,7.45-1.99,10.43-1.32,2.98-3.39,5.3-6.19,6.95-2.8,1.66-6.43,2.48-10.89,2.48s-7.97-.83-10.79-2.48c-2.83-1.66-4.91-3.98-6.26-6.99s-2.02-6.49-2.02-10.46.68-7.45,2.05-10.43c1.37-2.98,3.47-5.29,6.29-6.92,2.83-1.63,6.42-2.45,10.79-2.45s8.02.83,10.83,2.48,4.87,3.96,6.19,6.92c1.33,2.96,1.99,6.45,1.99,10.46ZM317.79,549.94c0,2.52.32,4.69.96,6.52.64,1.83,1.63,3.23,2.98,4.21,1.35.97,3.1,1.46,5.26,1.46s3.98-.48,5.33-1.46c1.35-.97,2.32-2.37,2.91-4.21s.89-4.01.89-6.52c0-3.8-.7-6.79-2.09-8.97s-3.72-3.28-6.99-3.28c-2.16,0-3.93.5-5.3,1.49s-2.37,2.4-3.01,4.21c-.64,1.81-.96,4-.96,6.56Z"/>
      <path class="cls-4" d="M390.24,530.73v38.54h-12.12l-16.09-28.28h-.26c.04.49.09,1.13.13,1.92.04.79.09,1.68.13,2.65.04.97.09,1.96.13,2.98.04,1.02.09,1.99.13,2.91v17.81h-8.48v-38.54h12.18l16.09,27.95h.13c0-.49-.02-1.11-.07-1.89-.04-.77-.09-1.62-.13-2.55-.04-.93-.09-1.88-.13-2.85-.04-.97-.07-1.9-.07-2.78v-17.88h8.41Z"/>
      <path class="cls-4" d="M445.4,569.27h-27.22v-47.28h27.22v8.21h-17.22v10.4h16.03v8.21h-16.03v12.18h17.22v8.28Z"/>
      <path class="cls-4" d="M490.36,530.73v38.54h-12.12l-16.09-28.28h-.26c.04.49.09,1.13.13,1.92.04.79.09,1.68.13,2.65.04.97.09,1.96.13,2.98.04,1.02.09,1.99.13,2.91v17.81h-8.48v-38.54h12.18l16.09,27.95h.13c0-.49-.02-1.11-.07-1.89-.04-.77-.09-1.62-.13-2.55-.04-.93-.09-1.88-.13-2.85-.04-.97-.07-1.9-.07-2.78v-17.88h8.41Z"/>
      <path class="cls-4" d="M531.81,567.49c-1.99.66-4.26,1.21-6.82,1.66-2.56.44-5.25.66-8.08.66-3.8,0-7.11-.73-9.93-2.18-2.83-1.46-5.03-3.65-6.62-6.59-1.59-2.94-2.38-6.63-2.38-11.09,0-4.06.78-7.56,2.35-10.5,1.57-2.93,3.87-5.22,6.92-6.85,3.05-1.63,6.8-2.45,11.26-2.45,2.38,0,4.66.23,6.82.7s4.06,1.05,5.7,1.75l-3.18,7.62c-1.41-.71-2.88-1.24-4.4-1.59-1.52-.35-3.17-.53-4.93-.53-2.43,0-4.4.54-5.93,1.62-1.52,1.08-2.64,2.53-3.34,4.34-.71,1.81-1.06,3.82-1.06,6.03,0,3.8.84,6.71,2.52,8.74,1.68,2.03,4.04,3.05,7.09,3.05.71,0,1.53-.05,2.48-.17.95-.11,1.69-.23,2.22-.36v-6.82h-7.35v-7.55h16.69v20.53Z"/>
      <path class="cls-4" d="M537.57,569.27v-5.56l4.77-1.79v-23.97l-4.77-1.72v-5.63h19.54v5.63l-4.77,1.72v23.97l4.77,1.79v5.56h-19.54Z"/>
      <path class="cls-4" d="M600.09,530.73v38.54h-12.12l-16.09-28.28h-.26c.04.49.09,1.13.13,1.92.04.79.09,1.68.13,2.65.04.97.09,1.96.13,2.98.04,1.02.09,1.99.13,2.91v17.81h-8.48v-38.54h12.18l16.09,27.95h.13c0-.49-.02-1.11-.07-1.89-.04-.77-.09-1.62-.13-2.55-.04-.93-.09-1.88-.13-2.85-.04-.97-.07-1.9-.07-2.78v-17.88h8.41Z"/>
      <path class="cls-4" d="M609.49,530.73h23.24v7.42h-13.71v7.42h12.78v7.42h-12.78v8.81h13.71v7.48h-23.24v-38.54Z"/>
      <path class="cls-4" d="M640.41,530.73h23.24v7.42h-13.71v7.42h12.78v7.42h-12.78v8.81h13.71v7.48h-23.24v-38.54Z"/>
      <path class="cls-4" d="M683.59,530.73c5.38,0,9.4.96,12.05,2.88,2.65,1.92,3.97,4.78,3.97,8.58,0,2.52-.67,4.6-2.02,6.26-1.35,1.66-3.04,2.99-5.07,4.01l11.66,16.82h-10.6l-9.07-14.44h-3.64v14.44h-9.54v-38.54h12.25ZM683.19,547.62c2.29,0,4.02-.41,5.17-1.22,1.15-.82,1.72-2.11,1.72-3.87,0-1.54-.55-2.69-1.66-3.44-1.1-.75-2.85-1.13-5.23-1.13h-2.32v9.67h2.32Z"/>
    </g>
    <g id="Datacenter_technician" data-name="Datacenter technician">
      <g>
        <polygon class="cls-5" points="693.55 108.82 648.61 67.04 648.61 142.35 595.16 142.35 595.16 67.04 550.22 108.82 550.22 176.11 592.6 208.64 592.6 345.3 650.05 345.3 650.05 209.49 693.55 176.11 693.55 108.82"/>
        <path class="cls-1" d="M650.05,345.84h-57.45c-.3,0-.54-.24-.54-.54v-136.39l-42.17-32.37c-.13-.1-.21-.26-.21-.43v-67.28c0-.15.06-.29.17-.4l44.94-41.78c.16-.15.39-.19.58-.1.2.09.32.28.32.5v74.77h52.36v-74.77c0-.22.13-.41.32-.5.2-.09.43-.05.58.1l44.94,41.78c.11.1.17.25.17.4v67.28c0,.17-.08.33-.21.43l-43.29,33.23v135.53c0,.3-.24.54-.54.54ZM593.14,344.75h56.37v-135.26c0-.17.08-.33.21-.43l43.29-33.23v-66.78l-43.86-40.78v74.07c0,.3-.24.54-.54.54h-53.44c-.3,0-.54-.24-.54-.54v-74.07l-43.86,40.78v66.78l42.17,32.37c.13.1.21.26.21.43v136.12Z"/>
      </g>
      <g>
        <polygon class="cls-2" points="321.46 449.14 294.36 449.14 175.96 427.31 113.49 449.14 33.96 449.14 33.96 105.07 321.46 105.07 321.46 449.14"/>
        <path class="cls-1" d="M529.05,424.13c-.3,0-.54-.24-.54-.54V1.08h-244.52v235.98c0,.3-.24.54-.54.54s-.54-.24-.54-.54V.54c0-.3.24-.54.54-.54h245.6c.3,0,.54.24.54.54v423.05c0,.3-.24.54-.54.54Z"/>
        <g>
          <g>
            <g>
              <g>
                <path class="cls-5" d="M229.01,389.46l-41.82,59.68h107.17c2.99-5.92,7.04-13.97,11.38-22.72,16.57-33.43,11.09-73.59-13.84-101.35-35.98-40.05-91.67-89.45-115.46-112.34-4.54-4.37-8.1-7.54-10.38-9.17-21.89-15.62-75.93,38.13-75.93,38.13l66.6,75.71,72.28,72.05Z"/>
                <path class="cls-1" d="M294.36,449.68c-.08,0-.17-.02-.24-.06-.27-.13-.37-.46-.24-.73,3.94-7.79,7.77-15.43,11.38-22.71,16.58-33.44,11.18-72.99-13.76-100.75-26.69-29.71-64.17-64.52-91.55-89.93-9.52-8.84-17.74-16.47-23.88-22.38-4.68-4.5-8.15-7.57-10.32-9.12-20.35-14.52-70.11,33.09-74.87,37.72l66.26,75.33,72.26,72.02c.19.19.21.48.06.69l-37.55,53.59c-.17.24-.51.3-.75.13-.24-.17-.3-.51-.13-.75l37.29-53.22-71.96-71.73-66.62-75.74c-.19-.21-.18-.54.02-.74.14-.13,13.73-13.6,29.83-24.98,21.77-15.39,37.51-19.83,46.8-13.21,2.22,1.58,5.73,4.68,10.44,9.22,6.13,5.9,14.35,13.53,23.87,22.37,27.39,25.43,64.9,60.26,91.62,90,12.31,13.7,20.13,30.59,22.62,48.84,2.49,18.25-.52,36.61-8.7,53.12-3.61,7.28-7.44,14.93-11.38,22.72-.1.19-.29.3-.48.3Z"/>
              </g>
              <path class="cls-1" d="M245.82,405.88c-.13,0-.27-.05-.37-.15l-16.81-15.88c-.22-.2-.23-.55-.02-.76.21-.22.55-.23.76-.02l16.81,15.88c.22.2.23.55.02.76-.11.11-.25.17-.39.17Z"/>
            </g>
            <path class="cls-5" d="M113.49,449.14h129.88l-119.33-216.59-60.53-34.15c-.58,1.57-24.52,24.69-6.71,87.54,13.69,48.3,43.58,128.6,56.69,163.2Z"/>
            <path class="cls-1" d="M113.49,449.68c-.22,0-.42-.13-.51-.35-12.45-32.87-42.91-114.58-56.7-163.24-10.52-37.13-8.34-68.06,6.14-87.09.26-.34.53-.7.58-.8.12-.26.44-.39.71-.28.27.11.4.4.3.67-.08.21-.28.48-.73,1.07-14.27,18.75-16.39,49.34-5.96,86.14,13.78,48.63,44.23,130.3,56.68,163.16.11.28-.03.59-.31.7-.06.02-.13.04-.19.04Z"/>
            <path class="cls-1" d="M243.38,449.68c-.19,0-.38-.1-.47-.28l-94.49-171.49c-.14-.26-.05-.59.21-.73.26-.14.59-.05.73.21l94.49,171.49c.14.26.05.59-.21.73-.08.05-.17.07-.26.07Z"/>
          </g>
          <g>
            <g>
              <path class="cls-5" d="M207.86,193.99s37.25,60.12,62.77,66.72c25.53,6.6,49.72-35.52,49.72-35.52l-36.12-9.13-36.53-54.4-39.84,32.33Z"/>
              <path class="cls-1" d="M276.07,261.94c-1.9,0-3.76-.23-5.58-.7-25.45-6.58-61.57-64.49-63.1-66.95-.14-.23-.09-.53.12-.7l39.84-32.33c.12-.1.27-.14.42-.11.15.02.28.11.37.23l36.42,54.23,35.92,9.08c.16.04.3.16.37.31.07.16.06.33-.03.48-.06.11-6.19,10.7-15.37,20.34-10.14,10.65-20.18,16.14-29.38,16.14ZM208.57,194.11c3.32,5.27,38.26,59.89,62.2,66.07,23.16,5.98,45.63-29.49,48.75-34.65l-35.42-8.96c-.13-.03-.24-.11-.32-.22l-36.2-53.91-39.01,31.66Z"/>
            </g>
            <path class="cls-3" d="M255.82,165.82l-31.62-55.74c-4.33-9.02-10.97-17.06-19.74-23.15-7.38-5.12-15.36-8.43-23.52-8.14-26.48.94-105.86,81.48-134.82,111.78-6.51,6.81-7.05,17.33-1.33,24.81,52.98,69.26,116.2,47.3,116.2,47.3l43.49-67.91,4.92,5.95,46.42-34.9Z"/>
            <g>
              <rect class="cls-3" x="238.71" y="182.63" width="153.02" height="47.08"/>
              <path class="cls-1" d="M298.48,219.07c-.3,0-.54-.24-.54-.54v-45.32h-9.72c-.3,0-.54-.24-.54-.54s.24-.54.54-.54h10.26c.3,0,.54.24.54.54v45.86c0,.3-.24.54-.54.54Z"/>
              <path class="cls-1" d="M325.48,219.07c-.3,0-.54-.24-.54-.54v-45.32h-9.72c-.3,0-.54-.24-.54-.54s.24-.54.54-.54h10.26c.3,0,.54.24.54.54v45.86c0,.3-.24.54-.54.54Z"/>
              <path class="cls-1" d="M352.49,219.07c-.3,0-.54-.24-.54-.54v-45.32h-9.72c-.3,0-.54-.24-.54-.54s.24-.54.54-.54h10.26c.3,0,.54.24.54.54v45.86c0,.3-.24.54-.54.54Z"/>
              <path class="cls-1" d="M379.49,219.07c-.3,0-.54-.24-.54-.54v-45.32h-9.72c-.3,0-.54-.24-.54-.54s.24-.54.54-.54h10.26c.3,0,.54.24.54.54v45.86c0,.3-.24.54-.54.54Z"/>
            </g>
            <g>
              <path class="cls-1" d="M191.45,199.31c-.25,0-.47-.17-.53-.43l-11.38-52.22c-1.09-5-2.33-10.67-5.46-15.12-2.74-3.89-8.13-7.48-13.48-6.16-.29.07-.58-.11-.65-.4-.07-.29.11-.58.4-.65,5.88-1.45,11.58,2.27,14.62,6.59,3.26,4.63,4.52,10.41,5.63,15.51l11.38,52.22c.06.29-.12.58-.41.64-.04,0-.08.01-.12.01Z"/>
              <path class="cls-1" d="M135.5,226.89c-.25,0-.47-.17-.53-.42-3.95-17.65-5.57-35.76-4.83-53.83.01-.3.25-.53.56-.52.3.01.53.26.52.56-.74,17.97.88,35.99,4.81,53.55.07.29-.12.58-.41.65-.04,0-.08.01-.12.01Z"/>
            </g>
            <g>
              <path class="cls-5" d="M136.71,229.25s5.01,53.13,36.89,56.95c31.88,3.82,88.96-57.54,92.7-61.44,3.74-3.9,3.56-9.15-8.67-1.65,0,0,11.69-7.43,12.89-12.26,1.2-4.84-7.61-4.08-17.85,2.58,0,0,18.85-10.22,17.85-16.79-.52-3.38-9.2-4.38-28.23,8.03,0,0,10.56-6.56,15.4-11.42,4.98-5-.05-11.47-17.62-1.1-17.29,10.21-44.62,35.55-44.62,35.55l-6.16-23.03s-35.53,7.06-52.57,24.59Z"/>
              <path class="cls-1" d="M195.44,228.23c-.05,0-.1,0-.15-.02-.18-.05-.32-.2-.37-.38l-1.49-5.57c-.08-.29.09-.58.38-.66.29-.08.59.09.66.38l1.26,4.7c4.28-3.92,28.4-25.77,44.06-35.01.26-.15.59-.07.74.19.15.26.07.59-.19.74-17.05,10.06-44.26,35.23-44.53,35.48-.1.09-.23.14-.37.14Z"/>
              <path class="cls-1" d="M176.55,286.91c-1.02,0-2.03-.06-3.01-.17-10.97-1.31-19.98-8.46-26.78-21.22-.14-.26-.04-.59.22-.73.26-.14.59-.04.73.22,6.62,12.44,15.35,19.39,25.95,20.66,26.26,3.15,69.93-38.35,87.49-56.33.21-.21.55-.22.76,0,.21.21.22.55,0,.76-17.02,17.44-58.47,56.82-85.39,56.82Z"/>
              <path class="cls-1" d="M181.56,238.84c-.16,0-.33-.07-.43-.22-.18-.24-.13-.58.11-.76l11.44-8.6c.24-.18.58-.13.76.11.18.24.13.58-.11.76l-11.44,8.6c-.1.07-.21.11-.32.11Z"/>
            </g>
            <path class="cls-1" d="M204.48,195.31c-.1,0-.2-.03-.29-.09-.25-.16-.32-.5-.16-.75l19.56-30.42c.16-.25.5-.32.75-.16.25.16.32.5.16.75l-19.56,30.42c-.1.16-.28.25-.45.25Z"/>
            <g>
              <path class="cls-5" d="M304.34,230.1s5.86,14.12,27.77,14.84c21.91.72,24.79-6.67,27.95-13.16s2.7-11.99-.9-11.18c0,0-.27-8.51-8.65-3.17,0,0-3.25-5.21-9.56,1.55,0,0-6.13-5.01-12.8,10.04l-23.8,1.08Z"/>
              <path class="cls-1" d="M334.96,245.53c-.92,0-1.87-.02-2.87-.05-13.82-.45-21.21-6.31-24.98-11.14-.18-.24-.14-.57.09-.76.23-.18.58-.14.76.09,3.62,4.65,10.76,10.28,24.16,10.72,20.9.69,24.08-5.9,27.16-12.27l.28-.58c.33-.68.62-1.36.88-2.03.11-.28.42-.42.7-.31.28.11.42.42.31.7-.27.7-.58,1.41-.92,2.11l-.28.58c-2.94,6.08-6.25,12.93-25.3,12.93Z"/>
              <path class="cls-1" d="M334.48,237.77c-.09,0-.19-.02-.27-.08-.26-.15-.34-.48-.19-.74,2.47-4.16,4.76-8.5,6.82-12.89.4-.85.71-1.56.79-2.31.09-.8-.14-1.53-.6-1.95-.22-.2-.24-.54-.04-.76.2-.22.54-.24.76-.04.73.65,1.08,1.72.96,2.87-.11,1-.54,1.91-.89,2.65-2.07,4.42-4.38,8.79-6.87,12.98-.1.17-.28.26-.47.26Z"/>
              <path class="cls-1" d="M342.72,238.16c-.09,0-.17-.02-.25-.06-.26-.14-.36-.47-.22-.73l7.28-13.67c.5-.94,1.02-1.92,1.23-2.95.21-1.07.01-2.09-.53-2.75-.19-.23-.16-.57.07-.76.23-.19.57-.16.76.07.76.91,1.03,2.24.76,3.64-.23,1.19-.82,2.29-1.33,3.25l-7.28,13.67c-.1.18-.28.29-.48.29Z"/>
              <path class="cls-1" d="M350.06,240.18c-.11,0-.21-.03-.31-.1-.24-.17-.31-.51-.14-.75,4.03-5.81,7.06-12.2,9-19,.08-.29.38-.45.67-.37.29.08.45.38.37.67-1.97,6.91-5.05,13.41-9.15,19.32-.1.15-.27.23-.44.23Z"/>
            </g>
          </g>
          <g>
            <path class="cls-5" d="M193.59,58.01l-24.01,27.9c-4.46,5.19-4.48,12.84-.05,18.05,7.25,8.52,18.72,20.22,29.32,23.41,17.21,5.19,9.86-14.92,2.55-28.59,0,0-1.85-40.39-7.8-40.78Z"/>
            <path class="cls-1" d="M188.7,106.51c-.1,0-.2-.03-.29-.09-.25-.16-.32-.5-.16-.75l9.55-14.67c.16-.25.5-.32.75-.16.25.16.32.5.16.75l-9.55,14.67c-.1.16-.28.25-.45.25Z"/>
            <path class="cls-1" d="M179.08,62.76s-12.67-21.16-9.84-25.65c2.83-4.49,8.06-2.22,8.06-2.22,0,0,23.26-35.97,32.69-20.49,0,0,7.06-10.81,15.86-4.35,8.8,6.46,5.76,13.57-.45,18.03,0,0,5.2,11.38-.29,16.61-5.49,5.23-.51,18.86,3.34,20.69,0,0,10.1,26.67-1.87,33.26-11.97,6.59-34.63,6.34-38.87-22.71l-8.63-13.16Z"/>
            <g>
              <path class="cls-5" d="M186.17,64.92l1.54,11s-11.41,2.53-15.24-6.58c-3.51-8.36,4.21-15.37,11.46-8.73,1.23,1.13,2.02,2.66,2.25,4.31Z"/>
              <path class="cls-1" d="M184.28,76.77c-3.83,0-9.73-1.08-12.31-7.22-1.78-4.24-.86-8.73,2.24-10.92,2.28-1.61,6.13-2.04,10.08,1.58,1.31,1.2,2.17,2.84,2.42,4.63h0s1.53,11,1.53,11c.04.28-.14.54-.42.6-.04,0-1.5.32-3.55.32ZM177.99,58.52c-1.13,0-2.21.33-3.16,1-2.2,1.55-3.72,5.21-1.87,9.61,3.21,7.64,11.95,6.72,14.14,6.36l-1.46-10.49c-.22-1.54-.95-2.95-2.08-3.98-1.8-1.64-3.76-2.49-5.57-2.49Z"/>
            </g>
            <path class="cls-1" d="M184.77,72.51c-.2,0-.39-.11-.48-.29-1.24-2.41-3.78-4.09-6.48-4.29-.3-.02-.52-.28-.5-.58.02-.3.27-.52.58-.5,3.07.22,5.96,2.14,7.36,4.87.14.27.03.59-.23.73-.08.04-.16.06-.25.06Z"/>
            <g>
              <path class="cls-5" d="M225.4,40.74s-4.46-5.08-9.27-4.84c0,0-7.14,5.8-13.7,9.78-3.42,2.07-5.15,6.09-4.31,10,.85,3.93,2.01,8.74,3.29,12.31.87,2.43,3.3,3.95,5.87,3.68,5.27-.57,14.62-2.12,21.15-6.29l-3.04-24.63Z"/>
              <path class="cls-1" d="M206.69,72.23c-2.57,0-4.89-1.6-5.77-4.07-1.33-3.72-2.54-8.78-3.31-12.37-.89-4.14.94-8.39,4.56-10.58,6.45-3.91,13.57-9.67,13.64-9.73.09-.07.2-.11.31-.12,5.03-.25,9.51,4.8,9.7,5.02.07.08.12.18.13.29l3.04,24.63c.03.21-.07.41-.25.52-6.68,4.26-16.27,5.82-21.39,6.37-.22.02-.44.04-.67.04ZM216.34,36.44c-1.04.84-7.61,6.07-13.62,9.7-3.22,1.95-4.86,5.74-4.06,9.42.77,3.56,1.96,8.57,3.27,12.24.79,2.21,2.97,3.57,5.31,3.32,4.95-.53,14.16-2.02,20.63-6.02l-2.98-24.12c-.69-.74-4.54-4.63-8.55-4.54Z"/>
            </g>
          </g>
        </g>
        <path class="cls-1" d="M502.23,230.25h-110.5c-.3,0-.54-.24-.54-.54s.24-.54.54-.54h109.96v-46h-95.44c-.3,0-.54-.24-.54-.54s.24-.54.54-.54h95.98c.3,0,.54.24.54.54v47.08c0,.3-.24.54-.54.54Z"/>
        <g>
          <path class="cls-1" d="M502.23,152.69h-197.35c-.3,0-.54-.24-.54-.54v-47.08c0-.3.24-.54.54-.54h197.35c.3,0,.54.24.54.54v47.08c0,.3-.24.54-.54.54ZM305.42,151.61h196.27v-46h-196.27v46Z"/>
          <g>
            <rect class="cls-5" x="328.53" y="120.32" width="115.32" height="15.21"/>
            <path class="cls-1" d="M443.85,136.08h-115.32c-.3,0-.54-.24-.54-.54v-15.21c0-.3.24-.54.54-.54h115.32c.3,0,.54.24.54.54v15.21c0,.3-.24.54-.54.54ZM329.07,134.99h114.24v-14.13h-114.24v14.13Z"/>
          </g>
          <g>
            <circle class="cls-5" cx="469.62" cy="127.93" r="7.61"/>
            <path class="cls-1" d="M469.62,136.08c-4.49,0-8.15-3.65-8.15-8.15s3.66-8.15,8.15-8.15,8.15,3.65,8.15,8.15-3.65,8.15-8.15,8.15ZM469.62,120.86c-3.9,0-7.07,3.17-7.07,7.07s3.17,7.07,7.07,7.07,7.07-3.17,7.07-7.07-3.17-7.07-7.07-7.07Z"/>
          </g>
        </g>
        <g>
          <path class="cls-1" d="M502.23,79.14h-197.35c-.3,0-.54-.24-.54-.54V31.52c0-.3.24-.54.54-.54h197.35c.3,0,.54.24.54.54v47.08c0,.3-.24.54-.54.54ZM305.42,78.06h196.27v-46h-196.27v46Z"/>
          <g>
            <rect class="cls-5" x="328.53" y="46.77" width="115.32" height="15.21"/>
            <path class="cls-1" d="M443.85,62.53h-115.32c-.3,0-.54-.24-.54-.54v-15.21c0-.3.24-.54.54-.54h115.32c.3,0,.54.24.54.54v15.21c0,.3-.24.54-.54.54ZM329.07,61.45h114.24v-14.13h-114.24v14.13Z"/>
          </g>
          <g>
            <circle class="cls-5" cx="469.62" cy="54.38" r="7.61" transform="translate(340.71 509.22) rotate(-80.78)"/>
            <path class="cls-1" d="M469.62,62.53c-4.49,0-8.15-3.65-8.15-8.15s3.66-8.15,8.15-8.15,8.15,3.65,8.15,8.15-3.65,8.15-8.15,8.15ZM469.62,47.31c-3.9,0-7.07,3.17-7.07,7.07s3.17,7.07,7.07,7.07,7.07-3.17,7.07-7.07-3.17-7.07-7.07-7.07Z"/>
          </g>
        </g>
      </g>
      <g>
        <g>
          <path class="cls-5" d="M665.33,366.07c-1.72,0-3.42.11-5.09.31,1-5.69,1.53-11.55,1.53-17.52,0-55.38-44.9-100.28-100.28-100.28-51.12,0-93.3,38.25-99.5,87.69-4.2-.98-8.57-1.5-13.07-1.5-31.58,0-57.19,25.6-57.19,57.19s25.6,57.19,57.19,57.19h216.41c22.94,0,41.53-18.6,41.53-41.53s-18.6-41.53-41.53-41.53Z"/>
          <path class="cls-1" d="M665.33,449.68h-216.41c-31.83,0-57.73-25.9-57.73-57.73s25.9-57.73,57.73-57.73c4.25,0,8.49.47,12.61,1.38,6.56-49.97,49.42-87.57,99.96-87.57,55.59,0,100.82,45.23,100.82,100.82,0,5.66-.48,11.35-1.41,16.9,1.48-.15,2.96-.23,4.43-.23,23.2,0,42.07,18.87,42.07,42.07s-18.87,42.07-42.07,42.07ZM448.92,335.31c-31.24,0-56.65,25.41-56.65,56.65s25.41,56.65,56.65,56.65h216.41c22.6,0,40.99-18.39,40.99-40.99s-18.39-40.99-40.99-40.99c-1.67,0-3.36.1-5.02.31-.17.02-.34-.04-.46-.16-.12-.12-.17-.3-.14-.47,1.01-5.72,1.52-11.59,1.52-17.43,0-55-44.74-99.74-99.74-99.74-50.18,0-92.73,37.49-98.96,87.21-.02.15-.1.29-.23.38-.13.09-.28.12-.43.08-4.22-.99-8.58-1.49-12.95-1.49Z"/>
        </g>
        <path class="cls-2" d="M611.1,297.44c-.52.21-1.01.45-1.48.71-3.26-4.54-7.13-8.5-11.47-11.8.27-.47.53-.95.75-1.46,2.96-6.85-.21-14.8-7.06-17.76-6.86-2.96-14.81.2-17.77,7.05-.22.51-.4,1.03-.55,1.55-5.37-.89-10.92-.99-16.46-.25-.14-.52-.3-1.05-.5-1.56-2.76-6.93-10.62-10.32-17.56-7.57-6.94,2.75-10.33,10.6-7.57,17.54.21.52.45,1.01.71,1.48-4.55,3.25-8.51,7.12-11.8,11.45-.47-.27-.95-.53-1.46-.75-6.86-2.96-14.81.2-17.77,7.05-2.96,6.85.21,14.8,7.06,17.76.51.22,1.03.4,1.55.55-.89,5.37-.99,10.9-.24,16.44-.52.14-1.05.3-1.57.5-6.94,2.75-10.33,10.6-7.57,17.54,2.76,6.93,10.62,10.32,17.56,7.57.52-.21,1.01-.45,1.48-.71,3.26,4.54,7.13,8.5,11.47,11.8-.27.47-.53.95-.75,1.46-2.96,6.85.21,14.8,7.06,17.76,6.86,2.96,14.81-.2,17.77-7.05.22-.51.4-1.03.55-1.55,5.37.89,10.92.99,16.46.25.14.52.3,1.05.5,1.56,2.76,6.93,10.62,10.32,17.56,7.57,6.94-2.75,10.33-10.6,7.57-17.54-.21-.52-.45-1.01-.71-1.48,4.55-3.25,8.51-7.12,11.8-11.45.47.27.95.53,1.46.75,6.86,2.96,14.81-.2,17.77-7.05,2.96-6.85-.21-14.8-7.06-17.76-.51-.22-1.03-.4-1.55-.55.89-5.37.99-10.9.24-16.44.52-.14,1.05-.3,1.57-.5,6.94-2.75,10.33-10.6,7.57-17.54-2.76-6.93-10.62-10.32-17.56-7.57ZM573.77,353.77c-12.89,5.11-27.49-1.19-32.61-14.06-5.12-12.88,1.17-27.46,14.06-32.57,12.89-5.11,27.49,1.19,32.61,14.06,5.12,12.88-1.17,27.46-14.06,32.57Z"/>
        <path class="cls-2" d="M666.54,389.95c-.28.11-.54.24-.8.38-1.75-2.44-3.83-4.57-6.16-6.34.15-.25.28-.51.4-.78,1.59-3.68-.11-7.95-3.79-9.53-3.68-1.59-7.95.11-9.54,3.78-.12.27-.21.55-.3.83-2.89-.48-5.86-.53-8.84-.13-.07-.28-.16-.56-.27-.84-1.48-3.72-5.7-5.54-9.43-4.07-3.73,1.48-5.55,5.69-4.07,9.42.11.28.24.54.38.8-2.44,1.75-4.57,3.82-6.34,6.15-.25-.15-.51-.28-.79-.4-3.68-1.59-7.95.11-9.54,3.78-1.59,3.68.11,7.95,3.79,9.53.27.12.55.21.83.29-.48,2.88-.53,5.86-.13,8.83-.28.07-.56.16-.84.27-3.73,1.48-5.55,5.69-4.07,9.42,1.48,3.72,5.7,5.54,9.43,4.07.28-.11.54-.24.8-.38,1.75,2.44,3.83,4.57,6.16,6.34-.15.25-.28.51-.4.78-1.59,3.68.11,7.95,3.79,9.53,3.68,1.59,7.95-.11,9.54-3.78.12-.27.21-.55.3-.83,2.89.48,5.86.53,8.84.13.07.28.16.56.27.84,1.48,3.72,5.7,5.54,9.43,4.07,3.73-1.48,5.55-5.69,4.07-9.42-.11-.28-.24-.54-.38-.8,2.44-1.75,4.57-3.82,6.34-6.15.25.15.51.28.79.4,3.68,1.59,7.95-.11,9.54-3.78,1.59-3.68-.11-7.95-3.79-9.53-.27-.12-.55-.21-.83-.29.48-2.88.53-5.86.13-8.83.28-.07.56-.16.84-.27,3.73-1.48,5.55-5.69,4.07-9.42-1.48-3.72-5.7-5.54-9.43-4.07ZM646.5,420.2c-6.92,2.74-14.76-.64-17.51-7.55-2.75-6.92.63-14.75,7.55-17.49,6.92-2.74,14.76.64,17.51,7.55,2.75,6.92-.63,14.75-7.55,17.49Z"/>
        <path class="cls-2" d="M527.76,399.98c-.2.08-.39.17-.57.27-1.26-1.75-2.75-3.28-4.42-4.55.11-.18.2-.37.29-.56,1.14-2.64-.08-5.71-2.72-6.85-2.65-1.14-5.71.08-6.85,2.72-.09.2-.15.4-.21.6-2.07-.34-4.21-.38-6.35-.09-.05-.2-.12-.4-.19-.6-1.06-2.67-4.1-3.98-6.77-2.92-2.68,1.06-3.98,4.09-2.92,6.76.08.2.17.39.27.57-1.75,1.25-3.28,2.75-4.55,4.42-.18-.11-.37-.2-.56-.29-2.65-1.14-5.71.08-6.85,2.72-1.14,2.64.08,5.71,2.72,6.85.2.09.4.15.6.21-.34,2.07-.38,4.21-.09,6.34-.2.05-.4.11-.6.19-2.68,1.06-3.98,4.09-2.92,6.76,1.06,2.67,4.1,3.98,6.77,2.92.2-.08.39-.17.57-.27,1.26,1.75,2.75,3.28,4.42,4.55-.11.18-.2.37-.29.56-1.14,2.64.08,5.71,2.72,6.85,2.65,1.14,5.71-.08,6.85-2.72.09-.2.15-.4.21-.6,2.07.34,4.21.38,6.35.09.05.2.12.4.19.6,1.06,2.67,4.1,3.98,6.77,2.92s3.98-4.09,2.92-6.76c-.08-.2-.17-.39-.27-.57,1.75-1.25,3.28-2.75,4.55-4.42.18.11.37.2.56.29,2.65,1.14,5.71-.08,6.85-2.72,1.14-2.64-.08-5.71-2.72-6.85-.2-.08-.4-.15-.6-.21.34-2.07.38-4.21.09-6.34.2-.05.4-.11.6-.19,2.68-1.06,3.98-4.09,2.92-6.76-1.06-2.67-4.1-3.98-6.77-2.92ZM513.36,421.71c-4.97,1.97-10.6-.46-12.58-5.43-1.98-4.97.45-10.59,5.42-12.56,4.97-1.97,10.6.46,12.58,5.43,1.98,4.97-.45,10.59-5.42,12.56Z"/>
      </g>
    </g>
  </g>
</svg>