<?xml version="1.0" encoding="UTF-8"?>
<svg id="Layer_2" data-name="Layer 2" xmlns="http://www.w3.org/2000/svg" viewBox="0 0 694.26 602.71">
  <defs>
    <style>
      .cls-1 {
        fill: #5b626f;
      }

      .cls-2 {
        opacity: .3;
      }

      .cls-2, .cls-3 {
        fill: #f60;
      }

      .cls-4 {
        fill: #b7b7b7;
      }

      .cls-5 {
        fill: #fff;
      }
    </style>
  </defs>
  <g id="Layer_3" data-name="Layer 3">
    <g>
      <path class="cls-4" d="M321.66,588.67c0,2.84-.7,5.31-2.09,7.43-1.4,2.12-3.41,3.75-6.04,4.89-2.63,1.15-5.84,1.72-9.62,1.72-1.67,0-3.3-.11-4.89-.34-1.6-.23-3.13-.55-4.59-.98-1.46-.43-2.85-.96-4.15-1.59v-9.52c2.29.99,4.67,1.9,7.12,2.73,2.45.83,4.89,1.25,7.32,1.25,1.66,0,3-.22,4.02-.67,1.01-.45,1.75-1.06,2.23-1.82.47-.76.71-1.64.71-2.63,0-1.21-.42-2.25-1.25-3.11-.83-.85-1.95-1.65-3.34-2.4-1.39-.74-2.99-1.54-4.79-2.4-1.12-.54-2.34-1.18-3.64-1.92-1.31-.74-2.55-1.66-3.75-2.77-1.19-1.1-2.17-2.44-2.94-4.02-.77-1.57-1.15-3.46-1.15-5.67,0-2.88.66-5.34,1.99-7.39,1.33-2.05,3.22-3.61,5.67-4.69,2.45-1.08,5.34-1.62,8.67-1.62,2.52,0,4.92.29,7.19.88,2.27.58,4.65,1.42,7.12,2.5l-3.31,7.97c-2.21-.9-4.19-1.6-5.94-2.09-1.75-.49-3.55-.74-5.4-.74-1.26,0-2.34.2-3.24.61-.9.41-1.59.97-2.06,1.69-.47.72-.71,1.58-.71,2.57,0,1.13.34,2.08,1.01,2.87.68.79,1.69,1.54,3.04,2.26,1.35.72,3.04,1.58,5.06,2.56,2.47,1.17,4.58,2.39,6.31,3.65,1.73,1.26,3.07,2.75,4.02,4.46.95,1.71,1.42,3.83,1.42,6.34Z"/>
      <path class="cls-4" d="M354.47,562.61v8.3h-10.06v31.12h-10.06v-31.12h-9.99v-8.3h30.11Z"/>
      <path class="cls-4" d="M360.47,562.75h23.69v7.56h-13.97v7.56h13.03v7.56h-13.03v8.98h13.97v7.63h-23.69v-39.29Z"/>
      <path class="cls-4" d="M417.44,582.86c-.09-.45-.27-1.28-.54-2.5-.27-1.21-.53-2.47-.78-3.78-.25-1.3-.42-2.32-.51-3.04-.04.72-.19,1.73-.44,3.04-.25,1.31-.5,2.56-.74,3.78-.25,1.21-.44,2.07-.57,2.57l-4.86,19.1h-11.14l-10.19-39.29h9.38l4.79,20.72c.18.72.4,1.73.67,3.04.27,1.31.55,2.62.84,3.95.29,1.33.48,2.44.57,3.34.13-1.17.35-2.55.64-4.15.29-1.6.6-3.14.91-4.62.31-1.49.58-2.63.81-3.44l4.86-18.83h9.04l4.79,18.83c.22.81.49,1.96.81,3.44.31,1.48.63,3.03.95,4.62.31,1.6.54,2.98.68,4.15.13-.9.31-2.01.54-3.34.22-1.33.47-2.64.74-3.95.27-1.3.49-2.32.67-3.04l4.86-20.72h9.38l-10.26,39.29h-11.14l-4.79-19.17Z"/>
      <path class="cls-4" d="M442.62,602.03l13.84-39.49h12.28l13.97,39.49h-10.39l-2.63-8.44h-13.97l-2.63,8.44h-10.46ZM465.17,577.87c-.23-.67-.5-1.56-.81-2.67s-.63-2.24-.95-3.41c-.31-1.17-.58-2.16-.81-2.97-.13.81-.36,1.8-.67,2.97-.32,1.17-.63,2.32-.95,3.44s-.56,2-.74,2.63l-2.43,7.9h9.72l-2.36-7.9Z"/>
      <path class="cls-4" d="M499.93,562.75c5.49,0,9.59.98,12.29,2.94s4.05,4.87,4.05,8.74c0,2.56-.69,4.69-2.06,6.38s-3.09,3.05-5.16,4.08l11.88,17.14h-10.8l-9.25-14.71h-3.71v14.71h-9.72v-39.29h12.49ZM499.52,579.96c2.34,0,4.09-.42,5.26-1.25,1.17-.83,1.76-2.15,1.76-3.95,0-1.58-.56-2.74-1.69-3.51s-2.9-1.15-5.33-1.15h-2.36v9.86h2.36Z"/>
      <path class="cls-4" d="M559.06,581.58c0,4.55-.88,8.34-2.63,11.38-1.76,3.04-4.23,5.31-7.43,6.82-3.2,1.51-6.95,2.26-11.27,2.26h-12.69v-39.42h13.57c6.57,0,11.62,1.63,15.15,4.89,3.53,3.26,5.3,7.95,5.3,14.07ZM548.53,581.99c0-3.78-.82-6.59-2.46-8.44-1.64-1.85-4.08-2.77-7.32-2.77h-3.58v23.08h2.84c3.6,0,6.25-.98,7.96-2.94,1.71-1.96,2.56-4.94,2.56-8.94Z"/>
    </g>
    <g id="Cash_flow_statement" data-name="Cash flow statement">
      <g>
        <g>
          <polygon class="cls-5" points="675.15 402.68 675.15 523.05 693.55 402.68 675.15 402.68"/>
          <path class="cls-1" d="M675.75,523.14l-1.2-.09v-120.98h19.71l-18.51,121.07ZM675.76,403.28v111.82l17.1-111.82h-17.1Z"/>
        </g>
        <g>
          <rect class="cls-5" x="376.22" y="148.96" width="298.93" height="374.1"/>
          <path class="cls-1" d="M675.15,523.66h-298.93c-.33,0-.6-.27-.6-.6v-36.52c0-.33.27-.6.6-.6s.6.27.6.6v35.91h297.72V149.56h-297.72v255.41c0,.33-.27.6-.6.6s-.6-.27-.6-.6V148.96c0-.33.27-.6.6-.6h298.93c.33,0,.6.27.6.6v374.1c0,.33-.27.6-.6.6Z"/>
          <g>
            <g>
              <ellipse class="cls-5" cx="521.83" cy="282.68" rx="73.86" ry="74.05"/>
              <path class="cls-1" d="M521.83,357.34c-41.06,0-74.46-33.49-74.46-74.65s33.4-74.65,74.46-74.65,74.46,33.49,74.46,74.65-33.4,74.65-74.46,74.65ZM521.83,209.24c-40.39,0-73.25,32.95-73.25,73.44s32.86,73.44,73.25,73.44,73.25-32.95,73.25-73.44-32.86-73.44-73.25-73.44Z"/>
            </g>
            <path class="cls-3" d="M604.57,262.37c-8.84-37.54-42.42-65.49-82.53-65.6v85.63s68.77-16.84,82.53-20.03Z"/>
            <g>
              <path class="cls-5" d="M473.73,218.69c-17.35,13.04-28.42,32.45-31.31,53.38,19.54,2.62,79.7,10.6,79.7,10.6,0,0-40.46-53.25-48.4-63.98Z"/>
              <path class="cls-1" d="M522.13,283.27s-.05,0-.08,0c-.6-.08-60.39-8.01-79.71-10.6-.16-.02-.3-.11-.4-.23-.1-.13-.14-.29-.12-.45,2.94-21.33,14.44-40.93,31.54-53.78.13-.1.29-.14.45-.11.16.02.3.11.4.24,7.84,10.6,47.99,63.44,48.39,63.97.15.19.16.46.04.67-.11.19-.31.3-.52.3ZM443.11,271.55c18.17,2.44,68.49,9.11,77.66,10.33-5.86-7.72-39.24-51.67-47.16-62.34-16.42,12.54-27.5,31.44-30.5,52.01Z"/>
            </g>
          </g>
        </g>
        <g>
          <path class="cls-5" d="M654.72,385.88v-7.93c0-4.04-3.28-7.32-7.32-7.32h-43.38c-4.04,0-7.32,3.28-7.32,7.32v7.93h-117.87v123.42c0,7.6,6.16,13.76,13.76,13.76h182.57v-137.18h-20.43Z"/>
          <path class="cls-1" d="M675.76,523.66h-183.17c-7.92,0-14.36-6.44-14.36-14.36v-124.02h117.87v-7.33c0-4.37,3.56-7.93,7.93-7.93h43.38c4.37,0,7.93,3.56,7.93,7.93v7.33h20.43v138.38ZM479.43,386.48v122.81c0,7.25,5.9,13.16,13.16,13.16h181.96v-135.97h-20.43v-8.54c0-3.7-3.01-6.72-6.72-6.72h-43.38c-3.7,0-6.72,3.01-6.72,6.72v8.54h-117.87Z"/>
        </g>
      </g>
      <g>
        <g>
          <g>
            <g>
              <circle class="cls-5" cx="391.61" cy="106.25" r="29.15" transform="translate(198.23 462.97) rotate(-76.72)"/>
              <path class="cls-3" d="M391.61,136c-16.41,0-29.75-13.35-29.75-29.75s13.35-29.75,29.75-29.75,29.75,13.35,29.75,29.75-13.35,29.75-29.75,29.75ZM391.61,77.7c-15.74,0-28.55,12.81-28.55,28.55s12.81,28.55,28.55,28.55,28.55-12.81,28.55-28.55-12.81-28.55-28.55-28.55Z"/>
            </g>
            <g>
              <circle class="cls-5" cx="391.61" cy="106.25" r="22.92"/>
              <path class="cls-3" d="M391.61,129.77c-12.97,0-23.52-10.55-23.52-23.52s10.55-23.52,23.52-23.52,23.52,10.55,23.52,23.52-10.55,23.52-23.52,23.52ZM391.61,83.93c-12.3,0-22.31,10.01-22.31,22.31s10.01,22.31,22.31,22.31,22.31-10.01,22.31-22.31-10.01-22.31-22.31-22.31Z"/>
            </g>
          </g>
          <g>
            <g>
              <circle class="cls-5" cx="374.04" cy="106.25" r="29.15" transform="translate(34.43 295.61) rotate(-45)"/>
              <path class="cls-3" d="M374.04,136c-16.41,0-29.75-13.35-29.75-29.75s13.35-29.75,29.75-29.75,29.75,13.35,29.75,29.75-13.35,29.75-29.75,29.75ZM374.04,77.7c-15.74,0-28.55,12.81-28.55,28.55s12.81,28.55,28.55,28.55,28.55-12.81,28.55-28.55-12.81-28.55-28.55-28.55Z"/>
            </g>
            <g>
              <circle class="cls-5" cx="374.04" cy="106.25" r="22.92"/>
              <path class="cls-3" d="M374.04,129.77c-12.97,0-23.52-10.55-23.52-23.52s10.55-23.52,23.52-23.52,23.52,10.55,23.52,23.52-10.55,23.52-23.52,23.52ZM374.04,83.93c-12.3,0-22.31,10.01-22.31,22.31s10.01,22.31,22.31,22.31,22.31-10.01,22.31-22.31-10.01-22.31-22.31-22.31Z"/>
            </g>
          </g>
          <g>
            <circle class="cls-3" cx="356.48" cy="106.25" r="29.15" transform="translate(171.17 428.78) rotate(-76.72)"/>
            <path class="cls-5" d="M356.48,129.77c-12.97,0-23.52-10.55-23.52-23.52s10.55-23.52,23.52-23.52,23.52,10.55,23.52,23.52-10.55,23.52-23.52,23.52ZM356.48,83.93c-12.3,0-22.31,10.01-22.31,22.31s10.01,22.31,22.31,22.31,22.31-10.01,22.31-22.31-10.01-22.31-22.31-22.31Z"/>
            <path class="cls-5" d="M354.98,124.35v-4.45c-2.56-.04-5.2-.84-6.75-1.94l1.06-2.95c1.59,1.06,3.88,1.9,6.35,1.9,3.13,0,5.25-1.81,5.25-4.32s-1.72-3.93-4.98-5.25c-4.5-1.76-7.28-3.79-7.28-7.63s2.6-6.44,6.66-7.1v-4.45h2.73v4.28c2.65.09,4.45.79,5.73,1.54l-1.1,2.91c-.93-.53-2.73-1.5-5.56-1.5-3.4,0-4.67,2.03-4.67,3.79,0,2.29,1.63,3.44,5.47,5.03,4.54,1.85,6.84,4.15,6.84,8.07,0,3.48-2.43,6.75-6.97,7.5v4.59h-2.78Z"/>
          </g>
        </g>
        <path class="cls-1" d="M197.64,136c-.33,0-.6-.27-.6-.6v-29.15c0-.33.27-.6.6-.6h117.56c.33,0,.6.27.6.6s-.27.6-.6.6h-116.96v28.55c0,.33-.27.6-.6.6Z"/>
        <g>
          <g>
            <rect class="cls-5" x="207.09" y="157.55" width="129.33" height="38.52"/>
            <g>
              <path class="cls-1" d="M296.49,168.11h-69.1c-.33,0-.6-.27-.6-.6s.27-.6.6-.6h69.1c.33,0,.6.27.6.6s-.27.6-.6.6Z"/>
              <path class="cls-1" d="M296.49,177.42h-69.1c-.33,0-.6-.27-.6-.6s.27-.6.6-.6h69.1c.33,0,.6.27.6.6s-.27.6-.6.6Z"/>
              <path class="cls-1" d="M296.49,186.72h-69.1c-.33,0-.6-.27-.6-.6s.27-.6.6-.6h69.1c.33,0,.6.27.6.6s-.27.6-.6.6Z"/>
            </g>
          </g>
          <g>
            <path class="cls-3" d="M301.96,186.72c-.15,0-.29-.05-.41-.16-.24-.23-.26-.61-.03-.85l11.39-12.3c.23-.25.66-.25.89,0l6.88,7.43,34.48-37.24c.23-.25.61-.26.85-.03.24.23.26.61.03.85l-34.92,37.71c-.23.25-.66.25-.89,0l-6.88-7.43-10.95,11.82c-.12.13-.28.19-.44.19Z"/>
            <polygon class="cls-3" points="356.5 150.31 355.29 150.31 355.28 144.35 349.33 144.8 349.24 143.59 356.48 143.05 356.5 150.31"/>
          </g>
        </g>
      </g>
      <g>
        <path class="cls-1" d="M152.78,136c.11-7.58.26-15.42,2.56-22.56,1.99-6.17,5.54-11.6,6.48-18.13,1.02-7.09-1.36-14.1-5.01-18.67-3.4-4.26-7.37-6.88-13.19-9.17-9.37-3.69-24.29-9.58-40.81-5.43-21.04,5.29-32.9,23.89-39.79,34.71-14.64,22.97-9.62,30.25-29.72,72.98-6.41,13.63-9.03,17.24-13.25,29.02-1.99,5.55-16.39,45.66-4.55,54.83.16.12.77.85,1.85,1.09,4.59,1.03,10.34-8.82,26.24-11.42,26.25-4.3,37.29,20.97,77.64,22.45,6.57.24,13.45.12,19.58-4.04,14.29-9.71,10.72-36.39,10.96-53.48.34-24.06.68-48.12,1.03-72.18Z"/>
        <g>
          <path class="cls-5" d="M233.18,532.96l-45.84-182.47-121.67,24.75c-38.01,50.27-44.46,115.64-44.34,157.72h211.86Z"/>
          <path class="cls-1" d="M233.18,533.56c-.27,0-.52-.18-.59-.46-3.82-15.16-7.77-30.97-11.81-47.08-11.36-45.38-23.1-92.3-34.18-134.51-5.5,1.08-11.01,2.16-16.54,3.24-34.22,6.71-69.61,13.64-104.08,21.02-28.51,37.49-43.34,90.37-44.06,157.18,0,.33-.28.62-.61.6-.33,0-.6-.28-.6-.61.34-31.59,3.81-60.26,10.3-85.22,7.35-28.28,18.84-52.79,34.15-72.86.09-.11.21-.19.35-.22,34.55-7.4,70.02-14.35,104.32-21.08,5.71-1.12,11.41-2.23,17.09-3.35.31-.06.62.13.7.44,11.12,42.36,22.92,89.49,34.32,135.07,4.03,16.11,7.99,31.92,11.81,47.08.08.32-.11.65-.44.73-.05.01-.1.02-.15.02Z"/>
          <path class="cls-1" d="M140.01,532.73c-.32,0-.58-.25-.6-.57-.23-3.83-.56-9.96-.87-15.89-.31-5.93-.64-12.06-.87-15.88-.15-2.49-.32-4.99-.48-7.48-.33-4.92-.66-10.01-.9-15.02-.47-9.91,4.7-18.91,13.18-22.94,2.94-1.4,5.97-2.7,8.91-3.96,1.47-.63,2.94-1.26,4.41-1.91.31-.14.66,0,.8.31.13.31,0,.66-.31.8-1.47.65-2.94,1.28-4.42,1.92-2.93,1.26-5.96,2.56-8.87,3.95-8.03,3.82-12.93,12.38-12.49,21.8.24,5,.57,10.08.9,15,.17,2.5.33,4.99.48,7.49.23,3.83.56,9.96.87,15.89.31,5.93.64,12.06.87,15.88.02.33-.23.62-.57.64-.01,0-.03,0-.04,0Z"/>
        </g>
        <g>
          <path class="cls-5" d="M94.85,129.09l-18.02,61.85s34.39,42.39,60.31,40.71c25.91-1.67,21.09-31.01,1.78-40.11l-18.85-5.46,5.62-48.48-30.84-8.51Z"/>
          <g>
            <g>
              <path class="cls-5" d="M149.33,116.27c1.31,7.12,1.34,14.61-1.06,21.44-2.4,6.82-7.47,12.91-14.23,15.49-5.86,2.24-12.57,1.7-18.36-.72-5.79-2.42-10.72-6.6-14.74-11.41-6.18,2.2-13.71-.36-17.27-5.88-2.05-3.18-2.78-7.41-1.1-10.8,1.68-3.39,6.09-5.42,9.51-3.8,1.95.92,3.34,2.8,5.32,3.64,2.22.94,4.86.38,6.85-.96,2-1.34,3.43-3.37,4.57-5.49,3.6-6.66,4.67-14.65,2.96-22.03.16.7,3.87,1.75,4.53,1.97,1.66.56,3.37.98,5.1,1.25,3.42.53,6.92.49,10.33-.1,1.73-.3,3.43-.74,5.08-1.33,1.31-.47,3.02-1.71,4.41-1.72,2.92-.03,3.79,5.3,4.5,7.36,1.47,4.28,2.77,8.63,3.58,13.08Z"/>
              <path class="cls-1" d="M126.07,155.22c-3.52,0-7.15-.73-10.62-2.18-5.29-2.21-10.24-6-14.7-11.26-6.33,2.03-13.98-.67-17.58-6.25-2.36-3.66-2.8-8.03-1.13-11.4,1.91-3.87,6.73-5.78,10.31-4.08,1.01.48,1.86,1.18,2.68,1.85.86.71,1.67,1.38,2.62,1.78,1.87.79,4.28.44,6.28-.9,1.64-1.1,3.03-2.78,4.38-5.27,3.52-6.51,4.58-14.39,2.9-21.6h0c-.08-.33.13-.65.45-.73.3-.07.59.09.7.37.2.21,1.01.63,3.7,1.47.2.06.36.11.46.15,1.61.54,3.29.95,5,1.22,3.36.52,6.77.49,10.13-.09,1.71-.3,3.38-.74,4.99-1.3.42-.15.91-.4,1.42-.66,1.05-.53,2.14-1.09,3.19-1.1h.03c2.85,0,3.94,3.89,4.66,6.47.14.5.26.94.38,1.29,1.75,5.1,2.89,9.29,3.61,13.17,1.49,8.14,1.13,15.46-1.09,21.75-2.62,7.44-8.07,13.37-14.58,15.85-2.54.97-5.32,1.45-8.18,1.45ZM100.94,140.47c.18,0,.35.08.46.22,4.41,5.28,9.29,9.06,14.51,11.24,6,2.51,12.53,2.76,17.91.71,6.18-2.36,11.37-8.02,13.87-15.13,2.14-6.09,2.5-13.2,1.04-21.13-.7-3.83-1.83-7.96-3.56-13-.13-.38-.26-.83-.4-1.36-.62-2.23-1.56-5.59-3.5-5.59h-.02c-.77,0-1.73.5-2.65.97-.55.28-1.07.54-1.57.72-1.67.59-3.41,1.05-5.18,1.36-3.5.61-7.04.64-10.52.1-1.78-.28-3.53-.7-5.2-1.27-.09-.03-.24-.08-.43-.14-1.34-.42-2.32-.76-3.01-1.06,1.28,7.08.1,14.65-3.32,20.97-1.45,2.68-2.96,4.49-4.77,5.7-2.34,1.57-5.19,1.96-7.43,1.01-1.11-.47-2.03-1.23-2.92-1.96-.8-.66-1.56-1.28-2.43-1.69-2.96-1.4-7.11.28-8.71,3.53-1.46,2.94-1.04,6.95,1.07,10.2,3.39,5.25,10.67,7.73,16.56,5.63.07-.02.13-.03.2-.03ZM112.38,95.62h0s0,0,0,0Z"/>
            </g>
            <g>
              <path class="cls-5" d="M90.5,129.54c3.45-.17,6.9,1.9,8.37,5.03l-8.37-5.03Z"/>
              <path class="cls-1" d="M98.87,135.17c-.23,0-.44-.13-.55-.35-1.37-2.92-4.58-4.84-7.79-4.68-.34,0-.62-.24-.63-.57-.02-.33.24-.62.57-.63,3.68-.18,7.37,2.02,8.95,5.37.14.3.01.66-.29.8-.08.04-.17.06-.26.06Z"/>
            </g>
          </g>
        </g>
        <g>
          <path class="cls-3" d="M47.84,388.97c-12.68-6.61-20.69-19.57-26.76-32.51C6.82,326.04-.11,292.33,0,258.72c.05-16.66,2.12-34.19,11.86-47.71,10.54-14.63,28.56-22.23,46.4-24.92,7.18-1.08,14.81-1.42,21.43,1.56,8.61,3.88,13.85,12.51,20.33,19.37,7.54,7.98,17.27,13.87,27.83,16.85,6.75,1.9,14.89,2.38,19.3-4.09,1.97-2.9,2.58-6.48,2.12-9.96-.97-7.29-5.74-12.91-10.36-18.29,8.88-1.44,18.01,2.11,25.02,7.75,7.01,5.63,12.2,13.19,16.92,20.84,14.44,23.39,25.54,48.74,34.43,74.75,3.14,9.2,6.05,18.82,5.05,28.49-1.13,10.94-3.16,21.39-11.24,28.86-2.61,2.42-5.1,4.58-7.27,6.4-4.12,3.46-9.52,4.91-14.85,4.17-29.35-4.04-100.33,18.97-106.33,23.84-9.04,7.33-22.69,7.59-32.8,2.32Z"/>
          <path class="cls-1" d="M76.84,299.43c-.26,0-.49-.16-.58-.42l-14.02-44.03c-.1-.32.07-.66.39-.76.32-.1.66.07.76.39l14.02,44.03c.1.32-.07.66-.39.76-.06.02-.12.03-.18.03Z"/>
          <path class="cls-1" d="M175.94,282.54c-.3,0-.55-.22-.6-.52-1.75-12.22-4.77-24.3-8.97-35.91-.11-.31.05-.66.36-.77.31-.11.66.05.77.36,4.22,11.69,7.26,23.85,9.03,36.15.05.33-.18.64-.51.68-.03,0-.06,0-.09,0Z"/>
          <g>
            <path class="cls-5" d="M81.58,376.22c.49,1.61,1.2,3.43,2.79,3.95,1.26.42,2.79.13,3.82-.71,22.08-18.02,39.69-29.62,65.85-40.88,3.32-1.43-1.93,13.09,16.99.12,2.98-2.04.49-8.15-3.08-8.75,2.95-.42,5.47-2.97,5.85-5.92s-1.42-6.06-4.18-7.2c2.86.53,5.52-2.32,5.66-5.22.14-2.9-1.58-5.6-3.65-7.63,7.91,3.84,19,15.03,25.27,7.49,1.68-7.64-3.67-11.71-9.6-16.82-5.93-5.11-13.66-7.64-21.35-9.08-17.1-3.22-34.92-1.62-51.63,3.23-14.71,4.26-28.71,10.96-41.7,19.03-3.19,1.98-4.26,2.41-4.31,6.1-.05,3.95,1.1,8.29,1.72,12.19,1.28,8.11,2.84,16.18,4.66,24.19,1.98,8.72,4.28,17.37,6.9,25.93Z"/>
            <path class="cls-1" d="M154.51,338.9c-.26,0-.49-.16-.58-.42-.1-.32.07-.66.39-.76l7.56-2.41c.32-.1.66.07.76.39.1.32-.07.66-.39.76l-7.56,2.41c-.06.02-.12.03-.18.03Z"/>
            <path class="cls-1" d="M41.23,327.45c-.17,0-.35-.08-.47-.22-.21-.26-.17-.64.08-.85,7.58-6.23,15.93-11.5,24.82-15.67.3-.14.66-.01.8.29.14.3.01.66-.29.8-8.79,4.13-17.06,9.35-24.56,15.51-.11.09-.25.14-.38.14Z"/>
          </g>
          <g>
            <path class="cls-5" d="M177.93,345.74c.12,4.99,1.55,10.34,5.48,13.4,5.06,3.94,12.32,2.83,18.49,1.05,29.28-8.42,55.69-24.66,70.88-51.08.63-1.09,6.2-14.45,3.92-17.46-2.15-2.84-7.48,2.55-10.96,3.28-15.08,3.16-29.96,7.28-44.52,12.3-7.49,2.58-14.89,5.4-22.2,8.46-5.58,2.34-10.34,2.97-14.07,8.03-4.64,6.3-7.21,14.17-7.02,22Z"/>
            <path class="cls-1" d="M201.91,360.8c-.26,0-.5-.17-.58-.44-.09-.32.09-.66.41-.75,32.39-9.31,56.77-26.88,70.52-50.8.9-1.56,5.88-14.25,3.96-16.79-.2-.27-.15-.64.12-.85.27-.2.64-.15.85.12,2.74,3.61-3.8,17.99-3.87,18.13-13.91,24.2-38.54,41.96-71.23,51.36-.06.02-.11.02-.17.02Z"/>
            <path class="cls-1" d="M292.31,266.11h-53.83c-1.15,0-2.23.53-2.94,1.43l-43.4,55.22c-1.93,2.45-.18,6.05,2.94,6.05h51.97c1.12,0,2.18-.5,2.89-1.37l45.26-55.22c2-2.44.26-6.11-2.89-6.11Z"/>
            <path class="cls-5" d="M269.42,273.21c-.65-.59-1.57-1.18-2.34-.76-.67.36-.8,1.26-.84,2.02-.43,7.48-.86,14.95-1.29,22.43.09-6.69-1.65-13.6-5.98-18.7-1.07-1.25-2.95-2.44-4.21-1.38-.76.64-.82,1.77-.77,2.76.37,8.39,3.73,17.07.78,24.93-.53-5-1.72-9.93-3.53-14.62-.74-1.92-1.66-3.9-3.34-5.09-1.68-1.19-4.32-1.27-5.58.37-1.33,1.73-.51,4.21.22,6.27,2.12,5.97,3.02,12.38,2.63,18.71-.81-4.94-1.83-10.27-5.52-13.67-1.08-.99-2.41-1.79-3.88-1.91-1.46-.12-3.05.57-3.68,1.89-.7,1.46-.12,3.17.34,4.71,1.8,5.96,1.76,12.44.01,18.41-1.31,4.47-6.92,10.5-.98,13.99,2.04,1.2,4.55,1.29,6.89.96,6.61-.95,12.35-4.94,17.52-9.17,5.27-4.32,10.28-9.06,14.13-14.69,3.85-5.63,6.5-12.21,6.69-19.03.19-6.81-2.26-13.84-7.28-18.44Z"/>
          </g>
        </g>
      </g>
      <g>
        <path class="cls-1" d="M376.22,487.14h-131.6c-.33,0-.6-.27-.6-.6v-74.89c0-.33.27-.6.6-.6s.6.27.6.6v74.28h130.99c.33,0,.6.27.6.6s-.27.6-.6.6Z"/>
        <rect class="cls-2" x="249.63" y="431.89" width="9.42" height="50.32"/>
        <rect class="cls-2" x="264.46" y="455.17" width="9.42" height="27.04"/>
        <rect class="cls-2" x="279.29" y="444.65" width="9.42" height="37.56"/>
        <rect class="cls-2" x="294.13" y="428.19" width="9.42" height="54.02"/>
        <rect class="cls-2" x="309.2" y="416.89" width="8.95" height="65.32"/>
        <rect class="cls-2" x="323.79" y="413.42" width="9.42" height="68.78"/>
        <rect class="cls-2" x="338.63" y="421.99" width="9.42" height="60.22"/>
        <rect class="cls-2" x="353.46" y="431.89" width="9.42" height="50.32"/>
      </g>
    </g>
    <g>
      <path class="cls-4" d="M215.69,48.2h-10.33V8.57h-13.03V0h36.38v8.57h-13.03v39.62Z"/>
      <path class="cls-4" d="M267.33,8.91v39.29h-9.72v-16.54h-14.51v16.54h-9.72V8.91h9.72v14.99h14.51v-14.99h9.72Z"/>
      <path class="cls-4" d="M276.85,8.91h23.69v7.56h-13.97v7.56h13.03v7.56h-13.03v8.98h13.97v7.63h-23.69V8.91Z"/>
      <path class="cls-4" d="M342.05,0c6.21,0,10.8,1.29,13.77,3.88,2.97,2.59,4.46,6.24,4.46,10.97,0,2.12-.32,4.14-.94,6.08-.63,1.93-1.68,3.68-3.14,5.23-1.46,1.55-3.39,2.77-5.77,3.65-2.39.88-5.31,1.32-8.78,1.32h-4.39v17.08h-10.33V0h15.12ZM341.71,8.44h-4.45v14.18h3.44c1.89,0,3.52-.24,4.89-.71,1.37-.47,2.43-1.26,3.17-2.36.74-1.1,1.11-2.55,1.11-4.35,0-2.16-.66-3.82-1.99-4.99-1.33-1.17-3.39-1.76-6.18-1.76Z"/>
      <path class="cls-4" d="M380.32,8.91c5.49,0,9.58.98,12.28,2.94,2.7,1.96,4.05,4.87,4.05,8.74,0,2.57-.69,4.69-2.06,6.38-1.37,1.69-3.09,3.05-5.16,4.08l11.88,17.14h-10.8l-9.25-14.71h-3.71v14.71h-9.72V8.91h12.49ZM379.92,26.12c2.34,0,4.09-.42,5.26-1.25,1.17-.83,1.75-2.15,1.75-3.95,0-1.58-.56-2.75-1.69-3.51-1.12-.76-2.9-1.15-5.33-1.15h-2.36v9.86h2.36Z"/>
      <path class="cls-4" d="M401.04,48.2l13.84-39.49h12.28l13.97,39.49h-10.39l-2.63-8.44h-13.97l-2.63,8.44h-10.46ZM423.59,24.03c-.23-.67-.5-1.56-.81-2.67-.32-1.1-.63-2.24-.95-3.41-.32-1.17-.58-2.16-.81-2.97-.13.81-.36,1.8-.67,2.97-.32,1.17-.63,2.32-.94,3.44-.32,1.13-.56,2-.74,2.63l-2.43,7.9h9.72l-2.36-7.9Z"/>
      <path class="cls-4" d="M477.86,46.37c-2.02.67-4.34,1.24-6.95,1.69-2.61.45-5.36.67-8.24.67-3.87,0-7.25-.74-10.12-2.23s-5.13-3.72-6.75-6.72c-1.62-2.99-2.43-6.76-2.43-11.31,0-4.14.8-7.71,2.4-10.7,1.6-2.99,3.95-5.32,7.05-6.99,3.1-1.67,6.93-2.5,11.47-2.5,2.43,0,4.75.24,6.95.71,2.2.47,4.14,1.07,5.8,1.79l-3.24,7.76c-1.44-.72-2.94-1.26-4.49-1.62-1.55-.36-3.23-.54-5.03-.54-2.47,0-4.49.55-6.04,1.65-1.55,1.1-2.69,2.58-3.41,4.42-.72,1.85-1.08,3.89-1.08,6.14,0,3.87.85,6.84,2.56,8.91,1.71,2.07,4.12,3.11,7.22,3.11.72,0,1.56-.06,2.53-.17.97-.11,1.72-.24,2.26-.37v-6.95h-7.49v-7.69h17.01v20.92Z"/>
      <path class="cls-4" d="M531.05,8.91v39.29h-8.91v-18.02c0-1.21.02-2.61.07-4.18.04-1.58.1-3.05.17-4.42.07-1.37.12-2.4.17-3.07h-.2l-9.45,29.7h-9.04l-9.11-29.77h-.27c.09.67.18,1.71.27,3.11.09,1.39.17,2.89.24,4.49.07,1.6.1,3.07.1,4.42v17.75h-8.64V8.91h13.03l9.11,29.09h.2l9.38-29.09h12.89Z"/>
      <path class="cls-4" d="M535.91,48.2l13.84-39.49h12.28l13.97,39.49h-10.39l-2.63-8.44h-13.97l-2.63,8.44h-10.46ZM558.45,24.03c-.23-.67-.5-1.56-.81-2.67-.32-1.1-.63-2.24-.95-3.41-.32-1.17-.58-2.16-.81-2.97-.13.81-.36,1.8-.67,2.97-.32,1.17-.63,2.32-.94,3.44-.32,1.13-.56,2-.74,2.63l-2.43,7.9h9.72l-2.36-7.9Z"/>
      <path class="cls-4" d="M605.77,8.78v8.3h-10.06v31.12h-10.06v-31.12h-9.99v-8.3h30.11Z"/>
      <path class="cls-4" d="M609.08,48.2v-5.67l4.86-1.82v-24.44l-4.86-1.75v-5.74h19.91v5.74l-4.86,1.75v24.44l4.86,1.82v5.67h-19.91Z"/>
      <path class="cls-4" d="M653.76,16.47c-2.03,0-3.75.48-5.16,1.45-1.42.97-2.5,2.36-3.24,4.18s-1.11,3.99-1.11,6.51c0,3.87.8,6.82,2.4,8.84,1.6,2.03,4.08,3.04,7.46,3.04,1.75,0,3.45-.2,5.1-.61,1.64-.4,3.27-1.01,4.89-1.82v8.5c-1.71.77-3.48,1.32-5.3,1.65-1.82.34-3.75.51-5.77.51-4.5,0-8.17-.84-11-2.53s-4.92-4.05-6.24-7.09c-1.33-3.04-1.99-6.56-1.99-10.56s.75-7.47,2.26-10.53c1.51-3.06,3.75-5.46,6.72-7.19,2.97-1.73,6.62-2.6,10.93-2.6,2.12,0,4.17.23,6.18.67,2,.45,3.99,1.1,5.97,1.96l-3.11,7.9c-1.44-.67-2.89-1.23-4.35-1.65-1.46-.43-3-.64-4.62-.64Z"/>
    </g>
  </g>
</svg>