<?xml version="1.0" encoding="UTF-8"?>
<svg id="Layer_2" data-name="Layer 2" xmlns="http://www.w3.org/2000/svg" viewBox="0 0 767.94 625.79">
  <defs>
    <style>
      .cls-1 {
        fill: #5b626f;
      }

      .cls-2 {
        opacity: .3;
      }

      .cls-2, .cls-3 {
        fill: #f60;
      }

      .cls-4 {
        fill: #b7b7b7;
      }

      .cls-5 {
        fill: #fff;
      }
    </style>
  </defs>
  <g id="Layer_3" data-name="Layer 3">
    <g>
      <path class="cls-4" d="M34.26,48.2h-10.33V8.57h-13.03V0h36.38v8.57h-13.03v39.62Z"/>
      <path class="cls-4" d="M85.9,8.91v39.29h-9.72v-16.54h-14.51v16.54h-9.72V8.91h9.72v14.99h14.51v-14.99h9.72Z"/>
      <path class="cls-4" d="M95.41,8.91h23.69v7.56h-13.97v7.56h13.03v7.56h-13.03v8.98h13.97v7.63h-23.69V8.91Z"/>
      <path class="cls-4" d="M160.62,0c6.21,0,10.8,1.29,13.77,3.88,2.97,2.59,4.46,6.24,4.46,10.97,0,2.12-.31,4.14-.94,6.08-.63,1.94-1.68,3.68-3.14,5.23-1.46,1.55-3.39,2.77-5.77,3.65-2.39.88-5.31,1.32-8.78,1.32h-4.39v17.08h-10.33V0h15.12ZM160.28,8.44h-4.45v14.18h3.44c1.89,0,3.52-.24,4.89-.71,1.37-.47,2.43-1.26,3.17-2.36.74-1.1,1.11-2.55,1.11-4.35,0-2.16-.66-3.82-1.99-4.99-1.33-1.17-3.39-1.76-6.18-1.76Z"/>
      <path class="cls-4" d="M186.4,8.91h23.69v7.56h-13.97v7.56h13.03v7.56h-13.03v8.98h13.97v7.63h-23.69V8.91Z"/>
      <path class="cls-4" d="M230.41,8.91c5.49,0,9.58.98,12.28,2.94,2.7,1.96,4.05,4.87,4.05,8.74,0,2.56-.69,4.69-2.06,6.38-1.37,1.69-3.09,3.05-5.16,4.08l11.88,17.14h-10.8l-9.25-14.71h-3.71v14.71h-9.72V8.91h12.49ZM230.01,26.12c2.34,0,4.09-.42,5.27-1.25,1.17-.83,1.75-2.15,1.75-3.95,0-1.58-.56-2.74-1.69-3.51s-2.9-1.15-5.33-1.15h-2.36v9.86h2.36Z"/>
      <path class="cls-4" d="M255.86,8.91h23.56v7.56h-14.04v8.91h13.1v7.63h-13.1v15.19h-9.52V8.91Z"/>
      <path class="cls-4" d="M324.1,28.49c0,4.05-.68,7.59-2.03,10.63-1.35,3.04-3.45,5.4-6.31,7.09s-6.56,2.53-11.1,2.53-8.12-.84-11-2.53c-2.88-1.69-5.01-4.06-6.38-7.12-1.37-3.06-2.06-6.62-2.06-10.67s.7-7.59,2.09-10.63c1.39-3.04,3.53-5.39,6.41-7.05,2.88-1.66,6.55-2.5,11-2.5s8.18.84,11.04,2.53,4.96,4.04,6.31,7.05c1.35,3.02,2.03,6.57,2.03,10.67ZM295.28,28.49c0,2.57.33,4.78.98,6.65s1.66,3.3,3.04,4.29c1.37.99,3.16,1.49,5.37,1.49s4.06-.5,5.43-1.49c1.37-.99,2.36-2.42,2.97-4.29.61-1.87.91-4.08.91-6.65,0-3.87-.71-6.92-2.13-9.15-1.42-2.23-3.79-3.34-7.12-3.34-2.21,0-4.01.51-5.4,1.52-1.4,1.01-2.42,2.44-3.07,4.29-.65,1.85-.98,4.07-.98,6.68Z"/>
      <path class="cls-4" d="M344.49,8.91c5.49,0,9.59.98,12.29,2.94s4.05,4.87,4.05,8.74c0,2.56-.69,4.69-2.06,6.38s-3.09,3.05-5.16,4.08l11.88,17.14h-10.8l-9.25-14.71h-3.71v14.71h-9.72V8.91h12.49ZM344.08,26.12c2.34,0,4.09-.42,5.26-1.25,1.17-.83,1.76-2.15,1.76-3.95,0-1.58-.56-2.74-1.69-3.51s-2.9-1.15-5.33-1.15h-2.36v9.86h2.36Z"/>
      <path class="cls-4" d="M414.55,8.91v39.29h-8.91v-18.02c0-1.21.02-2.61.07-4.18s.1-3.05.17-4.42c.07-1.37.12-2.4.17-3.07h-.2l-9.45,29.7h-9.04l-9.11-29.77h-.27c.09.68.18,1.71.27,3.11s.17,2.89.24,4.49c.07,1.6.1,3.07.1,4.42v17.75h-8.64V8.91h13.03l9.11,29.09h.2l9.38-29.09h12.89Z"/>
      <path class="cls-4" d="M419.41,48.2l13.84-39.49h12.29l13.97,39.49h-10.39l-2.63-8.44h-13.97l-2.63,8.44h-10.46ZM441.95,24.03c-.22-.67-.5-1.56-.81-2.67-.32-1.1-.63-2.24-.95-3.41-.32-1.17-.59-2.16-.81-2.97-.13.81-.36,1.8-.68,2.97-.31,1.17-.63,2.32-.94,3.44-.32,1.12-.56,2-.74,2.63l-2.43,7.9h9.72l-2.36-7.9Z"/>
      <path class="cls-4" d="M501.36,8.91v39.29h-12.35l-16.4-28.82h-.27c.04.5.09,1.15.13,1.96.04.81.09,1.71.13,2.7.04.99.09,2,.13,3.04s.09,2.02.14,2.97v18.16h-8.64V8.91h12.42l16.4,28.49h.13c0-.5-.02-1.14-.07-1.92-.05-.79-.09-1.65-.14-2.6s-.09-1.91-.13-2.9-.07-1.93-.07-2.84V8.91h8.57Z"/>
      <path class="cls-4" d="M529.03,16.47c-2.03,0-3.75.48-5.16,1.45-1.42.97-2.5,2.36-3.24,4.18-.74,1.82-1.11,3.99-1.11,6.51,0,3.87.8,6.82,2.4,8.84,1.6,2.03,4.08,3.04,7.46,3.04,1.75,0,3.45-.2,5.1-.61,1.64-.4,3.27-1.01,4.89-1.82v8.5c-1.71.77-3.48,1.32-5.3,1.65-1.82.34-3.75.51-5.77.51-4.5,0-8.17-.84-11-2.53-2.84-1.69-4.92-4.05-6.24-7.09-1.33-3.04-1.99-6.56-1.99-10.56s.75-7.47,2.26-10.53,3.75-5.46,6.72-7.19c2.97-1.73,6.62-2.6,10.93-2.6,2.12,0,4.17.23,6.18.67,2,.45,3.99,1.1,5.97,1.96l-3.11,7.9c-1.44-.68-2.89-1.23-4.35-1.65-1.46-.43-3-.64-4.62-.64Z"/>
      <path class="cls-4" d="M547.05,8.91h23.69v7.56h-13.97v7.56h13.03v7.56h-13.03v8.98h13.97v7.63h-23.69V8.91Z"/>
    </g>
    <g>
      <g>
        <g>
          <g>
            <rect class="cls-5" x="473.99" y="102.12" width="116.82" height="351.76"/>
            <path class="cls-1" d="M590.81,454.49h-116.82c-.34,0-.61-.27-.61-.61V102.12c0-.34.27-.61.61-.61h116.82c.34,0,.61.27.61.61v351.76c0,.34-.27.61-.61.61ZM474.6,453.27h115.6V102.73h-115.6v350.54Z"/>
          </g>
          <g>
            <rect class="cls-5" x="412.69" y="102.12" width="142.86" height="351.76"/>
            <path class="cls-1" d="M555.55,454.49h-142.86c-.34,0-.61-.27-.61-.61V102.12c0-.34.27-.61.61-.61h142.86c.34,0,.61.27.61.61v351.76c0,.34-.27.61-.61.61ZM413.3,453.27h141.64V102.73h-141.64v350.54Z"/>
          </g>
          <g>
            <g>
              <rect class="cls-5" x="424.37" y="124.54" width="119.5" height="19.41" transform="translate(968.24 268.5) rotate(180)"/>
              <path class="cls-1" d="M543.87,144.57h-119.5c-.34,0-.61-.27-.61-.61v-19.41c0-.34.27-.61.61-.61h119.5c.34,0,.61.27.61.61v19.41c0,.34-.27.61-.61.61ZM424.98,143.34h118.28v-18.19h-118.28v18.19Z"/>
            </g>
            <g>
              <ellipse class="cls-2" cx="530.28" cy="134.25" rx="5.13" ry="5.21"/>
              <ellipse class="cls-2" cx="515.3" cy="134.25" rx="5.13" ry="5.21"/>
              <ellipse class="cls-2" cx="500.32" cy="134.25" rx="5.13" ry="5.21"/>
            </g>
          </g>
          <g>
            <g>
              <rect class="cls-5" x="424.37" y="158.02" width="119.5" height="19.41" transform="translate(968.24 335.46) rotate(180)"/>
              <path class="cls-1" d="M543.87,178.05h-119.5c-.34,0-.61-.27-.61-.61v-19.41c0-.34.27-.61.61-.61h119.5c.34,0,.61.27.61.61v19.41c0,.34-.27.61-.61.61ZM424.98,176.83h118.28v-18.19h-118.28v18.19Z"/>
            </g>
            <g>
              <path class="cls-2" d="M525.15,167.73c0-2.88,2.3-5.21,5.13-5.21s5.13,2.33,5.13,5.21-2.3,5.21-5.13,5.21-5.13-2.33-5.13-5.21Z"/>
              <path class="cls-2" d="M510.17,167.73c0-2.88,2.3-5.21,5.13-5.21s5.13,2.33,5.13,5.21-2.3,5.21-5.13,5.21-5.13-2.33-5.13-5.21Z"/>
              <path class="cls-2" d="M495.18,167.73c0-2.88,2.3-5.21,5.13-5.21s5.13,2.33,5.13,5.21-2.3,5.21-5.13,5.21-5.13-2.33-5.13-5.21Z"/>
            </g>
          </g>
          <g>
            <g>
              <rect class="cls-5" x="424.37" y="315.86" width="119.5" height="19.41" transform="translate(968.24 651.14) rotate(180)"/>
              <path class="cls-1" d="M543.87,335.89h-119.5c-.34,0-.61-.27-.61-.61v-19.41c0-.34.27-.61.61-.61h119.5c.34,0,.61.27.61.61v19.41c0,.34-.27.61-.61.61ZM424.98,334.67h118.28v-18.19h-118.28v18.19Z"/>
            </g>
            <g>
              <path class="cls-2" d="M525.15,325.57c0-2.88,2.3-5.21,5.13-5.21s5.13,2.33,5.13,5.21-2.3,5.21-5.13,5.21-5.13-2.33-5.13-5.21Z"/>
              <path class="cls-2" d="M510.17,325.57c0-2.88,2.3-5.21,5.13-5.21s5.13,2.33,5.13,5.21-2.3,5.21-5.13,5.21-5.13-2.33-5.13-5.21Z"/>
              <path class="cls-2" d="M495.18,325.57c0-2.88,2.3-5.21,5.13-5.21s5.13,2.33,5.13,5.21-2.3,5.21-5.13,5.21-5.13-2.33-5.13-5.21Z"/>
            </g>
          </g>
          <g>
            <g>
              <rect class="cls-5" x="424.37" y="349.35" width="119.5" height="19.41" transform="translate(968.24 718.1) rotate(180)"/>
              <path class="cls-1" d="M543.87,369.37h-119.5c-.34,0-.61-.27-.61-.61v-19.41c0-.34.27-.61.61-.61h119.5c.34,0,.61.27.61.61v19.41c0,.34-.27.61-.61.61ZM424.98,368.15h118.28v-18.19h-118.28v18.19Z"/>
            </g>
            <g>
              <ellipse class="cls-2" cx="530.28" cy="359.05" rx="5.13" ry="5.21"/>
              <ellipse class="cls-2" cx="515.3" cy="359.05" rx="5.13" ry="5.21"/>
              <ellipse class="cls-2" cx="500.32" cy="359.05" rx="5.13" ry="5.21"/>
            </g>
          </g>
          <g>
            <g>
              <rect class="cls-5" x="424.37" y="220.2" width="119.5" height="19.41" transform="translate(968.24 459.82) rotate(180)"/>
              <path class="cls-1" d="M543.87,240.23h-119.5c-.34,0-.61-.27-.61-.61v-19.41c0-.34.27-.61.61-.61h119.5c.34,0,.61.27.61.61v19.41c0,.34-.27.61-.61.61ZM424.98,239.01h118.28v-18.19h-118.28v18.19Z"/>
            </g>
            <g>
              <ellipse class="cls-2" cx="530.28" cy="229.91" rx="5.13" ry="5.21"/>
              <ellipse class="cls-2" cx="515.3" cy="229.91" rx="5.13" ry="5.21"/>
              <ellipse class="cls-2" cx="500.32" cy="229.91" rx="5.13" ry="5.21"/>
            </g>
          </g>
          <g>
            <g>
              <rect class="cls-5" x="424.37" y="253.68" width="119.5" height="19.41" transform="translate(968.24 526.78) rotate(180)"/>
              <path class="cls-1" d="M543.87,273.71h-119.5c-.34,0-.61-.27-.61-.61v-19.41c0-.34.27-.61.61-.61h119.5c.34,0,.61.27.61.61v19.41c0,.34-.27.61-.61.61ZM424.98,272.49h118.28v-18.19h-118.28v18.19Z"/>
            </g>
            <g>
              <path class="cls-2" d="M525.15,263.39c0-2.88,2.3-5.21,5.13-5.21s5.13,2.33,5.13,5.21-2.3,5.21-5.13,5.21-5.13-2.33-5.13-5.21Z"/>
              <path class="cls-2" d="M510.17,263.39c0-2.88,2.3-5.21,5.13-5.21s5.13,2.33,5.13,5.21-2.3,5.21-5.13,5.21-5.13-2.33-5.13-5.21Z"/>
              <path class="cls-2" d="M495.18,263.39c0-2.88,2.3-5.21,5.13-5.21s5.13,2.33,5.13,5.21-2.3,5.21-5.13,5.21-5.13-2.33-5.13-5.21Z"/>
            </g>
          </g>
        </g>
        <g>
          <g>
            <rect class="cls-5" x="644.02" y="102.12" width="116.82" height="351.76"/>
            <path class="cls-1" d="M760.84,454.49h-116.82c-.34,0-.61-.27-.61-.61V102.12c0-.34.27-.61.61-.61h116.82c.34,0,.61.27.61.61v351.76c0,.34-.27.61-.61.61ZM644.63,453.27h115.6V102.73h-115.6v350.54Z"/>
          </g>
          <g>
            <rect class="cls-5" x="582.72" y="102.12" width="142.86" height="351.76"/>
            <path class="cls-1" d="M725.58,454.49h-142.86c-.34,0-.61-.27-.61-.61V102.12c0-.34.27-.61.61-.61h142.86c.34,0,.61.27.61.61v351.76c0,.34-.27.61-.61.61ZM583.33,453.27h141.64V102.73h-141.64v350.54Z"/>
          </g>
          <g>
            <g>
              <rect class="cls-5" x="594.4" y="124.54" width="119.5" height="19.41" transform="translate(1308.3 268.5) rotate(180)"/>
              <path class="cls-1" d="M713.9,144.57h-119.5c-.34,0-.61-.27-.61-.61v-19.41c0-.34.27-.61.61-.61h119.5c.34,0,.61.27.61.61v19.41c0,.34-.27.61-.61.61ZM595.01,143.34h118.28v-18.19h-118.28v18.19Z"/>
            </g>
            <g>
              <ellipse class="cls-2" cx="700.31" cy="134.25" rx="5.13" ry="5.21"/>
              <ellipse class="cls-2" cx="685.33" cy="134.25" rx="5.13" ry="5.21"/>
              <ellipse class="cls-3" cx="670.35" cy="134.25" rx="5.13" ry="5.21"/>
            </g>
          </g>
          <g>
            <g>
              <rect class="cls-5" x="594.4" y="158.02" width="119.5" height="19.41" transform="translate(1308.3 335.46) rotate(180)"/>
              <path class="cls-1" d="M713.9,178.05h-119.5c-.34,0-.61-.27-.61-.61v-19.41c0-.34.27-.61.61-.61h119.5c.34,0,.61.27.61.61v19.41c0,.34-.27.61-.61.61ZM595.01,176.83h118.28v-18.19h-118.28v18.19Z"/>
            </g>
            <g>
              <path class="cls-2" d="M695.18,167.73c0-2.88,2.3-5.21,5.13-5.21s5.13,2.33,5.13,5.21-2.3,5.21-5.13,5.21-5.13-2.33-5.13-5.21Z"/>
              <path class="cls-3" d="M680.2,167.73c0-2.88,2.3-5.21,5.13-5.21s5.13,2.33,5.13,5.21-2.3,5.21-5.13,5.21-5.13-2.33-5.13-5.21Z"/>
              <path class="cls-2" d="M665.21,167.73c0-2.88,2.3-5.21,5.13-5.21s5.13,2.33,5.13,5.21-2.3,5.21-5.13,5.21-5.13-2.33-5.13-5.21Z"/>
            </g>
          </g>
          <g>
            <g>
              <rect class="cls-5" x="594.4" y="315.86" width="119.5" height="19.41" transform="translate(1308.3 651.14) rotate(180)"/>
              <path class="cls-1" d="M713.9,335.89h-119.5c-.34,0-.61-.27-.61-.61v-19.41c0-.34.27-.61.61-.61h119.5c.34,0,.61.27.61.61v19.41c0,.34-.27.61-.61.61ZM595.01,334.67h118.28v-18.19h-118.28v18.19Z"/>
            </g>
            <g>
              <path class="cls-2" d="M695.18,325.57c0-2.88,2.3-5.21,5.13-5.21s5.13,2.33,5.13,5.21-2.3,5.21-5.13,5.21-5.13-2.33-5.13-5.21Z"/>
              <path class="cls-2" d="M680.2,325.57c0-2.88,2.3-5.21,5.13-5.21s5.13,2.33,5.13,5.21-2.3,5.21-5.13,5.21-5.13-2.33-5.13-5.21Z"/>
              <path class="cls-2" d="M665.21,325.57c0-2.88,2.3-5.21,5.13-5.21s5.13,2.33,5.13,5.21-2.3,5.21-5.13,5.21-5.13-2.33-5.13-5.21Z"/>
            </g>
          </g>
          <g>
            <g>
              <rect class="cls-5" x="594.4" y="349.35" width="119.5" height="19.41" transform="translate(1308.3 718.1) rotate(180)"/>
              <path class="cls-1" d="M713.9,369.37h-119.5c-.34,0-.61-.27-.61-.61v-19.41c0-.34.27-.61.61-.61h119.5c.34,0,.61.27.61.61v19.41c0,.34-.27.61-.61.61ZM595.01,368.15h118.28v-18.19h-118.28v18.19Z"/>
            </g>
            <g>
              <ellipse class="cls-2" cx="700.31" cy="359.05" rx="5.13" ry="5.21"/>
              <ellipse class="cls-2" cx="685.33" cy="359.05" rx="5.13" ry="5.21"/>
              <ellipse class="cls-2" cx="670.35" cy="359.05" rx="5.13" ry="5.21"/>
            </g>
          </g>
          <g>
            <g>
              <rect class="cls-5" x="594.4" y="220.2" width="119.5" height="19.41" transform="translate(1308.3 459.82) rotate(180)"/>
              <path class="cls-1" d="M713.9,240.23h-119.5c-.34,0-.61-.27-.61-.61v-19.41c0-.34.27-.61.61-.61h119.5c.34,0,.61.27.61.61v19.41c0,.34-.27.61-.61.61ZM595.01,239.01h118.28v-18.19h-118.28v18.19Z"/>
            </g>
            <g>
              <ellipse class="cls-2" cx="700.31" cy="229.91" rx="5.13" ry="5.21"/>
              <ellipse class="cls-2" cx="685.33" cy="229.91" rx="5.13" ry="5.21"/>
              <ellipse class="cls-2" cx="670.35" cy="229.91" rx="5.13" ry="5.21"/>
            </g>
          </g>
          <g>
            <g>
              <rect class="cls-5" x="594.4" y="253.68" width="119.5" height="19.41" transform="translate(1308.3 526.78) rotate(180)"/>
              <path class="cls-1" d="M713.9,273.71h-119.5c-.34,0-.61-.27-.61-.61v-19.41c0-.34.27-.61.61-.61h119.5c.34,0,.61.27.61.61v19.41c0,.34-.27.61-.61.61ZM595.01,272.49h118.28v-18.19h-118.28v18.19Z"/>
            </g>
            <g>
              <path class="cls-2" d="M695.18,263.39c0-2.88,2.3-5.21,5.13-5.21s5.13,2.33,5.13,5.21-2.3,5.21-5.13,5.21-5.13-2.33-5.13-5.21Z"/>
              <path class="cls-2" d="M680.2,263.39c0-2.88,2.3-5.21,5.13-5.21s5.13,2.33,5.13,5.21-2.3,5.21-5.13,5.21-5.13-2.33-5.13-5.21Z"/>
              <path class="cls-3" d="M665.21,263.39c0-2.88,2.3-5.21,5.13-5.21s5.13,2.33,5.13,5.21-2.3,5.21-5.13,5.21-5.13-2.33-5.13-5.21Z"/>
            </g>
          </g>
        </g>
      </g>
      <g>
        <g>
          <polygon class="cls-5" points="454.59 556.9 395.86 363.76 329.83 341.64 265.71 386.93 261.59 556.9 454.59 556.9"/>
          <path class="cls-1" d="M261.61,556.89s-.01,0-.02,0c-.34,0-.6-.29-.6-.63l4.1-169.34c0-.19.1-.37.26-.48l64.12-45.3c.16-.11.36-.14.55-.08l66.03,22.12c.19.06.33.21.39.4l58.46,192.43c.1.32-.08.66-.41.76s-.66-.08-.76-.41l-58.37-192.13-65.44-21.92-63.62,44.94-4.09,169.04c0,.33-.28.6-.61.6Z"/>
          <path class="cls-1" d="M359.85,556.89c-.31,0-.57-.23-.61-.54l-11.84-102.35c-.42-3.63,1.03-7.16,3.88-9.44l5.68-4.55c.26-.21.65-.17.86.1.21.26.17.65-.1.86l-5.68,4.55c-2.52,2.02-3.81,5.14-3.43,8.35l11.84,102.35c.04.34-.2.64-.54.68-.02,0-.05,0-.07,0Z"/>
        </g>
        <g>
          <g>
            <path class="cls-1" d="M357.92,135.04c2.77-4.17,5.06-9.32,3.47-14.08-1.68-5.02-8-7.88-12.88-5.83,2.05-3.57,3.72-7.37,4.96-11.3-13.34-.38-27.07,1.97-38.48,8.9-11.41,6.93-20.2,18.87-21.25,32.18-.44,5.54.53,11.38,3.83,15.85,3.46,4.69,9.08,7.35,14.74,8.76,7.37,1.84,15.49,1.79,22.2-1.76,4.53-2.4,8.23-6.58,9.83-11.47.41-1.24.68-2.53.78-3.84.07-.94-.4-2.68-.04-3.5.43-.98,2.26-1.96,3.07-2.68,1.15-1.02,2.26-2.09,3.33-3.2,2.38-2.48,4.54-5.17,6.45-8.03Z"/>
            <path class="cls-1" d="M345.6,135.59c-.16,0-.31-.06-.43-.18-.24-.24-.24-.62,0-.86,2.79-2.81,4.85-6.31,5.97-10.11.1-.32.43-.51.76-.41.32.09.51.43.41.76-1.17,3.99-3.34,7.67-6.27,10.62-.12.12-.28.18-.43.18Z"/>
          </g>
          <path class="cls-5" d="M344.37,207.63l-7.46-.81,1.97-25.48s-6.2-31.06-30.09-7.87l-4.38,34.6-7.02.88s2.85,16.14,22.89,16.09c17.03-.04,24.39-5.78,24.09-17.41Z"/>
          <path class="cls-1" d="M300.24,209.21c-.3,0-.57-.23-.6-.53-.04-.33.19-.64.53-.68l3.71-.47,4.32-34.13c.02-.14.08-.26.18-.36,7.42-7.21,13.97-9.99,19.47-8.29,8.81,2.74,11.53,15.91,11.64,16.47.01.05.01.11.01.17l-1.92,24.89,3.81.41c.34.04.58.34.54.67-.04.34-.34.58-.67.54l-4.4-.48c-.33-.04-.57-.33-.54-.65l1.96-25.4c-.24-1.09-3.01-13.05-10.8-15.47-5-1.55-11.09,1.09-18.1,7.85l-4.35,34.39c-.04.28-.25.49-.53.53l-4.18.53s-.05,0-.08,0Z"/>
          <g>
            <path class="cls-5" d="M319.85,174.66c3.58,3.07,7.84,5.44,12.47,6.32,4.63.88,9.64.16,13.57-2.44,6.57-4.36,8.96-13.21,7.8-21.01-1.16-7.8-5.21-14.83-9.25-21.61,0,0-15.39,11.8-29.52,13.7-1.8,4.59-2.01,9.06-.97,13.45,0,0-3.14-2.85-6.02-.97-3.12,2.03-4.37,6.42-2.87,9.82,1.5,3.4,5.4,5.49,9.1,5.13,2.09-.21,4.01-.61,5.69-2.39Z"/>
            <path class="cls-1" d="M336.11,181.95c-1.29,0-2.6-.12-3.9-.37-4.23-.8-8.48-2.9-12.32-6.09-1.81,1.66-3.86,2-5.67,2.17-4.05.4-8.14-1.91-9.72-5.49-1.62-3.67-.23-8.41,3.09-10.58,2.04-1.33,4.14-.63,5.45.11-.71-4.16-.27-8.29,1.3-12.3.08-.21.27-.35.49-.38,13.81-1.86,29.08-13.46,29.23-13.58.14-.11.32-.15.49-.12.17.03.32.14.41.29,3.61,6.07,8.11,13.62,9.33,21.83,1.34,8.99-1.83,17.47-8.06,21.61-2.87,1.9-6.42,2.9-10.12,2.9ZM319.85,174.05c.14,0,.28.05.4.15,3.79,3.25,8.01,5.39,12.19,6.18,4.74.9,9.52.04,13.12-2.35,6.64-4.41,8.57-13.43,7.53-20.41-1.15-7.72-5.33-14.93-8.83-20.81-2.86,2.09-16.37,11.53-28.9,13.36-1.58,4.21-1.85,8.39-.81,12.75.06.26-.05.53-.28.67-.23.14-.52.11-.72-.07-.11-.1-2.83-2.51-5.28-.91-2.85,1.86-4.03,5.92-2.65,9.07,1.37,3.11,4.93,5.12,8.48,4.77,2.2-.22,3.85-.66,5.31-2.2.12-.13.28-.19.44-.19Z"/>
          </g>
          <path class="cls-1" d="M316.89,171.12s-.09,0-.14-.02c-1.85-.43-3.62-1.15-5.24-2.13-.29-.18-.38-.55-.2-.84.17-.29.55-.38.84-.2,1.52.92,3.16,1.59,4.89,1.99.33.08.53.4.46.73-.06.28-.32.47-.59.47Z"/>
        </g>
        <g>
          <g>
            <path class="cls-5" d="M440.81,293.79c11.51-24.76-21.65-67.34-59.44-81.31-14.46-5.34-27.74-5.82-36.95-5.28-.8,2.57-1.95,5.06-3.66,7.15-3.29,4.05-8.55,6.28-13.59,7.08-4.85.77-9.94.51-14.67-.81-4.25-1.19-8.4-3.34-11.54-6.47-1.45-1.44-2.63-3.08-3.52-4.86-29.39,2.34-47.9,5.9-63.43,24.86-20.01,24.43-36.69,70.39-31.83,99.41,4.86,29.02,18.2,38,35.22,43.59l-.74,15.69c-.83,17.38,16.37,29.97,32.69,23.92l135.94-50.36c6.61-2.45,10.08-9.71,7.82-16.4-4.97-11.63-9.94-23.25-14.91-34.88,33.78-3.8,41.31-18.5,42.62-21.34Z"/>
            <path class="cls-1" d="M260.89,418.9c-5.2,0-10.35-1.64-14.68-4.81-6.76-4.95-10.56-12.9-10.16-21.27l.72-15.23c-17.72-5.91-30.47-15.73-35.19-43.92-2.29-13.7.05-32.07,6.61-51.72,6.17-18.48,15.41-36.04,25.35-48.18,16.27-19.86,36.73-22.92,63.86-25.08.25-.02.48.11.59.34.87,1.74,2.02,3.32,3.4,4.7,2.89,2.88,6.79,5.07,11.28,6.32,4.61,1.29,9.6,1.56,14.41.79,3.28-.52,9.35-2.1,13.22-6.86,1.51-1.85,2.67-4.13,3.55-6.95.08-.24.29-.41.55-.43,13.08-.76,25.59,1.02,37.2,5.31,25.15,9.29,49.19,31.49,58.45,53.98,4.43,10.76,4.89,20.49,1.33,28.16-2.46,5.29-11.49,17.92-42.29,21.59l14.59,34.13c2.4,7.09-1.2,14.63-8.17,17.21l-135.94,50.36c-2.82,1.04-5.75,1.56-8.66,1.56ZM297.08,209.94c-31.42,2.52-47.95,6.72-62.6,24.61-19.35,23.63-36.71,69.01-31.7,98.92,4.66,27.82,17.29,37.35,34.81,43.11.26.09.43.33.42.61l-.75,15.69c-.38,7.96,3.24,15.52,9.67,20.22,6.43,4.71,14.73,5.86,22.2,3.09l135.94-50.36c6.35-2.35,9.62-9.22,7.45-15.63l-14.89-34.84c-.08-.18-.06-.38.03-.55.1-.17.27-.28.46-.3,31.71-3.57,40.27-16.97,42.14-20.99,3.42-7.35,2.95-16.75-1.35-27.18-9.15-22.2-32.89-44.11-57.75-53.3-11.33-4.19-23.53-5.96-36.29-5.26-.91,2.79-2.11,5.07-3.64,6.95-4.12,5.07-10.52,6.75-13.97,7.3-4.99.79-10.15.51-14.93-.82-4.69-1.31-8.77-3.6-11.81-6.63-1.38-1.38-2.54-2.94-3.44-4.65Z"/>
          </g>
          <g>
            <path class="cls-1" d="M395.86,313.28c-.2,0-.4-.1-.51-.28l-41.48-64.44c-.18-.28-.1-.66.18-.84.28-.18.66-.1.84.18l41.48,64.44c.18.28.1.66-.18.84-.1.07-.22.1-.33.1Z"/>
            <g>
              <g>
                <path class="cls-5" d="M376.99,210.69c-9.98-9.11-8.98-29.41-27.03-37.42-1.89,2.85-4.39,5.99-5.78,6.75-7.06-5.25-9.23-7.03-15.75-11.77-2.07-1.5-4.84-2.87-7.51-2.5-1.29.18-2.99,1.07-3.69,2.17-1.39,2.18.76,5.12,2.09,7.09,3.7,5.45,6,6.54,9.77,10.62,0,0-9.16,1.4-8.69,10.02,0,0-5.4.96-2.96,11.38,0,0-3.06,8.16,4.24,12.72,5.25,3.28,8.7,1.98,8.7,1.98,0,0,17.55,21.97,28.99,29.5,11.44,7.53,26.94-31.99,17.59-40.52Z"/>
                <path class="cls-1" d="M362.43,252.78c-1.17,0-2.3-.35-3.37-1.05-10.78-7.1-26.6-26.49-28.88-29.31-1.14.26-4.38.61-8.8-2.16-7.01-4.38-4.95-11.99-4.55-13.27-1-4.36-.78-7.67.64-9.84.78-1.18,1.74-1.72,2.32-1.95-.11-6.85,5.68-9.23,8.14-9.93-.99-1.03-1.89-1.86-2.76-2.68-2-1.87-3.9-3.64-6.35-7.26l-.2-.29c-1.37-2.01-3.44-5.05-1.9-7.47.86-1.34,2.76-2.26,4.12-2.45,3.03-.41,5.99,1.19,7.95,2.61,3.89,2.83,6.25,4.62,8.99,6.69,1.79,1.35,3.75,2.84,6.43,4.83,1.2-.88,3.32-3.43,5.25-6.34.16-.25.48-.34.76-.22,11.17,4.96,15.25,14.67,18.84,23.24,2.33,5.55,4.53,10.8,8.35,14.29,6.94,6.34.9,27.51-6.44,36.95-2.87,3.69-5.81,5.59-8.53,5.59ZM330.41,221.11c.18,0,.36.08.48.23.18.22,17.62,21.98,28.85,29.37,3.99,2.63,8.14-1.55,10.26-4.27,7.76-9.98,12.48-29.91,6.58-35.29-4.02-3.67-6.27-9.04-8.65-14.72-3.62-8.64-7.37-17.57-17.74-22.39-1.74,2.58-4.18,5.68-5.71,6.51-.21.11-.47.1-.66-.05-2.85-2.12-4.91-3.68-6.77-5.09-2.73-2.07-5.09-3.85-8.97-6.68-1.45-1.06-4.3-2.77-7.06-2.39-1.08.15-2.65.95-3.25,1.9-1.11,1.73.62,4.27,1.88,6.12l.2.3c2.38,3.51,4.14,5.15,6.17,7.05,1.09,1.02,2.22,2.07,3.54,3.5.15.17.2.4.13.62-.07.21-.26.37-.48.4-.35.05-8.6,1.43-8.17,9.38.02.31-.2.58-.5.63-.04,0-1.17.25-2.06,1.61-.85,1.31-1.6,3.94-.41,9.02.03.12.02.24-.02.35-.12.31-2.79,7.75,3.99,11.99,4.89,3.06,8.14,1.94,8.17,1.92.07-.02.14-.04.21-.04Z"/>
              </g>
              <path class="cls-1" d="M330.3,222.25c-.1,0-.21-.03-.3-.08-3.37-1.91-6.22-5.42-7.2-7.76-.13-.31.02-.67.33-.8.31-.13.67.02.8.33.77,1.84,3.34,5.28,6.67,7.17.29.17.4.54.23.83-.11.2-.32.31-.53.31Z"/>
              <path class="cls-1" d="M351.81,184.33c-.07,0-.14-.01-.2-.03-.23-.08-5.57-1.96-7.78-3.73-.26-.21-.31-.6-.09-.86.21-.26.6-.31.86-.09,2.04,1.64,7.36,3.51,7.42,3.53.32.11.49.46.37.78-.09.25-.32.41-.58.41Z"/>
            </g>
          </g>
          <path class="cls-1" d="M393.82,239.66h-68.51c-.98,0-1.84.64-2.12,1.58l-26.03,87.7c-.42,1.42.64,2.84,2.12,2.84h68.51c.98,0,1.84-.64,2.12-1.58l26.03-87.7c.42-1.42-.64-2.84-2.12-2.84Z"/>
          <g>
            <g>
              <g>
                <path class="cls-5" d="M358.64,307.96c2.94-2.84,4.74-5.92,2.86-8.94-1.88-3.02-6.61-3.73-9.29-1.38,1.98-1.56,4.02-3.19,5.23-5.41,1.21-2.22,1.37-5.21-.29-7.11-1.46-1.67-3.97-2.09-6.14-1.61-1.07.24-2.08.66-3.05,1.17.94-1.41,1.2-3.41.4-4.95-1.36-2.64-4.68-3.76-7.63-3.43-2.95.33-5.62,1.82-8.2,3.28-17.29,9.73-51.45,29.5-51.45,29.5-.9,4.92,17.1,44.51,23.91,51.13,4.41-1.32,37.43-27.78,49.95-38.52,2.1-1.8,4.26-3.71,5.32-6.26,1.07-2.55.67-5.94-1.63-7.48Z"/>
                <path class="cls-1" d="M305,360.82c-.16,0-.31-.06-.43-.17-3.73-3.62-10.18-16-14.97-26.38-4.54-9.83-9.65-22.35-9.11-25.29.03-.18.14-.33.29-.42.34-.2,34.36-19.88,51.45-29.5,2.49-1.41,5.32-3.01,8.44-3.36,2.96-.33,6.66.7,8.24,3.76.61,1.17.69,2.64.3,3.99.57-.23,1.13-.4,1.67-.52,2.09-.46,4.95-.23,6.73,1.8,1.96,2.23,1.56,5.61.37,7.8-.65,1.19-1.52,2.22-2.47,3.13.57-.05,1.15-.03,1.74.06,2.04.3,3.78,1.39,4.77,2.98,1.71,2.75.91,5.77-2.46,9.21,2.13,1.92,2.29,5.33,1.27,7.77-1.16,2.77-3.56,4.83-5.49,6.49-12.61,10.82-45.62,37.27-50.17,38.64-.06.02-.12.03-.18.03ZM281.66,309.45c-.22,5.59,16.44,42.66,23.49,50.05,5.24-2.28,35.86-26.66,49.39-38.27,1.83-1.57,4.11-3.53,5.16-6.03.93-2.23.66-5.35-1.4-6.73-.15-.1-.25-.27-.27-.45-.02-.18.05-.37.18-.49,3.35-3.23,4.23-5.83,2.77-8.18-.8-1.29-2.23-2.17-3.91-2.42-1.51-.22-2.96.09-4.07.87-.14.11-.27.22-.41.32-.26.2-.64.16-.85-.09-.21-.25-.18-.63.07-.85.15-.13.3-.25.45-.36,1.72-1.36,3.57-2.9,4.64-4.88,1-1.83,1.35-4.62-.22-6.42-1.18-1.34-3.35-1.9-5.55-1.41-.91.2-1.85.57-2.9,1.11-.25.13-.55.08-.74-.13-.19-.21-.21-.52-.05-.75.88-1.32,1.03-3.06.37-4.33-1.31-2.53-4.56-3.38-7.02-3.1-2.87.32-5.58,1.86-7.97,3.21-16.28,9.17-47.93,27.47-51.17,29.34Z"/>
              </g>
              <path class="cls-1" d="M327.69,298.42c-.21,0-.41-.1-.52-.29-.18-.29-.09-.66.2-.84,6.31-3.89,12.64-7.95,18.8-12.08.28-.19.66-.11.85.17.19.28.11.66-.17.85-6.17,4.14-12.51,8.21-18.84,12.11-.1.06-.21.09-.32.09Z"/>
              <path class="cls-1" d="M335.7,310.28c-.19,0-.38-.09-.5-.26-.2-.27-.13-.66.14-.85l16.32-11.67c.27-.2.66-.13.85.14.2.27.13.66-.14.85l-16.32,11.67c-.11.08-.23.11-.35.11Z"/>
              <path class="cls-1" d="M343.35,320c-.2,0-.39-.09-.51-.27-.19-.28-.12-.66.16-.85,4.95-3.35,9.8-6.97,14.42-10.76.26-.21.64-.18.86.08.21.26.18.65-.08.86-4.65,3.82-9.53,7.46-14.51,10.83-.1.07-.22.1-.34.1Z"/>
            </g>
            <path class="cls-1" d="M252.74,379.83c-4.65,0-9.31-.37-13.93-1.12-.33-.05-.56-.37-.5-.7.05-.33.36-.56.7-.5,22.81,3.71,46.58-2.02,65.2-15.71.27-.2.65-.14.85.13.2.27.14.65-.13.85-15.11,11.12-33.56,17.06-52.19,17.06Z"/>
            <path class="cls-1" d="M242.52,332.08c-.21,0-.42-.11-.53-.31-.17-.29-.07-.67.22-.83l36.66-21.18c.29-.17.67-.07.83.22.17.29.07.67-.22.83l-36.66,21.18c-.1.06-.2.08-.31.08Z"/>
            <path class="cls-1" d="M254.27,322.68s-.08,0-.12-.01c-.33-.07-.54-.39-.48-.72l9.87-48.14c.07-.33.39-.54.72-.48.33.07.54.39.48.72l-9.87,48.14c-.06.29-.31.49-.6.49Z"/>
          </g>
        </g>
      </g>
      <g>
        <g>
          <circle class="cls-1" cx="123.2" cy="172.03" r="30.52"/>
          <path class="cls-1" d="M241.05,363.13c-36.69,9.63-182.99,46.31-203.37,5.92-6.19-12.27.17-29.82,4.47-41.67,13.68-37.69,47.05-56.03,61.12-83.04,9.36-17.98,12.61-36.84,12.61-36.84.34-2.02,3.52-20.31,20.84-28.94,8.96-4.47,21.57-5.56,39.18,1.52,0,0,15.44-4,28.97,4.8,9.64,6.27,14.01,16.23,16.75,25.13,12.62,40.98,19.04,146.55,19.42,153.11Z"/>
          <path class="cls-5" d="M117.36,202.94c-.07,0-.13-.01-.2-.03-.32-.11-.49-.46-.38-.78,2.98-8.52,12.53-28.29,36.95-27.73.34,0,.6.29.6.62s-.29.6-.62.6c-22.77-.52-32.18,16.64-35.77,26.91-.09.25-.32.41-.58.41Z"/>
        </g>
        <g>
          <g>
            <polygon class="cls-5" points="342.95 543 207.12 543 216.82 464.11 291.2 449.64 342.95 543"/>
            <path class="cls-1" d="M342.95,543.61h-135.83c-.18,0-.34-.07-.46-.21-.12-.13-.17-.31-.15-.48l9.69-78.88c.03-.26.23-.47.49-.52l74.39-14.47c.26-.05.52.07.65.3l51.75,93.35c.1.19.1.42,0,.61s-.31.3-.53.3ZM207.81,542.38h134.1l-51.03-92.06-73.51,14.3-9.56,77.76Z"/>
          </g>
          <path class="cls-3" d="M244.94,474.48l68.86-1.45s-30.8-63.16-50.16-100.49c-9.23-17.79-25.52-30.87-44.91-35.97-32.05-8.42-85.62-17.89-140.47-7.39-11.92,2.28-22.5,9.06-29.49,18.97-18.59,26.35-28.3,80.11-40.07,119.18l76.01,1.39-18.1,63.26,146.77-.84,31.57-56.66Z"/>
          <path class="cls-5" d="M286.93,555.63H48.29c-30.62,0-53.3-28.46-46.46-58.31l6.87-29.98s52.83-12.51,87.31,1.39l-7.2,28.91h111.89c21.26,0,42.12,6.7,58.88,19.78,11.37,8.87,22.11,21.26,27.36,38.21Z"/>
          <path class="cls-1" d="M286.93,556.24H48.29c-14.78,0-28.54-6.63-37.76-18.19-9.21-11.56-12.6-26.45-9.3-40.86l6.87-29.98c.08-.33.4-.53.73-.46.33.08.53.4.46.73l-6.87,29.98c-3.22,14.04.09,28.56,9.07,39.83,8.98,11.27,22.39,17.73,36.8,17.73h237.81c-4.62-14.31-13.66-26.79-26.9-37.12-8.2-6.4-17.48-11.34-27.57-14.69-.32-.11-.49-.45-.39-.77.11-.32.45-.49.77-.39,10.23,3.4,19.63,8.41,27.94,14.89,13.68,10.67,22.95,23.63,27.57,38.51.06.19.02.39-.09.54-.12.16-.3.25-.49.25Z"/>
          <path class="cls-1" d="M256.78,546.56c-.24,0-.47-.14-.57-.38-4.93-12.11-15.8-21.83-28.38-25.37-.32-.09-.51-.43-.42-.75s.43-.51.75-.42c12.94,3.65,24.12,13.64,29.18,26.09.13.31-.02.67-.34.8-.08.03-.15.05-.23.05Z"/>
          <path class="cls-1" d="M231.49,547.11c-.23,0-.46-.13-.56-.36-4.51-10.13-13.49-18.28-24-21.81-.32-.11-.49-.45-.38-.77.11-.32.45-.49.77-.38,10.83,3.63,20.08,12.04,24.73,22.47.14.31,0,.67-.31.81-.08.04-.17.05-.25.05Z"/>
          <path class="cls-1" d="M100.25,468.14c-.06,0-.12,0-.18-.03-.32-.1-.5-.44-.41-.76l15.63-51.12c.79-2.58,1.68-5.5,3.52-7.81,2.1-2.64,5.23-3.93,7.95-3.29.33.08.53.41.45.73-.08.33-.41.53-.73.45-2.58-.61-5.23,1-6.71,2.86-1.7,2.13-2.52,4.81-3.31,7.4l-15.63,51.12c-.08.26-.32.43-.58.43Z"/>
          <path class="cls-1" d="M181.49,431.43c-3.59,0-7.38-1.18-10.85-3.45-4.59-2.99-7.96-7.3-10.66-11.12-19.03-26.95-25.15-61.1-30.56-91.23-.06-.33.16-.65.49-.71.33-.06.65.16.71.49,5.38,30,11.48,64.01,30.35,90.74,2.63,3.72,5.91,7.92,10.33,10.8,4.56,2.98,9.68,3.97,14.03,2.72,8.8-2.52,12.58-13.06,14.21-21.46,4.86-25.07,2.43-51.97-6.84-75.76-.12-.31.03-.67.35-.79.32-.12.67.03.79.35,9.35,24,11.8,51.15,6.9,76.44-2.43,12.52-7.64,20.27-15.07,22.4-1.34.39-2.75.57-4.19.57Z"/>
          <path class="cls-1" d="M222.26,480.45c-1.62,0-3.22-.18-4.78-.54-.33-.08-.53-.4-.46-.73.08-.33.4-.53.73-.46,7.98,1.85,17.27-1.47,23.12-8.27,5.3-6.16,8-15,7.4-24.25-.51-7.84-3.28-16.12-8.24-24.61-.17-.29-.07-.67.22-.84.29-.17.67-.07.84.22,5.05,8.66,7.88,17.12,8.4,25.15.62,9.57-2.18,18.72-7.69,25.12-5,5.81-12.42,9.19-19.54,9.19Z"/>
        </g>
        <g>
          <path class="cls-5" d="M184.86,329.32l-5.1,45.9-48.63-50.66c7.04-2.15,12.51-7.74,14.51-14.82l13.23-46.78,36.8,18.47-10.81,47.9Z"/>
          <path class="cls-1" d="M184.86,329.93s-.09,0-.14-.02c-.33-.07-.54-.4-.46-.73l10.71-47.43-35.71-17.93-13.03,46.07c-2.07,7.32-7.65,13.02-14.92,15.24-.32.1-.66-.08-.76-.41-.1-.32.08-.66.41-.76,6.87-2.1,12.15-7.49,14.1-14.41l13.23-46.78c.05-.18.17-.32.34-.39.17-.07.36-.07.52.01l36.8,18.47c.25.13.38.41.32.68l-10.81,47.9c-.06.28-.32.48-.6.48Z"/>
          <g>
            <path class="cls-5" d="M161.11,251.6s-8.92-15.06-18.68-12.02c-14.88,4.63-13.92,31.23,10.61,29.95,0,0,29.02,37.07,56.86,26.78,27.84-10.29,7.42-72.98,2.02-83.73,0,0-36.98-4.92-39.74,17.37-1.61,12.97,1.51,21.65-11.06,21.65Z"/>
            <path class="cls-1" d="M199.79,298.7c-9.05,0-18.94-3.85-29.13-11.43-9.7-7.21-16.66-15.58-17.91-17.11-.49.02-.97.03-1.45.03-12.18,0-17.82-6.95-19.03-13.69-1.39-7.77,2.89-15.3,9.97-17.5,9.45-2.94,17.83,9.78,19.21,11.99,8.89-.12,9.12-4.79,9.52-13.2.11-2.37.24-5.05.59-7.91.61-4.91,2.88-8.91,6.77-11.91,11.43-8.83,32.76-6.11,33.66-5.99.2.03.37.15.47.33,4.34,8.64,18.25,50.22,9.55,72.26-2.42,6.14-6.43,10.28-11.91,12.31-3.28,1.21-6.73,1.82-10.31,1.82ZM153.03,268.91c.19,0,.36.09.48.23.29.37,29.06,36.6,56.16,26.58,5.14-1.9,8.91-5.81,11.2-11.61,8.45-21.43-4.92-61.83-9.36-70.97-2.73-.31-22.15-2.16-32.44,5.79-3.61,2.79-5.73,6.52-6.3,11.09-.35,2.82-.48,5.48-.59,7.82-.4,8.34-.68,14.36-11.08,14.36-.22,0-.42-.11-.53-.3-.09-.15-8.79-14.61-17.98-11.75-7.39,2.3-10.22,10.02-9.13,16.12,1.17,6.54,6.91,13.3,19.52,12.64.01,0,.02,0,.03,0Z"/>
          </g>
          <path class="cls-1" d="M155.93,260.88c-.15,0-.3-.06-.42-.17-3.48-3.3-8.57-4.77-13.27-3.83-.33.07-.65-.15-.72-.48-.07-.33.15-.65.48-.72,5.09-1.01,10.59.57,14.35,4.14.24.23.25.62.02.86-.12.13-.28.19-.44.19Z"/>
          <g>
            <g>
              <path class="cls-5" d="M206.41,245.9c1.52,6.58-1.69,12.95-7.18,14.22-5.49,1.27-11.17-3.04-12.7-9.62-1.52-6.58,1.69-12.95,7.18-14.22,5.49-1.27,11.17,3.04,12.7,9.62Z"/>
              <path class="cls-1" d="M197.3,260.95c-5.11,0-9.95-4.23-11.36-10.32-1.6-6.9,1.83-13.61,7.64-14.95,2.84-.66,5.8.05,8.34,1.97,2.51,1.9,4.32,4.78,5.09,8.11,1.6,6.9-1.83,13.61-7.64,14.95-.69.16-1.38.24-2.07.24ZM195.66,236.66c-.61,0-1.21.07-1.81.21-5.15,1.19-8.17,7.24-6.72,13.49,1.44,6.24,6.81,10.36,11.96,9.16,5.15-1.19,8.17-7.24,6.72-13.49-.7-3.05-2.35-5.68-4.63-7.41-1.71-1.29-3.61-1.96-5.52-1.96Z"/>
            </g>
            <g>
              <path class="cls-5" d="M230.98,239.94c1.49,6.44-1.19,12.57-6,13.68-4.8,1.11-9.9-3.21-11.39-9.65-1.49-6.44,1.19-12.57,6-13.68,4.8-1.11,9.9,3.21,11.39,9.65Z"/>
              <path class="cls-1" d="M223.47,254.4c-4.59,0-9.08-4.26-10.47-10.3-.75-3.24-.51-6.52.67-9.22,1.21-2.76,3.26-4.61,5.78-5.19,2.52-.58,5.17.17,7.47,2.12,2.25,1.91,3.9,4.74,4.65,7.99.75,3.24.51,6.52-.67,9.22-1.21,2.76-3.26,4.61-5.78,5.19-.55.13-1.1.19-1.65.19ZM221.12,230.72c-.47,0-.94.05-1.39.16-2.13.49-3.88,2.09-4.94,4.49-1.08,2.46-1.29,5.47-.6,8.45,1.41,6.1,6.2,10.23,10.66,9.2,2.13-.49,3.88-2.09,4.94-4.49,1.08-2.46,1.29-5.47.6-8.45-.69-2.99-2.2-5.59-4.25-7.33-1.57-1.33-3.31-2.02-5.01-2.02Z"/>
            </g>
            <path class="cls-1" d="M206.41,246.51c-.14,0-.27-.05-.39-.14-.26-.21-.3-.6-.08-.86,1.26-1.52,4.55-3.86,8.02-1.81.29.17.39.55.22.84-.17.29-.55.39-.84.22-3.45-2.03-6.34,1.39-6.46,1.54-.12.15-.3.22-.47.22Z"/>
            <path class="cls-1" d="M186.53,251.1s-.03,0-.04,0l-25.7-1.59c-.34-.02-.59-.31-.57-.65.02-.34.31-.59.65-.57l25.7,1.59c.34.02.59.31.57.65-.02.32-.29.57-.61.57Z"/>
          </g>
        </g>
        <g>
          <path class="cls-1" d="M450.35,556.9H182.3c-3.7,0-6.7-3-6.7-6.7v-1.58c0-7.28,5.9-13.18,13.18-13.18h280.9l-2.26,8.38c-2.08,7.72-9.07,13.08-17.06,13.08Z"/>
          <g>
            <path class="cls-1" d="M458.19,547.19h-165.76c-7.08,0-12.28-6.65-10.58-13.52l31.33-126.38c1.21-4.86,5.57-8.27,10.58-8.27h165.76c7.08,0,12.28,6.65,10.58,13.52l-31.33,126.38c-1.2,4.86-5.57,8.27-10.58,8.27Z"/>
            <path class="cls-1" d="M458.19,547.49h-165.76c-3.47,0-6.68-1.57-8.82-4.3-2.14-2.73-2.88-6.23-2.05-9.6l31.33-126.38c1.24-5.01,5.71-8.51,10.87-8.51h165.76c3.47,0,6.68,1.57,8.82,4.3,2.14,2.73,2.88,6.23,2.05,9.6l-31.33,126.38c-1.24,5.01-5.71,8.51-10.87,8.51ZM323.75,399.32c-4.88,0-9.11,3.31-10.28,8.04l-31.33,126.38c-.79,3.18-.08,6.49,1.94,9.07,2.02,2.58,5.06,4.06,8.34,4.06h165.76c4.88,0,9.11-3.31,10.28-8.04l31.33-126.38c.79-3.18.08-6.49-1.94-9.07-2.02-2.58-5.06-4.06-8.34-4.06h-165.76Z"/>
          </g>
          <path class="cls-3" d="M407.39,447.78c0,3.02-2.45,5.47-5.47,5.47s-5.47-2.45-5.47-5.47,2.45-5.47,5.47-5.47,5.47,2.45,5.47,5.47Z"/>
        </g>
      </g>
      <g>
        <g>
          <path class="cls-1" d="M468.12,514.37h136.75c.34,0,.61.27.61.61,0,.34-.27.61-.61.61h-136.75c-.34,0-.61-.27-.61-.61,0-.34.27-.61.61-.61Z"/>
          <g>
            <circle class="cls-5" cx="606.16" cy="514.98" r="8.73" transform="translate(-150.93 271.17) rotate(-22.5)"/>
            <path class="cls-1" d="M606.16,505.64c5.15,0,9.34,4.19,9.34,9.34,0,5.15-4.19,9.34-9.34,9.34s-9.34-4.19-9.34-9.34,4.19-9.34,9.34-9.34ZM606.16,523.1c4.48,0,8.12-3.64,8.12-8.12s-3.64-8.12-8.12-8.12-8.12,3.64-8.12,8.12,3.64,8.12,8.12,8.12Z"/>
          </g>
        </g>
        <g>
          <path class="cls-1" d="M560.96,491.83h103.89c.34,0,.61.27.61.61,0,.34-.27.61-.61.61h-103.64s-21.9,21.9-21.9,21.9c-.24.24-.62.24-.86,0-.24-.24-.24-.63,0-.86l22.08-22.08c.11-.11.27-.18.43-.18Z"/>
          <g>
            <circle class="cls-5" cx="666.14" cy="492.44" r="8.73" transform="translate(33.82 1027.62) rotate(-76.72)"/>
            <path class="cls-1" d="M666.14,483.1c5.15,0,9.34,4.19,9.34,9.34s-4.19,9.34-9.34,9.34-9.34-4.19-9.34-9.34,4.19-9.34,9.34-9.34ZM666.14,500.56c4.48,0,8.12-3.64,8.12-8.12s-3.64-8.12-8.12-8.12-8.12,3.64-8.12,8.12,3.64,8.12,8.12,8.12Z"/>
          </g>
        </g>
      </g>
    </g>
    <g>
      <path class="cls-4" d="M484.25,625.25h-10.33v-39.62h-13.03v-8.57h36.38v8.57h-13.03v39.62Z"/>
      <path class="cls-4" d="M493.83,625.25l13.84-39.49h12.28l13.97,39.49h-10.39l-2.63-8.44h-13.97l-2.63,8.44h-10.46ZM516.38,601.09c-.23-.67-.5-1.56-.81-2.67-.32-1.1-.63-2.24-.95-3.41-.32-1.17-.58-2.16-.81-2.97-.13.81-.36,1.8-.67,2.97-.32,1.17-.63,2.32-.94,3.44-.32,1.13-.56,2-.74,2.63l-2.43,7.9h9.72l-2.36-7.9Z"/>
      <path class="cls-4" d="M556.07,593.53c-2.03,0-3.75.48-5.16,1.45-1.42.97-2.5,2.36-3.24,4.18s-1.11,3.99-1.11,6.51c0,3.87.8,6.82,2.4,8.84,1.6,2.03,4.08,3.04,7.46,3.04,1.75,0,3.45-.2,5.1-.61,1.64-.4,3.27-1.01,4.89-1.82v8.5c-1.71.77-3.48,1.32-5.3,1.65-1.82.34-3.75.51-5.77.51-4.5,0-8.17-.84-11-2.53s-4.92-4.05-6.24-7.09c-1.33-3.04-1.99-6.56-1.99-10.56s.75-7.47,2.26-10.53c1.51-3.06,3.75-5.46,6.72-7.19,2.97-1.73,6.62-2.6,10.93-2.6,2.12,0,4.17.23,6.18.67,2,.45,3.99,1.1,5.97,1.96l-3.11,7.9c-1.44-.67-2.89-1.23-4.35-1.65-1.46-.43-3-.64-4.62-.64Z"/>
      <path class="cls-4" d="M600.82,585.83v8.3h-10.06v31.12h-10.06v-31.12h-9.99v-8.3h30.11Z"/>
      <path class="cls-4" d="M604.12,625.25v-5.67l4.86-1.82v-24.44l-4.86-1.75v-5.74h19.91v5.74l-4.86,1.75v24.44l4.86,1.82v5.67h-19.91Z"/>
      <path class="cls-4" d="M648.81,593.53c-2.03,0-3.75.48-5.16,1.45-1.42.97-2.5,2.36-3.24,4.18s-1.11,3.99-1.11,6.51c0,3.87.8,6.82,2.4,8.84,1.6,2.03,4.08,3.04,7.46,3.04,1.75,0,3.45-.2,5.1-.61,1.64-.4,3.27-1.01,4.89-1.82v8.5c-1.71.77-3.48,1.32-5.3,1.65-1.82.34-3.75.51-5.77.51-4.5,0-8.17-.84-11-2.53s-4.92-4.05-6.24-7.09c-1.33-3.04-1.99-6.56-1.99-10.56s.75-7.47,2.26-10.53c1.51-3.06,3.75-5.46,6.72-7.19,2.97-1.73,6.62-2.6,10.93-2.6,2.12,0,4.17.23,6.18.67,2,.45,3.99,1.1,5.97,1.96l-3.11,7.9c-1.44-.67-2.89-1.23-4.35-1.65-1.46-.43-3-.64-4.62-.64Z"/>
      <path class="cls-4" d="M664.13,625.25v-5.67l4.86-1.82v-24.44l-4.86-1.75v-5.74h19.91v5.74l-4.86,1.75v24.44l4.86,1.82v5.67h-19.91Z"/>
      <path class="cls-4" d="M686,625.25l13.84-39.49h12.28l13.97,39.49h-10.39l-2.63-8.44h-13.97l-2.63,8.44h-10.46ZM708.54,601.09c-.23-.67-.5-1.56-.81-2.67-.32-1.1-.63-2.24-.95-3.41-.32-1.17-.58-2.16-.81-2.97-.13.81-.36,1.8-.67,2.97-.32,1.17-.63,2.32-.94,3.44-.32,1.13-.56,2-.74,2.63l-2.43,7.9h9.72l-2.36-7.9Z"/>
      <path class="cls-4" d="M767.94,585.97v39.29h-12.35l-16.4-28.82h-.27c.04.5.09,1.15.13,1.96.04.81.09,1.71.13,2.7.04.99.09,2,.13,3.04.04,1.04.09,2.03.14,2.97v18.16h-8.64v-39.29h12.42l16.4,28.49h.13c0-.5-.02-1.14-.07-1.92-.05-.79-.09-1.65-.14-2.6-.04-.95-.09-1.91-.13-2.9-.04-.99-.07-1.93-.07-2.83v-18.23h8.57Z"/>
    </g>
  </g>
</svg>