<?xml version="1.0" encoding="UTF-8"?>
<svg id="Layer_2" data-name="Layer 2" xmlns="http://www.w3.org/2000/svg" viewBox="0 0 765.47 687.52">
  <defs>
    <style>
      .cls-1 {
        fill: #5b626f;
      }

      .cls-2 {
        opacity: .3;
      }

      .cls-2, .cls-3 {
        fill: #f60;
      }

      .cls-4 {
        fill: #b7b7b7;
      }

      .cls-5 {
        fill: #fff;
      }
    </style>
  </defs>
  <g id="Layer_3" data-name="Layer 3">
    <g>
      <path class="cls-4" d="M508.09,662.07c0,5.53-1.04,10.15-3.1,13.84-2.07,3.69-4.98,6.46-8.74,8.3-3.76,1.85-8.25,2.77-13.47,2.77h-14.71v-48.2h15.93c5.08,0,9.42.89,12.99,2.67,3.58,1.78,6.32,4.4,8.24,7.86,1.91,3.47,2.87,7.72,2.87,12.76ZM497.29,662.48c0-3.46-.51-6.32-1.52-8.57s-2.53-3.93-4.56-5.03c-2.02-1.1-4.52-1.65-7.49-1.65h-5.33v31.25h4.32c4.95,0,8.62-1.33,11-3.98,2.38-2.66,3.58-6.66,3.58-12.01Z"/>
      <path class="cls-4" d="M516.46,647.7h23.69v7.56h-13.97v7.56h13.03v7.56h-13.03v8.98h13.97v7.63h-23.69v-39.29Z"/>
      <path class="cls-4" d="M561.28,647.56c5.35,0,9.27,1.14,11.75,3.41,2.47,2.27,3.71,5.39,3.71,9.35,0,1.8-.3,3.51-.91,5.13s-1.53,3.04-2.77,4.25c-1.24,1.21-2.83,2.18-4.79,2.9-1.96.72-4.31,1.08-7.05,1.08h-3.44v13.3h-10.12v-39.42h13.63ZM560.61,665.79c1.75,0,3.18-.42,4.29-1.25,1.1-.83,1.65-2.13,1.65-3.88,0-1.58-.44-2.84-1.32-3.78-.88-.94-2.24-1.42-4.08-1.42h-3.38v10.33h2.83Z"/>
      <path class="cls-4" d="M593.21,647.56v31.25h15.66v8.17h-25.79v-39.42h10.12Z"/>
      <path class="cls-4" d="M652.27,667.27c0,4.05-.68,7.59-2.03,10.63-1.35,3.04-3.45,5.4-6.31,7.09s-6.56,2.53-11.1,2.53-8.12-.84-11-2.53c-2.88-1.69-5.01-4.06-6.38-7.12-1.37-3.06-2.06-6.62-2.06-10.67s.7-7.59,2.09-10.63c1.39-3.04,3.53-5.39,6.41-7.05,2.88-1.66,6.55-2.5,11-2.5s8.18.84,11.04,2.53,4.96,4.04,6.31,7.05c1.35,3.02,2.03,6.57,2.03,10.67ZM623.45,667.27c0,2.57.33,4.78.98,6.65.65,1.87,1.66,3.3,3.04,4.29,1.37.99,3.16,1.49,5.37,1.49s4.06-.5,5.43-1.49c1.37-.99,2.36-2.42,2.97-4.29.61-1.87.91-4.08.91-6.65,0-3.87-.71-6.92-2.13-9.15-1.42-2.23-3.79-3.34-7.12-3.34-2.21,0-4.01.51-5.4,1.52-1.4,1.01-2.42,2.44-3.07,4.29-.65,1.85-.98,4.07-.98,6.68Z"/>
      <path class="cls-4" d="M691.22,647.56l-13.1,24.03v15.39h-10.26v-15.05l-13.09-24.37h11l7.29,15.25,7.22-15.25h10.94Z"/>
      <path class="cls-4" d="M695.94,647.7h23.69v7.56h-13.97v7.56h13.03v7.56h-13.03v8.98h13.97v7.63h-23.69v-39.29Z"/>
      <path class="cls-4" d="M739.95,647.7c5.49,0,9.58.98,12.28,2.94,2.7,1.96,4.05,4.87,4.05,8.74,0,2.56-.69,4.69-2.06,6.38-1.37,1.69-3.09,3.05-5.16,4.08l11.88,17.14h-10.8l-9.25-14.71h-3.71v14.71h-9.72v-39.29h12.49ZM739.55,664.91c2.34,0,4.09-.42,5.26-1.25,1.17-.83,1.75-2.15,1.75-3.95,0-1.58-.56-2.74-1.69-3.51s-2.9-1.15-5.33-1.15h-2.36v9.86h2.36Z"/>
    </g>
    <g>
      <rect class="cls-2" x="66.39" y="229.28" width="606.73" height="362.69"/>
      <g>
        <g>
          <path class="cls-5" d="M477.3,166.14c0,1.58,1.28,2.87,2.87,2.87h.18c.53,4.28,2.21,8.19,4.73,11.42l-.13.13c-1.12,1.12-1.12,2.94,0,4.06,1.12,1.12,2.94,1.12,4.06,0l.13-.13c3.23,2.52,7.15,4.21,11.42,4.73v.18c0,1.58,1.28,2.87,2.87,2.87s2.87-1.28,2.87-2.87v-.18c4.28-.53,8.19-2.21,11.42-4.73l.13.13c1.12,1.12,2.94,1.12,4.06,0,1.12-1.12,1.12-2.94,0-4.06l-.13-.13c2.52-3.23,4.21-7.15,4.73-11.42h.18c1.58,0,2.87-1.28,2.87-2.87s-1.28-2.87-2.87-2.87h-.18c-.53-4.28-2.21-8.19-4.73-11.42l.13-.13c1.12-1.12,1.12-2.94,0-4.06-1.12-1.12-2.94-1.12-4.06,0l-.13.13c-3.23-2.52-7.15-4.21-11.42-4.73v-.18c0-1.58-1.28-2.87-2.87-2.87s-2.87,1.28-2.87,2.87v.18c-4.28.53-8.19,2.21-11.42,4.73l-.13-.13c-1.12-1.12-2.94-1.12-4.06,0-1.12,1.12-1.12,2.94,0,4.06l.13.13c-2.52,3.23-4.21,7.15-4.73,11.42h-.18c-1.58,0-2.87,1.28-2.87,2.87ZM491.54,166.14c0-6.57,5.33-11.9,11.9-11.9s11.9,5.33,11.9,11.9-5.33,11.9-11.9,11.9-11.9-5.33-11.9-11.9Z"/>
          <path class="cls-1" d="M503.43,193.27c-1.9,0-3.48-1.37-3.81-3.17-3.77-.6-7.35-2.08-10.44-4.33-1.47,1.02-3.64.85-4.94-.45-.73-.73-1.13-1.7-1.13-2.74,0-.8.24-1.56.69-2.2-2.25-3.09-3.73-6.67-4.33-10.44-1.8-.33-3.17-1.91-3.17-3.81s1.37-3.48,3.17-3.81c.59-3.77,2.08-7.35,4.33-10.44-1.04-1.5-.9-3.59.45-4.94,1.34-1.34,3.43-1.49,4.94-.45,3.09-2.25,6.67-3.73,10.44-4.33.33-1.8,1.91-3.17,3.81-3.17s3.48,1.37,3.81,3.17c3.77.59,7.35,2.08,10.44,4.33,1.51-1.04,3.6-.89,4.94.45,1.34,1.34,1.49,3.43.45,4.94,2.25,3.09,3.73,6.67,4.33,10.44,1.8.33,3.17,1.91,3.17,3.81s-1.37,3.48-3.17,3.81c-.6,3.77-2.08,7.35-4.33,10.44,1.04,1.51.89,3.6-.45,4.94-1.34,1.34-3.43,1.49-4.94.45-3.09,2.25-6.67,3.73-10.44,4.33-.33,1.8-1.91,3.17-3.81,3.17ZM489.14,183.49c.22,0,.43.07.62.21,3.17,2.47,6.95,4.04,10.93,4.53.5.06.88.49.88.99v.18c0,1.03.84,1.87,1.87,1.87s1.87-.84,1.87-1.87v-.18c0-.5.38-.93.88-.99,3.98-.49,7.76-2.06,10.93-4.53.4-.31.96-.28,1.32.08l.13.13c.71.71,1.94.71,2.64,0,.35-.35.55-.82.55-1.32s-.19-.97-.55-1.32l-.13-.13c-.36-.36-.39-.92-.08-1.32,2.47-3.17,4.04-6.95,4.53-10.93.06-.5.49-.88.99-.88h.18c1.03,0,1.87-.84,1.87-1.87s-.84-1.87-1.87-1.87h-.18c-.5,0-.93-.38-.99-.88-.49-3.98-2.06-7.76-4.53-10.93-.31-.4-.28-.97.08-1.32l.13-.13c.35-.35.55-.82.55-1.32s-.19-.97-.55-1.32c-.73-.73-1.91-.73-2.64,0l-.13.13c-.36.36-.93.4-1.33.08-3.17-2.47-6.95-4.04-10.93-4.53-.5-.06-.88-.49-.88-.99v-.18c0-1.03-.84-1.87-1.87-1.87s-1.87.84-1.87,1.87v.18c0,.5-.38.93-.88.99-3.98.49-7.76,2.05-10.93,4.53-.4.31-.96.28-1.32-.08l-.13-.13c-.73-.73-1.92-.73-2.64,0-.35.35-.55.82-.55,1.32s.19.97.55,1.32l.13.13c.35.36.39.92.08,1.32-2.47,3.17-4.04,6.95-4.53,10.93-.06.5-.49.88-.99.88h-.18c-1.03,0-1.87.84-1.87,1.87s.84,1.87,1.87,1.87h.18c.5,0,.93.38.99.88.49,3.98,2.05,7.76,4.53,10.93.31.4.28.97-.08,1.32l-.13.13c-.35.35-.55.82-.55,1.32s.19.97.55,1.32c.71.71,1.94.71,2.64,0l.13-.13c.19-.19.45-.29.71-.29ZM503.43,179.04c-7.11,0-12.9-5.79-12.9-12.9s5.79-12.9,12.9-12.9,12.9,5.79,12.9,12.9-5.79,12.9-12.9,12.9ZM503.43,155.24c-6.01,0-10.9,4.89-10.9,10.9s4.89,10.9,10.9,10.9,10.9-4.89,10.9-10.9-4.89-10.9-10.9-10.9Z"/>
        </g>
        <g>
          <g>
            <path class="cls-3" d="M280.6,293.59c25.4-7.47,52.17-9.08,78.37-5.26,161.81,23.61,189.91,50.1,189.91,50.1,31.07,20.47,70.59,78.4,70.59,78.4l-63.47,49.15,57.01,125.99h-266.67l-63.52-195.27s-21.53,6.65-50.81,8.15l-26.6-94.48c26.6-.68,68.04-14.68,75.19-16.78Z"/>
            <path class="cls-1" d="M250.41,395.19c-.42,0-.81-.26-.95-.68l-26.85-80.32c-.17-.52.11-1.09.63-1.27.53-.18,1.09.11,1.27.63l26.85,80.32c.17.52-.11,1.09-.63,1.27-.11.04-.21.05-.32.05Z"/>
            <path class="cls-1" d="M280.84,394.05s-.06,0-.09,0c-.55-.05-.96-.53-.91-1.08.56-6.46-4.57-13.01-10.98-14.01-.55-.08-.92-.6-.84-1.14s.6-.92,1.14-.83c7.53,1.17,13.33,8.57,12.67,16.16-.04.52-.48.91-1,.91Z"/>
            <path class="cls-1" d="M531.56,480.49c-.25,0-.5-.09-.7-.29l-12.99-12.7c-3.23-3.16-4.57-7.81-3.5-12.14,10.61-43.02,73.95-61.95,74.59-62.14.53-.16,1.09.15,1.24.68.15.53-.15,1.09-.68,1.24-.63.18-62.88,18.8-73.21,60.7-.9,3.65.23,7.57,2.96,10.24l12.99,12.7c.39.39.4,1.02.02,1.41-.2.2-.46.3-.71.3Z"/>
            <g>
              <path class="cls-5" d="M4.4,200.83c-5.22-12.6,5.22-15.33,5.22-15.33.78-16.24,15.78-11.8,15.78-11.8-13.98-15.16-23.69-41.9,14.8-12.36,38.49,29.54,100.38,106.68,130.76,132.84,10.7,9.21,22.62,14.14,34.45,16.19l26.6,94.48c-20.24,1.04-44.19-.38-67.31-8.15C85.33,370,16.64,222.59,16.64,222.59c-23.21-12.03-12.24-21.75-12.24-21.75Z"/>
              <path class="cls-1" d="M66.57,308.87c-.32,0-.62-.15-.82-.43-28.69-40.89-48.02-81.2-49.88-85.13-9.3-4.87-14.34-10.02-15-15.31-.46-3.71,1.41-6.34,2.35-7.41-1.63-4.25-1.72-7.89-.26-10.83,1.54-3.11,4.37-4.5,5.69-5.01.36-4.87,2.04-8.4,5-10.5,3-2.13,6.63-2.29,9.12-2.05-6.71-8.03-13.31-19.92-9.63-23.94,3.24-3.54,12.29.47,27.66,12.27,19.76,15.17,45.75,42.96,68.55,67.81.37.41.35,1.04-.06,1.41-.41.37-1.04.34-1.41-.06-22.74-24.79-48.65-52.5-68.29-67.57-19.85-15.24-24.13-13.43-24.97-12.51-2.48,2.71,3.33,14.52,11.52,23.39.3.33.35.82.11,1.2-.24.38-.7.56-1.13.43-.06-.02-6.11-1.74-10.31,1.25-2.56,1.83-3.97,5.07-4.19,9.64-.02.44-.32.81-.75.92-.03,0-3.53.98-5.12,4.22-1.25,2.54-1.06,5.83.57,9.77.16.39.06.85-.26,1.13-.11.1-2.67,2.46-2.19,6.21.59,4.57,5.51,9.38,14.23,13.91.2.1.35.27.45.47.2.42,19.9,42.46,49.84,85.13.32.45.21,1.08-.24,1.39-.17.12-.38.18-.57.18Z"/>
              <path class="cls-1" d="M60.05,226.89c-3.43,0-6.62-2-8.59-4.05-2.19-2.3-3.67-5.12-5.1-7.84-.35-.67-.7-1.34-1.07-2.01-1.54-2.82-3.74-6.27-7.07-7.91-1.58-.78-3.34-1.12-5.19-1.49-.86-.17-1.76-.35-2.63-.57-2.57-.66-5.9-2.09-7.24-5.19-1.79-4.16,1.27-8.95,5.14-10.64,3.76-1.65,7.97-1.18,11.96-.44,10.45,1.95,19.42,5.36,26.67,10.14.46.3.59.92.28,1.39-.3.46-.92.59-1.39.28-7.03-4.64-15.76-7.95-25.94-9.85-3.67-.69-7.52-1.12-10.79.31-3,1.31-5.39,5.02-4.1,8.01,1.01,2.35,3.76,3.5,5.9,4.04.82.21,1.69.38,2.52.55,1.9.38,3.87.76,5.69,1.66,3.84,1.88,6.26,5.67,7.95,8.75.37.67.73,1.35,1.08,2.04,1.43,2.72,2.78,5.29,4.78,7.39,2.07,2.17,5.72,4.28,9.21,3.09.52-.18,1.09.1,1.27.63.18.52-.1,1.09-.63,1.27-.91.31-1.82.44-2.72.44Z"/>
              <path class="cls-1" d="M33.65,210.97c-1.93,0-3.75-.65-5.08-1.21-8.97-3.78-15.79-12.05-17.82-21.56-.11-.54.23-1.07.77-1.19.55-.11,1.07.23,1.19.77,1.89,8.89,8.26,16.61,16.64,20.14,2.39,1.01,4.22,1.29,5.77.87,1.59-.43,3.1-2.1,2.73-3.69-.13-.54.21-1.08.75-1.2.54-.12,1.08.21,1.2.75.65,2.79-1.62,5.39-4.15,6.07-.67.18-1.33.26-1.99.26Z"/>
              <path class="cls-1" d="M23.61,214.34c-1.02,0-2.15-.17-3.42-.5-6-1.58-11.26-5.54-14.43-10.87-.28-.47-.13-1.09.35-1.37.47-.28,1.09-.13,1.37.35,2.91,4.88,7.73,8.51,13.22,9.96,1.96.52,3.46.57,4.71.17,1.23-.39,2.5-1.51,2.55-2.89.02-.55.48-1.02,1.03-.96.55.02.98.48.96,1.03-.07,2.07-1.69,4.01-3.94,4.73-.74.24-1.53.35-2.4.35Z"/>
              <path class="cls-1" d="M17.04,220.72c-.54,0-1.07-.08-1.59-.23-.53-.16-.83-.72-.67-1.25.16-.53.72-.83,1.25-.67,1.29.39,2.78,0,3.72-.97.93-.97,1.26-2.48.81-3.76-.18-.52.09-1.09.61-1.27.52-.18,1.09.09,1.27.61.69,1.97.18,4.3-1.26,5.8-1.07,1.12-2.62,1.74-4.15,1.74Z"/>
            </g>
            <path class="cls-3" d="M720.3,252.74c-.41,1.3.31,2.69,1.61,3.09l.15.05c-.67,3.64-.3,7.29.94,10.59l-.14.07c-1.21.63-1.68,2.12-1.05,3.33.63,1.21,2.12,1.68,3.33,1.05l.14-.07c2,2.9,4.78,5.29,8.15,6.83l-.05.15c-.41,1.3.31,2.69,1.61,3.09,1.3.41,2.69-.31,3.09-1.61l.05-.15c3.64.67,7.29.3,10.59-.94l.07.14c.63,1.21,2.12,1.68,3.33,1.05,1.21-.63,1.68-2.12,1.05-3.33l-.07-.14c2.9-2,5.29-4.78,6.83-8.15l.15.05c1.3.41,2.69-.31,3.09-1.61.41-1.3-.31-2.69-1.61-3.09l-.15-.05c.67-3.64.3-7.29-.94-10.59l.14-.07c1.21-.63,1.68-2.12,1.05-3.33-.63-1.21-2.12-1.68-3.33-1.05l-.14.07c-2-2.9-4.78-5.29-8.15-6.83l.05-.15c.41-1.3-.31-2.69-1.61-3.09s-2.69.31-3.09,1.61l-.05.15c-3.64-.67-7.29-.3-10.59.94l-.07-.14c-.63-1.21-2.12-1.68-3.33-1.05-1.21.63-1.68,2.12-1.05,3.33l.07.14c-2.9,2-5.29,4.78-6.83,8.15l-.15-.05c-1.3-.41-2.69.31-3.09,1.61ZM731.98,256.41c1.69-5.39,7.44-8.39,12.83-6.7,5.39,1.69,8.39,7.44,6.7,12.83-1.69,5.39-7.44,8.39-12.83,6.7-5.39-1.69-8.39-7.44-6.7-12.83Z"/>
            <g>
              <path class="cls-5" d="M539.78,477.41s19.93,27.56,50.4,51.83c29.08,23.16,72.21,12.17,86.86-22,15.02-35.04,31.87-80.91,40.85-127.27,0,0,38.21-6.65,35.07-26.64,0,0,18.91-7.4,8.28-34.81,0,0-3.52-33.62-14.14-34.08-10.62-.46-14.16,6.13-8.52,21.82,0,0-14.8,8.99-30.91,4.2-4.98-1.48-8.53-5.88-9.14-11.05-.7-5.93-1.41-13.84-.7-17.31,1.19-5.9,22.68-7.88,20.4-22.51-2.29-14.63-42.15-8.1-46.65.69-4.5,8.79-59.31,125.49-75.52,166.81,0,0-42.92,9.34-56.28,50.32Z"/>
              <path class="cls-1" d="M677.05,508.24c-.13,0-.27-.03-.39-.08-.51-.22-.74-.81-.52-1.31,19.58-45.67,33.3-88.42,40.79-127.07.08-.41.4-.72.81-.79.37-.06,37.21-6.71,34.25-25.5-.07-.46.19-.92.62-1.09.73-.29,17.84-7.41,7.71-33.52-.03-.08-.05-.17-.06-.26-.96-9.11-5.19-32.84-13.19-33.18-4.18-.18-7.09.8-8.64,2.91-2.32,3.16-1.95,9.07,1.11,17.57.16.45-.02.95-.42,1.19-.62.38-15.37,9.17-31.71,4.3-5.32-1.58-9.19-6.25-9.85-11.89-.72-6.06-1.42-14.03-.69-17.62.53-2.63,3.92-4.38,7.84-6.41,6.51-3.37,13.89-7.19,12.55-15.75-.75-4.78-6.13-6.63-10.51-7.33-13.12-2.11-31.62,3.16-34.26,8.32-.25.49-.85.69-1.35.43-.49-.25-.69-.85-.43-1.35,3.3-6.44,23.01-11.52,36.36-9.38,7.22,1.16,11.43,4.27,12.17,9,1.56,9.98-7.21,14.52-13.61,17.83-3.32,1.72-6.45,3.34-6.79,5.03-.53,2.6-.27,8.63.72,16.99.57,4.84,3.88,8.85,8.44,10.21,13.55,4.03,26.31-2.05,29.4-3.7-3.08-8.86-3.25-14.96-.55-18.64,1.97-2.68,5.45-3.93,10.34-3.72,11.03.48,14.64,30.73,15.08,34.84,9.55,24.79-4.71,33.86-8.17,35.64,2.12,18.89-30.01,25.88-35.3,26.91-7.54,38.61-21.26,81.27-40.78,126.8-.16.38-.53.61-.92.61Z"/>
              <path class="cls-1" d="M702.14,356.3c-.43,0-.83-.28-.96-.72-.16-.53.15-1.09.67-1.24l21.9-6.48c-1.78-4.43-3.74-9.76-3.07-15.09.72-5.75,5.54-11.58,11.59-11.04,4.4.38,7.72,3.93,9.83,6.58,5.33,6.66,9.31,14.54,11.52,22.77.14.53-.17,1.08-.71,1.22-.53.14-1.08-.17-1.22-.71-2.14-7.97-5.99-15.59-11.15-22.04-1.88-2.35-4.8-5.52-8.44-5.83-4.83-.42-8.84,4.56-9.43,9.29-.66,5.23,1.48,10.48,3.36,15.11.11.26.1.56-.03.81-.12.25-.35.45-.62.53l-22.96,6.79c-.09.03-.19.04-.28.04Z"/>
              <path class="cls-1" d="M737.01,325.16c-.42,0-.81-.27-.95-.69-1.16-3.51-1.56-6.37-1.26-9,.39-3.44,2.13-6.45,4.65-8.06,3.28-2.1,8-1.88,12.02.54,3.5,2.12,6.09,5.46,8.37,8.41.34.44.26,1.07-.18,1.4-.44.34-1.07.25-1.4-.18-2.28-2.95-4.63-6-7.81-7.92-2.56-1.55-6.69-2.62-9.91-.57-2.01,1.29-3.41,3.75-3.74,6.6-.27,2.33.11,4.92,1.17,8.14.17.52-.11,1.09-.64,1.26-.1.04-.21.05-.31.05Z"/>
              <path class="cls-1" d="M686.36,344.31c-.15,0-.3-.03-.44-.1-.5-.24-.7-.84-.46-1.34,5.28-10.74,4.26-24.58-2.53-34.43-.31-.45-.2-1.08.26-1.39.46-.31,1.08-.2,1.39.26,7.3,10.59,8.36,24.9,2.68,36.45-.17.35-.53.56-.9.56Z"/>
            </g>
          </g>
          <g>
            <g>
              <path class="cls-5" d="M421.35,235.87l21.17,65.12c1.9,5.83-1.03,12.19-6.51,14.17-20.06,7.25-62.55,20.13-49.15-6.45l-12.27-48.19,46.76-24.65Z"/>
              <path class="cls-1" d="M442.52,301.99c-.42,0-.81-.27-.95-.69l-20.8-63.99-45.01,23.72,6.38,25.05c.14.54-.19,1.08-.72,1.22-.53.14-1.08-.19-1.22-.72l-6.57-25.81c-.11-.45.09-.92.5-1.13l46.76-24.65c.26-.14.57-.15.84-.04.27.11.48.34.58.62l21.17,65.12c.17.53-.12,1.09-.64,1.26-.1.03-.21.05-.31.05Z"/>
            </g>
            <g>
              <path class="cls-1" d="M398.85,193.72c-18.54-4.19-24.39-9.43-24.39-9.43,0,0-6.04-4.16-3.83-16.5,2.2-12.34,24.66-29.96,50.6-5.56,25.94,24.4,56.95,47.4,32.99,51,0,0,13.09,23.64-20.73,19.25l-12.13,14.2s-17.15,34.75-46.76,25.15c-29.6-9.6-20.34-21.7-16.76-33.39,1.05-3.43,2.91-9.49,5.02-16.36,6.29,2.48,14.16,6.39,24.29,11.91,21.93,11.96,30.24-36.08,11.7-40.27Z"/>
              <g>
                <path class="cls-5" d="M398.85,193.72c18.54,4.18,31.08,7.77,24.43,24.22-6.65,16.45-14.2,28.01-36.13,16.05-10.13-5.52-17.99-9.43-24.29-11.91,5.08-16.57,11.59-37.79,11.59-37.79,0,0,5.86,5.25,24.39,9.43Z"/>
                <path class="cls-1" d="M375.57,187.48c3.29,1.98,10.24,5.35,22.84,8.19,11.77,2.66,21,5.11,23.75,10.37,1.43,2.73,1.19,6.38-.74,11.15-4.92,12.18-9.75,19.72-18.64,19.72-4.05,0-8.99-1.58-14.69-4.68-9.67-5.28-16.99-8.91-22.79-11.32l10.26-33.43ZM374.45,184.29s-6.51,21.22-11.59,37.79c6.29,2.48,14.16,6.39,24.29,11.91,6.29,3.43,11.4,4.93,15.64,4.93,10.55,0,15.75-9.24,20.49-20.97,6.65-16.45-5.89-20.04-24.43-24.22-18.54-4.19-24.39-9.43-24.39-9.43Z"/>
              </g>
            </g>
            <g>
              <g>
                <path class="cls-5" d="M421.35,233.75s14.98-15.21,20.54-4.71c5.55,10.5-11.91,24.46-22.12,12.12l1.58-7.41Z"/>
                <path class="cls-1" d="M429.27,247.01c-3.46,0-7.12-1.41-10.26-5.2-.19-.24-.27-.55-.21-.85l1.58-7.41c.04-.19.13-.36.27-.49.39-.39,9.62-9.65,16.68-8.62,2.35.34,4.18,1.74,5.45,4.14,3.15,5.95-.33,12.49-5.4,15.87-2.24,1.49-5.1,2.56-8.11,2.56ZM420.86,240.89c4.98,5.66,11.38,4.58,15.41,1.89,4.32-2.88,7.33-8.37,4.74-13.27-.97-1.84-2.27-2.85-3.97-3.1-5.56-.8-13.41,6.53-14.76,7.84l-1.41,6.64Z"/>
              </g>
              <path class="cls-1" d="M426.34,238.92c-.3,0-.6-.13-.79-.39-.34-.44-.26-1.07.18-1.4,2.59-2,5.81-3.04,9.08-2.96.55.01.99.47.97,1.03-.01.55-.52.99-1.03.97-2.73-.08-5.61.85-7.8,2.55-.18.14-.4.21-.61.21Z"/>
            </g>
          </g>
        </g>
        <circle class="cls-3" cx="12.66" cy="147.74" r="12.66" transform="translate(-88.14 38.99) rotate(-37.93)"/>
        <g>
          <path class="cls-5" d="M532.28,198.47c.92,4.66,5.44,7.69,10.1,6.77l.54-.11c4.03,12.27,11.26,22.8,20.55,30.85l-.31.46c-2.65,3.95-1.59,9.29,2.36,11.93,3.95,2.65,9.29,1.59,11.93-2.36l.31-.46c10.97,5.54,23.46,8.22,36.34,7.29l.11.54c.92,4.66,5.44,7.69,10.1,6.77,4.66-.92,7.69-5.44,6.77-10.1l-.11-.54c12.27-4.03,22.8-11.26,30.85-20.55l.46.31c3.95,2.64,9.29,1.59,11.93-2.36,2.64-3.95,1.59-9.29-2.36-11.93l-.46-.31c5.54-10.97,8.22-23.46,7.29-36.34l.54-.11c4.66-.92,7.69-5.44,6.77-10.1-.92-4.66-5.44-7.69-10.1-6.77l-.54.11c-4.03-12.27-11.26-22.8-20.55-30.85l.31-.46c2.65-3.95,1.59-9.29-2.36-11.93-3.95-2.65-9.29-1.59-11.93,2.36l-.31.46c-10.97-5.54-23.46-8.22-36.34-7.29l-.11-.54c-.92-4.66-5.44-7.69-10.1-6.77-4.66.92-7.69,5.44-6.77,10.1l.11.54c-12.27,4.03-22.8,11.26-30.85,20.55l-.46-.31c-3.95-2.65-9.29-1.59-11.93,2.36-2.65,3.95-1.59,9.29,2.36,11.93l.46.31c-5.54,10.97-8.22,23.46-7.29,36.34l-.54.11c-4.66.92-7.69,5.44-6.77,10.1ZM602.23,148.31c19.33-3.81,38.08,8.76,41.9,28.08,3.81,19.33-8.76,38.08-28.08,41.9s-38.08-8.76-41.9-28.08c-3.81-19.33,8.76-38.08,28.08-41.9Z"/>
          <path class="cls-1" d="M622.63,261.33c-1.88,0-3.73-.56-5.33-1.63-2.04-1.37-3.45-3.41-4-5.79-12.13.73-24.26-1.7-35.2-7.06-3.01,4.17-8.83,5.25-13.13,2.36-2.13-1.43-3.58-3.6-4.07-6.12-.48-2.41-.03-4.85,1.27-6.93-9.11-8.08-15.97-18.38-19.91-29.88-5.08.83-9.95-2.53-10.95-7.62h0c-1-5.08,2.23-10.04,7.24-11.21-.73-12.13,1.7-24.26,7.06-35.2-1.98-1.43-3.33-3.52-3.8-5.93-.5-2.52.02-5.08,1.44-7.21,1.43-2.13,3.6-3.58,6.12-4.07,2.41-.47,4.85-.03,6.93,1.27,8.09-9.11,18.38-15.97,29.88-19.9-.82-5.08,2.53-9.95,7.62-10.95,5.09-1,10.04,2.23,11.21,7.24,12.13-.73,24.26,1.71,35.2,7.06,1.43-1.98,3.52-3.33,5.93-3.8,2.52-.5,5.08.02,7.21,1.44,2.13,1.43,3.58,3.6,4.07,6.12.48,2.41.03,4.86-1.26,6.93,9.11,8.08,15.97,18.38,19.9,29.88,2.41-.39,4.84.14,6.88,1.5,2.13,1.43,3.58,3.6,4.07,6.12.5,2.52-.02,5.07-1.44,7.21-1.37,2.04-3.41,3.45-5.79,4,.73,12.13-1.71,24.26-7.06,35.2,4.17,3.01,5.24,8.83,2.36,13.13-2.89,4.31-8.68,5.53-13.04,2.81-8.08,9.11-18.38,15.97-29.88,19.9.39,2.41-.14,4.84-1.5,6.88-1.43,2.13-3.6,3.58-6.12,4.07-.63.12-1.25.18-1.88.18ZM614.1,251.85c.47,0,.89.33.98.81l.11.54c.81,4.11,4.83,6.79,8.93,5.99,1.99-.39,3.71-1.54,4.84-3.22,1.13-1.69,1.54-3.71,1.14-5.71l-.11-.54c-.1-.5.19-.99.67-1.14,11.77-3.87,22.28-10.87,30.41-20.25.33-.38.89-.46,1.31-.18l.46.31c3.48,2.33,8.21,1.4,10.55-2.08,2.33-3.48,1.4-8.21-2.08-10.55l-.46-.3c-.42-.28-.56-.83-.34-1.28,5.59-11.08,8.08-23.47,7.18-35.82-.04-.5.31-.96.8-1.05l.54-.11c1.99-.39,3.71-1.54,4.84-3.22,1.13-1.69,1.54-3.71,1.14-5.71-.39-1.99-1.54-3.71-3.22-4.84-1.69-1.13-3.71-1.54-5.7-1.14l-.54.11c-.49.1-.99-.19-1.14-.67-3.87-11.77-10.87-22.28-20.25-30.41-.38-.33-.46-.89-.18-1.31l.31-.46c1.13-1.69,1.54-3.71,1.14-5.7-.39-1.99-1.54-3.71-3.22-4.84-1.69-1.13-3.71-1.54-5.71-1.14-1.99.39-3.71,1.54-4.84,3.23l-.31.46c-.28.42-.83.57-1.28.34-11.08-5.59-23.47-8.07-35.82-7.18-.49.04-.96-.31-1.05-.8l-.11-.54c-.81-4.11-4.81-6.8-8.93-5.99-4.11.81-6.8,4.82-5.98,8.93l.11.54c.1.5-.19.99-.67,1.14-11.77,3.86-22.28,10.87-30.41,20.25-.33.38-.89.46-1.31.18l-.46-.31c-1.69-1.13-3.71-1.54-5.7-1.14-1.99.39-3.71,1.54-4.84,3.23-1.13,1.69-1.54,3.71-1.14,5.71.39,1.99,1.54,3.71,3.23,4.84l.46.31c.42.28.56.83.34,1.28-5.59,11.08-8.08,23.47-7.18,35.82.04.5-.31.96-.8,1.05l-.54.11c-4.11.81-6.8,4.82-5.98,8.93.81,4.11,4.81,6.8,8.93,5.98l.54-.11c.5-.1.99.19,1.14.67,3.87,11.77,10.87,22.28,20.25,30.41.38.33.46.89.18,1.31l-.31.46c-2.33,3.48-1.4,8.21,2.08,10.55,3.48,2.33,8.21,1.4,10.55-2.08l.31-.46c.28-.42.83-.57,1.28-.34,11.08,5.59,23.47,8.07,35.82,7.18.02,0,.05,0,.07,0ZM609.06,219.98c-7.19,0-14.23-2.12-20.34-6.22-8.14-5.45-13.66-13.75-15.56-23.36-1.9-9.61.06-19.38,5.52-27.52,5.45-8.14,13.75-13.66,23.36-15.56,19.83-3.91,39.16,9.04,43.07,28.87,3.92,19.84-9.04,39.16-28.87,43.07-2.39.47-4.79.71-7.18.71ZM602.23,148.31l.19.98c-9.08,1.79-16.93,7.02-22.08,14.71-5.16,7.69-7.01,16.93-5.21,26.02,1.79,9.08,7.02,16.93,14.71,22.08,7.69,5.16,16.93,7.01,26.02,5.21,18.75-3.7,31-21.97,27.3-40.72-3.7-18.75-21.96-31-40.72-27.3l-.19-.98Z"/>
        </g>
      </g>
    </g>
    <g>
      <path class="cls-1" d="M388.35,78.62H63.66c-.55,0-1-.45-1-1s.45-1,1-1h324.69c.55,0,1,.45,1,1s-.45,1-1,1Z"/>
      <path class="cls-1" d="M141.87,105.49H63.66c-.55,0-1-.45-1-1s.45-1,1-1h78.21c.55,0,1,.45,1,1s-.45,1-1,1Z"/>
      <path class="cls-1" d="M341.01,105.49h-153.39c-.55,0-1-.45-1-1s.45-1,1-1h153.39c.55,0,1,.45,1,1s-.45,1-1,1Z"/>
      <path class="cls-1" d="M200.28,132.37H63.66c-.55,0-1-.45-1-1s.45-1,1-1h136.62c.55,0,1,.45,1,1s-.45,1-1,1Z"/>
      <path class="cls-1" d="M341.01,132.37h-62.75c-.55,0-1-.45-1-1s.45-1,1-1h62.75c.55,0,1,.45,1,1s-.45,1-1,1Z"/>
      <path class="cls-1" d="M134.95,159.24H63.66c-.55,0-1-.45-1-1s.45-1,1-1h71.29c.55,0,1,.45,1,1s-.45,1-1,1Z"/>
      <path class="cls-1" d="M341.01,159.24h-167.07c-.55,0-1-.45-1-1s.45-1,1-1h167.07c.55,0,1,.45,1,1s-.45,1-1,1Z"/>
    </g>
    <g>
      <path class="cls-4" d="M38.89,48.2h-10.33V8.57h-13.03V0h36.38v8.57h-13.03v39.62Z"/>
      <path class="cls-4" d="M90.53,8.91v39.29h-9.72v-16.54h-14.51v16.54h-9.72V8.91h9.72v14.99h14.51v-14.99h9.72Z"/>
      <path class="cls-4" d="M100.05,8.91h23.69v7.56h-13.97v7.56h13.03v7.56h-13.03v8.98h13.97v7.63h-23.69V8.91Z"/>
      <path class="cls-4" d="M164.91,0c4.23,0,7.74.53,10.53,1.59,2.79,1.06,4.87,2.62,6.24,4.69,1.37,2.07,2.06,4.66,2.06,7.76,0,2.16-.38,4.07-1.15,5.74-.77,1.66-1.8,3.08-3.1,4.25-1.31,1.17-2.79,2.14-4.46,2.9l13.7,21.26h-11.81l-10.73-18.49h-5.74v18.49h-10.33V0h14.78ZM164.71,8.03h-4.25v13.7h4.25c2.74,0,4.86-.56,6.35-1.69,1.48-1.12,2.23-2.97,2.23-5.54,0-1.44-.3-2.63-.91-3.58-.61-.95-1.54-1.66-2.8-2.16-1.26-.49-2.88-.74-4.86-.74Z"/>
      <path class="cls-4" d="M188.67,48.2l13.84-39.49h12.29l13.97,39.49h-10.4l-2.63-8.44h-13.97l-2.63,8.44h-10.46ZM211.22,24.03c-.23-.68-.5-1.56-.81-2.67-.32-1.1-.63-2.24-.94-3.41-.32-1.17-.59-2.16-.81-2.97-.14.81-.36,1.8-.67,2.97-.32,1.17-.63,2.32-.95,3.44-.32,1.12-.56,2-.74,2.63l-2.43,7.9h9.72l-2.36-7.9Z"/>
      <path class="cls-4" d="M246.79,8.78c5.35,0,9.27,1.14,11.75,3.41,2.47,2.27,3.71,5.39,3.71,9.35,0,1.8-.3,3.51-.91,5.13-.61,1.62-1.53,3.04-2.77,4.25-1.24,1.21-2.83,2.18-4.79,2.9-1.96.72-4.31,1.08-7.05,1.08h-3.44v13.3h-10.12V8.78h13.63ZM246.11,27c1.75,0,3.18-.41,4.29-1.25,1.1-.83,1.65-2.13,1.65-3.88,0-1.57-.44-2.84-1.32-3.78-.88-.95-2.24-1.42-4.08-1.42h-3.38v10.33h2.83Z"/>
      <path class="cls-4" d="M266.23,48.2v-5.67l4.86-1.82v-24.44l-4.86-1.75v-5.74h19.91v5.74l-4.86,1.75v24.44l4.86,1.82v5.67h-19.91Z"/>
      <path class="cls-4" d="M326.51,27.74c0,4.54-.88,8.34-2.63,11.37s-4.23,5.31-7.42,6.82c-3.2,1.51-6.95,2.26-11.27,2.26h-12.69V8.78h13.57c6.57,0,11.62,1.63,15.15,4.89,3.53,3.26,5.3,7.96,5.3,14.07ZM315.98,28.15c0-3.78-.82-6.59-2.46-8.44-1.64-1.84-4.08-2.77-7.32-2.77h-3.58v23.08h2.83c3.6,0,6.25-.98,7.96-2.94,1.71-1.96,2.56-4.94,2.56-8.94Z"/>
    </g>
    <circle class="cls-3" cx="225.97" cy="585.24" r="44.23" transform="translate(-312 262.51) rotate(-37.93)"/>
    <circle class="cls-3" cx="136.03" cy="469.89" r="30.74" transform="translate(-260.1 182.86) rotate(-37.93)"/>
    <circle class="cls-3" cx="503.03" cy="67.89" r="30.74" transform="translate(64.52 323.54) rotate(-37.93)"/>
  </g>
</svg>