<?xml version="1.0" encoding="UTF-8"?>
<svg id="Layer_2" data-name="Layer 2" xmlns="http://www.w3.org/2000/svg" viewBox="0 0 839.62 683.95">
  <defs>
    <style>
      .cls-1 {
        fill: #5b626f;
      }

      .cls-2 {
        opacity: .3;
      }

      .cls-2, .cls-3 {
        fill: #f60;
      }

      .cls-4 {
        fill: #b7b7b7;
      }

      .cls-5 {
        fill: #fff;
      }

      .cls-6 {
        fill: #cddbfb;
      }
    </style>
  </defs>
  <g id="Layer_3" data-name="Layer 3">
    <g>
      <path class="cls-4" d="M412.59,642.98c-1.94,0-3.68.37-5.23,1.11s-2.87,1.82-3.95,3.24c-1.08,1.42-1.9,3.13-2.46,5.13-.56,2-.84,4.29-.84,6.85,0,3.38.47,6.27,1.42,8.67.95,2.41,2.37,4.24,4.29,5.5,1.91,1.26,4.31,1.89,7.19,1.89,2.12,0,4.15-.25,6.11-.74,1.96-.49,3.93-1.12,5.91-1.89v8.77c-2.03.86-4.08,1.47-6.18,1.86-2.09.38-4.42.57-6.99.57-5.13,0-9.35-1.02-12.66-3.07-3.31-2.05-5.76-4.94-7.36-8.67-1.6-3.73-2.4-8.05-2.4-12.96,0-3.65.51-6.99,1.52-10.02s2.51-5.66,4.49-7.86c1.98-2.2,4.41-3.91,7.29-5.13s6.21-1.82,9.99-1.82c2.38,0,4.8.26,7.26.78,2.45.52,4.78,1.32,6.99,2.4l-3.38,8.23c-1.62-.76-3.34-1.43-5.16-1.99-1.82-.56-3.77-.84-5.84-.84Z"/>
      <path class="cls-4" d="M469.76,663.57c0,4.05-.68,7.59-2.03,10.63-1.35,3.04-3.45,5.4-6.31,7.09s-6.56,2.53-11.1,2.53-8.12-.84-11-2.53c-2.88-1.69-5.01-4.06-6.38-7.12-1.37-3.06-2.06-6.62-2.06-10.67s.7-7.59,2.09-10.63c1.39-3.04,3.53-5.39,6.41-7.05,2.88-1.66,6.55-2.5,11-2.5s8.18.84,11.04,2.53,4.96,4.04,6.31,7.05c1.35,3.02,2.03,6.57,2.03,10.67ZM440.94,663.57c0,2.57.33,4.78.98,6.65.65,1.87,1.66,3.3,3.04,4.29,1.37.99,3.16,1.49,5.37,1.49s4.06-.5,5.43-1.49c1.37-.99,2.36-2.42,2.97-4.29.61-1.87.91-4.08.91-6.65,0-3.87-.71-6.92-2.13-9.15-1.42-2.23-3.79-3.34-7.12-3.34-2.21,0-4.01.51-5.4,1.52-1.4,1.01-2.42,2.44-3.07,4.29-.65,1.85-.98,4.07-.98,6.68Z"/>
      <path class="cls-4" d="M514.98,663.57c0,4.05-.68,7.59-2.03,10.63-1.35,3.04-3.45,5.4-6.31,7.09s-6.56,2.53-11.1,2.53-8.12-.84-11-2.53c-2.88-1.69-5.01-4.06-6.38-7.12-1.37-3.06-2.06-6.62-2.06-10.67s.7-7.59,2.09-10.63c1.39-3.04,3.53-5.39,6.41-7.05,2.88-1.66,6.55-2.5,11-2.5s8.18.84,11.04,2.53,4.96,4.04,6.31,7.05c1.35,3.02,2.03,6.57,2.03,10.67ZM486.16,663.57c0,2.57.33,4.78.98,6.65.65,1.87,1.66,3.3,3.04,4.29,1.37.99,3.16,1.49,5.37,1.49s4.06-.5,5.43-1.49c1.37-.99,2.36-2.42,2.97-4.29.61-1.87.91-4.08.91-6.65,0-3.87-.71-6.92-2.13-9.15-1.42-2.23-3.79-3.34-7.12-3.34-2.21,0-4.01.51-5.4,1.52-1.4,1.01-2.42,2.44-3.07,4.29-.65,1.85-.98,4.07-.98,6.68Z"/>
      <path class="cls-4" d="M535.37,643.99c5.49,0,9.58.98,12.28,2.94,2.7,1.96,4.05,4.87,4.05,8.74,0,2.56-.69,4.69-2.06,6.38-1.37,1.69-3.09,3.05-5.16,4.08l11.88,17.14h-10.8l-9.25-14.71h-3.71v14.71h-9.72v-39.29h12.49ZM534.96,661.2c2.34,0,4.09-.42,5.26-1.25,1.17-.83,1.75-2.15,1.75-3.95,0-1.58-.56-2.74-1.69-3.51s-2.9-1.15-5.33-1.15h-2.36v9.86h2.36Z"/>
      <path class="cls-4" d="M594.5,662.82c0,4.55-.88,8.34-2.63,11.38-1.76,3.04-4.23,5.31-7.43,6.82-3.2,1.51-6.95,2.26-11.27,2.26h-12.69v-39.42h13.57c6.57,0,11.62,1.63,15.15,4.89,3.53,3.26,5.3,7.95,5.3,14.07ZM583.97,663.23c0-3.78-.82-6.59-2.46-8.44-1.64-1.85-4.08-2.77-7.32-2.77h-3.58v23.08h2.83c3.6,0,6.25-.98,7.96-2.94,1.71-1.96,2.57-4.94,2.57-8.94Z"/>
      <path class="cls-4" d="M599.36,683.28v-5.67l4.86-1.82v-24.44l-4.86-1.75v-5.74h19.91v5.74l-4.86,1.75v24.44l4.86,1.82v5.67h-19.91Z"/>
      <path class="cls-4" d="M663.08,643.99v39.29h-12.35l-16.4-28.82h-.27c.04.5.09,1.15.13,1.96.04.81.09,1.71.13,2.7.04.99.09,2,.13,3.04s.09,2.02.14,2.97v18.16h-8.64v-39.29h12.42l16.4,28.49h.13c0-.5-.02-1.14-.07-1.92-.05-.79-.09-1.65-.14-2.6s-.09-1.91-.13-2.9-.07-1.93-.07-2.84v-18.22h8.57Z"/>
      <path class="cls-4" d="M667.94,683.28l13.84-39.49h12.28l13.97,39.49h-10.39l-2.63-8.44h-13.97l-2.63,8.44h-10.46ZM690.48,659.11c-.23-.67-.5-1.56-.81-2.67-.32-1.1-.63-2.24-.95-3.41-.32-1.17-.58-2.16-.81-2.97-.13.81-.36,1.8-.67,2.97-.32,1.17-.63,2.32-.94,3.44-.32,1.12-.56,2-.74,2.63l-2.43,7.9h9.72l-2.36-7.9Z"/>
      <path class="cls-4" d="M737.8,643.86v8.3h-10.06v31.12h-10.06v-31.12h-9.99v-8.3h30.11Z"/>
      <path class="cls-4" d="M780.46,663.57c0,4.05-.68,7.59-2.03,10.63-1.35,3.04-3.45,5.4-6.31,7.09s-6.56,2.53-11.1,2.53-8.12-.84-11-2.53c-2.88-1.69-5.01-4.06-6.38-7.12-1.37-3.06-2.06-6.62-2.06-10.67s.7-7.59,2.09-10.63c1.39-3.04,3.53-5.39,6.41-7.05,2.88-1.66,6.55-2.5,11-2.5s8.18.84,11.04,2.53,4.96,4.04,6.31,7.05c1.35,3.02,2.03,6.57,2.03,10.67ZM751.63,663.57c0,2.57.33,4.78.98,6.65.65,1.87,1.66,3.3,3.04,4.29,1.37.99,3.16,1.49,5.37,1.49s4.06-.5,5.43-1.49c1.37-.99,2.36-2.42,2.97-4.29.61-1.87.91-4.08.91-6.65,0-3.87-.71-6.92-2.13-9.15-1.42-2.23-3.79-3.34-7.12-3.34-2.21,0-4.01.51-5.4,1.52-1.4,1.01-2.42,2.44-3.07,4.29-.65,1.85-.98,4.07-.98,6.68Z"/>
      <path class="cls-4" d="M800.84,643.99c5.49,0,9.58.98,12.28,2.94,2.7,1.96,4.05,4.87,4.05,8.74,0,2.56-.69,4.69-2.06,6.38-1.37,1.69-3.09,3.05-5.16,4.08l11.88,17.14h-10.8l-9.25-14.71h-3.71v14.71h-9.72v-39.29h12.49ZM800.44,661.2c2.34,0,4.09-.42,5.26-1.25,1.17-.83,1.75-2.15,1.75-3.95,0-1.58-.56-2.74-1.69-3.51s-2.9-1.15-5.33-1.15h-2.36v9.86h2.36Z"/>
    </g>
    <g>
      <g>
        <g>
          <g>
            <rect class="cls-5" x="458.07" y="197.72" width="226.93" height="283.86"/>
            <path class="cls-1" d="M685.01,482.28h-226.93c-.39,0-.7-.31-.7-.7V197.72c0-.39.31-.7.7-.7h226.93c.39,0,.7.31.7.7v283.86c0,.39-.31.7-.7.7ZM458.77,480.89h225.54V198.42h-225.54v282.47Z"/>
          </g>
          <rect class="cls-2" x="486.07" y="328.85" width="170.94" height="18.52"/>
          <rect class="cls-2" x="486.07" y="368.47" width="170.94" height="18.52"/>
          <ellipse class="cls-2" cx="571.56" cy="261.64" rx="42.34" ry="42.14"/>
        </g>
        <g>
          <g>
            <rect class="cls-5" x="199.71" y="197.72" width="226.93" height="283.86"/>
            <path class="cls-1" d="M426.65,482.28h-226.93c-.39,0-.7-.31-.7-.7V197.72c0-.39.31-.7.7-.7h226.93c.39,0,.7.31.7.7v283.86c0,.39-.31.7-.7.7ZM200.41,480.89h225.54V198.42h-225.54v282.47Z"/>
          </g>
          <rect class="cls-2" x="227.71" y="328.85" width="170.94" height="18.52"/>
          <rect class="cls-2" x="227.71" y="368.47" width="170.94" height="18.52"/>
          <ellipse class="cls-2" cx="313.2" cy="261.64" rx="42.34" ry="42.14"/>
        </g>
        <g>
          <g>
            <rect class="cls-5" x="310.13" y="80.92" width="264.47" height="330.82"/>
            <path class="cls-1" d="M574.6,412.43h-264.47c-.39,0-.7-.31-.7-.7V80.92c0-.39.31-.7.7-.7h264.47c.39,0,.7.31.7.7v330.82c0,.39-.31.7-.7.7ZM310.82,411.04h263.07V81.62h-263.07v329.42Z"/>
          </g>
          <rect class="cls-2" x="342.75" y="239.56" width="199.22" height="21.58"/>
          <rect class="cls-2" x="342.75" y="191.94" width="199.22" height="21.58"/>
          <rect class="cls-2" x="342.75" y="144.33" width="199.22" height="21.58"/>
          <rect class="cls-2" x="342.75" y="285.73" width="199.22" height="21.58"/>
        </g>
      </g>
      <g>
        <g>
          <g>
            <path class="cls-1" d="M5.99,655.64s-.09,0-.14-.01c-.38-.08-.62-.44-.55-.82l56.23-278.96c.08-.38.44-.63.82-.55.38.08.62.44.55.82L6.67,655.08c-.07.33-.36.56-.68.56Z"/>
            <path class="cls-1" d="M0,654.94c0,3.31,2.68,5.98,5.99,5.98s5.99-2.68,5.99-5.98-2.68-5.98-5.99-5.98-5.99,2.68-5.99,5.98Z"/>
          </g>
          <g>
            <path class="cls-1" d="M148.54,655.64c-.33,0-.62-.23-.68-.56l-56.23-278.96c-.08-.38.17-.75.55-.82.38-.08.75.17.82.55l56.23,278.96c.08.38-.17.75-.55.82-.05,0-.09.01-.14.01Z"/>
            <circle class="cls-1" cx="148.54" cy="654.94" r="5.99" transform="translate(-1.97 .45) rotate(-.17)"/>
          </g>
          <path class="cls-1" d="M86.05,566.62H26.63c-.39,0-.7-.31-.7-.7s.31-.7.7-.7h59.41c.39,0,.7.31.7.7s-.31.7-.7.7Z"/>
          <path class="cls-1" d="M86.75,579.57H31.67c-.39,0-.7-.31-.7-.7s.31-.7.7-.7h55.08c.39,0,.7.31.7.7s-.31.7-.7.7Z"/>
        </g>
        <g>
          <g>
            <path class="cls-5" d="M262.44,246.28c.63.45,1.27.88,1.91,1.31,15.2-21.99,24.94-42.88,24.94-42.88,12.12-6.28,6.39-11.36,6.39-11.36,2.73-6.58-2.73-8.01-2.73-8.01-.41-8.48-8.25-6.16-8.25-6.16,7.3-7.92,12.38-21.88-7.73-6.45-11.76,9.02-27.69,26.54-42.08,42.26,6.27,12.57,16.11,23.21,27.53,31.28Z"/>
            <path class="cls-1" d="M265.77,246.22c-.14,0-.28-.04-.4-.13-.32-.22-.39-.66-.17-.97,5.48-7.86,9.95-15.9,14.67-24.42,2.77-4.99,5.63-10.15,8.76-15.37.76-1.14,1.97-2.03,3.26-2.97,1.35-.99,2.74-2.01,3.77-3.38.02-.03.04-.05.06-.07.55-.55.83-1.4.76-2.33-.08-1.05-.6-2.11-1.46-2.97-.15-.15-.22-.35-.2-.56.02-.21.13-.4.31-.51,1.28-.85.82-1.96-.01-3.56-.08-.15-.15-.29-.22-.43-.01-.03-.03-.06-.04-.09-.38-1.15-1.25-2.58-2.17-4.1-.68-1.12-1.38-2.28-1.97-3.46-.92-1.33-2.61-1.21-4.57-1.08-.48.03-.95.07-1.42.08-.04,0-.08,0-.12,0h0c-.07-.01-.14-.03-.21-.06,0,0,0,0,0,0-.07-.03-.13-.07-.18-.12,0,0,0,0,0,0h0s-.09-.09-.12-.15c-.03-.05-.05-.11-.07-.16,0,0,0,0,0,0-.02-.07-.03-.14-.03-.21h0c0-.09.02-.17.05-.25.01-.03.02-.05.04-.08.7-1.23,1.67-2.46,2.6-3.65,2.27-2.9,4.42-5.64,3.44-8.61-4.71.17-8.23,2.84-11.96,5.66-.82.63-1.66,1.25-2.51,1.86-12.49,11.24-24.74,23.79-38.53,39.48-.25.29-.7.32-.99.06-.29-.25-.32-.7-.06-.99,13.84-15.75,26.13-28.34,38.68-39.63.02-.02.04-.03.06-.05.85-.61,1.68-1.24,2.51-1.86,3.86-2.93,7.86-5.95,13.28-5.95.28,0,.53.17.64.42,1.67,3.9-1.06,7.39-3.46,10.46-.31.4-.62.79-.91,1.18.24.15.38.43.35.73-.01.13-.05.27-.12.4,1.81-.07,3.65.09,4.78,1.79.02.02.03.05.04.08.57,1.14,1.27,2.29,1.94,3.4.95,1.57,1.84,3.05,2.28,4.33.06.12.12.24.19.37.62,1.18,1.72,3.29.17,4.87.79.98,1.26,2.12,1.35,3.28.1,1.32-.31,2.55-1.13,3.39-1.15,1.52-2.68,2.64-4.03,3.63-1.19.87-2.31,1.69-2.91,2.59-3.11,5.18-5.96,10.32-8.72,15.3-4.74,8.55-9.22,16.63-14.75,24.54-.14.19-.35.3-.57.3Z"/>
            <path class="cls-1" d="M266.61,207.13c-.5,0-1-.08-1.46-.24-.37-.12-.56-.52-.44-.89.12-.37.52-.56.89-.44,1.75.59,3.58-.48,4.63-1.57,1.03-1.08,1.73-2.41,2.47-3.82.19-.36.37-.71.57-1.06.89-1.63,2.18-3.63,4.23-4.64.97-.48,2.01-.68,3.02-.88.44-.09.88-.17,1.31-.28,1.07-.27,2.46-.85,2.96-2.01.63-1.47-.56-3.3-2.05-3.95-1.66-.73-3.64-.5-5.53-.15-5.3.99-9.83,2.71-13.48,5.12-.32.21-.76.12-.97-.2-.21-.32-.12-.76.2-.97,3.81-2.51,8.52-4.3,14-5.32,2.11-.39,4.34-.64,6.35.24,2.1.92,3.75,3.52,2.78,5.79-.73,1.68-2.52,2.46-3.9,2.81-.46.12-.92.21-1.38.3-.96.19-1.86.37-2.67.76-1.7.83-2.82,2.61-3.62,4.06-.19.34-.37.69-.55,1.04-.75,1.43-1.53,2.92-2.69,4.14-1.33,1.39-3.03,2.16-4.62,2.16Z"/>
            <path class="cls-1" d="M280.41,198.82c-.36,0-.72-.04-1.09-.14-1.4-.38-2.66-1.83-2.29-3.38.09-.38.47-.61.84-.52.38.09.61.46.52.84-.17.73.54,1.51,1.3,1.71.76.21,1.69.07,2.9-.44,4.32-1.82,7.61-5.8,8.59-10.39.08-.38.45-.62.83-.54.38.08.62.45.54.83-1.07,5.03-4.67,9.39-9.41,11.39-.71.3-1.68.64-2.72.64Z"/>
            <path class="cls-1" d="M285.65,200.58c-.47,0-.9-.06-1.3-.19-1.25-.4-2.14-1.48-2.18-2.63-.01-.39.29-.71.67-.72,0,0,.02,0,.02,0,.37,0,.69.3.7.67.02.64.62,1.16,1.21,1.35.62.2,1.37.17,2.36-.09,2.83-.74,5.31-2.61,6.8-5.12.2-.33.63-.44.96-.24.33.2.44.63.24.96-1.68,2.82-4.47,4.92-7.65,5.75-.68.18-1.28.27-1.83.27Z"/>
            <path class="cls-1" d="M289.08,203.91c-.85,0-1.71-.34-2.3-.96-.8-.83-1.08-2.12-.7-3.21.13-.36.53-.56.89-.43.36.13.56.53.43.89-.21.59-.05,1.33.39,1.78.44.45,1.16.64,1.76.46.37-.11.76.1.87.47.11.37-.1.76-.47.87-.28.09-.58.13-.88.13Z"/>
          </g>
          <g>
            <g>
              <path class="cls-5" d="M56.78,386.69c13.91.6,43.76.26,65.4-.11,13.79-.24,25.32-10.52,27.11-24.19,2.13-16.24,6.59-39.53,15.97-65.72,14.03,3.3,46.76,4.57,68.95-13.53,14.39-11.74,30.81-30.61,42.52-55.01-11.58-2.14-22.67-9.74-33.3-22.44,0,0-21.88,21.51-35.08,33.21-4.91,4.35-11.39,6.49-17.92,5.94-15.94-1.34-45.78-3.83-51.71-4.19-15.9-.96-43.86-1.71-68.47,2.43-8.5,1.43-15.74,6.98-19.33,14.82-6.57,14.35-17.63,39.06-25.11,58.64-5.02,13.13,1.51,28.08,14.75,32.83.83.3,1.63.53,2.39.69,0,0-2.29,10.32-1.44,21.84.6,8.09,7.16,14.45,15.26,14.8Z"/>
              <path class="cls-1" d="M79.1,387.72c-8.96,0-16.88-.09-22.34-.33-8.46-.36-15.31-7.01-15.93-15.45-.73-9.81.83-18.87,1.32-21.36-.58-.15-1.18-.34-1.81-.56-6.46-2.31-11.61-7.06-14.5-13.37-2.93-6.38-3.18-13.81-.67-20.37,7.61-19.91,19.01-45.31,25.13-58.68,3.69-8.06,11.11-13.75,19.85-15.22,25.05-4.21,53.75-3.33,68.62-2.43,5.89.36,34.94,2.78,51.73,4.19,6.32.53,12.66-1.57,17.4-5.76,13.04-11.55,34.84-32.97,35.06-33.18.14-.14.33-.22.52-.2.19,0,.38.1.5.25,10.59,12.65,21.66,20.12,32.89,22.2.21.04.4.18.5.37s.1.42,0,.62c-14.01,29.18-32.77,47.14-42.71,55.25-22.29,18.18-54.46,17.04-68.94,13.81-9.43,26.51-13.76,49.95-15.73,64.99-1.82,13.9-13.77,24.56-27.79,24.8-13.43.23-29.47.44-43.1.44ZM114.19,240.59c-13.55,0-29.3.72-43.81,3.16-8.28,1.39-15.31,6.79-18.81,14.43-6.11,13.35-17.5,38.73-25.1,58.6-2.38,6.21-2.15,13.24.63,19.29,2.74,5.96,7.61,10.45,13.7,12.64.82.29,1.59.52,2.3.67.18.04.34.15.44.31.1.16.14.35.09.53-.02.1-2.26,10.36-1.43,21.64.57,7.74,6.85,13.82,14.6,14.15,13.76.59,43.14.27,65.36-.11,13.34-.23,24.7-10.37,26.43-23.58,1.99-15.22,6.39-39,16.01-65.87.12-.34.47-.52.82-.45,16.2,3.81,47.77,3.4,68.34-13.39,9.76-7.96,28.1-25.5,41.94-53.96-11.08-2.32-21.95-9.69-32.33-21.92-3.45,3.38-22.65,22.15-34.57,32.7-5.02,4.45-11.74,6.68-18.44,6.11-16.78-1.41-45.82-3.84-51.7-4.19-6.19-.37-14.78-.75-24.5-.75Z"/>
            </g>
            <path class="cls-1" d="M54.76,353.44c-3.57,0-7.21-.39-10.86-1.31-.37-.09-.6-.47-.51-.85.09-.37.47-.6.85-.51,14.01,3.51,28.03-.96,37.32-5.33,9.29-4.37,17.92-10.35,26.26-16.13,2.18-1.52,4.37-3.03,6.56-4.52,5.63-3.81,11.68-7.15,17.86-5.82.2.04.41.09.62.14,1.29.3,2.63.61,3.48-.05.9-.7.77-2.26.05-3.2-.85-1.1-2.3-1.68-3.59-2.12l-.35-.12c-1.41-.48-2.87-.98-4.03-2.03-.22-.2-.29-.53-.17-.8.12-.28.41-.44.71-.41l9.89,1.09c.68.08,1.23.12,1.67-.08.46-.21.62-.65.68-.99.12-.71-.14-1.55-.64-2.03-1.01-.98-2.6-1.19-4.13-1.32-1.71-.15-3.59-.31-5.03-1.43-.24-.19-.33-.52-.22-.8.11-.29.4-.47.71-.44l12.16.96c.76.06,1.37.09,1.85-.16.46-.24.64-.68.72-1.01.16-.7-.02-1.52-.45-2.09-.86-1.14-2.44-1.7-3.71-2.14-.33-.11-.52-.45-.45-.79.06-.34.37-.6.71-.57,1.44.05,2.3-.35,2.56-1.21.23-.74-.09-1.31-1.22-2.17-.97-.74-2.26-1.02-3.4-1.23-14.74-2.7-29.66,2.72-41.01,7.75-3.04,1.35-6.12,2.79-9.1,4.19-9.81,4.61-19.95,9.37-30.74,11.56-.38.08-.75-.17-.82-.55-.08-.38.17-.75.55-.82,10.63-2.16,20.69-6.89,30.43-11.46,2.98-1.4,6.07-2.85,9.13-4.2,11.53-5.11,26.71-10.62,41.82-7.85,1.39.25,2.84.61,3.99,1.49.69.53,2.31,1.76,1.71,3.7-.16.53-.55,1.27-1.47,1.74.8.41,1.56.95,2.14,1.71.68.9.95,2.14.7,3.24-.2.88-.71,1.57-1.44,1.94-.87.45-1.87.37-2.6.31l-3.79-.3c.5.23.97.53,1.39.93.84.81,1.25,2.09,1.05,3.27-.16.94-.68,1.66-1.47,2.02-.82.38-1.74.28-2.41.2l-6.15-.68c.12.04.24.08.36.12l.36.12c1.48.52,3.16,1.18,4.24,2.59,1.12,1.46,1.27,3.93-.3,5.15-1.38,1.07-3.12.67-4.65.31-.2-.05-.4-.09-.6-.14-5.66-1.22-11.41,1.98-16.78,5.61-2.19,1.48-4.37,3-6.55,4.51-8.39,5.82-17.06,11.83-26.46,16.25-7.09,3.33-16.89,6.72-27.4,6.72Z"/>
            <path class="cls-1" d="M65.39,316.18c-.06,0-.12,0-.17-.02-.37-.1-.6-.48-.5-.85l4.84-18.81c.1-.37.48-.6.85-.5.37.1.6.48.5.85l-4.84,18.81c-.08.32-.37.52-.68.52Z"/>
            <path class="cls-1" d="M141.26,299.95s-.08,0-.12-.01c-2.84-.49-5.73-.79-8.59-.91-.39-.02-.69-.34-.67-.73.02-.38.32-.69.73-.67,2.92.12,5.88.43,8.77.93.38.06.64.43.57.81-.06.34-.35.58-.69.58Z"/>
            <path class="cls-1" d="M89.7,342.1c-.27,0-.53-.16-.64-.43-4.22-10.01-8.02-20.34-11.28-30.7-.12-.37.09-.76.46-.88.37-.11.76.09.88.46,3.25,10.32,7.03,20.61,11.24,30.58.15.36-.02.77-.37.92-.09.04-.18.06-.27.06Z"/>
            <path class="cls-1" d="M104.26,332.73c-.22,0-.44-.1-.57-.3-3.47-4.9-9.1-8.15-15.08-8.69-.23-.02-.43-.15-.55-.36-.11-.2-.12-.44-.02-.65,2.7-5.45,3.69-11.76,2.78-17.77-.06-.38.2-.74.59-.8.38-.06.74.2.8.59.9,5.97.02,12.22-2.49,17.71,6.01.83,11.6,4.21,15.11,9.17.22.31.15.75-.17.97-.12.09-.26.13-.4.13Z"/>
          </g>
        </g>
        <g>
          <g>
            <path class="cls-5" d="M102.41,213.1l-2.06,27.35c-2.77,1.69-2.52,5.82.45,7.12,4.94,2.16,13.32,4.41,20.75-.45,2.27-1.49,2.59-4.69.64-6.58l-1.11-21.14-18.67-6.3Z"/>
            <path class="cls-1" d="M111.58,250.7c-4.42,0-8.44-1.34-11.06-2.49-1.63-.71-2.67-2.2-2.79-3.98-.11-1.65.63-3.21,1.95-4.17l2.04-27.01c.02-.21.13-.41.31-.53.18-.12.4-.15.61-.08l18.67,6.3c.27.09.46.34.47.63l1.09,20.88c.95,1.03,1.41,2.39,1.28,3.79-.14,1.5-.95,2.84-2.22,3.67-3.4,2.22-6.99,3-10.35,3ZM103.04,214.05l-1.99,26.46c-.02.22-.14.43-.33.54-1.08.66-1.68,1.81-1.59,3.08.08,1.25.82,2.3,1.96,2.8,5.32,2.33,13.13,4.16,20.08-.4.91-.6,1.49-1.55,1.59-2.63.1-1.07-.28-2.11-1.05-2.86-.13-.12-.2-.29-.21-.47l-1.08-20.67-17.37-5.86ZM100.35,240.45h0,0Z"/>
          </g>
          <path class="cls-1" d="M86.47,201.45c-.15-2.15-.17-9.32,12.55-21.71,10.34-10.07,16.52-16.09,22.48-14.2,8.33,2.64,9.55,18.6,9.85,22.52.4,5.22,1.32,11.66-2.97,16.78-3.86,4.6-9.51,7.33-15.26,9.07-3.53,1.07-7.21,1.82-10.89,1.61-8.13-.48-15.18-5.62-15.76-14.07Z"/>
          <g>
            <path class="cls-5" d="M99.83,209.13c-1.77.73-2.86,2.72-2.76,4.64.1,1.92,1.24,3.69,2.8,4.81,1.56,1.12,3.49,1.63,5.41,1.73.99.05,2.06.02,2.89.57,1.15.77,1.36,2.34,1.88,3.62,1.15,2.85,4.16,4.64,7.2,5.08s6.14-.25,9.09-1.12c1.89-.56,3.78-1.21,5.45-2.25,1.68-1.04,3.14-2.51,3.86-4.35,1.3-3.29.03-6.98-1.23-10.28-2.7-7.06-5.39-14.11-8.09-21.17-4.65,3.87-10.55,6.22-16.58,6.62-1.14.07-2.51.22-3.01,1.25-.33.69-.12,1.5.1,2.23.62,2.04,1.24,4.09,1.85,6.13.31,1.04.63,2.13.37,3.18-.18.74-.82,1.57-1.61,1.71-1,.17-1.43-.71-2.17-1.27-1.53-1.15-3.59-1.91-5.46-1.14Z"/>
            <path class="cls-1" d="M119.21,230.42c-.69,0-1.38-.05-2.06-.15-3.62-.53-6.59-2.64-7.75-5.51-.13-.33-.25-.69-.37-1.04-.31-.94-.59-1.82-1.26-2.27-.56-.37-1.33-.41-2.14-.44l-.39-.02c-2.25-.12-4.25-.76-5.78-1.86-1.83-1.31-2.99-3.31-3.09-5.34-.12-2.31,1.2-4.5,3.19-5.32,1.86-.77,4.1-.32,6.15,1.22.25.18.45.39.64.58.46.46.66.62.99.56.47-.08.93-.68,1.05-1.18.22-.89-.09-1.91-.36-2.81l-1.85-6.13c-.27-.89-.5-1.84-.06-2.74.7-1.45,2.58-1.57,3.59-1.64,5.9-.38,11.64-2.68,16.18-6.46.17-.14.41-.19.62-.14.22.06.4.22.48.43l8.09,21.17c1.37,3.57,2.58,7.35,1.23,10.79-.91,2.31-2.76,3.82-4.14,4.69-1.78,1.11-3.76,1.77-5.62,2.32-2.22.66-4.75,1.28-7.33,1.28ZM101.45,209.51c-.44,0-.9.08-1.36.26-1.43.59-2.41,2.26-2.33,3.96.08,1.61,1.02,3.21,2.51,4.27,1.32.94,3.06,1.49,5.04,1.6l.38.02c.93.04,1.98.08,2.87.68,1.06.72,1.46,1.93,1.81,2.99.11.32.21.64.33.95.96,2.38,3.57,4.2,6.66,4.65,3,.44,6.13-.31,8.79-1.1,1.77-.53,3.64-1.15,5.28-2.17,1.21-.75,2.81-2.06,3.58-4.01,1.17-2.97.08-6.32-1.24-9.77l-7.75-20.27c-4.64,3.6-10.36,5.78-16.23,6.17-1,.06-2.1.19-2.42.85-.21.44-.05,1.07.14,1.72l1.85,6.13c.31,1.02.69,2.28.38,3.55-.24.97-1.06,2.04-2.18,2.23-1.07.18-1.73-.47-2.21-.95-.17-.17-.33-.32-.49-.45-.6-.45-1.93-1.31-3.42-1.31ZM99.83,209.13h0,0Z"/>
          </g>
          <path class="cls-1" d="M107.3,217.22c-.13,0-.25-.03-.37-.11-1.31-.81-2.93-1.16-4.46-.96-.38.05-.73-.22-.79-.6-.05-.38.22-.73.6-.79,1.87-.25,3.78.16,5.38,1.16.33.2.43.63.22.96-.13.21-.36.33-.59.33Z"/>
        </g>
        <g>
          <g>
            <path class="cls-5" d="M141.99,591.7c-.55-1.33-1.24-2.59-2.18-3.71-3.58-4.26-8.3-7.28-12.92-10.28-4.23-2.75-8.28-5.74-12.54-8.43-6.75-4.26-14.61-8.8-18.71-15.92l-8.23,10.75c-4.13,5.39-3.63,13.01,1.16,17.82l46.7,46.95c2.8,2.82,7.61.72,7.45-3.25l-1.37-33.33c.21-.19.42-.39.64-.59Z"/>
            <g>
              <path class="cls-5" d="M95.35,553.72l-7.94,10.38c-4.13,5.39-3.63,13.01,1.16,17.82l46.7,46.95c2.8,2.82,7.61.72,7.45-3.25l-1.37-33.33-45.99-38.57Z"/>
              <path class="cls-1" d="M138.32,630.87c-1.3,0-2.56-.52-3.55-1.51l-46.7-46.95c-5.01-5.04-5.53-13.09-1.21-18.74l7.94-10.38c.24-.31.67-.36.98-.13.31.23.36.67.13.98l-7.94,10.38c-3.9,5.09-3.43,12.36,1.1,16.9l46.7,46.95c1.3,1.31,2.95,1.26,4.06.77,1.11-.48,2.27-1.66,2.19-3.5l-1.37-33.33c-.02-.39.28-.71.67-.73.39-.04.71.28.73.67l1.37,33.33c.09,2.13-1.07,3.99-3.03,4.84-.68.3-1.38.44-2.06.44Z"/>
            </g>
            <path class="cls-3" d="M206.83,446.76c-26.44-27.49-62.46-64.04-79.9-81.69-5.36-5.43-12.7-8.43-20.33-8.31-12.56.2-32.62-.18-45.35-.48-6.43-.15-11.62,5.19-11.29,11.61.99,19.25,9.62,37.31,23.99,50.17l74.31,66.57-52.89,69.11c1.11,1.53,2.28,3.01,3.47,4.45,8.73,10.53,19.43,19.59,30.99,26.86,3.9,2.45,7.91,4.71,12,6.83,12.52-11.63,45.74-54.78,68.62-85.14,13.69-18.16,12.17-43.57-3.6-59.96Z"/>
          </g>
          <g>
            <path class="cls-5" d="M275.69,633.98c-1.01-.68-1.92-1.51-2.68-2.46l-140.58-176c-8.95-11.2-26.43.03-19.94,12.82l93.57,184.39c.18.36.38.72.6,1.05,2.94,4.45,7.92,7.15,13.28,7.15h47.55c14.55,0,20.29-18.85,8.2-26.95Z"/>
            <path class="cls-1" d="M306.67,661.63h-86.73c-5.77,0-11.21-3.06-14.2-7.99l-3.84-6.34c-.2-.33-.09-.76.24-.96.33-.2.76-.09.96.24l3.84,6.34c2.74,4.52,7.72,7.32,13.01,7.32h86.73c1.15,0,1.8-.77,2.02-1.5.22-.72.11-1.72-.84-2.37l-34.07-22.83c-.32-.22-.41-.65-.19-.97.21-.32.65-.41.97-.19l34.07,22.83c1.31.88,1.86,2.42,1.4,3.93-.46,1.51-1.78,2.49-3.36,2.49Z"/>
            <path class="cls-3" d="M202.87,646.71c14.32-2.7,68.35-14.23,70.72-14.7-8.51-14.12-110.39-183.39-146.31-255.41l-67.36-11.87c-5.92,1.21-9.83,6.82-9,12.8,2.32,16.64,8.01,32.68,16.77,47.11l134.72,222.15c.15-.03.31-.05.46-.08Z"/>
            <path class="cls-1" d="M199.12,506.8c-.24,0-.48-.12-.6-.35-34.2-58.92-58.37-102.51-71.86-129.54-.17-.35-.03-.76.31-.94.35-.17.76-.03.94.31,13.47,27.01,37.63,70.57,71.82,129.47.19.33.08.76-.25.96-.11.06-.23.09-.35.09Z"/>
            <path class="cls-1" d="M154.73,568.86c-.24,0-.47-.12-.6-.34l-29.77-49.09c-.2-.33-.09-.76.24-.96.33-.2.76-.09.96.24l29.77,49.09c.2.33.09.76-.24.96-.11.07-.24.1-.36.1Z"/>
          </g>
        </g>
      </g>
      <g>
        <rect class="cls-2" x="634.91" y="519.07" width="204.71" height="65.25"/>
        <g>
          <ellipse class="cls-6" cx="539.26" cy="530.13" rx="11.06" ry="11.06" transform="translate(-.87 .89) rotate(-.09)"/>
          <ellipse class="cls-3" cx="571.54" cy="530.13" rx="11.06" ry="11.06" transform="translate(-.87 .94) rotate(-.09)"/>
          <ellipse class="cls-6" cx="603.82" cy="530.13" rx="11.06" ry="11.06" transform="translate(-.87 .99) rotate(-.09)"/>
        </g>
        <path class="cls-1" d="M614.89,560.24h-221.85c-.39,0-.7-.31-.7-.7v-60.4c0-.39.31-.7.7-.7s.7.31.7.7v59.7h221.15c.39,0,.7.31.7.7s-.31.7-.7.7Z"/>
      </g>
    </g>
    <g>
      <path class="cls-4" d="M74.6,48.87h-10.33V9.25h-13.03V.67h36.38v8.57h-13.03v39.62Z"/>
      <path class="cls-4" d="M126.24,9.58v39.29h-9.72v-16.54h-14.51v16.54h-9.72V9.58h9.72v14.99h14.51v-14.99h9.72Z"/>
      <path class="cls-4" d="M135.76,9.58h23.69v7.56h-13.97v7.56h13.03v7.56h-13.03v8.98h13.97v7.63h-23.69V9.58Z"/>
      <path class="cls-4" d="M214.6,35.5c0,2.83-.7,5.31-2.09,7.42-1.4,2.12-3.41,3.75-6.04,4.89-2.63,1.15-5.84,1.72-9.62,1.72-1.67,0-3.3-.11-4.89-.34-1.6-.23-3.13-.55-4.59-.98-1.46-.43-2.85-.96-4.15-1.59v-9.52c2.29.99,4.67,1.9,7.12,2.73,2.45.83,4.89,1.25,7.32,1.25,1.66,0,3-.22,4.02-.67,1.01-.45,1.75-1.06,2.23-1.82.47-.76.71-1.64.71-2.63,0-1.21-.42-2.25-1.25-3.1-.83-.85-1.95-1.65-3.34-2.4-1.4-.74-2.99-1.54-4.79-2.4-1.13-.54-2.34-1.18-3.65-1.92-1.31-.74-2.55-1.66-3.75-2.77-1.19-1.1-2.17-2.44-2.94-4.02-.77-1.58-1.15-3.46-1.15-5.67,0-2.88.66-5.34,1.99-7.39,1.33-2.05,3.22-3.61,5.67-4.69,2.45-1.08,5.34-1.62,8.67-1.62,2.52,0,4.92.29,7.19.88,2.27.58,4.65,1.42,7.12,2.5l-3.31,7.96c-2.21-.9-4.19-1.6-5.94-2.09s-3.56-.74-5.4-.74c-1.26,0-2.34.2-3.24.61-.9.41-1.59.97-2.06,1.69-.47.72-.71,1.58-.71,2.57,0,1.12.34,2.08,1.01,2.87s1.69,1.54,3.04,2.26c1.35.72,3.04,1.58,5.06,2.57,2.47,1.17,4.58,2.39,6.31,3.64,1.73,1.26,3.07,2.75,4.02,4.46.95,1.71,1.42,3.83,1.42,6.34Z"/>
      <path class="cls-4" d="M247.4,9.45v8.3h-10.06v31.12h-10.06v-31.12h-9.99v-8.3h30.1Z"/>
      <path class="cls-4" d="M265.9,9.58c5.49,0,9.58.98,12.29,2.94,2.7,1.96,4.05,4.87,4.05,8.74,0,2.57-.69,4.69-2.06,6.38-1.37,1.69-3.09,3.05-5.16,4.08l11.88,17.14h-10.8l-9.25-14.71h-3.71v14.71h-9.72V9.58h12.49ZM265.49,26.8c2.34,0,4.09-.42,5.26-1.25,1.17-.83,1.76-2.15,1.76-3.95,0-1.58-.56-2.75-1.69-3.51-1.13-.76-2.9-1.15-5.33-1.15h-2.36v9.86h2.36Z"/>
      <path class="cls-4" d="M286.62,48.87l13.84-39.49h12.29l13.97,39.49h-10.4l-2.63-8.44h-13.97l-2.63,8.44h-10.46ZM309.17,24.71c-.23-.67-.5-1.56-.81-2.67-.32-1.1-.63-2.24-.94-3.41-.32-1.17-.59-2.16-.81-2.97-.14.81-.36,1.8-.67,2.97-.32,1.17-.63,2.32-.95,3.44-.32,1.13-.56,2-.74,2.63l-2.43,7.9h9.72l-2.36-7.9Z"/>
      <path class="cls-4" d="M356.48,9.45v8.3h-10.06v31.12h-10.06v-31.12h-9.99v-8.3h30.1Z"/>
      <path class="cls-4" d="M362.49,9.58h23.69v7.56h-13.97v7.56h13.03v7.56h-13.03v8.98h13.97v7.63h-23.69V9.58Z"/>
      <path class="cls-4" d="M426.68,47.05c-2.02.67-4.34,1.24-6.95,1.69-2.61.45-5.36.67-8.23.67-3.87,0-7.25-.74-10.12-2.23-2.88-1.49-5.13-3.72-6.75-6.72-1.62-2.99-2.43-6.76-2.43-11.31,0-4.14.8-7.71,2.4-10.7,1.6-2.99,3.95-5.32,7.05-6.99s6.93-2.5,11.48-2.5c2.43,0,4.75.24,6.95.71,2.2.47,4.14,1.07,5.81,1.79l-3.24,7.76c-1.44-.72-2.94-1.26-4.49-1.62-1.55-.36-3.23-.54-5.03-.54-2.48,0-4.49.55-6.04,1.65-1.55,1.1-2.69,2.58-3.41,4.42-.72,1.85-1.08,3.89-1.08,6.14,0,3.87.85,6.84,2.56,8.91,1.71,2.07,4.12,3.11,7.22,3.11.72,0,1.56-.06,2.53-.17.97-.11,1.72-.24,2.26-.37v-6.95h-7.49v-7.69h17.01v20.92Z"/>
      <path class="cls-4" d="M432.55,48.87v-5.67l4.86-1.82v-24.44l-4.86-1.75v-5.74h19.91v5.74l-4.86,1.75v24.44l4.86,1.82v5.67h-19.91Z"/>
      <path class="cls-4" d="M477.24,17.15c-2.02,0-3.75.48-5.16,1.45s-2.5,2.36-3.24,4.18c-.74,1.82-1.11,3.99-1.11,6.51,0,3.87.8,6.82,2.4,8.84,1.6,2.03,4.08,3.04,7.46,3.04,1.75,0,3.45-.2,5.1-.61,1.64-.4,3.27-1.01,4.89-1.82v8.5c-1.71.77-3.48,1.32-5.3,1.65-1.82.34-3.75.51-5.77.51-4.5,0-8.17-.84-11-2.53s-4.92-4.05-6.24-7.09c-1.33-3.04-1.99-6.56-1.99-10.56s.75-7.47,2.26-10.53c1.51-3.06,3.75-5.46,6.72-7.19,2.97-1.73,6.61-2.6,10.94-2.6,2.11,0,4.17.23,6.18.67,2,.45,3.99,1.1,5.97,1.96l-3.1,7.9c-1.44-.67-2.89-1.23-4.35-1.65-1.46-.43-3-.64-4.62-.64Z"/>
    </g>
  </g>
</svg>