<?xml version="1.0" encoding="UTF-8"?>
<svg id="Layer_2" data-name="Layer 2" xmlns="http://www.w3.org/2000/svg" viewBox="0 0 760.54 697">
  <defs>
    <style>
      .cls-1 {
        fill: #5b626f;
      }

      .cls-2 {
        opacity: .3;
      }

      .cls-2, .cls-3 {
        fill: #f60;
      }

      .cls-4 {
        fill: #b7b7b7;
      }

      .cls-5 {
        fill: #fff;
      }
    </style>
  </defs>
  <g id="Layer_3" data-name="Layer 3">
    <g>
      <path class="cls-4" d="M174.74,679.05c0,3.62-.89,6.79-2.67,9.49-1.78,2.7-4.36,4.79-7.72,6.25s-7.46,2.2-12.29,2.2c-2.13,0-4.21-.14-6.25-.43-2.04-.29-4-.7-5.87-1.25-1.87-.55-3.64-1.22-5.31-2.03v-12.17c2.93,1.27,5.97,2.43,9.1,3.49,3.13,1.07,6.25,1.6,9.36,1.6,2.13,0,3.84-.29,5.13-.86,1.29-.57,2.24-1.35,2.85-2.33.6-.98.91-2.1.91-3.37,0-1.55-.53-2.88-1.6-3.97-1.06-1.09-2.49-2.11-4.27-3.06-1.78-.95-3.83-1.97-6.13-3.06-1.44-.69-2.99-1.51-4.66-2.46-1.67-.95-3.27-2.13-4.79-3.54-1.52-1.41-2.78-3.12-3.75-5.13-.98-2.01-1.47-4.43-1.47-7.25,0-3.68.85-6.83,2.54-9.45,1.7-2.62,4.11-4.62,7.25-6,3.13-1.38,6.83-2.07,11.09-2.07,3.22,0,6.28.38,9.19,1.12,2.9.75,5.94,1.81,9.1,3.19l-4.23,10.18c-2.82-1.15-5.35-2.04-7.59-2.67-2.24-.63-4.54-.95-6.9-.95-1.61,0-2.99.26-4.14.78-1.15.52-2.03,1.24-2.63,2.16-.6.92-.91,2.01-.91,3.28,0,1.44.43,2.66,1.29,3.67.86,1.01,2.16,1.97,3.88,2.89,1.73.92,3.88,2.01,6.47,3.28,3.16,1.5,5.85,3.05,8.07,4.66,2.21,1.61,3.93,3.51,5.13,5.69,1.21,2.19,1.81,4.89,1.81,8.11Z"/>
      <path class="cls-4" d="M231.94,670.95c0,5.18-.86,9.71-2.59,13.59-1.73,3.88-4.41,6.9-8.07,9.06-3.65,2.16-8.38,3.24-14.19,3.24s-10.38-1.08-14.06-3.24c-3.68-2.16-6.4-5.19-8.15-9.1-1.75-3.91-2.63-8.46-2.63-13.63s.89-9.71,2.67-13.59c1.78-3.88,4.51-6.89,8.2-9.02,3.68-2.13,8.37-3.19,14.06-3.19s10.45,1.08,14.11,3.24c3.65,2.16,6.34,5.16,8.07,9.02,1.73,3.85,2.59,8.4,2.59,13.63ZM195.1,670.95c0,3.28.42,6.11,1.25,8.5.83,2.39,2.13,4.21,3.88,5.48,1.75,1.27,4.04,1.9,6.86,1.9s5.19-.63,6.94-1.9c1.75-1.26,3.02-3.09,3.8-5.48.78-2.39,1.17-5.22,1.17-8.5,0-4.95-.91-8.84-2.72-11.69-1.81-2.85-4.85-4.27-9.1-4.27-2.82,0-5.12.65-6.9,1.94-1.78,1.29-3.09,3.12-3.93,5.48-.83,2.36-1.25,5.21-1.25,8.54Z"/>
      <path class="cls-4" d="M254.54,645.75v39.94h20.02v10.44h-32.96v-50.38h12.94Z"/>
      <path class="cls-4" d="M330.03,670.95c0,5.18-.86,9.71-2.59,13.59-1.73,3.88-4.41,6.9-8.07,9.06-3.65,2.16-8.38,3.24-14.19,3.24s-10.38-1.08-14.06-3.24c-3.68-2.16-6.4-5.19-8.15-9.1-1.75-3.91-2.63-8.46-2.63-13.63s.89-9.71,2.67-13.59c1.78-3.88,4.51-6.89,8.2-9.02,3.68-2.13,8.37-3.19,14.06-3.19s10.45,1.08,14.11,3.24c3.65,2.16,6.34,5.16,8.07,9.02,1.73,3.85,2.59,8.4,2.59,13.63ZM293.19,670.95c0,3.28.42,6.11,1.25,8.5.83,2.39,2.13,4.21,3.88,5.48,1.75,1.27,4.04,1.9,6.86,1.9s5.19-.63,6.94-1.9c1.75-1.26,3.02-3.09,3.8-5.48.78-2.39,1.17-5.22,1.17-8.5,0-4.95-.91-8.84-2.72-11.69-1.81-2.85-4.85-4.27-9.1-4.27-2.82,0-5.12.65-6.9,1.94-1.78,1.29-3.09,3.12-3.93,5.48-.83,2.36-1.25,5.21-1.25,8.54Z"/>
      <path class="cls-4" d="M336.68,696.14v-7.25l6.21-2.33v-31.23l-6.21-2.24v-7.33h25.45v7.33l-6.21,2.24v31.23l6.21,2.33v7.25h-25.45Z"/>
      <path class="cls-4" d="M403.19,681.04c0,2.76-.71,5.35-2.11,7.76-1.41,2.42-3.57,4.36-6.47,5.82-2.9,1.47-6.63,2.2-11.17,2.2-2.3,0-4.33-.1-6.08-.3-1.76-.2-3.38-.53-4.87-.99-1.5-.46-3.02-1.04-4.57-1.73v-11.47c2.59,1.32,5.28,2.34,8.07,3.06,2.79.72,5.36,1.08,7.72,1.08,2.19,0,3.82-.4,4.92-1.21,1.09-.8,1.64-1.84,1.64-3.11,0-.98-.33-1.81-.99-2.5-.66-.69-1.7-1.38-3.11-2.07-1.41-.69-3.24-1.52-5.48-2.5-2.53-1.09-4.73-2.29-6.6-3.58-1.87-1.29-3.31-2.88-4.31-4.75-1.01-1.87-1.51-4.24-1.51-7.12,0-3.16.8-5.82,2.42-7.98,1.61-2.16,3.84-3.8,6.69-4.92,2.85-1.12,6.14-1.68,9.88-1.68,3.22,0,6.15.38,8.8,1.12,2.64.75,5,1.58,7.07,2.5l-3.88,9.83c-2.19-.98-4.34-1.75-6.47-2.33-2.13-.57-4.11-.86-5.95-.86-1.96,0-3.41.36-4.36,1.08-.95.72-1.42,1.62-1.42,2.72,0,.92.33,1.73.99,2.42.66.69,1.73,1.4,3.19,2.11,1.47.72,3.46,1.63,6,2.72,2.53,1.09,4.69,2.27,6.47,3.54,1.78,1.27,3.15,2.78,4.1,4.53.95,1.76,1.42,3.96,1.42,6.6Z"/>
      <path class="cls-4" d="M445.9,645.75v10.61h-12.85v39.77h-12.85v-39.77h-12.77v-10.61h38.48Z"/>
    </g>
    <g id="Cloud_infrastructure_engineer" data-name="Cloud infrastructure engineer">
      <g>
        <g>
          <path class="cls-1" d="M489.82,196.63H145.24c-.34,0-.61-.27-.61-.61s.27-.61.61-.61h344.58c.34,0,.61.27.61.61s-.27.61-.61.61Z"/>
          <g>
            <path class="cls-1" d="M105.64,166.31H14.51c-.34,0-.61-.27-.61-.61s.27-.61.61-.61h90.88l59.56-59.56c.24-.24.62-.24.86,0,.24.24.24.62,0,.86l-59.74,59.74c-.11.11-.27.18-.43.18Z"/>
            <path class="cls-1" d="M491,195.44c-.16,0-.32-.06-.44-.19l-84.52-88.68h-240.66c-.34,0-.61-.27-.61-.61s.27-.61.61-.61h240.93c.17,0,.33.07.44.19l84.7,88.87c.23.24.22.63-.02.86-.12.11-.27.17-.42.17Z"/>
            <g>
              <circle class="cls-5" cx="165.37" cy="105.96" r="13.9" transform="translate(-26.49 147.97) rotate(-45)"/>
              <path class="cls-1" d="M165.37,120.47c-8,0-14.51-6.51-14.51-14.51s6.51-14.51,14.51-14.51,14.51,6.51,14.51,14.51-6.51,14.51-14.51,14.51ZM165.37,92.67c-7.33,0-13.29,5.96-13.29,13.29s5.96,13.29,13.29,13.29,13.29-5.96,13.29-13.29-5.96-13.29-13.29-13.29Z"/>
            </g>
            <g>
              <circle class="cls-5" cx="14.51" cy="165.7" r="13.9" transform="translate(-150.09 141.75) rotate(-76.72)"/>
              <path class="cls-1" d="M14.51,180.21c-8,0-14.51-6.51-14.51-14.51s6.51-14.51,14.51-14.51,14.51,6.51,14.51,14.51-6.51,14.51-14.51,14.51ZM14.51,152.41c-7.33,0-13.29,5.96-13.29,13.29s5.96,13.29,13.29,13.29,13.29-5.96,13.29-13.29-5.96-13.29-13.29-13.29Z"/>
            </g>
          </g>
          <g>
            <path class="cls-1" d="M435.19,196.49c-.16,0-.33-.07-.45-.2l-42.24-45.8h-158.4c-.34,0-.61-.27-.61-.61s.27-.61.61-.61h158.66c.17,0,.33.07.45.2l42.43,46c.23.25.21.63-.04.86-.12.11-.27.16-.41.16Z"/>
            <g>
              <circle class="cls-5" cx="234.1" cy="149.88" r="13.9" transform="translate(42.65 351.41) rotate(-79.1)"/>
              <path class="cls-1" d="M234.1,164.39c-8,0-14.51-6.51-14.51-14.51s6.51-14.51,14.51-14.51,14.51,6.51,14.51,14.51-6.51,14.51-14.51,14.51ZM234.1,136.59c-7.33,0-13.29,5.96-13.29,13.29s5.96,13.29,13.29,13.29,13.29-5.96,13.29-13.29-5.96-13.29-13.29-13.29Z"/>
            </g>
          </g>
          <g>
            <circle class="cls-5" cx="145.24" cy="196.02" r="13.9" transform="translate(-69.03 312.66) rotate(-82.03)"/>
            <path class="cls-1" d="M145.24,210.53c-8,0-14.51-6.51-14.51-14.51s6.51-14.51,14.51-14.51,14.51,6.51,14.51,14.51-6.51,14.51-14.51,14.51ZM145.24,182.73c-7.33,0-13.29,5.96-13.29,13.29s5.96,13.29,13.29,13.29,13.29-5.96,13.29-13.29-5.96-13.29-13.29-13.29Z"/>
          </g>
          <g>
            <path class="cls-1" d="M289.93,252.36H35.65c-.34,0-.61-.27-.61-.61s.27-.61.61-.61h254.03l55.01-55.01c.24-.24.62-.24.86,0,.24.24.24.62,0,.86l-55.19,55.19c-.11.11-.27.18-.43.18Z"/>
            <g>
              <circle class="cls-5" cx="35.65" cy="252.29" r="13.9"/>
              <path class="cls-1" d="M35.65,266.79c-8,0-14.51-6.51-14.51-14.51s6.51-14.51,14.51-14.51,14.51,6.51,14.51,14.51-6.51,14.51-14.51,14.51ZM35.65,239c-7.33,0-13.29,5.96-13.29,13.29s5.96,13.29,13.29,13.29,13.29-5.96,13.29-13.29-5.96-13.29-13.29-13.29Z"/>
            </g>
          </g>
        </g>
        <g>
          <g>
            <path class="cls-5" d="M707.87,250.84c-2.16,0-4.29.13-6.38.39,1.26-7.13,1.92-14.47,1.92-21.96,0-69.41-56.27-125.68-125.68-125.68-64.06,0-116.93,47.93-124.69,109.89-5.26-1.23-10.75-1.88-16.38-1.88-39.58,0-71.67,32.09-71.67,71.67s32.09,71.67,71.67,71.67h271.22c28.75,0,52.05-23.31,52.05-52.05s-23.31-52.05-52.05-52.05Z"/>
            <path class="cls-1" d="M707.87,355.56h-271.22c-39.86,0-72.28-32.43-72.28-72.28s32.43-72.28,72.28-72.28c5.35,0,10.68.59,15.86,1.75,8.19-62.62,61.9-109.76,125.21-109.76,69.64,0,126.29,56.65,126.29,126.29,0,7.12-.6,14.27-1.79,21.26,1.87-.2,3.77-.3,5.64-.3,29.04,0,52.66,23.62,52.66,52.66s-23.62,52.66-52.66,52.66ZM436.65,212.21c-39.18,0-71.06,31.88-71.06,71.06s31.88,71.06,71.06,71.06h271.22c28.37,0,51.44-23.08,51.44-51.44s-23.08-51.44-51.44-51.44c-2.09,0-4.22.13-6.31.39-.19.02-.38-.05-.52-.19-.13-.14-.19-.34-.16-.53,1.27-7.18,1.91-14.53,1.91-21.86,0-68.96-56.11-125.07-125.07-125.07-62.93,0-116.28,47.01-124.09,109.36-.02.17-.11.33-.26.42-.14.1-.32.13-.49.09-5.3-1.24-10.76-1.87-16.24-1.87Z"/>
          </g>
          <path class="cls-2" d="M639.9,164.83c-.65.26-1.26.56-1.86.88-4.08-5.69-8.94-10.66-14.37-14.79.34-.59.66-1.19.94-1.83,3.71-8.58-.26-18.55-8.85-22.25-8.59-3.71-18.56.25-22.27,8.83-.28.64-.5,1.29-.69,1.94-6.73-1.12-13.68-1.25-20.62-.31-.17-.66-.37-1.31-.63-1.96-3.46-8.69-13.31-12.94-22.01-9.49-8.7,3.45-12.95,13.29-9.49,21.98.26.65.56,1.26.89,1.86-5.7,4.07-10.66,8.92-14.79,14.35-.59-.34-1.19-.66-1.83-.94-8.59-3.71-18.56.25-22.27,8.83-3.71,8.58.26,18.55,8.85,22.25.64.28,1.29.5,1.94.69-1.11,6.73-1.24,13.67-.3,20.6-.66.17-1.31.37-1.96.63-8.7,3.45-12.95,13.29-9.49,21.98,3.46,8.69,13.31,12.94,22.01,9.49.65-.26,1.26-.56,1.86-.88,4.08,5.69,8.94,10.66,14.37,14.79-.34.59-.66,1.19-.94,1.83-3.71,8.58.26,18.55,8.85,22.25,8.59,3.71,18.56-.25,22.27-8.83.28-.64.5-1.29.69-1.94,6.73,1.12,13.68,1.25,20.62.31.17.66.37,1.31.63,1.96,3.46,8.69,13.31,12.94,22.01,9.49,8.7-3.45,12.95-13.29,9.49-21.98-.26-.65-.56-1.26-.89-1.86,5.7-4.07,10.66-8.92,14.79-14.35.59.34,1.19.66,1.83.94,8.59,3.71,18.56-.25,22.27-8.83,3.71-8.58-.26-18.55-8.85-22.25-.64-.28-1.29-.5-1.94-.69,1.12-6.73,1.24-13.67.3-20.6.66-.17,1.31-.37,1.96-.63,8.7-3.45,12.95-13.29,9.49-21.98-3.46-8.69-13.31-12.94-22.01-9.49ZM593.12,235.42c-16.15,6.4-34.45-1.49-40.87-17.63-6.42-16.14,1.47-34.41,17.62-40.82,16.15-6.4,34.45,1.49,40.87,17.63,6.42,16.14-1.47,34.41-17.62,40.82Z"/>
          <path class="cls-2" d="M709.39,280.76c-.35.14-.68.3-1,.48-2.19-3.06-4.8-5.72-7.72-7.94.18-.32.36-.64.5-.98,1.99-4.61-.14-9.96-4.75-11.95-4.62-1.99-9.97.13-11.96,4.74-.15.34-.27.69-.37,1.04-3.62-.6-7.35-.67-11.08-.17-.09-.35-.2-.7-.34-1.05-1.86-4.67-7.15-6.95-11.82-5.1-4.67,1.85-6.95,7.14-5.1,11.8.14.35.3.68.48,1-3.06,2.19-5.73,4.79-7.94,7.71-.32-.18-.64-.36-.98-.5-4.62-1.99-9.97.13-11.96,4.74-1.99,4.61.14,9.96,4.75,11.95.34.15.69.27,1.04.37-.6,3.61-.67,7.34-.16,11.06-.35.09-.7.2-1.05.34-4.67,1.85-6.95,7.14-5.1,11.8,1.86,4.67,7.15,6.95,11.82,5.1.35-.14.68-.3,1-.48,2.19,3.06,4.8,5.72,7.72,7.94-.18.32-.36.64-.5.98-1.99,4.61.14,9.96,4.75,11.95,4.62,1.99,9.97-.13,11.96-4.74.15-.34.27-.69.37-1.04,3.62.6,7.35.67,11.08.17.09.35.2.7.34,1.05,1.86,4.67,7.15,6.95,11.82,5.1,4.67-1.85,6.95-7.14,5.1-11.8-.14-.35-.3-.68-.48-1,3.06-2.19,5.73-4.79,7.94-7.71.32.18.64.36.98.5,4.62,1.99,9.97-.13,11.96-4.74,1.99-4.61-.14-9.96-4.75-11.95-.34-.15-.69-.27-1.04-.37.6-3.61.67-7.34.16-11.06.35-.09.7-.2,1.05-.34,4.67-1.85,6.95-7.14,5.1-11.8-1.86-4.67-7.15-6.95-11.82-5.1ZM684.27,318.67c-8.67,3.44-18.5-.8-21.95-9.47-3.45-8.67.79-18.48,9.46-21.92,8.67-3.44,18.5.8,21.95,9.47,3.45,8.67-.79,18.48-9.46,21.92Z"/>
          <path class="cls-2" d="M535.46,293.33c-.25.1-.49.22-.72.34-1.57-2.2-3.45-4.11-5.54-5.7.13-.23.26-.46.36-.71,1.43-3.31-.1-7.15-3.41-8.58-3.32-1.43-7.16.1-8.59,3.41-.11.25-.19.5-.27.75-2.6-.43-5.28-.48-7.96-.12-.07-.25-.14-.51-.24-.76-1.33-3.35-5.13-4.99-8.49-3.66-3.35,1.33-4.99,5.13-3.66,8.48.1.25.22.49.34.72-2.2,1.57-4.11,3.44-5.71,5.54-.23-.13-.46-.26-.71-.36-3.32-1.43-7.16.1-8.59,3.41-1.43,3.31.1,7.15,3.41,8.58.25.11.5.19.75.27-.43,2.59-.48,5.27-.11,7.95-.25.07-.51.14-.76.24-3.35,1.33-4.99,5.13-3.66,8.48,1.33,3.35,5.13,4.99,8.49,3.66.25-.1.49-.22.72-.34,1.57,2.2,3.45,4.11,5.54,5.7-.13.23-.26.46-.36.71-1.43,3.31.1,7.15,3.41,8.58,3.32,1.43,7.16-.1,8.59-3.41.11-.25.19-.5.27-.75,2.6.43,5.28.48,7.96.12.07.25.14.51.24.76,1.33,3.35,5.13,4.99,8.49,3.66,3.35-1.33,4.99-5.13,3.66-8.48-.1-.25-.22-.49-.34-.72,2.2-1.57,4.11-3.44,5.71-5.54.23.13.46.26.71.36,3.32,1.43,7.16-.1,8.59-3.41,1.43-3.31-.1-7.15-3.41-8.58-.25-.11-.5-.19-.75-.27.43-2.6.48-5.27.11-7.95.25-.07.51-.14.76-.24,3.35-1.33,4.99-5.13,3.66-8.48-1.33-3.35-5.13-4.99-8.49-3.66ZM517.41,320.57c-6.23,2.47-13.29-.57-15.76-6.8-2.48-6.23.57-13.27,6.8-15.74,6.23-2.47,13.29.57,15.76,6.8,2.48,6.23-.57,13.27-6.8,15.74Z"/>
        </g>
      </g>
      <g>
        <g>
          <path class="cls-1" d="M223.38,254.69c-7.47-10.39-20.01-16.23-32.65-18.25-9.12-1.46-19-1.01-26.85,3.88s-12.81,15.11-9.49,23.74c-6.76-3.06-15.67.23-18.83,6.94-3.16,6.71,0,15.68,6.66,18.93-3.15,7.48-.26,16.5,5.34,22.38,9.93,10.45,26.68,11.91,40.27,7.1,13.51-4.78,28.88-15.89,37.25-27.67,7.3-10.27,5.31-27.31-1.69-37.06Z"/>
          <g>
            <polygon class="cls-5" points="156.25 369.13 174.58 310.57 210.04 319.37 198.37 366.16 156.25 369.13"/>
            <path class="cls-1" d="M156.25,369.74c-.19,0-.36-.08-.48-.23-.13-.16-.16-.37-.1-.56l18.33-58.56c.1-.31.42-.49.73-.41l35.45,8.8c.16.04.29.14.38.28.08.14.11.3.07.46l-11.66,46.79c-.06.26-.29.44-.55.46l-42.12,2.97s-.03,0-.04,0ZM175,311.3l-17.89,57.16,40.78-2.88,11.41-45.77-34.3-8.51Z"/>
          </g>
          <g>
            <path class="cls-5" d="M210.97,279.01c-4.98-1.47-9.51-4.21-14.47-5.77-4.96-1.56-10.83-1.74-14.88,1.52-2.84,2.29-4.32,5.93-4.73,9.56-.41,3.62.12,7.28.65,10.89-4.47,1.43-3.91.38-6.98-2.3-2.11-1.84-4.97-2.78-7.74-2.07-4.04,1.03-6.96,5.09-7.1,9.26s2.23,8.22,5.68,10.56,7.84,3.09,11.97,2.55c4.24,11.15,8.32,25.33,20.88,24.84,7.21-.29,21.29.23,26.9-4.3,8.51-6.88,4.44-48.32,4.59-56.76-3.88,3.46-9.79,3.49-14.78,2.02Z"/>
            <path class="cls-1" d="M193.61,338.67c-11.43,0-15.83-11.86-19.72-22.35-.31-.83-.61-1.64-.91-2.45-4.42.48-8.64-.48-11.92-2.71-3.76-2.55-6.09-6.91-5.95-11.09.16-4.55,3.4-8.78,7.56-9.83,2.79-.71,5.89.11,8.29,2.21.68.59,1.19,1.11,1.6,1.52,1.34,1.37,1.61,1.64,4.3.81-.51-3.44-.99-6.99-.58-10.53.48-4.24,2.24-7.78,4.96-9.96,3.68-2.96,9.31-3.55,15.44-1.62,2.43.76,4.78,1.81,7.05,2.83,2.4,1.07,4.87,2.18,7.41,2.93,5.68,1.68,10.99.97,14.2-1.89.18-.16.44-.2.66-.1.22.1.36.32.36.57-.03,1.65.1,4.6.28,8.33.74,16.15,1.98,43.18-5.09,48.89-4.92,3.98-15.69,4.19-23.55,4.34-1.36.03-2.61.05-3.71.09-.23,0-.45.01-.67.01ZM173.38,312.6c.25,0,.48.15.57.39.36.95.72,1.92,1.09,2.9,3.82,10.3,8.13,21.98,19.2,21.54,1.1-.04,2.36-.07,3.73-.1,7.25-.14,18.22-.36,22.81-4.07,6.59-5.33,5.32-33.01,4.64-47.89-.13-2.94-.25-5.4-.27-7.14-3.56,2.47-8.81,2.99-14.34,1.35-2.62-.77-5.13-1.9-7.56-2.99-2.24-1-4.56-2.04-6.91-2.78-2.71-.85-9.54-2.42-14.31,1.41-2.46,1.98-4.06,5.23-4.51,9.15-.41,3.57.13,7.21.65,10.73.04.3-.13.58-.42.67-3.71,1.19-4.35.75-6.04-.96-.42-.42-.89-.9-1.53-1.46-2.1-1.83-4.79-2.55-7.19-1.94-3.65.93-6.5,4.67-6.64,8.69-.13,3.77,2,7.71,5.42,10.04,3.11,2.11,7.32,3.01,11.55,2.45.03,0,.05,0,.08,0Z"/>
          </g>
          <path class="cls-1" d="M172.69,307.55c-.21,0-.42-.11-.53-.32-1.59-2.88-4.27-5.2-7.34-6.38-.31-.12-.47-.47-.35-.79s.47-.47.79-.35c3.34,1.27,6.25,3.8,7.97,6.93.16.3.06.67-.24.83-.09.05-.19.08-.29.08Z"/>
          <g>
            <path class="cls-1" d="M199.99,309.13c-2.36,0-4.61-.98-6.37-2.78-1.84-1.88-2.92-4.45-3.05-7.22-.27-5.75,3.71-10.62,8.85-10.86,2.49-.11,4.91.87,6.77,2.77,1.84,1.88,2.92,4.45,3.05,7.22.27,5.75-3.71,10.62-8.85,10.86-.13,0-.27,0-.4,0ZM199.82,289.48c-.11,0-.23,0-.34,0-4.47.21-7.92,4.51-7.69,9.58.11,2.47,1.07,4.75,2.7,6.43,1.61,1.65,3.69,2.51,5.84,2.41,4.48-.21,7.92-4.51,7.69-9.58-.11-2.47-1.07-4.75-2.7-6.43-1.53-1.56-3.47-2.41-5.5-2.41Z"/>
            <g>
              <path class="cls-5" d="M233.61,297.14c.25,5.42-3.45,10-8.27,10.22-4.82.22-8.93-3.99-9.18-9.41-.25-5.42,3.45-10,8.27-10.22,4.82-.22,8.93,3.99,9.18,9.41Z"/>
              <path class="cls-1" d="M224.97,307.98c-2.36,0-4.61-.98-6.37-2.78-1.84-1.88-2.92-4.45-3.05-7.22-.27-5.75,3.71-10.62,8.85-10.86,2.5-.12,4.91.87,6.77,2.77,1.84,1.88,2.92,4.45,3.05,7.22.27,5.75-3.71,10.62-8.85,10.86-.13,0-.27,0-.4,0ZM224.8,288.33c-.11,0-.23,0-.34,0-4.48.21-7.92,4.51-7.69,9.58.11,2.47,1.07,4.75,2.7,6.43,1.61,1.65,3.68,2.51,5.84,2.41,4.47-.21,7.92-4.51,7.69-9.58-.11-2.47-1.07-4.75-2.7-6.43-1.53-1.56-3.47-2.41-5.5-2.41Z"/>
            </g>
            <path class="cls-1" d="M208.63,298.91c-.17,0-.34-.07-.46-.21-.22-.25-.2-.64.05-.86,1.53-1.35,5.25-3.17,8.34-.34.25.23.27.61.04.86-.23.25-.61.27-.86.04-3.05-2.79-6.56.23-6.71.36-.12.1-.26.15-.4.15Z"/>
            <path class="cls-1" d="M191.18,299.71s-.09,0-.13-.01l-18.49-4.15c-.33-.07-.54-.4-.46-.73.07-.33.4-.53.73-.46l18.49,4.15c.33.07.54.4.46.73-.06.28-.32.48-.59.48Z"/>
          </g>
        </g>
        <g>
          <g>
            <path class="cls-5" d="M472.37,317.28c4.96-11.97-4.96-14.57-4.96-14.57-.75-15.43-15-11.22-15-11.22,13.28-14.41,22.51-39.82-14.06-11.74-36.57,28.07-95.38,101.37-124.25,126.23-10.17,8.75-21.49,13.44-32.73,15.38l-25.27,89.77c19.23.99,41.99-.36,63.96-7.75,75.42-25.36,140.68-165.44,140.68-165.44,22.05-11.43,11.63-20.67,11.63-20.67Z"/>
            <path class="cls-1" d="M267.16,512.03c-3.65,0-7.34-.1-11.09-.29-.34-.02-.6-.3-.58-.64.02-.34.31-.59.64-.58,23.48,1.21,44.92-1.39,63.73-7.72,38.79-13.04,74.87-57.22,98.3-91.98,25.42-37.71,41.86-72.79,42.02-73.14.06-.12.15-.22.27-.28,8.4-4.36,13.14-9.02,13.7-13.48.47-3.75-2.17-6.17-2.2-6.19-.19-.17-.26-.45-.16-.69,1.59-3.84,1.77-7.06.53-9.57-1.59-3.22-5.05-4.17-5.08-4.18-.26-.07-.44-.3-.45-.56-.21-4.46-1.61-7.63-4.14-9.43-4.14-2.94-10.02-1.25-10.08-1.23-.26.08-.55-.03-.69-.26-.15-.23-.12-.53.07-.74,8.03-8.71,13.45-19.95,10.94-22.69-1.09-1.19-5.61-2.41-24.18,11.85-20.84,16-49.41,47.25-74.62,74.83-19.13,20.93-37.2,40.69-49.61,51.38-9.46,8.15-20.57,13.37-33.03,15.52-.33.06-.65-.16-.7-.5-.06-.33.16-.65.5-.7,12.23-2.11,23.14-7.24,32.44-15.24,12.36-10.64,30.4-30.38,49.51-51.28,25.24-27.61,53.84-58.91,74.77-74.97,14.24-10.93,22.93-14.87,25.83-11.7,3.19,3.5-2.41,14.54-9.71,22.96,2.25-.33,6.14-.44,9.28,1.79,2.77,1.96,4.32,5.31,4.63,9.94,1.08.38,3.92,1.64,5.43,4.67,1.37,2.75,1.25,6.19-.34,10.21.79.84,2.73,3.32,2.29,6.92-.61,4.92-5.38,9.75-14.17,14.34-1.34,2.83-17.51,36.74-42.02,73.1-14.97,22.21-30.08,40.97-44.9,55.77-18.56,18.53-36.74,30.88-54.03,36.69-15.95,5.36-33.77,8.07-53.09,8.07Z"/>
            <path class="cls-1" d="M419.49,341.7c-.82,0-1.65-.12-2.47-.4-.32-.11-.49-.45-.38-.77.11-.32.46-.49.77-.38,3.47,1.18,7.08-.9,9.11-3.03,1.93-2.03,3.29-4.61,4.6-7.1.34-.65.68-1.29,1.03-1.93,1.58-2.88,3.84-6.42,7.4-8.17,1.69-.83,3.54-1.19,5.32-1.55.8-.16,1.63-.32,2.42-.52,2.1-.54,4.81-1.67,5.83-4.03,1.34-3.11-1.07-6.75-4.08-8.06-3.19-1.39-6.91-.98-10.45-.31-9.72,1.81-18.05,4.98-24.77,9.41-.28.19-.66.11-.85-.17-.19-.28-.11-.66.17-.84,6.85-4.52,15.34-7.75,25.22-9.59,3.74-.7,7.67-1.13,11.16.4,3.53,1.54,6.33,5.89,4.71,9.66-1.21,2.82-4.29,4.13-6.65,4.73-.82.21-1.67.38-2.48.54-1.79.35-3.47.69-5.02,1.45-3.25,1.6-5.38,4.93-6.87,7.66-.34.63-.68,1.27-1.02,1.91-1.35,2.57-2.74,5.22-4.79,7.38-1.81,1.9-4.76,3.75-7.91,3.75Z"/>
            <path class="cls-1" d="M444.57,326.57c-.6,0-1.2-.07-1.8-.23-2.25-.61-4.28-2.91-3.7-5.37.08-.33.41-.53.73-.45.33.08.53.41.45.73-.41,1.74,1.17,3.46,2.83,3.91,1.55.42,3.36.15,5.7-.84,8.06-3.4,14.19-10.82,16.01-19.38.07-.33.39-.54.72-.47.33.07.54.39.47.72-1.9,8.94-8.31,16.7-16.73,20.25-1.23.52-2.92,1.12-4.69,1.12Z"/>
            <path class="cls-1" d="M454.11,329.78c-.78,0-1.5-.11-2.17-.32-2-.64-3.45-2.36-3.51-4.18-.01-.34.25-.62.59-.63.32,0,.62.25.63.59.05,1.47,1.38,2.65,2.66,3.06,1.25.4,2.73.35,4.66-.16,5.31-1.4,9.96-4.9,12.77-9.62.17-.29.55-.38.84-.21.29.17.38.55.21.84-2.97,4.99-7.9,8.69-13.51,10.17-1.18.31-2.22.47-3.17.47Z"/>
            <path class="cls-1" d="M460.35,335.84c-1.37,0-2.75-.55-3.7-1.55-1.28-1.34-1.73-3.41-1.12-5.16.11-.32.46-.49.78-.37.32.11.49.46.37.78-.46,1.33-.12,2.9.85,3.92.97,1.02,2.53,1.42,3.88,1.02.32-.1.66.08.76.41.1.32-.08.66-.41.76-.46.14-.94.21-1.41.21Z"/>
          </g>
          <polygon class="cls-3" points="289.65 431.78 371.08 344.39 441.55 376.8 360.05 506.77 289.65 431.78"/>
          <path class="cls-3" d="M317.79,417.41c-10.66-39.82-48.58-66.15-89.6-62.06-4.15.41-8.47,1.03-12.99,1.89-32.92,6.25-75.64,7.24-111.82,15.3-30.78,6.86-56.67,27.51-70.29,55.95-14.97,31.26-31.97,73.93-32.47,107.35-.91,60.05,46.72,77.03,89.27,49.85,42.55-27.18,114.12-78.71,114.12-78.71l137.29-1.75-23.51-87.83Z"/>
          <path class="cls-5" d="M92.86,489.63c-.05,0-.11,0-.16-.02-.33-.09-.52-.42-.43-.75,3.33-12.33,8.05-24.3,14.02-35.58.16-.3.53-.41.82-.25.3.16.41.53.25.82-5.93,11.2-10.62,23.09-13.92,35.33-.07.27-.32.45-.59.45Z"/>
          <path class="cls-5" d="M46.64,518.08c-.2,0-.39-.1-.51-.28-.18-.28-.1-.66.18-.84,31.13-20.32,64.21-38.11,98.33-52.87.31-.13.67,0,.8.32.13.31,0,.67-.32.8-34.06,14.73-67.08,32.49-98.15,52.77-.1.07-.22.1-.33.1Z"/>
          <g>
            <path class="cls-5" d="M296.66,511.42s-25.69-61.09-52.99-69.27c-21.22-6.36-92.72,20.23-92.72,20.23,0,0,.96,25.98,31.16,58.85,0,0,115.58,1.48,114.55-9.81Z"/>
            <path class="cls-1" d="M270.97,501.48c-.23,0-.45-.13-.55-.35-5.42-11.49-13.44-21.86-23.21-29.99-.26-.22-.29-.6-.08-.86.21-.26.6-.29.86-.08,9.9,8.24,18.04,18.76,23.53,30.41.14.3.01.67-.29.81-.08.04-.17.06-.26.06Z"/>
            <path class="cls-1" d="M247.77,507.22c-.24,0-.47-.14-.57-.38-3.96-9.81-9.92-19.04-17.24-26.69-.23-.24-.22-.63.02-.86.24-.23.63-.22.86.02,7.42,7.76,13.47,17.12,17.49,27.08.13.31-.03.67-.34.79-.07.03-.15.04-.23.04Z"/>
          </g>
          <g>
            <polygon class="cls-3" points="191.44 356.56 186.86 346.75 154.2 344.39 148.2 363.7 186.25 385.91 191.19 369.13 208.05 386.27 215.21 357.24 207.82 346.75 195.26 346.75 191.44 356.56"/>
            <path class="cls-5" d="M208.05,386.88c-.16,0-.32-.06-.43-.18l-16.13-16.4-4.65,15.79c-.05.18-.19.33-.36.39-.17.07-.37.05-.53-.04l-38.05-22.22c-.29-.17-.39-.54-.22-.83.17-.29.54-.39.83-.22l37.37,21.82,4.72-16.04c.06-.21.23-.37.44-.42.21-.05.43,0,.58.16l16.09,16.36,6.9-27.96c.08-.33.41-.53.74-.45.33.08.53.41.45.74l-7.16,29.02c-.05.21-.22.38-.43.44-.05.01-.11.02-.16.02Z"/>
          </g>
          <g>
            <path class="cls-1" d="M415.93,524.05h-221.23v-6.66c0-5.86,4.75-10.61,10.61-10.61h226.17l-1.82,6.75c-1.67,6.21-7.31,10.53-13.74,10.53Z"/>
            <path class="cls-1" d="M422.24,516.23h-133.47c-5.7,0-9.89-5.35-8.52-10.88l25.23-101.76c.97-3.91,4.48-6.66,8.52-6.66h133.47c5.7,0,9.89,5.35,8.52,10.88l-25.23,101.76c-.97,3.91-4.48,6.66-8.52,6.66Z"/>
            <path class="cls-3" d="M381.34,436.19c0,2.43-1.97,4.41-4.41,4.41s-4.41-1.97-4.41-4.41,1.97-4.41,4.41-4.41,4.41,1.97,4.41,4.41Z"/>
          </g>
        </g>
      </g>
      <g>
        <g>
          <g>
            <g>
              <rect class="cls-5" x="517.76" y="369.13" width="242.17" height="71.27" rx="17.6" ry="17.6" transform="translate(1277.68 809.52) rotate(180)"/>
              <path class="cls-1" d="M742.32,441.01h-206.96c-10.04,0-18.21-8.17-18.21-18.21v-36.07c0-10.04,8.17-18.21,18.21-18.21h206.96c10.04,0,18.21,8.17,18.21,18.21v36.07c0,10.04-8.17,18.21-18.21,18.21ZM535.36,369.74c-9.37,0-16.99,7.62-16.99,16.99v36.07c0,9.37,7.62,16.99,16.99,16.99h206.96c9.37,0,16.99-7.62,16.99-16.99v-36.07c0-9.37-7.62-16.99-16.99-16.99h-206.96Z"/>
            </g>
            <g>
              <circle class="cls-2" cx="722.95" cy="404.76" r="10.99" transform="translate(69.99 914.79) rotate(-67.24)"/>
              <path class="cls-2" d="M554.73,415.75h129.61c6.07,0,10.99-4.92,10.99-10.99s-4.92-10.99-10.99-10.99h-129.61c-6.07,0-10.99,4.92-10.99,10.99s4.92,10.99,10.99,10.99Z"/>
            </g>
          </g>
          <g>
            <g>
              <rect class="cls-5" x="517.76" y="448.06" width="242.17" height="71.27" rx="17.6" ry="17.6" transform="translate(1277.68 967.4) rotate(180)"/>
              <path class="cls-1" d="M742.32,519.94h-206.96c-10.04,0-18.21-8.17-18.21-18.21v-36.07c0-10.04,8.17-18.21,18.21-18.21h206.96c10.04,0,18.21,8.17,18.21,18.21v36.07c0,10.04-8.17,18.21-18.21,18.21ZM535.36,448.67c-9.37,0-16.99,7.62-16.99,16.99v36.07c0,9.37,7.62,16.99,16.99,16.99h206.96c9.37,0,16.99-7.62,16.99-16.99v-36.07c0-9.37-7.62-16.99-16.99-16.99h-206.96Z"/>
            </g>
            <g>
              <g>
                <circle class="cls-5" cx="722.95" cy="483.7" r="10.99" transform="translate(-68.48 122.78) rotate(-9.27)"/>
                <path class="cls-1" d="M722.95,495.3c-6.4,0-11.6-5.21-11.6-11.6s5.21-11.6,11.6-11.6,11.6,5.21,11.6,11.6-5.21,11.6-11.6,11.6ZM722.95,473.32c-5.73,0-10.38,4.66-10.38,10.38s4.66,10.38,10.38,10.38,10.38-4.66,10.38-10.38-4.66-10.38-10.38-10.38Z"/>
              </g>
              <g>
                <path class="cls-5" d="M554.73,494.69h129.61c6.07,0,10.99-4.92,10.99-10.99s-4.92-10.99-10.99-10.99h-129.61c-6.07,0-10.99,4.92-10.99,10.99s4.92,10.99,10.99,10.99Z"/>
                <path class="cls-1" d="M684.34,495.3h-129.61c-6.4,0-11.6-5.21-11.6-11.6s5.21-11.6,11.6-11.6h129.61c6.4,0,11.6,5.21,11.6,11.6s-5.21,11.6-11.6,11.6ZM554.73,473.32c-5.73,0-10.38,4.66-10.38,10.38s4.66,10.38,10.38,10.38h129.61c5.73,0,10.38-4.66,10.38-10.38s-4.66-10.38-10.38-10.38h-129.61Z"/>
              </g>
            </g>
          </g>
          <g>
            <g>
              <rect class="cls-5" x="517.76" y="527" width="242.17" height="71.27" rx="17.6" ry="17.6" transform="translate(1277.68 1125.28) rotate(180)"/>
              <path class="cls-1" d="M742.32,598.88h-206.96c-10.04,0-18.21-8.17-18.21-18.21v-36.07c0-10.04,8.17-18.21,18.21-18.21h206.96c10.04,0,18.21,8.17,18.21,18.21v36.07c0,10.04-8.17,18.21-18.21,18.21ZM535.36,527.61c-9.37,0-16.99,7.62-16.99,16.99v36.07c0,9.37,7.62,16.99,16.99,16.99h206.96c9.37,0,16.99-7.62,16.99-16.99v-36.07c0-9.37-7.62-16.99-16.99-16.99h-206.96Z"/>
            </g>
            <g>
              <g>
                <circle class="cls-5" cx="722.95" cy="562.64" r="10.99"/>
                <path class="cls-1" d="M722.95,574.24c-6.4,0-11.6-5.21-11.6-11.6s5.21-11.6,11.6-11.6,11.6,5.21,11.6,11.6-5.21,11.6-11.6,11.6ZM722.95,552.25c-5.73,0-10.38,4.66-10.38,10.38s4.66,10.38,10.38,10.38,10.38-4.66,10.38-10.38-4.66-10.38-10.38-10.38Z"/>
              </g>
              <g>
                <path class="cls-5" d="M554.73,573.63h129.61c6.07,0,10.99-4.92,10.99-10.99s-4.92-10.99-10.99-10.99h-129.61c-6.07,0-10.99,4.92-10.99,10.99s4.92,10.99,10.99,10.99Z"/>
                <path class="cls-1" d="M684.34,574.24h-129.61c-6.4,0-11.6-5.21-11.6-11.6s5.21-11.6,11.6-11.6h129.61c6.4,0,11.6,5.21,11.6,11.6s-5.21,11.6-11.6,11.6ZM554.73,552.25c-5.73,0-10.38,4.66-10.38,10.38s4.66,10.38,10.38,10.38h129.61c5.73,0,10.38-4.66,10.38-10.38s-4.66-10.38-10.38-10.38h-129.61Z"/>
              </g>
            </g>
          </g>
        </g>
        <g>
          <path class="cls-1" d="M509.69,563.51h-128.6c-.16,0-.32-.06-.43-.18-.11-.12-.18-.27-.18-.43l.26-30.49c0-.34.25-.6.62-.6.34,0,.61.28.6.62l-.25,29.87h127.99c.34,0,.61.27.61.61s-.27.61-.61.61Z"/>
          <path class="cls-1" d="M509.69,598.88h-164.57c-.34,0-.61-.27-.61-.61v-65.87c0-.34.27-.61.61-.61s.61.27.61.61v65.26h163.96c.34,0,.61.27.61.61s-.27.61-.61.61Z"/>
        </g>
      </g>
    </g>
    <g>
      <path class="cls-4" d="M252.27,53.49h-10.81V10.12h-13.64V.74h38.08v9.38h-13.64v43.37Z"/>
      <path class="cls-4" d="M306.33,10.49v43h-10.17v-18.1h-15.19v18.1h-10.17V10.49h10.17v16.4h15.19V10.49h10.17Z"/>
      <path class="cls-4" d="M316.29,10.49h24.8v8.27h-14.63v8.28h13.64v8.27h-13.64v9.83h14.63v8.35h-24.8V10.49Z"/>
      <path class="cls-4" d="M398.82,38.86c0,3.1-.73,5.81-2.19,8.13-1.46,2.32-3.57,4.1-6.32,5.36-2.76,1.26-6.11,1.88-10.07,1.88-1.74,0-3.45-.12-5.12-.37-1.67-.25-3.27-.6-4.8-1.07-1.53-.47-2.98-1.05-4.35-1.74v-10.42c2.4,1.08,4.89,2.08,7.45,2.99,2.57.91,5.12,1.37,7.67,1.37,1.74,0,3.14-.25,4.2-.74,1.06-.49,1.84-1.16,2.33-2,.49-.84.74-1.8.74-2.88,0-1.33-.44-2.46-1.31-3.4-.87-.93-2.04-1.81-3.5-2.62-1.46-.81-3.13-1.69-5.02-2.62-1.18-.59-2.45-1.29-3.82-2.11-1.37-.81-2.67-1.82-3.92-3.03-1.25-1.21-2.27-2.67-3.07-4.4-.8-1.72-1.2-3.79-1.2-6.21,0-3.15.69-5.85,2.08-8.09,1.39-2.24,3.37-3.95,5.94-5.13,2.57-1.18,5.59-1.77,9.08-1.77,2.64,0,5.15.32,7.53.96,2.38.64,4.86,1.55,7.45,2.73l-3.46,8.72c-2.31-.99-4.38-1.75-6.22-2.29-1.84-.54-3.72-.81-5.65-.81-1.32,0-2.45.22-3.39.67-.94.44-1.66,1.06-2.16,1.85s-.74,1.72-.74,2.81c0,1.23.35,2.28,1.06,3.14.71.86,1.77,1.69,3.18,2.47,1.41.79,3.18,1.73,5.3,2.81,2.59,1.28,4.79,2.61,6.61,3.99,1.81,1.38,3.21,3,4.2,4.88.99,1.87,1.48,4.19,1.48,6.95Z"/>
      <path class="cls-4" d="M433.16,10.34v9.09h-10.53v34.06h-10.53V19.43h-10.46v-9.09h31.51Z"/>
      <path class="cls-4" d="M439.45,10.49h24.8v8.27h-14.63v8.28h13.64v8.27h-13.64v9.83h14.63v8.35h-24.8V10.49Z"/>
      <path class="cls-4" d="M467.5,53.49l14.48-43.22h12.86l14.63,43.22h-10.88l-2.76-9.24h-14.63l-2.76,9.24h-10.95ZM491.1,27.04c-.24-.74-.52-1.71-.85-2.92-.33-1.21-.66-2.45-.99-3.73-.33-1.28-.61-2.36-.85-3.25-.14.89-.38,1.97-.71,3.25-.33,1.28-.66,2.54-.99,3.77-.33,1.23-.59,2.19-.78,2.88l-2.54,8.64h10.17l-2.47-8.64Z"/>
      <path class="cls-4" d="M549.67,31.11c0,4.98-.92,9.12-2.76,12.45-1.84,3.33-4.43,5.81-7.77,7.46-3.35,1.65-7.28,2.48-11.8,2.48h-13.28V10.34h14.2c6.88,0,12.16,1.79,15.86,5.36,3.7,3.57,5.55,8.71,5.55,15.4ZM538.65,31.55c0-4.14-.86-7.21-2.58-9.24-1.72-2.02-4.27-3.03-7.67-3.03h-3.75v25.27h2.97c3.77,0,6.55-1.07,8.34-3.21,1.79-2.14,2.69-5.4,2.69-9.79Z"/>
      <path class="cls-4" d="M557.58,10.49h24.66v8.27h-14.7v9.75h13.71v8.35h-13.71v16.62h-9.96V10.49Z"/>
      <path class="cls-4" d="M584.29,53.49l14.48-43.22h12.86l14.63,43.22h-10.88l-2.76-9.24h-14.63l-2.76,9.24h-10.95ZM607.89,27.04c-.24-.74-.52-1.71-.85-2.92-.33-1.21-.66-2.45-.99-3.73-.33-1.28-.61-2.36-.85-3.25-.14.89-.38,1.97-.71,3.25-.33,1.28-.66,2.54-.99,3.77-.33,1.23-.59,2.19-.78,2.88l-2.54,8.64h10.17l-2.47-8.64Z"/>
      <path class="cls-4" d="M657.85,40.56c0,2.36-.58,4.58-1.73,6.65-1.15,2.07-2.92,3.73-5.3,4.99-2.38,1.26-5.43,1.88-9.15,1.88-1.88,0-3.54-.09-4.98-.26-1.44-.17-2.77-.45-3.99-.85-1.23-.39-2.47-.89-3.74-1.48v-9.83c2.12,1.13,4.32,2.01,6.61,2.62,2.28.62,4.39.92,6.32.92,1.79,0,3.13-.34,4.03-1.03.89-.69,1.34-1.58,1.34-2.66,0-.84-.27-1.55-.81-2.14-.54-.59-1.39-1.18-2.54-1.77-1.16-.59-2.65-1.3-4.49-2.14-2.07-.94-3.88-1.96-5.41-3.07-1.53-1.11-2.71-2.46-3.53-4.06-.82-1.6-1.24-3.63-1.24-6.1,0-2.71.66-4.99,1.98-6.83,1.32-1.85,3.14-3.25,5.48-4.21,2.33-.96,5.03-1.44,8.09-1.44,2.64,0,5.04.32,7.21.96,2.17.64,4.1,1.35,5.79,2.14l-3.18,8.42c-1.79-.84-3.56-1.5-5.3-2-1.74-.49-3.37-.74-4.88-.74-1.6,0-2.79.31-3.57.92-.78.62-1.17,1.39-1.17,2.33,0,.79.27,1.48.81,2.07.54.59,1.41,1.19,2.61,1.81,1.2.62,2.84,1.39,4.91,2.33,2.07.94,3.84,1.95,5.3,3.03,1.46,1.08,2.58,2.38,3.36,3.88.78,1.5,1.17,3.39,1.17,5.65Z"/>
      <path class="cls-4" d="M692.82,10.34v9.09h-10.53v34.06h-10.53V19.43h-10.46v-9.09h31.51Z"/>
    </g>
  </g>
</svg>