<?xml version="1.0" encoding="UTF-8"?>
<svg id="Layer_2" data-name="Layer 2" xmlns="http://www.w3.org/2000/svg" viewBox="0 0 764.27 688.74">
  <defs>
    <style>
      .cls-1 {
        fill: #5b626f;
      }

      .cls-2 {
        opacity: .3;
      }

      .cls-2, .cls-3 {
        fill: #f60;
      }

      .cls-4 {
        fill: #b7b7b7;
      }

      .cls-5 {
        fill: #fff;
      }
    </style>
  </defs>
  <g id="Layer_3" data-name="Layer 3">
    <g>
      <path class="cls-4" d="M269.87,577l-16.4,48.2h-11.14l-16.33-48.2h10.33l9.04,28.69c.18.5.44,1.41.78,2.73.34,1.33.69,2.72,1.05,4.18.36,1.46.61,2.69.74,3.68.13-.99.37-2.22.71-3.68.34-1.46.69-2.86,1.05-4.18.36-1.33.61-2.24.74-2.73l9.11-28.69h10.33Z"/>
      <path class="cls-4" d="M271.9,625.2v-5.67l4.86-1.82v-24.44l-4.86-1.75v-5.74h19.91v5.74l-4.86,1.75v24.44l4.86,1.82v5.67h-19.91Z"/>
      <path class="cls-4" d="M323.94,613.38c0,2.16-.55,4.18-1.65,6.08-1.1,1.89-2.79,3.41-5.06,4.56-2.27,1.15-5.19,1.72-8.74,1.72-1.8,0-3.39-.08-4.76-.24-1.37-.16-2.64-.42-3.81-.78-1.17-.36-2.36-.81-3.58-1.35v-8.98c2.02,1.04,4.13,1.83,6.31,2.4s4.2.84,6.04.84c1.71,0,2.99-.31,3.85-.95.85-.63,1.28-1.44,1.28-2.43,0-.76-.26-1.42-.78-1.96-.52-.54-1.33-1.08-2.43-1.62s-2.53-1.19-4.29-1.96c-1.98-.85-3.7-1.79-5.16-2.8-1.46-1.01-2.59-2.25-3.38-3.71-.79-1.46-1.18-3.32-1.18-5.57,0-2.47.63-4.56,1.89-6.24s3-2.97,5.23-3.85c2.23-.88,4.8-1.32,7.73-1.32,2.52,0,4.82.29,6.89.88,2.07.58,3.92,1.24,5.53,1.96l-3.04,7.7c-1.71-.76-3.4-1.37-5.06-1.82-1.67-.45-3.22-.68-4.66-.68-1.53,0-2.67.28-3.41.84-.74.56-1.11,1.27-1.11,2.13,0,.72.26,1.35.78,1.89.52.54,1.35,1.09,2.5,1.65,1.15.56,2.71,1.27,4.69,2.13,1.98.86,3.67,1.78,5.06,2.77,1.39.99,2.46,2.17,3.21,3.54.74,1.37,1.11,3.09,1.11,5.16Z"/>
      <path class="cls-4" d="M327.92,625.2v-5.67l4.86-1.82v-24.44l-4.86-1.75v-5.74h19.91v5.74l-4.86,1.75v24.44l4.86,1.82v5.67h-19.91Z"/>
      <path class="cls-4" d="M391.85,605.49c0,4.05-.68,7.59-2.03,10.63-1.35,3.04-3.45,5.4-6.31,7.09s-6.56,2.53-11.1,2.53-8.12-.84-11-2.53c-2.88-1.69-5.01-4.06-6.38-7.12-1.37-3.06-2.06-6.62-2.06-10.67s.7-7.59,2.09-10.63c1.39-3.04,3.53-5.39,6.41-7.05,2.88-1.66,6.55-2.5,11-2.5s8.18.84,11.04,2.53,4.96,4.04,6.31,7.05c1.35,3.02,2.03,6.57,2.03,10.67ZM363.02,605.49c0,2.57.33,4.78.98,6.65.65,1.87,1.66,3.3,3.04,4.29,1.37.99,3.16,1.49,5.37,1.49s4.06-.49,5.43-1.49c1.37-.99,2.36-2.42,2.97-4.29.61-1.87.91-4.08.91-6.65,0-3.87-.71-6.92-2.13-9.15-1.42-2.23-3.79-3.34-7.12-3.34-2.21,0-4.01.51-5.4,1.52-1.4,1.01-2.42,2.44-3.07,4.29-.65,1.85-.98,4.07-.98,6.68Z"/>
      <path class="cls-4" d="M436.87,585.91v39.29h-12.35l-16.4-28.82h-.27c.04.5.09,1.15.13,1.96.04.81.09,1.71.13,2.7.04.99.09,2,.13,3.04.04,1.04.09,2.03.14,2.97v18.16h-8.64v-39.29h12.42l16.4,28.49h.13c0-.5-.02-1.14-.07-1.92-.05-.79-.09-1.65-.14-2.6-.04-.95-.09-1.91-.13-2.9-.04-.99-.07-1.93-.07-2.83v-18.23h8.57Z"/>
      <path class="cls-4" d="M441.73,625.2l13.84-39.49h12.28l13.97,39.49h-10.39l-2.63-8.44h-13.97l-2.63,8.44h-10.46ZM464.27,601.03c-.23-.67-.5-1.56-.81-2.67-.32-1.1-.63-2.24-.95-3.41-.32-1.17-.58-2.16-.81-2.97-.13.81-.36,1.8-.67,2.97-.32,1.17-.63,2.32-.94,3.44-.32,1.13-.56,2-.74,2.63l-2.43,7.9h9.72l-2.36-7.9Z"/>
      <path class="cls-4" d="M499.03,585.91c5.49,0,9.58.98,12.28,2.94,2.7,1.96,4.05,4.87,4.05,8.74,0,2.57-.69,4.69-2.06,6.38-1.37,1.69-3.09,3.05-5.16,4.08l11.88,17.14h-10.8l-9.25-14.71h-3.71v14.71h-9.72v-39.29h12.49ZM498.63,603.12c2.34,0,4.09-.42,5.26-1.25,1.17-.83,1.75-2.15,1.75-3.95,0-1.58-.56-2.75-1.69-3.51-1.12-.76-2.9-1.15-5.33-1.15h-2.36v9.86h2.36Z"/>
      <path class="cls-4" d="M556.21,585.78l-13.1,24.03v15.39h-10.26v-15.05l-13.09-24.37h11l7.29,15.25,7.22-15.25h10.94Z"/>
      <path class="cls-4" d="M384.42,688.2l-3.71-11.34h-17.01l-3.71,11.34h-11.14l16.94-48.4h12.69l17.08,48.4h-11.14ZM374.97,657.75c-.18-.67-.46-1.69-.84-3.04-.38-1.35-.75-2.73-1.11-4.15-.36-1.42-.65-2.58-.88-3.48-.18,1.04-.44,2.23-.78,3.58-.34,1.35-.66,2.66-.98,3.92-.32,1.26-.58,2.32-.81,3.17l-3.44,10.46h12.22l-3.38-10.46Z"/>
      <path class="cls-4" d="M412.77,648.91c5.49,0,9.58.98,12.28,2.94,2.7,1.96,4.05,4.87,4.05,8.74,0,2.57-.69,4.69-2.06,6.38-1.37,1.69-3.09,3.05-5.16,4.08l11.88,17.14h-10.8l-9.25-14.71h-3.71v14.71h-9.72v-39.29h12.49ZM412.36,666.12c2.34,0,4.09-.42,5.26-1.25,1.17-.83,1.75-2.15,1.75-3.95,0-1.58-.56-2.75-1.69-3.51-1.12-.76-2.9-1.15-5.33-1.15h-2.36v9.86h2.36Z"/>
      <path class="cls-4" d="M456.31,656.47c-2.03,0-3.75.48-5.16,1.45-1.42.97-2.5,2.36-3.24,4.18s-1.11,3.99-1.11,6.51c0,3.87.8,6.82,2.4,8.84,1.6,2.03,4.08,3.04,7.46,3.04,1.75,0,3.45-.2,5.1-.61,1.64-.4,3.27-1.01,4.89-1.82v8.5c-1.71.77-3.48,1.32-5.3,1.65-1.82.34-3.75.51-5.77.51-4.5,0-8.17-.84-11-2.53s-4.92-4.05-6.24-7.09c-1.33-3.04-1.99-6.56-1.99-10.56s.75-7.47,2.26-10.53c1.51-3.06,3.75-5.46,6.72-7.19,2.97-1.73,6.62-2.6,10.93-2.6,2.12,0,4.17.23,6.18.67,2,.45,3.99,1.1,5.97,1.96l-3.11,7.9c-1.44-.67-2.89-1.23-4.35-1.65-1.46-.43-3-.64-4.62-.64Z"/>
      <path class="cls-4" d="M508.28,648.91v39.29h-9.72v-16.54h-14.51v16.54h-9.72v-39.29h9.72v14.99h14.51v-14.99h9.72Z"/>
      <path class="cls-4" d="M515.1,688.2v-5.67l4.86-1.82v-24.44l-4.86-1.75v-5.74h19.91v5.74l-4.86,1.75v24.44l4.86,1.82v5.67h-19.91Z"/>
      <path class="cls-4" d="M568.42,648.78v8.3h-10.06v31.12h-10.06v-31.12h-9.99v-8.3h30.11Z"/>
      <path class="cls-4" d="M574.43,648.91h23.69v7.56h-13.97v7.56h13.03v7.56h-13.03v8.98h13.97v7.63h-23.69v-39.29Z"/>
      <path class="cls-4" d="M624.04,656.47c-2.03,0-3.75.48-5.16,1.45-1.42.97-2.5,2.36-3.24,4.18s-1.11,3.99-1.11,6.51c0,3.87.8,6.82,2.4,8.84,1.6,2.03,4.08,3.04,7.46,3.04,1.75,0,3.45-.2,5.1-.61,1.64-.4,3.27-1.01,4.89-1.82v8.5c-1.71.77-3.48,1.32-5.3,1.65-1.82.34-3.75.51-5.77.51-4.5,0-8.17-.84-11-2.53s-4.92-4.05-6.24-7.09c-1.33-3.04-1.99-6.56-1.99-10.56s.75-7.47,2.26-10.53c1.51-3.06,3.75-5.46,6.72-7.19,2.97-1.73,6.62-2.6,10.93-2.6,2.12,0,4.17.23,6.18.67,2,.45,3.99,1.1,5.97,1.96l-3.11,7.9c-1.44-.67-2.89-1.23-4.35-1.65-1.46-.43-3-.64-4.62-.64Z"/>
      <path class="cls-4" d="M668.79,648.78v8.3h-10.06v31.12h-10.06v-31.12h-9.99v-8.3h30.11Z"/>
    </g>
    <g>
      <path class="cls-4" d="M157.64,48.2h-10.33V8.57h-13.03V0h36.38v8.57h-13.03v39.62Z"/>
      <path class="cls-4" d="M209.27,8.91v39.29h-9.72v-16.54h-14.51v16.54h-9.72V8.91h9.72v14.99h14.51v-14.99h9.72Z"/>
      <path class="cls-4" d="M218.79,8.91h23.69v7.56h-13.97v7.56h13.03v7.56h-13.03v8.98h13.97v7.63h-23.69V8.91Z"/>
    </g>
    <g id="Idea_management" data-name="Idea management">
      <g>
        <g>
          <path class="cls-3" d="M162.39,412.42l74.28-9.31,7.1,16.96-57.53,28.01s-28.49-19.63-23.85-35.66Z"/>
          <g>
            <g>
              <g>
                <path class="cls-5" d="M143.87,471.66s185.37-131.63,241.46-116.26c56.09,15.37,43.44,87.63,10.43,115.5-22.94,19.38-59.27,50.35-161.91,74.25-102.64,23.9-89.99-73.49-89.99-73.49Z"/>
                <path class="cls-1" d="M204.16,549.55c-17.34,0-31.23-4.66-41.5-13.95-24.51-22.18-19.44-63.59-19.39-64.01.02-.17.11-.32.25-.42.46-.33,46.98-33.28,99.74-63.92,31-18.01,58.07-31.71,80.45-40.72,28.07-11.31,48.86-15.25,61.78-11.71,25.6,7.01,34.57,24.79,37.58,38.46,2.86,12.99,1.58,28.21-3.6,42.85-5.06,14.31-13.34,26.82-23.32,35.25l-.32.27c-11.76,9.93-26.39,22.29-51.2,35.42-29.37,15.54-65.57,28.2-110.64,38.69-10.86,2.53-20.82,3.79-29.84,3.79ZM144.45,472c-.39,3.56-3.99,41.86,19.03,62.68,15.3,13.84,38.93,17.16,70.24,9.87,102.02-23.76,137.71-53.9,161.33-73.85l.32-.27c20.55-17.35,32.19-51.13,26.51-76.9-2.94-13.35-11.7-30.69-36.71-37.54-22.77-6.24-71.63,11.85-141.29,52.3-50.85,29.53-95.88,61.2-99.43,63.71Z"/>
              </g>
              <path class="cls-1" d="M304.88,522.23c-.24,0-.47-.15-.57-.39-9.39-23.46-52.14-69.1-52.57-69.56-.23-.25-.22-.64.03-.87.25-.23.64-.22.87.03.43.46,43.34,46.27,52.81,69.95.13.31-.03.67-.34.8-.07.03-.15.04-.23.04Z"/>
            </g>
            <path class="cls-1" d="M184.21,489.68c-.18,0-.35-.07-.47-.22-.22-.26-.18-.65.08-.86,28.38-23.8,156.76-92.87,158.06-93.57.3-.16.67-.05.83.25.16.3.05.67-.25.83-1.29.69-129.56,69.7-157.85,93.43-.12.1-.25.14-.39.14Z"/>
          </g>
          <g>
            <path class="cls-5" d="M301.18,539.37c1.43,1.75,1.73,4.17.76,6.21s-3.03,3.35-5.29,3.35h-160.18c-16.59,0-32.56-6.28-44.71-17.58-17.24-16.04-43.24-40.49-65.16-62.16-24.85-24.57-32.69-61.54-19.97-94.09.19-.48.38-.97.57-1.45,10.76-27.34,44.29-37.38,68.24-20.35,48.27,34.32,124.69,90.73,154.99,124.42,0,0,51.75,38.4,70.76,61.64Z"/>
            <path class="cls-1" d="M296.66,549.55h-160.18c-16.8,0-32.83-6.3-45.13-17.74-17.73-16.5-43.43-40.68-65.18-62.17-25.04-24.75-32.93-61.94-20.11-94.75l.57-1.45c5.21-13.24,16.01-23.15,29.63-27.2,13.58-4.04,27.99-1.64,39.54,6.57,44.65,31.75,124.16,90.14,155.05,124.47,1.87,1.39,52.24,38.99,70.82,61.71,1.57,1.92,1.9,4.62.84,6.86-1.06,2.25-3.36,3.7-5.84,3.7ZM49.37,345.55c-4.26,0-8.55.62-12.76,1.87-13.26,3.94-23.77,13.59-28.84,26.47l-.57,1.45c-12.64,32.36-4.85,69.03,19.83,93.43,21.73,21.48,47.42,45.65,65.15,62.14,12.07,11.23,27.8,17.41,44.29,17.41h160.18c2.01,0,3.87-1.18,4.73-3,.86-1.82.59-4-.68-5.56-18.74-22.91-70.13-61.15-70.65-61.53-.03-.02-.06-.05-.09-.08-30.78-34.24-110.25-92.59-154.88-124.33-7.66-5.44-16.61-8.26-25.71-8.26Z"/>
          </g>
          <path class="cls-1" d="M167.46,549.55c-.11,0-.21-.03-.31-.08-38.81-22.83-83.22-62.34-113.14-100.66-4.01-5.14-8.13-10.68-10.57-16.95-.12-.32.03-.67.35-.79.32-.12.67.03.79.35,2.37,6.12,6.43,11.57,10.39,16.64,29.83,38.21,74.11,77.61,112.8,100.36.29.17.39.55.22.84-.11.19-.32.3-.53.3Z"/>
          <path class="cls-1" d="M159.35,536.74c-.14,0-.29-.05-.4-.15-.26-.22-.28-.61-.06-.87,20.03-22.97,43.21-42.92,68.91-59.29.28-.18.66-.1.85.19.18.29.1.67-.19.85-25.6,16.31-48.69,36.18-68.64,59.06-.12.14-.29.21-.46.21Z"/>
          <path class="cls-1" d="M139.4,519.22c-.15,0-.31-.06-.43-.17-.24-.24-.25-.62-.01-.87,20.84-21.44,43.76-41.09,68.14-58.4.28-.2.66-.13.86.14.2.28.13.66-.15.86-24.32,17.27-47.19,36.87-67.97,58.26-.12.12-.28.19-.44.19Z"/>
        </g>
        <g>
          <path class="cls-1" d="M243.07,202.02c.03-1.68-.28-3.36-.99-4.89-.77-1.66-2.01-2.79-3.45-3.88-.76-.57-1.44-1.17-1.89-2.03-.47-.9-.67-1.92-.84-2.91-.33-1.89-.6-3.75-1.63-5.41-1.96-3.17-5.49-4.94-8.78-6.43-4.45-2.02-16.8-8.34-27.09-7.98-4.34.15-9.69,2.16-12.89,5.07-5.64,5.12-5.91,12.07-6.89,12.54-2.37,1.15-3.92,2.38-4.62,3.08-2.76,2.77-4.57,6.52-5.87,10.16-1.31,3.68-2.03,7.57-2.18,11.47-.14,3.64.22,7.32,1.08,10.87-11.92.68-21.37,10.56-21.37,22.65s10.16,22.69,22.69,22.69,22.69-10.16,22.69-22.69c0-.77-.04-1.53-.11-2.29,1.05.01,2.1,0,3.14-.03,8.45-.29,17.14-2.28,24.18-7.15,6-4.15,10.81-10.38,12.54-17.54,6.08-3.22,12.16-7.86,12.3-15.32Z"/>
          <path class="cls-3" d="M180.99,230.7s-.05,0-.08,0c-2.66-.35-5.37-1.45-8.05-3.27-2.41-1.63-4.54-3.67-6.49-5.62-.24-.24-.24-.63,0-.87.24-.24.63-.24.87,0,1.9,1.91,3.99,3.9,6.31,5.47,2.52,1.71,5.05,2.74,7.52,3.06.34.04.57.35.53.69-.04.31-.3.53-.61.53Z"/>
          <path class="cls-3" d="M162.84,222.27c-2.07,0-4.76-.15-7.63-.72-4.54-.89-5.96-3.14-6.29-3.81-.35-.71-.39-1.39-.13-1.91.48-.96,2.15-2.33,5.41-1.37,1.5.44,3.67,1.18,6.02,2.26-2.24-2.28-4.21-4.82-4.39-6.74-.08-.87.2-1.62.82-2.14.61-.53,1.35-.72,2.14-.56,2.32.46,4.56,3.81,5.42,5.51.59,1.18,1.12,2.47,1.6,3.94.21.63.4,1.28.6,2,.12.45.67,1.78.92,2.37,0,0,0,0,0,0,.25.2.29.56.11.82-.18.26-.54.34-.81.18-.01,0-.02-.01-.04-.02-.57.06-1.92.18-3.75.18ZM152.12,215.36c-1.33,0-2.03.59-2.24,1.02,0,0,0,0,0,0-.07.13-.06.42.13.82.55,1.11,2.26,2.52,5.43,3.14,3.92.77,7.54.74,9.57.63-.29-.22-.59-.46-.91-.72-3.76-2.46-7.88-3.91-10.26-4.61-.66-.2-1.23-.28-1.72-.28ZM164.77,219.22c.22.14.43.29.65.44-.09-.24-.16-.45-.2-.6-.19-.7-.38-1.34-.58-1.95-.46-1.41-.96-2.65-1.53-3.77-1.07-2.13-3.04-4.55-4.56-4.86-.42-.08-.78,0-1.1.29-.31.27-.44.62-.39,1.1.23,2.55,4.65,6.83,7.73,9.35ZM149.34,216.11h0,0Z"/>
          <path class="cls-3" d="M156.82,228.15c-.66,0-1.31-.09-1.91-.3-1.08-.38-1.89-1.13-2.33-2.16-.13-.31,0-.67.32-.81.31-.14.67,0,.81.32.32.73.85,1.22,1.62,1.49,1.65.58,4.02-.02,5.63-.87,1.91-1.01,3.56-2.52,5.15-3.98.25-.23.64-.21.87.04.23.25.21.64-.04.87-1.65,1.51-3.36,3.08-5.41,4.16-1.23.65-3,1.24-4.7,1.24Z"/>
          <path class="cls-3" d="M158.47,235.45c-.24,0-.46-.14-.56-.37-.13-.31,0-.67.32-.81,2.16-.94,4.12-2.76,5.51-5.13,1.16-1.97,1.99-4.37,2.56-7.36.06-.33.38-.55.72-.49.33.06.55.38.49.72-.6,3.13-1.48,5.66-2.71,7.75-1.52,2.59-3.68,4.59-6.08,5.63-.08.03-.16.05-.24.05Z"/>
        </g>
        <g>
          <g>
            <path class="cls-5" d="M307.67,361.43s-5.36-22.24-14.56-41.29l-39.57,2.86s11.97,51.88,12.95,52.67c.98.79,41.18-14.24,41.18-14.24Z"/>
            <path class="cls-1" d="M266.58,376.3c-.29,0-.38-.08-.47-.15-.94-.76-7.68-29.25-13.16-53.01-.04-.17,0-.36.1-.5.11-.14.27-.23.45-.25l39.57-2.86c.27-.02.49.12.6.35,9.12,18.89,14.55,41.19,14.6,41.41.07.3-.09.61-.38.72-.1.04-10.17,3.8-20.23,7.42-16.26,5.85-20.01,6.87-21.07,6.87ZM254.3,323.56c4.53,19.6,11.34,48.33,12.57,51.51,3.01-.43,25.13-8.44,40.07-14.02-.87-3.45-6.02-23.19-14.2-40.26l-38.44,2.78Z"/>
          </g>
          <path class="cls-3" d="M259.62,335.74l33.49-15.6s-15-43.09-37.79-54.52c-.31-.16-.63-.3-.95-.43-6.59-2.72-75.05-29.61-127.09,1.96,0,0-21.49,13.43-33.32,44.71l39.63,23.49-9.49,45.3-5.85,30.77,160.94,5.77-19.58-81.45Z"/>
          <path class="cls-1" d="M259.5,332.94c-.28,0-.53-.19-.6-.47-2.3-9.65-5.37-19.2-9.13-28.39-.13-.31.02-.67.34-.8.31-.13.67.02.8.34,3.78,9.24,6.87,18.86,9.19,28.57.08.33-.13.66-.45.74-.05.01-.1.02-.14.02Z"/>
          <g>
            <path class="cls-5" d="M170.64,368.29s-19.41,22.35-8.05,49.69l26.64-4.14,41.58.71s-1.2-24.28-14.69-35.89c-16.1-13.86-45.48-10.37-45.48-10.37Z"/>
            <g>
              <path class="cls-1" d="M199.9,415.16s-.06,0-.09,0c-.34-.05-.57-.36-.52-.7.4-2.71-.24-5.73-1.8-8.5-1.31-2.33-3.25-4.53-5.93-6.73-.5-.41-1.04-.84-1.64-1.1-.31-.14-.45-.5-.32-.81.14-.31.5-.45.81-.32.74.32,1.36.81,1.93,1.27,2.8,2.29,4.83,4.61,6.22,7.07,1.69,3,2.38,6.3,1.94,9.27-.04.31-.31.53-.61.53Z"/>
              <path class="cls-1" d="M212.29,414.45c-.3,0-.56-.22-.61-.53-.46-3.27-1.13-7.09-2.55-10.66-1.47-3.68-3.62-6.68-6.22-8.67-.27-.21-.32-.59-.11-.86.21-.27.59-.32.86-.11,2.78,2.13,5.06,5.31,6.61,9.19,1.47,3.69,2.15,7.6,2.63,10.94.05.34-.19.65-.52.69-.03,0-.06,0-.09,0Z"/>
              <path class="cls-1" d="M222.23,414.45s-.05,0-.07,0c-.34-.04-.58-.35-.54-.68,1.66-13.88-7.44-22.55-7.53-22.64-.25-.23-.26-.62-.03-.87.23-.25.62-.26.87-.03.1.09,9.64,9.16,7.91,23.68-.04.31-.3.54-.61.54Z"/>
            </g>
          </g>
          <path class="cls-1" d="M138.89,336.73c-.06,0-.11,0-.17-.02-.33-.09-.51-.43-.42-.76l6.07-21.08c.09-.33.43-.51.76-.42.33.09.51.43.42.76l-6.07,21.08c-.08.27-.32.44-.59.44Z"/>
          <g>
            <path class="cls-5" d="M174.28,367.56s-14.51,14.54-11.69,50.42l-6.79,2.58s-17.82,28.54-53.27,17.33c-35.45-11.21-47.51-48.19-8.55-126.01l43.51,26.15-6.35,27.37,43.14,2.17Z"/>
            <path class="cls-1" d="M118.48,441.08c-4.88,0-10.27-.76-16.14-2.62-14.19-4.49-23.95-12.84-29.03-24.84-9.41-22.24-2.64-56.57,20.12-102.04.15-.3.52-.43.82-.27.3.15.43.52.27.82-22.59,45.12-29.35,79.11-20.08,101.01,4.93,11.65,14.44,19.77,28.27,24.15,18.09,5.72,31.42.77,39.41-4.39,8.67-5.59,13.11-12.61,13.15-12.68.07-.11.18-.2.3-.25l6.36-2.41c-2.65-35.42,11.31-49.84,11.9-50.44.24-.24.63-.24.87,0,.24.24.24.63,0,.87-.14.14-14.27,14.8-11.51,49.93.02.27-.14.53-.39.62l-6.6,2.5c-.76,1.17-5.18,7.57-13.41,12.88-5.61,3.62-13.78,7.14-24.31,7.15Z"/>
            <path class="cls-1" d="M154.41,419.43c-.28,0-.53-.19-.6-.47-4.25-17.1-1.39-35.52,7.87-50.52.18-.29.55-.38.84-.2.29.18.38.56.2.84-9.08,14.72-11.9,32.79-7.72,49.58.08.33-.12.66-.45.74-.05.01-.1.02-.15.02Z"/>
            <path class="cls-1" d="M128.91,366s-.03,0-.04,0l-10.57-.77c-.34-.02-.59-.32-.57-.66.02-.34.32-.59.66-.57l10.57.77c.34.02.59.32.57.66-.02.32-.29.57-.61.57Z"/>
          </g>
        </g>
        <g>
          <path class="cls-5" d="M160.69,254.39l46.8,49.46,20.13-46.42-4.34-2.69c-2.28-1.41-3.88-3.75-4.24-6.41-.49-3.58-2.28-8.38-8.28-8.47-9.61-.14-30.44-.32-30.44-.32,0,0-11.54-5.82-13.64,5.59-.43,2.32-1.46,4.49-3.09,6.2l-2.9,3.06Z"/>
          <path class="cls-1" d="M227.63,258.04c-.11,0-.22-.03-.32-.09l-4.34-2.69c-2.49-1.54-4.14-4.04-4.53-6.85-.49-3.58-2.22-7.86-7.68-7.94-2.35-.03-5.37-.07-8.59-.11-.34,0-.61-.28-.61-.62,0-.34.28-.61.61-.61h0c3.22.04,6.24.07,8.59.11,4.94.07,8.09,3.27,8.88,9,.34,2.45,1.78,4.63,3.96,5.98l4.34,2.69c.29.18.38.56.2.84-.12.19-.32.29-.52.29Z"/>
        </g>
        <g>
          <g>
            <path class="cls-5" d="M187.48,212.42l-7.15,27.12s13.9,8.66,30.8,8.72c0,0,.46-15.33,3.1-23.94l-26.74-11.91Z"/>
            <path class="cls-1" d="M211.13,248.87h0c-16.88-.06-30.98-8.73-31.12-8.82-.23-.14-.34-.42-.27-.68l7.15-27.12c.05-.17.17-.32.33-.4.16-.08.35-.08.52,0l26.74,11.91c.28.13.43.44.34.74-2.58,8.43-3.06,23.62-3.07,23.78-.01.33-.28.6-.61.6ZM181.04,239.25c2.32,1.35,14.77,8.16,29.5,8.39.11-2.89.71-15.21,2.95-22.98l-25.59-11.4-6.85,25.98Z"/>
          </g>
          <path class="cls-1" d="M216.12,248.87h-4.99c-.34,0-.61-.27-.61-.61s.27-.61.61-.61h4.99c.34,0,.61.27.61.61s-.27.61-.61.61Z"/>
          <g>
            <path class="cls-5" d="M190.51,221.01s4.4,19.4,19.51,20.97c15.11,1.57,22.37-28.39,24.76-40.86,0,0-5.26,4.24-13.97-3.08-7.93-6.66-14.34,2.36-19.98,5.64-5.64,3.27-7.79,2.31-7.79,2.31,0,0-2.45-6.83-7.51-4.76-4.36,1.79-9,13.04,4.99,19.77Z"/>
            <path class="cls-1" d="M211.15,242.66c-.39,0-.79-.02-1.19-.06-14.34-1.49-19.33-18.7-19.97-21.16-8.43-4.16-9.55-9.66-9.46-12.6.12-4.09,2.55-7.26,4.77-8.17,1.41-.58,2.78-.58,4.05-.02,2.41,1.07,3.75,3.88,4.15,4.82.63.1,2.78.14,7.03-2.33,1.28-.74,2.6-1.79,4.01-2.91,4.55-3.61,10.22-8.1,16.68-2.67,8.18,6.87,13,3.22,13.2,3.07.2-.16.48-.18.7-.04.22.13.33.39.29.64-2.42,12.63-9.55,41.42-24.23,41.42ZM187.38,201.46c-.52,0-1.06.12-1.63.35-1.89.77-3.9,3.63-4,7.07-.08,2.66.99,7.71,9.03,11.58.17.08.29.23.33.42.04.19,4.48,18.99,18.97,20.5.36.04.72.06,1.07.06,13.3,0,20.19-26.24,22.77-39.13-2.13.91-6.88,1.78-13.51-3.79-5.7-4.78-10.49-.98-15.13,2.69-1.44,1.14-2.8,2.22-4.15,3-5.74,3.34-8.1,2.45-8.35,2.34-.15-.07-.27-.2-.33-.35-.01-.03-1.24-3.37-3.62-4.43-.47-.21-.96-.32-1.45-.32Z"/>
          </g>
          <path class="cls-1" d="M191.32,216.94c-.3,0-.56-.22-.61-.53-.28-1.99-1.57-3.79-3.37-4.69-.3-.15-.42-.52-.27-.82.15-.3.52-.42.82-.27,2.15,1.08,3.69,3.24,4.03,5.62.05.34-.19.65-.52.69-.03,0-.06,0-.09,0Z"/>
        </g>
        <g>
          <path class="cls-1" d="M342.24,422.11h-157.18c-.93,0-1.86-.24-2.63-.77-1.8-1.24-2.42-3.45-1.71-5.35,1.85-3.89,5.68-5.26,11.35-5.26h160.49l-2.08,5.66c-1.28,3.43-4.57,5.71-8.23,5.71Z"/>
          <path class="cls-1" d="M343.13,422.11c3.14,0,5.97-1.92,7.13-4.84l27.83-69.83c.74-1.85.51-3.95-.61-5.6-1.12-1.65-2.98-2.64-4.98-2.64h-96.6c-5.82,0-11.01,3.67-12.95,9.15l-26.12,73.76h106.31Z"/>
          <path class="cls-5" d="M345.39,412.03h-95.78c-.34,0-.61-.27-.61-.61s.27-.61.61-.61h95.78c.34,0,.61.27.61.61s-.27.61-.61.61Z"/>
          <polygon class="cls-5" points="319.14 374.12 311.68 374.12 314.58 366.67 322.03 366.67 319.14 374.12"/>
        </g>
      </g>
      <path class="cls-1" d="M416.98,422.21h-73.85c-.34,0-.61-.27-.61-.61s.27-.61.61-.61h73.85c.34,0,.61.27.61.61s-.27.61-.61.61Z"/>
      <g>
        <path class="cls-1" d="M606.25,549.93h-147.6c-.34,0-.61-.27-.61-.61v-127.11h-30.1c-.34,0-.61-.27-.61-.61s.27-.61.61-.61h30.71c.34,0,.61.27.61.61v127.11h146.37v-53.94c0-.34.27-.61.61-.61s.61.27.61.61v54.55c0,.34-.27.61-.61.61Z"/>
        <circle class="cls-1" cx="606.37" cy="494.67" r="3.97"/>
      </g>
      <g>
        <path class="cls-3" d="M537.92,361.68c0,8.7,7.05,15.75,15.75,15.75h100.44c8.7,0,15.75-7.05,15.75-15.75h0c0-24.31,9.17-47.78,25.89-65.42,21.5-22.68,34.69-53.32,34.69-87.04,0-70-56.84-126.73-126.88-126.56-67.7.17-124.02,54.78-126.17,122.44-1.11,34.99,11.98,66.91,33.95,90.45,16.82,18.02,26.57,41.49,26.57,66.14Z"/>
        <g>
          <path class="cls-5" d="M547.2,377.55v50.4c0,31.31,25.39,56.7,56.7,56.7s56.7-25.39,56.7-56.7v-50.4h-113.4Z"/>
          <path class="cls-1" d="M603.9,485.26c-31.6,0-57.31-25.71-57.31-57.31v-50.4c0-.34.27-.61.61-.61h113.4c.34,0,.61.27.61.61v50.4c0,31.6-25.71,57.31-57.31,57.31ZM547.81,378.16v49.79c0,30.93,25.16,56.09,56.09,56.09s56.09-25.16,56.09-56.09v-49.79h-112.17Z"/>
        </g>
        <path class="cls-1" d="M538.45,413c-.29,0-.54-.2-.6-.49-.07-.33.15-.66.48-.72l130.7-26.47c.33-.07.66.15.72.48.07.33-.15.66-.48.72l-130.7,26.47s-.08.01-.12.01Z"/>
        <path class="cls-1" d="M538.45,438.39c-.29,0-.54-.2-.6-.49-.07-.33.15-.66.48-.72l130.7-26.47c.33-.07.66.15.72.48.07.33-.15.66-.48.72l-130.7,26.47s-.08.01-.12.01Z"/>
        <path class="cls-1" d="M547.18,462.01c-.29,0-.54-.2-.6-.49-.07-.33.15-.66.48-.72l119.96-24.3c.33-.07.66.15.72.48.07.33-.15.66-.48.72l-119.96,24.3s-.08.01-.12.01Z"/>
        <path class="cls-5" d="M573.85,345.23c-.29,0-.55-.21-.6-.51l-23.82-141.51c-.04-.22.05-.45.23-.59.18-.14.42-.16.63-.07l33.53,15.54,19.55-18.74c.22-.21.56-.23.8-.05l23.71,17.99,31.94-13.1c.21-.09.45-.05.63.1.17.15.26.37.21.6l-28.95,139.8c-.07.33-.4.55-.73.48-.33-.07-.54-.39-.48-.73l28.72-138.66-31.19,12.8c-.2.08-.43.05-.6-.08l-23.57-17.88-19.47,18.66c-.18.18-.45.22-.68.11l-32.86-15.23,23.62,140.36c.06.33-.17.65-.5.71-.03,0-.07,0-.1,0Z"/>
      </g>
      <g>
        <path class="cls-1" d="M490.32,329.96c-.14,0-.28-.05-.4-.15-.26-.22-.29-.61-.07-.87l17.2-20.08c.22-.26.61-.29.87-.07.26.22.29.61.07.87l-17.2,20.08c-.12.14-.29.21-.47.21Z"/>
        <path class="cls-1" d="M466.66,190.67s-.03,0-.04,0l-20.21-1.42c-.34-.02-.59-.32-.57-.66.02-.34.3-.59.66-.57l20.21,1.42c.34.02.59.32.57.66-.02.32-.29.57-.61.57Z"/>
        <path class="cls-1" d="M538.06,86.84c-.2,0-.4-.1-.52-.28l-21.03-32.96c-.18-.29-.1-.67.19-.85.29-.18.67-.1.85.19l21.03,32.96c.18.29.1.67-.19.85-.1.07-.22.1-.33.1Z"/>
        <path class="cls-1" d="M663.99,82.34c-.07,0-.15-.01-.22-.04-.32-.12-.48-.48-.35-.79l9.44-24.73c.12-.32.48-.47.79-.35.32.12.48.48.35.79l-9.44,24.73c-.09.24-.33.39-.57.39Z"/>
        <path class="cls-1" d="M742.63,180.81c-.27,0-.51-.18-.59-.45-.09-.33.1-.67.42-.76l21.03-5.9c.33-.09.67.1.76.43.09.33-.1.67-.42.76l-21.03,5.9c-.06.02-.11.02-.17.02Z"/>
        <path class="cls-1" d="M733.59,320.6c-.13,0-.26-.04-.38-.13l-23.2-17.98c-.27-.21-.32-.59-.11-.86.21-.27.59-.32.86-.11l23.2,17.98c.27.21.32.59.11.86-.12.16-.3.24-.49.24Z"/>
        <path class="cls-1" d="M493.57,315.93c-.16,0-.32-.06-.44-.19-.23-.25-.22-.63.02-.87l10.11-9.61c.25-.23.63-.22.87.02.23.25.22.63-.02.87l-10.11,9.61c-.12.11-.27.17-.42.17Z"/>
        <path class="cls-1" d="M466.78,196.37h-34.63c-.34,0-.61-.27-.61-.61s.27-.61.61-.61h34.63c.34,0,.61.27.61.61s-.27.61-.61.61Z"/>
        <path class="cls-1" d="M543.35,83.7c-.22,0-.43-.12-.54-.33l-11.8-22.45c-.16-.3-.04-.67.26-.83.3-.16.67-.04.83.26l11.8,22.45c.16.3.04.67-.26.83-.09.05-.19.07-.28.07Z"/>
        <path class="cls-1" d="M532.63,89.92c-.19,0-.38-.09-.5-.26l-8.75-12.18c-.2-.28-.14-.66.14-.86.28-.2.66-.13.86.14l8.75,12.18c.2.28.14.66-.14.86-.11.08-.23.12-.36.12Z"/>
        <path class="cls-1" d="M667.99,83.93c-.08,0-.16-.02-.24-.05-.31-.13-.46-.49-.33-.8l7.83-18.49c.13-.31.49-.46.8-.33.31.13.46.49.33.8l-7.83,18.49c-.1.23-.33.37-.57.37Z"/>
        <path class="cls-1" d="M741.37,175.02c-.26,0-.5-.16-.58-.42-.11-.32.07-.67.39-.77l9.36-3.07c.32-.11.67.07.77.39.11.32-.07.67-.39.77l-9.36,3.07c-.06.02-.13.03-.19.03Z"/>
        <path class="cls-1" d="M748.61,323.45c-.12,0-.24-.04-.35-.11l-35.81-25.03c-.28-.19-.35-.58-.15-.85.19-.28.58-.35.85-.15l35.81,25.03c.28.19.35.58.15.85-.12.17-.31.26-.5.26Z"/>
      </g>
      <g>
        <g>
          <g>
            <g>
              <path class="cls-2" d="M340.04,118.52c-9.79,4.46-21.14,5.74-31.83,3.62-.93-.18-1.27-1.3-.59-1.91l2.13-1.92c-11.79.02-23.61-1.42-35.08-4.27-1.94-.48-4.11-1.18-4.59-3.3-.15-.66-.09-1.35.12-1.98.55-1.66,1.89-2.82,3.22-3.9,8.76-7.14,18.62-12.92,28.43-18.67l-5.76-.59c-.75-.08-1.03-1.01-.43-1.44,7.61-5.51,18.6-9.71,27.84-12.03l16.52,46.4Z"/>
              <path class="cls-5" d="M307.79,90.4c-.24,0-.47-.15-.57-.39-.12-.31.03-.67.34-.8l11.23-4.46c.31-.13.67.03.8.34.13.31-.03.67-.34.8l-11.23,4.46c-.07.03-.15.04-.23.04Z"/>
              <path class="cls-5" d="M284.54,109.49c-.23,0-.45-.13-.55-.35-.15-.31-.01-.67.29-.82,11.65-5.52,23.74-10.44,35.93-14.63.32-.11.67.06.78.38.11.32-.06.67-.38.78-12.15,4.17-24.19,9.08-35.81,14.58-.08.04-.17.06-.26.06Z"/>
              <path class="cls-5" d="M315.03,107.92c-.26,0-.5-.16-.58-.42-.11-.32.07-.67.39-.77l9.63-3.17c.32-.11.67.07.77.39.11.32-.07.67-.39.77l-9.63,3.17c-.06.02-.13.03-.19.03Z"/>
            </g>
            <g>
              <g>
                <g>
                  <path class="cls-5" d="M340.9,114.49l-1.63,19.04c-.13,1.48,1.36,2.55,2.71,1.96,9.26-4.04,37.05-17.75,40.15-37.98l-41.24,16.97Z"/>
                  <path class="cls-1" d="M341.21,136.27c-.52,0-1.04-.16-1.48-.48-.74-.53-1.14-1.4-1.06-2.31l1.63-19.04c.02-.23.17-.43.38-.52l41.24-16.97c.2-.08.44-.05.61.08.17.14.26.36.23.58-3.17,20.65-31.81,34.65-40.51,38.45-.33.14-.68.22-1.03.22ZM341.48,114.92l-1.6,18.67c-.04.48.17.93.55,1.21.38.27.87.33,1.3.14,8.4-3.67,35.7-16.98,39.6-36.42l-39.86,16.41Z"/>
                </g>
                <g>
                  <path class="cls-5" d="M326.05,74.57l-13.65-13.27c-1.06-1.03-.64-2.82.76-3.27,9.61-3.1,39.49-11.19,55.02,1.99l-42.14,14.55Z"/>
                  <path class="cls-1" d="M326.05,75.19c-.16,0-.31-.06-.43-.17l-13.65-13.27c-.65-.64-.92-1.55-.71-2.43.21-.89.85-1.59,1.71-1.86,9.03-2.91,39.75-11.36,55.61,2.1.17.14.25.36.21.58-.04.22-.19.39-.4.47l-42.14,14.55c-.07.02-.13.03-.2.03ZM343.78,53.36c-12.62,0-25.2,3.57-30.43,5.25-.45.15-.79.51-.9.98-.11.47.03.94.37,1.28l13.38,13,40.73-14.07c-6.26-4.84-14.72-6.44-23.16-6.44Z"/>
                </g>
              </g>
              <g>
                <path class="cls-5" d="M462.25,45.85v-.02c-29.92-16.18-116.19,15.77-136.69,23.77-2.76,1.08-4.6,3.74-4.63,6.71-.16,15.37,4.84,28.8,14.98,40.27,1.96,2.22,5.08,3,7.87,1.99,20.66-7.57,106.49-40.69,118.47-72.71Z"/>
                <path class="cls-1" d="M341.28,119.63c-2.19,0-4.31-.92-5.83-2.64-10.2-11.54-15.3-25.23-15.14-40.69.03-3.24,2.01-6.1,5.02-7.28,10.21-3.98,36.98-14,64.88-20.97,35.14-8.78,59.46-9.71,72.31-2.76.13.07.23.19.28.33.05.14.06.31,0,.45-5.14,13.75-24.07,29.17-56.27,45.85-25.57,13.25-52.27,23.45-62.56,27.22-.89.33-1.81.48-2.71.48ZM439.05,41.96c-38.57,0-99.14,22.7-113.26,28.21-2.55.99-4.21,3.41-4.24,6.15-.15,15.14,4.84,28.56,14.83,39.86,1.81,2.04,4.63,2.75,7.2,1.82,17.53-6.42,105.21-39.94,117.91-71.86-5.72-2.94-13.49-4.16-22.44-4.16Z"/>
              </g>
              <g>
                <g>
                  <path class="cls-5" d="M351.85,102.69c-7.92,2.99-16.73-1.03-19.69-8.98-2.96-7.95,1.06-16.83,8.98-19.82s16.73,1.03,19.69,8.98c2.96,7.95-1.06,16.83-8.98,19.82Z"/>
                  <path class="cls-1" d="M346.45,104.3c-2.23,0-4.45-.48-6.54-1.43-3.88-1.76-6.83-4.94-8.33-8.95-3.07-8.25,1.12-17.5,9.34-20.61,3.98-1.5,8.29-1.36,12.16.39,3.88,1.76,6.83,4.94,8.33,8.95,3.07,8.25-1.12,17.5-9.34,20.61-1.83.69-3.72,1.03-5.62,1.03ZM346.54,73.51c-1.75,0-3.5.32-5.18.95-7.59,2.87-11.46,11.41-8.62,19.03,1.38,3.7,4.1,6.63,7.68,8.26,3.57,1.62,7.55,1.75,11.22.36,7.59-2.87,11.46-11.41,8.62-19.03-1.38-3.7-4.1-6.63-7.68-8.26-1.93-.88-3.98-1.32-6.03-1.32Z"/>
                </g>
                <path class="cls-2" d="M350.2,98.24c-5.47,2.07-11.56-.71-13.61-6.2-2.04-5.5.73-11.63,6.2-13.7,5.47-2.07,11.56.71,13.61,6.2,2.04,5.5-.73,11.63-6.2,13.7Z"/>
              </g>
              <path class="cls-1" d="M435.11,71.79c-.17,0-.35-.07-.47-.21-6.53-7.64-10.32-17.82-10.39-27.9,0-.34.27-.62.61-.62.33,0,.62.27.62.61.07,9.8,3.75,19.69,10.1,27.12.22.26.19.65-.07.87-.12.1-.26.15-.4.15Z"/>
            </g>
          </g>
          <path class="cls-2" d="M207.94,148.77c-.73,0-1.47-.04-2.19-.11-.34-.03-.58-.34-.55-.67.03-.34.33-.58.67-.55.68.07,1.38.11,2.07.11h0c1.29,0,2.59-.12,3.86-.37.33-.07.65.15.72.49.06.33-.15.65-.49.72-1.34.26-2.72.39-4.09.39h0ZM172.99,148.1s0,0-.01,0c-2.1-.04-4.18-.15-6.17-.34-.34-.03-.59-.33-.55-.67.03-.34.33-.59.67-.55,1.96.18,4.01.29,6.08.33.34,0,.61.29.6.63,0,.33-.28.6-.61.6ZM179.12,148.02c-.33,0-.6-.26-.61-.59-.01-.34.25-.63.59-.64.71-.03,1.43-.07,2.16-.12,1.35-.09,2.66-.23,3.89-.41.33-.05.65.18.7.52.05.34-.18.65-.52.7-1.26.19-2.6.33-3.99.42-.74.05-1.47.09-2.19.12,0,0-.02,0-.03,0ZM199.87,147.2c-.08,0-.15-.01-.23-.04-1.63-.65-3.21-1.51-4.69-2.55-1.11.56-2.3,1.05-3.55,1.46-.32.11-.67-.07-.78-.39-.11-.32.07-.67.39-.78,1.03-.34,2.02-.74,2.95-1.18-.05-.18-.02-.38.1-.54.2-.27.59-.32.86-.12.04.03.09.07.13.1.47-.25.92-.52,1.36-.8.28-.18.66-.1.85.18.18.29.1.66-.19.85-.29.19-.6.37-.9.55,1.25.83,2.57,1.52,3.93,2.06.31.13.47.48.34.8-.1.24-.33.39-.57.39ZM160.79,146.94s-.07,0-.11,0c-2.07-.37-4.1-.84-6.04-1.39-.33-.09-.52-.43-.42-.76.09-.33.43-.52.76-.42,1.89.54,3.88.99,5.92,1.36.33.06.56.38.5.71-.05.3-.31.51-.6.51ZM217.69,146.38c-.22,0-.43-.12-.54-.33-.16-.3-.04-.67.26-.83.84-.44,1.66-.95,2.43-1.51.83-.61,1.64-1.27,2.42-1.97.25-.23.64-.21.87.04.23.25.21.64-.04.87-.8.73-1.65,1.42-2.52,2.05-.82.59-1.68,1.13-2.58,1.6-.09.05-.19.07-.28.07ZM149.02,143.57c-.08,0-.16-.01-.23-.05-1.96-.81-3.83-1.73-5.58-2.73-.29-.17-.39-.54-.22-.84.17-.29.54-.39.84-.22,1.7.98,3.53,1.88,5.43,2.66.31.13.46.49.33.8-.1.24-.33.38-.57.38ZM190.11,139.95c-.17,0-.34-.07-.46-.21-1.53-1.75-2.68-3.45-3.52-5.2-.15-.31-.02-.67.29-.82.31-.15.67-.02.82.29.8,1.65,1.89,3.26,3.34,4.93.22.26.2.64-.06.87-.12.1-.26.15-.4.15ZM201.29,139.41c-.13,0-.27-.04-.38-.13-.27-.21-.31-.6-.1-.86,1.23-1.57,2.19-3.37,2.76-5.19.1-.32.44-.5.77-.4.32.1.5.45.4.77-.62,1.97-1.65,3.9-2.97,5.58-.12.15-.3.23-.48.23ZM226.75,138.25c-.13,0-.25-.04-.36-.12-.27-.2-.33-.58-.13-.86,1.18-1.62,2.2-3.36,3.05-5.18.14-.31.51-.44.82-.3.31.14.44.51.3.82-.88,1.89-1.95,3.7-3.17,5.38-.12.16-.31.25-.5.25ZM138.45,137.42c-.13,0-.27-.04-.38-.14-2.2-1.77-3.62-3.32-4.5-4.32-.22-.26-.2-.64.06-.87.26-.22.64-.2.87.06.84.97,2.22,2.46,4.34,4.17.26.21.31.6.09.86-.12.15-.3.23-.48.23ZM236.96,133.64c-1.08,0-2.17-.07-3.26-.21-.34-.04-.57-.35-.53-.69.04-.34.35-.57.69-.53,1.03.13,2.08.2,3.1.2h.34c.88-.01,1.74-.05,2.57-.1.31-.02.63.24.65.57.02.34-.24.63-.57.65-.85.05-1.73.09-2.63.1h-.36ZM245.97,132.72c-.28,0-.54-.2-.6-.48-.07-.33.14-.66.47-.73,2.05-.45,3.91-1.05,5.71-1.84.31-.14.67,0,.81.31.14.31,0,.67-.31.81-1.87.83-3.81,1.46-5.94,1.92-.04,0-.09.01-.13.01ZM227.84,131.93c-.07,0-.15-.01-.22-.04-1.97-.75-3.84-1.73-5.55-2.91-.28-.19-.35-.57-.16-.85.19-.28.57-.35.85-.16,1.63,1.12,3.41,2.06,5.29,2.78.32.12.47.48.35.79-.09.24-.33.39-.57.39ZM185.17,128.99c-.33,0-.61-.27-.61-.6v-.28c0-2.15.5-4.2,1.46-5.94.16-.3.54-.4.83-.24.3.16.4.54.24.83-.86,1.55-1.31,3.4-1.31,5.34v.25c0,.34-.26.62-.6.63,0,0,0,0-.01,0ZM204.7,127.96c-.3,0-.56-.22-.61-.52-.11-.72-.28-1.43-.52-2.11-.39-1.1-1.01-2.14-1.85-3.07-.23-.25-.2-.64.05-.87.25-.22.64-.2.87.05.94,1.05,1.64,2.22,2.08,3.48.27.75.46,1.54.58,2.34.05.34-.18.65-.52.7-.03,0-.06,0-.09,0ZM257.09,127.77c-.19,0-.38-.09-.5-.25-.2-.27-.14-.66.13-.86,1.53-1.11,3.02-2.41,4.55-3.96.24-.24.63-.24.87,0,.24.24.24.63,0,.87-1.57,1.6-3.11,2.93-4.7,4.09-.11.08-.24.12-.36.12ZM231.89,127.19s-.1,0-.15-.02c-.33-.08-.53-.41-.45-.74.48-1.96.75-3.96.81-5.94.01-.34.28-.61.63-.59.34.01.6.29.59.63-.07,2.06-.35,4.15-.85,6.19-.07.28-.32.47-.6.47ZM217.86,125.01c-.17,0-.34-.07-.46-.21-1.4-1.63-2.55-3.41-3.4-5.29-.14-.31,0-.67.31-.81.31-.14.67,0,.81.31.8,1.78,1.88,3.46,3.21,5,.22.26.19.64-.06.87-.12.1-.26.15-.4.15ZM197.1,119.16c-.06,0-.13,0-.19-.03-1.94-.63-3.93-.65-5.63-.04-.32.11-.67-.05-.78-.37-.11-.32.05-.67.37-.78,1.95-.7,4.22-.68,6.42.03.32.1.5.45.39.77-.08.26-.32.42-.58.42ZM265.78,119.15c-.14,0-.27-.04-.39-.14-.26-.21-.3-.6-.09-.86.59-.72,1.18-1.48,1.82-2.32.21-.27.59-.32.86-.12.27.21.32.59.12.86-.65.84-1.25,1.61-1.84,2.35-.12.15-.3.23-.48.23ZM232.16,115.02c-.28,0-.53-.19-.6-.48-.48-2.07-1.25-3.89-2.29-5.41-.19-.28-.12-.66.16-.85.28-.19.66-.12.85.16,1.13,1.64,1.96,3.6,2.48,5.83.08.33-.13.66-.46.74-.05.01-.09.02-.14.02ZM212.95,113.97c-.31,0-.58-.24-.61-.56-.04-.41-.06-.82-.06-1.22,0-1.9.42-3.56,1.26-4.94l.08-.13c.18-.29.56-.37.85-.19.29.18.37.56.19.85l-.07.11c-.72,1.18-1.08,2.63-1.08,4.3,0,.36.02.73.05,1.11.03.34-.22.64-.56.67-.02,0-.04,0-.06,0ZM225.16,105.48c-.08,0-.16-.02-.24-.05-1.76-.75-3.82-.97-5.66-.62-.33.06-.65-.15-.72-.49-.06-.33.15-.65.49-.72,2.07-.4,4.39-.15,6.37.69.31.13.46.49.32.81-.1.23-.33.37-.56.37Z"/>
        </g>
        <g>
          <circle class="cls-5" cx="135.15" cy="179.53" r="8.64" transform="translate(-58.82 66.08) rotate(-22.71)"/>
          <path class="cls-1" d="M135.15,188.79c-5.1,0-9.26-4.15-9.26-9.26s4.15-9.26,9.26-9.26,9.26,4.15,9.26,9.26-4.15,9.26-9.26,9.26ZM135.15,171.5c-4.43,0-8.03,3.6-8.03,8.03s3.6,8.03,8.03,8.03,8.03-3.6,8.03-8.03-3.6-8.03-8.03-8.03Z"/>
        </g>
        <g>
          <circle class="cls-5" cx="156.43" cy="188.73" r="4.45" transform="translate(-60.11 73.83) rotate(-22.4)"/>
          <path class="cls-1" d="M156.43,193.79c-2.79,0-5.06-2.27-5.06-5.06s2.27-5.06,5.06-5.06,5.06,2.27,5.06,5.06-2.27,5.06-5.06,5.06ZM156.43,184.89c-2.12,0-3.84,1.72-3.84,3.84s1.72,3.84,3.84,3.84,3.84-1.72,3.84-3.84-1.72-3.84-3.84-3.84Z"/>
        </g>
        <g>
          <g>
            <circle class="cls-5" cx="78.38" cy="118.26" r="65.81" transform="translate(-50.6 177.36) rotate(-81.08)"/>
            <path class="cls-1" d="M78.38,184.68c-36.63,0-66.42-29.8-66.42-66.42S41.75,51.83,78.38,51.83s66.43,29.8,66.43,66.42-29.8,66.42-66.43,66.42ZM78.38,53.06c-35.95,0-65.2,29.25-65.2,65.2s29.25,65.2,65.2,65.2,65.2-29.25,65.2-65.2-29.25-65.2-65.2-65.2Z"/>
          </g>
          <g>
            <path class="cls-1" d="M100.77,162.6c0,2.13-1.72,3.85-3.85,3.85s-3.85-1.72-3.85-3.85,1.72-3.85,3.85-3.85,3.85,1.72,3.85,3.85Z"/>
            <path class="cls-1" d="M43.47,136.15c0,2.13-1.72,3.85-3.85,3.85s-3.85-1.72-3.85-3.85,1.72-3.85,3.85-3.85,3.85,1.72,3.85,3.85Z"/>
            <circle class="cls-1" cx="92.87" cy="134.71" r="3.85"/>
            <path class="cls-1" d="M77.52,126.63c0,2.13-1.72,3.85-3.85,3.85s-3.85-1.72-3.85-3.85,1.72-3.85,3.85-3.85,3.85,1.72,3.85,3.85Z"/>
            <path class="cls-1" d="M92.86,95.14c0,2.13-1.72,3.85-3.85,3.85s-3.85-1.72-3.85-3.85,1.72-3.85,3.85-3.85,3.85,1.72,3.85,3.85Z"/>
            <path class="cls-1" d="M104.37,73.91c0,2.13-1.72,3.85-3.85,3.85s-3.85-1.72-3.85-3.85,1.72-3.85,3.85-3.85,3.85,1.72,3.85,3.85Z"/>
            <circle class="cls-1" cx="36.64" cy="114.13" r="3.85"/>
            <path class="cls-1" d="M66.53,74.86c0,2.13-1.72,3.85-3.85,3.85s-3.85-1.72-3.85-3.85,1.72-3.85,3.85-3.85,3.85,1.72,3.85,3.85Z"/>
            <path class="cls-1" d="M88.1,95.98h-25.43c-.34,0-.61-.27-.61-.61v-20.5c0-.34.27-.61.61-.61s.61.27.61.61v19.89h24.81c.34,0,.61.27.61.61s-.27.61-.61.61Z"/>
            <path class="cls-1" d="M58.76,114.72h-22.2c-.34,0-.61-.27-.61-.61s.27-.61.61-.61h21.59c.06-11.07.11-27.25,0-28.22-.06-.3.11-.6.41-.7.32-.11.67.07.78.39.12.37.13,10.18.03,29.15,0,.34-.28.61-.61.61Z"/>
            <path class="cls-1" d="M109.98,149.47c-.14,0-.28-.05-.39-.14l-17.03-14.15c-.26-.22-.3-.6-.08-.86.22-.26.6-.3.86-.08l16.67,13.85,13.34-9.49v-22.8h-34.59c-.34,0-.61-.27-.61-.61v-20.42c0-.34.27-.61.61-.61s.61.27.61.61v19.81h34.59c.34,0,.61.27.61.61v23.73c0,.2-.1.38-.26.5l-13.99,9.95c-.11.08-.23.11-.36.11Z"/>
            <path class="cls-1" d="M123.39,112.03h-31.75c-.34,0-.61-.27-.61-.61s.27-.61.61-.61h30.66l-22.3-36.57c-.18-.29-.09-.67.2-.84.29-.18.67-.09.84.2l22.87,37.5c.12.19.12.43.01.62-.11.19-.31.31-.54.31Z"/>
            <path class="cls-1" d="M62.79,159.85c-.34,0-.61-.27-.61-.61l.02-58.98c0-.34.28-.61.61-.61.34,0,.61.27.61.61l-.02,58.98c0,.34-.28.61-.61.61Z"/>
            <path class="cls-1" d="M62.79,159.85c-.16,0-.31-.06-.43-.18l-23.28-23.06c-.24-.24-.24-.63,0-.87.24-.24.63-.24.87,0l23.28,23.06c.24.24.24.63,0,.87-.12.12-.28.18-.44.18Z"/>
            <path class="cls-1" d="M73.59,127.24c-.16,0-.31-.06-.43-.18-.24-.24-.24-.63,0-.87l10.87-10.87v-15.07c0-.34.27-.61.61-.61s.61.27.61.61v15.32c0,.16-.06.32-.18.43l-11.05,11.05c-.12.12-.28.18-.43.18Z"/>
            <path class="cls-1" d="M96.71,163.84h-23.88c-.34,0-.61-.27-.61-.61v-29.67c0-.34.27-.61.61-.61s.61.27.61.61v29.05h23.26c.34,0,.61.27.61.61s-.27.61-.61.61Z"/>
          </g>
        </g>
      </g>
    </g>
  </g>
</svg>