<?xml version="1.0" encoding="UTF-8"?>
<svg id="Layer_2" xmlns="http://www.w3.org/2000/svg" version="1.1" viewBox="0 0 1247 832">
  <!-- Generator: Adobe Illustrator 29.5.1, SVG Export Plug-In . SVG Version: 2.1.0 Build 141)  -->
  <defs>
    <style>
      .st0 {
        fill: none;
      }

      .st1, .st2, .st3, .st4, .st5, .st6 {
        isolation: isolate;
      }

      .st7 {
        fill: #fff;
      }

      .st8, .st2, .st3, .st4, .st5 {
        fill: #f60;
      }

      .st9, .st2, .st6 {
        opacity: .5;
      }

      .st10, .st3 {
        opacity: .3;
      }

      .st11, .st6 {
        fill: #697282;
      }

      .st4 {
        opacity: .7;
      }

      .st5 {
        opacity: .1;
      }

      .st12 {
        fill: #0a0a0a;
      }
    </style>
  </defs>
  <rect class="st7" x="523.29" y="40.65" width="211.32" height="34.33"/>
  <path d="M734.61,75.98h-211.32c-.55,0-1-.45-1-1v-34.33c0-.55.45-1,1-1h211.32c.55,0,1,.45,1,1v34.33c0,.55-.45,1-1,1ZM524.29,73.98h209.32v-32.33h-209.32v32.33Z"/>
  <ellipse class="st3" cx="710.58" cy="57.82" rx="9.08" ry="9.22"/>
  <path class="st3" d="M675,57.82c0-5.09,4.07-9.22,9.08-9.22s9.08,4.13,9.08,9.22-4.07,9.22-9.08,9.22-9.08-4.13-9.08-9.22Z"/>
  <ellipse class="st8" cx="657.59" cy="57.82" rx="9.08" ry="9.22"/>
  <rect class="st7" x="523.29" y="91.65" width="211.32" height="34.33"/>
  <path d="M734.61,126.98h-211.32c-.55,0-1-.45-1-1v-34.33c0-.55.45-1,1-1h211.32c.55,0,1,.45,1,1v34.33c0,.55-.45,1-1,1ZM524.29,124.98h209.32v-32.33h-209.32v32.33Z"/>
  <g class="st9">
    <ellipse class="st8" cx="710.58" cy="108.82" rx="9.08" ry="9.22"/>
    <path class="st8" d="M675,108.82c0-5.09,4.07-9.22,9.08-9.22s9.08,4.13,9.08,9.22-4.07,9.22-9.08,9.22-9.08-4.13-9.08-9.22Z"/>
    <ellipse class="st8" cx="657.59" cy="108.82" rx="9.08" ry="9.22"/>
  </g>
  <rect class="st7" x="523.29" y="294.65" width="211.32" height="34.33"/>
  <path d="M734.61,329.98h-211.32c-.55,0-1-.45-1-1v-34.33c0-.55.45-1,1-1h211.32c.55,0,1,.45,1,1v34.33c0,.55-.45,1-1,1h0ZM524.29,327.98h209.32v-32.33h-209.32v32.33h0Z"/>
  <ellipse class="st3" cx="710.58" cy="311.82" rx="9.08" ry="9.22"/>
  <path class="st4" d="M675,311.82c0-5.09,4.07-9.22,9.08-9.22s9.08,4.13,9.08,9.22-4.07,9.22-9.08,9.22-9.08-4.13-9.08-9.22Z"/>
  <ellipse class="st3" cx="657.59" cy="311.82" rx="9.08" ry="9.22"/>
  <rect class="st7" x="523.29" y="243.65" width="211.32" height="34.33"/>
  <path d="M734.61,278.98h-211.32c-.55,0-1-.45-1-1v-34.33c0-.55.45-1,1-1h211.32c.55,0,1,.45,1,1v34.33c0,.55-.45,1-1,1ZM524.29,276.98h209.32v-32.33h-209.32v32.33Z"/>
  <g class="st10">
    <ellipse class="st8" cx="710.58" cy="260.82" rx="9.08" ry="9.22"/>
    <path class="st8" d="M675,260.82c0-5.09,4.07-9.22,9.08-9.22s9.08,4.13,9.08,9.22-4.07,9.22-9.08,9.22-9.08-4.13-9.08-9.22Z"/>
    <path class="st8" d="M675,260.82c0-5.09,4.07-9.22,9.08-9.22s9.08,4.13,9.08,9.22-4.07,9.22-9.08,9.22-9.08-4.13-9.08-9.22Z"/>
    <path class="st8" d="M675,260.82c0-5.09,4.07-9.22,9.08-9.22s9.08,4.13,9.08,9.22-4.07,9.22-9.08,9.22-9.08-4.13-9.08-9.22Z"/>
    <ellipse class="st8" cx="657.59" cy="260.82" rx="9.08" ry="9.22"/>
  </g>
  <rect class="st7" x="523.29" y="428.65" width="211.32" height="34.33"/>
  <path d="M734.61,463.98h-211.32c-.55,0-1-.45-1-1v-34.33c0-.55.45-1,1-1h211.32c.55,0,1,.45,1,1v34.33c0,.55-.45,1-1,1h0ZM524.29,461.98h209.32v-32.33h-209.32v32.33h0Z"/>
  <g class="st10">
    <ellipse class="st8" cx="710.58" cy="445.82" rx="9.08" ry="9.22"/>
    <path class="st8" d="M675,445.82c0-5.09,4.07-9.22,9.08-9.22s9.08,4.13,9.08,9.22-4.07,9.22-9.08,9.22-9.08-4.13-9.08-9.22Z"/>
    <path class="st8" d="M675,445.82c0-5.09,4.07-9.22,9.08-9.22s9.08,4.13,9.08,9.22-4.07,9.22-9.08,9.22-9.08-4.13-9.08-9.22Z"/>
    <path class="st8" d="M675,445.82c0-5.09,4.07-9.22,9.08-9.22s9.08,4.13,9.08,9.22-4.07,9.22-9.08,9.22-9.08-4.13-9.08-9.22Z"/>
    <ellipse class="st8" cx="657.59" cy="445.82" rx="9.08" ry="9.22"/>
  </g>
  <rect class="st7" x="523.29" y="481.65" width="211.32" height="34.33"/>
  <path d="M734.61,516.98h-211.32c-.55,0-1-.45-1-1v-34.33c0-.55.45-1,1-1h211.32c.55,0,1,.45,1,1v34.33c0,.55-.45,1-1,1ZM524.29,514.98h209.32v-32.33h-209.32v32.33Z"/>
  <ellipse class="st5" cx="710.58" cy="498.82" rx="9.08" ry="9.22"/>
  <path class="st8" d="M675,498.82c0-5.09,4.07-9.22,9.08-9.22s9.08,4.13,9.08,9.22-4.07,9.22-9.08,9.22-9.08-4.13-9.08-9.22Z"/>
  <path class="st8" d="M675,498.82c0-5.09,4.07-9.22,9.08-9.22s9.08,4.13,9.08,9.22-4.07,9.22-9.08,9.22-9.08-4.13-9.08-9.22Z"/>
  <path class="st4" d="M675,498.82c0-5.09,4.07-9.22,9.08-9.22s9.08,4.13,9.08,9.22-4.07,9.22-9.08,9.22-9.08-4.13-9.08-9.22Z"/>
  <ellipse class="st4" cx="657.59" cy="498.82" rx="9.08" ry="9.22"/>
  <rect class="st11" x="911.71" y="1" width="206.58" height="622.05"/>
  <path class="st11" d="M1118.29,624.05h-206.58c-.55,0-1-.45-1-1V1C910.71.45,911.16,0,911.71,0h206.58C1118.84,0,1119.29.45,1119.29,1v622.05c0,.55-.45,1-1,1ZM912.71,622.05h204.58V2h-204.58v620.05Z"/>
  <rect class="st7" x="803.31" y="1" width="252.64" height="622.05"/>
  <path d="M1055.95,624.05h-252.64c-.55,0-1-.45-1-1V1C802.31.45,802.76,0,803.31,0h252.64C1056.5,0,1056.95.45,1056.95,1v622.05c0,.55-.45,1-1,1ZM804.31,622.05h250.64V2h-250.64v620.05h0Z"/>
  <path class="st8" d="M213.52,267.94l-23.24,512.92c-.35,5.7-2.44,11.13-5.93,15.43l-19.51,24.04c-3.38,4.16-.63,10.67,4.5,10.67h128.53c9.92,0,17.88-8.83,17.58-19.51l-10.82-382.54,113.09,388.78c2.3,7.9,9.09,13.27,16.78,13.27h134.29c5.93,0,8.24-8.28,3.3-11.8l-36.39-25.89c-4.3-3.06-7.58-7.51-9.37-12.71l-159.4-494.96-153.41-17.7h0Z"/>
  <path d="M304.62,429.95h0c-.55,0-1-.45-1-1l.24-68.5c0-.55.45-1,1-1h0c.55,0,1,.45,1,1l-.24,68.5c0,.55-.45,1-1,1Z"/>
  <path class="st8" d="M311.17,803.03h-.04c-37.51-1.45-75.5-3.85-112.91-7.13-.55-.05-.96-.53-.91-1.08s.55-.96,1.08-.91c37.38,3.28,75.33,5.68,112.81,7.13.55.02.98.49.96,1.04-.02.54-.46.96-1,.96h.01Z"/>
  <path class="st8" d="M418.39,800.95c-.55,0-.99-.44-1-.98,0-.55.43-1.01.98-1.02,35.2-.54,70.68-3.81,105.46-9.73.55-.09,1.06.27,1.15.82.09.54-.27,1.06-.82,1.15-34.88,5.93-70.46,9.22-105.76,9.76h-.02,0Z"/>
  <path class="st7" d="M481.62,173.47s-60.08-54.68-81.04-61.81c-43.16-14.69-96.05-8.57-137.36,12.35-41.31,20.91-43.11,90.98-36.86,128.68l-9.8,37.11c-1.77,6.7,3.28,13.26,10.21,13.26h144.95l35.74-101.87s30.16,38.05,63.72,39.6c33.33,1.54,42.2-8.8,64.67-38.31,7.18-9.43-24.26-51.43-24.26-51.43l-29.96,22.43h0Z"/>
  <path d="M371.72,304.06c-.11,0-.22-.02-.33-.06-.52-.18-.79-.75-.61-1.27l35.74-101.87c.12-.34.42-.59.78-.66.37-.06.72.08.95.37.3.38,30.28,37.71,62.99,39.22,32.24,1.49,41-7.93,63.82-37.92,5.39-7.08-14.71-37.31-23.67-49.42l-29.16,21.83c-.38.29-.92.26-1.27-.06-.6-.55-60.17-54.62-80.69-61.6-41.43-14.1-93.77-9.39-136.59,12.29-41.96,21.24-42.1,92.77-36.32,127.63.02.14.02.28-.02.42l-9.8,37.11c-.76,2.89-.16,5.91,1.67,8.27,1.82,2.37,4.58,3.73,7.57,3.73.55,0,1,.45,1,1s-.45,1-1,1c-3.62,0-6.95-1.64-9.16-4.51-2.21-2.86-2.94-6.51-2.02-10.01l9.75-36.9c-5.83-35.43-5.48-107.8,37.42-129.53,43.28-21.92,96.21-26.67,138.13-12.4,20.02,6.81,74.04,55.36,80.78,61.46l29.3-21.93c.44-.33,1.07-.24,1.4.2,3.26,4.36,31.68,42.89,24.26,52.64-23.31,30.62-32.27,40.24-65.51,38.7-29.96-1.38-57.46-31.73-63.32-38.61l-35.15,100.21c-.14.41-.53.67-.94.67h0Z"/>
  <path d="M351.95,210.48c-.36,0-.69-.19-.87-.51l-52.17-92.27c-.27-.48-.1-1.09.38-1.36.48-.27,1.09-.1,1.36.38l50.79,89.83,16.64-96.63c.09-.54.61-.91,1.16-.82.54.09.91.61.82,1.16l-17.12,99.39c-.07.42-.4.74-.81.82-.06,0-.11,0-.17,0h-.01Z"/>
  <rect class="st7" x="328.78" y="209.48" width="46.68" height="33.26"/>
  <path d="M375.45,243.74h-46.68c-.55,0-1-.45-1-1v-33.26c0-.55.45-1,1-1h46.68c.55,0,1,.45,1,1v33.26c0,.55-.45,1-1,1ZM329.78,241.74h44.68v-31.26h-44.68v31.26Z"/>
  <rect class="st2" x="356.82" y="214.01" width="12.24" height="18.15"/>
  <path class="st7" d="M589.92,117.17c-1.96-3.16-24.27-9.8-73.4,29.92-2.59,2.09-5.1,4.09-7.57,6.02,1.95,14.89,8.16,35.8,26.88,49.36,12.35-14.12,30.16-35.16,36.5-39.39,7.65-5.1,3.93-12.18,3.93-12.18,4.38-4.85-.71-10.41-.71-10.41,4.07-9.53-10.23-7.89-10.23-7.89,1.13-5.44,26.55-12.27,24.59-15.43h.01Z"/>
  <path d="M535.84,203.47c-.2,0-.41-.06-.59-.19-18.94-13.73-25.29-34.79-27.29-50.04-.05-.35.1-.7.37-.92,2.72-2.13,5.19-4.1,7.55-6.01,40.62-32.85,61.99-33.52,69.3-32.29,2.76.47,4.85,1.45,5.58,2.62h0c.26.43.33.93.18,1.42-.56,1.83-4.28,3.56-10.81,6.46-4.65,2.07-10.73,4.77-12.97,6.97,2.63-.04,7.2.3,9.17,2.94,1.13,1.52,1.25,3.49.37,5.87,1.82,2.29,3.81,6.81.72,10.77.76,1.99,2.38,8.23-4.53,12.84-5.28,3.52-19.23,19.58-30.44,32.48-2.04,2.35-4.01,4.62-5.86,6.73-.2.23-.47.34-.75.34h0ZM510.03,153.55c2,14.61,8.1,34.43,25.67,47.58,1.67-1.91,3.44-3.94,5.25-6.04,11.88-13.67,25.34-29.16,30.84-32.83,6.78-4.52,3.73-10.63,3.6-10.89-.19-.37-.13-.82.14-1.13,3.71-4.11-.53-8.86-.71-9.06-.26-.29-.33-.71-.18-1.07.83-1.94.86-3.44.09-4.47-1.75-2.35-7.3-2.27-9.29-2.04-.32.04-.64-.08-.85-.32-.22-.24-.31-.56-.24-.88.65-3.12,6.35-5.87,14.97-9.7,3.81-1.69,8.98-3.99,9.66-5.11-.35-.38-1.53-1.16-4.12-1.6-5.49-.93-26.59-1.37-67.71,31.87-2.24,1.81-4.58,3.67-7.13,5.68h0Z"/>
  <path d="M536.45,160.63c-.21,0-.43-.07-.61-.21-.44-.34-.52-.97-.18-1.4,2.64-3.41,7.12-4.34,11.15-4.8l.89-.1c3.49-.38,7.09-.78,9.71-2.81,1.04-.81,2.15-2.26,1.83-3.66-.31-1.36-1.84-2.35-4.53-2.95-4.09-.9-8.3-1.33-12.48-1.25-.56,0-1.01-.43-1.02-.98,0-.55.43-1.01.98-1.02,4.34-.07,8.7.36,12.95,1.3,3.52.77,5.55,2.27,6.05,4.45.53,2.32-.97,4.45-2.55,5.68-3.07,2.38-6.96,2.81-10.72,3.22l-.88.1c-3.62.41-7.61,1.21-9.79,4.03-.2.25-.49.39-.79.39h-.01Z"/>
  <path d="M559.01,145.3c-.16,0-.32-.04-.46-.11-.49-.26-.68-.86-.42-1.35,1.39-2.64,3.2-5,5.4-7.02.41-.37,1.04-.35,1.41.06s.35,1.04-.06,1.41c-2.03,1.86-3.7,4.04-4.98,6.47-.18.34-.53.54-.89.54h0Z"/>
  <path d="M560.79,150.14c-.54,0-.99-.43-1-.98s.42-1.01.98-1.02c4.68-.11,9.2-2.38,12.09-6.05.34-.43.97-.51,1.4-.17.43.34.51.97.17,1.4-3.26,4.14-8.35,6.69-13.62,6.81h-.02Z"/>
  <path d="M564.11,159.95c-1.14,0-2.24-.19-3.24-.58-2.89-1.12-4.84-3.88-4.75-6.71.02-.55.49-.98,1.03-.97.55.02.98.48.96,1.03-.07,1.96,1.39,3.97,3.47,4.78,1.91.74,4.29.56,6.53-.48,2.32-1.08,4.23-2.9,5.63-4.36.38-.4,1.02-.41,1.41-.03.4.38.41,1.01.03,1.41-1.52,1.59-3.61,3.57-6.23,4.79-1.59.74-3.26,1.12-4.85,1.12h0Z"/>
  <path d="M564.77,165.43c-.23,0-.47,0-.7-.04-1.91-.21-3.55-1.43-4.06-3.03-.48-1.5.02-3.02.38-4.13.17-.52.74-.81,1.26-.64s.81.74.64,1.26c-.36,1.1-.64,2.08-.38,2.89.27.85,1.25,1.53,2.38,1.65,1.24.14,2.53-.28,3.62-.71.51-.2,1.09.05,1.3.56.2.51-.05,1.09-.56,1.3-1.07.42-2.44.88-3.87.88h-.01Z"/>
  <path d="M465.1,186.41c-.31,0-.62-.14-.81-.41-.32-.45-.22-1.07.22-1.4l16.52-11.94c.45-.32,1.07-.22,1.4.22.32.45.22,1.07-.22,1.4l-16.52,11.94c-.18.13-.38.19-.58.19h-.01Z"/>
  <path class="st7" d="M351.61,82.24l-3.34,21.36s15.1,5.21,5.15,16.83c-11.84,13.83-38.42,5.52-42.13-3.22-3.03-7.14,6.21-10.9,6.21-10.9l6.79-47.92,27.32,23.85Z"/>
  <path d="M335.36,128.8c-1.84,0-3.75-.15-5.7-.45-9.12-1.41-17.23-5.93-19.28-10.75-.88-2.06-.92-4.06-.14-5.96,1.38-3.36,4.99-5.36,6.36-6.02l6.71-47.38c.05-.36.3-.67.64-.8.34-.13.73-.06,1.01.18l27.32,23.85c.26.23.38.57.33.91l-3.22,20.56c1.95.83,6.92,3.34,8.16,7.9.86,3.18-.27,6.62-3.35,10.22-4.3,5.03-10.99,7.72-18.83,7.72v.02ZM325.03,60.36l-6.53,46.1c-.05.35-.28.65-.61.79-.04.02-4.44,1.85-5.8,5.18-.58,1.4-.53,2.84.13,4.41,1.77,4.16,9.4,8.27,17.75,9.55,9.58,1.48,17.85-.93,22.71-6.6,2.63-3.07,3.62-5.9,2.94-8.4-1.24-4.57-7.6-6.81-7.66-6.84-.46-.16-.74-.62-.66-1.1l3.25-20.81-25.51-22.28h-.01Z"/>
  <path d="M346.5,113.89c-.06,0-.12,0-.18-.02-.54-.1-.91-.62-.81-1.16l1.45-8.06c.1-.54.62-.91,1.16-.81.54.1.91.62.81,1.16l-1.45,8.06c-.09.48-.51.82-.98.82h0Z"/>
  <path class="st11" d="M389.39,48.79c4.22-6.2,4.53-14.84.76-21.32s-11.42-10.5-18.9-9.9c1.94-5.27-1.25-11.44-6.12-14.23s-10.91-2.77-16.38-1.52c-7.3,1.67-14.25,5.53-18.81,11.47s-6.49,14.06-4.22,21.2c-2.96-2.52-7.76-2.06-10.71.49-2.95,2.54-4.16,6.69-3.86,10.57.29,3.88,1.92,7.54,3.88,10.91,4.12,7.08,9.93,13.33,17.22,17.07s16.12,4.79,23.8,1.92c5.58-2.08,10.4-6.35,13-11.72.95-1.97,1.07-5.46,3.44-6.13,3.01-.85,5.93-.63,8.91-2.04,3.19-1.51,6.01-3.83,8-6.75v-.02Z"/>
  <path class="st7" d="M369.77,41.93c1.78.84,3.07,2.46,3.45,4.39,2.05,10.39,7.67,49.41-13.46,52.28-21.34,2.9-27.99-20.46-27.99-20.46,0,0-12.4-4.63-10.53-15.6s13.91-6.16,15.97,3.73c0,0,7.92,1.07,7.19-8.07-.69-8.76,4.35-26.13,25.36-16.26h0Z"/>
  <path class="st0" d="M356.18,99.85c-17.45,0-24.17-17.82-25.22-20.97-2.32-1.02-12.47-6.13-10.7-16.51.76-4.45,3.22-7.04,6.75-7.11h.13c4.66,0,9.38,4.41,10.87,10.04.93,0,2.64-.2,3.87-1.37,1.22-1.16,1.74-3.07,1.53-5.66-.47-5.93,1.56-14.07,7.13-17.93,4.88-3.38,11.49-3.15,19.65.68,2.07.97,3.57,2.88,4.01,5.1,1.09,5.5,6.03,33.62-3.4,46.83-2.71,3.79-6.38,6.02-10.9,6.64-1.29.18-2.53.26-3.71.26h-.01ZM327.13,57.26h-.09c-2.51.05-4.22,1.98-4.81,5.44-1.71,10.04,9.78,14.46,9.89,14.5.3.11.52.36.61.66.25.86,5.93,19.99,23.41,19.99,1.11,0,2.27-.08,3.48-.24,3.96-.54,7.17-2.5,9.55-5.82,9.15-12.8,3.71-41.99,3.07-45.28-.32-1.6-1.4-2.97-2.89-3.67-7.47-3.51-13.41-3.79-17.66-.85-4.92,3.4-6.7,10.75-6.27,16.12.26,3.23-.47,5.68-2.16,7.28-2.47,2.33-6.02,1.88-6.16,1.86-.42-.06-.76-.37-.85-.79-1.15-5.54-5.61-9.21-9.1-9.21h-.02Z"/>
  <path d="M331.86,72.06c-.45,0-.86-.3-.97-.76-.62-2.49-2.82-4.5-5.35-4.88-.55-.08-.92-.59-.84-1.14.08-.55.58-.92,1.14-.84,3.32.5,6.19,3.13,7,6.38.13.54-.19,1.08-.73,1.21-.08.02-.16.03-.24.03h-.01Z"/>
  <path class="st7" d="M220.33,272.04s61.5,197.15-21,340.51l22.37,183.57,23.49,23.49c4.2,4.2,1.23,11.39-4.72,11.39H100.64c-19.21,0-37.8-6.88-52.3-19.47-13.92-12.09-30.81-29.84-44.18-53.31-4.36-7.65-4.2-17.08.43-24.57,16.86-27.26,58.72-96.57,74.65-138.01,0,0-25.09-275.49,14.45-320.88l126.64-2.73h0Z"/>
  <path d="M240.47,832H100.64c-19.51,0-38.32-7-52.95-19.72-18.23-15.84-33.16-33.86-44.39-53.57-4.55-7.98-4.38-17.79.45-25.59,17.11-27.66,58.56-96.36,74.48-137.62-.4-4.49-6.31-71.68-7.59-143.26-1.77-99.19,5.73-159.12,22.3-178.13.18-.21.45-.34.73-.34l126.64-2.73c.46.02.84.28.98.7.04.11,3.62,11.66,7.83,30.8.12.54-.22,1.07-.76,1.19s-1.07-.22-1.19-.76c-3.6-16.35-6.74-27.13-7.57-29.92l-125.44,2.7c-38.41,45.55-14.17,317.05-13.92,319.8.01.15,0,.31-.06.45-15.92,41.4-57.56,110.42-74.73,138.18-4.44,7.18-4.6,16.2-.41,23.55,11.11,19.51,25.9,37.36,43.96,53.05,14.27,12.4,32.61,19.23,51.64,19.23h139.84c.55,0,1,.45,1,1s-.45,1-1,1h0Z"/>
  <path d="M199.33,613.55c-.53,0-.97-.41-1-.94l-14.86-254.31c0-.18.03-.36.11-.52l7.43-14.28c.25-.49.86-.68,1.35-.43.49.26.68.86.42,1.35l-7.3,14.03,14.85,254.03c.03.55-.39,1.02-.94,1.06h-.06Z"/>
  <path d="M135.15,832h-16.14c-5.57,0-10.47-3.95-11.64-9.38-15.62-72.62-28.99-224.8-29.12-226.33-.05-.55.36-1.04.91-1.08.55-.05,1.04.36,1.08.91.13,1.53,13.49,153.59,29.09,226.08.97,4.52,5.05,7.8,9.68,7.8h16.14c.55,0,1,.45,1,1s-.45,1-1,1h0Z"/>
  <path d="M112.49,807.31c-.51,0-.95-.39-1-.91-.05-.55.35-1.04.9-1.09l109.21-10.2c.54-.05,1.04.35,1.09.9.05.55-.35,1.04-.9,1.09l-109.21,10.2h-.09Z"/>
  <path d="M103.99,800.91s-.1,0-.14-.01c-34.6-4.99-57.52-24.11-70.66-39.27-14.22-16.42-20.37-31.9-20.43-32.05-.2-.51.05-1.09.57-1.3.51-.2,1.09.05,1.3.57.06.15,6.11,15.36,20.13,31.53,12.91,14.88,35.43,33.65,69.38,38.55.55.08.93.59.85,1.13-.07.5-.5.86-.99.86h0Z"/>
  <path class="st11" d="M210.54,89.32l-3.17-24.82s18.82-17.77,5.87-31.19c-9.35-9.68-23.69,5.42-35.51,6.84-11.83,1.42-21.97,4.06-30.27,28.31-8.3,24.26-26,62.22-29.93,73.66l89.11-5.42,3.9-47.38h0Z"/>
  <path class="st7" d="M215.73,231.94c1.46.73,27.72,51.43,55.81,62.37,28.09,10.94,48.89-25.92,48.89-25.92l-60.73-48.49-43.96,12.04h0Z"/>
  <path d="M281.95,297.33c-3.45,0-7.04-.63-10.77-2.08-23.38-9.11-45.1-44.71-53.27-58.12-1.31-2.15-2.45-4.01-2.78-4.39-.28-.21-.43-.55-.39-.9.04-.41.33-.76.73-.87l43.96-12.04c.31-.09.64-.02.89.18l60.73,48.49c.38.31.49.85.25,1.27-.18.33-16.35,28.44-39.35,28.44v.02ZM217.41,232.52c.47.73,1.15,1.84,2.21,3.57,8.08,13.25,29.54,48.43,52.29,57.29,24.8,9.66,44.11-19.69,47.22-24.75l-59.65-47.63-42.06,11.52h-.01ZM215.29,232.84h0s0,0,0,0Z"/>
  <path class="st8" d="M265.55,188.44s-23.4-26.68-32.92-39.15c-7.87-10.31-19.57-16.98-32.45-18.53-7.43-.89-16.68-4.12-27.29-4.26-14.34-.19-30.99,1.56-45.58,4.26-19.44,3.6-36.6,14.9-47.77,31.23l-26.62,38.92,30.18,14.73-7.81,63.17h162.21v-48.37l28.05-42Z"/>
  <path class="st7" d="M91.34,214.99l-31.09-10.52s-37.68,51.91-14.17,74.33c23.5,22.42,86.27-47.51,97.7-63.29,0,0,7.35,1.71,6.3-3.15,0,0,8.93,3.29,8.93-3.42,0,0,9.19,2.38,7.35-6.3,0,0,8.83,10.35,11.54,8.97,4.16-2.12-.9-10.82-4.71-17.39s-17.06-22.83-46.22-4.99c-23.77,14.54-35.63,25.76-35.63,25.76h0Z"/>
  <path d="M57.61,284.19c-4.87,0-8.96-1.56-12.22-4.67-23.86-22.76,12.5-73.49,14.06-75.64.33-.45.95-.55,1.4-.22.45.32.55.95.22,1.4-.37.51-36.9,51.46-14.29,73.02,6,5.72,15.35,5.46,27.78-.77.49-.25,1.1-.05,1.34.45.25.49.05,1.09-.45,1.34-6.78,3.4-12.74,5.1-17.83,5.1h-.01Z"/>
  <path d="M56.15,245.23c-.29,0-.58-.12-.77-.37-.35-.43-.29-1.06.14-1.41l33.58-27.59c.43-.35,1.06-.29,1.41.14.35.43.29,1.06-.14,1.41l-33.58,27.59c-.19.15-.41.23-.63.23h-.01Z"/>
  <path d="M142.76,216.51h-.12c-3.87-.47-7.57-1.96-10.68-4.33-.44-.33-.53-.96-.19-1.4.33-.44.96-.53,1.4-.19,2.83,2.15,6.19,3.51,9.71,3.93.55.07.94.56.87,1.11-.06.51-.49.88-.99.88h0Z"/>
  <path d="M150.51,213.41c-.17,0-.35-.04-.5-.14-1.46-.85-2.8-1.89-4-3.08-.39-.39-.39-1.02,0-1.41s1.02-.39,1.41,0c1.08,1.07,2.29,2.01,3.6,2.77.48.28.64.89.36,1.37-.19.32-.52.5-.86.5h-.01Z"/>
  <path d="M159.3,209.74c-.27,0-.54-.11-.74-.32l-3.22-3.51c-.37-.41-.35-1.04.06-1.41.41-.37,1.04-.35,1.41.06l3.22,3.51c.37.41.35,1.04-.06,1.41-.19.18-.43.26-.68.26h0Z"/>
  <path d="M166.35,203.64c-.28,0-.56-.12-.76-.35-.46-.53-.81-.99-1.17-1.46-.42-.54-.85-1.11-1.47-1.81-.37-.41-.33-1.05.09-1.41.41-.37,1.05-.33,1.41.09.67.76,1.13,1.35,1.56,1.92.34.44.67.88,1.1,1.37.36.42.31,1.05-.11,1.41-.19.16-.42.24-.65.24h0Z"/>
  <path d="M251.33,180.48l-31.17,84.19h-66.44c-1.34,0-2.54.84-3.01,2.09-.78,2.1.77,4.33,3.01,4.33h159.56c2.34,0,4.44-1.46,5.25-3.66l31.09-83.98c1.03-2.79-1.03-5.76-4.01-5.76h-90.28c-1.79,0-3.39,1.11-4.01,2.79h.01Z"/>
  <path class="st7" d="M283.3,276.03s39.28,9.51,45.41-9.96,1.71-30.68-4.62-17.85c0,0-2.05-11.58-8.57.88,0,0-2.02-12.24-9.29-1.06,0,0-3.7-5.73-8.17,1.58-2.42,3.96-3.69,10.64-4.34,15.94-.6,4.86-4.11,8.85-8.85,10.06l-1.57.4h0Z"/>
  <path d="M303.23,279.35c-3.89,0-7.63-.32-10.77-.71-.55-.07-.94-.57-.87-1.12s.56-.94,1.12-.87c11.36,1.42,31.01,1.9,35.03-10.88,4.14-13.15,3.11-21.32,1.39-22-.6-.24-2.18.87-4.16,4.9-.25.5-.84.7-1.34.46-.5-.24-.7-.84-.46-1.34,2.91-5.9,5.24-6.45,6.7-5.87,3.78,1.52,3.68,12.03-.23,24.46-3.29,10.45-15.46,12.97-26.42,12.97h0Z"/>
  <path d="M320.43,266.71c-.07,0-.14,0-.21-.02-.54-.11-.89-.64-.77-1.18l3.66-17.49c.11-.54.63-.89,1.18-.77.54.11.89.64.77,1.18l-3.66,17.49c-.1.47-.51.8-.98.8h.01Z"/>
  <path d="M311.77,267.6c-.07,0-.14,0-.21-.02-.54-.11-.89-.64-.77-1.18l3.66-17.51c.11-.54.63-.89,1.18-.77.54.11.89.64.77,1.18l-3.66,17.51c-.1.47-.51.8-.98.8h.01Z"/>
  <path d="M302.43,266.49c-.07,0-.14,0-.21-.02-.54-.11-.89-.64-.77-1.18l3.66-17.51c.11-.54.63-.89,1.18-.77.54.11.89.64.77,1.18l-3.66,17.51c-.1.47-.51.8-.98.8h.01Z"/>
  <rect class="st7" x="105.06" y="286.43" width="46.68" height="33.26"/>
  <path d="M151.74,320.69h-46.68c-.55,0-1-.45-1-1v-33.26c0-.55.45-1,1-1h46.68c.55,0,1,.45,1,1v33.26c0,.55-.45,1-1,1ZM106.06,318.69h44.68v-31.26h-44.68s0,31.26,0,31.26Z"/>
  <rect class="st6" x="133.11" y="290.96" width="12.24" height="18.15"/>
  <path d="M131.85,284.19h-6.89c-.55,0-1-.45-1-1v-11.15c0-.55.45-1,1-1h6.89c.55,0,1,.45,1,1v11.15c0,.55-.45,1-1,1ZM125.96,282.19h4.89v-9.15h-4.89s0,9.15,0,9.15Z"/>
  <path class="st7" d="M191.48,129.36l12.31,1.96s-2.03,14.33-10.47,18.38c-14.36,6.9-55.07-20.73-55.07-20.73l20.1-2.55c4.34-1.33,7.71-4.78,8.95-9.15l8.16-28.88,22.7,11.41-6.67,29.57h-.01Z"/>
  <path class="st7" d="M176.83,81.38s-5.5-9.3-11.52-7.42c-9.18,2.86-8.59,19.28,6.54,18.49,0,0,17.89,22.89,35.06,16.53,17.17-6.35,4.58-45.06,1.25-51.69,0,0-21.75,1.98-24.51,10.72-2.43,7.69.93,13.36-6.82,13.36h0Z"/>
  <path class="st0" d="M200.58,111.11c-14.14,0-26.95-14.89-29.19-17.64-8.36.24-12.18-4.64-12.95-8.95-.91-5.11,1.91-10.06,6.57-11.51,5.9-1.84,11.05,5.35,12.37,7.37,3.74-.14,3.87-1.82,4.16-5.64.15-1.95.33-4.38,1.16-7.02,2.93-9.27,24.46-11.34,25.37-11.42.41-.04.8.18.98.55,2.7,5.38,11.35,31.33,5.91,45.13-1.56,3.96-4.15,6.63-7.71,7.95-2.24.83-4.48,1.19-6.68,1.19h0ZM171.85,91.44c.31,0,.6.14.79.38.17.22,17.65,22.23,33.93,16.21,2.99-1.11,5.19-3.4,6.54-6.81,4.77-12.1-2.28-35.81-5.54-42.88-6.32.68-20.94,3.56-22.96,9.96-.76,2.41-.93,4.62-1.07,6.57-.3,4.02-.56,7.5-6.7,7.5-.35,0-.68-.19-.86-.49-.05-.09-5.18-8.6-10.36-6.98-4.22,1.31-5.83,5.75-5.2,9.25.68,3.78,4.02,7.67,11.39,7.29h.05-.01Z"/>
  <path d="M173.63,87.73c-.25,0-.5-.09-.69-.27-2-1.9-4.93-2.75-7.64-2.21-.54.11-1.07-.24-1.18-.78-.11-.54.24-1.07.79-1.18,3.33-.66,6.94.38,9.4,2.72.4.38.42,1.01.04,1.41-.2.21-.46.31-.73.31h.01Z"/>
  <path class="st8" d="M726.92,735.91h-65.2c-.27,0-.52-.11-.71-.29l-46.42-46.42c-.39-.39-.39-1.02,0-1.41s1.02-.39,1.41,0l46.13,46.13h64.78c.55,0,1,.45,1,1s-.45,1-1,1h.01Z"/>
  <circle class="st8" cx="615.31" cy="688.49" r="11.11"/>
  <path class="st8" d="M615.31,700.61c-6.68,0-12.11-5.43-12.11-12.11s5.43-12.11,12.11-12.11,12.11,5.43,12.11,12.11-5.43,12.11-12.11,12.11ZM615.31,678.38c-5.58,0-10.11,4.54-10.11,10.11s4.54,10.11,10.11,10.11,10.11-4.54,10.11-10.11-4.54-10.11-10.11-10.11Z"/>
  <path class="st8" d="M726.92,766.85h-168.81c-.55,0-1-.45-1-1s.45-1,1-1h168.81c.55,0,1,.45,1,1s-.45,1-1,1Z"/>
  <circle class="st8" cx="558.11" cy="765.85" r="11.11"/>
  <path class="st8" d="M558.11,777.97c-6.68,0-12.11-5.43-12.11-12.11s5.43-12.11,12.11-12.11,12.11,5.43,12.11,12.11-5.43,12.11-12.11,12.11ZM558.11,755.74c-5.58,0-10.11,4.54-10.11,10.11s4.54,10.11,10.11,10.11,10.11-4.54,10.11-10.11-4.54-10.11-10.11-10.11Z"/>
  <path class="st0" d="M1176.32,766.42h-33.67c-.55,0-1-.45-1-1s.45-1,1-1h33.67c37.87,0,68.68-30.81,68.68-68.68s-30.81-68.68-68.68-68.68c-2.8,0-5.63.17-8.42.51-.31.04-.63-.07-.85-.3s-.31-.55-.26-.86c1.69-9.6,2.55-19.43,2.55-29.22,0-92.21-75.02-167.23-167.23-167.23-84.15,0-155.48,62.86-165.92,146.23-.04.28-.19.53-.42.7-.23.16-.52.22-.8.15-7.08-1.66-14.38-2.5-21.7-2.5-52.35,0-94.94,42.59-94.94,94.94s42.59,94.94,94.94,94.94h141.3c.55,0,1,.45,1,1s-.45,1-1,1h-141.3c-53.45,0-96.94-43.49-96.94-96.94s43.49-96.94,96.94-96.94c7.1,0,14.19.77,21.08,2.3,11.06-83.82,82.99-146.89,167.77-146.89,93.32,0,169.23,75.92,169.23,169.23,0,9.46-.79,18.96-2.35,28.25,2.44-.25,4.89-.38,7.33-.38,38.97,0,70.68,31.71,70.68,70.68s-31.71,70.68-70.68,70.68h-.01Z"/>
  <path class="st8" d="M1204.55,609.73c-.55,0-1-.45-1-1v-174.35l-53.3-53.3c-.39-.39-.39-1.02,0-1.41s1.02-.39,1.41,0l53.59,53.59c.19.19.29.44.29.71v174.76c0,.55-.45,1-1,1h.01Z"/>
  <circle class="st8" cx="1150.96" cy="380.38" r="11.11"/>
  <path class="st8" d="M1150.96,392.49c-6.68,0-12.11-5.43-12.11-12.11s5.43-12.11,12.11-12.11,12.11,5.43,12.11,12.11-5.43,12.11-12.11,12.11ZM1150.96,370.27c-5.58,0-10.11,4.54-10.11,10.11s4.54,10.11,10.11,10.11,10.11-4.54,10.11-10.11-4.54-10.11-10.11-10.11Z"/>
  <path class="st8" d="M1234.89,619.16c-.55,0-1-.45-1-1v-309.05c0-.55.45-1,1-1s1,.45,1,1v309.05c0,.55-.45,1-1,1Z"/>
  <circle class="st8" cx="1234.89" cy="309.11" r="11.11"/>
  <path class="st8" d="M1234.89,321.22c-6.68,0-12.11-5.43-12.11-12.11s5.43-12.11,12.11-12.11,12.11,5.43,12.11,12.11-5.43,12.11-12.11,12.11ZM1234.89,299c-5.58,0-10.11,4.54-10.11,10.11s4.54,10.11,10.11,10.11,10.11-4.54,10.11-10.11-4.54-10.11-10.11-10.11Z"/>
  <rect class="st7" x="831.22" y="479.83" width="211.32" height="34.33"/>
  <path d="M1043.53,479.84v34.33c0,.55-.45,1-1,1h-211.32c-.55,0-1-.45-1-1v-34.33c0-.55.45-1,1-1h211.32c.55,0,1,.45,1,1h0ZM832.21,513.17h209.32v-32.33h-209.32v32.33Z"/>
  <ellipse class="st3" cx="1018.51" cy="497" rx="9.08" ry="9.22"/>
  <path class="st3" d="M982.93,497c0,5.09,4.07,9.22,9.08,9.22s9.08-4.13,9.08-9.22-4.07-9.22-9.08-9.22-9.08,4.13-9.08,9.22Z"/>
  <ellipse class="st8" cx="965.51" cy="497" rx="9.08" ry="9.22"/>
  <rect class="st7" x="831.22" y="428.83" width="211.32" height="34.33"/>
  <path d="M1043.53,428.84v34.33c0,.55-.45,1-1,1h-211.32c-.55,0-1-.45-1-1v-34.33c0-.55.45-1,1-1h211.32c.55,0,1,.45,1,1h0ZM832.21,462.17h209.32v-32.33h-209.32v32.33h0Z"/>
  <g class="st9">
    <ellipse class="st8" cx="1018.51" cy="446" rx="9.08" ry="9.22"/>
    <path class="st8" d="M982.93,446c0,5.09,4.07,9.22,9.08,9.22s9.08-4.13,9.08-9.22-4.07-9.22-9.08-9.22-9.08,4.13-9.08,9.22Z"/>
    <ellipse class="st8" cx="965.51" cy="446" rx="9.08" ry="9.22"/>
  </g>
  <rect class="st7" x="831.22" y="241.83" width="211.32" height="34.33"/>
  <path d="M1043.53,241.84v34.33c0,.55-.45,1-1,1h-211.32c-.55,0-1-.45-1-1v-34.33c0-.55.45-1,1-1h211.32c.55,0,1,.45,1,1h0ZM832.21,275.17h209.32v-32.33h-209.32v32.33Z"/>
  <ellipse class="st3" cx="1018.51" cy="259" rx="9.08" ry="9.22"/>
  <path class="st4" d="M982.93,259c0,5.09,4.07,9.22,9.08,9.22s9.08-4.13,9.08-9.22-4.07-9.22-9.08-9.22-9.08,4.13-9.08,9.22Z"/>
  <ellipse class="st3" cx="965.51" cy="259" rx="9.08" ry="9.22"/>
  <rect class="st7" x="831.22" y="292.83" width="211.32" height="34.33"/>
  <path d="M1043.53,292.84v34.33c0,.55-.45,1-1,1h-211.32c-.55,0-1-.45-1-1v-34.33c0-.55.45-1,1-1h211.32c.55,0,1,.45,1,1h0ZM832.21,326.17h209.32v-32.33h-209.32v32.33h0Z"/>
  <g class="st10">
    <ellipse class="st8" cx="1018.51" cy="310" rx="9.08" ry="9.22"/>
    <path class="st8" d="M982.93,310c0,5.09,4.07,9.22,9.08,9.22s9.08-4.13,9.08-9.22-4.07-9.22-9.08-9.22-9.08,4.13-9.08,9.22Z"/>
    <path class="st8" d="M982.93,310c0,5.09,4.07,9.22,9.08,9.22s9.08-4.13,9.08-9.22-4.07-9.22-9.08-9.22-9.08,4.13-9.08,9.22Z"/>
    <path class="st8" d="M982.93,310c0,5.09,4.07,9.22,9.08,9.22s9.08-4.13,9.08-9.22-4.07-9.22-9.08-9.22-9.08,4.13-9.08,9.22Z"/>
    <ellipse class="st8" cx="965.51" cy="310" rx="9.08" ry="9.22"/>
  </g>
  <rect class="st7" x="831.22" y="91.83" width="211.32" height="34.33"/>
  <path d="M1043.53,91.84v34.33c0,.55-.45,1-1,1h-211.32c-.55,0-1-.45-1-1v-34.33c0-.55.45-1,1-1h211.32c.55,0,1,.45,1,1ZM832.21,125.17h209.32v-32.33h-209.32v32.33Z"/>
  <g class="st10">
    <ellipse class="st8" cx="1018.51" cy="109" rx="9.08" ry="9.22"/>
    <path class="st8" d="M982.93,109c0,5.09,4.07,9.22,9.08,9.22s9.08-4.13,9.08-9.22-4.07-9.22-9.08-9.22-9.08,4.13-9.08,9.22Z"/>
    <path class="st8" d="M982.93,109c0,5.09,4.07,9.22,9.08,9.22s9.08-4.13,9.08-9.22-4.07-9.22-9.08-9.22-9.08,4.13-9.08,9.22Z"/>
    <path class="st8" d="M982.93,109c0,5.09,4.07,9.22,9.08,9.22s9.08-4.13,9.08-9.22-4.07-9.22-9.08-9.22-9.08,4.13-9.08,9.22Z"/>
    <ellipse class="st8" cx="965.51" cy="109" rx="9.08" ry="9.22"/>
  </g>
  <rect class="st7" x="831.22" y="38.83" width="211.32" height="34.33"/>
  <path d="M1043.53,38.84v34.33c0,.55-.45,1-1,1h-211.32c-.55,0-1-.45-1-1v-34.33c0-.55.45-1,1-1h211.32c.55,0,1,.45,1,1ZM832.21,72.17h209.32v-32.33h-209.32v32.33Z"/>
  <ellipse class="st5" cx="1018.51" cy="56" rx="9.08" ry="9.22"/>
  <path class="st8" d="M982.93,56c0,5.09,4.07,9.22,9.08,9.22s9.08-4.13,9.08-9.22-4.07-9.22-9.08-9.22-9.08,4.13-9.08,9.22Z"/>
  <path class="st8" d="M982.93,56c0,5.09,4.07,9.22,9.08,9.22s9.08-4.13,9.08-9.22-4.07-9.22-9.08-9.22-9.08,4.13-9.08,9.22Z"/>
  <path class="st4" d="M982.93,56c0,5.09,4.07,9.22,9.08,9.22s9.08-4.13,9.08-9.22-4.07-9.22-9.08-9.22-9.08,4.13-9.08,9.22Z"/>
  <ellipse class="st4" cx="965.51" cy="56" rx="9.08" ry="9.22"/>
  <path class="st11" d="M1176.32,626.06c-2.89,0-5.74.18-8.54.52,1.68-9.55,2.56-19.37,2.56-29.4,0-92.91-75.32-168.23-168.23-168.23-85.76,0-156.52,64.17-166.92,147.1-7.04-1.65-14.39-2.52-21.93-2.52-52.99,0-95.94,42.95-95.94,95.94s42.95,95.94,95.94,95.94h363.06c38.48,0,69.68-31.2,69.68-69.68s-31.2-69.68-69.68-69.68h0Z"/>
  <polygon class="st7" points="1090.94 764.53 1090.94 677.38 1035.35 677.38 1035.35 764.53 1002.15 764.53 1063.14 831 1124.13 764.53 1090.94 764.53"/>
  <polygon class="st7" points="1012.92 657.72 1012.92 745.22 957.33 745.22 957.33 657.72 924.13 657.72 985.12 591.61 1046.12 657.72 1012.92 657.72"/>
  <rect class="st8" x="651.58" y="134.7" width="544.62" height="97.87" rx="17.71" ry="17.71"/>
  <g class="st1">
    <g class="st1">
      <path class="st12" d="M704.92,173.98c-1.43,0-2.72.27-3.87.82s-2.12,1.35-2.92,2.39c-.8,1.05-1.41,2.31-1.82,3.79-.42,1.48-.62,3.17-.62,5.06,0,2.49.35,4.63,1.05,6.41.7,1.78,1.75,3.13,3.17,4.07,1.41.93,3.18,1.4,5.31,1.4,1.56,0,3.07-.18,4.51-.55,1.45-.37,2.9-.83,4.37-1.4v6.48c-1.5.63-3.02,1.09-4.56,1.37s-3.27.42-5.16.42c-3.79,0-6.91-.76-9.35-2.27-2.44-1.51-4.26-3.65-5.44-6.41-1.18-2.76-1.77-5.95-1.77-9.58,0-2.69.37-5.16,1.12-7.41.75-2.25,1.85-4.18,3.32-5.81,1.46-1.63,3.26-2.89,5.39-3.79,2.13-.9,4.59-1.35,7.38-1.35,1.76,0,3.55.19,5.36.57,1.81.38,3.53.97,5.16,1.77l-2.49,6.08c-1.2-.56-2.47-1.05-3.82-1.47-1.35-.42-2.79-.62-4.32-.62Z"/>
    </g>
    <g class="st1">
      <path class="st12" d="M724.32,203.76v-35.61h7.63v29.33h14.42v6.29h-22.05Z"/>
    </g>
    <g class="st1">
      <path class="st12" d="M786.62,185.9c0,2.76-.34,5.26-1.02,7.51-.68,2.25-1.71,4.18-3.09,5.81-1.38,1.63-3.13,2.88-5.26,3.74s-4.66,1.3-7.58,1.3-5.41-.43-7.56-1.3c-2.15-.86-3.91-2.11-5.29-3.74-1.38-1.63-2.41-3.57-3.09-5.81-.68-2.24-1.02-4.76-1.02-7.56,0-3.69.61-6.9,1.82-9.63,1.21-2.73,3.08-4.85,5.59-6.36,2.51-1.51,5.71-2.27,9.6-2.27s7.04.76,9.55,2.27c2.51,1.51,4.36,3.64,5.56,6.38s1.8,5.96,1.8,9.65ZM760.73,185.9c0,2.46.31,4.59.92,6.38.62,1.8,1.59,3.17,2.92,4.12,1.33.95,3.03,1.42,5.09,1.42s3.85-.47,5.16-1.42c1.31-.95,2.27-2.32,2.87-4.12s.9-3.92.9-6.38c0-3.72-.68-6.65-2.05-8.78s-3.64-3.19-6.83-3.19c-2.09,0-3.81.48-5.14,1.45-1.33.96-2.3,2.34-2.92,4.12-.62,1.78-.92,3.92-.92,6.41Z"/>
      <path class="st12" d="M825.88,191.19c0,2.46-.54,4.68-1.62,6.66-1.08,1.98-2.71,3.54-4.89,4.69-2.18,1.15-4.93,1.72-8.25,1.72-4.72,0-8.31-1.21-10.77-3.62-2.46-2.41-3.69-5.59-3.69-9.55v-22.94h7.53v21.8c0,2.93.6,4.99,1.8,6.18s2.98,1.8,5.34,1.8c1.66,0,3.01-.28,4.04-.85,1.03-.57,1.79-1.45,2.27-2.64.48-1.2.72-2.71.72-4.54v-21.75h7.53v23.04Z"/>
      <path class="st12" d="M866.93,185.35c0,4.09-.77,7.5-2.29,10.22-1.53,2.73-3.68,4.77-6.46,6.14-2.78,1.36-6.09,2.04-9.95,2.04h-10.87v-35.61h11.77c3.76,0,6.96.66,9.6,1.97,2.64,1.31,4.67,3.25,6.08,5.81s2.12,5.7,2.12,9.43ZM858.95,185.65c0-2.56-.37-4.67-1.12-6.33-.75-1.66-1.87-2.9-3.37-3.72-1.5-.81-3.34-1.22-5.54-1.22h-3.94v23.09h3.19c3.66,0,6.37-.98,8.13-2.94,1.76-1.96,2.64-4.92,2.64-8.88Z"/>
      <path class="st12" d="M913.57,203.76h-20.5v-35.61h20.5v6.18h-12.97v7.83h12.07v6.18h-12.07v9.18h12.97v6.24Z"/>
      <path class="st12" d="M955.56,203.76h-9.58l-15.51-26.94h-.2c.07,1.13.12,2.26.17,3.39s.1,2.26.15,3.39c.05,1.13.09,2.26.12,3.39v16.76h-6.73v-35.61h9.53l15.46,26.69h.15c-.03-1.1-.07-2.19-.1-3.29s-.07-2.19-.12-3.27c-.05-1.08-.09-2.17-.12-3.27v-16.86h6.78v35.61Z"/>
      <path class="st12" d="M981.05,183.76h14.12v18.46c-1.86.63-3.8,1.13-5.81,1.5s-4.3.55-6.86.55c-3.52,0-6.53-.7-9-2.09-2.48-1.4-4.36-3.46-5.64-6.19s-1.92-6.08-1.92-10.08c0-3.72.72-6.95,2.17-9.68,1.45-2.73,3.55-4.84,6.31-6.33,2.76-1.5,6.13-2.25,10.12-2.25,1.9,0,3.76.2,5.59.6,1.83.4,3.49.93,4.99,1.6l-2.49,6.04c-1.1-.57-2.34-1.03-3.74-1.4s-2.86-.55-4.39-.55c-2.19,0-4.1.5-5.71,1.5-1.61,1-2.86,2.4-3.74,4.21-.88,1.81-1.32,3.95-1.32,6.41,0,2.33.32,4.39.95,6.18s1.63,3.2,2.99,4.21c1.36,1.01,3.14,1.52,5.34,1.52,1.06,0,1.97-.05,2.72-.15s1.44-.22,2.07-.35v-7.43h-6.73v-6.29Z"/>
      <path class="st12" d="M1019.96,203.76h-16.21v-4.29l4.34-2v-23.04l-4.34-2v-4.29h16.21v4.29l-4.34,2v23.04l4.34,2v4.29Z"/>
      <path class="st12" d="M1060.61,203.76h-9.58l-15.51-26.94h-.2c.07,1.13.12,2.26.17,3.39s.1,2.26.15,3.39c.05,1.13.09,2.26.12,3.39v16.76h-6.73v-35.61h9.53l15.46,26.69h.15c-.03-1.1-.07-2.19-.1-3.29-.03-1.1-.08-2.19-.12-3.27-.05-1.08-.09-2.17-.12-3.27v-16.86h6.78v35.61Z"/>
      <path class="st12" d="M1093.08,203.76h-20.5v-35.61h20.5v6.18h-12.97v7.83h12.07v6.18h-12.07v9.18h12.97v6.24Z"/>
      <path class="st12" d="M1124.01,203.76h-20.5v-35.61h20.5v6.18h-12.97v7.83h12.07v6.18h-12.07v9.18h12.97v6.24Z"/>
      <path class="st12" d="M1145.11,168.15c3.12,0,5.72.39,7.78,1.17,2.06.78,3.6,1.94,4.61,3.47,1.01,1.53,1.52,3.44,1.52,5.74,0,1.6-.28,3.01-.85,4.24-.57,1.23-1.33,2.28-2.29,3.14-.96.87-2.06,1.58-3.29,2.15l10.13,15.71h-8.73l-7.93-13.67h-4.24v13.67h-7.63v-35.61h10.92ZM1144.96,174.08h-3.14v10.13h3.14c2.03,0,3.59-.42,4.69-1.25,1.1-.83,1.65-2.2,1.65-4.09,0-1.06-.22-1.95-.67-2.64-.45-.7-1.14-1.23-2.07-1.6-.93-.37-2.13-.55-3.59-.55Z"/>
    </g>
  </g>
</svg>