<?xml version="1.0" encoding="UTF-8"?>
<svg id="Layer_2" data-name="Layer 2" xmlns="http://www.w3.org/2000/svg" viewBox="0 0 1012.31 741.26">
  <defs>
    <style>
      .cls-1 {
        font-size: 79.57px;
        letter-spacing: .06em;
        opacity: .7;
      }

      .cls-1, .cls-2 {
        font-family: NotoSans-Bold, 'Noto Sans';
        font-variation-settings: 'wght' 700, 'wdth' 100;
        font-weight: 700;
      }

      .cls-1, .cls-3 {
        fill: #697282;
      }

      .cls-4 {
        fill: #fff;
      }

      .cls-5 {
        fill: #f60;
      }

      .cls-2 {
        fill: #0a0a0a;
        font-size: 34.6px;
      }

      .cls-6 {
        opacity: .5;
      }

      .cls-7 {
        fill: #e2e9fc;
      }

      .cls-8 {
        letter-spacing: 0em;
      }

      .cls-9 {
        letter-spacing: .06em;
      }

      .cls-10 {
        letter-spacing: .06em;
      }

      .cls-11 {
        letter-spacing: .04em;
      }
    </style>
  </defs>
  <g id="Layer_1-2" data-name="Layer 1">
    <path class="cls-3" d="M775.6,206.36c-3.02,0-5.99.19-8.9.54,1.75-9.96,2.67-20.2,2.67-30.66C769.37,79.36,690.83.81,593.93.81c-89.43,0-163.23,66.91-174.07,153.41-7.35-1.72-15-2.63-22.87-2.63-55.26,0-100.05,44.79-100.05,100.05s44.79,100.05,100.05,100.05h378.61c40.13,0,72.66-32.53,72.66-72.66s-32.53-72.66-72.66-72.66Z"/>
    <path d="M775.6,352.5h-378.61c-55.62,0-100.86-45.25-100.86-100.86s45.25-100.86,100.86-100.86c7.48,0,14.93.82,22.18,2.45C430.58,65.81,505.55,0,593.93,0c47.08,0,91.34,18.33,124.63,51.62,33.29,33.29,51.62,77.55,51.62,124.63,0,9.96-.84,19.95-2.5,29.73,2.63-.28,5.29-.43,7.92-.43,40.51,0,73.48,32.96,73.48,73.48s-32.96,73.48-73.48,73.48ZM397,152.4c-54.72,0-99.24,44.52-99.24,99.24s44.52,99.24,99.24,99.24h378.61c39.62,0,71.85-32.23,71.85-71.85s-32.23-71.85-71.85-71.85c-2.92,0-5.89.18-8.81.54-.26.03-.51-.06-.69-.25-.18-.19-.26-.45-.21-.7,1.77-10.02,2.66-20.29,2.66-30.52,0-96.29-78.34-174.63-174.63-174.63-87.87,0-162.35,65.64-173.26,152.69-.03.23-.15.43-.34.57-.19.13-.42.18-.65.12-7.4-1.73-15.03-2.61-22.69-2.61Z"/>
    <g>
      <g>
        <circle class="cls-5" cx="297.85" cy="441.77" r="106.46" transform="translate(-225.14 340) rotate(-45)"/>
        <path d="M297.85,549.04c-59.15,0-107.27-48.12-107.27-107.27s48.12-107.27,107.27-107.27,107.27,48.12,107.27,107.27-48.12,107.27-107.27,107.27ZM297.85,336.12c-58.25,0-105.65,47.39-105.65,105.65s47.39,105.65,105.65,105.65,105.65-47.39,105.65-105.65-47.39-105.65-105.65-105.65Z"/>
      </g>
      <path d="M303.26,509.65s-.04,0-.06,0c-49.69-3.6-61.38-28.49-61.85-29.55-.18-.41,0-.89.41-1.07.41-.18.89,0,1.07.41.11.25,11.86,25.07,60.49,28.6.45.03.78.42.75.87-.03.43-.39.75-.81.75Z"/>
      <g>
        <path class="cls-4" d="M169.8,655.99c-.11,0-.23-.02-.34-.07-.41-.19-.59-.67-.4-1.07l59.83-131.67c.19-.41.67-.59,1.07-.4.41.19.59.67.4,1.07l-59.83,131.67c-.14.3-.43.48-.74.48Z"/>
        <circle class="cls-4" cx="166.16" cy="665.1" r="7.66" transform="translate(-421.63 312.3) rotate(-45)"/>
      </g>
      <g>
        <path class="cls-4" d="M425.89,655.99c-.31,0-.6-.18-.74-.48l-59.83-131.67c-.19-.41,0-.89.4-1.07.41-.18.89,0,1.07.4l59.83,131.67c.19.41,0,.89-.4,1.07-.11.05-.22.07-.34.07Z"/>
        <path class="cls-4" d="M421.87,665.1c0,4.23,3.43,9.51,7.66,9.51s7.66-5.28,7.66-9.51-3.43-7.66-7.66-7.66-7.66,3.43-7.66,7.66Z"/>
      </g>
    </g>
    <path class="cls-5" d="M364.75,214.76c2.99-9.18,7.95-18.17,4.32-28.63-3.69-10.64-8.4-18.53-18.95-22.47-12.81-4.8-27.24.81-38.46,8.62-11.22,7.82-20.94,17.95-33.26,23.88-8.75,4.21-18.4,6.1-27.77,8.63-9.38,2.53-18.85,5.9-26.05,12.41-7.2,6.52-11.66,16.85-8.85,26.15-17.01,3.94-32.23,16.56-37.39,33.23-5.16,16.67,1.07,36.75,15.83,46.07,10.44,6.6,23.47,7.45,35.81,6.96,12.34-.49,24.83-2.12,36.96.21,11.29,2.17,21.92,7.72,33.4,8.2,19.18.8,35.98-12.56,48.77-26.88,6.44-7.21,12.64-15.48,13.36-25.12.61-8.25,10.15-16.97,5.06-23.66.58-8.9-13.5-14.65-2.78-47.61Z"/>
    <g>
      <g>
        <g>
          <path class="cls-4" d="M412.98,271.46l19.7-18.28,38.22-3.19s23.33-44.87,29.4-57.55c6.06-12.68,12.38-27.43,23.55-21.88,0,0,10.6-4.23,14.33,5.46,0,0,6.12-1.19,12.27,7.16,6.15,8.35,5.37,13.15,2.24,16.18-3.13,3.03-12.51-6.11-12.51-6.11l-4.78,5.28c-1.21,1.33-1.51,3.28-.69,4.89,1.13,2.23,3.3,4.84,7.12,4.4,5.16-.59,10.05-2.37,12.86.48,1.37,1.39,1.12,3.69-.5,4.78-3.9,2.6-12.33,7.9-20.55,10.9,0,0-4.02,16.24-8.96,34.19-7.5,27.29-30.57,47.48-58.62,51.29l-23.57,3.2-29.5-41.2Z"/>
          <path d="M442.48,313.48c-.26,0-.51-.12-.66-.34l-29.5-41.2c-.24-.33-.19-.79.11-1.07l19.7-18.28c.13-.12.3-.2.48-.21l37.77-3.15c2.33-4.48,23.49-45.24,29.18-57.13l.88-1.85c4.41-9.27,8.97-18.86,15.66-21.17,2.47-.85,5.08-.64,7.78.62,1.26-.43,5.65-1.7,9.63.04,2.31,1.01,4.04,2.84,5.18,5.44,1.84-.08,7.14.4,12.41,7.55,5.59,7.59,6.29,13.23,2.15,17.25-3.2,3.1-10.49-3.16-13.04-5.53l-4.22,4.66c-.99,1.1-1.22,2.69-.57,3.97,1.5,2.94,3.62,4.27,6.3,3.97,1.14-.13,2.28-.32,3.37-.5,3.95-.66,7.68-1.29,10.15,1.22.82.83,1.22,1.98,1.1,3.14-.12,1.17-.75,2.22-1.73,2.88-4.16,2.77-12.26,7.83-20.32,10.84-.66,2.66-4.41,17.62-8.86,33.79-7.6,27.65-30.87,48.02-59.29,51.88l-23.57,3.2s-.07,0-.11,0ZM414.05,271.57l28.8,40.23,23.08-3.14c27.77-3.78,50.52-23.68,57.95-50.7,4.88-17.74,8.91-34,8.95-34.17.07-.26.26-.47.51-.57,8.03-2.93,16.22-8.04,20.38-10.82.58-.38.95-1,1.02-1.69.07-.68-.16-1.35-.64-1.84-1.88-1.91-5.05-1.37-8.73-.76-1.12.19-2.28.38-3.46.52-3.34.38-6.15-1.34-7.93-4.84-.96-1.88-.63-4.21.81-5.8l4.78-5.28c.15-.16.36-.26.58-.27.23,0,.43.08.59.23,3.66,3.57,9.62,7.82,11.38,6.11,3.46-3.36,2.7-8.3-2.33-15.12-5.73-7.78-11.24-6.89-11.47-6.85-.38.07-.77-.14-.91-.51-.96-2.49-2.49-4.21-4.55-5.11-3.98-1.74-8.68.09-8.73.11-.21.09-.46.08-.66-.03-2.44-1.21-4.68-1.44-6.85-.69-6.05,2.09-10.46,11.37-14.72,20.34l-.88,1.85c-6,12.54-29.17,57.12-29.41,57.57-.13.25-.37.41-.65.43l-37.94,3.17-18.97,17.6Z"/>
        </g>
        <path d="M518.84,186.56c-.22,0-.45-.09-.61-.27-.3-.34-.27-.85.07-1.15,5.43-4.81,12.04-8.17,19.12-9.73.44-.1.87.18.97.62.1.44-.18.87-.62.97-6.81,1.5-13.17,4.74-18.39,9.36-.15.14-.35.2-.54.2Z"/>
        <path d="M509,186.85c-.15,0-.3-.04-.44-.13-.38-.24-.49-.74-.25-1.12,3.82-5.97,8.66-11.12,14.38-15.31.36-.27.87-.19,1.13.17.27.36.19.87-.17,1.13-5.55,4.07-10.25,9.08-13.97,14.88-.15.24-.42.37-.68.37Z"/>
      </g>
      <g>
        <path class="cls-4" d="M432.67,253.18l12.01,63.18-63.67,9.81.25,45.66,17.03,29.36-137.58-3.53-3.08-38.82-50.04,1.14s4.09-21.89,9.4-44.84c6.41-27.68,29.5-48.42,57.72-51.68,9.93-1.15,21.37-2.07,34.23-2.49,50.98-1.67,123.74-7.77,123.74-7.77Z"/>
        <path d="M398.29,402s-.01,0-.02,0l-137.58-3.53c-.41-.01-.76-.33-.79-.75l-3.02-38.06-49.27,1.12c-.24.01-.48-.1-.64-.29-.16-.19-.22-.43-.18-.67.04-.22,4.15-22.17,9.41-44.87,6.49-28,29.96-49.02,58.42-52.31,11.02-1.27,22.55-2.11,34.29-2.5,50.38-1.65,122.97-7.71,123.69-7.77.41-.03.79.25.87.66l12.01,63.18c.04.22,0,.44-.13.62-.13.18-.32.3-.54.33l-62.98,9.7.24,44.74,16.92,29.18c.15.25.15.57,0,.82-.15.25-.41.4-.7.4ZM261.46,396.87l135.39,3.48-16.3-28.11c-.07-.12-.11-.26-.11-.4l-.25-45.66c0-.4.29-.75.69-.81l62.84-9.68-11.71-61.63c-7.76.64-75.35,6.15-123.05,7.72-11.69.38-23.19,1.22-34.16,2.49-27.77,3.21-50.69,23.73-57.02,51.06-4.62,19.95-8.35,39.3-9.21,43.82l49.04-1.12c.42-.03.79.32.83.75l3.02,38.1Z"/>
      </g>
      <g>
        <path class="cls-3" d="M262.63,321.43l31.73-21.5,35.47,12.78,32.29-21.99,19.14,15.36s9.54,40.01,10.29,62.4c0,0-48.58,19.12-128.92,10.24v-57.28Z"/>
        <path class="cls-3" d="M293.53,298.29c-.44,0-.8-.34-.81-.78-.43-12.08-2.7-23.99-6.76-35.38-.15-.42.07-.89.49-1.04.42-.15.89.07,1.04.49,4.12,11.55,6.42,23.62,6.86,35.87.02.45-.33.82-.78.84,0,0-.02,0-.03,0Z"/>
        <path class="cls-3" d="M361.58,290.12s-.04,0-.06,0c-.45-.03-.78-.42-.75-.87.79-10.45-.73-21.17-4.38-31-.16-.42.06-.89.48-1.04.42-.15.89.06,1.04.48,3.73,10.04,5.28,21,4.47,31.69-.03.43-.39.75-.81.75Z"/>
      </g>
      <g>
        <path class="cls-4" d="M207.59,359.97l-3.79,25.76c-1.91,12.99,8.31,24.59,21.44,24.32l159.38-3.23s-3.43-38.71-36.2-40.39c-33.86-1.73-85.79,1.89-85.79,1.89l-.07-9.5-54.97,1.14Z"/>
        <path d="M207.59,360.79c-.44,0-.8-.35-.81-.79,0-.45.35-.82.79-.83l54.97-1.14c.44,0,.82.35.83.79,0,.45-.35.82-.8.83l-54.97,1.14h-.02Z"/>
        <path d="M224.79,410.87c-6.32,0-12.32-2.71-16.52-7.47-4.3-4.88-6.22-11.36-5.27-17.79l3.79-25.76c.07-.44.48-.75.92-.68.44.07.75.48.68.92l-3.79,25.76c-.88,5.96.9,11.96,4.89,16.48,3.98,4.52,9.71,7.04,15.73,6.91h158.5c-.48-4.28-3.2-23.23-14.35-33.48-.33-.3-.35-.82-.05-1.15.3-.33.82-.35,1.15-.05,13.04,11.97,14.89,34.47,14.96,35.42.02.23-.06.45-.21.61-.15.17-.37.26-.6.26h-159.38c-.15,0-.3,0-.45,0Z"/>
        <path d="M248.76,370.11c-.42,0-.78-.33-.81-.76-.03-.45.31-.84.75-.87l13.87-.97c.44-.03.84.31.87.75.03.45-.31.84-.75.87l-13.87.97s-.04,0-.06,0Z"/>
        <path d="M359.83,406.39s-.03,0-.04,0c-.45-.02-.79-.41-.77-.85.27-5.08-2.52-10.18-6.94-12.69-3.23-1.83-7.04-2.3-10.66-2.62-6.64-.59-13.39-.76-20.05-.5-.46.01-.83-.33-.84-.78-.02-.45.33-.83.78-.84,6.73-.26,13.55-.09,20.26.5,3.64.32,7.81.84,11.32,2.83,4.95,2.81,8.07,8.51,7.76,14.19-.02.43-.38.77-.81.77Z"/>
        <path d="M371.09,405.04s-.01,0-.02,0c-.45-.01-.8-.38-.79-.83.16-6.3-2.03-12.72-6-17.61-3.97-4.89-9.8-8.36-15.99-9.5-.44-.08-.73-.51-.65-.95.08-.44.5-.73.95-.65,6.57,1.22,12.75,4.89,16.96,10.08,4.21,5.19,6.52,12,6.36,18.67-.01.44-.37.79-.81.79Z"/>
      </g>
    </g>
    <g>
      <g>
        <path class="cls-4" d="M322.83,222.86l-19.19,37.04-10.52,1.98s12.62,14.44,34.96,12.44c22.33-2,21.1-15.24,21.1-15.24l-14.85-1.11,9.34-21.67-20.84-13.43Z"/>
        <path d="M323.92,275.31c-19.88,0-31.28-12.76-31.4-12.9-.19-.22-.25-.52-.16-.8.1-.28.33-.48.62-.53l10.13-1.91,19.01-36.69c.1-.2.29-.35.51-.41.22-.06.46-.02.65.1l20.84,13.43c.33.21.46.64.31,1l-8.89,20.63,13.71,1.03c.39.03.71.34.75.73.02.17.36,4.28-3.06,8.38-3.62,4.35-9.94,6.95-18.78,7.75-1.45.13-2.87.19-4.24.19ZM294.78,262.39c3.42,3.24,15.14,12.74,33.23,11.11,8.4-.75,14.34-3.16,17.68-7.17,2.21-2.66,2.62-5.3,2.69-6.51l-14.1-1.06c-.26-.02-.5-.16-.63-.39s-.15-.5-.05-.74l9.07-21.04-19.51-12.57-18.78,36.25c-.11.22-.32.38-.57.42l-9.02,1.7ZM303.64,259.9h0,0Z"/>
      </g>
      <g>
        <g>
          <path class="cls-4" d="M321.16,230.12s8.86,14.16,22.59,10.9c13.73-3.26,11.83-17.23,10.44-28.32-1.39-11.09-3.77-26.57-3.77-26.57,0,0-21.79.92-25.38,9.39-3.59,8.47,6.16,16.78,0,21.07-6.16,4.29-5.39-10.89-13.34-4.56-6.7,5.33-3.14,18.31,9.47,18.09Z"/>
          <path d="M339.69,242.31c-10.5,0-17.56-9.35-18.97-11.38-7.11-.05-11.12-4.15-12.51-8.03-1.53-4.26-.33-8.88,2.97-11.51,1.73-1.37,3.24-1.92,4.62-1.69,2,.34,3.2,2.27,4.26,3.96.85,1.37,1.66,2.66,2.64,2.86.52.1,1.13-.09,1.86-.6,2.58-1.8,1.91-4.28.5-8.51-1.23-3.69-2.63-7.87-.78-12.21,3.75-8.84,25.18-9.84,26.09-9.88.4-.01.77.28.84.69.02.15,2.39,15.61,3.77,26.59l.04.33c1.35,10.76,3.2,25.49-11.1,28.88-1.47.35-2.88.5-4.24.5ZM321.16,229.3c.28,0,.54.14.69.38.09.14,8.72,13.62,21.71,10.54,12.88-3.06,11.28-15.83,9.86-27.1l-.04-.33c-1.2-9.59-3.17-22.61-3.65-25.81-3.76.25-20.95,1.79-23.94,8.85-1.6,3.77-.31,7.65.83,11.06,1.33,4,2.59,7.77-1.11,10.36-1.12.78-2.14,1.06-3.11.86-1.66-.34-2.69-1.99-3.69-3.59-.92-1.48-1.88-3-3.16-3.22-.89-.15-2.01.31-3.34,1.36-2.8,2.23-3.76,6.03-2.45,9.69,1.59,4.45,5.86,7.06,11.4,6.95h.01Z"/>
        </g>
        <path d="M321.33,226.59c-.28,0-.55-.14-.7-.4-.79-1.36-1.61-2.77-2.72-3.85-1.16-1.13-2.55-1.75-3.81-1.69-.44.02-.83-.33-.85-.78-.02-.45.33-.83.78-.85,1.71-.07,3.54.71,5.02,2.15,1.27,1.24,2.14,2.74,2.99,4.2.23.39.09.88-.29,1.11-.13.07-.27.11-.41.11Z"/>
      </g>
    </g>
    <g>
      <polygon class="cls-7" points="521.91 409.25 419.87 409.25 453.77 315.98 555.81 315.98 521.91 409.25"/>
      <polygon class="cls-7" points="374.39 398.11 526.33 398.11 521.91 410.06 369.24 410.06 374.39 398.11"/>
    </g>
    <g>
      <g>
        <g>
          <path class="cls-4" d="M509.37,674.6h-121.73c-16.29,0-27.51-17.63-21.63-32.82l68.41-176.84h126.2l-68.23,176.35,21.11,22.46c3.41,3.63.84,10.86-4.15,10.86Z"/>
          <path d="M509.37,675.42h-121.73c-7.77,0-14.86-3.85-19.46-10.57-4.79-6.98-5.88-15.72-2.92-23.36l68.41-176.84c.12-.31.42-.52.76-.52h126.2c.27,0,.52.13.67.35.15.22.18.5.09.75l-68.04,175.88,20.76,22.08c1.9,2.02,2.32,5.17,1.08,8.04-1.12,2.58-3.35,4.19-5.82,4.19ZM434.98,465.75l-68.21,176.32c-2.76,7.15-1.74,15.32,2.75,21.86,4.29,6.27,10.9,9.86,18.12,9.86h121.73c1.84,0,3.46-1.2,4.33-3.21.8-1.86.88-4.52-.78-6.28l-21.11-22.46c-.21-.23-.28-.56-.17-.85l67.8-175.25h-124.46Z"/>
        </g>
        <path d="M492.16,641.91h-106.55c-.45,0-.81-.36-.81-.81s.36-.81.81-.81h106.55c.45,0,.81.36.81.81s-.36.81-.81.81Z"/>
      </g>
      <g>
        <g>
          <path class="cls-4" d="M265.41,410.06l11.07,28.78c12.86,35.82,46.82,59.71,84.87,59.71h107.07l78.44,160.66c4.6,9.42,14.17,15.4,24.66,15.4h127.86c3.62,0,5.12-4.63,2.2-6.75l-34.18-24.89-74.75-173.16c-15.45-36.23-51.04-59.74-90.43-59.74h-236.81Z"/>
          <path d="M699.38,675.42h-127.86c-10.72,0-20.68-6.22-25.38-15.86l-78.22-160.2h-106.56c-38.29,0-72.7-24.21-85.64-60.25l-11.07-28.76c-.1-.25-.06-.53.09-.75.15-.22.4-.35.67-.35h236.81c39.78,0,75.57,23.64,91.18,60.23l74.66,172.95,34,24.76c1.62,1.18,2.27,3.18,1.65,5.08-.62,1.91-2.32,3.14-4.32,3.14ZM266.6,410.87l10.65,27.67c12.71,35.41,46.51,59.19,84.12,59.19h107.07c.31,0,.59.18.73.46l78.44,160.66c4.43,9.08,13.82,14.94,23.93,14.94h127.86c1.56,0,2.46-1.04,2.78-2.02.32-.98.21-2.35-1.06-3.27l-34.18-24.89c-.12-.09-.21-.2-.27-.33l-74.75-173.16c-15.35-35.99-50.56-59.25-89.69-59.25h-235.63Z"/>
        </g>
        <path d="M667.4,643.77h-106.78c-.45,0-.81-.36-.81-.81s.36-.81.81-.81h106.78c.45,0,.81.36.81.81s-.36.81-.81.81Z"/>
      </g>
    </g>
    <path d="M947.29,397.78c-.45,0-.81-.36-.81-.81v-247.8h-55.23c-.45,0-.81-.36-.81-.81s.36-.81.81-.81h56.04c.45,0,.81.36.81.81v248.61c0,.45-.36.81-.81.81Z"/>
    <path class="cls-5" d="M947.29,675.42H304.63c-.45,0-.81-.36-.81-.81s.36-.81.81-.81h641.85v-20.24c0-.45.36-.81.81-.81s.81.36.81.81v21.05c0,.45-.36.81-.81.81Z"/>
    <path d="M176.56,377.11H.81c-.45,0-.81-.36-.81-.81v-174.32c0-.45.36-.81.81-.81h75.26c.45,0,.81.36.81.81s-.36.81-.81.81H1.62v172.7h174.94c.45,0,.81.36.81.81s-.36.81-.81.81Z"/>
    <g>
      <path class="cls-4" d="M.81,166.89c0,4.8,3.88,8.69,8.66,8.69h254.77c4.78,0,8.66-3.89,8.66-8.69v-3.19l-6.41-3.35H2.91l-2.1,3.35v3.19Z"/>
      <path d="M264.25,176.4H9.47c-5.22,0-9.47-4.26-9.47-9.5,0-.45.36-.81.81-.81s.81.36.81.81c0,4.35,3.52,7.88,7.85,7.88h254.77c4.33,0,7.85-3.54,7.85-7.88,0-.45.36-.81.81-.81s.81.36.81.81c0,5.24-4.25,9.5-9.47,9.5Z"/>
      <g>
        <path class="cls-4" d="M87.19,175.59v14.23c0,6.72,5.44,12.16,12.16,12.16h75.01c6.72,0,12.16-5.44,12.16-12.16v-14.23h-99.33Z"/>
        <path d="M174.37,202.79h-75.01c-7.15,0-12.97-5.82-12.97-12.97v-14.23c0-.45.36-.81.81-.81h99.33c.45,0,.81.36.81.81v14.23c0,7.15-5.82,12.97-12.97,12.97ZM88,176.4v13.42c0,6.26,5.09,11.35,11.35,11.35h75.01c6.26,0,11.35-5.09,11.35-11.35v-13.42h-97.71Z"/>
      </g>
      <g>
        <path class="cls-4" d="M258.56.81H15.16C7.23.81.81,7.23.81,15.16v148.55h272.09V15.16c0-7.92-6.42-14.35-14.35-14.35Z"/>
        <path d="M272.91,164.52H.81c-.45,0-.81-.36-.81-.81V15.16C0,6.8,6.8,0,15.16,0h243.4c8.36,0,15.16,6.8,15.16,15.16v148.55c0,.45-.36.81-.81.81ZM1.62,162.9h270.47V15.16c0-7.46-6.07-13.53-13.53-13.53H15.16C7.7,1.62,1.62,7.7,1.62,15.16v147.74Z"/>
      </g>
      <path d="M66.55-44.49h142.43v253.51H66.55c-1,0-1.81-.81-1.81-1.81V-42.68c0-1,.81-1.81,1.81-1.81Z" transform="translate(219.12 -54.6) rotate(90)"/>
    </g>
    <g>
      <g>
        <rect class="cls-4" x="718.43" y="407.99" width="259.67" height="198.27" rx="15.46" ry="15.46"/>
        <path d="M962.64,607.07h-228.75c-8.97,0-16.27-7.3-16.27-16.27v-167.36c0-8.97,7.3-16.27,16.27-16.27h228.75c8.97,0,16.27,7.3,16.27,16.27v167.36c0,8.97-7.3,16.27-16.27,16.27ZM733.89,408.8c-8.08,0-14.65,6.57-14.65,14.65v167.36c0,8.08,6.57,14.65,14.65,14.65h228.75c8.08,0,14.65-6.57,14.65-14.65v-167.36c0-8.08-6.57-14.65-14.65-14.65h-228.75Z"/>
      </g>
      <rect x="726.3" y="415.85" width="243.94" height="182.54" rx="7.59" ry="7.59"/>
      <g>
        <path class="cls-4" d="M992.09,625.41h-287.64c-10.72,0-19.41-8.69-19.41-19.41h326.46c0,10.72-8.69,19.41-19.41,19.41Z"/>
        <path d="M992.09,626.22h-287.64c-11.15,0-20.23-9.07-20.23-20.22,0-.45.36-.81.81-.81h326.47c.45,0,.81.36.81.81,0,11.15-9.07,20.22-20.22,20.22ZM685.86,606.81c.43,9.88,8.6,17.79,18.58,17.79h287.64c9.98,0,18.16-7.91,18.58-17.79h-324.81Z"/>
      </g>
    </g>
    <g>
      <g>
        <rect class="cls-4" x="700.22" y=".81" width="184.92" height="54.42" rx="13.44" ry="13.44"/>
        <path d="M871.7,56.05h-158.04c-7.86,0-14.25-6.39-14.25-14.25V14.25c0-7.86,6.39-14.25,14.25-14.25h158.04c7.86,0,14.25,6.39,14.25,14.25v27.54c0,7.86-6.39,14.25-14.25,14.25ZM713.66,1.62c-6.96,0-12.63,5.67-12.63,12.63v27.54c0,6.96,5.67,12.63,12.63,12.63h158.04c6.96,0,12.63-5.67,12.63-12.63V14.25c0-6.96-5.67-12.63-12.63-12.63h-158.04Z"/>
      </g>
      <g class="cls-6">
        <circle class="cls-5" cx="856.91" cy="28.02" r="8.4"/>
        <path class="cls-5" d="M728.45,36.42h98.97c4.64,0,8.4-3.76,8.4-8.4s-3.76-8.4-8.4-8.4h-98.97c-4.64,0-8.4,3.76-8.4,8.4s3.76,8.4,8.4,8.4Z"/>
      </g>
    </g>
    <g>
      <g>
        <rect class="cls-4" x="700.22" y="61.09" width="184.92" height="54.42" rx="13.44" ry="13.44"/>
        <path d="M871.7,116.33h-158.04c-7.86,0-14.25-6.39-14.25-14.25v-27.54c0-7.86,6.39-14.25,14.25-14.25h158.04c7.86,0,14.25,6.39,14.25,14.25v27.54c0,7.86-6.39,14.25-14.25,14.25ZM713.66,61.9c-6.96,0-12.63,5.67-12.63,12.63v27.54c0,6.96,5.67,12.63,12.63,12.63h158.04c6.96,0,12.63-5.67,12.63-12.63v-27.54c0-6.96-5.67-12.63-12.63-12.63h-158.04Z"/>
      </g>
      <g>
        <g>
          <circle class="cls-4" cx="856.91" cy="88.3" r="8.4"/>
          <path d="M856.91,97.51c-5.08,0-9.21-4.13-9.21-9.21s4.13-9.21,9.21-9.21,9.21,4.13,9.21,9.21-4.13,9.21-9.21,9.21ZM856.91,80.72c-4.18,0-7.58,3.4-7.58,7.58s3.4,7.58,7.58,7.58,7.58-3.4,7.58-7.58-3.4-7.58-7.58-7.58Z"/>
        </g>
        <g>
          <path class="cls-4" d="M728.45,96.7h98.97c4.64,0,8.4-3.76,8.4-8.4s-3.76-8.4-8.4-8.4h-98.97c-4.64,0-8.4,3.76-8.4,8.4s3.76,8.4,8.4,8.4Z"/>
          <path d="M827.42,97.51h-98.97c-5.08,0-9.21-4.13-9.21-9.21s4.13-9.21,9.21-9.21h98.97c5.08,0,9.21,4.13,9.21,9.21s-4.13,9.21-9.21,9.21ZM728.45,80.72c-4.18,0-7.58,3.4-7.58,7.58s3.4,7.58,7.58,7.58h98.97c4.18,0,7.58-3.4,7.58-7.58s-3.4-7.58-7.58-7.58h-98.97Z"/>
        </g>
      </g>
    </g>
    <g>
      <g>
        <rect class="cls-4" x="700.22" y="121.37" width="184.92" height="54.42" rx="13.44" ry="13.44"/>
        <path d="M871.7,176.61h-158.04c-7.86,0-14.25-6.39-14.25-14.25v-27.54c0-7.86,6.39-14.25,14.25-14.25h158.04c7.86,0,14.25,6.39,14.25,14.25v27.54c0,7.86-6.39,14.25-14.25,14.25ZM713.66,122.18c-6.96,0-12.63,5.67-12.63,12.63v27.54c0,6.96,5.67,12.63,12.63,12.63h158.04c6.96,0,12.63-5.67,12.63-12.63v-27.54c0-6.96-5.67-12.63-12.63-12.63h-158.04Z"/>
      </g>
      <g>
        <g>
          <circle class="cls-4" cx="856.91" cy="148.58" r="8.4"/>
          <path d="M856.91,157.79c-5.08,0-9.21-4.13-9.21-9.21s4.13-9.21,9.21-9.21,9.21,4.13,9.21,9.21-4.13,9.21-9.21,9.21ZM856.91,141c-4.18,0-7.58,3.4-7.58,7.58s3.4,7.58,7.58,7.58,7.58-3.4,7.58-7.58-3.4-7.58-7.58-7.58Z"/>
        </g>
        <g>
          <path class="cls-4" d="M728.45,156.98h98.97c4.64,0,8.4-3.76,8.4-8.4s-3.76-8.4-8.4-8.4h-98.97c-4.64,0-8.4,3.76-8.4,8.4s3.76,8.4,8.4,8.4Z"/>
          <path d="M827.42,157.79h-98.97c-5.08,0-9.21-4.13-9.21-9.21s4.13-9.21,9.21-9.21h98.97c5.08,0,9.21,4.13,9.21,9.21s-4.13,9.21-9.21,9.21ZM728.45,141c-4.18,0-7.58,3.4-7.58,7.58s3.4,7.58,7.58,7.58h98.97c4.18,0,7.58-3.4,7.58-7.58s-3.4-7.58-7.58-7.58h-98.97Z"/>
        </g>
      </g>
    </g>
    <g>
      <g>
        <circle class="cls-5" cx="560.63" cy="205.18" r="13.89"/>
        <path class="cls-5" d="M560.63,181.78c-.45,0-.81-.36-.81-.81V56.05h-265.72c-.45,0-.81-.36-.81-.81s.36-.81.81-.81h266.53c.45,0,.81.36.81.81v125.74c0,.45-.36.81-.81.81Z"/>
      </g>
      <circle class="cls-5" cx="733.94" cy="274.5" r="13.89"/>
      <path class="cls-5" d="M885.14,397.78c-.45,0-.81-.36-.81-.81v-121.65h-323.7c-.45,0-.81-.36-.81-.81v-44.2c0-.45.36-.81.81-.81s.81.36.81.81v43.39h323.7c.45,0,.81.36.81.81v122.47c0,.45-.36.81-.81.81Z"/>
      <path class="cls-5" d="M650.63,205.99h-67.62c-.45,0-.81-.36-.81-.81s.36-.81.81-.81h66.81v-116.07c0-.45.36-.81.81-.81h40.27c.45,0,.81.36.81.81s-.36.81-.81.81h-39.46v116.07c0,.45-.36.81-.81.81Z"/>
    </g>
    <g>
      <circle class="cls-5" cx="88.69" cy="527.5" r="13.89"/>
      <path class="cls-5" d="M680.17,606.42H166.79c-.22,0-.42-.09-.57-.24l-78.1-78.1c-.15-.15-.24-.36-.24-.57V213.82c0-.45.36-.81.81-.81s.81.36.81.81v313.35l77.63,77.63h513.05c.45,0,.81.36.81.81s-.36.81-.81.81Z"/>
      <circle class="cls-5" cx="88.69" cy="304.61" r="13.89"/>
    </g>
    <rect class="cls-5" x="203.67" y="638.15" width="347.95" height="103.11" rx="11.79" ry="11.79"/>
    <text class="cls-2" transform="translate(240.46 686.05)"><tspan class="cls-11" x="0" y="0">D</tspan><tspan class="cls-8" x="26.71" y="0">AT</tspan><tspan class="cls-9" x="69.92" y="0">A SCIENCE </tspan><tspan class="cls-10"><tspan x="2.06" y="35.52">/ AI ENGINEER</tspan></tspan></text>
    <text class="cls-1" transform="translate(91.47 106.98)"><tspan x="0" y="0">AI</tspan></text>
  </g>
</svg>