<?xml version="1.0" encoding="UTF-8"?>
<svg id="Layer_2" xmlns="http://www.w3.org/2000/svg" version="1.1" viewBox="0 0 1221.57 837.51">
  <!-- Generator: Adobe Illustrator 29.5.1, SVG Export Plug-In . SVG Version: 2.1.0 Build 141)  -->
  <defs>
    <style>
      .st0, .st1 {
        isolation: isolate;
      }

      .st2 {
        fill: #fff;
      }

      .st3 {
        fill: #f60;
      }

      .st4, .st1 {
        fill: #697282;
      }

      .st5 {
        fill: #e2e9fc;
      }

      .st6 {
        fill: #0a0a0a;
      }

      .st1 {
        opacity: .47;
      }
    </style>
  </defs>
  <path class="st4" d="M1179.1,625.99h-357.11c-.55,0-.99-.44-.99-.99s.44-.99.99-.99h357.11c13.78,0,25-11.21,25-25V84c0-13.78-11.21-25-25-25h-157.33c-.55,0-.99-.44-.99-.99s.44-.99.99-.99h157.33c14.87,0,26.98,12.1,26.98,26.98v515.02c0,14.87-12.1,26.98-26.98,26.98h0Z"/>
  <path class="st4" d="M316.55,625.99h-158.7c-14.87,0-26.98-12.1-26.98-26.98V84c0-14.87,12.1-26.98,26.98-26.98h315.18c.55,0,.99.44.99.99s-.44.99-.99.99H157.86c-13.78,0-25,11.21-25,25v515.02c0,13.78,11.21,25,25,25h158.7c.55,0,.99.44.99.99s-.44.99-.99.99h-.01Z"/>
  <path class="st4" d="M1187.63,122.31h-165.85c-.55,0-.99-.44-.99-.99s.44-.99.99-.99h165.85c.55,0,.99.44.99.99s-.44.99-.99.99Z"/>
  <path class="st4" d="M257.67,122.31h-97.75c-.55,0-.99-.44-.99-.99s.44-.99.99-.99h97.75c.55,0,.99.44.99.99s-.44.99-.99.99Z"/>
  <path class="st4" d="M1177.77,101.17c-5.98,0-10.84-4.86-10.84-10.84s4.86-10.84,10.84-10.84,10.84,4.86,10.84,10.84-4.86,10.84-10.84,10.84ZM1177.77,81.47c-4.89,0-8.86,3.98-8.86,8.86s3.98,8.86,8.86,8.86,8.86-3.97,8.86-8.86-3.98-8.86-8.86-8.86Z"/>
  <path class="st4" d="M1144.49,101.17c-5.98,0-10.84-4.86-10.84-10.84s4.86-10.84,10.84-10.84,10.84,4.86,10.84,10.84-4.86,10.84-10.84,10.84ZM1144.49,81.47c-4.89,0-8.86,3.98-8.86,8.86s3.98,8.86,8.86,8.86,8.86-3.97,8.86-8.86-3.98-8.86-8.86-8.86Z"/>
  <path class="st4" d="M1111.21,101.17c-5.98,0-10.84-4.86-10.84-10.84s4.86-10.84,10.84-10.84,10.84,4.86,10.84,10.84-4.86,10.84-10.84,10.84ZM1111.21,81.47c-4.89,0-8.86,3.98-8.86,8.86s3.98,8.86,8.86,8.86,8.86-3.97,8.86-8.86-3.98-8.86-8.86-8.86Z"/>
  <rect class="st2" x="552.99" y="161.94" width="667.24" height="410.37" rx="48.78" ry="48.78"/>
  <path class="st5" d="M1171.45,573.65h-569.67c-27.64,0-50.13-22.49-50.13-50.13V210.73c0-27.64,22.49-50.13,50.13-50.13h569.67c27.64,0,50.13,22.49,50.13,50.13v312.8c0,27.64-22.49,50.13-50.13,50.13h0ZM601.78,163.28c-26.16,0-47.44,21.28-47.44,47.44v312.8c0,26.16,21.28,47.44,47.44,47.44h569.67c26.16,0,47.44-21.28,47.44-47.44V210.73c0-26.16-21.28-47.44-47.44-47.44h-569.67,0Z"/>
  <path class="st2" d="M645.57,249.11h113.21c5.8,0,10.51-4.71,10.51-10.51s-4.71-10.51-10.51-10.51h-113.21c-5.8,0-10.51,4.71-10.51,10.51s4.71,10.51,10.51,10.51Z"/>
  <path d="M758.78,250.45h-113.21c-6.54,0-11.85-5.32-11.85-11.85s5.32-11.85,11.85-11.85h113.21c6.54,0,11.85,5.32,11.85,11.85s-5.32,11.85-11.85,11.85ZM645.57,229.43c-5.06,0-9.17,4.11-9.17,9.17s4.11,9.17,9.17,9.17h113.21c5.06,0,9.17-4.11,9.17-9.17s-4.11-9.17-9.17-9.17h-113.21Z"/>
  <path class="st2" d="M674.41,293.96h57.56c5.8,0,10.51-4.71,10.51-10.51s-4.71-10.51-10.51-10.51h-57.56c-5.8,0-10.51,4.71-10.51,10.51s4.71,10.51,10.51,10.51Z"/>
  <path d="M731.97,295.3h-57.56c-6.54,0-11.85-5.32-11.85-11.85s5.32-11.85,11.85-11.85h57.56c6.54,0,11.85,5.32,11.85,11.85s-5.32,11.85-11.85,11.85ZM674.41,274.28c-5.06,0-9.17,4.11-9.17,9.17s4.11,9.17,9.17,9.17h57.56c5.06,0,9.17-4.11,9.17-9.17s-4.11-9.17-9.17-9.17h-57.56Z"/>
  <path class="st2" d="M645.57,338.81h86.4c5.8,0,10.51-4.71,10.51-10.51s-4.71-10.51-10.51-10.51h-86.4c-5.8,0-10.51,4.71-10.51,10.51s4.71,10.51,10.51,10.51Z"/>
  <path d="M731.97,340.15h-86.4c-6.54,0-11.85-5.32-11.85-11.85s5.32-11.85,11.85-11.85h86.4c6.54,0,11.85,5.32,11.85,11.85s-5.32,11.85-11.85,11.85ZM645.57,319.13c-5.06,0-9.17,4.11-9.17,9.17s4.11,9.17,9.17,9.17h86.4c5.06,0,9.17-4.11,9.17-9.17s-4.11-9.17-9.17-9.17h-86.4Z"/>
  <path class="st2" d="M678.27,383.65h53.7c5.8,0,10.51-4.71,10.51-10.51s-4.71-10.51-10.51-10.51h-53.7c-5.8,0-10.51,4.71-10.51,10.51s4.71,10.51,10.51,10.51Z"/>
  <path d="M731.97,384.99h-53.7c-6.54,0-11.85-5.32-11.85-11.85s5.32-11.85,11.85-11.85h53.7c6.54,0,11.85,5.32,11.85,11.85s-5.32,11.85-11.85,11.85ZM678.27,363.97c-5.06,0-9.17,4.11-9.17,9.17s4.11,9.17,9.17,9.17h53.7c5.06,0,9.17-4.11,9.17-9.17s-4.11-9.17-9.17-9.17h-53.7Z"/>
  <path class="st2" d="M667.4,455.41h64.57c5.8,0,10.51-4.71,10.51-10.51s-4.71-10.51-10.51-10.51h-64.57c-5.8,0-10.51,4.71-10.51,10.51s4.71,10.51,10.51,10.51Z"/>
  <path d="M731.97,456.75h-64.57c-6.54,0-11.85-5.32-11.85-11.85s5.32-11.85,11.85-11.85h64.57c6.54,0,11.85,5.32,11.85,11.85s-5.32,11.85-11.85,11.85ZM667.4,435.73c-5.06,0-9.17,4.11-9.17,9.17s4.11,9.17,9.17,9.17h64.57c5.06,0,9.17-4.11,9.17-9.17s-4.11-9.17-9.17-9.17h-64.57Z"/>
  <path class="st2" d="M667.4,500.25h64.57c5.8,0,10.51-4.71,10.51-10.51s-4.71-10.51-10.51-10.51h-64.57c-5.8,0-10.51,4.71-10.51,10.51s4.71,10.51,10.51,10.51Z"/>
  <path d="M731.97,501.59h-64.57c-6.54,0-11.85-5.32-11.85-11.85s5.32-11.85,11.85-11.85h64.57c6.54,0,11.85,5.32,11.85,11.85s-5.32,11.85-11.85,11.85ZM667.4,480.57c-5.06,0-9.17,4.11-9.17,9.17s4.11,9.17,9.17,9.17h64.57c5.06,0,9.17-4.11,9.17-9.17s-4.11-9.17-9.17-9.17h-64.57Z"/>
  <path class="st1" d="M797.48,249.11h86.4c5.8,0,10.51-4.71,10.51-10.51s-4.71-10.51-10.51-10.51h-86.4c-5.8,0-10.51,4.71-10.51,10.51s4.71,10.51,10.51,10.51Z"/>
  <path class="st1" d="M770.67,293.96h86.4c5.8,0,10.51-4.71,10.51-10.51s-4.71-10.51-10.51-10.51h-86.4c-5.8,0-10.51,4.71-10.51,10.51s4.71,10.51,10.51,10.51Z"/>
  <path class="st1" d="M770.67,338.81h211.5c5.8,0,10.51-4.71,10.51-10.51s-4.71-10.51-10.51-10.51h-211.5c-5.8,0-10.51,4.71-10.51,10.51s4.71,10.51,10.51,10.51Z"/>
  <path class="st1" d="M770.67,383.65h86.4c5.8,0,10.51-4.71,10.51-10.51s-4.71-10.51-10.51-10.51h-86.4c-5.8,0-10.51,4.71-10.51,10.51s4.71,10.51,10.51,10.51Z"/>
  <path class="st1" d="M770.67,455.41h50.66c5.8,0,10.51-4.71,10.51-10.51s-4.71-10.51-10.51-10.51h-50.66c-5.8,0-10.51,4.71-10.51,10.51s4.71,10.51,10.51,10.51Z"/>
  <path class="st1" d="M770.67,500.25h86.4c5.8,0,10.51-4.71,10.51-10.51s-4.71-10.51-10.51-10.51h-86.4c-5.8,0-10.51,4.71-10.51,10.51s4.71,10.51,10.51,10.51Z"/>
  <path class="st2" d="M922.58,249.11h86.4c5.8,0,10.51-4.71,10.51-10.51s-4.71-10.51-10.51-10.51h-86.4c-5.8,0-10.51,4.71-10.51,10.51s4.71,10.51,10.51,10.51Z"/>
  <path d="M1008.98,250.45h-86.4c-6.54,0-11.85-5.32-11.85-11.85s5.32-11.85,11.85-11.85h86.4c6.54,0,11.85,5.32,11.85,11.85s-5.32,11.85-11.85,11.85ZM922.58,229.43c-5.06,0-9.17,4.11-9.17,9.17s4.11,9.17,9.17,9.17h86.4c5.06,0,9.17-4.11,9.17-9.17s-4.11-9.17-9.17-9.17h-86.4Z"/>
  <path class="st2" d="M895.77,293.96h55.42c5.8,0,10.51-4.71,10.51-10.51s-4.71-10.51-10.51-10.51h-55.42c-5.8,0-10.51,4.71-10.51,10.51s4.71,10.51,10.51,10.51Z"/>
  <path d="M951.19,295.3h-55.42c-6.54,0-11.85-5.32-11.85-11.85s5.32-11.85,11.85-11.85h55.42c6.54,0,11.85,5.32,11.85,11.85s-5.32,11.85-11.85,11.85ZM895.77,274.28c-5.06,0-9.17,4.11-9.17,9.17s4.11,9.17,9.17,9.17h55.42c5.06,0,9.17-4.11,9.17-9.17s-4.11-9.17-9.17-9.17h-55.42Z"/>
  <path class="st2" d="M1020.87,338.81h118.32c5.8,0,10.51-4.71,10.51-10.51s-4.71-10.51-10.51-10.51h-118.32c-5.8,0-10.51,4.71-10.51,10.51s4.71,10.51,10.51,10.51h0Z"/>
  <path d="M1139.19,340.15h-118.32c-6.54,0-11.85-5.32-11.85-11.85s5.32-11.85,11.85-11.85h118.32c6.54,0,11.85,5.32,11.85,11.85s-5.32,11.85-11.85,11.85ZM1020.87,319.13c-5.06,0-9.17,4.11-9.17,9.17s4.11,9.17,9.17,9.17h118.32c5.06,0,9.17-4.11,9.17-9.17s-4.11-9.17-9.17-9.17h-118.32,0Z"/>
  <path class="st2" d="M895.77,383.65h123.69c5.8,0,10.51-4.71,10.51-10.51s-4.71-10.51-10.51-10.51h-123.69c-5.8,0-10.51,4.71-10.51,10.51s4.71,10.51,10.51,10.51h0Z"/>
  <path d="M1019.46,384.99h-123.69c-6.54,0-11.85-5.32-11.85-11.85s5.32-11.85,11.85-11.85h123.69c6.54,0,11.85,5.32,11.85,11.85s-5.32,11.85-11.85,11.85h0ZM895.77,363.97c-5.06,0-9.17,4.11-9.17,9.17s4.11,9.17,9.17,9.17h123.69c5.06,0,9.17-4.11,9.17-9.17s-4.11-9.17-9.17-9.17h-123.69Z"/>
  <path class="st2" d="M860.03,455.41h122.15c5.8,0,10.51-4.71,10.51-10.51s-4.71-10.51-10.51-10.51h-122.15c-5.8,0-10.51,4.71-10.51,10.51s4.71,10.51,10.51,10.51Z"/>
  <path d="M982.17,456.75h-122.14c-6.54,0-11.85-5.32-11.85-11.85s5.32-11.85,11.85-11.85h122.14c6.54,0,11.85,5.32,11.85,11.85s-5.32,11.85-11.85,11.85ZM860.03,435.73c-5.06,0-9.17,4.11-9.17,9.17s4.11,9.17,9.17,9.17h122.14c5.06,0,9.17-4.11,9.17-9.17s-4.11-9.17-9.17-9.17h-122.14Z"/>
  <path class="st3" d="M895.77,500.25h184.7c5.8,0,10.51-4.71,10.51-10.51s-4.71-10.51-10.51-10.51h-184.7c-5.8,0-10.51,4.71-10.51,10.51s4.71,10.51,10.51,10.51h0Z"/>
  <path class="st3" d="M445.36,573.76l-43.76,149.95-314.63-30.02,7.76-91.67-62.01-1.16,57.42-146.48c18.83-48.04,60.45-83.47,110.89-94.37,68.9-14.9,165.68-35.81,223.04-48.17,24.74-5.33,50.38,3.45,66.67,22.82,30.94,36.79,79.8,94.95,105.59,137.61l-138.58,118.83-12.39-17.34h0Z"/>
  <path class="st3" d="M196.49,604.99c-.12,0-.25-.02-.37-.07-.51-.2-.75-.78-.55-1.29l26.34-65.66c.2-.51.78-.75,1.29-.55s.75.78.55,1.29l-26.34,65.66c-.15.39-.53.62-.92.62Z"/>
  <path class="st2" d="M771.68,395.34c6.05-29.56-18.09-22.93-18.09-22.93,4.15-24.26-19.58-26.3-19.58-26.3,25.41-30.24,32.31-60.41,16.83-58.75-11.95,1.29-65.68,58-89.6,83.83-7.57,8.18-13.93,17.39-18.9,27.36l-47.25,94.89-10.11-11.43-121.06,103.81c28.8,40.1,63.63,67.55,94.22,85.87,41.71,24.98,95.76,9.53,118.17-33.61,41.14-79.2,81.11-197.54,81.11-197.54,7.62,0,16.43-14.25,16.43-14.25,14.99-27.47-2.15-30.96-2.15-30.96h-.02Z"/>
  <path d="M601.18,684.71c-15.17,0-30.11-4.11-43.56-12.16-38.02-22.77-69.82-51.75-94.52-86.14-.32-.44-.22-1.06.23-1.38.44-.32,1.06-.22,1.38.23,24.54,34.17,56.14,62.97,93.92,85.6,19.89,11.91,43.12,14.99,65.43,8.67,22.38-6.34,40.62-21.22,51.36-41.89,40.63-78.23,80.65-196.21,81.05-197.4.17-.52.74-.8,1.25-.62.52.17.8.74.62,1.25-.4,1.18-40.47,119.31-81.17,197.68-10.99,21.16-29.66,36.39-52.57,42.88-7.75,2.2-15.62,3.28-23.43,3.28h.01Z"/>
  <path d="M595.08,494.44c-.28,0-.55-.12-.74-.33l-10.11-11.43c-.36-.41-.32-1.03.08-1.4.41-.36,1.04-.33,1.4.09l9.14,10.33,46.6-93.58c5.01-10.06,11.42-19.34,19.06-27.59,28.58-30.88,78.32-82.86,90.22-84.14,4.7-.51,6.95,1.75,8.01,3.73,5.03,9.45-4.97,33.51-22.84,55.28,3.32.62,10.45,2.61,15.06,8.57,3.46,4.48,4.74,10.25,3.83,17.19,2.98-.53,9.84-1.13,14.48,3.2,4.17,3.9,5.37,10.73,3.57,20.3,1.63.57,4.97,2.19,6.84,6.21,2.8,6.03,1.14,14.75-4.96,25.92-.26.48-.86.66-1.34.39-.48-.26-.66-.86-.39-1.34,5.68-10.41,7.38-18.74,4.92-24.1-2.05-4.45-6.23-5.38-6.4-5.42-.53-.11-.88-.63-.77-1.17,1.9-9.31.96-15.82-2.8-19.35-5.12-4.8-13.98-2.45-14.06-2.43-.33.09-.68,0-.93-.22-.25-.23-.37-.57-.31-.9,1.2-7,.11-12.74-3.22-17.06-5.49-7.13-15.37-8.07-15.47-8.08-.37-.03-.69-.27-.83-.61s-.08-.73.16-1.02c19.94-23.72,27.84-46.72,23.74-54.43-1.12-2.1-3.15-3-6.05-2.7-8.1.87-41.37,32.1-88.98,83.52-7.51,8.12-13.82,17.24-18.74,27.13l-47.25,94.89c-.15.29-.43.5-.76.54h-.16Z"/>
  <path d="M572.34,546.04c-.13,0-.26-.03-.38-.08-.5-.21-.74-.79-.53-1.3l20.59-48.8c.21-.5.79-.74,1.3-.53.5.21.74.79.53,1.3l-20.59,48.8c-.16.38-.53.61-.91.61h-.01Z"/>
  <path d="M697.29,391.66c-3.24,0-6.48-.21-9.7-.63-.54-.07-.92-.57-.85-1.11.07-.54.56-.92,1.11-.85,12.57,1.65,25.42-.03,37.14-4.86,4.48-1.85,12.1-5.97,12.71-12.81.4-4.48-2.7-9.35-7.53-11.84-4.75-2.45-10.34-2.69-15.19-2.59-15.33.3-30.7,4.05-44.44,10.85-.49.24-1.08.04-1.33-.45-.24-.49-.04-1.08.45-1.33,14-6.93,29.66-10.75,45.28-11.06,5.09-.1,10.99.16,16.14,2.81,4.67,2.41,9.14,7.61,8.59,13.78-.7,7.88-9.03,12.45-13.92,14.47-9.04,3.73-18.72,5.63-28.45,5.63h-.01Z"/>
  <path d="M709.23,425.72c-2.99,0-5.67-1.17-7.27-3.19-1.98-2.5-2.04-5.92-1.92-8.27.49-9.16,4.15-17.96,10.3-24.77.37-.41.99-.44,1.4-.07.41.37.44.99.07,1.4-5.85,6.48-9.32,14.84-9.79,23.55-.11,2.03-.07,4.96,1.49,6.93,1.3,1.65,3.71,2.57,6.29,2.42,2.55-.15,5.05-1.24,7.15-2.28,17.81-8.79,31.29-26.35,35.2-45.83.11-.54.63-.88,1.16-.78.54.11.88.63.78,1.16-4.02,20.06-17.92,38.15-36.26,47.21-2.29,1.13-5.01,2.31-7.91,2.48-.23.01-.46.02-.69.02v.02Z"/>
  <path d="M733.19,433.43c-.86,0-1.71-.07-2.55-.2-3.36-.53-6.56-2.52-8.56-5.3-1.61-2.25-2.26-4.83-1.84-7.29.09-.54.6-.9,1.14-.81.54.09.9.6.81,1.14-.42,2.47.58,4.52,1.5,5.8,1.67,2.33,4.45,4.05,7.26,4.5,4.39.7,9.28-.7,14.97-4.26,10.98-6.89,19.39-17.42,23.67-29.66.18-.52.75-.79,1.26-.61.52.18.79.74.61,1.26-4.43,12.66-13.12,23.56-24.49,30.69-5.06,3.17-9.6,4.74-13.78,4.74h0Z"/>
  <path d="M747.54,443.79c-2.58,0-4.76-.57-6.5-1.7-2.8-1.81-4.71-5.81-2.92-9.13.26-.48.86-.66,1.34-.4.48.26.66.86.4,1.34-1.21,2.25.18,5.2,2.25,6.53,1.97,1.27,4.69,1.67,8.1,1.18,9.14-1.31,19.12-8.23,22.74-15.74.24-.49.83-.7,1.32-.46.49.24.7.83.46,1.32-3.87,8.05-14.52,15.45-24.24,16.84-1.03.15-2.01.22-2.94.22h-.01Z"/>
  <path class="st2" d="M457.75,758.65H87.95c-41.5,1.65-83.18-46.67-72.58-92.92,3.25-12.53,5.67-22.57,7.27-29.37,2.87-12.19,5-22.04,10.09-35.49.72-1.9,1.35-3.47,1.77-4.51,13.73-.33,28.74.22,44.85,1.54,25.76,2.12,85.73,7.44,112.45,18.21l-13.72,40.02,150.28,2.19c32.94,0,61.03,20.88,87.01,41.14,17.62,13.74,34.26,32.95,42.4,59.21l-.02-.02Z"/>
  <path d="M457.75,760.16h0l-364.89-.52c-24.42,0-47.16-10.95-62.38-30.05-15.22-19.1-20.82-43.71-15.37-67.51l.9-3.58c4.49-17.78,10.64-42.12,17.55-62.46.18-.52.74-.79,1.26-.62.52.18.79.74.62,1.26-6.88,20.27-13.02,44.57-17.5,62.31l-.9,3.56c-5.31,23.19.15,47.19,15,65.82,14.84,18.63,37.01,29.31,60.83,29.31l363.48.52c-6.34-17.28-19.08-41.32-44.05-60.36l-3.76-2.87c-.43-.33-.52-.95-.19-1.39s.95-.52,1.39-.19l3.76,2.87c26.01,19.82,38.93,44.98,45.2,62.59.11.3.06.64-.12.9-.19.26-.49.42-.81.42h-.02Z"/>
  <path d="M416.43,745.49c-.39,0-.76-.23-.92-.62-7.56-18.58-21.96-32.53-41.63-40.33-.51-.2-.76-.78-.56-1.28.2-.51.78-.76,1.28-.56,20.19,8.01,34.96,22.33,42.74,41.43.21.51-.04,1.08-.54,1.29-.12.05-.25.07-.37.07h0Z"/>
  <path d="M371.83,745.49c-.38,0-.74-.22-.9-.59-6.99-15.69-20.89-28.31-37.17-33.78-.52-.17-.8-.73-.62-1.25.17-.52.74-.8,1.25-.62,16.8,5.64,31.13,18.66,38.35,34.85.22.5,0,1.08-.5,1.31-.13.06-.27.09-.4.09h-.01Z"/>
  <path class="st4" d="M757.29,760.76h-442.98c-6.11,0-11.07-4.96-11.07-11.07v-2.61c0-12.03,9.75-21.78,21.78-21.78h464.2l-3.73,13.85c-3.43,12.75-14.99,21.61-28.2,21.61h0Z"/>
  <path class="st4" d="M770.24,744.71h-273.94c-11.7,0-20.29-10.98-17.48-22.34l51.77-208.86c1.99-8.03,9.2-13.67,17.48-13.67h273.94c11.7,0,20.29,10.98,17.48,22.34l-51.77,208.86c-1.99,8.03-9.2,13.67-17.48,13.67h0Z"/>
  <path class="st4" d="M770.24,745.2h-273.94c-5.73,0-11.04-2.59-14.57-7.1-3.53-4.51-4.77-10.29-3.39-15.85l51.77-208.86c2.05-8.27,9.44-14.05,17.96-14.05h273.94c5.73,0,11.04,2.59,14.57,7.1s4.77,10.29,3.39,15.85l-51.77,208.86c-2.05,8.27-9.44,14.05-17.96,14.05h0ZM548.07,500.33c-8.07,0-15.05,5.47-17,13.3l-51.77,208.86c-1.3,5.26-.14,10.73,3.21,15,3.34,4.27,8.37,6.72,13.79,6.72h273.94c8.07,0,15.06-5.47,17-13.3l51.77-208.86c1.3-5.26.14-10.73-3.21-15-3.34-4.27-8.37-6.72-13.79-6.72h-273.94Z"/>
  <path class="st5" d="M686.29,580.43c0,5-4.05,9.05-9.05,9.05s-9.05-4.05-9.05-9.05,4.05-9.05,9.05-9.05,9.05,4.05,9.05,9.05Z"/>
  <path class="st2" d="M306.73,254.56l-39.38,90.08-31.66,7.9s66.38,42.93,102.94,33.49c35.72-9.22,44.55-42.98,38.95-64.14l-24.66,4.65,10.32-35.74s-17.77-58.43-56.5-36.23h-.01Z"/>
  <path d="M235.68,353.52c-.44,0-.85-.3-.96-.75-.13-.53.19-1.07.72-1.2l31.19-7.78,39.19-89.63c.08-.19.23-.36.41-.46,9.67-5.55,18.93-6.63,27.52-3.23,20.52,8.14,30.03,38.72,30.42,40.02.06.18.06.38,0,.56l-9.87,34.2,23.08-4.35c.54-.1,1.06.25,1.16.79s-.25,1.05-.79,1.16l-24.66,4.65c-.34.06-.68-.05-.92-.31-.23-.25-.31-.61-.22-.94l10.23-35.46c-1-3.09-10.54-31.1-29.18-38.49-7.91-3.14-16.5-2.15-25.52,2.95l-39.25,89.77c-.12.28-.37.49-.67.56l-31.66,7.9c-.08.02-.16.03-.24.03h.02Z"/>
  <path d="M343.84,353.52c-.1,0-.21-.02-.31-.05-.52-.17-.8-.73-.63-1.25l7.22-22.04c.17-.52.72-.8,1.25-.63.52.17.8.73.63,1.25l-7.22,22.04c-.14.42-.52.68-.94.68Z"/>
  <path class="st4" d="M295.03,227.16s-31.9-46.06-26.16-56.66,17.95-6.24,17.95-6.24c0,0,47.32-85.02,71.02-51.36,0,0,14.38-25.57,35.29-12.24s15.09,29.9,1.69,40.93c0,0,13.5,25.02,1.83,37.69-11.66,12.67,1.68,42.83,10.67,46.4,0,0,26.91,58.94.76,75.67-26.14,16.72-77.54,19.58-91.52-45.64l-21.53-28.54h0Z"/>
  <path class="st2" d="M311.42,231l5.13,24.7s-25.49,7.45-35.54-12.63c-9.22-18.42,7.22-35.47,24.67-21.5,2.96,2.37,4.97,5.72,5.74,9.43Z"/>
  <path d="M305.95,257.99c-8.5,0-19.83-2.52-25.81-14.48-4.63-9.25-3.24-19.44,3.38-24.79,4.86-3.93,13.4-5.45,22.79,2.08,3.11,2.49,5.27,6.04,6.09,10l5.13,24.7c.1.51-.2,1.01-.69,1.15-.11.03-4.76,1.34-10.89,1.34ZM292.8,217.45c-2.95,0-5.72.93-8.05,2.81-4.82,3.89-7.76,12.55-2.85,22.36,8.54,17.05,28.99,13.39,33.49,12.35l-4.94-23.77c-.73-3.51-2.64-6.66-5.39-8.86-4.05-3.24-8.33-4.9-12.26-4.9h0Z"/>
  <path d="M309.3,248.18c-.34,0-.66-.17-.85-.48-3.21-5.34-9.31-8.81-15.54-8.86-.55,0-.99-.45-.98-1,0-.54.45-.98.99-.98h0c6.9.05,13.66,3.9,17.22,9.82.28.47.13,1.08-.34,1.36-.16.1-.34.14-.51.14h.01Z"/>
  <path class="st2" d="M396.71,170.3s-37.04,4.66-51.31,14.64c-7.45,5.21-10.77,14.57-8.27,23.31,2.51,8.79,5.87,19.51,9.31,27.4,2.35,5.39,8.07,8.46,13.86,7.45,11.86-2.07,32.83-6.99,47.01-17.43l-10.6-55.38h0Z"/>
  <path class="st2" d="M358.09,244.29c-5.38,0-10.34-3.16-12.55-8.24-3.57-8.21-7.06-19.5-9.35-27.52-2.61-9.14.86-18.95,8.65-24.39,14.31-10.01,50.24-14.62,51.76-14.81.54-.07,1,.28,1.1.8l10.6,55.38c.07.37-.08.76-.39.98-14.45,10.63-35.91,15.59-47.42,17.6-.8.14-1.6.21-2.39.21h0ZM395.92,171.4c-5.79.8-37.28,5.48-49.95,14.35-7.1,4.97-10.26,13.9-7.88,22.23,3.27,11.42,6.47,20.86,9.27,27.27,2.17,4.98,7.42,7.81,12.79,6.87,11.2-1.96,31.96-6.74,46.09-16.88l-10.3-53.84h-.02Z"/>
  <path class="st3" d="M1131.64,701.83h-309.66c-.55,0-.99-1.18-.99-2.65s.44-2.65.99-2.65h308.67v-122.36c0-1.46.44-2.65.99-2.65s.99,1.19.99,2.65v125.01c0,1.46-.44,2.65-.99,2.65Z"/>
  <path class="st3" d="M1001.37,756.58h-203.09c-.55,0-.99-.44-.99-.99s.44-.99.99-.99h203.09c.55,0,.99.44.99.99s-.44.99-.99.99Z"/>
  <path class="st3" d="M1165.26,819.02h-332.94c-.26,0-.51-.1-.7-.29l-50.19-50.19c-.39-.39-.39-1.01,0-1.4s1.01-.39,1.4,0l49.9,49.9h332.53c.55,0,.99.44.99.99s-.44.99-.99.99Z"/>
  <circle class="st3" cx="1165.26" cy="818.03" r="18.49"/>
  <path class="st3" d="M1165.26,837.51c-10.74,0-19.48-8.74-19.48-19.48s8.74-19.48,19.48-19.48,19.48,8.74,19.48,19.48-8.74,19.48-19.48,19.48ZM1165.26,800.53c-9.65,0-17.5,7.85-17.5,17.5s7.85,17.5,17.5,17.5,17.5-7.85,17.5-17.5-7.85-17.5-17.5-17.5Z"/>
  <circle class="st3" cx="1001.37" cy="755.59" r="18.49"/>
  <path class="st3" d="M1001.37,775.07c-10.74,0-19.48-8.74-19.48-19.48s8.74-19.48,19.48-19.48,19.48,8.74,19.48,19.48-8.74,19.48-19.48,19.48ZM1001.37,738.09c-9.65,0-17.5,7.85-17.5,17.5s7.85,17.5,17.5,17.5,17.5-7.85,17.5-17.5-7.85-17.5-17.5-17.5Z"/>
  <path class="st3" d="M19.48,216.38h203.09c.55,0,.99.44.99.99s-.44.99-.99.99H19.48c-.55,0-.99-.44-.99-.99s.44-.99.99-.99Z"/>
  <circle class="st3" cx="19.48" cy="217.37" r="18.49"/>
  <path class="st3" d="M19.48,197.88c10.74,0,19.48,8.74,19.48,19.48s-8.74,19.48-19.48,19.48S0,228.11,0,217.37s8.74-19.48,19.48-19.48h0ZM19.48,234.87c9.65,0,17.5-7.85,17.5-17.5s-7.85-17.5-17.5-17.5-17.5,7.85-17.5,17.5,7.85,17.5,17.5,17.5Z"/>
  <rect class="st3" x="393.38" y="0" width="635.34" height="97.87" rx="19.57" ry="19.57"/>
  <g class="st0">
    <g class="st0">
      <path class="st6" d="M447.26,59.18c0,2.09-.52,3.92-1.55,5.49-1.03,1.56-2.52,2.77-4.46,3.62-1.95.85-4.31,1.27-7.11,1.27-1.23,0-2.44-.08-3.62-.25-1.18-.17-2.31-.41-3.39-.72-1.08-.32-2.1-.71-3.07-1.17v-7.03c1.7.73,3.45,1.41,5.26,2.02,1.81.62,3.62.92,5.41.92,1.23,0,2.22-.17,2.97-.5.75-.33,1.3-.78,1.65-1.35.35-.56.52-1.21.52-1.95,0-.9-.31-1.66-.92-2.29-.62-.63-1.44-1.22-2.47-1.77-1.03-.55-2.21-1.14-3.54-1.77-.83-.4-1.73-.87-2.69-1.42-.96-.55-1.89-1.23-2.77-2.05-.88-.81-1.6-1.8-2.17-2.97-.57-1.16-.85-2.56-.85-4.19,0-2.13.49-3.95,1.47-5.46.98-1.51,2.38-2.67,4.19-3.47,1.81-.8,3.95-1.2,6.41-1.2,1.86,0,3.63.22,5.31.65,1.68.43,3.43,1.05,5.26,1.85l-2.44,5.89c-1.63-.67-3.09-1.18-4.39-1.55s-2.63-.55-3.99-.55c-.93,0-1.73.15-2.39.45-.67.3-1.17.71-1.52,1.25s-.52,1.16-.52,1.89c0,.83.25,1.54.75,2.12.5.58,1.25,1.14,2.24,1.67,1,.53,2.24,1.17,3.74,1.9,1.83.87,3.38,1.76,4.66,2.69,1.28.93,2.27,2.03,2.97,3.29.7,1.26,1.05,2.83,1.05,4.69Z"/>
      <path class="st6" d="M488.91,51.2c0,2.76-.34,5.26-1.02,7.51-.68,2.25-1.71,4.18-3.09,5.81-1.38,1.63-3.13,2.88-5.26,3.74-2.13.86-4.66,1.3-7.58,1.3s-5.41-.43-7.56-1.3c-2.15-.86-3.91-2.11-5.29-3.74-1.38-1.63-2.41-3.57-3.09-5.81-.68-2.24-1.02-4.76-1.02-7.56,0-3.69.61-6.9,1.82-9.63,1.21-2.73,3.08-4.85,5.59-6.36,2.51-1.51,5.71-2.27,9.6-2.27s7.04.76,9.55,2.27c2.51,1.51,4.36,3.64,5.56,6.38s1.8,5.96,1.8,9.65ZM463.03,51.2c0,2.46.31,4.59.92,6.38.62,1.8,1.59,3.17,2.92,4.12,1.33.95,3.03,1.42,5.09,1.42s3.85-.47,5.16-1.42c1.31-.95,2.27-2.32,2.87-4.12s.9-3.92.9-6.38c0-3.72-.68-6.65-2.05-8.78-1.36-2.13-3.64-3.19-6.83-3.19-2.09,0-3.81.48-5.14,1.45-1.33.96-2.3,2.34-2.92,4.12-.62,1.78-.92,3.92-.92,6.41Z"/>
      <path class="st6" d="M506.62,69.06h-7.43v-35.61h20.4v6.18h-12.97v9.18h12.07v6.18h-12.07v14.07Z"/>
      <path class="st6" d="M543.28,69.06h-7.63v-29.28h-9.63v-6.33h26.89v6.33h-9.63v29.28Z"/>
    </g>
    <g class="st0">
      <path class="st6" d="M605.08,33.45l-9.08,35.61h-8.58l-4.84-18.71c-.1-.37-.22-.91-.37-1.65-.15-.73-.32-1.53-.5-2.39-.18-.86-.34-1.69-.47-2.47-.13-.78-.23-1.39-.3-1.82-.03.43-.12,1.04-.27,1.82-.15.78-.31,1.6-.47,2.44-.17.85-.33,1.65-.5,2.39-.17.75-.3,1.32-.4,1.72l-4.79,18.66h-8.58l-9.08-35.61h7.43l4.54,19.45c.13.57.28,1.26.45,2.07.17.82.33,1.66.5,2.54.17.88.32,1.74.47,2.57.15.83.26,1.55.32,2.14.07-.63.17-1.35.3-2.17.13-.81.28-1.65.45-2.49.17-.85.32-1.65.47-2.39.15-.75.29-1.34.42-1.77l5.19-19.95h7.13l5.19,19.95c.1.43.23,1.02.4,1.77.17.75.33,1.55.5,2.42.17.87.32,1.71.45,2.52.13.81.23,1.52.3,2.12.1-.83.25-1.82.45-2.97.2-1.15.42-2.3.67-3.47.25-1.16.46-2.13.62-2.89l4.54-19.45h7.43Z"/>
    </g>
    <g class="st0">
      <path class="st6" d="M632.36,69.06l-2.74-8.38h-12.57l-2.74,8.38h-8.23l12.52-35.76h9.38l12.62,35.76h-8.23ZM625.38,46.56c-.13-.5-.34-1.25-.62-2.24-.28-1-.56-2.02-.82-3.07-.27-1.05-.48-1.9-.65-2.57-.13.77-.32,1.65-.57,2.64-.25,1-.49,1.96-.72,2.89-.23.93-.43,1.71-.6,2.34l-2.54,7.73h9.03l-2.49-7.73Z"/>
      <path class="st6" d="M658.75,33.45c3.12,0,5.72.39,7.78,1.17,2.06.78,3.6,1.94,4.61,3.47,1.01,1.53,1.52,3.44,1.52,5.74,0,1.6-.28,3.01-.85,4.24s-1.33,2.28-2.29,3.14c-.96.87-2.06,1.58-3.29,2.15l10.12,15.71h-8.73l-7.93-13.67h-4.24v13.67h-7.63v-35.61h10.92ZM658.6,39.38h-3.14v10.13h3.14c2.03,0,3.59-.42,4.69-1.25,1.1-.83,1.65-2.2,1.65-4.09,0-1.06-.22-1.95-.67-2.64-.45-.7-1.14-1.23-2.07-1.6-.93-.37-2.13-.55-3.59-.55Z"/>
      <path class="st6" d="M704.29,69.06h-20.5v-35.61h20.5v6.18h-12.97v7.83h12.07v6.18h-12.07v9.18h12.97v6.24Z"/>
      <path class="st6" d="M751.17,69.06h-20.5v-35.61h20.5v6.18h-12.97v7.83h12.07v6.18h-12.07v9.18h12.97v6.24Z"/>
      <path class="st6" d="M793.17,69.06h-9.58l-15.51-26.94h-.2c.07,1.13.12,2.26.17,3.39s.1,2.26.15,3.39c.05,1.13.09,2.26.12,3.39v16.76h-6.73v-35.61h9.53l15.46,26.69h.15c-.03-1.1-.07-2.19-.1-3.29-.03-1.1-.08-2.19-.12-3.27-.05-1.08-.09-2.17-.12-3.27v-16.86h6.78v35.61Z"/>
      <path class="st6" d="M818.66,49.06h14.12v18.46c-1.86.63-3.8,1.13-5.81,1.5-2.01.37-4.3.55-6.86.55-3.53,0-6.53-.7-9-2.09-2.48-1.4-4.36-3.46-5.64-6.19-1.28-2.73-1.92-6.08-1.92-10.08,0-3.72.72-6.95,2.17-9.68,1.45-2.73,3.55-4.84,6.31-6.33,2.76-1.5,6.14-2.25,10.13-2.25,1.9,0,3.76.2,5.59.6,1.83.4,3.49.93,4.99,1.6l-2.49,6.04c-1.1-.57-2.34-1.03-3.74-1.4s-2.86-.55-4.39-.55c-2.19,0-4.1.5-5.71,1.5-1.61,1-2.86,2.4-3.74,4.21-.88,1.81-1.32,3.95-1.32,6.41,0,2.33.32,4.39.95,6.18.63,1.8,1.63,3.2,2.99,4.21,1.36,1.01,3.14,1.52,5.34,1.52,1.06,0,1.97-.05,2.72-.15s1.44-.22,2.07-.35v-7.43h-6.73v-6.29Z"/>
      <path class="st6" d="M857.57,69.06h-16.21v-4.29l4.34-2v-23.04l-4.34-2v-4.29h16.21v4.29l-4.34,2v23.04l4.34,2v4.29Z"/>
      <path class="st6" d="M898.22,69.06h-9.58l-15.51-26.94h-.2c.07,1.13.12,2.26.17,3.39s.1,2.26.15,3.39c.05,1.13.09,2.26.12,3.39v16.76h-6.73v-35.61h9.53l15.46,26.69h.15c-.03-1.1-.07-2.19-.1-3.29-.03-1.1-.08-2.19-.12-3.27-.05-1.08-.09-2.17-.12-3.27v-16.86h6.78v35.61Z"/>
      <path class="st6" d="M930.69,69.06h-20.5v-35.61h20.5v6.18h-12.97v7.83h12.07v6.18h-12.07v9.18h12.97v6.24Z"/>
      <path class="st6" d="M961.62,69.06h-20.5v-35.61h20.5v6.18h-12.97v7.83h12.07v6.18h-12.07v9.18h12.97v6.24Z"/>
      <path class="st6" d="M982.72,33.45c3.12,0,5.72.39,7.78,1.17,2.06.78,3.6,1.94,4.61,3.47,1.01,1.53,1.52,3.44,1.52,5.74,0,1.6-.28,3.01-.85,4.24s-1.33,2.28-2.29,3.14c-.96.87-2.06,1.58-3.29,2.15l10.12,15.71h-8.73l-7.93-13.67h-4.24v13.67h-7.63v-35.61h10.92ZM982.57,39.38h-3.14v10.13h3.14c2.03,0,3.59-.42,4.69-1.25,1.1-.83,1.65-2.2,1.65-4.09,0-1.06-.22-1.95-.67-2.64-.45-.7-1.14-1.23-2.07-1.6-.93-.37-2.13-.55-3.59-.55Z"/>
    </g>
  </g>
</svg>